# This file uses centimeters as units for non-parametric coordinates.

mtllib nj_house_single_gable_span_01.mtl
g default
v -0.000244 0.000000 0.000000
v 127.999756 0.000000 0.000000
v -0.000244 0.000000 -16.000000
v 127.999756 0.000000 -16.000000
v 63.999756 128.000000 -16.000000
v 63.999756 128.000000 0.000000
v 63.999756 0.000000 0.000000
vt 0.088005 0.794932
vt 0.017647 0.165628
vt 0.088005 0.165628
vt 0.017647 0.794932
vt 0.545780 0.168160
vt 0.017647 0.165628
vt 0.088005 0.165628
vt 0.323883 0.168160
vt 0.767677 0.168160
vt 0.545780 0.611954
vt 0.017647 0.794932
vt 0.088005 0.794932
vn 0.000000 1.000000 0.000000
vn -0.894427 0.447214 0.000000
vn -0.894427 0.447214 0.000000
vn 0.000000 1.000000 0.000000
vn 0.000000 0.000000 1.000000
vn 0.000000 0.000000 1.000000
vn 0.000000 0.000000 1.000000
vn 0.894427 0.447214 0.000000
vn 0.894427 0.447214 0.000000
vn 0.000000 0.000000 1.000000
s 1
g nj_house_single_gable_span_01
usemtl nj_house_gables_matSG
f 5/11/1 3/2/2 1/3/3 6/12/4
s 2
f 7/5/5 2/9/6 6/10/7
s 1
f 2/6/8 4/7/9 5/1/1 6/4/4
s 2
f 1/8/10 7/5/5 6/10/7
