# This file uses centimeters as units for non-parametric coordinates.

mtllib nj_house_single_roof_span_01.mtl
g default
v -0.000366 0.000000 0.000000
v 127.999634 0.000000 0.000000
v -0.000366 0.000000 -127.999939
v 127.999634 0.000000 -127.999939
v 63.999634 128.000000 -127.999939
v 63.999634 128.000000 0.000000
v -16.000366 0.000000 -127.999939
v 63.999634 136.800598 -127.999939
v -16.000366 0.000000 0.000000
v 63.999634 136.800598 0.000000
v 143.999634 0.000000 0.000000
v 143.999634 0.000000 -127.999939
vt 0.913370 0.398917
vt 0.013617 0.057648
vt 0.962127 0.008868
vt 0.962127 0.398917
vt 0.969410 0.501886
vt 0.556559 0.295461
vt 0.556559 0.243855
vt 0.963312 0.009070
vt 0.516409 0.625533
vt 0.997795 0.501886
vt 0.914556 0.399118
vt 0.914556 0.009070
vt 0.013617 0.626673
vt 0.521117 0.056508
vt 0.556559 0.243855
vt 0.556559 0.295461
vt 0.556559 0.759918
vt 0.556559 0.708311
vt 0.556559 0.759918
vt 0.997795 0.501885
vt 0.518242 0.689188
vt 0.011455 0.055913
vt 0.518242 0.055913
vt 0.518242 0.689188
vt 0.011455 0.055913
vt 0.518242 0.055913
vt 0.556559 0.708312
vt 0.969410 0.501887
vt 0.012166 0.625533
vt 0.963312 0.399118
vt 0.913370 0.008868
vt 0.517861 0.057648
vt 0.517861 0.626673
vt 0.012165 0.056508
vt 0.011455 0.689188
vt 0.011455 0.689188
vn -0.863230 0.504811 0.000000
vn -0.863230 0.504811 0.000000
vn -0.863230 0.504811 0.000000
vn -0.863230 0.504811 0.000000
vn 0.863230 0.504811 0.000000
vn 0.863230 0.504811 0.000000
vn 0.863230 0.504811 0.000000
vn 0.863230 0.504811 0.000000
vn 0.000000 0.000000 -1.000000
vn 0.000000 0.000000 -1.000000
vn 0.000000 0.000000 -1.000000
vn 0.000000 0.000000 -1.000000
vn 0.000000 -1.000000 0.000000
vn 0.000000 -1.000000 0.000000
vn 0.000000 -1.000000 0.000000
vn 0.000000 -1.000000 0.000000
vn 0.000000 0.000000 1.000000
vn 0.000000 0.000000 1.000000
vn 0.000000 0.000000 1.000000
vn 0.000000 0.000000 1.000000
vn 0.000000 -1.000000 0.000000
vn 0.000000 -1.000000 0.000000
vn 0.000000 -1.000000 0.000000
vn 0.000000 -1.000000 0.000000
vn 0.000000 0.000000 -1.000000
vn 0.000000 0.000000 -1.000000
vn 0.000000 0.000000 -1.000000
vn 0.000000 0.000000 -1.000000
vn 0.000000 0.000000 1.000000
vn 0.000000 0.000000 1.000000
vn 0.000000 0.000000 1.000000
vn 0.000000 0.000000 1.000000
vn 0.894427 -0.447214 0.000000
vn 0.894427 -0.447214 0.000000
vn 0.894427 -0.447214 0.000000
vn 0.894427 -0.447214 0.000000
vn -0.894427 -0.447214 0.000000
vn -0.894427 -0.447214 0.000000
vn -0.894427 -0.447214 0.000000
vn -0.894427 -0.447214 0.000000
s off
g nj_house_single_roof_span_01
usemtl nj_house_roof_matSG
f 8/35/1 7/22/2 9/23/3 10/24/4
f 11/25/5 12/26/6 8/21/7 10/36/8
f 5/5/9 3/6/10 7/7/11 8/10/12
f 3/1/13 1/31/14 9/3/15 7/4/16
f 1/27/17 6/28/18 10/20/19 9/19/20
f 2/8/21 4/30/22 12/11/23 11/12/24
f 4/18/25 5/5/26 8/10/27 12/17/28
f 6/28/29 2/16/30 11/15/31 10/20/32
f 6/13/33 1/2/34 3/32/35 5/33/36
f 5/14/37 4/9/38 2/29/39 6/34/40
