# This file uses centimeters as units for non-parametric coordinates.

mtllib nj_house_double_wide_gable_01.mtl
g default
v -0.000366 0.000000 0.000000
v 255.999390 0.000000 0.000000
v -0.000366 0.000000 -16.000000
v 255.999390 0.000000 -16.000000
v 127.999634 128.000000 0.000000
v 127.999634 128.000000 -16.000000
v 127.999634 -0.000015 0.000000
vt 0.088005 0.794932
vt 0.017647 0.165628
vt 0.088005 0.165628
vt 0.088005 0.794932
vt 0.088005 0.165628
vt 0.017647 0.165628
vt 0.545836 0.168160
vt 0.102042 0.168160
vt 0.989630 0.168160
vt 0.545836 0.611954
vt 0.017647 0.794932
vt 0.017647 0.794932
vn 0.000000 1.000000 0.000000
vn -0.707107 0.707107 0.000000
vn -0.707107 0.707107 0.000000
vn 0.000000 1.000000 0.000000
vn 0.707107 0.707106 0.000000
vn 0.707107 0.707106 0.000000
vn 0.000000 0.000000 1.000000
vn 0.000000 0.000000 1.000000
vn 0.000000 0.000000 1.000000
vn 0.000000 0.000000 1.000000
s 1
g nj_house_double_wide_gable_01
usemtl nj_house_gables_matSG
f 6/12/1 3/2/2 1/3/3 5/4/4
f 4/5/5 6/1/1 5/11/4 2/6/6
s 2
f 7/7/7 2/9/8 5/10/9
f 1/8/10 7/7/7 5/10/9
