# This file uses centimeters as units for non-parametric coordinates.

mtllib wc_house_2.mtl
g default
v -11.434860 121.622681 169.170593
v 162.668152 121.622681 169.170593
v 162.668152 124.337311 172.260498
v -11.434860 124.337311 172.260498
v 162.668152 174.321381 85.269852
v 162.668152 178.818268 85.268326
v -11.434860 174.321381 85.269852
v -11.434860 178.818268 85.268326
v -11.434860 121.619781 1.482132
v 162.668152 121.619781 1.482132
v -11.434860 124.332420 -1.610794
v 162.668152 124.332420 -1.610794
v 0.000015 174.321381 85.269852
v 151.233276 174.321381 85.269852
v 151.233276 126.566376 168.701233
v 0.000015 126.566376 168.701233
v 0.000015 123.856308 165.614441
v 151.233276 123.856308 165.614441
v 151.233276 124.827408 6.581818
v 0.000015 124.827408 6.581818
v 0.000015 127.533524 3.493408
v 151.233276 127.533524 3.493408
v 0.000015 136.472565 145.528320
v -11.434860 134.797379 148.195404
v -11.434860 137.957535 150.512451
v 0.000015 139.629333 147.843018
v 151.233276 139.629333 147.843018
v 162.668152 137.957535 150.512451
v 162.668152 134.797379 148.195404
v 151.233276 136.472565 145.528320
v 0.000015 149.088867 125.442169
v -11.434860 147.972046 127.220215
v -11.434860 151.577820 128.764404
v 162.668152 151.577820 128.764404
v 162.668152 147.972046 127.220215
v 151.233276 149.088867 125.442169
v 0.000015 161.705154 105.355988
v -11.434860 161.146729 106.245041
v -11.434860 165.198059 107.016373
v 162.668152 165.198059 107.016373
v 162.668152 161.146729 106.245041
v 151.233276 161.705154 105.355988
v 0.000015 161.947891 65.597839
v -11.434860 161.145981 64.322906
v -11.434860 165.196869 63.548553
v 162.668152 165.196869 63.548553
v 162.668152 161.145981 64.322906
v 151.233276 161.947891 65.597839
v 0.000015 149.574402 45.925827
v -11.434860 147.970581 43.375977
v -11.434860 151.575378 41.828766
v 162.668152 151.575378 41.828766
v 162.668152 147.970581 43.375977
v 151.233276 149.574402 45.925827
v 0.000015 137.200897 26.253830
v -11.434860 134.795151 22.429062
v -11.434860 137.953888 20.108978
v 0.000015 140.354706 23.937149
v 151.233276 140.354706 23.937149
v 162.668152 137.953888 20.108978
v 162.668152 134.795151 22.429062
v 151.233276 137.200897 26.253830
v 162.668152 167.333374 108.478989
v 162.668152 180.953156 85.267624
v -11.434860 167.333374 108.478989
v -11.434860 180.953156 85.267624
v -11.434860 140.092865 151.975067
v 0.000015 140.691986 149.305634
v 0.000015 154.827637 128.447418
v -11.434860 153.713135 130.227020
v 151.233276 140.691986 149.305634
v 151.233276 154.827637 128.447418
v 162.668152 140.092865 151.975067
v 162.668152 153.713135 130.227020
v -11.434860 167.331238 62.084503
v 162.668152 167.331238 62.084503
v -11.434860 153.709778 40.364716
v 0.000015 155.310303 42.916840
v 151.233276 155.310303 42.916840
v 162.668152 153.709778 40.364716
v -11.434860 140.088318 18.644928
v 0.000015 141.416473 22.473099
v 151.233276 141.416473 22.473099
v 162.668152 140.088318 18.644928
v 151.244781 170.110321 109.075867
v 162.689941 169.554626 109.962433
v 162.712341 183.190369 85.267136
v -0.011505 170.110321 109.075851
v -11.456635 169.554626 109.962433
v -11.479034 183.190369 85.267136
v -11.434845 155.918182 131.737396
v 0.000015 155.959991 129.957794
v 151.233276 155.959991 129.957794
v 162.668152 155.918182 131.737396
v -11.457245 169.551758 60.599854
v -0.012085 170.350708 61.873047
v 151.245392 170.350708 61.873047
v 162.690552 169.551758 60.599838
v -11.434860 155.913925 38.852875
v 0.000015 156.441772 41.404984
v 151.233276 156.441772 41.404984
v 162.668152 155.913925 38.852875
v 151.278625 171.750229 110.194977
v 162.757599 172.273315 111.069824
v 162.780914 184.973877 85.266953
v 151.298737 184.092987 85.266815
v -0.045319 171.750229 110.194962
v -0.065460 184.092987 85.266815
v -11.524292 172.273315 111.069824
v -11.547607 184.973877 85.266937
v -11.526733 172.270142 59.492065
v -0.046829 171.990448 60.753693
v 151.280151 171.990448 60.753693
v 162.760040 172.270142 59.492065
v 0.000000 0.000000 164.406036
v 151.233276 0.000000 164.406036
v 0.000000 124.615326 164.406036
v 151.233276 124.615326 164.406036
v 0.000000 124.615326 6.244659
v 151.233276 124.615326 6.244659
v 0.000000 0.000000 6.244659
v 151.233276 0.000000 6.244659
v 0.000000 174.321381 85.269836
v 151.233276 174.321381 85.269836
v 0.000000 0.000000 25.349762
v 151.233276 0.000000 25.349762
v 0.000000 0.000000 145.300964
v 151.233276 0.000008 145.300964
v 151.233276 100.372833 145.300964
v 151.233276 100.372833 164.406036
v 0.000000 100.372833 164.406036
v 0.000000 100.372849 145.300964
v 0.000000 100.372833 25.349762
v 0.000000 100.372833 6.244659
v 151.233276 100.372833 6.244659
v 151.233276 100.372833 25.349762
v 0.000000 108.941605 55.337540
v 151.233276 108.941605 55.337540
v 0.000000 124.615326 85.325348
v 0.000000 113.442558 85.325348
v 151.233276 113.442551 85.325348
v 151.233276 124.615326 85.325348
v 0.000000 108.941612 115.313110
v 151.233276 108.941605 115.313110
v 0.000000 100.372833 -31.999992
v 151.233276 100.372833 -31.999992
v 151.233276 0.000000 -31.999992
v 0.000000 0.000000 -31.999992
v 0.000000 124.615326 -31.999992
v 151.233276 124.615326 -31.999992
vt 0.373274 0.279838
vt 0.601558 0.278808
vt 0.601568 0.278772
vt 0.373253 0.279767
vt 0.625000 0.375000
vt 0.625000 0.375000
vt 0.375000 0.375000
vt 0.375000 0.375000
vt 0.583333 0.457065
vt 0.416667 0.457065
vt 0.416667 0.457109
vt 0.583333 0.457109
vt 0.458333 0.375000
vt 0.458333 0.375000
vt 0.541667 0.375000
vt 0.541667 0.375000
vt 0.550547 0.281756
vt 0.449453 0.281756
vt 0.449467 0.281898
vt 0.550534 0.281898
vt 0.541667 0.453261
vt 0.458333 0.453261
vt 0.458333 0.453437
vt 0.541667 0.453437
vt 0.451683 0.305174
vt 0.373705 0.303629
vt 0.373690 0.303575
vt 0.451673 0.305067
vt 0.548327 0.305067
vt 0.607426 0.302829
vt 0.607418 0.302856
vt 0.548317 0.305174
vt 0.453900 0.328449
vt 0.374137 0.327419
vt 0.374127 0.327383
vt 0.453893 0.328378
vt 0.546107 0.328378
vt 0.613284 0.326886
vt 0.613279 0.326904
vt 0.546100 0.328449
vt 0.456117 0.351725
vt 0.374568 0.351210
vt 0.374563 0.351192
vt 0.456113 0.351689
vt 0.543887 0.351689
vt 0.619142 0.350943
vt 0.619139 0.350952
vt 0.543883 0.351725
vt 0.458333 0.394565
vt 0.385417 0.395516
vt 0.385417 0.395527
vt 0.458333 0.394609
vt 0.541667 0.394609
vt 0.614583 0.395527
vt 0.614583 0.395516
vt 0.541667 0.394565
vt 0.458333 0.414131
vt 0.395833 0.416033
vt 0.395833 0.416055
vt 0.458333 0.414219
vt 0.541667 0.414219
vt 0.604167 0.416055
vt 0.604167 0.416033
vt 0.541667 0.414131
vt 0.458333 0.433696
vt 0.406250 0.436549
vt 0.406250 0.436582
vt 0.458333 0.433828
vt 0.541667 0.433828
vt 0.593750 0.436582
vt 0.593750 0.436549
vt 0.541667 0.433696
vt 0.619142 0.350943
vt 0.625000 0.375000
vt 0.375000 0.375000
vt 0.374563 0.351192
vt 0.373690 0.303575
vt 0.451673 0.305067
vt 0.374127 0.327383
vt 0.548327 0.305067
vt 0.607426 0.302829
vt 0.613284 0.326886
vt 0.385417 0.395527
vt 0.614583 0.395527
vt 0.395833 0.416055
vt 0.604167 0.416055
vt 0.458333 0.433828
vt 0.406250 0.436582
vt 0.541667 0.433828
vt 0.593750 0.436582
vt 0.619142 0.350943
vt 0.625000 0.375000
vt 0.375000 0.375000
vt 0.374563 0.351192
vt 0.374127 0.327383
vt 0.453893 0.328378
vt 0.546107 0.328378
vt 0.613284 0.326886
vt 0.385417 0.395527
vt 0.614583 0.395527
vt 0.458333 0.414219
vt 0.395833 0.416055
vt 0.541667 0.414219
vt 0.604167 0.416055
vt 0.543887 0.351689
vt 0.619142 0.350943
vt 0.625000 0.375000
vt 0.456113 0.351689
vt 0.374563 0.351192
vt 0.375000 0.375000
vt 0.458333 0.394609
vt 0.385417 0.395527
vt 0.541667 0.394609
vt 0.614583 0.395527
vt 0.375000 0.000000
vt 0.625000 0.000000
vt 0.625000 0.148345
vt 0.375000 0.148345
vt 0.708333 0.000000
vt 0.708333 0.148345
vt 0.291667 0.000000
vt 0.291667 0.148345
vt 0.125000 0.000000
vt 0.208333 0.000000
vt 0.208333 0.148345
vt 0.125000 0.148345
vt 0.791667 0.148345
vt 0.791667 0.000000
vt 0.875000 0.000000
vt 0.875000 0.148345
vt 0.000000 0.000000
vt 0.488943 0.000000
vt 0.488943 1.000000
vt 0.000000 1.000000
vt 0.000000 0.000000
vt 0.488943 0.000000
vt 0.488943 1.000000
vt 0.000000 1.000000
vt 0.000000 0.000000
vt 0.083333 0.000000
vt 0.083333 1.000000
vt 0.000000 1.000000
vt 0.361111 0.368056
vt 0.375000 0.375000
vt 0.371528 0.435764
vt 0.334491 0.290509
vt 0.270833 0.148345
vt 0.189236 0.253472
vt 0.229167 0.148345
vt 0.250000 0.148345
vt 0.256944 0.263889
vt 0.638889 0.368056
vt 0.625000 0.375000
vt 0.665509 0.290509
vt 0.810764 0.253472
vt 0.729167 0.148345
vt 0.250000 1.000000
vt 0.250000 0.000000
vt 0.333333 0.000000
vt 0.333333 1.000000
vt 0.770833 0.148345
vt 0.166667 0.000000
vt 0.166667 1.000000
vt 0.743056 0.263889
vt 0.750000 0.148345
vt 0.628472 0.435764
vt 0.625000 0.601655
vt 0.625000 0.750000
vt 0.625000 0.750000
vt 0.625000 0.601655
vt 0.375000 0.750000
vt 0.375000 0.601655
vt 0.375000 0.601655
vt 0.375000 0.750000
vt 0.371528 0.435764
vt 0.628472 0.435764
vn 0.000000 -0.846478 0.532424
vn 0.000000 -0.846478 0.532423
vn -0.000000 -0.846478 0.532423
vn -0.000000 -0.846478 0.532424
vn 0.000000 -0.751815 -0.659374
vn 0.000000 -0.751815 -0.659374
vn 0.000000 -0.751815 -0.659374
vn 0.000000 -0.751815 -0.659374
vn -0.000000 0.847180 -0.531307
vn -0.000000 0.847180 -0.531306
vn 0.000000 0.847180 -0.531306
vn 0.000000 0.847180 -0.531307
vn 0.000001 0.847514 0.530773
vn 0.000000 0.847513 0.530774
vn -0.000000 0.847513 0.530774
vn -0.000001 0.847514 0.530773
vn 0.000000 -0.751254 0.660013
vn 0.000000 -0.751254 0.660013
vn 0.000000 -0.751254 0.660013
vn 0.000000 -0.751254 0.660013
vn 0.000000 -0.846814 -0.531889
vn 0.000001 -0.846814 -0.531890
vn -0.000001 -0.846814 -0.531890
vn -0.000000 -0.846814 -0.531889
vn 1.000000 -0.000001 0.000000
vn 1.000000 0.000001 0.000000
vn 1.000000 0.000000 0.000000
vn 1.000000 0.000000 0.000000
vn -0.005275 0.896193 0.443633
vn -0.071514 0.894422 0.441469
vn -0.071514 0.894422 0.441469
vn -0.005242 0.896193 0.443633
vn 0.005275 0.896193 0.443633
vn 0.005242 0.896193 0.443633
vn 0.071514 0.894422 0.441469
vn 0.071514 0.894422 0.441469
vn -1.000000 -0.000000 0.000000
vn -1.000000 -0.000000 0.000000
vn -1.000000 0.000000 0.000000
vn -1.000000 0.000000 0.000000
vn 0.000000 -0.846814 -0.531889
vn 0.000001 -0.846814 -0.531890
vn 0.000001 -0.846814 -0.531890
vn 0.000000 -0.846814 -0.531889
vn -0.000001 -0.846814 -0.531890
vn -0.000001 -0.846814 -0.531890
vn -0.000000 -0.846814 -0.531889
vn -0.000000 -0.846814 -0.531889
vn 0.000000 -0.846477 0.532425
vn 0.000000 -0.846477 0.532426
vn -0.000000 -0.846477 0.532426
vn -0.000000 -0.846477 0.532425
vn -1.000000 0.000000 0.000000
vn -1.000000 0.000000 0.000000
vn -1.000000 0.000000 0.000000
vn -1.000000 0.000000 0.000000
vn -0.000001 0.847180 -0.531305
vn -0.000000 0.847181 -0.531305
vn 0.000000 0.847181 -0.531305
vn 0.000001 0.847181 -0.531305
vn 1.000000 0.000002 0.000000
vn 1.000000 0.000001 0.000000
vn 1.000000 0.000001 0.000000
vn 1.000000 0.000001 0.000000
vn -0.000001 -0.846813 -0.531890
vn -0.000001 -0.846813 -0.531890
vn -1.000000 -0.000000 0.000000
vn -1.000000 -0.000000 0.000000
vn -1.000000 -0.000000 0.000000
vn -1.000000 -0.000000 0.000000
vn -0.000000 0.847513 0.530775
vn -0.000001 0.847513 0.530775
vn 0.000000 0.847513 0.530775
vn 0.000001 0.847513 0.530775
vn 1.000000 0.000002 0.000000
vn 1.000000 0.000001 0.000000
vn 1.000000 0.000001 0.000000
vn 1.000000 0.000002 0.000000
vn 0.000001 -0.846813 -0.531890
vn 0.000001 -0.846813 -0.531890
vn 0.000000 -0.846813 -0.531890
vn 0.000000 -0.846813 -0.531890
vn -1.000000 0.000000 0.000000
vn -1.000000 0.000000 0.000000
vn 0.043364 0.837099 0.545330
vn 0.003470 0.828621 0.559799
vn 0.002744 0.828452 0.560053
vn 0.043364 0.837099 0.545330
vn -0.003470 0.828621 0.559799
vn -0.002744 0.828452 0.560053
vn -0.043363 0.837099 0.545330
vn -0.043363 0.837099 0.545330
vn 1.000000 -0.000001 0.000000
vn 1.000000 -0.000001 0.000000
vn -0.000000 -0.846814 -0.531890
vn -0.000000 -0.846814 -0.531890
vn 0.041683 0.837193 0.545316
vn 0.003183 0.828611 0.559816
vn 0.002800 0.828518 0.559955
vn 0.041683 0.837193 0.545316
vn -0.003183 0.828611 0.559816
vn -0.002800 0.828518 0.559955
vn -0.041682 0.837193 0.545317
vn -0.041682 0.837193 0.545317
vn -0.000001 -0.846477 0.532425
vn -0.000001 -0.846477 0.532425
vn -0.000000 -0.846477 0.532425
vn -0.000000 -0.846477 0.532425
vn -1.000000 0.000000 0.000000
vn -1.000000 0.000000 0.000000
vn 0.005280 0.896670 -0.442668
vn 0.069463 0.894679 -0.441277
vn 0.069463 0.894679 -0.441277
vn 0.005131 0.896670 -0.442669
vn -0.005280 0.896670 -0.442668
vn -0.005131 0.896671 -0.442669
vn -0.069463 0.894679 -0.441276
vn -0.069463 0.894679 -0.441277
vn 1.000000 0.000001 0.000000
vn 1.000000 -0.000000 0.000000
vn 0.000001 -0.846477 0.532425
vn 0.000001 -0.846477 0.532425
vn 0.000000 -0.846477 0.532425
vn 0.000000 -0.846477 0.532425
vn -0.000000 -0.846477 0.532426
vn -0.000001 -0.846477 0.532426
vn -1.000000 0.000000 0.000000
vn -1.000000 0.000000 0.000000
vn 0.003430 0.827940 -0.560806
vn 0.042757 0.836723 -0.545955
vn 0.042757 0.836723 -0.545955
vn 0.002826 0.827793 -0.561026
vn -0.003430 0.827940 -0.560806
vn -0.002826 0.827793 -0.561026
vn -0.042757 0.836723 -0.545955
vn -0.042757 0.836723 -0.545955
vn 1.000000 0.000002 0.000000
vn 1.000000 0.000000 0.000000
vn 0.000001 -0.846477 0.532426
vn 0.000000 -0.846477 0.532426
vn 0.003852 0.827964 -0.560767
vn 0.045178 0.836598 -0.545952
vn 0.045178 0.836598 -0.545951
vn 0.002736 0.827708 -0.561152
vn -0.003852 0.827964 -0.560767
vn -0.002736 0.827708 -0.561152
vn -0.045178 0.836598 -0.545952
vn -0.045178 0.836598 -0.545952
vn 0.999962 -0.008700 0.000027
vn 0.999989 -0.004197 -0.002192
vn -0.999989 -0.004193 -0.002190
vn -0.999962 -0.008696 0.000027
vn 0.232705 -0.656411 0.717616
vn 0.018748 -0.799553 0.600303
vn 0.021691 -0.798023 0.602237
vn 0.232705 -0.656411 0.717616
vn -1.000000 0.000000 0.000000
vn -0.999999 -0.001279 -0.000627
vn -0.018748 -0.799553 0.600303
vn -0.021691 -0.798023 0.602237
vn -0.232704 -0.656411 0.717616
vn -0.232704 -0.656411 0.717616
vn 0.999999 -0.001281 -0.000628
vn 1.000000 -0.000002 0.000000
vn -0.999989 -0.004249 0.002226
vn 0.999988 -0.004252 0.002227
vn -0.999999 -0.001315 0.000646
vn 0.999999 -0.001318 0.000647
vn 0.027285 -0.800139 -0.599194
vn 0.336213 -0.636182 -0.694430
vn 0.336213 -0.636182 -0.694430
vn 0.032995 -0.798074 -0.601655
vn -1.000000 0.000000 0.000000
vn -0.027285 -0.800139 -0.599194
vn -0.032995 -0.798074 -0.601655
vn -0.336213 -0.636182 -0.694430
vn -0.336213 -0.636182 -0.694430
vn 1.000000 -0.000001 0.000000
vn 0.999752 -0.022272 0.000095
vn 0.999881 -0.013823 -0.006924
vn -0.999881 -0.013820 -0.006922
vn -0.999752 -0.022271 0.000095
vn 0.147675 -0.663701 0.733276
vn 0.011892 -0.790850 0.611895
vn 0.013234 -0.789787 0.613239
vn 0.147675 -0.663701 0.733276
vn -0.999992 -0.003691 -0.001811
vn -0.011892 -0.790850 0.611895
vn -0.013234 -0.789787 0.613239
vn -0.147676 -0.663701 0.733275
vn -0.147676 -0.663701 0.733275
vn 0.999992 -0.003694 -0.001814
vn -0.999877 -0.013999 0.007049
vn 0.999877 -0.014002 0.007050
vn 0.017846 -0.791448 -0.610976
vn 0.222168 -0.654830 -0.722385
vn 0.222168 -0.654830 -0.722385
vn 0.020480 -0.790058 -0.612690
vn -0.999991 -0.003796 0.001865
vn -0.017846 -0.791448 -0.610976
vn -0.020480 -0.790058 -0.612690
vn -0.222168 -0.654829 -0.722385
vn -0.222168 -0.654829 -0.722385
vn 0.999991 -0.003801 0.001867
vn -0.005776 -0.554828 0.831945
vn -0.068957 -0.452553 0.889067
vn -0.068957 -0.452553 0.889068
vn -0.006299 -0.554021 0.832479
vn 0.999631 -0.027176 0.000121
vn 0.999549 -0.027000 -0.013179
vn 0.005775 -0.554828 0.831945
vn 0.006299 -0.554021 0.832479
vn 0.068957 -0.452554 0.889067
vn 0.068957 -0.452554 0.889067
vn -0.999548 -0.027004 -0.013179
vn -0.999631 -0.027178 0.000121
vn 0.009082 -0.554889 -0.831875
vn 0.108196 -0.450330 -0.886282
vn 0.108196 -0.450330 -0.886282
vn 0.009930 -0.554051 -0.832424
vn -0.999536 -0.027346 0.013436
vn -0.009082 -0.554889 -0.831875
vn -0.009930 -0.554051 -0.832424
vn -0.108197 -0.450329 -0.886283
vn -0.108197 -0.450329 -0.886283
vn 0.999536 -0.027348 0.013436
vn 0.000000 0.000000 1.000000
vn 0.000000 0.000000 1.000000
vn 0.000000 0.000000 1.000000
vn 0.000000 0.000000 1.000000
vn 1.000000 0.000000 0.000000
vn 1.000000 0.000000 0.000000
vn 1.000000 0.000000 0.000000
vn 1.000000 0.000000 0.000000
vn -1.000000 0.000000 0.000000
vn -1.000000 0.000000 0.000000
vn -1.000000 0.000000 0.000000
vn -1.000000 0.000000 0.000000
vn -1.000000 0.000000 0.000000
vn -1.000000 0.000000 0.000000
vn -1.000000 0.000000 0.000000
vn -1.000000 0.000000 0.000000
vn 1.000000 0.000000 0.000000
vn 1.000000 0.000000 0.000000
vn 1.000000 0.000000 0.000000
vn 1.000000 0.000000 0.000000
vn 0.000000 0.000000 -1.000000
vn 0.000000 0.000000 -1.000000
vn 0.000000 0.000000 -1.000000
vn 0.000000 0.000000 -1.000000
vn 0.000000 0.000000 1.000000
vn 0.000000 0.000000 1.000000
vn 0.000000 0.000000 1.000000
vn 0.000000 0.000000 1.000000
vn 0.000000 -0.961517 0.274746
vn -0.000000 -0.977070 0.212920
vn -0.000000 -0.977070 0.212920
vn 0.000000 -0.961517 0.274746
vn -1.000000 0.000000 0.000000
vn -1.000000 0.000000 0.000000
vn -1.000000 0.000000 0.000000
vn -1.000000 0.000000 0.000000
vn -1.000000 0.000000 0.000000
vn -1.000000 0.000000 0.000000
vn -1.000000 0.000000 0.000000
vn -1.000000 0.000000 0.000000
vn 1.000000 -0.000000 0.000000
vn 1.000000 0.000000 0.000000
vn 1.000000 0.000000 0.000000
vn 1.000000 -0.000000 0.000000
vn 1.000000 -0.000000 0.000000
vn -0.000000 -0.977070 -0.212920
vn -0.000000 -0.977070 -0.212920
vn -0.000000 -0.961517 -0.274745
vn -0.000000 -0.961517 -0.274745
vn 1.000000 -0.000001 0.000000
vn -0.000000 -1.000000 0.000000
vn -0.000000 -1.000000 0.000000
vn 1.000000 -0.000001 0.000000
vn 0.000000 0.000000 1.000000
vn 0.000000 0.000000 1.000000
vn 1.000000 0.000000 0.000000
vn 1.000000 0.000000 0.000000
vn 1.000000 0.000000 0.000000
vn -1.000000 0.000000 0.000000
vn -1.000000 0.000000 0.000000
vn -1.000000 0.000000 0.000000
vn 0.000000 1.000000 0.000000
vn 0.000000 1.000000 0.000000
vn 0.000000 1.000000 0.000000
vn 0.000000 1.000000 0.000000
vn 1.000000 0.000000 0.000000
s 1
g wc_house_1
usemtl initialShadingGroup
f 10/9/1 19/21/2 20/22/3 9/10/4
s off
f 12/12/5 10/9/6 9/10/7 11/11/8
s 2
f 11/11/9 21/23/10 22/24/11 12/12/12
s 3
f 3/3/13 15/17/14 16/18/15 4/4/16
s off
f 1/1/17 2/2/18 3/3/19 4/4/20
s 4
f 18/20/21 2/2/22 1/1/23 17/19/24
s 5
f 41/47/25 5/5/26 6/6/27 40/46/28
s 6
f 103/105/29 104/106/30 105/107/31 106/16/32
f 107/108/33 103/105/29 106/16/32 108/14/34
f 109/109/35 107/108/33 108/14/34 110/110/36
s 7
f 7/7/37 38/42/38 39/43/39 8/8/40
s 4
f 13/13/41 37/41/42 38/42/43 7/7/44
f 41/47/45 42/48/46 14/15/47 5/5/48
s 1
f 10/9/1 61/71/49 62/72/50 19/21/2
f 9/10/4 20/22/3 55/65/51 56/66/52
s 7
f 11/11/53 9/10/54 56/66/55 57/67/56
s 2
f 21/23/10 11/11/9 57/67/57 58/68/58
f 22/24/11 21/23/10 58/68/58 59/69/59
f 12/12/12 22/24/11 59/69/59 60/70/60
s 5
f 61/71/61 10/9/62 12/12/63 60/70/64
s 4
f 23/25/65 17/19/24 1/1/23 24/26/66
s 7
f 25/27/67 24/26/68 1/1/69 4/4/70
s 3
f 4/4/16 16/18/15 26/28/71 25/27/72
f 16/18/15 15/17/14 27/29/73 26/28/71
f 15/17/14 3/3/13 28/30/74 27/29/73
s 5
f 2/2/75 29/31/76 28/30/77 3/3/78
s 4
f 2/2/22 18/20/21 30/32/79 29/31/80
f 31/33/81 23/25/65 24/26/66 32/34/82
s 7
f 33/35/83 32/34/84 24/26/68 25/27/67
s 14
f 67/77/85 68/78/86 69/36/87 70/79/88
f 68/78/86 71/80/89 72/37/90 69/36/87
f 71/80/89 73/81/91 74/82/92 72/37/90
s 5
f 29/31/76 35/39/93 34/38/94 28/30/77
s 4
f 29/31/80 30/32/79 36/40/95 35/39/96
f 37/41/42 31/33/81 32/34/82 38/42/43
s 7
f 39/43/39 38/42/38 32/34/84 33/35/83
s 15
f 91/95/97 92/96/98 88/44/99 89/94/100
f 92/96/98 93/97/101 85/45/102 88/44/99
f 93/97/101 94/98/103 86/91/104 85/45/102
s 5
f 35/39/93 41/47/25 40/46/28 34/38/94
s 4
f 35/39/96 36/40/95 42/48/46 41/47/45
s 1
f 44/50/105 43/49/106 13/13/107 7/7/108
s 7
f 45/51/109 44/50/110 7/7/37 8/8/40
s 17
f 112/111/111 111/112/112 110/110/113 108/14/114
f 113/113/115 112/111/111 108/14/114 106/16/116
f 114/114/117 113/113/115 106/16/116 105/107/118
s 5
f 5/5/26 47/55/119 46/54/120 6/6/27
s 1
f 48/56/121 47/55/122 5/5/123 14/15/124
f 50/58/125 49/57/126 43/49/106 44/50/105
s 7
f 51/59/127 50/58/128 44/50/110 45/51/109
s 19
f 100/101/129 99/102/130 95/99/131 96/52/132
f 101/103/133 100/101/129 96/52/132 97/53/134
f 102/104/135 101/103/133 97/53/134 98/100/136
s 5
f 47/55/119 53/63/137 52/62/138 46/54/120
s 1
f 54/64/139 53/63/140 47/55/122 48/56/121
f 56/66/52 55/65/51 49/57/126 50/58/125
s 7
f 57/67/56 56/66/55 50/58/128 51/59/127
s 20
f 82/87/141 81/88/142 77/85/143 78/60/144
f 83/89/145 82/87/141 78/60/144 79/61/146
f 84/90/147 83/89/145 79/61/146 80/86/148
s 5
f 53/63/137 61/71/61 60/70/64 52/62/138
s 1
f 62/72/50 61/71/49 53/63/140 54/64/139
s 5
f 40/46/28 6/6/27 64/74/149 63/73/150
s 7
f 8/8/40 39/43/39 65/76/151 66/75/152
s 21
f 25/27/153 26/28/154 68/78/155 67/77/156
s 7
f 33/35/83 25/27/67 67/77/157 70/79/158
s 21
f 26/28/154 27/29/159 71/80/160 68/78/155
f 27/29/159 28/30/161 73/81/162 71/80/160
s 5
f 28/30/77 34/38/94 74/82/163 73/81/164
s 7
f 39/43/39 33/35/83 70/79/158 65/76/151
s 5
f 34/38/94 40/46/28 63/73/150 74/82/163
s 7
f 45/51/109 8/8/40 66/75/152 75/83/165
s 5
f 6/6/27 46/54/120 76/84/166 64/74/149
s 7
f 51/59/127 45/51/109 75/83/165 77/85/167
s 5
f 46/54/120 52/62/138 80/86/168 76/84/166
s 22
f 58/68/169 57/67/170 81/88/171 82/87/172
s 7
f 57/67/56 51/59/127 77/85/167 81/88/173
s 22
f 59/69/174 58/68/169 82/87/172 83/89/175
f 60/70/176 59/69/174 83/89/175 84/90/177
s 5
f 52/62/138 60/70/64 84/90/178 80/86/168
f 63/73/150 64/74/149 87/92/179 86/91/180
s 7
f 66/75/152 65/76/151 89/94/181 90/93/182
s 23
f 70/79/183 69/36/184 92/96/185 91/95/186
s 7
f 65/76/151 70/79/158 91/95/187 89/94/181
s 23
f 69/36/184 72/37/188 93/97/189 92/96/185
f 72/37/188 74/82/190 94/98/191 93/97/189
s 5
f 74/82/163 63/73/150 86/91/180 94/98/192
s 7
f 75/83/165 66/75/152 90/93/182 95/99/193
s 5
f 64/74/149 76/84/166 98/100/194 87/92/179
s 24
f 78/60/195 77/85/196 99/102/197 100/101/198
s 7
f 77/85/167 75/83/165 95/99/193 99/102/199
s 24
f 79/61/200 78/60/195 100/101/198 101/103/201
f 80/86/202 79/61/200 101/103/201 102/104/203
s 5
f 76/84/166 80/86/168 102/104/204 98/100/194
s 25
f 85/45/205 86/91/206 104/106/207 103/105/208
s 5
f 86/91/180 87/92/179 105/107/209 104/106/210
s 25
f 88/44/211 85/45/205 103/105/208 107/108/212
f 89/94/213 88/44/211 107/108/212 109/109/214
s 7
f 90/93/182 89/94/181 109/109/215 110/110/216
s 26
f 96/52/217 95/99/218 111/112/219 112/111/220
s 7
f 95/99/193 90/93/182 110/110/216 111/112/221
s 26
f 97/53/222 96/52/217 112/111/220 113/113/223
f 98/100/224 97/53/222 113/113/223 114/114/225
s 5
f 87/92/179 98/100/194 114/114/226 105/107/209
s 27
f 115/115/227 116/116/228 130/117/229 131/118/230
s 28
f 116/116/231 128/119/232 129/120/233 130/117/234
s 29
f 127/121/235 115/115/236 131/118/237 132/122/238
f 121/123/239 125/124/240 133/125/241 134/126/242
s 28
f 136/127/243 126/128/244 122/129/245 135/130/246
s off
f 129/131/247 128/132/248 127/133/249 132/134/250
f 126/135/251 136/136/252 133/137/253 125/138/254
s 32
f 136/139/255 138/140/256 137/141/257 133/142/258
s 29
f 139/143/259 123/144/260 119/145/261
f 132/122/238 131/118/237 117/146/262
f 143/147/263 132/122/238 117/146/262
f 134/126/242 133/125/241 119/148/261
f 133/125/241 137/149/264 119/148/261
f 137/149/264 140/150/265 139/151/259 119/148/261
f 139/151/259 140/150/265 143/147/263 117/146/262
f 123/144/266 139/143/259 117/146/262
s 28
f 142/152/267 124/153/268 118/154/269
f 130/117/234 129/120/233 118/154/269
f 120/155/270 136/127/243 135/130/246
f 118/154/269 129/120/233 144/156/271
s 32
f 143/157/272 144/158/273 129/159/274 132/160/275
s 28
f 120/155/270 138/161/276 136/127/243
s 32
f 137/141/257 138/140/256 141/162/277 140/163/278
s 28
f 142/164/267 141/165/279 138/161/276 120/155/270
s 32
f 140/163/278 141/162/277 144/158/273 143/157/272
s 28
f 142/164/267 118/154/269 144/156/271 141/165/279
s 27
f 118/154/280 117/146/281 131/118/230 130/117/229
s 28
f 124/153/282 142/152/267 120/166/270
f 135/167/246 122/168/245 147/169/283 146/170/284
s 29
f 121/171/239 134/172/242 145/173/285 148/174/286
f 134/172/242 119/145/261 149/175/287 145/173/285
s off
f 119/145/288 120/166/289 150/176/290 149/175/291
s 28
f 120/166/270 135/167/246 146/170/284 150/176/292
