# This file uses centimeters as units for non-parametric coordinates.

mtllib nj_house_single_wood_door_01.mtl
g default
v 0.000000 0.000000 -0.000058
v 63.999863 0.000000 -0.000058
v 0.000000 96.000000 -0.000058
v 63.999863 96.000000 -0.000058
v 0.000000 96.000000 -12.060717
v 63.999863 96.000000 -12.060717
v 0.000000 0.000000 -12.060717
v 63.999863 0.000000 -12.060717
v 3.812683 1.412819 -0.000058
v 60.187305 1.412819 -0.000058
v 60.187305 92.587173 -0.000058
v 3.812683 92.587173 -0.000058
v 3.812683 1.412819 -3.687679
v 60.187305 1.412819 -3.687679
v 60.187305 92.587173 -3.687679
v 3.812683 92.587173 -3.687679
vt 0.085488 0.543230
vt 0.406917 0.544401
vt 0.471159 0.543167
vt 0.087595 0.604563
vt 0.406148 0.021421
vt 0.470070 0.020985
vt 0.021764 0.022872
vt 0.085335 0.023163
vt 0.386764 0.028630
vt 0.104746 0.030205
vt 0.020174 0.932894
vt 0.019937 0.649022
vt 0.026788 0.659472
vt 0.026986 0.922465
vt 0.472060 0.646754
vt 0.465343 0.657230
vt 0.471944 0.934433
vt 0.465189 0.924012
vt 0.104746 0.030205
vt 0.386764 0.028630
vt 0.388304 0.527361
vt 0.104138 0.526268
vt 0.388304 0.527361
vt 0.104139 0.526268
vt 0.404343 0.605760
vt 0.021606 0.542056
vn 0.000000 0.000000 1.000000
vn 0.000000 0.000000 1.000000
vn 0.000000 0.000000 1.000000
vn 0.000000 0.000000 1.000000
vn 0.000000 1.000000 0.000000
vn 0.000000 1.000000 0.000000
vn 0.000000 1.000000 0.000000
vn 0.000000 1.000000 0.000000
vn 1.000000 0.000000 0.000000
vn 1.000000 0.000000 0.000000
vn 1.000000 0.000000 0.000000
vn 1.000000 0.000000 0.000000
vn -1.000000 0.000000 0.000000
vn -1.000000 0.000000 0.000000
vn -1.000000 0.000000 0.000000
vn -1.000000 0.000000 0.000000
vn 0.000000 0.000000 1.000000
vn 0.000000 0.000000 1.000000
vn 0.000000 0.000000 1.000000
vn 0.000000 0.000000 1.000000
vn 0.000000 0.000000 1.000000
vn 0.000000 0.000000 1.000000
vn 0.000000 0.000000 1.000000
vn 0.000000 0.000000 1.000000
vn 0.000000 0.000000 1.000000
vn 0.000000 0.000000 1.000000
vn 0.000000 0.000000 1.000000
vn 0.000000 0.000000 1.000000
vn -0.000000 0.000000 1.000000
vn -0.000000 0.000000 1.000000
vn -0.000000 0.000000 1.000000
vn -0.000000 0.000000 1.000000
vn 0.000000 1.000000 0.000000
vn 0.000000 1.000000 0.000000
vn 0.000000 1.000000 0.000000
vn 0.000000 1.000000 0.000000
vn -1.000000 0.000000 0.000000
vn -1.000000 0.000000 0.000000
vn -1.000000 0.000000 0.000000
vn -1.000000 0.000000 0.000000
vn 0.000000 -1.000000 0.000000
vn 0.000000 -1.000000 0.000000
vn 0.000000 -1.000000 0.000000
vn 0.000000 -1.000000 0.000000
vn 1.000000 0.000000 0.000000
vn 1.000000 0.000000 0.000000
vn 1.000000 0.000000 0.000000
vn 1.000000 0.000000 0.000000
s off
g nj_house_single_wood_door_01
usemtl nj_house_doors_matSG
f 13/19/1 14/20/2 15/21/3 16/22/4
f 3/1/5 4/2/6 6/25/7 5/4/8
f 2/5/9 8/6/10 6/3/11 4/2/12
f 7/7/13 1/8/14 3/1/15 5/26/16
f 1/8/17 2/5/18 10/9/19 9/10/20
f 2/5/21 4/2/22 11/23/23 10/9/24
f 4/2/25 3/1/26 12/24/27 11/23/28
f 3/1/29 1/8/30 9/10/31 12/24/32
f 9/11/33 10/12/34 14/13/35 13/14/36
f 10/12/37 11/15/38 15/16/39 14/13/40
f 11/15/41 12/17/42 16/18/43 15/16/44
f 12/17/45 9/11/46 13/14/47 16/18/48
