# This file uses centimeters as units for non-parametric coordinates.

v 17.095551 0.000000 -5.554657
v 10.565636 0.000000 -14.542328
v 0.000015 0.000000 -17.975281
v -10.565605 0.000000 -14.542297
v -17.095520 0.000000 -5.554657
v -17.095520 0.000000 5.554688
v -10.565605 0.000000 14.542343
v 0.000015 0.000000 17.975311
v 10.565628 0.000000 14.542343
v 17.095543 0.000000 5.554688
v 39.093903 8.262337 -12.702362
v 24.161362 8.262337 -33.255219
v 0.000015 8.262337 -41.105713
v -24.161331 8.262337 -33.255219
v -39.093857 8.262337 -12.702362
v -39.093857 8.262337 12.702377
v -24.161331 8.262337 33.255249
v 0.000015 8.262337 41.105743
v 24.161354 8.262337 33.255249
v 39.093880 8.262337 12.702377
v 48.359680 27.819834 -15.712982
v 29.887932 27.819834 -41.137146
v 0.000015 27.819834 -50.848328
v -29.887886 27.819834 -41.137146
v -48.359619 27.819834 -15.712952
v -48.359619 27.819834 15.713028
v -29.887886 27.819834 41.137192
v 0.000015 27.819834 50.848343
v 29.887917 27.819834 41.137192
v 48.359646 27.819834 15.713028
v 49.446087 51.761589 -16.065979
v 30.559372 51.761589 -42.061310
v 0.000015 51.761589 -51.990662
v -30.559326 51.761589 -42.061310
v -49.446030 51.761589 -16.065979
v -49.446030 51.761589 16.066010
v -30.559326 51.761589 42.061340
v 0.000015 51.761589 51.990662
v 30.559349 51.761589 42.061340
v 49.446053 51.761589 16.066010
v 41.693550 85.576752 -13.547028
v 25.768036 85.576752 -35.466614
v 0.000015 85.576752 -43.839172
v -25.767998 85.576752 -35.466614
v -41.693497 85.576752 -13.547028
v -41.693497 85.576752 13.547058
v -25.767998 85.576752 35.466644
v 0.000015 85.576752 43.839172
v 25.768021 85.576752 35.466644
v 41.693520 85.576752 13.547058
v 5.314339 179.637863 -1.726715
v 3.284447 179.637863 -4.520615
v 0.000015 179.637863 -5.587784
v -3.284416 179.637863 -4.520615
v -5.314308 179.637863 -1.726715
v -5.314308 179.637863 1.726746
v -3.284416 179.637863 4.520660
v 0.000015 179.637863 5.587830
v 3.284447 179.637863 4.520660
v 5.314339 179.637863 1.726746
v 0.000015 192.422958 0.000015
vt 0.589701 -0.437198
vt 0.593662 -0.608926
vt 0.723886 -0.608335
vt 0.723415 -0.438535
vt 0.454940 -0.432242
vt 0.464171 -0.609267
vt 0.854186 -0.608933
vt 0.859693 -0.437850
vt 0.310388 -0.431110
vt 0.338156 -0.614658
vt 0.980723 -0.613923
vt 0.996718 -0.439228
vt 0.149138 -0.446303
vt 0.221201 -0.635225
vt 1.104403 -0.626260
vt 1.141059 -0.443530
vt -0.042636 -0.504510
vt 1.321141 -0.698119
vt 1.222841 -0.649548
vt 1.300449 -0.460719
vt 0.693945 0.483315
vt 0.861087 -0.337091
vt 0.725626 -0.337334
vt 0.673977 0.493793
vt 0.484382 -0.063850
vt 0.999274 -0.334059
vt 0.858711 -0.237556
vt 0.726839 -0.240393
vt 0.591092 -0.332341
vt 0.656329 0.508192
vt 0.356327 -0.021040
vt 1.149346 -0.326420
vt 0.994836 -0.226251
vt 0.850285 -0.091870
vt 0.727694 -0.097419
vt 0.595250 -0.233803
vt 1.142488 -0.204699
vt 0.976221 -0.070494
vt 0.737672 0.474880
vt 0.760021 0.477053
vt 0.606743 -0.088113
vt 1.106522 -0.030194
vt 0.781766 0.483449
vt 0.715409 0.476975
vt 0.734969 0.574850
vt 0.802101 0.493947
vt 0.461123 -0.219430
vt 1.322024 -0.319346
vt 0.221603 0.047890
vt 0.314599 -0.193799
vt 0.454665 -0.322970
vt -0.098574 -0.306256
vt 1.311190 -0.170325
vt 0.145140 -0.154488
vt -0.069036 -0.090676
vt 1.241277 0.036302
vt 0.304903 -0.311232
vt 0.086739 0.157283
vt 0.130201 -0.302513
vt 0.820193 0.508327
vt 0.641889 0.526119
vt 0.835103 0.526185
vt 1.377113 0.143334
vt 1.527869 -0.111748
vt 1.548499 -0.326873
vt 1.487407 -0.523583
vt 0.122988 -0.683158
vn 0.711909 -0.663084 -0.231313
vn 0.319925 -0.941723 -0.103950
vn 0.197725 -0.941723 -0.272145
vn 0.439984 -0.663084 -0.605586
vn -0.000000 -0.941723 -0.336390
vn -0.000000 -0.663084 -0.748545
vn -0.197725 -0.941723 -0.272145
vn -0.439984 -0.663084 -0.605586
vn -0.319925 -0.941723 -0.103950
vn -0.711909 -0.663084 -0.231313
vn -0.319926 -0.941723 0.103950
vn -0.711909 -0.663084 0.231313
vn -0.197725 -0.941723 0.272145
vn -0.439984 -0.663084 0.605586
vn 0.000000 -0.941723 0.336389
vn 0.000000 -0.663084 0.748545
vn 0.197725 -0.941723 0.272145
vn 0.439984 -0.663084 0.605586
vn 0.319925 -0.941723 0.103950
vn 0.711908 -0.663084 0.231313
vn 0.573228 -0.221178 -0.788980
vn 0.927502 -0.221178 -0.301363
vn 0.000000 -0.221179 -0.975233
vn -0.573228 -0.221178 -0.788980
vn -0.927502 -0.221178 -0.301363
vn -0.927502 -0.221178 0.301364
vn -0.573228 -0.221178 0.788981
vn 0.000000 -0.221178 0.975233
vn 0.573228 -0.221178 0.788980
vn 0.927502 -0.221178 0.301364
vn 0.584023 0.112967 -0.803838
vn 0.944969 0.112967 -0.307038
vn 0.000000 0.112967 -0.993599
vn -0.584023 0.112967 -0.803838
vn -0.944969 0.112967 -0.307039
vn -0.944969 0.112967 0.307039
vn -0.584023 0.112967 0.803838
vn 0.000000 0.112967 0.993599
vn 0.584023 0.112967 0.803838
vn 0.944968 0.112967 0.307039
vn 0.557561 0.316538 -0.767417
vn 0.902153 0.316538 -0.293127
vn -0.000000 0.316538 -0.948580
vn -0.557561 0.316538 -0.767417
vn -0.902153 0.316538 -0.293127
vn -0.902153 0.316538 0.293127
vn -0.557561 0.316538 0.767417
vn 0.000000 0.316538 0.948580
vn 0.557561 0.316538 0.767417
vn 0.902153 0.316538 0.293128
vn 0.880873 0.377021 -0.286213
vn 0.544409 0.377021 -0.749315
vn 0.000000 0.377021 -0.926205
vn -0.544410 0.377021 -0.749315
vn -0.880873 0.377021 -0.286213
vn -0.880873 0.377021 0.286213
vn -0.544410 0.377021 0.749315
vn 0.000000 0.377021 0.926205
vn 0.544410 0.377021 0.749315
vn 0.880873 0.377021 0.286213
vn 0.000000 1.000000 0.000001
s 1
f 11/1/1 1/2/2 2/3/3 12/4/4
f 12/4/4 2/3/3 3/7/5 13/8/6
f 13/8/6 3/7/5 4/11/7 14/12/8
f 14/12/8 4/11/7 5/15/9 15/16/10
f 15/16/10 5/15/9 6/19/11 16/20/12
f 16/20/12 6/19/11 7/18/13 17/66/14
f 17/17/14 7/67/13 8/14/15 18/13/16
f 18/13/16 8/14/15 9/10/17 19/9/18
f 19/9/18 9/10/17 10/6/19 20/5/20
f 20/5/20 10/6/19 1/2/2 11/1/1
f 12/4/4 22/23/21 21/29/22 11/1/1
f 13/8/6 23/22/23 22/23/21 12/4/4
f 14/12/8 24/26/24 23/22/23 13/8/6
f 15/16/10 25/32/25 24/26/24 14/12/8
f 16/20/12 26/48/26 25/32/25 15/16/10
f 17/66/14 27/65/27 26/48/26 16/20/12
f 18/13/16 28/59/28 27/52/27 17/17/14
f 19/9/18 29/57/29 28/59/28 18/13/16
f 20/5/20 30/51/30 29/57/29 19/9/18
f 11/1/1 21/29/22 30/51/30 20/5/20
f 22/23/21 32/28/31 31/36/32 21/29/22
f 23/22/23 33/27/33 32/28/31 22/23/21
f 24/26/24 34/33/34 33/27/33 23/22/23
f 25/32/25 35/37/35 34/33/34 24/26/24
f 26/48/26 36/53/36 35/37/35 25/32/25
f 27/65/27 37/64/37 36/53/36 26/48/26
f 28/59/28 38/54/38 37/55/37 27/52/27
f 29/57/29 39/50/39 38/54/38 28/59/28
f 30/51/30 40/47/40 39/50/39 29/57/29
f 21/29/22 31/36/32 40/47/40 30/51/30
f 32/28/31 42/35/41 41/41/42 31/36/32
f 33/27/33 43/34/43 42/35/41 32/28/31
f 34/33/34 44/38/44 43/34/43 33/27/33
f 35/37/35 45/42/45 44/38/44 34/33/34
f 36/53/36 46/56/46 45/42/45 35/37/35
f 37/64/37 47/63/47 46/56/46 36/53/36
f 38/54/38 48/49/48 47/58/47 37/55/37
f 39/50/39 49/31/49 48/49/48 38/54/38
f 40/47/40 50/25/50 49/31/49 39/50/39
f 31/36/32 41/41/42 50/25/50 40/47/40
f 51/44/51 41/41/42 42/35/41 52/39/52
f 52/39/52 42/35/41 43/34/43 53/40/53
f 53/40/53 43/34/43 44/38/44 54/43/54
f 54/43/54 44/38/44 45/42/45 55/46/55
f 55/46/55 45/42/45 46/56/46 56/60/56
f 56/60/56 46/56/46 47/63/47 57/62/57
f 57/61/57 47/58/47 48/49/48 58/30/58
f 58/30/58 48/49/48 49/31/49 59/24/59
f 59/24/59 49/31/49 50/25/50 60/21/60
f 60/21/60 50/25/50 41/41/42 51/44/51
f 61/45/61 51/44/51 52/39/52
f 61/45/61 52/39/52 53/40/53
f 61/45/61 53/40/53 54/43/54
f 61/45/61 54/43/54 55/46/55
f 61/45/61 55/46/55 56/60/56
f 61/45/61 56/60/56 57/62/57
f 61/45/61 57/61/57 58/30/58
f 61/45/61 58/30/58 59/24/59
f 61/45/61 59/24/59 60/21/60
f 61/45/61 60/21/60 51/44/51
