# This file uses centimeters as units for non-parametric coordinates.

v -48.000000 0.000000 80.000000
v 0.000000 0.000000 79.999985
v -48.000000 96.000000 80.000000
v 0.000000 96.000000 79.999985
v -48.000000 96.000000 0.000000
v 0.000000 96.000000 0.000000
v -48.000000 0.000000 0.000000
v 0.000000 0.000000 0.000000
v 0.000000 96.000000 15.999985
v -48.000000 96.000000 15.999992
v -48.000000 0.000000 15.999992
v 0.000000 0.000000 15.999985
v 0.000000 96.000000 63.999992
v -48.000000 96.000000 63.999992
v -48.000000 0.000000 63.999992
v 0.000000 0.000000 63.999992
v 0.000000 96.000000 25.655357
v -48.000000 96.000000 25.655365
v 0.000000 96.000000 35.310730
v -48.000000 96.000000 35.310738
v 0.000000 96.000000 44.966110
v -48.000000 96.000000 44.966110
v 0.000000 96.000000 54.621475
v -48.000000 96.000000 54.621475
v 0.000000 55.866287 15.999985
v 0.000000 72.834808 25.655357
v 0.000000 77.480438 35.310730
v 0.000000 77.480438 44.966110
v 0.000000 72.834808 54.621475
v 0.000000 55.866287 63.999992
v 0.000000 55.866287 79.999985
v -48.000000 55.866287 80.000000
v -48.000000 55.866287 63.999992
v -48.000000 72.834808 54.621475
v -48.000000 77.480438 44.966110
v -48.000000 77.480438 35.310738
v -48.000000 72.834808 25.655365
v -48.000000 55.866287 15.999992
v -48.000000 55.866287 0.000000
v 0.000000 55.866287 0.000000
vt -1.299007 0.315318
vt -0.245650 -0.388211
vt -0.245304 0.020681
vt -0.890117 0.314972
vt -0.245054 0.314425
vt -0.596373 0.314723
vt -1.298621 0.783739
vt 0.861733 0.530071
vt -0.244954 0.431531
vt -0.596274 0.431830
vt -0.244896 0.500174
vt -0.596216 0.500472
vt -0.244836 0.570844
vt -0.596156 0.571142
vt -0.244776 0.641513
vt -0.596096 0.641811
vt -0.244715 0.712183
vt -0.596037 0.712481
vt -0.244655 0.782853
vt -0.595977 0.783150
vt -0.244556 0.899960
vt -0.595878 0.900257
vt -0.595629 1.194004
vt 0.049192 0.899711
vt 0.458093 0.899362
vt -0.595282 1.602901
vt 0.860591 0.680235
vt 0.859964 0.762649
vt 0.859399 0.836914
vt 0.457685 0.430929
vt 1.226834 1.071260
vt 0.858772 0.919329
vt 0.857638 1.068452
vt 0.854369 1.498153
vt 1.227968 0.922137
vt 1.234198 0.103179
vt 1.228595 0.839723
vt 1.230929 0.532879
vt 1.229160 0.765458
vt 1.229787 0.683043
vt -0.244307 1.193707
vt -0.243961 1.602603
vt -0.889626 0.900505
vt -1.298523 0.900846
vt -0.765587 0.712623
vt -0.889724 0.783397
vt 0.865002 0.100370
vt -0.731644 0.641925
vt -0.731704 0.571256
vt -0.765765 0.500616
vt -0.890018 0.432078
vt -1.298908 0.432423
vt -0.596622 0.020979
vt 0.048690 0.314174
vt -0.075346 0.500029
vt 0.048791 0.431280
vt -0.109287 0.570728
vt -0.109227 0.641398
vt -0.075164 0.712038
vt 0.049093 0.782603
vt 1.223566 1.500961
vt 0.457993 0.782254
vt 0.457584 0.313823
vt -0.596969 -0.387913
vn 0.000000 0.000000 1.000000
vn 0.000000 0.000000 1.000000
vn 0.000000 0.000000 1.000000
vn 0.000000 0.000000 1.000000
vn 0.000000 1.000000 0.000000
vn 0.000000 1.000000 0.000000
vn 0.000000 1.000000 0.000000
vn 0.000000 1.000000 0.000000
vn 0.000000 0.000000 -1.000000
vn 0.000000 0.000000 -1.000000
vn 0.000000 0.000000 -1.000000
vn 0.000000 0.000000 -1.000000
vn 1.000000 0.000000 0.000000
vn 0.316228 0.000000 -0.948683
vn 0.420017 -0.115899 -0.900085
vn 1.000000 0.000000 0.000000
vn -0.316228 0.000000 -0.948683
vn -1.000000 0.000000 0.000000
vn -1.000000 0.000000 0.000000
vn -0.420017 -0.115899 -0.900085
vn 0.000000 1.000000 0.000000
vn 0.000000 1.000000 0.000000
vn 0.000000 1.000000 0.000000
vn 0.000000 1.000000 0.000000
vn -1.000000 0.000000 0.000000
vn -0.316228 0.000000 0.948683
vn -0.420956 -0.119205 0.899214
vn -1.000000 0.000000 0.000000
vn 1.000000 0.000000 0.000000
vn 0.420956 -0.119205 0.899214
vn 0.316228 0.000000 0.948683
vn 1.000000 0.000000 0.000000
vn 0.000000 1.000000 0.000000
vn 0.000000 1.000000 0.000000
vn 0.000000 1.000000 0.000000
vn 0.000000 1.000000 0.000000
vn 0.000000 1.000000 0.000000
vn 0.000000 1.000000 0.000000
vn 0.000000 1.000000 0.000000
vn 0.000000 1.000000 0.000000
vn 1.000000 0.000000 0.000000
vn 0.425596 -0.602902 0.674817
vn 1.000000 0.000000 0.000000
vn 1.000000 0.000000 0.000000
vn 0.417088 -0.883655 0.212583
vn 1.000000 0.000000 0.000000
vn 0.417088 -0.883655 -0.212583
vn 1.000000 0.000000 0.000000
vn 0.421214 -0.599402 -0.680658
vn 1.000000 0.000000 0.000000
vn 1.000000 0.000000 0.000000
vn 0.000000 0.000000 1.000000
vn 0.000000 0.000000 1.000000
vn -1.000000 0.000000 0.000000
vn -1.000000 0.000000 0.000000
vn -0.421214 -0.599402 -0.680658
vn -1.000000 0.000000 0.000000
vn -0.417088 -0.883655 -0.212583
vn -1.000000 0.000000 0.000000
vn -0.417088 -0.883655 0.212583
vn -1.000000 0.000000 0.000000
vn -0.425596 -0.602902 0.674817
vn -1.000000 0.000000 0.000000
vn -1.000000 0.000000 0.000000
vn -1.000000 0.000000 0.000000
vn 0.000000 0.000000 -1.000000
vn 0.000000 0.000000 -1.000000
vn 1.000000 0.000000 0.000000
s 1
f 1/64/1 2/2/2 31/3/3 32/53/4
s 2
f 3/6/5 4/5/6 13/9/7 14/10/8
s 3
f 39/23/9 40/41/10 8/42/11 7/26/12
s 4
f 2/63/13 16/30/14 30/56/15 31/54/16
f 15/52/17 1/1/18 32/4/19 33/51/20
s 2
f 10/20/21 9/19/22 6/21/23 5/22/24
s 4
f 7/44/25 11/7/26 38/46/27 39/43/28
f 40/24/29 25/60/30 12/62/31 8/25/32
s 2
f 14/10/8 13/9/7 23/11/33 24/12/34
f 18/18/35 17/17/36 9/19/22 10/20/21
f 20/16/37 19/15/38 17/17/36 18/18/35
f 22/14/39 21/13/40 19/15/38 20/16/37
f 24/12/34 23/11/33 21/13/40 22/14/39
s 4
f 17/17/41 26/59/42 25/60/30 9/19/43
f 19/15/44 27/58/45 26/59/42 17/17/41
f 21/13/46 28/57/47 27/58/45 19/15/44
f 23/11/48 29/55/49 28/57/47 21/13/46
f 13/9/50 30/56/15 29/55/49 23/11/48
f 31/54/16 30/56/15 13/9/50 4/5/51
s 1
f 32/53/4 31/3/3 4/5/52 3/6/53
s 4
f 33/51/20 32/4/19 3/6/54 14/10/55
f 34/50/56 33/51/20 14/10/55 24/12/57
f 35/49/58 34/50/56 24/12/57 22/14/59
f 36/48/60 35/49/58 22/14/59 20/16/61
f 37/45/62 36/48/60 20/16/61 18/18/63
f 38/46/27 37/45/62 18/18/63 10/20/64
f 39/43/28 38/46/27 10/20/64 5/22/65
s 3
f 5/22/66 6/21/67 40/41/10 39/23/9
s 4
f 9/19/43 25/60/30 40/24/29 6/21/68
f 30/31/15 16/61/14 15/34/17 33/33/20
f 29/35/49 30/31/15 33/33/20 34/32/56
f 28/37/47 29/35/49 34/32/56 35/29/58
f 27/39/45 28/37/47 35/29/58 36/28/60
f 25/38/30 26/40/42 37/27/62 38/8/27
f 26/40/42 27/39/45 36/28/60 37/27/62
f 12/36/31 25/38/30 38/8/27 11/47/26
