# This file uses centimeters as units for non-parametric coordinates.

v -48.000000 0.000000 80.000000
v 0.000000 0.000000 80.000000
v -48.000000 96.000000 80.000000
v 0.000000 96.000000 80.000000
v -48.000000 96.000000 0.000000
v 0.000000 96.000000 0.000000
v -48.000000 0.000000 0.000000
v 0.000000 0.000000 0.000000
v 0.000000 96.000000 15.999985
v -48.000000 96.000000 16.000000
v -48.000000 0.000000 16.000000
v 0.000000 0.000000 15.999985
v 0.000000 96.000000 64.276855
v -48.000000 96.000000 64.276871
v -48.000000 0.000000 64.276871
v 0.000000 0.000000 64.276855
v 0.000000 96.000000 25.655365
v -48.000000 96.000000 25.655365
v 0.000000 96.000000 35.310745
v -48.000000 96.000000 35.310745
v 0.000000 96.000000 44.966110
v -48.000000 96.000000 44.966110
v 0.000000 96.000000 54.621490
v -48.000000 96.000000 54.621490
v 0.000000 79.999985 15.999985
v 0.000000 79.999985 25.655365
v 0.000000 79.999985 35.310745
v 0.000000 79.999985 44.966110
v 0.000000 79.999985 54.621490
v 0.000000 79.999985 64.276855
v 0.000000 79.999985 80.000000
v -48.000000 79.999985 80.000000
v -48.000000 79.999985 64.276871
v -48.000000 79.999985 54.621490
v -48.000000 79.999985 44.966110
v -48.000000 79.999985 35.310745
v -48.000000 79.999985 25.655365
v -48.000000 79.999985 16.000000
v -48.000000 79.999985 0.000000
v 0.000000 79.999985 0.000000
vt 0.353913 0.155180
vt 1.635071 -0.716745
vt 1.641926 -0.000411
vt 1.070231 0.148340
vt 1.643297 0.142856
vt 1.213496 0.146969
vt 0.359337 0.728258
vt -0.652553 0.415170
vt 1.644645 0.283644
vt 1.214842 0.287757
vt 1.645473 0.370100
vt 1.215669 0.374213
vt 1.646301 0.456557
vt 1.216496 0.460670
vt 1.647130 0.543014
vt 1.217322 0.547128
vt 1.647958 0.629471
vt 1.218149 0.633585
vt 1.648786 0.715929
vt 1.218976 0.720043
vt 1.650158 0.859200
vt 1.220347 0.863314
vt 1.221718 1.006584
vt 1.793431 0.857829
vt 2.509798 0.850960
vt 1.228575 1.722936
vt -0.653021 0.506279
vt -0.653502 0.597398
vt -0.653976 0.688499
vt 2.504229 0.275402
vt -0.201972 0.873081
vt -0.654454 0.779616
vt -0.654921 0.870721
vt -0.658852 1.625627
vt -0.201515 0.781973
vt -0.195682 -0.337375
vt -0.201040 0.690866
vt -0.199617 0.417534
vt -0.200557 0.599744
vt -0.200078 0.508635
vt 1.651529 1.002471
vt 1.658386 1.718822
vt 1.077075 0.864686
vt 0.360706 0.871532
vt 1.074879 0.634955
vt 1.075705 0.721413
vt -0.648624 -0.339732
vt 1.074053 0.548497
vt 1.073226 0.462039
vt 1.072400 0.375582
vt 1.071575 0.289125
vt 0.355258 0.295965
vt 1.212125 0.003702
vt 1.786562 0.141485
vt 1.788741 0.368726
vt 1.787912 0.282270
vt 1.789570 0.455183
vt 1.790399 0.541640
vt 1.791228 0.628098
vt 1.792057 0.714556
vt -0.205913 1.627982
vt 2.508424 0.707686
vt 2.502879 0.134617
vt 1.205271 -0.712632
vn 0.000000 0.000000 1.000000
vn 0.000000 0.000000 1.000000
vn 0.000000 0.000000 1.000000
vn 0.000000 0.000000 1.000000
vn 0.000000 1.000000 0.000000
vn 0.000000 1.000000 0.000000
vn 0.000000 1.000000 0.000000
vn 0.000000 1.000000 0.000000
vn 0.000000 0.000000 -1.000000
vn 0.000000 0.000000 -1.000000
vn 0.000000 0.000000 -1.000000
vn 0.000000 0.000000 -1.000000
vn 1.000000 0.000000 0.000000
vn 0.311290 0.000000 -0.950315
vn 0.395173 -0.110070 -0.911988
vn 1.000000 0.000000 0.000000
vn -0.311290 0.000000 -0.950315
vn -1.000000 0.000000 0.000000
vn -1.000000 0.000000 0.000000
vn -0.395173 -0.110070 -0.911988
vn 0.000000 1.000000 0.000000
vn 0.000000 1.000000 0.000000
vn 0.000000 1.000000 0.000000
vn 0.000000 1.000000 0.000000
vn -1.000000 0.000000 0.000000
vn -0.316227 0.000000 0.948683
vn -0.400480 -0.109794 0.909704
vn -1.000000 0.000000 0.000000
vn 1.000000 0.000000 0.000000
vn 0.400480 -0.109794 0.909704
vn 0.316228 0.000000 0.948683
vn 1.000000 0.000000 0.000000
vn 0.000000 1.000000 0.000000
vn 0.000000 1.000000 0.000000
vn 0.000000 1.000000 0.000000
vn 0.000000 1.000000 0.000000
vn 0.000000 1.000000 0.000000
vn 0.000000 1.000000 0.000000
vn 0.000000 1.000000 0.000000
vn 0.000000 1.000000 0.000000
vn 1.000000 0.000000 0.000000
vn 0.316228 -0.948683 0.000000
vn 1.000000 0.000000 0.000000
vn 1.000000 0.000000 0.000000
vn 0.316228 -0.948683 0.000000
vn 1.000000 0.000000 0.000000
vn 0.316228 -0.948683 0.000000
vn 1.000000 0.000000 0.000000
vn 0.316228 -0.948683 0.000000
vn 1.000000 0.000000 0.000000
vn 1.000000 0.000000 0.000000
vn 0.000000 0.000000 1.000000
vn 0.000000 0.000000 1.000000
vn -1.000000 0.000000 0.000000
vn -1.000000 0.000000 0.000000
vn -0.316228 -0.948683 0.000000
vn -1.000000 0.000000 0.000000
vn -0.316228 -0.948683 0.000000
vn -1.000000 0.000000 0.000000
vn -0.316228 -0.948683 0.000000
vn -1.000000 0.000000 0.000000
vn -0.316228 -0.948683 0.000000
vn -1.000000 0.000000 0.000000
vn -1.000000 0.000000 0.000000
vn -1.000000 0.000000 0.000000
vn 0.000000 0.000000 -1.000000
vn 0.000000 0.000000 -1.000000
vn 1.000000 0.000000 0.000000
s 1
f 1/64/1 2/2/2 31/3/3 32/53/4
s 2
f 3/6/5 4/5/6 13/9/7 14/10/8
s 3
f 39/23/9 40/41/10 8/42/11 7/26/12
s 4
f 2/63/13 16/30/14 30/56/15 31/54/16
f 15/52/17 1/1/18 32/4/19 33/51/20
s 2
f 10/20/21 9/19/22 6/21/23 5/22/24
s 4
f 7/44/25 11/7/26 38/46/27 39/43/28
f 40/24/29 25/60/30 12/62/31 8/25/32
s 2
f 14/10/8 13/9/7 23/11/33 24/12/34
f 18/18/35 17/17/36 9/19/22 10/20/21
f 20/16/37 19/15/38 17/17/36 18/18/35
f 22/14/39 21/13/40 19/15/38 20/16/37
f 24/12/34 23/11/33 21/13/40 22/14/39
s 4
f 17/17/41 26/59/42 25/60/30 9/19/43
f 19/15/44 27/58/45 26/59/42 17/17/41
f 21/13/46 28/57/47 27/58/45 19/15/44
f 23/11/48 29/55/49 28/57/47 21/13/46
f 13/9/50 30/56/15 29/55/49 23/11/48
f 31/54/16 30/56/15 13/9/50 4/5/51
s 1
f 32/53/4 31/3/3 4/5/52 3/6/53
s 4
f 33/51/20 32/4/19 3/6/54 14/10/55
f 34/50/56 33/51/20 14/10/55 24/12/57
f 35/49/58 34/50/56 24/12/57 22/14/59
f 36/48/60 35/49/58 22/14/59 20/16/61
f 37/45/62 36/48/60 20/16/61 18/18/63
f 38/46/27 37/45/62 18/18/63 10/20/64
f 39/43/28 38/46/27 10/20/64 5/22/65
s 3
f 5/22/66 6/21/67 40/41/10 39/23/9
s 4
f 9/19/43 25/60/30 40/24/29 6/21/68
f 30/31/15 16/61/14 15/34/17 33/33/20
f 29/35/49 30/31/15 33/33/20 34/32/56
f 28/37/47 29/35/49 34/32/56 35/29/58
f 27/39/45 28/37/47 35/29/58 36/28/60
f 25/38/30 26/40/42 37/27/62 38/8/27
f 26/40/42 27/39/45 36/28/60 37/27/62
f 12/36/31 25/38/30 38/8/27 11/47/26
