# This file uses centimeters as units for non-parametric coordinates.

v -48.000000 0.000000 80.000000
v 0.000000 0.000000 80.000000
v -48.000000 96.000000 80.000000
v 0.000000 96.000000 80.000000
v -48.000000 96.000000 0.000000
v 0.000000 96.000000 0.000000
v -48.000000 0.000000 0.000000
v 0.000000 0.000000 0.000000
v 0.000000 96.000000 16.000004
v -48.000000 96.000000 16.000000
v -48.000000 0.000000 16.000000
v 0.000000 0.000000 16.000004
v 0.000000 96.000000 64.276855
v -48.000000 96.000000 64.276855
v -48.000000 0.000000 64.276855
v 0.000000 0.000000 64.276855
v 0.000000 96.000000 25.655273
v -48.000000 96.000000 25.655273
v 0.000000 96.000000 35.310791
v -48.000000 96.000000 35.310791
v 0.000000 96.000000 44.966064
v -48.000000 96.000000 44.966064
v 0.000000 96.000000 54.621338
v -48.000000 96.000000 54.621338
v 0.000000 66.056808 16.000004
v 0.000000 71.103638 25.655273
v 0.000000 80.144226 35.310791
v 0.000000 80.144226 44.966064
v 0.000000 71.103638 54.621338
v 0.000000 66.056808 64.276855
v 0.000000 66.468689 80.000000
v -48.000000 66.468689 80.000000
v -48.000000 66.056808 64.276855
v -48.000000 71.103638 54.621338
v -48.000000 80.144226 44.966064
v -48.000000 80.144226 35.310791
v -48.000000 71.103638 25.655273
v -48.000000 66.056808 16.000000
v -48.000000 65.644958 0.000000
v 0.000000 65.644958 0.000000
vt 0.090294 0.296232
vt 1.235499 -0.449872
vt 1.229951 0.075040
vt 0.615211 0.301781
vt 1.227486 0.308252
vt 0.848425 0.304246
vt 0.084964 0.801666
vt -0.850789 0.441526
vt 1.226174 0.432419
vt 0.847113 0.428414
vt 1.225368 0.508669
vt 0.846307 0.504664
vt 1.224563 0.584918
vt 0.845502 0.580914
vt 1.223757 0.661167
vt 0.844697 0.657163
vt 1.222952 0.737416
vt 0.843891 0.733413
vt 1.222146 0.813665
vt 0.843086 0.809662
vt 1.220812 0.940018
vt 0.841753 0.936016
vt 0.839222 1.175732
vt 1.460527 0.942548
vt 1.978924 0.948020
vt 0.833749 1.694135
vt -0.851450 0.534160
vt -0.852251 0.646626
vt -0.852836 0.728722
vt 1.984293 0.440439
vt -0.446173 0.936731
vt -0.853638 0.841188
vt -0.854298 0.933822
vt -0.858302 1.495477
vt -0.445513 0.844097
vt -0.438659 -0.117222
vt -0.444711 0.731631
vt -0.442663 0.444435
vt -0.444125 0.649535
vt -0.443323 0.537069
vt 1.218281 1.179734
vt 1.212808 1.698137
vt 0.602036 0.933486
vt 0.083632 0.928020
vt 0.647282 0.731338
vt 0.606622 0.807167
vt -0.846786 -0.120131
vt 0.719481 0.655841
vt 0.720286 0.579591
vt 0.649696 0.502587
vt 0.610646 0.425916
vt 0.088981 0.420401
vt 1.460698 0.310718
vt 1.421976 0.510747
vt 1.462638 0.434919
vt 1.349776 0.586241
vt 1.348971 0.662490
vt 1.419559 0.739493
vt 1.458608 0.816162
vt -0.450177 1.498386
vt 1.980258 0.821668
vt 1.985607 0.316272
vt 0.850889 0.071034
vt 0.856436 -0.453878
vn 0.000000 0.000000 1.000000
vn 0.000000 0.000000 1.000000
vn 0.000000 0.000000 1.000000
vn 0.000000 0.000000 1.000000
vn 0.000000 1.000000 0.000000
vn 0.000000 1.000000 0.000000
vn 0.000000 1.000000 0.000000
vn 0.000000 1.000000 0.000000
vn 0.000000 0.000000 -1.000000
vn 0.000000 0.000000 -1.000000
vn 0.000000 0.000000 -1.000000
vn 0.000000 0.000000 -1.000000
vn 1.000000 0.000000 0.000000
vn 0.312166 0.000000 -0.950027
vn 0.443133 -0.120627 -0.888303
vn 1.000000 0.000000 0.000000
vn -0.312166 0.000000 -0.950027
vn -1.000000 0.000000 0.000000
vn -1.000000 0.000000 0.000000
vn -0.443133 -0.120627 -0.888303
vn 0.000000 1.000000 0.000000
vn 0.000000 1.000000 0.000000
vn 0.000000 1.000000 0.000000
vn 0.000000 1.000000 0.000000
vn -1.000000 0.000000 0.000000
vn -0.315340 0.000000 0.948979
vn -0.444728 -0.120518 0.887520
vn -1.000000 0.000000 0.000000
vn 1.000000 0.000000 0.000000
vn 0.444728 -0.120518 0.887520
vn 0.315340 0.000000 0.948979
vn 1.000000 0.000000 0.000000
vn 0.000000 1.000000 0.000000
vn 0.000000 1.000000 0.000000
vn 0.000000 1.000000 0.000000
vn 0.000000 1.000000 0.000000
vn 0.000000 1.000000 0.000000
vn 0.000000 1.000000 0.000000
vn 0.000000 1.000000 0.000000
vn 0.000000 1.000000 0.000000
vn 1.000000 0.000000 0.000000
vn 0.364010 -0.752451 0.548921
vn 1.000000 0.000000 0.000000
vn 1.000000 0.000000 0.000000
vn 0.398047 -0.830824 0.388961
vn 1.000000 0.000000 0.000000
vn 0.398046 -0.830822 -0.388965
vn 1.000000 0.000000 0.000000
vn 0.364012 -0.752450 -0.548920
vn 1.000000 0.000000 0.000000
vn 1.000000 0.000000 0.000000
vn 0.000000 0.000000 1.000000
vn 0.000000 0.000000 1.000000
vn -1.000000 0.000000 0.000000
vn -1.000000 0.000000 0.000000
vn -0.364012 -0.752450 -0.548920
vn -1.000000 0.000000 0.000000
vn -0.398046 -0.830822 -0.388965
vn -1.000000 0.000000 0.000000
vn -0.398047 -0.830824 0.388961
vn -1.000000 0.000000 0.000000
vn -0.364010 -0.752451 0.548921
vn -1.000000 0.000000 0.000000
vn -1.000000 0.000000 0.000000
vn -1.000000 0.000000 0.000000
vn 0.000000 0.000000 -1.000000
vn 0.000000 0.000000 -1.000000
vn 1.000000 0.000000 0.000000
s 1
f 1/64/1 2/2/2 31/3/3 32/63/4
s 2
f 3/6/5 4/5/6 13/9/7 14/10/8
s 3
f 39/23/9 40/41/10 8/42/11 7/26/12
s 4
f 2/62/13 16/30/14 30/55/15 31/53/16
f 15/52/17 1/1/18 32/4/19 33/51/20
s 2
f 10/20/21 9/19/22 6/21/23 5/22/24
s 4
f 7/44/25 11/7/26 38/46/27 39/43/28
f 40/24/29 25/59/30 12/61/31 8/25/32
s 2
f 14/10/8 13/9/7 23/11/33 24/12/34
f 18/18/35 17/17/36 9/19/22 10/20/21
f 20/16/37 19/15/38 17/17/36 18/18/35
f 22/14/39 21/13/40 19/15/38 20/16/37
f 24/12/34 23/11/33 21/13/40 22/14/39
s 4
f 17/17/41 26/58/42 25/59/30 9/19/43
f 19/15/44 27/57/45 26/58/42 17/17/41
f 21/13/46 28/56/47 27/57/45 19/15/44
f 23/11/48 29/54/49 28/56/47 21/13/46
f 13/9/50 30/55/15 29/54/49 23/11/48
f 31/53/16 30/55/15 13/9/50 4/5/51
s 1
f 32/63/4 31/3/3 4/5/52 3/6/53
s 4
f 33/51/20 32/4/19 3/6/54 14/10/55
f 34/50/56 33/51/20 14/10/55 24/12/57
f 35/49/58 34/50/56 24/12/57 22/14/59
f 36/48/60 35/49/58 22/14/59 20/16/61
f 37/45/62 36/48/60 20/16/61 18/18/63
f 38/46/27 37/45/62 18/18/63 10/20/64
f 39/43/28 38/46/27 10/20/64 5/22/65
s 3
f 5/22/66 6/21/67 40/41/10 39/23/9
s 4
f 9/19/43 25/59/30 40/24/29 6/21/68
f 30/31/15 16/60/14 15/34/17 33/33/20
f 29/35/49 30/31/15 33/33/20 34/32/56
f 28/37/47 29/35/49 34/32/56 35/29/58
f 27/39/45 28/37/47 35/29/58 36/28/60
f 25/38/30 26/40/42 37/27/62 38/8/27
f 26/40/42 27/39/45 36/28/60 37/27/62
f 12/36/31 25/38/30 38/8/27 11/47/26
