# This file uses centimeters as units for non-parametric coordinates.

v -48.000000 0.000000 80.000000
v 0.000000 0.000000 80.000000
v -48.000000 96.000000 80.000000
v 0.000000 96.000000 80.000000
v -48.000000 96.000000 0.000000
v 0.000000 96.000000 0.000000
v -48.000000 0.000000 0.000000
v 0.000000 0.000000 0.000000
v 0.000000 96.000000 16.000000
v -48.000000 96.000000 16.000000
v -48.000000 0.000000 16.000000
v 0.000000 0.000000 16.000000
v 0.000000 96.000000 64.000000
v -48.000000 96.000000 64.000000
v -48.000000 0.000000 64.000000
v 0.000000 0.000000 64.000000
v 0.000000 96.000000 28.027649
v -48.000000 96.000000 28.027649
v 0.000000 96.000000 40.138428
v -48.000000 96.000000 40.138428
v 0.000000 96.000000 52.249207
v -48.000000 96.000000 52.249207
v 0.000000 50.417938 16.000000
v 0.000000 65.224228 28.027649
v 0.000000 79.999985 40.138428
v 0.000000 65.224228 52.249207
v 0.000000 50.417953 64.000000
v 0.000000 50.417953 80.000000
v -48.000000 50.417953 80.000000
v -48.000000 50.417953 64.000000
v -48.000000 65.224228 52.249207
v -48.000000 79.999985 40.138428
v -48.000000 65.224228 28.027649
v -48.000000 50.417938 16.000000
v -48.000000 50.417938 0.000000
v 0.000000 50.417938 0.000000
vt -0.111171 0.107442
vt 1.455415 -0.920489
vt 1.451422 -0.374653
vt 0.434672 0.111426
vt 1.447813 0.118828
vt 0.928155 0.115029
vt -0.116199 0.800333
vt -0.660070 0.597051
vt 1.446545 0.292046
vt 0.926890 0.288248
vt 1.445615 0.419262
vt 0.925961 0.415465
vt 1.444656 0.550374
vt 0.925004 0.546578
vt 1.443698 0.681486
vt 0.924047 0.677691
vt 1.442747 0.811697
vt 0.923097 0.807903
vt 1.441481 0.984912
vt 0.921834 0.981119
vt 0.918234 1.474589
vt 1.934949 0.988518
vt 2.480767 0.992509
vt 0.914253 2.020411
vt -0.661510 0.794371
vt -0.662952 0.991990
vt -0.664394 1.189609
vt 2.485860 0.299660
vt -0.169312 1.388759
vt -0.665821 1.385136
vt -0.669627 1.906657
vt -0.159756 0.079154
vt -0.167885 1.193232
vt -0.163561 0.600674
vt -0.166443 0.995613
vt -0.165001 0.797994
vt 1.437880 1.478380
vt 1.433899 2.024201
vt 0.428363 0.977523
vt -0.117460 0.973548
vt 0.590867 0.675263
vt 0.429625 0.804307
vt -0.656265 0.075531
vt 0.751785 0.545316
vt 0.592775 0.413034
vt 0.433407 0.284647
vt -0.112435 0.280663
vt 0.931763 -0.378454
vt 1.941293 0.122441
vt 1.778797 0.421702
vt 1.940024 0.295660
vt 1.617873 0.551642
vt 1.776875 0.683922
vt -0.173118 1.910280
vt 2.487129 0.126441
vt 0.935756 -0.924291
vt 2.482033 0.819295
vt 1.936215 0.815304
vn 0.000000 0.000000 1.000000
vn 0.000000 0.000000 1.000000
vn 0.000000 0.000000 1.000000
vn 0.000000 0.000000 1.000000
vn 0.000000 1.000000 0.000000
vn 0.000000 1.000000 0.000000
vn 0.000000 1.000000 0.000000
vn 0.000000 1.000000 0.000000
vn 0.000000 0.000000 -1.000000
vn 0.000000 0.000000 -1.000000
vn 0.000000 0.000000 -1.000000
vn 0.000000 0.000000 -1.000000
vn 1.000000 0.000000 0.000000
vn 0.316228 0.000000 -0.948683
vn 0.477237 -0.155812 -0.864851
vn 1.000000 0.000000 0.000000
vn -0.316228 0.000000 -0.948683
vn -1.000000 0.000000 0.000000
vn -1.000000 0.000000 0.000000
vn -0.477237 -0.155812 -0.864851
vn 0.000000 1.000000 0.000000
vn 0.000000 1.000000 0.000000
vn 0.000000 1.000000 0.000000
vn 0.000000 1.000000 0.000000
vn -1.000000 0.000000 0.000000
vn -0.316228 0.000000 0.948683
vn -0.478630 -0.159226 0.863458
vn -1.000000 0.000000 0.000000
vn 1.000000 0.000000 0.000000
vn 0.478630 -0.159226 0.863458
vn 0.316228 0.000000 0.948683
vn 1.000000 0.000000 0.000000
vn 0.000000 1.000000 0.000000
vn 0.000000 1.000000 0.000000
vn 0.000000 1.000000 0.000000
vn 0.000000 1.000000 0.000000
vn 0.000000 1.000000 0.000000
vn 0.000000 1.000000 0.000000
vn 1.000000 0.000000 0.000000
vn 0.417802 -0.574393 0.703928
vn 1.000000 0.000000 0.000000
vn 1.000000 0.000000 0.000000
vn 0.605848 -0.795580 0.000000
vn 1.000000 0.000000 0.000000
vn 0.413905 -0.571530 -0.708545
vn 1.000000 0.000000 0.000000
vn 1.000000 0.000000 0.000000
vn 0.000000 0.000000 1.000000
vn 0.000000 0.000000 1.000000
vn -1.000000 0.000000 0.000000
vn -1.000000 0.000000 0.000000
vn -0.413905 -0.571530 -0.708545
vn -1.000000 0.000000 0.000000
vn -0.605848 -0.795580 0.000000
vn -1.000000 0.000000 0.000000
vn -0.417802 -0.574393 0.703928
vn -1.000000 0.000000 0.000000
vn -1.000000 0.000000 0.000000
vn -1.000000 0.000000 0.000000
vn 0.000000 0.000000 -1.000000
vn 0.000000 0.000000 -1.000000
vn 1.000000 0.000000 0.000000
s 1
f 1/56/1 2/2/2 28/3/3 29/48/4
s 2
f 3/6/5 4/5/6 13/9/7 14/10/8
s 3
f 35/21/9 36/37/10 8/38/11 7/24/12
s 4
f 2/55/13 16/28/14 27/51/15 28/49/16
f 15/47/17 1/1/18 29/4/19 30/46/20
s 2
f 10/18/21 9/17/22 6/19/23 5/20/24
s 4
f 7/40/25 11/7/26 34/42/27 35/39/28
f 36/22/29 23/58/30 12/57/31 8/23/32
s 2
f 14/10/8 13/9/7 21/11/33 22/12/34
f 18/16/35 17/15/36 9/17/22 10/18/21
f 20/14/37 19/13/38 17/15/36 18/16/35
f 22/12/34 21/11/33 19/13/38 20/14/37
s 4
f 17/15/39 24/53/40 23/58/30 9/17/41
f 19/13/42 25/52/43 24/53/40 17/15/39
f 21/11/44 26/50/45 25/52/43 19/13/42
f 13/9/46 27/51/15 26/50/45 21/11/44
f 28/49/16 27/51/15 13/9/46 4/5/47
s 1
f 29/48/4 28/3/3 4/5/48 3/6/49
s 4
f 30/46/20 29/4/19 3/6/50 14/10/51
f 31/45/52 30/46/20 14/10/51 22/12/53
f 32/44/54 31/45/52 22/12/53 20/14/55
f 33/41/56 32/44/54 20/14/55 18/16/57
f 34/42/27 33/41/56 18/16/57 10/18/58
f 35/39/28 34/42/27 10/18/58 5/20/59
s 3
f 5/20/60 6/19/61 36/37/10 35/21/9
s 4
f 9/17/41 23/58/30 36/22/29 6/19/62
f 27/29/15 16/54/14 15/31/17 30/30/20
f 26/33/45 27/29/15 30/30/20 31/27/52
f 25/35/43 26/33/45 31/27/52 32/26/54
f 23/34/30 24/36/40 33/25/56 34/8/27
f 24/36/40 25/35/43 32/26/54 33/25/56
f 12/32/31 23/34/30 34/8/27 11/43/26
