# This file uses centimeters as units for non-parametric coordinates.

v 13.113052 -6.952202 -4.260681
v 8.104309 -6.952202 -11.154617
v 0.000000 -6.952202 -13.787872
v -8.104309 -6.952202 -11.154617
v -13.113037 -6.952202 -4.260681
v -13.113037 -6.952202 4.260681
v -8.104309 -6.952202 11.154617
v 0.000000 -6.952202 13.787872
v 8.104309 -6.952202 11.154617
v 13.113037 -6.952202 4.260681
v 34.330414 0.000000 -11.154617
v 21.217361 0.000000 -29.203186
v 0.000000 0.000000 -36.097122
v -21.217346 0.000000 -29.203186
v -34.330399 0.000000 -11.154617
v -34.330399 0.000000 11.154617
v -21.217346 0.000000 29.203171
v 0.000000 0.000000 36.097107
v 21.217346 0.000000 29.203171
v 34.330383 0.000000 11.154617
v 39.265656 26.226082 -12.758179
v 24.267502 26.226082 -33.401352
v 0.000000 26.226082 -41.286331
v -24.267502 26.226082 -33.401352
v -39.265625 26.226082 -12.758179
v -39.265625 26.226082 12.758179
v -24.267487 26.226082 33.401337
v 0.000000 26.226082 41.286331
v 24.267487 26.226082 33.401337
v 39.265625 26.226082 12.758179
v 34.330414 52.452160 -11.154617
v 21.217361 52.452160 -29.203186
v 0.000000 52.452160 -36.097122
v -21.217346 52.452160 -29.203186
v -34.330399 52.452160 -11.154617
v -34.330399 52.452160 11.154617
v -21.217346 52.452160 29.203171
v 0.000000 52.452160 36.097107
v 21.217346 52.452160 29.203171
v 34.330383 52.452160 11.154617
v 0.000000 60.471466 0.000000
vt 0.379960 0.854379
vt 0.578561 -0.006229
vt 0.564626 -0.032825
vt 0.494049 0.855219
vt 0.265844 0.853748
vt 0.574173 0.023461
vt 0.537705 -0.046174
vt 0.607821 0.856464
vt 0.151826 0.853069
vt 0.553151 0.044891
vt 0.508075 -0.041173
vt 0.720929 0.857983
vt 0.038198 0.851570
vt 0.523518 0.049892
vt 0.487053 -0.019740
vt 0.833408 0.859272
vt -0.074696 0.846288
vt 0.496598 0.036538
vt 0.482671 0.009946
vt 0.945397 0.859423
vt 0.493074 0.982287
vt 0.317183 0.527879
vt 0.264926 1.108552
vt 0.606570 0.983083
vt 0.379201 0.981697
vt 0.328103 0.341243
vt 0.265084 0.981226
vt 0.719652 0.984190
vt 0.492460 1.109123
vt 0.417767 0.684836
vt 0.497711 0.480670
vt 0.037998 1.109733
vt 0.832834 0.985477
vt 0.718195 1.110189
vt 0.198982 0.672035
vt 0.150503 0.980897
vt 0.034198 0.980721
vt 0.143392 0.459940
vt 0.947595 0.986820
vt 0.942480 1.114122
vt -0.088918 0.980725
vt 0.649452 0.060854
vt 0.661440 -0.020250
vt 0.592073 0.119405
vt 0.511226 0.133062
vt 0.437784 0.096601
vt 0.399807 0.023961
vt 0.411777 -0.057115
vt 0.469141 -0.115680
vt 0.549988 -0.129346
vt 0.623436 -0.092904
vt 0.496598 0.036538
vt 1.056657 0.855777
vt 0.437784 0.096601
vt 1.068838 0.988177
vt 1.053652 1.120238
vt 0.435586 0.383455
vt 0.378748 1.108853
vt 0.151254 1.108526
vt 0.216430 0.370633
vt -0.074664 1.115034
vt 0.490878 0.595759
vt 0.136757 0.575040
vt 0.830459 1.111649
vt 0.306296 0.713959
vt 0.605650 1.109428
vn 0.832684 -0.483153 -0.270555
vn 0.282956 -0.954717 -0.091938
vn 0.174876 -0.954717 -0.240696
vn 0.514627 -0.483153 -0.708323
vn 0.000000 -0.954717 -0.297517
vn 0.000000 -0.483153 -0.875536
vn -0.174876 -0.954717 -0.240696
vn -0.514627 -0.483153 -0.708323
vn -0.282956 -0.954717 -0.091938
vn -0.832684 -0.483153 -0.270555
vn -0.282956 -0.954717 0.091938
vn -0.832684 -0.483153 0.270556
vn -0.174876 -0.954717 0.240696
vn -0.514627 -0.483153 0.708323
vn -0.000000 -0.954717 0.297517
vn 0.000000 -0.483153 0.875536
vn 0.174876 -0.954717 0.240696
vn 0.514627 -0.483153 0.708323
vn 0.282956 -0.954717 0.091938
vn 0.832684 -0.483153 0.270556
vn 0.951057 0.000000 -0.309017
vn 0.587785 0.000000 -0.809017
vn 0.000000 0.000000 -1.000000
vn -0.587785 0.000000 -0.809017
vn -0.951057 0.000000 -0.309017
vn -0.951056 0.000000 0.309017
vn -0.587785 0.000000 0.809017
vn -0.000000 -0.000000 1.000000
vn 0.587785 0.000000 0.809017
vn 0.951056 -0.000000 0.309018
vn 0.668382 0.711409 -0.217170
vn 0.421199 0.697499 -0.579730
vn 0.000000 0.711409 -0.702778
vn -0.421199 0.697499 -0.579730
vn -0.668382 0.711409 -0.217170
vn -0.681514 0.697499 0.221437
vn -0.413083 0.711409 0.568559
vn -0.000000 0.697499 0.716586
vn 0.413083 0.711409 0.568559
vn 0.681514 0.697499 0.221438
vn 0.000000 1.000000 -0.000000
s 1
f 11/43/1 1/2/2 2/3/3 12/51/4
f 12/51/4 2/3/3 3/7/5 13/50/6
f 13/50/6 3/7/5 4/11/7 14/49/8
f 14/49/8 4/11/7 5/15/9 15/48/10
f 15/48/10 5/15/9 6/19/11 16/47/12
f 16/47/12 6/19/11 7/18/13 17/54/14
f 17/46/14 7/52/13 8/14/15 18/45/16
f 18/45/16 8/14/15 9/10/17 19/44/18
f 19/44/18 9/10/17 10/6/19 20/42/20
f 20/42/20 10/6/19 1/2/2 11/43/1
f 21/25/21 11/1/1 12/4/4 22/21/22
f 22/21/22 12/4/4 13/8/6 23/24/23
f 23/24/23 13/8/6 14/12/8 24/28/24
f 24/28/24 14/12/8 15/16/10 25/33/25
f 25/33/25 15/16/10 16/20/12 26/39/26
f 26/39/26 16/20/12 17/53/14 27/55/27
f 27/41/27 17/17/14 18/13/16 28/37/28
f 28/37/28 18/13/16 19/9/18 29/36/29
f 29/36/29 19/9/18 20/5/20 30/27/30
f 30/27/30 20/5/20 11/1/1 21/25/21
f 31/58/31 21/25/21 22/21/22 32/29/32
f 32/29/32 22/21/22 23/24/23 33/66/33
f 33/66/33 23/24/23 24/28/24 34/34/34
f 34/34/34 24/28/24 25/33/25 35/64/35
f 35/64/35 25/33/25 26/39/26 36/40/36
f 36/40/36 26/39/26 27/55/27 37/56/37
f 37/61/37 27/41/27 28/37/28 38/32/38
f 38/32/38 28/37/28 29/36/29 39/59/39
f 39/59/39 29/36/29 30/27/30 40/23/40
f 40/23/40 30/27/30 21/25/21 31/58/31
f 41/22/41 31/31/31 32/62/32 33/30/33
f 41/22/41 33/30/33 34/65/34 35/35/35
f 41/22/41 35/35/35 36/63/36 37/38/37
f 41/22/41 37/38/37 38/60/38 39/26/39
f 41/22/41 39/26/39 40/57/40 31/31/31
