# This file uses centimeters as units for non-parametric coordinates.

v 7.525131 0.000000 -2.445065
v 4.650787 0.000000 -6.401257
v 0.000000 0.000000 -7.912388
v -4.650787 0.000000 -6.401257
v -7.525131 0.000000 -2.445065
v -7.525131 0.000000 2.445065
v -4.650787 0.000000 6.401257
v 0.000000 0.000000 7.912388
v 4.650787 0.000000 6.401257
v 7.525131 0.000000 2.445065
v 19.701050 7.107219 -6.401257
v 12.175919 7.107219 -16.758713
v 0.000000 7.107219 -20.714905
v -12.175919 7.107219 -16.758709
v -19.701050 7.107219 -6.401257
v -19.701050 7.107219 6.401257
v -12.175919 7.107219 16.758707
v 0.000000 7.107219 20.714901
v 12.175903 7.107219 16.758705
v 19.701035 7.107219 6.401257
v 24.351822 22.157473 -7.912392
v 15.050262 22.157473 -20.714909
v 0.000000 22.157473 -25.605034
v -15.050262 22.157473 -20.714901
v -24.351822 22.157473 -7.912388
v -24.351822 22.157473 7.912388
v -15.050262 22.157473 20.714901
v 0.000000 22.157473 25.605022
v 15.050247 22.157473 20.714899
v 24.351807 22.157473 7.912388
v 19.701050 37.207726 -6.401257
v 12.175919 37.207726 -16.758713
v 0.000000 37.207726 -20.714905
v -12.175919 37.207726 -16.758709
v -19.701050 37.207726 -6.401257
v -19.701050 37.207726 6.401257
v -12.175919 37.207726 16.758707
v 0.000000 37.207726 20.714901
v 12.175903 37.207726 16.758705
v 19.701035 37.207726 6.401257
v 0.000000 41.809734 0.000000
vt 0.507146 0.871151
vt 0.077134 0.576096
vt 0.047338 0.565468
vt 0.607634 0.871673
vt 0.406995 0.870807
vt 0.096001 0.601581
vt 0.017622 0.574677
vt 0.708062 0.872419
vt 0.307524 0.870178
vt 0.095630 0.632608
vt -0.000637 0.599679
vt 0.808052 0.873329
vt 0.208833 0.868007
vt 0.076898 0.657331
vt -0.000613 0.630814
vt 0.907251 0.873923
vt 0.111283 0.860697
vt 0.047205 0.666221
vt 0.017619 0.656113
vt 1.005612 0.872953
vt 0.606970 0.982191
vt 0.544742 0.237152
vt 0.426170 0.369830
vt 0.707387 0.982790
vt 0.506510 0.981628
vt 0.406187 0.981072
vt 0.405762 1.091314
vt 0.807538 0.983372
vt 0.606363 1.092720
vt 0.562628 0.060625
vt 0.382224 0.165529
vt 0.305723 0.980493
vt 0.907763 0.983963
vt 0.806745 1.093403
vt 0.718160 0.199622
vt 1.004288 1.096170
vt 0.207647 1.091918
vt 0.203238 0.979981
vt 1.009924 0.984578
vt 0.634106 0.390633
vt 0.091316 0.979389
vt 0.371017 0.274762
vt 0.505897 1.092087
vt 0.306315 1.090866
vt 0.526812 0.413996
vt 0.110087 1.098226
vt 0.707158 0.308750
vt 0.905933 1.094010
vt 0.662961 0.104868
vt 0.706766 1.093131
vt 0.455415 0.083772
vt 0.192679 0.571689
vt 0.139171 0.492701
vt 0.189831 0.665201
vt 0.133495 0.738577
vt 0.045468 0.765009
vt -0.041254 0.735314
vt -0.094677 0.660681
vt -0.094617 0.568768
vt -0.040615 0.493729
vt 0.048118 0.464075
vt 1.121494 0.985215
vt 1.101510 1.103523
vt 1.102851 0.866742
vn 0.816153 -0.513392 -0.265184
vn 0.461611 -0.874311 -0.149986
vn 0.285291 -0.874311 -0.392670
vn 0.504410 -0.513392 -0.694261
vn -0.000000 -0.874311 -0.485367
vn -0.000000 -0.513393 -0.858154
vn -0.285291 -0.874311 -0.392670
vn -0.504410 -0.513392 -0.694261
vn -0.461611 -0.874311 -0.149987
vn -0.816153 -0.513392 -0.265184
vn -0.461611 -0.874311 0.149987
vn -0.816153 -0.513392 0.265184
vn -0.285291 -0.874311 0.392670
vn -0.504410 -0.513392 0.694261
vn 0.000000 -0.874311 0.485367
vn 0.000000 -0.513392 0.858154
vn 0.285292 -0.874310 0.392670
vn 0.504411 -0.513392 0.694261
vn 0.461612 -0.874310 0.149987
vn 0.816153 -0.513392 0.265185
vn 0.951057 0.000000 -0.309016
vn 0.587785 0.000000 -0.809017
vn -0.000000 0.000000 -1.000000
vn -0.587785 0.000000 -0.809017
vn -0.951057 -0.000000 -0.309017
vn -0.951057 -0.000000 0.309017
vn -0.587785 0.000000 0.809017
vn 0.000000 -0.000000 1.000000
vn 0.587786 -0.000000 0.809017
vn 0.951056 -0.000000 0.309017
vn 0.646802 0.733130 -0.210158
vn 0.407607 0.720493 -0.561023
vn -0.000000 0.733131 -0.680088
vn -0.407607 0.720493 -0.561023
vn -0.646802 0.733130 -0.210159
vn -0.659522 0.720493 0.214292
vn -0.399746 0.733131 0.550203
vn 0.000000 0.720493 0.693462
vn 0.399746 0.733131 0.550203
vn 0.659522 0.720493 0.214292
vn 0.000000 1.000000 -0.000000
s 1
f 11/53/1 1/2/2 2/3/3 12/61/4
f 12/61/4 2/3/3 3/7/5 13/60/6
f 13/60/6 3/7/5 4/11/7 14/59/8
f 14/59/8 4/11/7 5/15/9 15/58/10
f 15/58/10 5/15/9 6/19/11 16/57/12
f 16/57/12 6/19/11 7/18/13 17/56/14
f 17/56/14 7/18/13 8/14/15 18/55/16
f 18/55/16 8/14/15 9/10/17 19/54/18
f 19/54/18 9/10/17 10/6/19 20/52/20
f 20/52/20 10/6/19 1/2/2 11/53/1
f 21/25/21 11/1/1 12/4/4 22/21/22
f 22/21/22 12/4/4 13/8/6 23/24/23
f 23/24/23 13/8/6 14/12/8 24/28/24
f 24/28/24 14/12/8 15/16/10 25/33/25
f 25/33/25 15/16/10 16/20/12 26/39/26
f 26/39/26 16/20/12 17/64/14 27/62/27
f 27/41/27 17/17/14 18/13/16 28/38/28
f 28/38/28 18/13/16 19/9/18 29/32/29
f 29/32/29 19/9/18 20/5/20 30/26/30
f 30/26/30 20/5/20 11/1/1 21/25/21
f 31/43/31 21/25/21 22/21/22 32/29/32
f 32/29/32 22/21/22 23/24/23 33/50/33
f 33/50/33 23/24/23 24/28/24 34/34/34
f 34/34/34 24/28/24 25/33/25 35/48/35
f 35/48/35 25/33/25 26/39/26 36/36/36
f 36/36/36 26/39/26 27/62/27 37/63/37
f 37/46/37 27/41/27 28/38/28 38/37/38
f 38/37/38 28/38/28 29/32/29 39/44/39
f 39/44/39 29/32/29 30/26/30 40/27/40
f 40/27/40 30/26/30 21/25/21 31/43/31
f 41/22/41 31/31/31 32/51/32 33/30/33
f 41/22/41 33/30/33 34/49/34 35/35/35
f 41/22/41 35/35/35 36/47/36 37/40/37
f 41/22/41 37/40/37 38/45/38 39/23/39
f 41/22/41 39/23/39 40/42/40 31/31/31
