# This file uses centimeters as units for non-parametric coordinates.

v -96.000008 0.000000 0.000000
v -48.000000 0.000000 0.000000
v -96.000008 48.000000 0.000000
v -48.000000 48.000000 0.000000
v -96.000008 48.000000 -96.000000
v -48.000000 48.000000 -96.000000
v -96.000008 0.000000 -96.000000
v -48.000000 0.000000 -96.000000
v -96.000008 48.000000 -48.000000
v -96.000008 0.000000 -48.000000
v -48.000000 0.000000 -48.000000
v -48.000000 48.000000 -48.000000
v 0.000000 0.000000 -48.000000
v 0.000000 0.000000 0.000000
v 0.000000 48.000000 -48.000000
v 0.000000 48.000000 0.000000
vt 0.052371 0.072226
vt 0.362989 0.069500
vt 0.365737 0.380140
vt 0.055101 0.382866
vt 0.673618 0.066771
vt 0.676361 0.377410
vt 1.294968 0.061293
vt -0.258269 0.074947
vt 0.368472 0.690782
vt 0.057812 0.693516
vt 0.984303 0.064032
vt 0.679112 0.688055
vt 0.371199 1.001401
vt -0.566186 0.388327
vt -0.568911 0.077692
vt 1.605560 0.058593
vt 0.986994 0.374675
vt 1.297647 0.371925
vt -0.876813 0.391051
vt -0.255560 0.385602
vt 0.060571 1.004162
vt 1.608299 0.369215
vt -0.879549 0.080429
vn 0.000000 0.000000 1.000000
vn 0.000000 0.000000 1.000000
vn 0.000000 0.000000 1.000000
vn 0.000000 0.000000 1.000000
vn 0.000000 1.000000 0.000000
vn 0.000000 1.000000 0.000000
vn 0.000000 1.000000 0.000000
vn 0.000000 1.000000 0.000000
vn 0.000000 0.000000 -1.000000
vn 0.000000 0.000000 -1.000000
vn 0.000000 0.000000 -1.000000
vn 0.000000 0.000000 -1.000000
vn 1.000000 0.000000 0.000000
vn 1.000000 0.000000 0.000000
vn 1.000000 0.000000 0.000000
vn 1.000000 0.000000 0.000000
vn -1.000000 0.000000 0.000000
vn -1.000000 0.000000 0.000000
vn -1.000000 0.000000 0.000000
vn -1.000000 0.000000 0.000000
vn -1.000000 0.000000 0.000000
vn -1.000000 0.000000 0.000000
vn 1.000000 0.000000 0.000000
vn 1.000000 0.000000 0.000000
vn 1.000000 0.000000 0.000000
vn 1.000000 0.000000 0.000000
vn 0.000000 1.000000 0.000000
vn 0.000000 1.000000 0.000000
vn 0.000000 0.000000 -1.000000
vn 0.000000 0.000000 -1.000000
vn 0.000000 0.000000 -1.000000
vn 0.000000 0.000000 -1.000000
vn 0.000000 1.000000 0.000000
vn 0.000000 1.000000 0.000000
vn 0.000000 0.000000 1.000000
vn 0.000000 0.000000 1.000000
s 1
f 1/1/1 2/2/2 4/3/3 3/4/4
s 2
f 3/4/5 4/3/6 12/9/7 9/10/8
s off
f 5/14/9 6/19/10 8/23/11 7/15/12
f 14/5/13 13/11/14 15/17/15 16/6/16
s 3
f 10/8/17 1/1/18 3/4/19 9/20/20
f 7/15/21 10/8/17 9/20/20 5/14/22
s off
f 12/18/23 11/7/24 8/16/25 6/22/26
s 2
f 9/10/8 12/9/7 6/13/27 5/21/28
s off
f 11/7/29 12/18/30 15/17/31 13/11/32
s 2
f 12/9/7 4/3/6 16/6/33 15/12/34
s 1
f 4/3/3 2/2/2 14/5/35 16/6/36
