# This file uses centimeters as units for non-parametric coordinates.

v -7.962524 -9.359786 7.828705
v 8.037476 -9.359786 7.828705
v -7.962524 1.547199 7.828705
v 8.037476 1.547199 7.828705
v -7.962524 1.547199 -8.171295
v 8.037476 1.547199 -8.171295
v -7.962524 -9.359786 -8.171295
v 8.037476 -9.359786 -8.171295
v -10.558838 0.000000 21.185928
v -21.115479 0.000000 10.629272
v -21.829346 35.093082 32.226822
v -32.119629 35.093082 21.933563
v 21.115356 0.000000 10.629272
v 10.558716 0.000000 21.185928
v 21.829224 35.093082 32.226822
v 32.119507 35.093082 21.933563
v -40.037598 61.681419 -29.614655
v -29.480957 61.697884 -40.171295
v -21.830811 35.093082 -32.226837
v -32.119629 35.093082 -21.935104
v 29.480835 61.697884 -40.171295
v 40.037476 61.681419 -29.614655
v 32.119507 35.093082 -21.935104
v 21.830688 35.093082 -32.226837
v -29.480957 61.572563 40.171280
v -40.037598 61.589027 29.614639
v -21.115479 0.000000 -10.629303
v -10.558838 0.000000 -21.185944
v 10.558716 0.000000 -21.185944
v 21.115356 0.000000 -10.629303
v 40.037476 61.589027 29.614639
v 29.480835 61.572563 40.171280
vt 0.447934 0.909043
vt 0.358415 0.909043
vt 0.358415 0.848020
vt 0.447934 0.848020
vt 0.447934 0.839837
vt 0.358415 0.839837
vt 0.358415 0.778813
vt 0.447934 0.778813
vt 0.447934 0.770631
vt 0.358415 0.770631
vt 0.358415 0.709607
vt 0.447934 0.709607
vt 0.447934 0.701424
vt 0.358415 0.701425
vt 0.358415 0.640401
vt 0.447934 0.640401
vt 0.134149 0.038093
vt 0.133330 0.253274
vt -0.047358 0.197317
vt -0.046912 0.092556
vt 0.268587 0.291761
vt 0.270249 0.001135
vt 0.128447 0.320911
vt -0.053220 0.267004
vt -0.052131 0.021098
vt 0.129862 -0.031335
vt 0.480444 0.036007
vt 0.485985 0.263673
vt 0.293499 0.209481
vt 0.290903 0.098990
vt 0.287464 0.025114
vt 0.478087 -0.036111
vt 0.155019 0.729963
vt 0.218077 0.926306
vt -0.026190 0.926306
vt 0.036868 0.729963
vt 0.505340 0.529325
vt 0.442274 0.725668
vt 0.324123 0.725668
vt 0.261057 0.529325
vt 0.623246 -0.007568
vt 0.630977 0.300676
vt 0.548142 0.380473
vt 0.218255 0.380473
vt 0.260887 1.074457
vt -0.069000 1.074457
vt 0.613808 0.380473
vt 0.943695 0.380473
vt 0.943695 0.829983
vt 0.613808 0.829983
vt 0.620359 -0.081829
vt 0.263270 0.361296
vt 0.631601 0.375978
vt 0.486891 0.336693
vt 0.293508 0.284428
vt 0.265962 -0.070322
vt 1.002759 0.439536
vt 1.002759 0.770920
vt 0.554744 0.770920
vt 0.554744 0.439536
vn 0.000000 0.000000 1.000000
vn 0.000000 0.000000 1.000000
vn 0.000000 0.000000 1.000000
vn 0.000000 0.000000 1.000000
vn 0.000000 0.000000 -1.000000
vn 0.000000 0.000000 -1.000000
vn 0.000000 0.000000 -1.000000
vn 0.000000 0.000000 -1.000000
vn 1.000000 0.000000 0.000000
vn 1.000000 0.000000 0.000000
vn 1.000000 0.000000 0.000000
vn 1.000000 0.000000 0.000000
vn -1.000000 0.000000 0.000000
vn -1.000000 0.000000 0.000000
vn -1.000000 0.000000 0.000000
vn -1.000000 0.000000 0.000000
vn 0.956793 -0.290770 -0.000162
vn 0.956794 -0.290768 -0.000162
vn 0.954189 -0.299205 0.000000
vn 0.954189 -0.299205 0.000000
vn 0.958269 -0.285868 -0.000256
vn 0.958269 -0.285868 -0.000256
vn 0.648465 -0.399094 0.648242
vn 0.644985 -0.410010 0.644892
vn 0.644985 -0.410010 0.644892
vn 0.648461 -0.399106 0.648238
vn 0.644976 -0.410033 -0.644886
vn 0.648516 -0.398501 -0.648555
vn 0.648513 -0.398513 -0.648551
vn 0.644976 -0.410033 -0.644886
vn -0.956794 -0.290768 -0.000162
vn -0.956793 -0.290770 -0.000162
vn -0.954189 -0.299205 0.000000
vn -0.954189 -0.299205 0.000000
vn -0.648461 -0.399106 0.648238
vn -0.644985 -0.410010 0.644892
vn -0.644985 -0.410010 0.644892
vn -0.648465 -0.399094 0.648242
vn 0.000000 -0.300115 0.953903
vn 0.000000 -0.292059 0.956400
vn 0.000000 -0.292059 0.956400
vn 0.000000 -0.300115 0.953903
vn 0.000000 -0.291262 -0.956643
vn 0.000000 -0.300115 -0.953903
vn 0.000000 -0.300115 -0.953903
vn 0.000000 -0.291262 -0.956643
vn -0.958269 -0.285868 -0.000256
vn -0.958269 -0.285868 -0.000256
vn 0.000000 -0.286126 -0.958192
vn 0.000000 -0.286126 -0.958192
vn 0.000000 -0.287368 0.957820
vn 0.000000 -0.287368 0.957820
vn 0.000000 0.999999 0.001560
vn 0.000000 0.999999 0.001560
vn 0.000000 0.999999 0.001560
vn 0.000000 0.999999 0.001560
vn -0.652977 -0.384395 0.652580
vn -0.652977 -0.384395 0.652580
vn 0.652977 -0.384395 0.652580
vn 0.652977 -0.384395 0.652580
vn -0.653077 -0.383022 -0.653288
vn -0.653077 -0.383022 -0.653288
vn -0.648516 -0.398501 -0.648555
vn -0.648513 -0.398513 -0.648551
vn -0.644976 -0.410033 -0.644886
vn -0.644976 -0.410033 -0.644886
vn 0.653077 -0.383022 -0.653288
vn 0.653077 -0.383022 -0.653288
vn -0.000000 0.999999 0.001560
vn -0.000000 0.999999 0.001560
vn -0.000000 0.999999 0.001560
vn -0.000000 0.999999 0.001560
vn 0.000000 0.999999 0.001560
vn 0.000000 0.999999 0.001560
vn 0.000000 0.999999 0.001560
vn 0.000000 0.999999 0.001560
s off
f 1/1/1 2/2/2 4/3/3 3/4/4
f 5/5/5 6/6/6 8/7/7 7/8/8
f 2/9/9 8/10/10 6/11/11 4/12/12
f 7/13/13 1/14/14 3/15/15 5/16/16
s 1
f 23/17/17 16/18/18 13/19/19 30/20/20
f 31/21/21 16/18/18 23/17/17 22/22/22
s 2
f 15/23/23 14/24/24 13/19/25 16/18/26
s 3
f 29/25/27 24/26/28 23/17/29 30/20/30
s 4
f 12/27/31 20/28/32 27/29/33 10/30/34
s 5
f 12/27/35 10/30/36 9/31/37 11/32/38
s 6
f 14/33/39 15/34/40 11/35/41 9/36/42
s 7
f 24/37/43 29/38/44 28/39/45 19/40/46
s 4
f 26/41/47 17/42/48 20/28/32 12/27/31
s 7
f 21/43/49 24/37/43 19/40/46 18/44/50
s 6
f 15/34/40 32/45/51 25/46/52 11/35/41
s off
f 25/47/53 32/48/54 21/49/55 18/50/56
s 5
f 25/51/57 26/41/58 12/27/35 11/32/38
s 2
f 31/21/59 32/52/60 15/23/23 16/18/26
s 8
f 17/42/61 18/53/62 19/54/63 20/28/64
f 28/55/65 27/29/66 20/28/64 19/54/63
s 3
f 24/26/28 21/56/67 22/22/68 23/17/29
s off
f 32/48/69 31/57/70 22/58/71 21/49/72
f 25/47/73 18/50/74 17/59/75 26/60/76
