# This file uses centimeters as units for non-parametric coordinates.

v -96.000000 0.000000 0.000000
v -48.000031 0.000000 0.000000
v -96.000000 48.000000 0.000000
v -48.000031 48.000000 0.000000
v -96.000000 48.000000 -95.999954
v -48.000031 48.000000 -95.999954
v -96.000000 0.000000 -95.999954
v -48.000031 0.000000 -95.999954
v -96.000000 48.000000 -47.999969
v -96.000000 0.000000 -47.999969
v -48.000031 0.000000 -47.999969
v -48.000031 48.000000 -47.999969
v 0.000000 0.000000 -47.999969
v 0.000000 0.000000 0.000000
v 0.000000 48.000000 -47.999969
v 0.000000 48.000000 0.000000
v -144.000000 0.000000 -47.999969
v -144.000000 0.000000 0.000000
v -144.000000 48.000000 0.000000
v -144.000000 48.000000 -47.999969
vt 0.928584 0.256051
vt 1.182375 0.255231
vt 1.183195 0.509022
vt 0.929404 0.509842
vt 1.436166 0.254411
vt 1.436986 0.508202
vt 0.675613 0.510662
vt 0.674792 0.256871
vt -0.594163 0.260982
vt 0.167210 0.258514
vt 1.184015 0.762813
vt 0.168032 0.512305
vt 0.421001 0.257692
vt 1.437806 0.761992
vt 1.184834 1.016603
vt -0.085758 0.513127
vt 0.421823 0.511483
vt -0.847955 0.261806
vt -0.086581 0.259336
vt -0.340372 0.260159
vt 0.930224 0.763633
vt -0.847131 0.515597
vt -0.593340 0.514773
vt -0.339549 0.513950
vt 0.931044 1.017423
vt -1.101746 0.262630
vt -1.100922 0.516421
vt 0.676433 0.764453
vn 0.000000 0.000000 1.000000
vn 0.000000 0.000000 1.000000
vn 0.000000 0.000000 1.000000
vn 0.000000 0.000000 1.000000
vn 0.000000 1.000000 0.000000
vn 0.000000 1.000000 0.000000
vn 0.000000 1.000000 0.000000
vn 0.000000 1.000000 0.000000
vn 0.000000 0.000000 -1.000000
vn 0.000000 0.000000 -1.000000
vn 0.000000 0.000000 -1.000000
vn 0.000000 0.000000 -1.000000
vn 1.000000 0.000000 0.000000
vn 1.000000 0.000000 0.000000
vn 1.000000 0.000000 0.000000
vn 1.000000 0.000000 0.000000
vn -1.000000 0.000000 0.000000
vn -1.000000 0.000000 0.000000
vn -1.000000 0.000000 0.000000
vn -1.000000 0.000000 0.000000
vn -1.000000 0.000000 0.000000
vn -1.000000 0.000000 0.000000
vn -1.000000 0.000000 0.000000
vn -1.000000 0.000000 0.000000
vn 1.000000 0.000000 0.000000
vn 1.000000 0.000000 0.000000
vn 1.000000 0.000000 0.000000
vn 1.000000 0.000000 0.000000
vn 0.000000 1.000000 0.000000
vn 0.000000 1.000000 0.000000
vn 0.000000 0.000000 -1.000000
vn 0.000000 0.000000 -1.000000
vn 0.000000 0.000000 -1.000000
vn 0.000000 0.000000 -1.000000
vn 0.000000 1.000000 0.000000
vn 0.000000 1.000000 0.000000
vn 0.000000 0.000000 1.000000
vn 0.000000 0.000000 1.000000
vn 0.000000 0.000000 1.000000
vn 0.000000 0.000000 1.000000
vn 0.000000 0.000000 1.000000
vn 0.000000 0.000000 1.000000
vn 0.000000 1.000000 0.000000
vn 0.000000 1.000000 0.000000
vn 0.000000 1.000000 0.000000
vn 0.000000 1.000000 0.000000
vn 0.000000 0.000000 -1.000000
vn 0.000000 0.000000 -1.000000
vn 0.000000 0.000000 -1.000000
vn 0.000000 0.000000 -1.000000
s 1
f 1/1/1 2/2/2 4/3/3 3/4/4
s 2
f 3/4/5 4/3/6 12/11/7 9/21/8
s off
f 5/16/9 6/24/10 8/20/11 7/19/12
f 14/26/13 13/18/14 15/22/15 16/27/16
f 17/13/17 18/8/18 19/7/19 20/17/20
f 7/19/21 10/10/22 9/12/23 5/16/24
f 12/23/25 11/9/26 8/20/27 6/24/28
s 2
f 9/21/8 12/11/7 6/15/29 5/25/30
s off
f 11/9/31 12/23/32 15/22/33 13/18/34
s 2
f 12/11/7 4/3/6 16/6/35 15/14/36
s 1
f 4/3/3 2/2/2 14/5/37 16/6/38
s off
f 1/1/39 3/4/40 19/7/41 18/8/42
f 3/4/43 9/21/44 20/28/45 19/7/46
f 9/12/47 10/10/48 17/13/49 20/17/50
