# This file uses centimeters as units for non-parametric coordinates.

v -95.999969 0.000000 0.000000
v -48.000000 0.000000 0.000000
v -95.999969 95.999992 0.000000
v -48.000000 95.999992 0.000000
v -95.999969 95.999992 -95.999969
v -48.000000 95.999992 -95.999969
v -95.999969 0.000000 -95.999969
v -48.000000 0.000000 -95.999969
v -95.999969 95.999992 -47.999969
v -95.999969 0.000000 -47.999969
v -48.000000 0.000000 -47.999969
v -48.000000 95.999992 -47.999969
v 0.000031 0.000000 -47.999969
v 0.000031 0.000000 0.000000
v 0.000031 95.999992 -47.999969
v 0.000031 95.999992 0.000000
v -142.828613 0.000000 -47.999969
v -142.828613 0.000000 0.000000
v -142.828613 95.999992 0.000000
v -142.828613 95.999992 -47.999969
vt 1.437480 -0.103850
vt 1.748953 -0.103909
vt 1.749072 0.519043
vt 1.437597 0.519098
vt 2.060428 -0.103966
vt 2.060543 0.518980
vt 1.133722 0.519155
vt 1.133608 -0.103792
vt -0.416161 -0.103506
vt 0.518261 -0.103678
vt 1.749129 0.830511
vt 0.518378 0.519270
vt 0.822133 -0.103734
vt 2.060603 0.830455
vt 1.749187 1.141987
vt 0.206902 0.519326
vt 0.822251 0.519214
vt -0.727633 -0.103446
vt 0.206788 -0.103620
vt -0.104687 -0.103561
vt 1.133783 0.830628
vt -0.727521 0.519500
vt -0.416044 0.519443
vt -0.104572 0.519387
vt -1.039108 -0.103390
vt -1.038993 0.519559
vt 1.437655 0.830572
vt 1.437714 1.142045
vn 0.000000 0.000000 1.000000
vn 0.000000 0.000000 1.000000
vn 0.000000 0.000000 1.000000
vn 0.000000 0.000000 1.000000
vn 0.000000 1.000000 0.000000
vn 0.000000 1.000000 0.000000
vn 0.000000 1.000000 0.000000
vn 0.000000 1.000000 0.000000
vn 0.000000 0.000000 -1.000000
vn 0.000000 0.000000 -1.000000
vn 0.000000 0.000000 -1.000000
vn 0.000000 0.000000 -1.000000
vn 1.000000 0.000000 0.000000
vn 1.000000 0.000000 0.000000
vn 1.000000 0.000000 0.000000
vn 1.000000 0.000000 0.000000
vn -1.000000 0.000000 0.000000
vn -1.000000 0.000000 0.000000
vn -1.000000 0.000000 0.000000
vn -1.000000 0.000000 0.000000
vn -1.000000 0.000000 0.000000
vn -1.000000 0.000000 0.000000
vn -1.000000 0.000000 0.000000
vn -1.000000 0.000000 0.000000
vn 1.000000 0.000000 0.000000
vn 1.000000 0.000000 0.000000
vn 1.000000 0.000000 0.000000
vn 1.000000 0.000000 0.000000
vn 0.000000 1.000000 0.000000
vn 0.000000 1.000000 0.000000
vn 0.000000 0.000000 -1.000000
vn 0.000000 0.000000 -1.000000
vn 0.000000 0.000000 -1.000000
vn 0.000000 0.000000 -1.000000
vn 0.000000 1.000000 0.000000
vn 0.000000 1.000000 0.000000
vn 0.000000 0.000000 1.000000
vn 0.000000 0.000000 1.000000
vn 0.000000 0.000000 1.000000
vn 0.000000 0.000000 1.000000
vn 0.000000 1.000000 0.000000
vn 0.000000 1.000000 0.000000
vn 0.000000 0.000000 -1.000000
vn 0.000000 0.000000 -1.000000
vn 0.000000 0.000000 -1.000000
vn 0.000000 0.000000 -1.000000
s 1
f 1/1/1 2/2/2 4/3/3 3/4/4
s 2
f 3/4/5 4/3/6 12/11/7 9/27/8
s off
f 5/16/9 6/24/10 8/20/11 7/19/12
f 14/25/13 13/18/14 15/22/15 16/26/16
f 17/13/17 18/8/18 19/7/19 20/17/20
f 7/19/21 10/10/22 9/12/23 5/16/24
f 12/23/25 11/9/26 8/20/27 6/24/28
s 2
f 9/27/8 12/11/7 6/15/29 5/28/30
s off
f 11/9/31 12/23/32 15/22/33 13/18/34
s 2
f 12/11/7 4/3/6 16/6/35 15/14/36
s 1
f 4/3/3 2/2/2 14/5/37 16/6/38
f 1/1/1 3/4/4 19/7/39 18/8/40
s 2
f 3/4/5 9/27/8 20/21/41 19/7/42
s off
f 9/12/43 10/10/44 17/13/45 20/17/46
