# This file uses centimeters as units for non-parametric coordinates.

v -96.000000 0.000000 0.000000
v -48.000000 0.000000 0.000000
v -96.000000 95.999992 0.000000
v -48.000000 95.999992 0.000000
v -96.000000 95.999992 -96.000000
v -48.000000 95.999992 -96.000000
v -96.000000 0.000000 -96.000000
v -48.000000 0.000000 -96.000000
v -96.000000 95.999992 -48.000000
v -96.000000 0.000000 -48.000000
v -48.000000 0.000000 -48.000000
v -48.000000 95.999992 -48.000000
v 0.000000 0.000000 -48.000000
v 0.000000 0.000000 0.000000
v 0.000000 95.999992 -48.000000
v 0.000000 95.999992 0.000000
vt 0.426354 -0.351369
vt 0.723587 -0.351129
vt 0.723101 0.243321
vt 0.425874 0.243087
vt 1.020808 -0.350886
vt 1.020339 0.243565
vt -0.762553 -0.352297
vt 0.129145 -0.351584
vt 0.722867 0.540555
vt 0.425635 0.540316
vt -1.059810 -0.352598
vt 1.020084 0.540794
vt 0.722619 0.837783
vt -0.168566 0.242649
vt -0.168137 -0.351861
vt -0.465307 -0.352101
vt -1.060232 0.241910
vt -0.763084 0.242127
vt -0.465791 0.242336
vt 0.128623 0.242821
vt 0.425395 0.837545
vt -1.357000 -0.352802
vt -1.357503 0.241639
vn 0.000000 0.000000 1.000000
vn 0.000000 0.000000 1.000000
vn 0.000000 0.000000 1.000000
vn 0.000000 0.000000 1.000000
vn 0.000000 1.000000 0.000000
vn 0.000000 1.000000 0.000000
vn 0.000000 1.000000 0.000000
vn 0.000000 1.000000 0.000000
vn 0.000000 0.000000 -1.000000
vn 0.000000 0.000000 -1.000000
vn 0.000000 0.000000 -1.000000
vn 0.000000 0.000000 -1.000000
vn 1.000000 0.000000 0.000000
vn 1.000000 0.000000 0.000000
vn 1.000000 0.000000 0.000000
vn 1.000000 0.000000 0.000000
vn -1.000000 0.000000 0.000000
vn -1.000000 0.000000 0.000000
vn -1.000000 0.000000 0.000000
vn -1.000000 0.000000 0.000000
vn -1.000000 0.000000 0.000000
vn -1.000000 0.000000 0.000000
vn 1.000000 0.000000 0.000000
vn 1.000000 0.000000 0.000000
vn 1.000000 0.000000 0.000000
vn 1.000000 0.000000 0.000000
vn 0.000000 1.000000 0.000000
vn 0.000000 1.000000 0.000000
vn 0.000000 0.000000 -1.000000
vn 0.000000 0.000000 -1.000000
vn 0.000000 0.000000 -1.000000
vn 0.000000 0.000000 -1.000000
vn 0.000000 1.000000 0.000000
vn 0.000000 1.000000 0.000000
vn 0.000000 0.000000 1.000000
vn 0.000000 0.000000 1.000000
s 1
f 1/1/1 2/2/2 4/3/3 3/4/4
s 2
f 3/4/5 4/3/6 12/9/7 9/10/8
s off
f 5/14/9 6/19/10 8/16/11 7/15/12
f 14/22/13 13/11/14 15/17/15 16/23/16
s 3
f 10/8/17 1/1/18 3/4/19 9/20/20
f 7/15/21 10/8/17 9/20/20 5/14/22
s off
f 12/18/23 11/7/24 8/16/25 6/19/26
s 2
f 9/10/8 12/9/7 6/13/27 5/21/28
s off
f 11/7/29 12/18/30 15/17/31 13/11/32
s 2
f 12/9/7 4/3/6 16/6/33 15/12/34
s 1
f 4/3/3 2/2/2 14/5/35 16/6/36
