# This file uses centimeters as units for non-parametric coordinates.

v -48.000000 0.000000 0.000000
v 0.000000 0.000000 0.000000
v -48.000000 95.999992 0.000000
v 0.000000 95.999992 0.000000
v -48.000000 95.999992 -48.000000
v 0.000000 95.999992 -48.000000
v -48.000000 0.000000 -48.000000
v 0.000000 0.000000 -48.000000
vt -0.238674 0.658269
vt 0.684591 0.676429
vt 0.686345 0.058868
vt 0.995917 0.058916
vt 0.685797 -0.246568
vt -0.232773 0.063012
vt 0.378400 0.059523
vt 0.379574 -0.246534
vt 0.070935 0.060803
vt 0.995881 0.677530
vt 0.374158 0.674017
vt 0.065647 0.667427
vn 0.000000 0.000000 1.000000
vn 0.000000 0.000000 1.000000
vn 0.000000 0.000000 1.000000
vn 0.000000 0.000000 1.000000
vn 0.000000 1.000000 0.000000
vn 0.000000 1.000000 0.000000
vn 0.000000 1.000000 0.000000
vn 0.000000 1.000000 0.000000
vn 0.000000 0.000000 -1.000000
vn 0.000000 0.000000 -1.000000
vn 0.000000 0.000000 -1.000000
vn 0.000000 0.000000 -1.000000
vn 1.000000 0.000000 0.000000
vn 1.000000 0.000000 0.000000
vn 1.000000 0.000000 0.000000
vn 1.000000 0.000000 0.000000
vn -1.000000 0.000000 0.000000
vn -1.000000 0.000000 0.000000
vn -1.000000 0.000000 0.000000
vn -1.000000 0.000000 0.000000
s off
f 1/10/1 2/2/2 4/3/3 3/4/4
f 3/5/5 4/3/6 6/7/7 5/8/8
f 5/9/9 6/7/10 8/11/11 7/12/12
f 2/2/13 8/11/14 6/7/15 4/3/16
f 7/12/17 1/1/18 3/6/19 5/9/20
