# This file uses centimeters as units for non-parametric coordinates.

v -48.000000 0.000000 0.000000
v 0.000000 0.000000 0.000000
v -48.000000 96.000008 0.000000
v 0.000000 96.000008 0.000000
v -48.000000 96.000008 -96.000000
v 0.000000 96.000008 -96.000000
v -48.000000 0.000000 -96.000000
v 0.000000 0.000000 -96.000000
vt 0.722739 0.015061
vt -0.559519 0.007737
vt -0.562449 0.520641
vt -0.818901 0.519176
vt -0.563914 0.777093
vt 0.209836 0.012132
vt -0.049545 0.523570
vt -0.051010 0.780022
vt 0.206906 0.525035
vt -0.046616 0.010667
vt -0.815971 0.006272
vt 0.719809 0.527965
vn 0.000000 0.000000 1.000000
vn 0.000000 0.000000 1.000000
vn 0.000000 0.000000 1.000000
vn 0.000000 0.000000 1.000000
vn 0.000000 1.000000 0.000000
vn 0.000000 1.000000 0.000000
vn 0.000000 1.000000 0.000000
vn 0.000000 1.000000 0.000000
vn 0.000000 0.000000 -1.000000
vn 0.000000 0.000000 -1.000000
vn 0.000000 0.000000 -1.000000
vn 0.000000 0.000000 -1.000000
vn 1.000000 0.000000 0.000000
vn 1.000000 0.000000 0.000000
vn 1.000000 0.000000 0.000000
vn 1.000000 0.000000 0.000000
vn -1.000000 0.000000 0.000000
vn -1.000000 0.000000 0.000000
vn -1.000000 0.000000 0.000000
vn -1.000000 0.000000 0.000000
s off
f 1/11/1 2/2/2 4/3/3 3/4/4
f 3/5/5 4/3/6 6/7/7 5/8/8
f 5/9/9 6/7/10 8/10/11 7/6/12
f 2/2/13 8/10/14 6/7/15 4/3/16
f 7/6/17 1/1/18 3/12/19 5/9/20
