# This file uses centimeters as units for non-parametric coordinates.

mtllib nj_pool_fence_door_alpha.mtl
g default
v -32.121338 -13.707893 0.000000
v 0.000000 -13.707893 0.000000
v 32.121338 -13.707893 0.000000
v -32.121338 0.000000 0.000000
v 0.000000 0.000000 0.000000
v 32.121338 0.000000 0.000000
v -32.121338 13.707893 0.000000
v 0.000000 13.707893 0.000000
v 32.121338 13.707893 0.000000
vt 0.033175 0.771299
vt 0.266329 0.771299
vt 0.266352 0.879374
vt 0.033134 0.879374
vt 0.499886 0.771299
vt 0.499845 0.879374
vt 0.266351 0.987450
vt 0.033118 0.987450
vt 0.499829 0.987450
vn 0.000000 0.000000 1.000000
vn 0.000000 0.000000 1.000000
vn 0.000000 0.000000 1.000000
vn 0.000000 0.000000 1.000000
vn 0.000000 0.000000 1.000000
vn 0.000000 0.000000 1.000000
vn 0.000000 0.000000 1.000000
vn 0.000000 0.000000 1.000000
vn 0.000000 0.000000 1.000000
s 1
g nj_pool_fence_door_alpha
usemtl lambert50SG
f 1/1/1 2/2/2 5/3/3 4/4/4
f 2/2/2 3/5/5 6/6/6 5/3/3
f 4/4/4 5/3/3 8/7/7 7/8/8
f 5/3/3 6/6/6 9/9/9 8/7/7
