# This file uses centimeters as units for non-parametric coordinates.

mtllib nj_pool_fence_end.mtl
g default
v 0.000000 0.000000 0.000000
v 15.551514 0.000000 0.000000
v 0.000000 134.834549 0.000000
v 15.551514 134.834549 0.000000
v 0.000000 134.834549 -15.551422
v 15.551514 134.834549 -15.551422
v 0.000000 0.000000 -15.551422
v 15.551514 0.000000 -15.551422
vt 0.076901 0.142936
vt 0.140082 0.142936
vt 0.140082 0.690733
vt 0.075646 0.690734
vt 0.140082 0.758931
vt 0.074394 0.758933
vt 0.266445 0.690734
vt 0.203264 0.690734
vt 0.203264 0.142936
vt 0.266445 0.142936
vt 0.013719 0.142936
vt 0.013719 0.690734
vn 0.000000 0.000000 1.000000
vn 0.000000 0.000000 1.000000
vn 0.000000 0.000000 1.000000
vn 0.000000 0.000000 1.000000
vn 0.000000 1.000000 0.000000
vn 0.000000 1.000000 0.000000
vn 0.000000 1.000000 0.000000
vn 0.000000 1.000000 0.000000
vn 0.000000 0.000000 -1.000000
vn 0.000000 0.000000 -1.000000
vn 0.000000 0.000000 -1.000000
vn 0.000000 0.000000 -1.000000
vn 1.000000 0.000000 0.000000
vn 1.000000 0.000000 0.000000
vn 1.000000 0.000000 0.000000
vn 1.000000 0.000000 0.000000
vn -1.000000 0.000000 0.000000
vn -1.000000 0.000000 0.000000
vn -1.000000 0.000000 0.000000
vn -1.000000 0.000000 0.000000
s off
g nj_pool_fence_end
usemtl lambert48SG
f 1/1/1 2/2/2 4/3/3 3/4/4
f 3/4/5 4/3/6 6/5/7 5/6/8
f 5/7/9 6/8/10 8/9/11 7/10/12
f 2/2/13 8/9/14 6/8/15 4/3/16
f 7/11/17 1/1/18 3/4/19 5/12/20
