# This file uses centimeters as units for non-parametric coordinates.

mtllib nj_wood_posts_single_03.mtl
g default
v 4.773972 7.734511 -1.957092
v 24.840469 10.900691 -1.957092
v 3.950653 12.952535 -1.957092
v 24.017136 16.118713 -1.957092
v 3.950653 12.952535 -3.309540
v 24.017136 16.118713 -3.309540
v 4.773972 7.734511 -3.309540
v 24.840469 10.900691 -3.309540
v 20.734421 15.200055 -1.957092
v 20.734421 15.200055 -3.309540
v 21.434357 10.763959 -3.309540
v 21.434357 10.763959 -1.957092
v 17.415253 14.512282 -1.957092
v 17.415253 14.512282 -3.309540
v 18.064697 10.396337 -3.309540
v 18.064697 10.396337 -1.957092
v 14.086884 13.882918 -1.957092
v 14.086884 13.882918 -3.309540
v 14.704239 9.970309 -3.309540
v 14.704239 9.970309 -1.957092
v 10.726425 13.456889 -1.957092
v 10.726425 13.456889 -3.309540
v 11.375870 9.340943 -3.309540
v 11.375870 9.340943 -1.957092
v 7.356766 13.089269 -1.957092
v 7.356766 13.089269 -3.309540
v 8.056702 8.653172 -3.309540
v 8.056702 8.653172 -1.957092
v 4.773972 21.221245 1.108887
v 25.004440 23.069675 1.108887
v 4.293320 26.481907 1.108887
v 24.523788 28.330338 1.108887
v 4.293320 26.481907 -0.243561
v 24.523788 28.330338 -0.243561
v 4.773972 21.221245 -0.243561
v 25.004440 23.069675 -0.243561
v 21.188065 27.628109 1.108887
v 21.188065 27.628109 -0.243561
v 21.596695 23.155762 -0.243561
v 21.596695 23.155762 1.108887
v 17.831055 27.158653 1.108887
v 17.831055 27.158653 -0.243561
v 18.210190 23.009075 -0.243561
v 18.210190 23.009075 1.108887
v 14.468674 26.748081 1.108887
v 14.468674 26.748081 -0.243561
v 14.829086 22.803501 -0.243561
v 14.829086 22.803501 1.108887
v 11.087570 26.542511 1.108887
v 11.087570 26.542511 -0.243561
v 11.466705 22.392929 -0.243561
v 11.466705 22.392929 1.108887
v 7.701080 26.395824 1.108887
v 7.701080 26.395824 -0.243561
v 8.109711 21.923473 -0.243561
v 8.109711 21.923473 1.108887
v 0.000000 0.000000 0.000000
v 7.047729 0.000000 0.000000
v 0.000000 32.859730 0.000000
v 7.047729 35.669785 0.000000
v 0.000000 32.859730 -2.623627
v 7.047729 35.669785 -2.623627
v 0.000000 0.000000 -2.623627
v 7.047729 0.000000 -2.623627
v 3.558334 38.195816 0.000000
v 3.558334 38.195816 -2.623627
v 3.558334 0.000000 -2.623627
v 3.558334 0.000000 0.000000
v 3.552231 31.135775 0.000000
v 0.624481 27.608128 0.000000
v 0.624481 27.608128 -2.623627
v 3.552231 31.135775 -2.623627
v 6.423248 27.608128 -2.623627
v 6.423248 27.608128 0.000000
v 3.553085 24.908619 0.000000
v 0.536926 22.086502 0.000000
v 0.536926 22.086502 -2.623627
v 3.552231 24.908619 -2.623627
v 6.510788 22.086502 -2.623627
v 6.510788 22.086502 0.000000
v 3.552231 18.681465 0.000000
v 0.624481 16.564877 0.000000
v 0.624481 16.564877 -2.623627
v 3.552231 18.681465 -2.623627
v 6.423248 16.564877 -2.623627
v 6.423248 16.564877 0.000000
v 3.552231 12.454309 0.000000
v 0.624481 11.043251 0.000000
v 0.624481 11.043251 -2.623627
v 3.552231 12.454309 -2.623627
v 6.423248 11.043251 -2.623627
v 6.423248 11.043251 0.000000
v 3.552231 6.227155 0.000000
v 0.624481 5.521626 0.000000
v 0.624481 5.521626 -2.623627
v 3.552231 6.227155 -2.623627
v 6.423248 5.521626 -2.623627
v 6.423248 5.521626 0.000000
v 1.131851 0.000000 0.000000
v 1.555756 5.746044 0.000000
v 1.555756 11.492088 0.000000
v 1.555756 17.238132 0.000000
v 1.496323 22.984177 0.000000
v 1.555756 28.730221 0.000000
v 1.131851 35.773224 0.000000
v 1.131851 35.773224 -2.623627
v 1.555756 28.730221 -2.623627
v 1.496048 22.984177 -2.623627
v 1.555756 17.238132 -2.623627
v 1.555756 11.492088 -2.623627
v 1.555756 5.746044 -2.623627
v 1.131851 0.000000 -2.623627
v 2.289261 0.000000 0.000000
v 2.508057 5.975530 0.000000
v 2.508057 11.951060 0.000000
v 2.508057 17.926592 0.000000
v 2.477371 23.902122 0.000000
v 2.508057 29.877651 0.000000
v 2.289261 35.006912 0.000000
v 2.289261 35.006912 -2.623627
v 2.508057 29.877651 -2.623627
v 2.476822 23.902122 -2.623627
v 2.508057 17.926592 -2.623627
v 2.508057 11.951060 -2.623627
v 2.508057 5.975530 -2.623627
v 2.289261 0.000000 -2.623627
v 5.089127 0.000000 0.000000
v 4.811737 5.917641 0.000000
v 4.811737 11.835281 0.000000
v 4.811737 17.752922 0.000000
v 4.850616 23.670565 0.000000
v 4.811737 29.588203 0.000000
v 5.089127 36.022850 0.000000
v 5.089127 36.022850 -2.623627
v 4.811737 29.588203 -2.623627
v 4.850143 23.670565 -2.623627
v 4.811737 17.752922 -2.623627
v 4.811737 11.835281 -2.623627
v 4.811737 5.917641 -2.623627
v 5.089127 0.000000 -2.623627
v 5.869873 0.000000 0.000000
v 5.454117 5.759779 0.000000
v 5.454117 11.519558 0.000000
v 5.454117 17.279339 0.000000
v 5.512405 23.039118 0.000000
v 5.454117 28.798897 0.000000
v 5.869873 34.558678 0.000000
v 5.869873 34.558678 -2.623627
v 5.454117 28.798897 -2.623627
v 5.512115 23.039118 -2.623627
v 5.454117 17.279339 -2.623627
v 5.454117 11.519558 -2.623627
v 5.454117 5.759779 -2.623627
v 5.869873 0.000000 -2.623627
vt 0.466545 0.961950
vt 0.032243 0.849085
vt 0.103903 0.856858
vt 0.392984 0.952532
vt 0.392681 0.855030
vt 0.467443 0.846621
vt 0.004629 0.850537
vt 0.032636 0.848803
vt 0.103648 0.953805
vt 0.033177 0.964297
vt 0.032722 0.964525
vt 0.004932 0.958053
vt 0.496603 0.849761
vt 0.494616 0.961241
vt 0.103903 0.856858
vt 0.103648 0.953805
vt 0.108492 0.981813
vt 0.173814 0.861134
vt 0.175197 0.948924
vt 0.246302 0.862354
vt 0.247616 0.946537
vt 0.039617 0.992865
vt 0.037083 0.820377
vt 0.106697 0.829654
vt 0.392984 0.952532
vt 0.320182 0.859438
vt 0.320128 0.948992
vt 0.466545 0.961950
vt 0.460675 0.991013
vt 0.389312 0.981263
vt 0.176628 0.832984
vt 0.173813 0.861134
vt 0.392681 0.855030
vt 0.388998 0.826156
vt 0.460756 0.816313
vt 0.177956 0.976911
vt 0.175197 0.948924
vt 0.467443 0.846621
vt 0.320128 0.948992
vt 0.318388 0.976854
vt 0.320182 0.859437
vt 0.317747 0.831061
vt 0.247616 0.946537
vt 0.247918 0.974885
vt 0.246302 0.862354
vt 0.246979 0.833862
vt 0.032243 0.849085
vt 0.103903 0.856858
vt 0.103648 0.953805
vt 0.033177 0.964297
vt 0.108492 0.981813
vt 0.039617 0.992865
vt 0.466545 0.961950
vt 0.392984 0.952532
vt 0.392681 0.855030
vt 0.467443 0.846621
vt 0.037083 0.820377
vt 0.106697 0.829654
vt 0.004629 0.850537
vt 0.032636 0.848803
vt 0.032722 0.964525
vt 0.004932 0.958053
vt 0.496603 0.849761
vt 0.494616 0.961241
vt 0.392984 0.952532
vt 0.466545 0.961950
vt 0.460675 0.991013
vt 0.389312 0.981263
vt 0.103903 0.856858
vt 0.103648 0.953805
vt 0.392681 0.855030
vt 0.388998 0.826156
vt 0.460756 0.816313
vt 0.467443 0.846621
vt 0.320128 0.948992
vt 0.318388 0.976854
vt 0.173814 0.861134
vt 0.175197 0.948924
vt 0.320182 0.859437
vt 0.317747 0.831061
vt 0.247616 0.946537
vt 0.247918 0.974885
vt 0.246302 0.862354
vt 0.247616 0.946537
vt 0.246302 0.862354
vt 0.246979 0.833862
vt 0.175197 0.948924
vt 0.177956 0.976911
vt 0.320182 0.859438
vt 0.320128 0.948992
vt 0.173813 0.861134
vt 0.176628 0.832984
vt 0.844205 0.010440
vt 0.865619 0.010361
vt 0.873730 0.119077
vt 0.856012 0.114858
vt 0.687193 0.036811
vt 0.692117 0.113143
vt 0.625065 0.114110
vt 0.626385 0.038127
vt 0.815355 0.111346
vt 0.798210 0.115431
vt 0.806072 0.010168
vt 0.826813 0.010242
vt 0.554018 0.719562
vt 0.503325 0.719452
vt 0.503258 0.611449
vt 0.554555 0.611554
vt 0.559671 0.016904
vt 0.615580 0.016752
vt 0.615631 0.134643
vt 0.560014 0.134770
vt 0.697579 0.239780
vt 0.693788 0.312470
vt 0.625045 0.311855
vt 0.623778 0.240157
vt 0.761541 0.010009
vt 0.761390 0.124200
vt 0.738159 0.118426
vt 0.733437 0.009909
vt 0.935790 0.122164
vt 0.911792 0.128131
vt 0.911608 0.010191
vt 0.940635 0.010083
vt 0.854191 0.544758
vt 0.872662 0.567134
vt 0.863693 0.708765
vt 0.841139 0.649903
vt 0.560509 0.604769
vt 0.616994 0.604656
vt 0.617634 0.719155
vt 0.560409 0.719273
vt 0.831044 0.628817
vt 0.809366 0.685686
vt 0.800418 0.548830
vt 0.818222 0.527203
vt 0.737594 0.565420
vt 0.762003 0.595378
vt 0.762217 0.733288
vt 0.732252 0.690666
vt 0.555776 0.176731
vt 0.503741 0.176636
vt 0.504104 0.016531
vt 0.555971 0.016622
vt 0.912614 0.758046
vt 0.912528 0.615299
vt 0.937706 0.584300
vt 0.943563 0.713923
vt 0.852961 0.435435
vt 0.871804 0.453113
vt 0.560353 0.486408
vt 0.616691 0.486291
vt 0.800931 0.438603
vt 0.819092 0.421510
vt 0.736926 0.451675
vt 0.761766 0.475367
vt 0.555432 0.285997
vt 0.503645 0.285895
vt 0.912442 0.491136
vt 0.938047 0.466631
vt 0.855157 0.327357
vt 0.873247 0.340445
vt 0.560260 0.368789
vt 0.616307 0.368688
vt 0.799169 0.329642
vt 0.816630 0.316981
vt 0.737772 0.339277
vt 0.761570 0.356852
vt 0.555161 0.394868
vt 0.503498 0.394768
vt 0.912202 0.368574
vt 0.936746 0.350403
vt 0.855627 0.220505
vt 0.873523 0.229107
vt 0.560136 0.251876
vt 0.615968 0.251808
vt 0.798616 0.221925
vt 0.815916 0.213600
vt 0.737912 0.228201
vt 0.761417 0.239805
vt 0.554857 0.503403
vt 0.503377 0.503302
vt 0.911997 0.247583
vt 0.936247 0.235589
vt 0.887545 0.010280
vt 0.891874 0.123394
vt 0.891857 0.237914
vt 0.891799 0.353850
vt 0.891147 0.471228
vt 0.891649 0.590075
vt 0.887008 0.693279
vt 0.691149 0.148242
vt 0.625479 0.149232
vt 0.786810 0.670724
vt 0.782121 0.571002
vt 0.782290 0.456119
vt 0.781263 0.342609
vt 0.780892 0.230448
vt 0.780656 0.119612
vt 0.784839 0.010092
vt 0.948023 0.119121
vt 0.955433 0.010029
vt 0.948597 0.229476
vt 0.949222 0.341146
vt 0.951055 0.454153
vt 0.950495 0.568524
vt 0.959201 0.684290
vt 0.691440 0.354631
vt 0.625798 0.354688
vt 0.725186 0.550173
vt 0.717088 0.662039
vt 0.724298 0.439611
vt 0.725666 0.330323
vt 0.725944 0.222287
vt 0.726320 0.115481
vt 0.719111 0.009857
vt 0.966455 0.114532
vt 0.977742 0.009946
vt 0.967201 0.220260
vt 0.968012 0.327195
vt 0.970606 0.435356
vt 0.969764 0.544768
vt 0.982944 0.706813
vt 0.693755 0.395721
vt 0.625283 0.396384
vt 0.706495 0.527211
vt 0.694227 0.683796
vt 0.705325 0.421436
vt 0.707446 0.316829
vt 0.707919 0.213370
vt 0.708471 0.111040
vt 0.697514 0.009780
vn 0.000000 0.000000 1.000000
vn 0.000000 0.000000 1.000000
vn 0.000000 0.000000 1.000000
vn 0.000000 0.000000 1.000000
vn -0.040111 0.999195 0.000000
vn -0.074230 0.997241 0.000000
vn -0.074230 0.997241 0.000000
vn -0.040111 0.999195 0.000000
vn 0.000000 0.000000 -1.000000
vn 0.000000 0.000000 -1.000000
vn 0.000000 0.000000 -1.000000
vn 0.000000 0.000000 -1.000000
vn 0.269493 -0.963002 0.000000
vn 0.236430 -0.971649 0.000000
vn 0.236430 -0.971649 0.000000
vn 0.269493 -0.963002 0.000000
vn 0.987779 0.155859 0.000000
vn 0.987779 0.155859 0.000000
vn 0.987779 0.155859 0.000000
vn 0.987779 0.155859 0.000000
vn -0.987780 -0.155855 0.000000
vn -0.987780 -0.155855 0.000000
vn -0.987780 -0.155855 0.000000
vn -0.987780 -0.155855 0.000000
vn -0.236430 0.971648 0.000000
vn -0.269493 0.963002 0.000000
vn -0.269493 0.963002 0.000000
vn -0.236430 0.971648 0.000000
vn 0.000000 0.000000 -1.000000
vn 0.000000 0.000000 -1.000000
vn 0.000000 0.000000 -1.000000
vn 0.000000 0.000000 -1.000000
vn 0.074230 -0.997241 0.000000
vn 0.074230 -0.997241 0.000000
vn 0.040111 -0.999195 0.000000
vn 0.040111 -0.999195 0.000000
vn 0.000000 0.000000 1.000000
vn 0.000000 0.000000 1.000000
vn 0.000000 0.000000 1.000000
vn 0.000000 0.000000 1.000000
vn -0.194361 0.980930 0.000000
vn -0.194361 0.980930 0.000000
vn 0.000000 0.000000 -1.000000
vn 0.000000 0.000000 -1.000000
vn 0.117114 -0.993119 0.000000
vn 0.117114 -0.993119 0.000000
vn -0.000000 0.000000 1.000000
vn -0.000000 0.000000 1.000000
vn -0.155856 0.987780 0.000000
vn -0.155856 0.987780 0.000000
vn 0.000000 0.000000 -1.000000
vn 0.000000 0.000000 -1.000000
vn 0.155856 -0.987780 0.000000
vn 0.155856 -0.987780 0.000000
vn -0.000000 0.000000 1.000000
vn -0.000000 0.000000 1.000000
vn -0.117114 0.993119 0.000000
vn -0.117114 0.993119 0.000000
vn 0.000000 0.000000 -1.000000
vn 0.000000 0.000000 -1.000000
vn 0.194361 -0.980930 0.000000
vn 0.194361 -0.980930 0.000000
vn 0.000000 0.000000 1.000000
vn 0.000000 0.000000 1.000000
vn 0.000000 0.000000 1.000000
vn 0.000000 0.000000 1.000000
vn 0.000000 0.000000 1.000000
vn 0.000000 0.000000 1.000000
vn 0.025253 0.999681 0.000000
vn -0.008920 0.999960 0.000000
vn -0.008920 0.999960 0.000000
vn 0.025253 0.999681 0.000000
vn 0.000000 0.000000 -1.000000
vn 0.000000 0.000000 -1.000000
vn 0.000000 0.000000 -1.000000
vn 0.000000 0.000000 -1.000000
vn 0.206001 -0.978552 0.000000
vn 0.172445 -0.985019 0.000000
vn 0.172445 -0.985019 0.000000
vn 0.206001 -0.978552 0.000000
vn 0.995852 0.090988 0.000000
vn 0.995852 0.090988 0.000000
vn 0.995852 0.090988 0.000000
vn 0.995852 0.090988 0.000000
vn -0.995852 -0.090988 0.000000
vn -0.995852 -0.090988 0.000000
vn -0.995852 -0.090988 0.000000
vn -0.995852 -0.090988 0.000000
vn -0.172445 0.985019 0.000000
vn -0.206002 0.978552 0.000000
vn -0.206002 0.978552 0.000000
vn -0.172445 0.985019 0.000000
vn -0.000000 0.000000 -1.000000
vn -0.000000 0.000000 -1.000000
vn -0.000000 0.000000 -1.000000
vn -0.000000 0.000000 -1.000000
vn 0.008919 -0.999960 0.000000
vn 0.008919 -0.999960 0.000000
vn -0.025254 -0.999681 0.000000
vn -0.025254 -0.999681 0.000000
vn -0.000000 0.000000 1.000000
vn -0.000000 0.000000 1.000000
vn -0.000000 0.000000 1.000000
vn -0.000000 0.000000 1.000000
vn -0.129859 0.991533 0.000000
vn -0.129859 0.991533 0.000000
vn -0.000000 0.000000 -1.000000
vn -0.000000 0.000000 -1.000000
vn 0.051981 -0.998648 0.000000
vn 0.051981 -0.998648 0.000000
vn 0.000000 0.000000 1.000000
vn 0.000000 0.000000 1.000000
vn -0.090990 0.995852 0.000000
vn -0.090990 0.995852 0.000000
vn 0.000000 0.000000 -1.000000
vn 0.000000 0.000000 -1.000000
vn 0.090990 -0.995852 0.000000
vn 0.090990 -0.995852 0.000000
vn 0.000000 0.000000 1.000000
vn 0.000000 0.000000 1.000000
vn -0.051980 0.998648 0.000000
vn -0.051980 0.998648 0.000000
vn 0.000000 0.000000 -1.000000
vn 0.000000 0.000000 -1.000000
vn 0.129860 -0.991532 0.000000
vn 0.129860 -0.991532 0.000000
vn -0.000000 0.000000 1.000000
vn -0.000000 0.000000 1.000000
vn 0.000000 0.000000 1.000000
vn 0.000000 0.000000 1.000000
vn 0.000000 0.000000 1.000000
vn 0.000000 0.000000 1.000000
vn -0.932132 0.362120 0.000000
vn -0.684111 0.729378 0.000000
vn -0.684111 0.729378 0.000000
vn -0.932132 0.362120 0.000000
vn 0.000000 0.000000 -1.000000
vn -0.000000 0.000000 -1.000000
vn 0.000000 0.000000 -1.000000
vn 0.000000 0.000000 -1.000000
vn 0.993665 0.112381 0.000000
vn 0.993665 0.112381 0.000000
vn 0.998405 0.056459 0.000000
vn 0.998405 0.056459 0.000000
vn -0.993665 0.112381 0.000000
vn -0.993665 0.112381 0.000000
vn -0.998405 0.056458 0.000000
vn -0.998405 0.056458 0.000000
vn -0.341092 0.940030 0.000000
vn 0.843977 0.536379 0.000000
vn 0.843977 0.536379 0.000000
vn -0.341092 0.940030 0.000000
vn -0.000000 0.000000 -1.000000
vn -0.000000 0.000000 -1.000000
vn 0.000000 0.000000 -1.000000
vn 0.000000 0.000000 -1.000000
vn 0.000000 0.000000 1.000000
vn 0.000000 0.000000 1.000000
vn 0.000000 0.000000 1.000000
vn 0.000000 0.000000 1.000000
vn 0.000000 0.000000 1.000000
vn 0.000000 0.000000 1.000000
vn 0.000000 0.000000 1.000000
vn 0.000000 0.000000 1.000000
vn -0.998760 -0.049777 0.000000
vn -0.998760 -0.049777 0.000000
vn -0.993004 -0.118081 0.000000
vn -0.993004 -0.118081 0.000000
vn 0.000000 0.000000 -1.000000
vn 0.000000 0.000000 -1.000000
vn -0.000000 0.000000 -1.000000
vn 0.000000 0.000000 -1.000000
vn -0.000000 0.000000 -1.000000
vn -0.000000 0.000000 -1.000000
vn 0.000000 0.000000 -1.000000
vn 0.000000 0.000000 -1.000000
vn 0.999220 -0.039499 0.000000
vn 0.999220 -0.039499 0.000000
vn 0.997013 -0.077232 0.000000
vn 0.997013 -0.077232 0.000000
vn 0.000000 0.000000 1.000000
vn 0.000000 0.000000 1.000000
vn 0.000000 0.000000 1.000000
vn 0.000000 0.000000 1.000000
vn 0.000000 0.000000 1.000000
vn 0.000000 0.000000 1.000000
vn -1.000000 0.000000 0.000000
vn -1.000000 0.000000 0.000000
vn -0.000000 0.000000 -1.000000
vn -0.000000 0.000000 -1.000000
vn -0.000000 0.000000 -1.000000
vn -0.000000 0.000000 -1.000000
vn 1.000000 0.000000 0.000000
vn 1.000000 0.000000 0.000000
vn 0.000000 0.000000 1.000000
vn 0.000000 0.000000 1.000000
vn 0.000000 0.000000 1.000000
vn 0.000000 0.000000 1.000000
vn -0.999969 -0.007928 0.000000
vn -0.999969 -0.007928 0.000000
vn -0.000000 0.000000 -1.000000
vn -0.000000 0.000000 -1.000000
vn -0.000000 0.000000 -1.000000
vn -0.000000 0.000000 -1.000000
vn 0.999969 -0.007927 0.000000
vn 0.999969 -0.007927 0.000000
vn 0.000000 0.000000 1.000000
vn 0.000000 0.000000 1.000000
vn 0.000000 0.000000 1.000000
vn 0.000000 0.000000 1.000000
vn -1.000000 0.000000 0.000000
vn -1.000000 0.000000 0.000000
vn -0.000000 0.000000 -1.000000
vn -0.000000 0.000000 -1.000000
vn 0.000000 0.000000 -1.000000
vn -0.000000 0.000000 -1.000000
vn 1.000000 0.000000 0.000000
vn 1.000000 0.000000 0.000000
vn 0.000000 0.000000 1.000000
vn 0.000000 0.000000 1.000000
vn 0.000000 0.000000 1.000000
vn 0.000000 0.000000 1.000000
vn 0.000000 0.000000 1.000000
vn 0.000000 0.000000 1.000000
vn 0.000000 0.000000 1.000000
vn 0.000000 0.000000 1.000000
vn 0.000000 0.000000 1.000000
vn -0.706539 0.707674 0.000000
vn -0.706539 0.707674 0.000000
vn 0.000000 0.000000 -1.000000
vn -0.000000 0.000000 -1.000000
vn -0.000000 0.000000 -1.000000
vn -0.000000 0.000000 -1.000000
vn -0.000000 0.000000 -1.000000
vn -0.000000 0.000000 -1.000000
vn -0.000000 0.000000 -1.000000
vn 0.000000 0.000000 1.000000
vn 0.000000 0.000000 1.000000
vn 0.000000 0.000000 1.000000
vn 0.000000 0.000000 1.000000
vn 0.000000 0.000000 1.000000
vn 0.000000 0.000000 1.000000
vn 0.000000 0.000000 1.000000
vn 0.177405 0.984138 0.000000
vn 0.177405 0.984138 0.000000
vn 0.000000 0.000000 -1.000000
vn 0.000000 0.000000 -1.000000
vn 0.000000 0.000000 -1.000000
vn 0.000000 0.000000 -1.000000
vn 0.000000 0.000000 -1.000000
vn 0.000000 0.000000 -1.000000
vn 0.000000 0.000000 -1.000000
vn 0.000000 0.000000 1.000000
vn 0.000000 0.000000 1.000000
vn 0.000000 0.000000 1.000000
vn 0.000000 0.000000 1.000000
vn 0.000000 0.000000 1.000000
vn 0.000000 0.000000 1.000000
vn 0.000000 0.000000 1.000000
vn -0.686195 0.727418 0.000000
vn -0.686195 0.727418 0.000000
vn 0.000000 0.000000 -1.000000
vn 0.000000 0.000000 -1.000000
vn 0.000000 0.000000 -1.000000
vn 0.000000 0.000000 -1.000000
vn 0.000000 0.000000 -1.000000
vn 0.000000 0.000000 -1.000000
vn 0.000000 0.000000 -1.000000
s 1
g nj_wood_posts_single_03
usemtl nj_wood_posts_matSG
f 1/2/1 28/3/2 25/9/3 3/10/4
s 2
f 3/10/5 25/9/6 26/17/7 5/22/8
s 3
f 5/1/9 26/4/10 27/5/11 7/6/12
s 4
f 7/23/13 27/24/14 28/3/15 1/2/16
s off
f 2/7/17 8/8/18 6/11/19 4/12/20
f 7/6/21 1/13/22 3/14/23 5/1/24
s 2
f 9/25/25 4/28/26 6/29/27 10/30/28
s 3
f 11/15/29 10/16/30 6/11/31 8/8/32
s 4
f 12/33/33 11/34/34 8/35/35 2/38/36
s 1
f 9/25/37 12/33/38 2/38/39 4/28/40
s 2
f 13/39/41 9/25/25 10/30/28 14/40/42
s 3
f 15/18/43 14/19/44 10/16/30 11/15/29
s 4
f 16/41/45 15/42/46 11/34/34 12/33/33
s 1
f 13/39/47 16/41/48 12/33/38 9/25/37
s 2
f 17/43/49 13/39/41 14/40/42 18/44/50
s 3
f 19/20/51 18/21/52 14/19/44 15/18/43
s 4
f 20/45/53 19/46/54 15/42/46 16/41/45
s 1
f 17/43/55 20/45/56 16/41/48 13/39/47
s 2
f 21/37/57 17/43/49 18/44/50 22/36/58
s 3
f 23/26/59 22/27/60 18/21/52 19/20/51
s 4
f 24/32/61 23/31/62 19/46/54 20/45/53
s 1
f 21/37/63 24/32/64 20/45/56 17/43/55
s 2
f 25/9/6 21/37/57 22/36/58 26/17/7
s 3
f 27/5/11 26/4/10 22/27/60 23/26/59
s 4
f 28/3/15 27/24/14 23/31/62 24/32/61
s 1
f 25/9/3 28/3/2 24/32/64 21/37/63
s 9
f 29/47/65 56/48/66 53/49/67 31/50/68
s 10
f 31/50/69 53/49/70 54/51/71 33/52/72
s 11
f 33/53/73 54/54/74 55/55/75 35/56/76
s 12
f 35/57/77 55/58/78 56/48/79 29/47/80
s off
f 30/59/81 36/60/82 34/61/83 32/62/84
f 35/56/85 29/63/86 31/64/87 33/53/88
s 10
f 37/65/89 32/66/90 34/67/91 38/68/92
s 11
f 39/69/93 38/70/94 34/61/95 36/60/96
s 12
f 40/71/97 39/72/98 36/73/99 30/74/100
s 9
f 37/65/101 40/71/102 30/74/103 32/66/104
s 10
f 41/75/105 37/65/89 38/68/92 42/76/106
s 11
f 43/77/107 42/78/108 38/70/94 39/69/93
s 12
f 44/79/109 43/80/110 39/72/98 40/71/97
s 9
f 41/75/111 44/79/112 40/71/102 37/65/101
s 10
f 45/81/113 41/75/105 42/76/106 46/82/114
s 11
f 47/83/115 46/84/116 42/78/108 43/77/107
s 12
f 48/85/117 47/86/118 43/80/110 44/79/109
s 9
f 45/81/119 48/85/120 44/79/112 41/75/111
s 10
f 49/87/121 45/81/113 46/82/114 50/88/122
s 11
f 51/89/123 50/90/124 46/84/116 47/83/115
s 12
f 52/91/125 51/92/126 47/86/118 48/85/117
s 9
f 49/87/127 52/91/128 48/85/120 45/81/119
s 10
f 53/49/70 49/87/121 50/88/122 54/51/71
s 11
f 55/55/75 54/54/74 50/90/124 51/89/123
s 12
f 56/48/79 55/58/78 51/92/126 52/91/125
s 9
f 53/49/67 56/48/66 52/91/128 49/87/127
s 17
f 57/93/129 99/94/130 100/95/131 94/96/132
s 18
f 59/97/133 105/98/134 106/99/135 61/100/136
s 19
f 95/101/137 111/102/138 112/103/139 63/104/140
s 20
f 58/105/141 64/106/142 97/107/143 98/108/144
s 21
f 63/109/145 57/110/146 94/111/147 95/112/148
s 18
f 65/113/149 133/114/150 134/115/151 66/116/152
s 19
f 67/117/153 96/118/154 139/119/155 140/120/156
s 17
f 128/121/157 93/122/158 68/123/159 127/124/160
f 70/125/161 104/126/162 105/127/163 59/128/164
s 21
f 71/129/165 70/130/166 59/131/167 61/132/168
s 19
f 61/133/169 106/134/170 107/135/171 71/136/172
f 135/137/173 72/138/174 66/139/175 134/140/176
s 20
f 74/141/177 73/142/178 62/143/179 60/144/180
s 17
f 65/145/181 69/146/182 132/147/183 133/148/184
f 76/149/185 103/150/186 104/126/162 70/125/161
s 21
f 77/151/187 76/152/188 70/130/166 71/129/165
s 19
f 71/136/172 107/135/171 108/153/189 77/154/190
f 136/155/191 78/156/192 72/138/174 135/137/173
s 20
f 80/157/193 79/158/194 73/142/178 74/141/177
s 17
f 132/147/183 69/146/182 75/159/195 131/160/196
f 82/161/197 102/162/198 103/150/186 76/149/185
s 21
f 83/163/199 82/164/200 76/152/188 77/151/187
s 19
f 77/154/190 108/153/189 109/165/201 83/166/202
f 137/167/203 84/168/204 78/156/192 136/155/191
s 20
f 86/169/205 85/170/206 79/158/194 80/157/193
s 17
f 131/160/196 75/159/195 81/171/207 130/172/208
f 88/173/209 101/174/210 102/162/198 82/161/197
s 21
f 89/175/211 88/176/212 82/164/200 83/163/199
s 19
f 83/166/202 109/165/201 110/177/213 89/178/214
f 138/179/215 90/180/216 84/168/204 137/167/203
s 20
f 92/181/217 91/182/218 85/170/206 86/169/205
s 17
f 130/172/208 81/171/207 87/183/219 129/184/220
f 94/96/132 100/95/131 101/174/210 88/173/209
s 21
f 95/112/148 94/111/147 88/176/212 89/175/211
s 19
f 89/178/214 110/177/213 111/102/138 95/101/137
f 139/119/155 96/118/154 90/180/216 138/179/215
s 20
f 98/108/144 97/107/143 91/182/218 92/181/217
s 17
f 129/184/220 87/183/219 93/122/158 128/121/157
f 99/94/130 113/185/221 114/186/222 100/95/131
f 101/174/210 100/95/131 114/186/222 115/187/223
f 102/162/198 101/174/210 115/187/223 116/188/224
f 103/150/186 102/162/198 116/188/224 117/189/225
f 104/126/162 103/150/186 117/189/225 118/190/226
f 105/127/163 104/126/162 118/190/226 119/191/227
s 18
f 106/99/135 105/98/134 119/192/228 120/193/229
s 19
f 107/135/171 106/134/170 120/194/230 121/195/231
f 108/153/189 107/135/171 121/195/231 122/196/232
f 109/165/201 108/153/189 122/196/232 123/197/233
f 110/177/213 109/165/201 123/197/233 124/198/234
f 111/102/138 110/177/213 124/198/234 125/199/235
f 112/103/139 111/102/138 125/199/235 126/200/236
s 17
f 113/185/221 68/123/159 93/122/158 114/186/222
f 115/187/223 114/186/222 93/122/158 87/183/219
f 116/188/224 115/187/223 87/183/219 81/171/207
f 117/189/225 116/188/224 81/171/207 75/159/195
f 118/190/226 117/189/225 75/159/195 69/146/182
f 119/191/227 118/190/226 69/146/182 65/145/181
s 18
f 120/193/229 119/192/228 65/113/149 66/116/152
s 19
f 121/195/231 120/194/230 66/139/175 72/138/174
f 122/196/232 121/195/231 72/138/174 78/156/192
f 123/197/233 122/196/232 78/156/192 84/168/204
f 124/198/234 123/197/233 84/168/204 90/180/216
f 125/199/235 124/198/234 90/180/216 96/118/154
f 126/200/236 125/199/235 96/118/154 67/117/153
s 17
f 142/201/237 128/121/157 127/124/160 141/202/238
f 143/203/239 129/184/220 128/121/157 142/201/237
f 144/204/240 130/172/208 129/184/220 143/203/239
f 145/205/241 131/160/196 130/172/208 144/204/240
f 146/206/242 132/147/183 131/160/196 145/205/241
f 133/148/184 132/147/183 146/206/242 147/207/243
s 18
f 134/115/151 133/114/150 147/208/244 148/209/245
s 19
f 149/210/246 135/137/173 134/140/176 148/211/247
f 150/212/248 136/155/191 135/137/173 149/210/246
f 151/213/249 137/167/203 136/155/191 150/212/248
f 152/214/250 138/179/215 137/167/203 151/213/249
f 153/215/251 139/119/155 138/179/215 152/214/250
f 140/120/156 139/119/155 153/215/251 154/216/252
s 17
f 98/217/253 142/201/237 141/202/238 58/218/254
f 92/219/255 143/203/239 142/201/237 98/217/253
f 86/220/256 144/204/240 143/203/239 92/219/255
f 80/221/257 145/205/241 144/204/240 86/220/256
f 74/222/258 146/206/242 145/205/241 80/221/257
f 147/207/243 146/206/242 74/222/258 60/223/259
s 18
f 148/209/245 147/208/244 60/224/260 62/225/261
s 19
f 73/226/262 149/210/246 148/211/247 62/227/263
f 79/228/264 150/212/248 149/210/246 73/226/262
f 85/229/265 151/213/249 150/212/248 79/228/264
f 91/230/266 152/214/250 151/213/249 85/229/265
f 97/231/267 153/215/251 152/214/250 91/230/266
f 154/216/252 153/215/251 97/231/267 64/232/268
