# This file uses centimeters as units for non-parametric coordinates.

mtllib nj_wooden_posts_ends_02.mtl
g default
v 0.000000 0.000005 0.000020
v 7.047732 0.000006 0.000020
v 0.000000 32.859730 0.000020
v 7.047732 35.669785 0.000020
v 0.000000 32.859730 -2.623653
v 7.047732 35.669785 -2.623653
v 0.000000 0.000005 -2.623653
v 7.047732 0.000006 -2.623653
v 3.558339 38.195816 0.000020
v 3.558339 38.195816 -2.623653
v 3.558339 0.000006 -2.623653
v 3.558339 0.000006 0.000020
v 3.552223 31.135778 0.000020
v 0.624484 27.608131 0.000020
v 0.624484 27.608131 -2.623653
v 3.552223 31.135778 -2.623653
v 6.423248 27.608131 -2.623653
v 6.423248 27.608131 0.000020
v 3.553090 24.908627 0.000020
v 0.536933 22.086504 0.000020
v 0.536933 22.086504 -2.623653
v 3.552223 24.908627 -2.623653
v 6.510799 22.086504 -2.623653
v 6.510799 22.086504 0.000020
v 3.552223 18.681473 0.000020
v 0.624484 16.564877 0.000020
v 0.624484 16.564877 -2.623653
v 3.552223 18.681473 -2.623653
v 6.423248 16.564877 -2.623653
v 6.423248 16.564877 0.000020
v 3.552223 12.454315 0.000020
v 0.624484 11.043257 0.000020
v 0.624484 11.043257 -2.623653
v 3.552223 12.454315 -2.623653
v 6.423248 11.043257 -2.623653
v 6.423248 11.043257 0.000020
v 3.552223 6.227160 0.000020
v 0.624484 5.521631 0.000020
v 0.624484 5.521631 -2.623653
v 3.552223 6.227160 -2.623653
v 6.423248 5.521631 -2.623653
v 6.423248 5.521631 0.000020
v 1.131864 0.000006 0.000020
v 1.555759 5.746048 0.000020
v 1.555759 11.492094 0.000020
v 1.555759 17.238140 0.000020
v 1.496330 22.984179 0.000020
v 1.555759 28.730223 0.000020
v 1.131864 35.773224 0.000020
v 1.131864 35.773224 -2.623653
v 1.555759 28.730223 -2.623653
v 1.496068 22.984179 -2.623653
v 1.555759 17.238140 -2.623653
v 1.555759 11.492094 -2.623653
v 1.555759 5.746048 -2.623653
v 1.131864 0.000006 -2.623653
v 2.289268 0.000006 0.000020
v 2.508058 5.975533 0.000020
v 2.508058 11.951065 0.000020
v 2.508058 17.926600 0.000020
v 2.477389 23.902124 0.000020
v 2.508058 29.877659 0.000020
v 2.289268 35.006912 0.000020
v 2.289268 35.006912 -2.623653
v 2.508058 29.877659 -2.623653
v 2.476831 23.902124 -2.623653
v 2.508058 17.926600 -2.623653
v 2.508058 11.951065 -2.623653
v 2.508058 5.975533 -2.623653
v 2.289268 0.000006 -2.623653
v 5.089128 0.000006 0.000020
v 4.811736 5.917644 0.000020
v 4.811736 11.835287 0.000020
v 4.811736 17.752928 0.000020
v 4.850626 23.670567 0.000020
v 4.811736 29.588211 0.000020
v 5.089128 36.022850 0.000020
v 5.089128 36.022850 -2.623653
v 4.811736 29.588211 -2.623653
v 4.850148 23.670567 -2.623653
v 4.811736 17.752928 -2.623653
v 4.811736 11.835287 -2.623653
v 4.811736 5.917644 -2.623653
v 5.089128 0.000006 -2.623653
v 5.869874 0.000006 0.000020
v 5.454125 5.759783 0.000020
v 5.454125 11.519565 0.000020
v 5.454125 17.279346 0.000020
v 5.512412 23.039125 0.000020
v 5.454125 28.798901 0.000020
v 5.869874 34.558681 0.000020
v 5.869874 34.558681 -2.623653
v 5.454125 28.798901 -2.623653
v 5.512123 23.039125 -2.623653
v 5.454125 17.279346 -2.623653
v 5.454125 11.519565 -2.623653
v 5.454125 5.759783 -2.623653
v 5.869874 0.000006 -2.623653
vt 0.554018 0.719562
vt 0.503325 0.719452
vt 0.503258 0.611449
vt 0.554555 0.611554
vt 0.687193 0.036811
vt 0.692117 0.113143
vt 0.844205 0.010440
vt 0.865619 0.010361
vt 0.559671 0.016904
vt 0.615580 0.016752
vt 0.615631 0.134643
vt 0.560014 0.134770
vt 0.625065 0.114110
vt 0.626385 0.038127
vt 0.873730 0.119077
vt 0.856012 0.114858
vt 0.815355 0.111346
vt 0.560509 0.604769
vt 0.616994 0.604656
vt 0.798210 0.115431
vt 0.806072 0.010168
vt 0.826813 0.010242
vt 0.617634 0.719155
vt 0.560409 0.719273
vt 0.761541 0.010009
vt 0.555776 0.176731
vt 0.503741 0.176636
vt 0.761390 0.124200
vt 0.738159 0.118426
vt 0.733437 0.009909
vt 0.504104 0.016531
vt 0.555971 0.016622
vt 0.935790 0.122164
vt 0.560353 0.486408
vt 0.616691 0.486291
vt 0.911792 0.128131
vt 0.911608 0.010191
vt 0.940635 0.010083
vt 0.555432 0.285997
vt 0.503645 0.285895
vt 0.854191 0.544758
vt 0.560260 0.368789
vt 0.616307 0.368688
vt 0.872662 0.567134
vt 0.863693 0.708765
vt 0.841139 0.649903
vt 0.555161 0.394868
vt 0.503498 0.394768
vt 0.831044 0.628817
vt 0.560136 0.251876
vt 0.615968 0.251808
vt 0.809366 0.685686
vt 0.800418 0.548830
vt 0.818222 0.527203
vt 0.554857 0.503403
vt 0.503377 0.503302
vt 0.737594 0.565420
vt 0.762003 0.595378
vt 0.762217 0.733288
vt 0.732252 0.690666
vt 0.912614 0.758046
vt 0.912528 0.615299
vt 0.697579 0.239780
vt 0.693788 0.312470
vt 0.937706 0.584300
vt 0.943563 0.713923
vt 0.852961 0.435435
vt 0.871804 0.453113
vt 0.800931 0.438603
vt 0.819092 0.421510
vt 0.736926 0.451675
vt 0.761766 0.475367
vt 0.912442 0.491136
vt 0.938047 0.466631
vt 0.855157 0.327357
vt 0.873247 0.340445
vt 0.625045 0.311855
vt 0.623778 0.240157
vt 0.799169 0.329642
vt 0.816630 0.316981
vt 0.737772 0.339277
vt 0.761570 0.356852
vt 0.912202 0.368574
vt 0.936746 0.350403
vt 0.855627 0.220505
vt 0.873523 0.229107
vt 0.798616 0.221925
vt 0.815916 0.213600
vt 0.737912 0.228201
vt 0.761417 0.239805
vt 0.691149 0.148242
vt 0.625479 0.149232
vt 0.911997 0.247583
vt 0.936247 0.235589
vt 0.887545 0.010280
vt 0.891874 0.123394
vt 0.891857 0.237914
vt 0.891799 0.353850
vt 0.891147 0.471228
vt 0.891649 0.590075
vt 0.887008 0.693279
vt 0.786810 0.670724
vt 0.782121 0.571002
vt 0.782290 0.456119
vt 0.691440 0.354631
vt 0.625798 0.354688
vt 0.781263 0.342609
vt 0.780892 0.230448
vt 0.780656 0.119612
vt 0.784839 0.010092
vt 0.948023 0.119121
vt 0.955433 0.010029
vt 0.948597 0.229476
vt 0.949222 0.341146
vt 0.951055 0.454153
vt 0.950495 0.568524
vt 0.959201 0.684290
vt 0.725186 0.550173
vt 0.717088 0.662039
vt 0.724298 0.439611
vt 0.725666 0.330323
vt 0.725944 0.222287
vt 0.726320 0.115481
vt 0.719111 0.009857
vt 0.966455 0.114532
vt 0.977742 0.009946
vt 0.967201 0.220260
vt 0.968012 0.327195
vt 0.970606 0.435356
vt 0.969764 0.544768
vt 0.982944 0.706813
vt 0.706495 0.527211
vt 0.694227 0.683796
vt 0.705325 0.421436
vt 0.707446 0.316829
vt 0.707919 0.213370
vt 0.708471 0.111040
vt 0.697514 0.009780
vt 0.693755 0.395721
vt 0.625283 0.396384
vn 0.000000 0.000000 1.000000
vn -0.000000 0.000000 1.000000
vn -0.000000 0.000000 1.000000
vn 0.000000 0.000000 1.000000
vn -0.932130 0.362123 0.000000
vn -0.684110 0.729379 0.000000
vn -0.684110 0.729379 0.000000
vn -0.932130 0.362123 0.000000
vn 0.000000 0.000000 -1.000000
vn 0.000000 0.000000 -1.000000
vn 0.000000 0.000000 -1.000000
vn 0.000000 0.000000 -1.000000
vn 0.993665 0.112381 0.000000
vn 0.993665 0.112381 0.000000
vn 0.998405 0.056459 0.000000
vn 0.998405 0.056459 0.000000
vn -0.993665 0.112381 0.000000
vn -0.993665 0.112381 0.000000
vn -0.998405 0.056459 0.000000
vn -0.998405 0.056459 0.000000
vn -0.341093 0.940030 0.000000
vn 0.843977 0.536379 0.000000
vn 0.843977 0.536379 0.000000
vn -0.341093 0.940030 0.000000
vn 0.000000 0.000000 -1.000000
vn -0.000000 0.000000 -1.000000
vn -0.000000 0.000000 -1.000000
vn 0.000000 0.000000 -1.000000
vn -0.000000 0.000000 1.000000
vn 0.000000 0.000000 1.000000
vn 0.000000 0.000000 1.000000
vn -0.000000 0.000000 1.000000
vn 0.000000 0.000000 1.000000
vn 0.000000 0.000000 1.000000
vn 0.000000 0.000000 1.000000
vn 0.000000 0.000000 1.000000
vn -0.998760 -0.049778 0.000000
vn -0.998760 -0.049778 0.000000
vn -0.993004 -0.118081 0.000000
vn -0.993004 -0.118081 0.000000
vn -0.000000 0.000000 -1.000000
vn 0.000000 0.000000 -1.000000
vn -0.000000 0.000000 -1.000000
vn -0.000000 0.000000 -1.000000
vn -0.000000 0.000000 -1.000000
vn -0.000000 0.000000 -1.000000
vn -0.000000 0.000000 -1.000000
vn 0.000000 0.000000 -1.000000
vn 0.999220 -0.039498 0.000000
vn 0.999220 -0.039498 0.000000
vn 0.997013 -0.077232 0.000000
vn 0.997013 -0.077232 0.000000
vn 0.000000 0.000000 1.000000
vn 0.000000 0.000000 1.000000
vn -0.000000 0.000000 1.000000
vn 0.000000 0.000000 1.000000
vn 0.000000 0.000000 1.000000
vn 0.000000 0.000000 1.000000
vn -1.000000 0.000000 0.000000
vn -1.000000 0.000000 0.000000
vn -0.000000 0.000000 -1.000000
vn 0.000000 0.000000 -1.000000
vn -0.000000 0.000000 -1.000000
vn 0.000000 0.000000 -1.000000
vn 1.000000 0.000000 0.000000
vn 1.000000 0.000000 0.000000
vn -0.000000 0.000000 1.000000
vn 0.000000 0.000000 1.000000
vn -0.000000 0.000000 1.000000
vn 0.000000 0.000000 1.000000
vn -0.999969 -0.007928 0.000000
vn -0.999969 -0.007928 0.000000
vn -0.000000 0.000000 -1.000000
vn 0.000000 0.000000 -1.000000
vn 0.000000 0.000000 -1.000000
vn 0.000000 0.000000 -1.000000
vn 0.999969 -0.007928 0.000000
vn 0.999969 -0.007928 0.000000
vn -0.000000 0.000000 1.000000
vn 0.000000 0.000000 1.000000
vn -0.000000 0.000000 1.000000
vn -0.000000 0.000000 1.000000
vn -1.000000 0.000000 0.000000
vn -1.000000 0.000000 0.000000
vn 0.000000 0.000000 -1.000000
vn 0.000000 0.000000 -1.000000
vn -0.000000 0.000000 -1.000000
vn 0.000000 0.000000 -1.000000
vn 1.000000 0.000000 0.000000
vn 1.000000 0.000000 0.000000
vn -0.000000 0.000000 1.000000
vn 0.000000 0.000000 1.000000
vn -0.000000 0.000000 1.000000
vn 0.000000 0.000000 1.000000
vn 0.000000 0.000000 1.000000
vn -0.000000 0.000000 1.000000
vn 0.000000 0.000000 1.000000
vn 0.000000 0.000000 1.000000
vn 0.000000 0.000000 1.000000
vn -0.706540 0.707673 0.000000
vn -0.706540 0.707673 0.000000
vn 0.000000 0.000000 -1.000000
vn 0.000000 0.000000 -1.000000
vn 0.000000 0.000000 -1.000000
vn 0.000000 0.000000 -1.000000
vn -0.000000 0.000000 -1.000000
vn 0.000000 0.000000 -1.000000
vn 0.000000 0.000000 -1.000000
vn -0.000000 0.000000 1.000000
vn 0.000000 0.000000 1.000000
vn 0.000000 0.000000 1.000000
vn 0.000000 0.000000 1.000000
vn 0.000000 0.000000 1.000000
vn 0.000000 0.000000 1.000000
vn -0.000000 0.000000 1.000000
vn 0.177405 0.984138 0.000000
vn 0.177405 0.984138 0.000000
vn -0.000000 0.000000 -1.000000
vn -0.000000 0.000000 -1.000000
vn 0.000000 0.000000 -1.000000
vn 0.000000 0.000000 -1.000000
vn 0.000000 0.000000 -1.000000
vn 0.000000 0.000000 -1.000000
vn 0.000000 0.000000 -1.000000
vn 0.000000 0.000000 1.000000
vn 0.000000 0.000000 1.000000
vn 0.000000 0.000000 1.000000
vn 0.000000 0.000000 1.000000
vn 0.000000 0.000000 1.000000
vn 0.000000 0.000000 1.000000
vn 0.000000 0.000000 1.000000
vn -0.686193 0.727419 0.000000
vn -0.686193 0.727419 0.000000
vn 0.000000 0.000000 -1.000000
vn -0.000000 0.000000 -1.000000
vn 0.000000 0.000000 -1.000000
vn 0.000000 0.000000 -1.000000
vn 0.000000 0.000000 -1.000000
vn 0.000000 0.000000 -1.000000
vn 0.000000 0.000000 -1.000000
s 1
g nj_wooden_post_ends_02
usemtl nj_wood_posts_matSG
f 1/7/1 43/8/2 44/15/3 38/16/4
s 2
f 3/5/5 49/6/6 50/13/7 5/14/8
s 3
f 39/17/9 55/20/10 56/21/11 7/22/12
s 4
f 2/1/13 8/2/14 41/3/15 42/4/16
s 5
f 7/9/17 1/10/18 38/11/19 39/12/20
s 2
f 9/63/21 77/64/22 78/77/23 10/78/24
s 3
f 11/25/25 40/28/26 83/29/27 84/30/28
s 1
f 72/33/29 37/36/30 12/37/31 71/38/32
f 14/41/33 48/44/34 49/45/35 3/46/36
s 5
f 15/18/37 14/19/38 3/23/39 5/24/40
s 3
f 5/49/41 50/52/42 51/53/43 15/54/44
f 79/57/45 16/58/46 10/59/47 78/60/48
s 4
f 18/26/49 17/27/50 6/31/51 4/32/52
s 1
f 9/61/53 13/62/54 76/65/55 77/66/56
f 20/67/57 47/68/58 48/44/34 14/41/33
s 5
f 21/34/59 20/35/60 14/19/38 15/18/37
s 3
f 15/54/44 51/53/43 52/69/61 21/70/62
f 80/71/63 22/72/64 16/58/46 79/57/45
s 4
f 24/39/65 23/40/66 17/27/50 18/26/49
s 1
f 76/65/55 13/62/54 19/73/67 75/74/68
f 26/75/69 46/76/70 47/68/58 20/67/57
s 5
f 27/42/71 26/43/72 20/35/60 21/34/59
s 3
f 21/70/62 52/69/61 53/79/73 27/80/74
f 81/81/75 28/82/76 22/72/64 80/71/63
s 4
f 30/47/77 29/48/78 23/40/66 24/39/65
s 1
f 75/74/68 19/73/67 25/83/79 74/84/80
f 32/85/81 45/86/82 46/76/70 26/75/69
s 5
f 33/50/83 32/51/84 26/43/72 27/42/71
s 3
f 27/80/74 53/79/73 54/87/85 33/88/86
f 82/89/87 34/90/88 28/82/76 81/81/75
s 4
f 36/55/89 35/56/90 29/48/78 30/47/77
s 1
f 74/84/80 25/83/79 31/93/91 73/94/92
f 38/16/4 44/15/3 45/86/82 32/85/81
s 5
f 39/12/20 38/11/19 32/51/84 33/50/83
s 3
f 33/88/86 54/87/85 55/20/10 39/17/9
f 83/29/27 40/28/26 34/90/88 82/89/87
s 4
f 42/4/16 41/3/15 35/56/90 36/55/89
s 1
f 73/94/92 31/93/91 37/36/30 72/33/29
f 43/8/2 57/95/93 58/96/94 44/15/3
f 45/86/82 44/15/3 58/96/94 59/97/95
f 46/76/70 45/86/82 59/97/95 60/98/96
f 47/68/58 46/76/70 60/98/96 61/99/97
f 48/44/34 47/68/58 61/99/97 62/100/98
f 49/45/35 48/44/34 62/100/98 63/101/99
s 2
f 50/13/7 49/6/6 63/91/100 64/92/101
s 3
f 51/53/43 50/52/42 64/102/102 65/103/103
f 52/69/61 51/53/43 65/103/103 66/104/104
f 53/79/73 52/69/61 66/104/104 67/107/105
f 54/87/85 53/79/73 67/107/105 68/108/106
f 55/20/10 54/87/85 68/108/106 69/109/107
f 56/21/11 55/20/10 69/109/107 70/110/108
s 1
f 57/95/93 12/37/31 37/36/30 58/96/94
f 59/97/95 58/96/94 37/36/30 31/93/91
f 60/98/96 59/97/95 31/93/91 25/83/79
f 61/99/97 60/98/96 25/83/79 19/73/67
f 62/100/98 61/99/97 19/73/67 13/62/54
f 63/101/99 62/100/98 13/62/54 9/61/53
s 2
f 64/92/101 63/91/100 9/63/21 10/78/24
s 3
f 65/103/103 64/102/102 10/59/47 16/58/46
f 66/104/104 65/103/103 16/58/46 22/72/64
f 67/107/105 66/104/104 22/72/64 28/82/76
f 68/108/106 67/107/105 28/82/76 34/90/88
f 69/109/107 68/108/106 34/90/88 40/28/26
f 70/110/108 69/109/107 40/28/26 11/25/25
s 1
f 86/111/109 72/33/29 71/38/32 85/112/110
f 87/113/111 73/94/92 72/33/29 86/111/109
f 88/114/112 74/84/80 73/94/92 87/113/111
f 89/115/113 75/74/68 74/84/80 88/114/112
f 90/116/114 76/65/55 75/74/68 89/115/113
f 77/66/56 76/65/55 90/116/114 91/117/115
s 2
f 78/77/23 77/64/22 91/105/116 92/106/117
s 3
f 93/118/118 79/57/45 78/60/48 92/119/119
f 94/120/120 80/71/63 79/57/45 93/118/118
f 95/121/121 81/81/75 80/71/63 94/120/120
f 96/122/122 82/89/87 81/81/75 95/121/121
f 97/123/123 83/29/27 82/89/87 96/122/122
f 84/30/28 83/29/27 97/123/123 98/124/124
s 1
f 42/125/125 86/111/109 85/112/110 2/126/126
f 36/127/127 87/113/111 86/111/109 42/125/125
f 30/128/128 88/114/112 87/113/111 36/127/127
f 24/129/129 89/115/113 88/114/112 30/128/128
f 18/130/130 90/116/114 89/115/113 24/129/129
f 91/117/115 90/116/114 18/130/130 4/131/131
s 2
f 92/106/117 91/105/116 4/139/132 6/140/133
s 3
f 17/132/134 93/118/118 92/119/119 6/133/135
f 23/134/136 94/120/120 93/118/118 17/132/134
f 29/135/137 95/121/121 94/120/120 23/134/136
f 35/136/138 96/122/122 95/121/121 29/135/137
f 41/137/139 97/123/123 96/122/122 35/136/138
f 98/124/124 97/123/123 41/137/139 8/138/140
