# This file uses centimeters as units for non-parametric coordinates.

mtllib Alphabet_Block_Issa_1.mtl
g default
v 0.000000 -0.000000 16.000000
v 16.000000 -0.000001 16.000000
v 0.000000 15.999998 15.999992
v 16.000000 15.999998 16.000000
v 1.796425 1.796416 16.000000
v 14.203575 1.796416 16.000000
v 14.203575 14.203581 16.000000
v 1.796425 14.203581 16.000000
v 2.143738 2.143732 14.976715
v 13.856262 2.143732 14.976715
v 13.856262 13.856264 14.976715
v 2.143738 13.856264 14.976715
v 0.000000 15.999998 0.000000
v 16.000000 15.999998 0.000000
v 1.796425 15.999998 14.203583
v 14.203575 15.999998 14.203583
v 14.203575 15.999998 1.796417
v 1.796425 15.999998 1.796417
v 2.143738 14.976711 13.856266
v 13.856262 14.976711 13.856266
v 13.856262 14.976711 2.143734
v 2.143738 14.976711 2.143734
v 16.000000 -0.000001 0.000000
v 16.000000 1.796416 14.203579
v 16.000000 1.796416 1.796421
v 16.000000 14.203581 1.796421
v 16.000000 14.203581 14.203579
v 14.976715 2.143732 13.856262
v 14.976715 2.143732 2.143738
v 14.976715 13.856264 2.143738
v 14.976715 13.856264 13.856262
v 0.000000 0.000000 0.000000
v 14.203575 1.796417 0.000000
v 1.796425 1.796417 0.000000
v 1.796425 14.203581 0.000000
v 14.203575 14.203581 0.000000
v 13.856262 2.143733 1.023285
v 2.143738 2.143733 1.023285
v 2.143738 13.856265 1.023285
v 13.856262 13.856265 1.023285
v 0.000000 1.796418 1.796421
v 0.000000 1.796418 14.203579
v 0.000000 14.203583 14.203579
v 0.000000 14.203583 1.796421
v 1.023285 2.143734 2.143738
v 1.023285 2.143734 13.856262
v 1.023285 13.856266 13.856262
v 1.023285 13.856266 2.143738
v 1.796425 0.000000 1.796417
v 14.203575 0.000000 1.796417
v 14.203575 0.000000 14.203583
v 1.796425 0.000000 14.203583
v 2.143738 1.023286 2.143734
v 13.856262 1.023286 2.143734
v 13.856262 1.023286 13.856266
v 2.143738 1.023286 13.856266
vt 0.375000 0.000000
vt 0.625000 0.000000
vt 0.375000 0.250000
vt 0.625000 0.250000
vt 0.375000 0.000000
vt 0.625000 0.000000
vt 0.625000 0.250000
vt 0.375000 0.250000
vt 0.375000 0.000000
vt 0.625000 0.000000
vt 0.625000 0.250000
vt 0.375000 0.250000
vt 0.375000 0.000000
vt 0.625000 0.000000
vt 0.625000 0.250000
vt 0.375000 0.250000
vt 0.375000 0.000000
vt 0.625000 0.000000
vt 0.625000 0.000000
vt 0.375000 0.000000
vt 0.625000 0.250000
vt 0.625000 0.250000
vt 0.375000 0.250000
vt 0.375000 0.250000
vt 0.375000 0.000000
vt 0.625000 0.000000
vt 0.625000 0.250000
vt 0.375000 0.250000
vt 0.375000 0.000000
vt 0.625000 0.000000
vt 0.625000 0.000000
vt 0.375000 0.000000
vt 0.625000 0.250000
vt 0.625000 0.250000
vt 0.375000 0.250000
vt 0.375000 0.250000
vt 0.375000 0.000000
vt 0.625000 0.000000
vt 0.625000 0.250000
vt 0.375000 0.250000
vt 0.375000 0.000000
vt 0.625000 0.000000
vt 0.625000 0.000000
vt 0.375000 0.000000
vt 0.625000 0.250000
vt 0.625000 0.250000
vt 0.375000 0.250000
vt 0.375000 0.250000
vt 0.375000 0.000000
vt 0.625000 0.000000
vt 0.625000 0.250000
vt 0.375000 0.250000
vt 0.375000 0.000000
vt 0.625000 0.000000
vt 0.625000 0.000000
vt 0.375000 0.000000
vt 0.625000 0.250000
vt 0.625000 0.250000
vt 0.375000 0.250000
vt 0.375000 0.250000
vt 0.375000 0.000000
vt 0.625000 0.000000
vt 0.625000 0.250000
vt 0.375000 0.250000
vt 0.375000 0.000000
vt 0.625000 0.000000
vt 0.625000 0.000000
vt 0.375000 0.000000
vt 0.625000 0.250000
vt 0.625000 0.250000
vt 0.375000 0.250000
vt 0.375000 0.250000
vn 0.000000 0.000000 1.000000
vn 0.000000 0.000000 1.000000
vn 0.000000 0.000000 1.000000
vn 0.000000 0.000000 1.000000
vn 0.000000 0.000000 1.000000
vn 0.000000 0.000000 1.000000
vn 0.000000 0.000000 1.000000
vn 0.000000 0.000000 1.000000
vn 0.000000 0.000000 1.000000
vn 0.000000 0.000000 1.000000
vn 0.000000 0.000000 1.000000
vn 0.000000 0.000000 1.000000
vn -0.000000 0.000002 1.000000
vn -0.000000 0.000002 1.000000
vn -0.000000 0.000002 1.000000
vn -0.000000 0.000002 1.000000
vn -0.000003 0.000000 1.000000
vn -0.000003 0.000000 1.000000
vn -0.000003 0.000000 1.000000
vn -0.000003 0.000000 1.000000
vn 0.000000 0.946942 0.321405
vn 0.000000 0.946942 0.321405
vn 0.000000 0.946942 0.321405
vn 0.000000 0.946942 0.321405
vn -0.946943 0.000000 0.321401
vn -0.946943 0.000000 0.321401
vn -0.946943 0.000000 0.321401
vn -0.946943 0.000000 0.321401
vn 0.000000 -0.946942 0.321406
vn 0.000000 -0.946942 0.321406
vn 0.000000 -0.946942 0.321406
vn 0.000000 -0.946942 0.321406
vn 0.946943 0.000000 0.321402
vn 0.946943 0.000000 0.321402
vn 0.946943 0.000000 0.321402
vn 0.946943 0.000000 0.321402
vn 0.000000 1.000000 0.000000
vn 0.000000 1.000000 0.000000
vn 0.000000 1.000000 0.000000
vn 0.000000 1.000000 0.000000
vn 0.000000 1.000000 -0.000000
vn 0.000000 1.000000 -0.000000
vn 0.000000 1.000000 -0.000000
vn 0.000000 1.000000 -0.000000
vn 0.000000 1.000000 0.000000
vn 0.000000 1.000000 0.000000
vn 0.000000 1.000000 0.000000
vn 0.000000 1.000000 0.000000
vn 0.000000 1.000000 0.000000
vn 0.000000 1.000000 0.000000
vn 0.000000 1.000000 0.000000
vn 0.000000 1.000000 0.000000
vn 0.000000 1.000000 0.000000
vn 0.000000 1.000000 0.000000
vn 0.000000 1.000000 0.000000
vn 0.000000 1.000000 0.000000
vn 0.000000 0.321405 -0.946942
vn 0.000000 0.321405 -0.946942
vn 0.000000 0.321405 -0.946942
vn 0.000000 0.321405 -0.946942
vn -0.946943 0.321400 0.000000
vn -0.946943 0.321400 0.000000
vn -0.946943 0.321400 0.000000
vn -0.946943 0.321400 0.000000
vn 0.000000 0.321405 0.946942
vn 0.000000 0.321405 0.946942
vn 0.000000 0.321405 0.946942
vn 0.000000 0.321405 0.946942
vn 0.946943 0.321401 0.000000
vn 0.946943 0.321401 0.000000
vn 0.946943 0.321401 0.000000
vn 0.946943 0.321401 0.000000
vn 1.000000 0.000000 0.000000
vn 1.000000 0.000000 0.000000
vn 1.000000 0.000000 0.000000
vn 1.000000 0.000000 0.000000
vn 1.000000 0.000000 0.000000
vn 1.000000 0.000000 0.000000
vn 1.000000 0.000000 0.000000
vn 1.000000 0.000000 0.000000
vn 1.000000 0.000000 0.000000
vn 1.000000 0.000000 0.000000
vn 1.000000 0.000000 0.000000
vn 1.000000 0.000000 0.000000
vn 1.000000 0.000000 0.000000
vn 1.000000 0.000000 0.000000
vn 1.000000 0.000000 0.000000
vn 1.000000 0.000000 0.000000
vn 1.000000 0.000000 0.000000
vn 1.000000 0.000000 0.000000
vn 1.000000 0.000000 0.000000
vn 1.000000 0.000000 0.000000
vn 0.321405 0.946942 0.000000
vn 0.321405 0.946942 0.000000
vn 0.321405 0.946942 0.000000
vn 0.321405 0.946942 0.000000
vn 0.321405 0.000000 0.946942
vn 0.321405 0.000000 0.946942
vn 0.321405 0.000000 0.946942
vn 0.321405 0.000000 0.946942
vn 0.321405 -0.946942 0.000000
vn 0.321405 -0.946942 0.000000
vn 0.321405 -0.946942 0.000000
vn 0.321405 -0.946942 0.000000
vn 0.321405 0.000000 -0.946942
vn 0.321405 0.000000 -0.946942
vn 0.321405 0.000000 -0.946942
vn 0.321405 0.000000 -0.946942
vn 0.000000 0.000000 -1.000000
vn 0.000000 0.000000 -1.000000
vn 0.000000 0.000000 -1.000000
vn 0.000000 0.000000 -1.000000
vn 0.000000 0.000000 -1.000000
vn 0.000000 0.000000 -1.000000
vn 0.000000 0.000000 -1.000000
vn 0.000000 0.000000 -1.000000
vn 0.000000 0.000000 -1.000000
vn 0.000000 0.000000 -1.000000
vn 0.000000 0.000000 -1.000000
vn 0.000000 0.000000 -1.000000
vn 0.000000 0.000000 -1.000000
vn 0.000000 0.000000 -1.000000
vn 0.000000 0.000000 -1.000000
vn 0.000000 0.000000 -1.000000
vn 0.000000 0.000000 -1.000000
vn 0.000000 0.000000 -1.000000
vn 0.000000 0.000000 -1.000000
vn 0.000000 0.000000 -1.000000
vn 0.000000 0.946942 -0.321405
vn 0.000000 0.946942 -0.321405
vn 0.000000 0.946942 -0.321405
vn 0.000000 0.946942 -0.321405
vn 0.946943 0.000000 -0.321402
vn 0.946943 0.000000 -0.321402
vn 0.946943 0.000000 -0.321402
vn 0.946943 0.000000 -0.321402
vn 0.000000 -0.946942 -0.321405
vn 0.000000 -0.946942 -0.321405
vn 0.000000 -0.946942 -0.321405
vn 0.000000 -0.946942 -0.321405
vn -0.946943 0.000000 -0.321402
vn -0.946943 0.000000 -0.321402
vn -0.946943 0.000000 -0.321402
vn -0.946943 0.000000 -0.321402
vn -1.000000 0.000000 0.000000
vn -1.000000 0.000000 0.000000
vn -1.000000 0.000000 0.000000
vn -1.000000 0.000000 0.000000
vn -1.000000 0.000000 0.000000
vn -1.000000 0.000000 0.000000
vn -1.000000 0.000000 0.000000
vn -1.000000 0.000000 0.000000
vn -1.000000 0.000000 0.000000
vn -1.000000 0.000000 0.000000
vn -1.000000 0.000000 0.000000
vn -1.000000 0.000000 0.000000
vn -1.000000 0.000000 0.000000
vn -1.000000 0.000000 0.000000
vn -1.000000 0.000000 0.000000
vn -1.000000 0.000000 0.000000
vn -1.000000 0.000000 0.000000
vn -1.000000 0.000000 0.000000
vn -1.000000 0.000000 0.000000
vn -1.000000 0.000000 0.000000
vn -0.321404 0.946942 0.000000
vn -0.321404 0.946942 0.000000
vn -0.321404 0.946942 0.000000
vn -0.321404 0.946942 0.000000
vn -0.321404 0.000000 -0.946942
vn -0.321404 0.000000 -0.946942
vn -0.321404 0.000000 -0.946942
vn -0.321404 0.000000 -0.946942
vn -0.321405 -0.946942 0.000000
vn -0.321405 -0.946942 0.000000
vn -0.321405 -0.946942 0.000000
vn -0.321405 -0.946942 0.000000
vn -0.321405 0.000000 0.946942
vn -0.321405 0.000000 0.946942
vn -0.321405 0.000000 0.946942
vn -0.321405 0.000000 0.946942
vn 0.000000 -1.000000 0.000000
vn 0.000000 -1.000000 0.000000
vn 0.000000 -1.000000 0.000000
vn 0.000000 -1.000000 0.000000
vn -0.000000 -1.000000 0.000000
vn -0.000000 -1.000000 0.000000
vn -0.000000 -1.000000 0.000000
vn -0.000000 -1.000000 0.000000
vn -0.000000 -1.000000 -0.000000
vn -0.000000 -1.000000 -0.000000
vn -0.000000 -1.000000 -0.000000
vn -0.000000 -1.000000 -0.000000
vn -0.000000 -1.000000 -0.000000
vn -0.000000 -1.000000 -0.000000
vn -0.000000 -1.000000 -0.000000
vn -0.000000 -1.000000 -0.000000
vn 0.000000 -1.000000 -0.000000
vn 0.000000 -1.000000 -0.000000
vn 0.000000 -1.000000 -0.000000
vn 0.000000 -1.000000 -0.000000
vn 0.000000 -0.321405 0.946942
vn 0.000000 -0.321405 0.946942
vn 0.000000 -0.321404 0.946942
vn 0.000000 -0.321404 0.946942
vn -0.946943 -0.321400 0.000000
vn -0.946943 -0.321400 0.000000
vn -0.946943 -0.321400 0.000000
vn -0.946943 -0.321400 0.000000
vn 0.000000 -0.321405 -0.946942
vn 0.000000 -0.321405 -0.946942
vn 0.000000 -0.321404 -0.946942
vn 0.000000 -0.321404 -0.946942
vn 0.946943 -0.321401 0.000000
vn 0.946943 -0.321401 0.000000
vn 0.946943 -0.321401 0.000000
vn 0.946943 -0.321401 0.000000
s off
g Small_Alphabet_Block
usemtl initialShadingGroup
f 9/9/1 10/10/2 11/11/3 12/12/4
f 1/1/5 2/2/6 6/6/7 5/5/8
f 2/2/9 4/4/10 7/7/11 6/6/12
f 4/4/13 3/3/14 8/8/15 7/7/16
f 3/3/17 1/1/18 5/5/19 8/8/20
f 5/5/21 6/6/22 10/10/23 9/9/24
f 6/6/25 7/7/26 11/11/27 10/10/28
f 7/7/29 8/8/30 12/12/31 11/11/32
f 8/8/33 5/5/34 9/9/35 12/12/36
f 19/13/37 20/14/38 21/15/39 22/16/40
f 3/17/41 4/18/42 16/19/43 15/20/44
f 4/18/45 14/21/46 17/22/47 16/19/48
f 14/21/49 13/23/50 18/24/51 17/22/52
f 13/23/53 3/17/54 15/20/55 18/24/56
f 15/20/57 16/19/58 20/14/59 19/13/60
f 16/19/61 17/22/62 21/15/63 20/14/64
f 17/22/65 18/24/66 22/16/67 21/15/68
f 18/24/69 15/20/70 19/13/71 22/16/72
f 28/25/73 29/26/74 30/27/75 31/28/76
f 2/29/77 23/30/78 25/31/79 24/32/80
f 23/30/81 14/33/82 26/34/83 25/31/84
f 14/33/85 4/35/86 27/36/87 26/34/88
f 4/35/89 2/29/90 24/32/91 27/36/92
f 24/32/93 25/31/94 29/26/95 28/25/96
f 25/31/97 26/34/98 30/27/99 29/26/100
f 26/34/101 27/36/102 31/28/103 30/27/104
f 27/36/105 24/32/106 28/25/107 31/28/108
f 37/37/109 38/38/110 39/39/111 40/40/112
f 23/41/113 32/42/114 34/43/115 33/44/116
f 32/42/117 13/45/118 35/46/119 34/43/120
f 13/45/121 14/47/122 36/48/123 35/46/124
f 14/47/125 23/41/126 33/44/127 36/48/128
f 33/44/129 34/43/130 38/38/131 37/37/132
f 34/43/133 35/46/134 39/39/135 38/38/136
f 35/46/137 36/48/138 40/40/139 39/39/140
f 36/48/141 33/44/142 37/37/143 40/40/144
f 45/49/145 46/50/146 47/51/147 48/52/148
f 32/53/149 1/54/150 42/55/151 41/56/152
f 1/54/153 3/57/154 43/58/155 42/55/156
f 3/57/157 13/59/158 44/60/159 43/58/160
f 13/59/161 32/53/162 41/56/163 44/60/164
f 41/56/165 42/55/166 46/50/167 45/49/168
f 42/55/169 43/58/170 47/51/171 46/50/172
f 43/58/173 44/60/174 48/52/175 47/51/176
f 44/60/177 41/56/178 45/49/179 48/52/180
f 53/61/181 54/62/182 55/63/183 56/64/184
f 32/65/185 23/66/186 50/67/187 49/68/188
f 23/66/189 2/69/190 51/70/191 50/67/192
f 2/69/193 1/71/194 52/72/195 51/70/196
f 1/71/197 32/65/198 49/68/199 52/72/200
f 49/68/201 50/67/202 54/62/203 53/61/204
f 50/67/205 51/70/206 55/63/207 54/62/208
f 51/70/209 52/72/210 56/64/211 55/63/212
f 52/72/213 49/68/214 53/61/215 56/64/216
