# This file uses centimeters as units for non-parametric coordinates.

mtllib bg_wd_bm_wc_1.mtl
g default
v -5.611412 0.000000 7.036484
v 2.002686 0.000000 8.774353
v 8.108719 0.000000 3.904953
v 8.108719 0.000000 -3.904953
v 2.002686 0.000000 -8.774353
v -5.611404 0.000000 -7.036484
v -9.000000 0.000000 0.000000
v -79.992813 206.156952 4.365395
v -79.992813 210.873138 5.443565
v -79.990570 214.655212 2.422615
v -79.990570 214.655212 -2.422615
v -79.992813 210.873138 -5.443565
v -79.992813 206.156952 -4.365402
v -79.990585 204.058075 0.000000
v -57.972168 207.267471 -4.739258
v -57.017883 210.424423 -2.109169
v -57.017883 210.424423 2.109169
v -57.972168 207.267471 4.739258
v -59.162140 203.330826 3.800583
v -59.691711 201.578842 0.000000
v -59.162140 203.330826 -3.800591
v -40.596359 199.628220 -4.346565
v -39.084480 202.248016 -1.934402
v -39.084480 202.248016 1.934402
v -40.596359 199.628220 4.346565
v -42.481659 196.361389 3.485672
v -43.320679 194.907501 0.000000
v -42.481659 196.361389 -3.485672
v -15.709946 177.501953 -4.273201
v -13.328133 179.282349 -1.901756
v -13.328133 179.282349 1.901756
v -15.709946 177.501953 4.273201
v -18.680023 175.281799 3.426842
v -20.001823 174.293762 0.000000
v -18.680023 175.281799 -3.426842
v -0.887337 144.556686 -4.415932
v 2.123505 145.171768 -1.965279
v 2.123505 145.171768 1.965279
v -0.887337 144.556686 4.415932
v -4.641800 143.789703 3.541306
v -6.312691 143.448349 0.000000
v -4.641800 143.789703 -3.541306
v 1.020935 114.143539 -5.255920
v 4.678505 114.143539 -2.339104
v 4.678505 114.143539 2.339104
v 1.020935 114.143539 5.255920
v -3.539986 114.143539 4.214920
v -5.569786 114.143539 0.000000
v -3.539986 114.143539 -4.214920
v 1.279510 72.873856 -6.182610
v 5.581955 72.873856 -2.751518
v 5.581955 72.873856 2.751518
v 1.279510 72.873856 6.182610
v -4.085556 72.873856 4.958069
v -6.473236 72.873856 0.000000
v -4.085556 72.873856 -4.958069
v 1.547913 46.106476 -7.144508
v 6.519745 46.106476 -3.179604
v 6.519745 46.106476 3.179604
v 1.547913 46.106476 7.144508
v -4.651863 46.106476 5.729454
v -7.411026 46.106476 0.000000
v -4.651863 46.106476 -5.729454
v 1.843674 24.546524 -8.204475
v 7.553131 24.546524 -3.651337
v 7.553131 24.546524 3.651337
v 1.843674 24.546524 8.204475
v -5.275902 24.546524 6.579483
v -8.444412 24.546524 0.000000
v -5.275902 24.546524 -6.579483
vt 0.375000 0.312500
vt 0.410714 0.312500
vt 0.410714 0.354271
vt 0.375000 0.354271
vt 0.446429 0.312500
vt 0.446429 0.354271
vt 0.482143 0.312500
vt 0.482143 0.354271
vt 0.517857 0.312500
vt 0.517857 0.354271
vt 0.553571 0.312500
vt 0.553571 0.354271
vt 0.589286 0.312500
vt 0.589286 0.354271
vt 0.625000 0.312500
vt 0.625000 0.354271
vt 0.482143 0.646669
vt 0.517857 0.646669
vt 0.517857 0.688440
vt 0.482143 0.688440
vt 0.446429 0.646669
vt 0.446429 0.688440
vt 0.410714 0.646669
vt 0.410714 0.688440
vt 0.375000 0.646669
vt 0.375000 0.688440
vt 0.589286 0.646669
vt 0.625000 0.646669
vt 0.625000 0.688440
vt 0.589286 0.688440
vt 0.553571 0.646669
vt 0.553571 0.688440
vt 0.482143 0.604898
vt 0.517857 0.604898
vt 0.446429 0.604898
vt 0.410714 0.604898
vt 0.375000 0.604898
vt 0.589286 0.604898
vt 0.625000 0.604898
vt 0.553571 0.604898
vt 0.482143 0.563127
vt 0.517857 0.563127
vt 0.446429 0.563127
vt 0.410714 0.563127
vt 0.375000 0.563127
vt 0.589286 0.563127
vt 0.625000 0.563127
vt 0.553571 0.563127
vt 0.482143 0.521355
vt 0.517857 0.521355
vt 0.446429 0.521355
vt 0.410714 0.521355
vt 0.375000 0.521355
vt 0.589286 0.521355
vt 0.625000 0.521355
vt 0.553571 0.521355
vt 0.482143 0.479584
vt 0.517857 0.479584
vt 0.446429 0.479584
vt 0.410714 0.479584
vt 0.375000 0.479584
vt 0.589286 0.479584
vt 0.625000 0.479584
vt 0.553571 0.479584
vt 0.482143 0.437813
vt 0.517857 0.437813
vt 0.446429 0.437813
vt 0.410714 0.437813
vt 0.375000 0.437813
vt 0.589286 0.437813
vt 0.625000 0.437813
vt 0.553571 0.437813
vt 0.482143 0.396042
vt 0.517857 0.396042
vt 0.446429 0.396042
vt 0.410714 0.396042
vt 0.375000 0.396042
vt 0.589286 0.396042
vt 0.625000 0.396042
vt 0.553571 0.396042
vn -0.222471 0.021188 0.974709
vn -0.222471 0.021188 0.974709
vn -0.222410 0.031527 0.974443
vn -0.222410 0.031553 0.974443
vn 0.623336 0.022185 0.781639
vn 0.623336 0.022185 0.781639
vn 0.623150 0.033012 0.781405
vn 0.623150 0.033034 0.781405
vn 0.999744 0.022628 0.000000
vn 0.999744 0.022628 0.000000
vn 0.999433 0.033683 0.000000
vn 0.999433 0.033683 0.000000
vn 0.623336 0.022185 -0.781639
vn 0.623336 0.022185 -0.781639
vn 0.623150 0.033034 -0.781405
vn 0.623150 0.033012 -0.781405
vn -0.222471 0.021188 -0.974709
vn -0.222471 0.021188 -0.974709
vn -0.222410 0.031553 -0.974443
vn -0.222410 0.031527 -0.974443
vn -0.900782 0.020388 -0.433794
vn -0.900782 0.020388 -0.433794
vn -0.900554 0.030356 -0.433684
vn -0.900554 0.030345 -0.433684
vn -0.900782 0.020388 0.433793
vn -0.900782 0.020388 0.433793
vn -0.900554 0.030345 0.433684
vn -0.900554 0.030356 0.433684
vn 0.186338 0.596515 -0.780672
vn 0.185576 0.596775 -0.780655
vn 0.124901 0.616120 -0.777686
vn 0.124901 0.616120 -0.777686
vn 0.282780 0.959185 0.000000
vn 0.282780 0.959185 0.000000
vn 0.181120 0.983461 0.000000
vn 0.181120 0.983461 0.000000
vn 0.185576 0.596775 0.780655
vn 0.186338 0.596515 0.780672
vn 0.124901 0.616120 0.777686
vn 0.124901 0.616120 0.777686
vn -0.033363 -0.220780 0.974753
vn -0.033777 -0.220697 0.974757
vn -0.005123 -0.226329 0.974038
vn -0.005123 -0.226329 0.974038
vn -0.210469 -0.876209 0.433544
vn -0.211069 -0.876060 0.433553
vn -0.109709 -0.896264 0.429739
vn -0.109709 -0.896264 0.429739
vn -0.211069 -0.876061 -0.433552
vn -0.210469 -0.876209 -0.433543
vn -0.109709 -0.896264 -0.429738
vn -0.109709 -0.896264 -0.429738
vn -0.033777 -0.220696 -0.974758
vn -0.033363 -0.220779 -0.974753
vn -0.005123 -0.226327 -0.974038
vn -0.005123 -0.226327 -0.974038
vn 0.361919 0.510238 -0.780174
vn 0.365137 0.508174 -0.780022
vn 0.577053 0.816707 0.000000
vn 0.577053 0.816707 0.000000
vn 0.365137 0.508174 0.780022
vn 0.361919 0.510238 0.780174
vn -0.120561 -0.186676 0.974996
vn -0.118496 -0.187794 0.975034
vn -0.508554 -0.744175 0.433101
vn -0.505598 -0.746120 0.433216
vn -0.505598 -0.746120 -0.433216
vn -0.508554 -0.744175 -0.433101
vn -0.118496 -0.187793 -0.975035
vn -0.120560 -0.186675 -0.974996
vn 0.505614 0.365563 -0.781485
vn 0.506285 0.364655 -0.781475
vn 0.811297 0.584634 0.000000
vn 0.811297 0.584634 0.000000
vn 0.506285 0.364655 0.781475
vn 0.505614 0.365563 0.781485
vn -0.180884 -0.128674 0.975051
vn -0.180557 -0.129115 0.975053
vn -0.732125 -0.524965 0.434056
vn -0.731589 -0.525706 0.434063
vn -0.731589 -0.525706 -0.434063
vn -0.732125 -0.524965 -0.434056
vn -0.180557 -0.129115 -0.975053
vn -0.180884 -0.128673 -0.975051
vn 0.602302 0.162790 -0.781493
vn 0.601402 0.166659 -0.781371
vn 0.966465 0.256797 0.000000
vn 0.966465 0.256797 0.000000
vn 0.601402 0.166659 0.781371
vn 0.602302 0.162790 0.781493
vn -0.217476 -0.040119 0.975241
vn -0.217867 -0.037653 0.975252
vn -0.877393 -0.202276 0.435047
vn -0.878183 -0.198673 0.435114
vn -0.878183 -0.198673 -0.435114
vn -0.877393 -0.202276 -0.435047
vn -0.217867 -0.037653 -0.975252
vn -0.217476 -0.040119 -0.975241
vn 0.623130 0.036185 -0.781281
vn 0.623119 0.036721 -0.781264
vn 0.998981 0.045139 0.000000
vn 0.998981 0.045139 0.000000
vn 0.623119 0.036721 0.781264
vn 0.623130 0.036185 0.781281
vn -0.223691 0.017703 0.974499
vn -0.223638 0.017824 0.974509
vn -0.901403 0.003523 0.432967
vn -0.901393 0.003836 0.432985
vn -0.901393 0.003836 -0.432985
vn -0.901403 0.003523 -0.432967
vn -0.223638 0.017824 -0.974509
vn -0.223691 0.017703 -0.974500
vn 0.623262 0.027055 -0.781545
vn 0.623262 0.027046 -0.781545
vn 0.999619 0.027591 0.000000
vn 0.999619 0.027591 0.000000
vn 0.623262 0.027046 0.781545
vn 0.623262 0.027055 0.781545
vn -0.222446 0.025830 0.974603
vn -0.222446 0.025841 0.974602
vn -0.900690 0.024858 0.433750
vn -0.900690 0.024863 0.433750
vn -0.900690 0.024863 -0.433750
vn -0.900690 0.024858 -0.433750
vn -0.222446 0.025841 -0.974602
vn -0.222447 0.025830 -0.974603
vn 0.622979 0.040481 -0.781190
vn 0.622979 0.040468 -0.781191
vn 0.999148 0.041283 0.000000
vn 0.999148 0.041283 0.000000
vn 0.622979 0.040468 0.781191
vn 0.622979 0.040481 0.781190
vn -0.222354 0.038650 0.974200
vn -0.222354 0.038666 0.974199
vn -0.900345 0.037197 0.433584
vn -0.900345 0.037204 0.433584
vn -0.900345 0.037204 -0.433584
vn -0.900345 0.037197 -0.433584
vn -0.222354 0.038666 -0.974199
vn -0.222354 0.038650 -0.974200
s 1
g wdn_beams_wc_2 polySurface22
usemtl initialShadingGroup
f 1/1/1 2/2/2 67/3/3 68/4/4
s 2
f 2/2/5 3/5/6 66/6/7 67/3/8
s 3
f 3/5/9 4/7/10 65/8/11 66/6/12
s 4
f 4/7/13 5/9/14 64/10/15 65/8/16
s 5
f 5/9/17 6/11/18 70/12/19 64/10/20
s 6
f 6/11/21 7/13/22 69/14/23 70/12/24
s 7
f 7/13/25 1/15/26 68/16/27 69/14/28
s 4
f 16/17/29 15/18/30 12/19/31 11/20/32
s 3
f 17/21/33 16/17/34 11/20/35 10/22/36
s 2
f 18/23/37 17/21/38 10/22/39 9/24/40
s 1
f 19/25/41 18/23/42 9/24/43 8/26/44
s 7
f 20/27/45 19/28/46 8/29/47 14/30/48
s 6
f 21/31/49 20/27/50 14/30/51 13/32/52
s 5
f 15/18/53 21/31/54 13/32/55 12/19/56
s 4
f 23/33/57 22/34/58 15/18/30 16/17/29
s 3
f 24/35/59 23/33/60 16/17/34 17/21/33
s 2
f 25/36/61 24/35/62 17/21/38 18/23/37
s 1
f 26/37/63 25/36/64 18/23/42 19/25/41
s 7
f 27/38/65 26/39/66 19/28/46 20/27/45
s 6
f 28/40/67 27/38/68 20/27/50 21/31/49
s 5
f 22/34/69 28/40/70 21/31/54 15/18/53
s 4
f 30/41/71 29/42/72 22/34/58 23/33/57
s 3
f 31/43/73 30/41/74 23/33/60 24/35/59
s 2
f 32/44/75 31/43/76 24/35/62 25/36/61
s 1
f 33/45/77 32/44/78 25/36/64 26/37/63
s 7
f 34/46/79 33/47/80 26/39/66 27/38/65
s 6
f 35/48/81 34/46/82 27/38/68 28/40/67
s 5
f 29/42/83 35/48/84 28/40/70 22/34/69
s 4
f 37/49/85 36/50/86 29/42/72 30/41/71
s 3
f 38/51/87 37/49/88 30/41/74 31/43/73
s 2
f 39/52/89 38/51/90 31/43/76 32/44/75
s 1
f 40/53/91 39/52/92 32/44/78 33/45/77
s 7
f 41/54/93 40/55/94 33/47/80 34/46/79
s 6
f 42/56/95 41/54/96 34/46/82 35/48/81
s 5
f 36/50/97 42/56/98 35/48/84 29/42/83
s 4
f 44/57/99 43/58/100 36/50/86 37/49/85
s 3
f 45/59/101 44/57/102 37/49/88 38/51/87
s 2
f 46/60/103 45/59/104 38/51/90 39/52/89
s 1
f 47/61/105 46/60/106 39/52/92 40/53/91
s 7
f 48/62/107 47/63/108 40/55/94 41/54/93
s 6
f 49/64/109 48/62/110 41/54/96 42/56/95
s 5
f 43/58/111 49/64/112 42/56/98 36/50/97
s 4
f 51/65/113 50/66/114 43/58/100 44/57/99
s 3
f 52/67/115 51/65/116 44/57/102 45/59/101
s 2
f 53/68/117 52/67/118 45/59/104 46/60/103
s 1
f 54/69/119 53/68/120 46/60/106 47/61/105
s 7
f 55/70/121 54/71/122 47/63/108 48/62/107
s 6
f 56/72/123 55/70/124 48/62/110 49/64/109
s 5
f 50/66/125 56/72/126 49/64/112 43/58/111
s 4
f 58/73/127 57/74/128 50/66/114 51/65/113
s 3
f 59/75/129 58/73/130 51/65/116 52/67/115
s 2
f 60/76/131 59/75/132 52/67/118 53/68/117
s 1
f 61/77/133 60/76/134 53/68/120 54/69/119
s 7
f 62/78/135 61/79/136 54/71/122 55/70/121
s 6
f 63/80/137 62/78/138 55/70/124 56/72/123
s 5
f 57/74/139 63/80/140 56/72/126 50/66/125
s 4
f 65/8/16 64/10/15 57/74/128 58/73/127
s 3
f 66/6/12 65/8/11 58/73/130 59/75/129
s 2
f 67/3/8 66/6/7 59/75/132 60/76/131
s 1
f 68/4/4 67/3/3 60/76/134 61/77/133
s 7
f 69/14/28 68/16/27 61/79/136 62/78/135
s 6
f 70/12/24 69/14/23 62/78/138 63/80/137
s 5
f 64/10/20 70/12/19 63/80/140 57/74/139
