# This file uses centimeters as units for non-parametric coordinates.

mtllib bg_wd_bm_wc_2.mtl
g default
v 5.611409 0.000000 -5.663405
v -2.002688 0.000000 -7.401274
v -8.108719 0.000000 -2.531877
v -8.108720 0.000000 5.278030
v -2.002688 0.000000 10.147428
v 5.611408 0.000000 8.409560
v 9.000000 0.000000 1.373077
v 5.611409 256.000000 -8.737548
v -2.002688 256.000000 -10.475416
v -8.108719 256.000000 -5.606019
v -8.108720 256.000000 2.203888
v -2.002688 256.000000 7.073286
v 9.000000 256.000000 -1.701065
v 0.000000 256.000000 -1.685716
v 8.021889 240.839630 -2.199575
v 5.020751 240.839630 4.032351
v -1.722745 240.839630 5.571510
v -7.130608 240.839630 1.258883
v -7.130608 240.839630 -5.658034
v -1.722744 240.839630 -9.970661
v 5.020751 240.839630 -8.431501
v 7.024835 207.499725 -2.638461
v 4.418654 207.499725 2.773328
v -1.437380 207.499725 4.109929
v -6.133554 207.499725 0.364855
v -6.133554 207.499725 -5.641778
v -1.437379 207.499725 -9.386852
v 4.418655 207.499725 -8.050250
v 5.793960 128.000000 0.250670
v 3.675359 128.000000 4.649989
v -1.085093 128.000000 5.736533
v -4.902679 128.000000 2.692108
v -4.902679 128.000000 -2.190768
v -1.085093 128.000000 -5.235191
v 3.675360 128.000000 -4.148648
v 7.024835 48.500259 2.277910
v 4.418654 48.500259 7.689700
v -1.437380 48.500259 9.026300
v -6.133554 48.500259 5.281227
v -6.133554 48.500259 -0.725406
v -1.437379 48.500259 -4.470481
v 4.418655 48.500259 -3.133878
v 8.021889 15.160356 1.776490
v 5.020751 15.160356 8.008417
v -1.722745 15.160356 9.547576
v -7.130608 15.160356 5.234948
v -7.130608 15.160356 -1.681969
v -1.722744 15.160356 -5.994596
v 5.020751 15.160356 -4.455436
v 8.937203 254.162170 -1.733070
v 5.581097 254.357483 5.268547
v -1.989132 254.401337 7.000562
v -8.056257 254.322342 2.153202
v -8.039996 254.070297 -5.609674
v -1.974770 253.623581 -10.425078
v 5.557118 253.742020 -8.709418
v 3.707884 256.000000 5.769885
v 6.458556 256.000000 3.576297
v 4.208556 255.594635 3.201242
v 5.603830 255.184006 4.939808
vt 0.375000 0.312500
vt 0.410714 0.312500
vt 0.446429 0.312500
vt 0.482143 0.312500
vt 0.517857 0.312500
vt 0.553571 0.312500
vt 0.589286 0.312500
vt 0.625000 0.312500
vt 0.375000 0.688440
vt 0.410714 0.688440
vt 0.446429 0.688440
vt 0.482143 0.688440
vt 0.517857 0.688440
vt 0.589286 0.688440
vt 0.625000 0.688440
vt 0.465231 0.691418
vt 0.359224 0.775956
vt 0.359224 0.911544
vt 0.465231 0.996082
vt 0.597420 0.965911
vt 0.656250 0.843750
vt 0.500000 0.837500
vt 0.589286 0.625783
vt 0.553571 0.625783
vt 0.517857 0.625783
vt 0.482143 0.625783
vt 0.446429 0.625783
vt 0.410714 0.625783
vt 0.625000 0.625783
vt 0.375000 0.625783
vt 0.589286 0.563127
vt 0.553571 0.563127
vt 0.517857 0.563127
vt 0.482143 0.563127
vt 0.446429 0.563127
vt 0.410714 0.563127
vt 0.625000 0.563127
vt 0.375000 0.563127
vt 0.589286 0.500470
vt 0.553571 0.500470
vt 0.517857 0.500470
vt 0.482143 0.500470
vt 0.446429 0.500470
vt 0.410714 0.500470
vt 0.625000 0.500470
vt 0.375000 0.500470
vt 0.589286 0.437813
vt 0.553571 0.437813
vt 0.517857 0.437813
vt 0.482143 0.437813
vt 0.446429 0.437813
vt 0.410714 0.437813
vt 0.625000 0.437813
vt 0.375000 0.437813
vt 0.589286 0.375157
vt 0.553571 0.375157
vt 0.517857 0.375157
vt 0.482143 0.375157
vt 0.446429 0.375157
vt 0.410714 0.375157
vt 0.625000 0.375157
vt 0.375000 0.375157
vt 0.589286 0.684417
vt 0.553571 0.685224
vt 0.517857 0.685406
vt 0.482143 0.685079
vt 0.446429 0.684038
vt 0.410714 0.682191
vt 0.625000 0.682681
vt 0.375000 0.682681
vt 0.531326 0.706503
vt 0.535714 0.688440
vt 0.626835 0.782669
vt 0.571429 0.688440
vt 0.548710 0.779544
vt 0.553571 0.686832
vn 0.221696 0.086031 -0.971313
vn 0.221696 0.086031 -0.971313
vn 0.222149 0.057834 -0.973296
vn 0.222151 0.057660 -0.973306
vn -0.621299 0.083761 -0.779084
vn -0.621299 0.083761 -0.779084
vn -0.622519 0.055788 -0.780614
vn -0.622509 0.056058 -0.780602
vn -0.997925 0.064384 -0.000000
vn -0.997925 0.064384 -0.000000
vn -0.999131 0.041690 -0.000000
vn -0.999113 0.042101 -0.000000
vn -0.622929 0.042410 0.781128
vn -0.622929 0.042410 0.781128
vn -0.623278 0.026093 0.781565
vn -0.623274 0.026305 0.781561
vn 0.222389 0.034446 0.974349
vn 0.222389 0.034446 0.974349
vn 0.222473 0.020689 0.974719
vn 0.222473 0.020662 0.974720
vn 0.899993 0.046532 0.433414
vn 0.899993 0.046532 0.433414
vn 0.900573 0.029629 0.433693
vn 0.900580 0.029365 0.433697
vn 0.898790 0.069506 -0.432835
vn 0.898790 0.069506 -0.432835
vn 0.900007 0.046205 -0.433420
vn 0.900024 0.045796 -0.433428
vn 0.000000 1.000000 0.000002
vn 0.000000 1.000000 0.000003
vn 0.002540 0.999994 0.002183
vn 0.000000 1.000000 0.000001
vn 0.000000 1.000000 0.000000
vn -0.017702 0.999607 0.021728
vn -0.999119 -0.041978 0.000022
vn -0.999097 -0.042486 0.000023
vn -0.997966 -0.063749 -0.000007
vn -0.997929 -0.064332 0.000003
vn -0.623306 -0.025494 -0.781563
vn -0.623303 -0.025687 -0.781558
vn -0.623054 -0.037088 -0.781299
vn -0.623054 -0.037533 -0.781278
vn 0.222482 -0.019852 -0.974735
vn 0.222482 -0.019829 -0.974735
vn 0.222432 -0.028228 -0.974540
vn 0.222432 -0.028146 -0.974542
vn 0.900591 -0.029390 -0.433672
vn 0.900598 -0.029106 -0.433677
vn 0.900105 -0.043840 -0.433462
vn 0.900119 -0.043317 -0.433485
vn 0.900927 -0.009641 0.433864
vn 0.900925 -0.009838 0.433863
vn 0.899985 -0.046531 0.433431
vn 0.899961 -0.047082 0.433421
vn 0.222521 0.000252 0.974928
vn 0.222521 0.000201 0.974928
vn 0.222126 -0.059127 0.973224
vn 0.222123 -0.059373 0.973209
vn -0.623483 -0.004607 0.781823
vn -0.623484 -0.004360 0.781824
vn -0.622453 -0.057410 0.780548
vn -0.622468 -0.057021 0.780566
vn -0.999793 -0.020362 -0.000000
vn -0.999795 -0.020267 -0.000000
vn -0.623101 -0.035290 -0.781344
vn -0.623099 -0.035379 -0.781342
vn 0.222358 -0.038283 -0.974213
vn 0.222359 -0.038209 -0.974216
vn 0.900643 -0.026889 -0.433727
vn 0.900644 -0.026836 -0.433727
vn 0.900885 0.013620 0.433844
vn 0.900890 0.013211 0.433846
vn 0.222420 0.030172 0.974484
vn 0.222420 0.030092 0.974486
vn -0.623310 0.024035 0.781606
vn -0.623306 0.024302 0.781601
vn -1.000000 -0.000302 0.000000
vn -1.000000 0.000304 0.000000
vn -0.623304 -0.024404 -0.781599
vn -0.623311 -0.023930 -0.781608
vn 0.222421 -0.030046 -0.974488
vn 0.222420 -0.030218 -0.974483
vn 0.900891 -0.013126 -0.433846
vn 0.900884 -0.013701 -0.433843
vn 0.900721 0.023460 0.433764
vn 0.900721 0.023474 0.433764
vn 0.222417 0.030603 0.974471
vn 0.222416 0.030638 0.974470
vn -0.623223 0.029230 0.781497
vn -0.623224 0.029206 0.781498
vn -0.999794 0.020292 0.000000
vn -0.999793 0.020336 0.000000
vn -0.623455 0.010553 -0.781788
vn -0.623454 0.010663 -0.781787
vn 0.222515 0.007413 -0.974901
vn 0.222515 0.007412 -0.974901
vn 0.900891 0.013175 -0.433846
vn 0.900892 0.013100 -0.433847
vn -0.999436 -0.033567 -0.000500
vn -0.999436 -0.033567 -0.000500
vn -0.622992 -0.022458 -0.781906
vn -0.622992 -0.022458 -0.781906
vn 0.222407 -0.017770 -0.974792
vn 0.222407 -0.017770 -0.974792
vn 0.900462 -0.025331 -0.434197
vn 0.900462 -0.025331 -0.434197
vn 0.024375 0.999629 -0.012121
vn 0.008954 0.999864 0.013834
vn 0.880110 0.043397 0.472782
vn 0.434476 0.854189 0.285644
vn 0.898213 -0.071209 0.433755
vn 0.898222 -0.071877 0.433625
vn 0.224336 -0.088458 0.970489
vn 0.224270 -0.088673 0.970484
vn -0.621053 -0.088316 0.778777
vn -0.621072 -0.087989 0.778798
vn -0.623128 -0.041974 0.780993
vn -0.623128 -0.041974 0.780993
vn 0.169790 0.887920 0.427516
vn 0.296132 0.118860 0.947723
vn 0.896562 -0.025109 0.442205
vn 0.246233 -0.014454 0.969103
s 1
g wdn_beams_wc_1
usemtl initialShadingGroup
f 1/1/1 2/2/2 48/60/3 49/62/4
s 2
f 2/2/5 3/3/6 47/59/7 48/60/8
s 3
f 3/3/9 4/4/10 46/58/11 47/59/12
s 4
f 4/4/13 5/5/14 45/57/15 46/58/16
s 5
f 5/5/17 6/6/18 44/56/19 45/57/20
f 6/6/21 7/7/22 43/55/23 44/56/24
s 7
f 7/7/25 1/8/26 49/61/27 43/55/28
s 5
f 8/20/29 9/19/30 14/22/31
f 9/19/30 10/18/32 14/22/31
f 10/18/32 11/17/33 14/22/31
f 13/21/34 8/20/29 14/22/31
s 3
f 19/27/35 18/26/36 53/66/37 54/67/38
s 2
f 20/28/39 19/27/40 54/67/41 55/68/42
s 1
f 21/30/43 20/28/44 55/68/45 56/70/46
s 7
f 15/23/47 21/29/48 56/69/49 50/63/50
s 5
f 23/32/51 22/31/52 15/23/53 16/24/54
f 24/33/55 23/32/56 16/24/57 17/25/58
s 4
f 25/34/59 24/33/60 17/25/61 18/26/62
s 3
f 26/35/63 25/34/64 18/26/36 19/27/35
s 2
f 27/36/65 26/35/66 19/27/40 20/28/39
s 1
f 28/38/67 27/36/68 20/28/44 21/30/43
s 7
f 22/31/69 28/37/70 21/29/48 15/23/47
s 5
f 30/40/71 29/39/72 22/31/52 23/32/51
f 31/41/73 30/40/74 23/32/56 24/33/55
s 4
f 32/42/75 31/41/76 24/33/60 25/34/59
s 3
f 33/43/77 32/42/78 25/34/64 26/35/63
s 2
f 34/44/79 33/43/80 26/35/66 27/36/65
s 1
f 35/46/81 34/44/82 27/36/68 28/38/67
s 7
f 29/39/83 35/45/84 28/37/70 22/31/69
s 5
f 37/48/85 36/47/86 29/39/72 30/40/71
f 38/49/87 37/48/88 30/40/74 31/41/73
s 4
f 39/50/89 38/49/90 31/41/76 32/42/75
s 3
f 40/51/91 39/50/92 32/42/78 33/43/77
s 2
f 41/52/93 40/51/94 33/43/80 34/44/79
s 1
f 42/54/95 41/52/96 34/44/82 35/46/81
s 7
f 36/47/97 42/53/98 35/45/84 29/39/83
s 5
f 44/56/24 43/55/23 36/47/86 37/48/85
f 45/57/20 44/56/19 37/48/88 38/49/87
s 4
f 46/58/16 45/57/15 38/49/90 39/50/89
s 3
f 47/59/12 46/58/11 39/50/92 40/51/91
s 2
f 48/60/8 47/59/7 40/51/94 41/52/93
s 1
f 49/62/4 48/60/3 41/52/96 42/54/95
s 7
f 43/55/28 49/61/27 42/53/98 36/47/97
s 3
f 54/67/38 53/66/37 11/12/99 10/11/100
s 2
f 55/68/42 54/67/41 10/11/101 9/10/102
s 1
f 56/70/46 55/68/45 9/10/103 8/9/104
s 7
f 50/63/50 56/69/49 8/15/105 13/14/106
s 5
f 11/17/33 12/16/107 14/22/31
f 59/75/108 60/76/109 58/73/110
f 16/24/54 15/23/53 50/63/111 51/64/112
f 17/25/58 16/24/57 51/64/113 52/65/114
s 4
f 53/66/115 18/26/62 17/25/61 52/65/116
f 11/12/117 53/66/115 52/65/116 12/13/118
s 5
f 59/75/108 58/73/110 13/21/34 14/22/31
f 12/16/107 57/71/119 59/75/108 14/22/31
f 60/76/120 59/75/108 57/72/119
f 58/74/110 60/76/109 51/64/112 50/63/111 13/14/121
f 51/64/113 60/76/120 57/72/119 12/13/122 52/65/114
