# This file uses centimeters as units for non-parametric coordinates.

mtllib BridgeBeam_Issa_1.mtl
g default
v 0.000000 14.472137 -4.702283
v 0.000000 10.472137 -7.608453
v 0.000000 5.527863 -7.608453
v 0.000000 1.527864 -4.702281
v 0.000000 0.000000 -0.000000
v 0.000000 1.527864 4.702281
v 0.000000 5.527866 7.608451
v 0.000000 10.472137 7.608451
v 0.000000 14.472137 4.702281
v 0.000000 16.000000 -0.000000
v -64.000008 14.472137 -4.702283
v -64.000008 10.472137 -7.608453
v -63.999996 5.527863 -7.608453
v -63.999996 1.527864 -4.702281
v -64.000000 0.000000 -0.000000
v -63.999996 1.527864 4.702281
v -63.999996 5.527864 7.608451
v -64.000008 10.472137 7.608451
v -64.000008 14.472137 4.702281
v -64.000000 16.000004 -0.000000
v -60.913609 15.177781 5.214960
v -60.913609 10.741670 8.437984
v -60.913601 5.258334 8.437984
v -60.913601 0.822223 5.214961
v -60.913605 -0.872221 0.000000
v -60.913601 0.822222 -5.214961
v -60.913601 5.258332 -8.437984
v -60.913609 10.741670 -8.437985
v -60.913609 15.177781 -5.214962
v -60.913605 16.872221 -0.000000
v -3.086394 15.177779 5.214960
v -3.086394 10.741668 8.437984
v -3.086393 5.258335 8.437984
v -3.086393 0.822223 5.214961
v -3.086393 -0.872221 0.000000
v -3.086393 0.822222 -5.214961
v -3.086393 5.258333 -8.437984
v -3.086394 10.741668 -8.437985
v -3.086393 15.177779 -5.214962
v -3.086393 16.872225 -0.000000
vt 0.382250 0.952083
vt 0.315514 0.952083
vt 0.315514 0.908480
vt 0.382250 0.908480
vt 0.006060 0.500000
vt 0.034479 0.408034
vt 0.275248 0.408034
vt 0.303667 0.500000
vt 0.034479 0.591965
vt 0.275248 0.591965
vt 0.849402 0.952083
vt 0.108881 0.351197
vt 0.849402 0.908480
vt 0.200846 0.351197
vt 0.108881 0.648803
vt 0.200846 0.648803
vt 0.006060 0.500000
vt 0.782666 0.952083
vt 0.034479 0.591965
vt 0.275248 0.591965
vt 0.303667 0.500000
vt 0.782666 0.908480
vt 0.715930 0.952083
vt 0.715930 0.908480
vt 0.649194 0.952083
vt 0.649194 0.908480
vt 0.582458 0.952083
vt 0.582458 0.908480
vt 0.515722 0.952083
vt 0.515722 0.908480
vt 0.448986 0.952083
vt 0.034479 0.408034
vt 0.448986 0.908480
vt 0.582458 0.091520
vt 0.275248 0.408034
vt 0.108881 0.648803
vt 0.200846 0.648803
vt 0.108881 0.351197
vt 0.200846 0.351197
vt 0.982875 0.091520
vt 0.982875 0.047917
vt 0.515722 0.091520
vt 0.515722 0.047917
vt 0.582458 0.047917
vt 0.649194 0.091520
vt 0.649194 0.047917
vt 0.715930 0.091520
vt 0.715930 0.047917
vt 0.782666 0.091520
vt 0.782666 0.047917
vt 0.849402 0.091520
vt 0.849402 0.047917
vt 0.916139 0.091520
vt 0.916139 0.047917
vt 0.315514 0.091520
vt 0.315514 0.047917
vt 0.382250 0.091520
vt 0.382250 0.047917
vt 0.448986 0.091520
vt 0.448986 0.047917
vt 0.982875 0.952083
vt 0.916139 0.952083
vt 0.916139 0.908480
vt 0.982875 0.908480
vn 0.259559 0.567640 -0.781290
vn 0.259559 0.567640 -0.781290
vn 0.012317 0.587741 -0.808956
vn 0.012317 0.587741 -0.808956
vn 0.259559 -0.000000 -0.965727
vn 0.259559 -0.000000 -0.965727
vn 0.012317 -0.000000 -0.999924
vn 0.012317 -0.000000 -0.999924
vn 0.259559 -0.567640 -0.781290
vn 0.259559 -0.567640 -0.781290
vn 0.012317 -0.587741 -0.808956
vn 0.012317 -0.587741 -0.808956
vn 0.259559 -0.918461 -0.298426
vn 0.259559 -0.918461 -0.298426
vn 0.012317 -0.950984 -0.308993
vn 0.012317 -0.950984 -0.308993
vn 0.259559 -0.918461 0.298426
vn 0.259559 -0.918461 0.298426
vn 0.012317 -0.950984 0.308994
vn 0.012317 -0.950984 0.308994
vn 0.259559 -0.567640 0.781290
vn 0.259559 -0.567640 0.781290
vn 0.012317 -0.587741 0.808956
vn 0.012317 -0.587741 0.808956
vn 0.259559 0.000000 0.965727
vn 0.259559 0.000000 0.965727
vn 0.012317 0.000000 0.999924
vn 0.012317 0.000000 0.999924
vn 0.259559 0.567640 0.781290
vn 0.259559 0.567640 0.781290
vn 0.012317 0.587741 0.808956
vn 0.012317 0.587741 0.808956
vn 0.259560 0.918461 0.298426
vn 0.259560 0.918461 0.298426
vn 0.012317 0.950984 0.308994
vn 0.012317 0.950984 0.308994
vn 0.259560 0.918461 -0.298426
vn 0.259560 0.918461 -0.298426
vn 0.012317 0.950985 -0.308993
vn 0.012317 0.950984 -0.308993
vn 1.000000 0.000000 0.000000
vn 1.000000 0.000000 0.000000
vn 1.000000 0.000000 0.000000
vn 1.000000 0.000000 0.000000
vn 1.000000 0.000000 0.000000
vn 1.000000 0.000000 0.000000
vn 1.000000 0.000000 0.000000
vn 1.000000 0.000000 0.000000
vn 1.000000 0.000000 0.000000
vn 1.000000 0.000000 0.000000
vn 1.000000 0.000000 0.000000
vn 1.000000 0.000000 0.000000
vn 1.000000 0.000000 0.000000
vn 1.000000 0.000000 0.000000
vn 1.000000 0.000000 0.000000
vn 1.000000 0.000000 0.000000
vn -1.000000 0.000000 0.000000
vn -1.000000 0.000000 0.000000
vn -1.000000 0.000000 0.000000
vn -1.000000 0.000000 0.000000
vn -1.000000 0.000000 -0.000000
vn -1.000000 0.000000 -0.000000
vn -1.000000 0.000000 -0.000000
vn -1.000000 0.000000 -0.000000
vn -1.000000 -0.000001 0.000000
vn -1.000000 -0.000001 0.000000
vn -1.000000 -0.000001 0.000000
vn -1.000000 -0.000001 0.000000
vn -1.000000 -0.000001 0.000000
vn -1.000000 -0.000001 0.000000
vn -1.000000 -0.000001 0.000000
vn -1.000000 -0.000001 0.000000
vn -0.012317 0.587741 0.808956
vn -0.012317 0.587741 0.808956
vn -0.259559 0.567640 0.781290
vn -0.259559 0.567640 0.781290
vn -0.012317 -0.000000 0.999924
vn -0.012317 -0.000000 0.999924
vn -0.259559 -0.000001 0.965727
vn -0.259559 -0.000001 0.965727
vn -0.012317 -0.587741 0.808956
vn -0.012317 -0.587741 0.808956
vn -0.259559 -0.567640 0.781290
vn -0.259559 -0.567640 0.781290
vn -0.012317 -0.950984 0.308994
vn -0.012317 -0.950984 0.308994
vn -0.259559 -0.918461 0.298427
vn -0.259559 -0.918461 0.298427
vn -0.012317 -0.950984 -0.308993
vn -0.012317 -0.950984 -0.308993
vn -0.259559 -0.918461 -0.298426
vn -0.259559 -0.918461 -0.298426
vn -0.012317 -0.587741 -0.808956
vn -0.012317 -0.587741 -0.808956
vn -0.259559 -0.567640 -0.781290
vn -0.259559 -0.567640 -0.781290
vn -0.012317 -0.000000 -0.999924
vn -0.012317 -0.000000 -0.999924
vn -0.259559 -0.000001 -0.965727
vn -0.259559 -0.000001 -0.965727
vn -0.012317 0.587741 -0.808956
vn -0.012317 0.587741 -0.808956
vn -0.259559 0.567640 -0.781290
vn -0.259559 0.567640 -0.781290
vn -0.012317 0.950984 -0.308993
vn -0.012317 0.950984 -0.308993
vn -0.259559 0.918461 -0.298426
vn -0.259559 0.918461 -0.298426
vn -0.012317 0.950984 0.308994
vn -0.012317 0.950984 0.308994
vn -0.259559 0.918462 0.298426
vn -0.259559 0.918461 0.298426
s 1
g Small_Bridge_Beam
usemtl initialShadingGroup
f 1/1/1 2/2/2 38/3/3 39/4/4
s 2
f 2/61/5 3/62/6 37/63/7 38/64/8
s 3
f 3/62/9 4/11/10 36/13/11 37/63/12
s 4
f 4/11/13 5/18/14 35/22/15 36/13/16
s 5
f 5/18/17 6/23/18 34/24/19 35/22/20
s 6
f 6/23/21 7/25/22 33/26/23 34/24/24
s 7
f 7/25/25 8/27/26 32/28/27 33/26/28
s 8
f 8/27/29 9/29/30 31/30/31 32/28/32
s 9
f 9/29/33 10/31/34 40/33/35 31/30/36
s 10
f 10/31/37 1/1/38 39/4/39 40/33/40
s off
f 10/5/41 9/6/42 6/7/43 5/8/44
f 1/9/45 10/5/46 5/8/47 4/10/48
f 9/6/49 8/12/50 7/14/51 6/7/52
f 2/15/53 1/9/54 4/10/55 3/16/56
f 20/17/57 11/19/58 14/20/59 15/21/60
f 19/32/61 20/17/62 15/21/63 16/35/64
f 11/19/65 12/36/66 13/37/67 14/20/68
f 18/38/69 19/32/70 16/35/71 17/39/72
s 8
f 22/34/73 21/42/74 19/43/75 18/44/76
s 7
f 23/45/77 22/34/78 18/44/79 17/46/80
s 6
f 24/47/81 23/45/82 17/46/83 16/48/84
s 5
f 25/49/85 24/47/86 16/48/87 15/50/88
s 4
f 26/51/89 25/49/90 15/50/91 14/52/92
s 3
f 27/53/93 26/51/94 14/52/95 13/54/96
s 2
f 28/40/97 27/53/98 13/54/99 12/41/100
s 1
f 29/57/101 28/55/102 12/56/103 11/58/104
s 10
f 30/59/105 29/57/106 11/58/107 20/60/108
s 9
f 21/42/109 30/59/110 20/60/111 19/43/112
s 8
f 32/28/32 31/30/31 21/42/74 22/34/73
s 7
f 33/26/28 32/28/27 22/34/78 23/45/77
s 6
f 34/24/24 33/26/23 23/45/82 24/47/81
s 5
f 35/22/20 34/24/19 24/47/86 25/49/85
s 4
f 36/13/16 35/22/15 25/49/90 26/51/89
s 3
f 37/63/12 36/13/11 26/51/94 27/53/93
s 2
f 38/64/8 37/63/7 27/53/98 28/40/97
s 1
f 39/4/4 38/3/3 28/55/102 29/57/101
s 10
f 40/33/40 39/4/39 29/57/106 30/59/105
s 9
f 31/30/36 40/33/35 30/59/110 21/42/109
