# This file uses centimeters as units for non-parametric coordinates.

mtllib Broom_Issa_1.mtl
g default
v 15.788273 -0.434906 11.899830
v 20.318523 -0.434906 11.899830
v 15.788273 -0.434906 -1.962624
v 20.318523 -0.434906 -1.962624
v 10.667629 132.621750 -2.562061
v 11.314053 132.621750 -3.208488
v 13.193531 106.042725 2.110996
v 13.840038 106.042725 1.463631
v 15.373928 132.621750 -3.208488
v 16.020351 132.621750 -2.562061
v 16.657330 106.042725 2.110996
v 16.010708 106.042725 1.463631
v 17.234028 28.582863 6.434383
v 16.587605 28.582863 5.785763
v 12.411945 65.263260 3.013531
v 11.764896 65.263260 2.366985
v 19.519154 28.582863 5.785946
v 18.872730 28.582863 6.434383
v 13.706470 65.263260 3.013531
v 14.353336 65.263260 2.366985
v 14.353336 65.263260 1.071747
v 13.706470 65.263260 0.425098
v 12.411938 65.263260 0.425098
v 11.764896 65.263260 1.071747
v 11.314053 132.621750 2.144238
v 10.667629 132.621750 1.497810
v 13.840038 106.042725 4.927433
v 13.193531 106.042725 4.280956
v 16.020351 132.621750 1.497810
v 15.373928 132.621750 2.144238
v 16.657330 106.042725 4.280956
v 16.010708 106.042725 4.927433
v 16.587605 28.582863 4.151020
v 17.234028 28.582863 3.502819
v 18.872730 28.582863 3.502819
v 19.519154 28.582863 4.150867
v 8.743572 23.906143 5.784565
v 9.260334 23.478897 6.571987
v -0.641247 0.017662 9.211063
v 0.000000 0.000000 9.937199
v 9.260334 23.478897 3.365215
v 8.743572 23.906143 4.152637
v 0.000000 0.000000 0.000000
v -0.641247 0.017662 0.726139
v 27.363186 23.906158 4.152637
v 26.846424 23.478909 3.365215
v 36.748028 0.017685 0.726139
v 36.106777 0.000023 0.000000
v 26.846424 23.478909 6.571987
v 27.363186 23.906158 5.784565
v 36.106777 0.000023 9.937199
v 36.748028 0.017685 9.211063
vt 0.625000 0.750000
vt 0.375000 1.000000
vt 0.625000 1.000000
vt 0.375000 0.280192
vt 0.625000 0.280192
vt 0.625000 0.469809
vt 0.375000 0.469809
vt 0.597437 0.667578
vt 0.375000 0.750000
vt 0.125000 0.000000
vt 0.375000 0.000000
vt 0.375000 0.000000
vt 0.875000 0.000000
vt 0.594808 0.500000
vt 0.375000 0.081234
vt 0.437494 0.125000
vt 0.187456 0.125000
vt 0.437493 0.625000
vt 0.421662 0.166667
vt 0.562524 0.125000
vt 0.155191 0.250000
vt 0.328340 0.166667
vt 0.344809 0.250000
vt 0.655191 0.250000
vt 0.828276 0.166667
vt 0.844808 0.250000
vt 0.812544 0.125000
vt 0.405191 0.250000
vt 0.875000 0.000000
vt 0.875000 0.081234
vt 0.687446 0.125000
vt 0.819735 0.083333
vt 0.319584 0.083333
vt 0.358472 0.000000
vt 0.125000 0.000000
vt 0.125000 0.081234
vt 0.125000 0.081510
vt 0.819584 0.083333
vt 0.858472 0.000000
vt 0.625000 0.000000
vt 0.625000 0.081234
vt 0.625000 0.000000
vt 0.375000 0.510511
vt 0.405191 0.500000
vt 0.421662 0.583333
vt 0.375000 0.583333
vt 0.171724 0.166667
vt 0.125000 0.166667
vt 0.125000 0.134543
vt 0.618834 0.511177
vt 0.619556 0.583333
vt 0.578330 0.583333
vt 0.591873 0.583333
vt 0.583678 0.614646
vt 0.402563 0.082421
vt 0.375000 0.083333
vt 0.375000 0.083333
vt 0.319687 0.083333
vt 0.342156 0.083333
vt 0.337250 0.119709
vt 0.312554 0.125000
vt 0.340159 0.135509
vt 0.347195 0.166667
vt 0.680298 0.083333
vt 0.625545 0.083333
vt 0.625000 0.083333
vt 0.597436 0.082421
vt 0.625000 0.088794
vt 0.625000 0.125000
vt 0.625000 0.125000
vt 0.671660 0.166667
vt 0.625000 0.158663
vt 0.562523 0.625000
vt 0.539055 0.632688
vt 0.375000 0.630721
vt 0.402563 0.667578
vt 0.375000 0.666667
vt 0.395737 0.250000
vt 0.400162 0.184440
vt 0.625000 0.250000
vt 0.594809 0.250000
vt 0.578330 0.166667
vt 0.625000 0.183769
vt 0.180278 0.083333
vt 0.125546 0.083333
vt 0.125000 0.083333
vt 0.875000 0.081510
vt 0.875000 0.083333
vt 0.875000 0.083333
vt 0.375000 0.083333
vt 0.358870 0.005377
vt 0.180416 0.083333
vt 0.125000 0.005483
vt 0.141528 0.000000
vt 0.875000 0.083333
vt 0.858870 0.005377
vt 0.680416 0.083333
vt 0.625000 0.005483
vt 0.641528 -0.000000
vt 0.556252 0.666667
vn -0.020374 -0.999793 0.000000
vn 0.020375 -0.999792 0.000000
vn 0.020375 -0.999792 0.000000
vn -0.020374 -0.999792 0.000000
vn -0.930751 0.365654 0.000000
vn -0.930751 0.365654 0.000000
vn -0.930751 0.365654 0.000000
vn -0.930751 0.365654 0.000000
vn -0.086822 0.186742 0.978565
vn 0.086822 0.186742 0.978565
vn 0.063485 0.172783 0.982912
vn -0.061759 0.170624 0.983399
vn 0.930750 0.365655 0.000000
vn 0.930750 0.365655 0.000000
vn 0.930750 0.365655 0.000000
vn 0.930750 0.365655 0.000000
vn -0.062053 0.140868 -0.988082
vn 0.000000 -0.020097 -0.999798
vn 0.000000 -0.023145 -0.999732
vn 0.063754 0.147088 -0.987067
vn -0.999376 -0.035330 0.000000
vn -0.991467 -0.130357 0.000000
vn -0.991467 -0.130357 0.000000
vn -0.999278 -0.038002 0.000000
vn 0.000000 0.011477 0.999934
vn 0.000000 0.015383 0.999882
vn 0.999548 0.030077 0.000000
vn 0.990228 0.139457 0.000000
vn 0.990228 0.139457 0.000000
vn 0.999638 0.026913 0.000000
vn -0.027536 -0.999621 0.000000
vn -0.027536 -0.999621 0.000000
vn -0.027536 -0.999621 0.000000
vn -0.027536 -0.999621 0.000000
vn -0.111697 0.186955 0.975998
vn -0.111697 0.186955 0.975998
vn -0.512102 0.858924 0.000000
vn -0.512102 0.858924 0.000000
vn -0.512102 0.858924 0.000000
vn -0.512102 0.858924 0.000000
vn -0.111696 0.186955 -0.975998
vn -0.111696 0.186955 -0.975998
vn -0.086822 0.186742 -0.978565
vn 0.027537 -0.999621 0.000000
vn 0.027537 -0.999621 0.000000
vn 0.027537 -0.999621 0.000000
vn 0.027537 -0.999621 0.000000
vn 0.086822 0.186742 -0.978565
vn 0.111696 0.186955 -0.975998
vn 0.111696 0.186955 -0.975998
vn 0.512101 0.858925 0.000000
vn 0.512101 0.858925 0.000000
vn 0.512101 0.858925 0.000000
vn 0.512101 0.858925 0.000000
vn 0.111696 0.186956 0.975998
vn 0.111696 0.186956 0.975998
vn -0.696052 0.077888 0.713754
vn -0.682579 0.155652 0.714044
vn -0.632731 0.457951 0.624446
vn -0.638181 0.448958 0.625430
vn -0.707149 -0.017570 0.706846
vn -0.707137 -0.016976 0.706873
vn 0.432110 0.706632 0.560314
vn 0.432110 0.706632 0.560314
vn 0.638178 0.448943 0.625443
vn 0.632729 0.457935 0.624460
vn 0.698069 0.163315 0.697157
vn 0.698069 0.163315 0.697157
vn 0.706670 0.040882 0.706361
vn 0.706722 0.038881 0.706423
vn 0.707346 0.006490 -0.706838
vn 0.707343 0.008468 -0.706820
vn 0.668446 0.236428 -0.705182
vn 0.694494 0.121373 -0.709188
vn -0.706511 -0.048735 -0.706022
vn -0.706456 -0.050371 -0.705962
vn -0.699417 -0.150590 -0.698669
vn -0.699417 -0.150590 -0.698669
vn -0.432094 0.706591 -0.560378
vn -0.432094 0.706591 -0.560378
vn -0.638179 0.448924 -0.625455
vn -0.632730 0.457913 -0.624475
vn 0.632728 0.457899 -0.624486
vn 0.638177 0.448912 -0.625466
vn -0.686527 0.360754 0.631298
vn -0.686527 0.360754 0.631298
vn -0.686527 0.360754 -0.631298
vn -0.686527 0.360754 -0.631298
vn 0.686526 0.360755 -0.631299
vn 0.686526 0.360755 -0.631299
vn 0.686525 0.360755 0.631300
vn 0.686525 0.360755 0.631300
vn 0.000000 -0.084599 -0.996415
vn 0.000000 -0.173128 -0.984899
vn 0.000000 -0.173128 -0.984899
vn 0.000000 -0.083897 -0.996475
vn -0.706483 -0.047321 -0.706146
vn -0.706329 -0.051785 -0.705987
vn 0.706144 -0.056546 -0.705807
vn 0.706225 -0.054427 -0.705892
vn 0.000000 0.036232 0.999343
vn 0.000000 0.035670 0.999364
vn 0.706978 -0.009988 0.707165
vn 0.706999 -0.006816 0.707182
vn 0.000000 0.104145 0.994562
vn 0.000000 0.104145 0.994562
vn 0.999713 0.023959 0.000000
vn 0.999904 -0.013853 0.000000
vn 0.999936 -0.011312 0.000000
vn 0.999713 0.023959 0.000000
vn -0.995515 -0.094607 0.000000
vn -0.995515 -0.094607 0.000000
vn -0.999279 -0.037967 0.000000
vn -0.999426 -0.033891 0.000000
vn -0.694720 -0.188073 -0.694257
vn -0.694720 -0.188073 -0.694257
vn 0.703272 -0.106712 -0.702866
vn 0.703272 -0.106712 -0.702866
vn -0.707015 -0.002224 0.707195
vn -0.707011 -0.002608 0.707198
vn -0.707083 0.006845 0.707098
vn -0.707083 0.006845 0.707098
vn 0.704159 0.090616 0.704236
vn 0.704159 0.090616 0.704236
vn 0.000000 1.000000 0.000000
vn 0.000000 1.000000 0.000000
vn 0.000000 1.000000 0.000000
vn 0.000000 1.000000 0.000000
vn 0.000000 1.000000 0.000000
vn 0.000000 1.000000 0.000000
vn 0.000000 1.000000 0.000000
vn 0.000000 1.000000 0.000000
vn 0.000000 1.000000 0.000000
vn 0.000000 1.000000 0.000000
vn 0.000000 1.000000 0.000000
vn 0.000000 1.000000 0.000000
s 1
g Small_Broom
usemtl lambert33SG
f 3/9/1 4/1/2 2/3/3 1/2/4
s off
f 42/92/5 44/94/6 39/34/7 37/33/8
s 2
f 1/11/9 2/42/10 18/67/11 13/55/12
s off
f 50/97/13 52/99/14 47/39/15 45/38/16
s 3
f 34/76/17 23/18/18 22/73/19 35/8/20
s 4
f 24/17/21 33/84/22 14/58/23 16/61/24
s 2
f 15/16/25 13/55/12 18/67/11 19/20/26
s 5
f 20/31/27 17/64/28 36/32/29 21/27/30
s 1
f 3/10/1 1/11/4 40/12/31 39/34/32 44/94/33 43/35/34
s 2
f 1/11/9 13/55/12 38/15/35 40/12/36
s off
f 37/33/37 14/58/38 33/84/39 42/92/40
s 3
f 43/35/41 41/36/42 34/37/17 3/10/43
s 1
f 2/42/3 4/29/2 48/13/44 47/39/45 52/99/46 51/40/47
s 3
f 4/29/48 35/87/20 46/30/49 48/13/50
s off
f 45/38/51 36/32/52 17/64/53 50/97/54
s 2
f 51/40/55 49/41/56 18/67/11 2/42/10
s 3
f 34/76/17 35/8/20 4/1/48 3/9/43
s 6
f 13/55/57 14/56/58 37/57/59 38/15/60
f 14/58/58 13/59/57 15/60/61 16/61/62
s 7
f 17/64/63 18/65/64 49/66/65 50/97/66
s 8
f 18/67/67 17/68/68 20/69/69 19/20/70
s 9
f 22/73/71 21/74/72 36/100/73 35/8/74
s 10
f 24/75/75 23/18/76 34/76/77 33/77/78
s 11
f 33/84/79 34/85/80 41/86/81 42/92/82
s 9
f 35/87/74 36/88/73 45/89/83 46/30/84
s 6
f 38/90/60 37/33/59 39/34/85 40/91/86
s 11
f 42/92/82 41/86/81 43/93/87 44/94/88
s 9
f 46/95/84 45/38/83 47/39/89 48/96/90
s 7
f 50/97/66 49/66/65 51/98/91 52/99/92
s 3
f 8/45/93 6/44/94 9/14/95 12/52/96
f 22/73/19 23/18/18 8/45/93 12/52/96
s 10
f 7/47/97 8/48/98 23/49/76 24/17/75
s 9
f 12/52/99 11/53/100 21/54/72 22/73/71
s 2
f 27/19/101 15/16/25 19/20/26 32/82/102
s 8
f 32/72/103 19/70/70 20/31/69 31/71/104
s 2
f 30/81/105 25/28/106 27/19/101 32/82/102
s 5
f 29/24/107 31/71/108 11/25/109 10/26/110
s 4
f 26/23/111 5/21/112 7/47/113 28/22/114
f 7/47/113 24/17/21 16/61/24 28/22/114
s 5
f 11/25/109 31/71/108 20/31/27 21/27/30
s 10
f 5/43/115 6/44/116 8/45/98 7/46/97
s 9
f 12/52/99 9/14/117 10/50/118 11/51/100
s 6
f 28/22/119 16/61/62 15/62/61 27/63/120
f 25/28/121 26/78/122 28/79/119 27/19/120
s 8
f 31/83/104 29/80/123 30/81/124 32/82/103
s off
f 6/44/125 5/7/126 10/6/127 9/14/128
f 29/5/129 10/6/130 5/7/131 26/4/132
f 29/5/133 26/4/134 25/28/135 30/81/136
