# This file uses centimeters as units for non-parametric coordinates.

mtllib cardboard_wall_1_x_1_aaa_1.mtl
g default
v 0.000000 123.328728 0.000000
v 0.000000 0.000000 0.000000
v 0.000000 123.328728 -123.328728
v 0.000000 0.000000 -123.328728
vt 0.012986 0.694936
vt 0.312299 0.694936
vt 0.012986 0.994249
vt 0.312299 0.994249
vn 1.000000 0.000000 0.000000
vn 1.000000 0.000000 0.000000
vn 1.000000 0.000000 0.000000
vn 1.000000 0.000000 0.000000
s off
g cardboard_wall_1_x_1_aaa_1
usemtl initialShadingGroup
f 4/4/1 3/3/2 1/1/3 2/2/4
