# This file uses centimeters as units for non-parametric coordinates.

mtllib crss_htch_fence_wc_3.mtl
g default
v 0.000000 0.000000 0.000000
v -8.000000 8.000000 0.000000
v -8.000000 8.000000 -8.000000
v 0.000000 0.000000 -8.000000
v -128.000000 0.000000 -8.000000
v -128.000000 0.000000 0.000000
v -120.411995 8.000000 -8.000000
v -120.411995 8.000000 0.000000
v 0.000000 126.000000 0.000000
v 0.000000 126.000000 -8.000000
v -128.000000 126.000000 -8.000000
v -128.000000 126.000000 0.000000
v -8.000000 118.409973 0.000000
v -8.000000 118.409973 -8.000000
v -120.411995 118.409973 -8.000000
v -120.411995 118.409973 0.000000
v -85.470665 125.301361 -6.831267
v -85.470665 125.301361 -1.168733
v -85.470665 119.108612 -1.168733
v -85.470665 119.108612 -6.831267
v -45.333332 125.301361 -6.831267
v -45.333332 125.301361 -1.168733
v -45.333332 119.108612 -1.168733
v -45.333332 119.108612 -6.831267
v -0.945592 82.803314 -7.020897
v -0.945592 82.803314 -0.979103
v -7.054408 82.803314 -0.979103
v -7.054408 82.803314 -7.020897
v -0.945592 43.401657 -7.020897
v -0.945592 43.401657 -0.979103
v -7.054408 43.401657 -0.979103
v -7.054408 43.401657 -7.020897
v -126.966858 82.803314 -7.622222
v -121.445145 82.803314 -7.622222
v -121.445145 82.803314 -0.377778
v -126.966858 82.803314 -0.377778
v -126.966858 43.401657 -7.622222
v -121.445145 43.401657 -7.622222
v -121.445145 43.401657 -0.377778
v -126.966858 43.401657 -0.377778
v -85.470665 0.535995 -6.831267
v -85.470665 7.464005 -6.831267
v -85.470665 7.464005 -1.168733
v -85.470665 0.535995 -1.168733
v -45.333332 0.535995 -6.831267
v -45.333332 7.464005 -6.831267
v -45.333332 7.464005 -1.168733
v -45.333332 0.535995 -1.168733
v -8.214502 125.865601 -0.224823
v -7.785499 125.872223 -7.786237
v -120.609344 125.897675 -7.828817
v -120.214661 125.891174 -0.182029
v -8.214502 144.468781 -0.224823
v -7.785499 144.475418 -7.786237
v 0.000000 144.603180 0.000000
v 0.000000 144.603180 -8.000000
v -120.609344 144.500870 -7.828817
v -120.214661 144.494370 -0.182029
v -128.000000 144.603180 -8.000000
v -128.000000 144.603180 0.000000
v -126.835289 135.477417 -7.106270
v -121.655975 135.477402 -6.973336
v -121.379364 135.477417 -1.035087
v -126.835289 135.477417 -0.893729
v -6.396004 135.477402 -6.625067
v -1.551555 135.477417 -6.773273
v -1.551555 135.477417 -1.226727
v -6.662947 135.477417 -1.382601
vt 0.718750 0.062500
vt 0.375000 0.250000
vt 0.375000 0.500000
vt 0.625000 0.500000
vt 0.125000 0.000000
vt 0.125000 0.250000
vt 0.125000 0.062500
vt 0.375000 0.062500
vt 0.125000 0.250000
vt 0.375000 0.250000
vt 0.562500 0.281250
vt 0.375000 0.500000
vt 0.375000 0.250000
vt 0.125000 0.250000
vt 0.375000 0.250000
vt 0.375000 0.500000
vt 0.625000 0.500000
vt 0.125000 0.250000
vt 0.375000 0.250000
vt 0.375000 0.500000
vt 0.375000 0.250000
vt 0.375000 0.250000
vt 0.375000 0.500000
vt 0.375000 0.500000
vt 0.437500 0.260417
vt 0.375000 0.250000
vt 0.375000 0.500000
vt 0.375000 0.500000
vt 0.500000 0.270833
vt 0.375000 0.250000
vt 0.375000 0.500000
vt 0.625000 0.500000
vt 0.614583 0.208333
vt 0.375000 0.250000
vt 0.375000 0.500000
vt 0.625000 0.500000
vt 0.666667 0.135417
vt 0.375000 0.250000
vt 0.375000 0.500000
vt 0.125000 0.187500
vt 0.125000 0.250000
vt 0.375000 0.250000
vt 0.375000 0.187500
vt 0.125000 0.125000
vt 0.125000 0.250000
vt 0.375000 0.250000
vt 0.375000 0.125000
vt 0.125000 0.041667
vt 0.125000 0.250000
vt 0.375000 0.250000
vt 0.489583 0.062500
vt 0.125000 0.020833
vt 0.125000 0.250000
vt 0.375000 0.250000
vt 0.604167 0.062500
vt 0.550477 0.279246
vt 0.375000 0.500000
vt 0.375000 0.500000
vt 0.384734 0.251622
vt 0.375000 0.500000
vt 0.550477 0.279246
vt 0.562500 0.281250
vt 0.375000 0.500000
vt 0.384734 0.251622
vt 0.375000 0.500000
vt 0.375000 0.500000
vt 0.375000 0.250000
vt 0.375000 0.500000
vt 0.375000 0.500000
vt 0.384734 0.251622
vt 0.375000 0.250000
vt 0.375000 0.500000
vt 0.375000 0.500000
vt 0.562500 0.281250
vt 0.550477 0.279246
vn -0.011823 -0.999930 0.000000
vn -0.011823 -0.999930 0.000000
vn -0.006866 -0.999976 0.000000
vn -0.006866 -0.999976 0.000000
vn -0.028261 -0.015145 0.999486
vn -0.028261 -0.015145 0.999486
vn -0.014934 -0.008003 0.999857
vn -0.014922 -0.007997 0.999857
vn -0.014356 0.999897 0.000000
vn -0.014356 0.999897 0.000000
vn -0.007662 0.999971 0.000000
vn -0.007662 0.999971 0.000000
vn -0.028261 -0.015145 -0.999486
vn -0.028261 -0.015145 -0.999486
vn -0.014922 -0.007997 -0.999857
vn -0.014934 -0.008003 -0.999857
vn 0.014084 0.024839 0.999592
vn 0.014084 0.024839 0.999592
vn 0.007598 0.013401 0.999881
vn 0.007609 0.013420 0.999881
vn 0.999763 0.021782 0.000000
vn 0.999763 0.021782 0.000000
vn 0.999924 0.012307 0.000000
vn 0.999924 0.012307 0.000000
vn 0.014084 0.024839 -0.999592
vn 0.014084 0.024839 -0.999592
vn 0.007609 0.013420 -0.999881
vn 0.007598 0.013401 -0.999881
vn -0.999644 0.026701 0.000000
vn -0.999644 0.026701 0.000000
vn -0.999905 0.013758 0.000000
vn -0.999905 0.013758 0.000000
vn 0.999574 0.029171 0.000000
vn 0.999574 0.029171 0.000000
vn 0.999899 0.014230 0.000000
vn 0.999899 0.014230 0.000000
vn -0.005850 0.009587 -0.999937
vn -0.005850 0.009587 -0.999937
vn -0.003197 0.005240 -0.999981
vn -0.003202 0.005248 -0.999981
vn -0.999717 0.023797 0.000000
vn -0.999717 0.023797 0.000000
vn -0.999918 0.012810 0.000000
vn -0.999918 0.012810 0.000000
vn -0.005850 0.009587 0.999937
vn -0.005850 0.009587 0.999937
vn -0.003202 0.005248 0.999981
vn -0.003197 0.005240 0.999981
vn 0.015451 -0.007854 -0.999850
vn 0.015438 -0.007847 -0.999850
vn 0.030155 -0.015328 -0.999428
vn 0.030155 -0.015328 -0.999428
vn 0.007938 0.999969 0.000000
vn 0.007938 0.999969 0.000000
vn 0.015338 0.999882 0.000000
vn 0.015338 0.999882 0.000000
vn 0.015438 -0.007847 0.999850
vn 0.015451 -0.007854 0.999850
vn 0.030155 -0.015328 0.999428
vn 0.030155 -0.015328 0.999428
vn 0.007125 -0.999975 0.000000
vn 0.007125 -0.999975 0.000000
vn 0.012602 -0.999921 0.000000
vn 0.012602 -0.999921 0.000000
vn -0.009987 -0.999950 0.000000
vn -0.018710 -0.999825 0.000000
vn -0.018710 -0.999825 0.000000
vn -0.009987 -0.999950 0.000000
vn -0.027827 0.029330 0.999182
vn -0.027827 0.029330 0.999182
vn -0.027827 0.029330 0.999182
vn -0.016383 0.999866 -0.000024
vn -0.016383 0.999866 -0.000024
vn -0.016383 0.999866 -0.000024
vn -0.016383 0.999866 -0.000024
vn -0.027917 0.029425 -0.999177
vn -0.027917 0.029425 -0.999177
vn -0.027917 0.029425 -0.999177
vn 0.999761 -0.021885 0.000000
vn 0.999924 -0.012340 0.000000
vn 0.999924 -0.012340 0.000000
vn 0.999761 -0.021885 0.000000
vn 0.013363 -0.024839 0.999602
vn 0.007219 -0.013419 0.999884
vn 0.007209 -0.013401 0.999884
vn 0.013363 -0.024839 0.999602
vn -0.999648 -0.026547 0.000000
vn -0.999906 -0.013717 0.000000
vn -0.999906 -0.013717 0.000000
vn -0.999648 -0.026547 0.000000
vn 0.007209 -0.013401 -0.999884
vn 0.007219 -0.013419 -0.999884
vn 0.013363 -0.024839 -0.999602
vn 0.013363 -0.024839 -0.999602
vn -0.028318 0.016091 -0.999470
vn -0.028318 0.016091 -0.999470
vn -0.014447 0.008209 -0.999862
vn -0.014432 0.008200 -0.999862
vn -0.015200 0.999884 0.000008
vn -0.015200 0.999884 0.000008
vn -0.007975 0.999968 0.000004
vn -0.007975 0.999968 0.000004
vn -0.028332 0.016019 0.999470
vn -0.028332 0.016019 0.999470
vn -0.014394 0.008138 0.999863
vn -0.014410 0.008147 0.999863
vn 0.016971 0.999856 -0.000015
vn 0.016971 0.999856 -0.000015
vn 0.008659 0.999963 -0.000007
vn 0.008659 0.999963 -0.000007
vn 0.030894 0.012859 0.999440
vn 0.015222 0.006336 0.999864
vn 0.015208 0.006330 0.999864
vn 0.030894 0.012859 0.999440
vn 0.019991 -0.999800 0.000000
vn 0.010347 -0.999946 0.000000
vn 0.010347 -0.999946 0.000000
vn 0.019991 -0.999800 0.000000
vn 0.015246 0.006395 -0.999863
vn 0.015261 0.006402 -0.999863
vn 0.030875 0.012951 -0.999439
vn 0.030875 0.012951 -0.999439
vn -0.005551 -0.009587 -0.999939
vn -0.003038 -0.005247 -0.999982
vn -0.003034 -0.005240 -0.999982
vn -0.005551 -0.009587 -0.999939
vn 0.999579 -0.029003 0.000000
vn 0.999899 -0.014189 0.000000
vn 0.999899 -0.014189 0.000000
vn 0.999579 -0.029003 0.000000
vn -0.003034 -0.005240 0.999982
vn -0.003038 -0.005247 0.999982
vn -0.005551 -0.009587 0.999939
vn -0.005551 -0.009587 0.999939
vn -0.999714 -0.023910 0.000000
vn -0.999918 -0.012843 0.000000
vn -0.999918 -0.012843 0.000000
vn -0.999714 -0.023910 0.000000
vn 0.023474 0.023468 -0.999449
vn 0.023474 0.023468 -0.999449
vn 0.023474 0.023468 -0.999449
vn 0.013910 0.999903 0.000066
vn 0.013910 0.999903 0.000066
vn 0.013910 0.999903 0.000066
vn 0.013910 0.999903 0.000066
vn 0.023699 0.023693 0.999438
vn 0.023699 0.023693 0.999438
vn 0.023699 0.023693 0.999438
vn -0.987070 0.151075 -0.053574
vn -0.987070 0.151075 -0.053574
vn -0.998526 -0.000390 -0.054275
vn -0.998526 -0.000341 -0.054274
vn -0.029585 0.123896 0.991854
vn -0.029585 0.123896 0.991854
vn -0.028554 -0.000226 0.999592
vn -0.028553 -0.000383 0.999592
vn 0.986863 0.161560 0.000000
vn 0.986863 0.161560 0.000000
vn 1.000000 -0.000231 0.000000
vn 1.000000 -0.000231 0.000000
vn -0.029680 0.123864 -0.991855
vn -0.029680 0.123864 -0.991855
vn -0.028645 -0.000339 -0.999590
vn -0.028646 -0.000226 -0.999590
vn 0.992217 0.114486 -0.048975
vn 0.992217 0.114486 -0.048975
vn 0.998781 -0.000181 -0.049354
vn 0.998781 -0.000206 -0.049354
vn 0.024828 0.091223 -0.995521
vn 0.024828 0.091223 -0.995521
vn 0.024186 -0.000130 -0.999708
vn 0.024185 -0.000179 -0.999707
vn -0.992533 0.121977 0.000000
vn -0.992533 0.121977 0.000000
vn -1.000000 -0.000132 0.000000
vn -1.000000 -0.000132 0.000000
vn 0.025063 0.091218 0.995516
vn 0.025063 0.091218 0.995516
vn 0.024414 -0.000203 0.999702
vn 0.024414 -0.000130 0.999702
vn 0.023297 -0.095759 -0.995132
vn 0.023297 -0.095759 -0.995132
vn 0.991376 -0.121526 -0.049046
vn 0.991376 -0.121526 -0.049046
vn 0.023516 -0.095811 0.995122
vn 0.023516 -0.095811 0.995122
vn -0.991953 -0.126603 0.000000
vn -0.991953 -0.126603 0.000000
vn -0.027086 -0.130340 -0.991099
vn -0.027086 -0.130340 -0.991099
vn 0.985853 -0.167614 0.000000
vn 0.985853 -0.167614 0.000000
vn -0.026998 -0.130443 0.991088
vn -0.026998 -0.130443 0.991088
vn -0.985475 -0.161124 -0.053648
vn -0.985475 -0.161124 -0.053648
s 1
g fencing_wc_7
usemtl initialShadingGroup
f 4/5/1 1/1/2 48/55/3 45/52/4
s 2
f 1/1/5 2/2/6 47/54/7 48/55/8
s 3
f 2/2/9 3/6/10 46/53/11 47/54/12
s 4
f 3/6/13 4/5/14 45/52/15 46/53/16
s 5
f 2/2/17 1/1/18 30/37/19 31/38/20
s 6
f 1/1/21 4/4/22 29/36/23 30/37/24
s 7
f 4/4/25 3/3/26 32/39/27 29/36/28
s 8
f 3/3/29 2/2/30 31/38/31 32/39/32
s 9
f 8/10/33 7/9/34 38/45/35 39/46/36
s 10
f 7/9/37 5/7/38 37/44/39 38/45/40
s 11
f 5/7/41 6/8/42 40/47/43 37/44/44
s 12
f 6/8/45 8/10/46 39/46/47 40/47/48
s 4
f 42/49/49 41/48/50 5/7/51 7/9/52
s 3
f 43/50/53 42/49/54 7/9/55 8/10/56
s 2
f 44/51/57 43/50/58 8/10/59 6/8/60
s 1
f 41/48/61 44/51/62 6/8/63 5/7/64
s 4
f 46/53/16 45/52/15 41/48/50 42/49/49
s 3
f 47/54/12 46/53/11 42/49/54 43/50/53
s 2
f 48/55/8 47/54/7 43/50/58 44/51/57
s 1
f 45/52/4 48/55/3 44/51/62 41/48/61
s 13
f 24/31/65 14/16/66 13/15/67 23/30/68
s off
f 49/56/69 13/15/70 9/11/71
f 54/60/72 53/61/73 55/62/74 56/63/75
f 14/16/76 50/57/77 10/12/78
s 6
f 9/11/79 26/33/80 25/32/81 10/17/82
s 5
f 13/15/83 27/34/84 26/33/85 9/11/86
s 8
f 14/16/87 28/35/88 27/34/89 13/15/90
s 7
f 25/32/91 28/35/92 14/16/93 10/17/94
s 6
f 26/33/80 30/37/24 29/36/23 25/32/81
s 5
f 27/34/84 31/38/20 30/37/19 26/33/85
s 8
f 28/35/88 32/39/32 31/38/31 27/34/89
s 7
f 25/32/91 29/36/28 32/39/27 28/35/92
s 14
f 50/57/95 14/16/96 24/31/97 21/28/98
s 15
f 49/56/99 50/57/100 21/28/101 22/29/102
s 16
f 13/15/103 49/56/104 22/29/105 23/30/106
s 15
f 51/58/107 52/59/108 18/25/109 17/24/110
s 16
f 16/21/111 19/26/112 18/25/113 52/59/114
s 13
f 15/20/115 20/27/116 19/26/117 16/21/118
s 14
f 17/24/119 20/27/120 15/20/121 51/58/122
s 10
f 15/18/123 34/41/124 33/40/125 11/14/126
s 9
f 16/19/127 35/42/128 34/41/129 15/18/130
s 12
f 36/43/131 35/42/132 16/19/133 12/13/134
s 11
f 11/14/135 33/40/136 36/43/137 12/13/138
s 10
f 34/41/124 38/45/40 37/44/39 33/40/125
s 9
f 35/42/128 39/46/36 38/45/35 34/41/129
s 12
f 36/43/131 40/47/48 39/46/47 35/42/132
s 11
f 33/40/136 37/44/44 40/47/43 36/43/137
s 15
f 17/24/110 18/25/109 22/29/102 21/28/101
s 16
f 18/25/113 19/26/112 23/30/106 22/29/105
s 13
f 19/26/117 20/27/116 24/31/65 23/30/68
s 14
f 20/27/120 17/24/119 21/28/98 24/31/97
s off
f 51/58/139 15/20/140 11/23/141
f 58/64/142 57/65/143 59/66/144 60/67/145
f 16/21/146 52/59/147 12/22/148
s 17
f 50/57/149 49/56/150 68/75/151 65/72/152
s 18
f 49/56/153 9/11/154 67/74/155 68/75/156
s 19
f 9/11/157 10/12/158 66/73/159 67/74/160
s 20
f 10/12/161 50/57/162 65/72/163 66/73/164
s 21
f 52/59/165 51/58/166 62/69/167 63/70/168
s 22
f 51/58/169 11/23/170 61/68/171 62/69/172
s 23
f 11/23/173 12/22/174 64/71/175 61/68/176
s 24
f 12/22/177 52/59/178 63/70/179 64/71/180
s 22
f 62/69/172 61/68/171 59/66/181 57/65/182
s 21
f 63/70/168 62/69/167 57/65/183 58/64/184
s 24
f 64/71/180 63/70/179 58/64/185 60/67/186
s 23
f 61/68/176 64/71/175 60/67/187 59/66/188
s 20
f 66/73/164 65/72/163 54/60/189 56/63/190
s 19
f 67/74/160 66/73/159 56/63/191 55/62/192
s 18
f 68/75/156 67/74/155 55/62/193 53/61/194
s 17
f 65/72/152 68/75/151 53/61/195 54/60/196
