# This file uses centimeters as units for non-parametric coordinates.

mtllib crss_htch_fence_LTurn_wc_1.mtl
g default
v 0.000000 0.000000 0.000000
v -8.000000 8.000000 0.000000
v -8.000000 8.000000 -8.000000
v 0.000000 8.000000 -8.000000
v -8.000000 0.000000 -8.000000
v -8.000000 0.000000 -128.000000
v 0.000000 0.000000 -128.000000
v -128.000000 0.000000 -8.000000
v -128.000000 0.000000 0.000000
v -8.000000 8.000000 -120.247375
v 0.000000 8.000000 -120.247375
v -120.411995 8.000000 -8.000000
v -120.411995 8.000000 0.000000
v 0.000000 126.000000 0.000000
v -8.000000 126.000000 -8.000000
v 0.000000 126.000000 -128.000000
v -8.000000 126.000000 -128.000000
v -128.000000 126.000000 -8.000000
v -128.000000 126.000000 0.000000
v -8.000000 118.409973 -120.247375
v 0.000000 118.409973 -120.247375
v -8.000000 118.409973 0.000000
v -8.000000 118.409973 -8.000000
v 0.000000 118.409973 -8.000000
v -120.411995 118.409973 -8.000000
v -120.411995 118.409973 0.000000
v -1.072208 119.029816 -45.333336
v -6.927792 119.029816 -45.333336
v -6.927792 125.380157 -45.333336
v -1.072208 125.380157 -45.333336
v -1.072208 119.029816 -85.415787
v -6.927792 119.029816 -85.415787
v -6.927792 125.380157 -85.415787
v -1.072208 125.380157 -85.415787
v -8.000000 84.693573 -127.123444
v 0.000000 84.693573 -127.123444
v 0.000000 84.693573 -121.123932
v -8.000000 84.693573 -121.123932
v -8.000000 43.401672 -127.123444
v 0.000000 43.401672 -127.123444
v 0.000000 43.401672 -121.123932
v -8.000000 43.401672 -121.123932
v -6.927792 0.536011 -85.415787
v -1.072208 0.536011 -85.415787
v -1.072208 7.463989 -85.415787
v -6.927792 7.463989 -85.415787
v -6.927792 0.536011 -45.333336
v -1.072208 0.536011 -45.333336
v -1.072208 7.463989 -45.333336
v -6.927792 7.463989 -45.333336
v -85.470665 125.045654 -6.831267
v -85.470665 125.045654 -1.168733
v -85.470665 119.364319 -1.168733
v -85.470665 119.364319 -6.831267
v -45.333332 125.045654 -6.831267
v -45.333332 125.045654 -1.168733
v -45.333332 119.364319 -1.168733
v -45.333332 119.364319 -6.831267
v -0.945592 84.693573 -7.335959
v -0.945592 84.693573 -0.664041
v -7.054408 84.693573 -0.664041
v -7.054408 84.693573 -7.335959
v -0.945592 43.401672 -7.335959
v -0.945592 43.401672 -0.664041
v -7.054408 43.401672 -0.664041
v -7.054408 43.401672 -7.335959
v -126.966858 84.693573 -8.000000
v -121.241852 84.693573 -7.335959
v -121.241852 84.693573 -0.664041
v -126.966858 84.693573 0.000000
v -126.966858 43.401672 -8.000000
v -121.445145 43.401672 -8.000000
v -121.445145 43.401672 0.000000
v -126.966858 43.401672 0.000000
v -85.470665 0.812016 -6.831267
v -85.470665 7.187984 -6.831267
v -85.470665 7.187984 -1.168733
v -85.470665 0.812016 -1.168733
v -45.333332 0.812016 -6.831267
v -45.333332 7.187984 -6.831267
v -45.333332 7.187984 -1.168733
v -45.333332 0.812016 -1.168733
v -127.428757 91.784637 -8.000000
v -120.884857 91.784637 -8.000000
v -120.884857 91.784637 0.000000
v -127.428757 91.784637 0.000000
v -7.460975 91.784637 -7.621471
v -0.539025 91.784637 -7.621471
v -0.444388 91.784637 -0.312071
v -7.460975 91.784637 -0.378529
v 0.000000 91.784637 -127.430626
v 0.000000 91.784637 -120.751297
v -8.000000 91.784637 -120.751297
v -8.000000 91.784637 -127.430626
v -83.076897 90.530609 -7.873824
v -83.076897 90.530609 -0.126176
v -83.179367 85.947601 -0.664041
v -83.179367 85.947601 -7.335959
v -45.268936 90.530609 -7.747647
v -45.268936 90.530609 -0.252353
v -45.116886 85.947601 -0.664041
v -45.116886 85.947601 -7.335959
v -7.820325 91.115585 -83.041351
v -7.684803 85.362625 -83.194603
v -0.315197 85.362625 -83.194603
v -0.179675 91.115585 -83.041351
v -7.640650 91.115585 -45.331409
v -7.369605 85.362625 -45.265282
v -0.630395 85.362625 -45.265282
v -0.359350 91.115585 -45.331409
vt 0.718750 0.062500
vt 0.375000 0.250000
vt 0.375000 0.500000
vt 0.625000 0.500000
vt 0.375000 0.750000
vt 0.562500 0.875000
vt 0.125000 0.000000
vt 0.125000 0.250000
vt 0.375000 0.687500
vt 0.625000 0.687500
vt 0.125000 0.062500
vt 0.375000 0.062500
vt 0.375000 0.500000
vt 0.625000 0.500000
vt 0.125000 0.250000
vt 0.375000 0.250000
vt 0.562500 0.281250
vt 0.375000 0.500000
vt 0.375000 0.500000
vt 0.625000 0.500000
vt 0.375000 0.250000
vt 0.125000 0.250000
vt 0.375000 0.500000
vt 0.625000 0.500000
vt 0.375000 0.250000
vt 0.375000 0.500000
vt 0.625000 0.500000
vt 0.125000 0.250000
vt 0.375000 0.250000
vt 0.375000 0.500000
vt 0.375000 0.250000
vt 0.375000 0.250000
vt 0.375000 0.500000
vt 0.000000 0.000000
vt 1.000000 0.000000
vt 1.000000 1.000000
vt 0.000000 1.000000
vt 0.000000 0.000000
vt 1.000000 0.000000
vt 1.000000 1.000000
vt 0.000000 1.000000
vt 0.000000 0.000000
vt 1.000000 0.000000
vt 1.000000 1.000000
vt 0.000000 1.000000
vt 0.000000 0.000000
vt 1.000000 0.000000
vt 1.000000 1.000000
vt 0.000000 1.000000
vt 1.000000 0.666667
vt 0.000000 0.666667
vt 1.000000 0.666667
vt 0.000000 0.666667
vt 1.000000 0.666667
vt 0.000000 0.666667
vt 1.000000 0.666667
vt 0.000000 0.666667
vt 1.000000 0.333333
vt 0.000000 0.333333
vt 1.000000 0.333333
vt 0.000000 0.333333
vt 1.000000 0.333333
vt 0.000000 0.333333
vt 1.000000 0.333333
vt 0.000000 0.333333
vt 0.375000 0.562500
vt 0.625000 0.562500
vt 0.625000 0.500000
vt 0.375000 0.500000
vt 0.375000 0.625000
vt 0.625000 0.625000
vt 0.625000 0.500000
vt 0.375000 0.500000
vt 0.375000 0.708333
vt 0.604167 0.750000
vt 0.625000 0.500000
vt 0.375000 0.500000
vt 0.375000 0.729167
vt 0.583333 0.812500
vt 0.625000 0.500000
vt 0.375000 0.500000
vt 0.375000 0.500000
vt 0.437500 0.260417
vt 0.375000 0.250000
vt 0.375000 0.500000
vt 0.375000 0.500000
vt 0.500000 0.270833
vt 0.375000 0.250000
vt 0.375000 0.500000
vt 0.625000 0.500000
vt 0.614583 0.208333
vt 0.375000 0.250000
vt 0.375000 0.500000
vt 0.625000 0.500000
vt 0.666667 0.135417
vt 0.375000 0.250000
vt 0.375000 0.500000
vt 0.125000 0.187500
vt 0.125000 0.250000
vt 0.375000 0.250000
vt 0.375000 0.187500
vt 0.125000 0.125000
vt 0.125000 0.250000
vt 0.375000 0.250000
vt 0.375000 0.125000
vt 0.125000 0.041667
vt 0.125000 0.250000
vt 0.375000 0.250000
vt 0.489583 0.062500
vt 0.125000 0.020833
vt 0.125000 0.250000
vt 0.375000 0.250000
vt 0.604167 0.062500
vt 0.125000 0.215442
vt 0.125000 0.250000
vt 0.375000 0.250000
vt 0.375000 0.215442
vt 0.375000 0.500000
vt 0.625000 0.500000
vt 0.586977 0.246982
vt 0.375000 0.250000
vt 0.625000 0.540597
vt 0.625000 0.500000
vt 0.375000 0.500000
vt 0.375000 0.540597
vt 0.000000 0.000000
vt 1.000000 0.000000
vt 1.000000 1.000000
vt 0.000000 1.000000
vt 0.000000 0.000000
vt 1.000000 0.000000
vt 1.000000 1.000000
vt 0.000000 1.000000
vt 0.000000 0.000000
vt 1.000000 0.000000
vt 1.000000 1.000000
vt 0.000000 1.000000
vt 0.000000 0.000000
vt 1.000000 0.000000
vt 1.000000 1.000000
vt 0.000000 1.000000
vt 0.000000 0.000000
vt 1.000000 0.000000
vt 1.000000 1.000000
vt 0.000000 1.000000
vt 0.000000 0.000000
vt 1.000000 0.000000
vt 1.000000 1.000000
vt 0.000000 1.000000
vt 0.000000 0.000000
vt 1.000000 0.000000
vt 1.000000 1.000000
vt 0.000000 1.000000
vt 0.000000 0.000000
vt 1.000000 0.000000
vt 1.000000 1.000000
vt 0.000000 1.000000
vt 1.000000 0.666667
vt 0.000000 0.666667
vt 1.000000 0.666667
vt 0.000000 0.666667
vt 1.000000 0.666667
vt 0.000000 0.666667
vt 1.000000 0.666667
vt 0.000000 0.666667
vt 1.000000 0.333333
vt 0.000000 0.333333
vt 1.000000 0.333333
vt 0.000000 0.333333
vt 1.000000 0.333333
vt 0.000000 0.333333
vt 1.000000 0.333333
vt 0.000000 0.333333
vt 1.000000 0.666667
vt 0.000000 0.666667
vt 1.000000 0.666667
vt 0.000000 0.666667
vt 1.000000 0.666667
vt 0.000000 0.666667
vt 1.000000 0.666667
vt 0.000000 0.666667
vt 1.000000 0.333333
vt 0.000000 0.333333
vt 1.000000 0.333333
vt 0.000000 0.333333
vt 1.000000 0.333333
vt 0.000000 0.333333
vt 1.000000 0.333333
vt 0.000000 0.333333
vn 0.000000 0.999897 -0.014356
vn 0.000000 0.999897 -0.014356
vn 0.000000 0.999971 -0.007592
vn 0.000000 0.999971 -0.007592
vn 0.999567 -0.013896 -0.025929
vn 0.999567 -0.013896 -0.025929
vn 0.999879 -0.007341 -0.013699
vn 0.999879 -0.007347 -0.013709
vn 0.007487 -0.999888 -0.012967
vn 0.007487 -0.999888 -0.012967
vn 0.004148 -0.999966 -0.007184
vn 0.004142 -0.999966 -0.007174
vn -0.999588 0.000000 -0.028708
vn -0.999588 0.000000 -0.028708
vn -0.999896 0.000000 -0.014449
vn -0.999896 0.000000 -0.014449
vn -0.019640 -0.999741 0.011500
vn -0.019640 -0.999741 0.011500
vn -0.010962 -0.999919 0.006419
vn -0.010979 -0.999919 0.006429
vn -0.028261 -0.015727 0.999477
vn -0.028261 -0.015727 0.999477
vn -0.015285 -0.008506 0.999847
vn -0.015268 -0.008497 0.999847
vn -0.021745 0.999764 0.000000
vn -0.021745 0.999764 0.000000
vn -0.011607 0.999933 0.000000
vn -0.011607 0.999933 0.000000
vn -0.031290 0.000000 -0.999510
vn -0.031290 0.000000 -0.999510
vn -0.016129 0.000000 -0.999870
vn -0.016129 0.000000 -0.999870
vn 0.009554 0.016850 0.999812
vn 0.009554 0.016850 0.999812
vn 0.005042 0.008893 0.999948
vn 0.005050 0.008906 0.999948
vn 0.999627 0.023990 0.013081
vn 0.999627 0.023990 0.013081
vn 0.999901 0.012357 0.006738
vn 0.999901 0.012344 0.006731
vn 0.000000 0.018754 -0.999824
vn 0.000000 0.018754 -0.999824
vn 0.000000 0.009410 -0.999956
vn 0.000000 0.009410 -0.999956
vn -0.999644 0.026701 0.000000
vn -0.999644 0.026701 0.000000
vn -0.999915 0.013039 0.000000
vn -0.999915 0.013039 0.000000
vn 0.000000 0.024753 0.999694
vn 0.000000 0.024753 0.999694
vn 0.000000 0.011429 0.999935
vn 0.000000 0.011429 0.999935
vn 1.000000 0.000000 0.000000
vn 1.000000 0.000000 0.000000
vn 1.000000 0.000000 0.000000
vn 1.000000 0.000000 0.000000
vn 0.000000 0.020192 -0.999796
vn 0.000000 0.020192 -0.999796
vn 0.000000 0.010349 -0.999946
vn 0.000000 0.010349 -0.999946
vn -1.000000 0.000000 0.000000
vn -1.000000 0.000000 0.000000
vn -1.000000 0.000000 0.000000
vn -1.000000 0.000000 0.000000
vn 0.999574 0.029171 0.000000
vn 0.999574 0.029171 0.000000
vn 0.999932 0.011644 0.000000
vn 0.999932 0.011644 0.000000
vn 0.000000 0.000000 -1.000000
vn 0.000000 0.000000 -1.000000
vn 0.027720 0.003707 -0.999609
vn 0.027717 0.003706 -0.999609
vn -0.999717 0.023797 0.000000
vn -0.999717 0.023797 0.000000
vn -0.999926 0.012198 0.000000
vn -0.999926 0.012198 0.000000
vn 0.000000 0.000000 1.000000
vn 0.000000 0.000000 1.000000
vn 0.027717 0.003706 0.999609
vn 0.027720 0.003707 0.999609
vn -0.025554 -0.999673 0.000000
vn -0.025554 -0.999673 0.000000
vn -0.013641 -0.999907 0.000000
vn -0.013641 -0.999907 0.000000
vn -0.028260 0.017035 0.999456
vn -0.028260 0.017035 0.999455
vn -0.015530 0.009362 0.999836
vn -0.015550 0.009373 0.999835
vn -0.023081 0.999642 0.013515
vn -0.023081 0.999642 0.013515
vn -0.012903 0.999888 0.007555
vn -0.012884 0.999889 0.007544
vn -0.031290 0.000000 -0.999510
vn -0.031290 0.000000 -0.999510
vn -0.016425 0.000000 -0.999865
vn -0.016425 0.000000 -0.999865
vn 0.000000 0.999894 0.014554
vn 0.000000 0.999894 0.014554
vn 0.000000 0.999967 0.008163
vn 0.000000 0.999967 0.008163
vn -0.999498 0.015397 0.027686
vn -0.999498 0.015397 0.027686
vn -0.999866 0.007969 0.014329
vn -0.999866 0.007961 0.014315
vn 0.999498 0.015397 0.027686
vn 0.999498 0.015397 0.027686
vn 0.999866 0.007961 0.014315
vn 0.999866 0.007969 0.014329
vn 0.000000 -0.999842 0.017793
vn 0.000000 -0.999842 0.017793
vn 0.000000 -0.999959 0.009107
vn 0.000000 -0.999959 0.009107
vn 0.000000 -0.999962 -0.008779
vn 0.000000 -0.999962 -0.008779
vn 0.000000 -0.999862 -0.016601
vn 0.000000 -0.999862 -0.016601
vn -0.999894 0.000000 -0.014592
vn -0.999894 0.000000 -0.014592
vn -0.999588 0.000000 -0.028708
vn -0.999588 0.000000 -0.028708
vn 0.004790 0.999954 -0.008296
vn 0.004797 0.999954 -0.008308
vn 0.008657 0.999850 -0.014994
vn 0.008657 0.999850 -0.014994
vn 0.999873 0.007942 -0.013839
vn 0.999873 0.007935 -0.013827
vn 0.999553 0.014880 -0.025929
vn 0.999553 0.014880 -0.025929
vn 0.000000 -0.006349 -0.999980
vn 0.000000 -0.006349 -0.999980
vn 0.000000 -0.021216 -0.999775
vn 0.000000 -0.021216 -0.999775
vn 1.000000 0.000000 0.000000
vn 1.000000 0.000000 0.000000
vn 1.000000 0.000000 0.000000
vn 1.000000 0.000000 0.000000
vn -1.000000 0.000000 0.000000
vn -1.000000 0.000000 0.000000
vn -1.000000 0.000000 0.000000
vn -1.000000 0.000000 0.000000
vn 0.000000 0.000000 1.000000
vn 0.000000 0.000000 1.000000
vn 0.000000 -0.999975 0.007059
vn 0.000000 -0.999975 0.007059
vn 0.000000 -0.999921 0.012586
vn 0.000000 -0.999921 0.012586
vn 0.999872 -0.007369 0.014190
vn 0.999872 -0.007363 0.014178
vn 0.999513 -0.014379 0.027686
vn 0.999513 -0.014379 0.027686
vn 0.000000 0.999969 0.007875
vn 0.000000 0.999969 0.007875
vn 0.000000 0.999882 0.015387
vn 0.000000 0.999882 0.015387
vn -0.999872 -0.007363 0.014178
vn -0.999872 -0.007369 0.014190
vn -0.999513 -0.014379 0.027686
vn -0.999513 -0.014379 0.027686
vn 0.012685 0.999920 0.000000
vn 0.012685 0.999920 0.000000
vn 0.022434 0.999748 0.000000
vn 0.022434 0.999748 0.000000
vn 0.016115 0.009214 0.999828
vn 0.016092 0.009201 0.999828
vn 0.030154 0.017241 0.999397
vn 0.030154 0.017241 0.999397
vn 0.014133 -0.999900 0.000000
vn 0.014133 -0.999900 0.000000
vn 0.027303 -0.999627 0.000000
vn 0.027303 -0.999627 0.000000
vn 0.016092 0.009201 -0.999828
vn 0.016115 0.009214 -0.999828
vn 0.030154 0.017241 -0.999397
vn 0.030154 0.017241 -0.999397
vn 0.999949 -0.010015 -0.001060
vn 0.999950 -0.009966 -0.001054
vn 0.999705 -0.024309 0.000364
vn 0.999705 -0.024280 0.000369
vn -0.000813 -0.007210 0.999974
vn -0.000818 -0.007259 0.999973
vn 0.000280 -0.016772 0.999859
vn 0.000276 -0.016794 0.999859
vn -1.000000 0.000000 0.000000
vn -1.000000 0.000000 0.000000
vn 0.000000 0.000000 -1.000000
vn 0.000000 0.000000 -1.000000
vn 0.058149 -0.000883 -0.998308
vn 0.058142 -0.000968 -0.998308
vn 0.008722 -0.007481 -0.999934
vn 0.008790 -0.007539 -0.999933
vn 0.058142 -0.000968 0.998308
vn 0.058149 -0.000883 0.998308
vn 0.008790 -0.007539 0.999933
vn 0.008722 -0.007481 0.999934
vn -0.999955 -0.009546 0.000000
vn -0.999955 -0.009546 0.000000
vn -0.999687 -0.025004 0.000000
vn -0.999687 -0.025004 0.000000
vn 0.999988 -0.004923 0.000000
vn 0.999988 -0.004923 0.000000
vn 0.015830 -0.008355 -0.999840
vn 0.015810 -0.008345 -0.999840
vn 0.030155 -0.015916 -0.999418
vn 0.030155 -0.015916 -0.999419
vn 0.012026 0.999928 0.000000
vn 0.012026 0.999928 0.000000
vn 0.023233 0.999730 0.000000
vn 0.023233 0.999730 0.000000
vn 0.015810 -0.008345 0.999840
vn 0.015830 -0.008355 0.999840
vn 0.030155 -0.015916 0.999419
vn 0.030155 -0.015916 0.999418
vn 0.010793 -0.999942 0.000000
vn 0.010793 -0.999942 0.000000
vn 0.019090 -0.999818 0.000000
vn 0.019090 -0.999818 0.000000
vn 0.000000 0.000000 -1.000000
vn 0.000000 0.000000 -1.000000
vn 0.999842 -0.017757 0.000000
vn 0.999842 -0.017757 0.000000
vn 0.999842 -0.017757 0.000000
vn 0.999842 -0.017757 0.000000
vn 0.000000 0.000000 1.000000
vn 0.000000 0.000000 1.000000
vn -0.999861 -0.016693 0.000000
vn -0.999861 -0.016693 0.000000
vn 0.000000 -0.014215 -0.999899
vn 0.000000 -0.014215 -0.999899
vn 0.000000 -0.014215 -0.999899
vn 0.000000 -0.014215 -0.999899
vn 0.999868 -0.016160 0.001831
vn 0.999868 -0.016160 0.001831
vn 0.001310 -0.011348 0.999935
vn 0.001310 -0.011348 0.999935
vn -0.999795 -0.020241 0.000000
vn -0.999795 -0.020241 0.000000
vn -0.999795 -0.020241 0.000000
vn -0.999795 -0.020241 0.000000
vn 1.000000 0.000000 0.000000
vn 1.000000 0.000000 0.000000
vn 0.000000 -0.018923 0.999821
vn 0.000000 -0.018923 0.999821
vn 0.000000 -0.018923 0.999821
vn 0.000000 -0.018923 0.999821
vn -1.000000 0.000000 0.000000
vn -1.000000 0.000000 0.000000
vn 0.000000 -0.016639 -0.999862
vn 0.000000 -0.016639 -0.999862
vn 0.998599 -0.052504 0.006533
vn 0.998599 -0.052504 0.006533
vn 0.998987 -0.044521 0.006536
vn 0.998993 -0.044394 0.006536
vn -0.998599 -0.052504 0.006533
vn -0.998599 -0.052504 0.006533
vn -0.998993 -0.044394 0.006536
vn -0.998987 -0.044521 0.006536
vn 0.000000 -0.999844 -0.017637
vn 0.000000 -0.999844 -0.017637
vn 0.000000 -0.999965 -0.008360
vn 0.000000 -0.999965 -0.008360
vn 0.000000 0.999843 -0.017739
vn 0.000000 0.999843 -0.017739
vn 0.000000 0.999963 -0.008625
vn 0.000000 0.999963 -0.008625
vn 0.001660 -0.059537 0.998225
vn 0.001660 -0.059537 0.998225
vn 0.001658 -0.078952 0.996877
vn 0.001658 -0.078059 0.996947
vn 0.001660 -0.059537 -0.998225
vn 0.001660 -0.059537 -0.998225
vn 0.001658 -0.078059 -0.996947
vn 0.001658 -0.078952 -0.996877
vn -0.032929 -0.999458 0.000000
vn -0.032929 -0.999458 0.000000
vn -0.016471 -0.999864 0.000000
vn -0.016471 -0.999864 0.000000
vn -0.033150 0.999450 0.000000
vn -0.033150 0.999450 0.000000
vn -0.016268 0.999868 0.000000
vn -0.016268 0.999868 0.000000
vn 0.016887 0.999857 0.000000
vn 0.016887 0.999857 0.000000
vn 0.033150 0.999450 0.000000
vn 0.033150 0.999450 0.000000
vn 0.001654 -0.102716 0.994709
vn 0.001654 -0.102724 0.994709
vn 0.001654 -0.102478 0.994734
vn 0.001654 -0.102478 0.994734
vn 0.016471 -0.999864 0.000000
vn 0.016471 -0.999864 0.000000
vn 0.032929 -0.999458 0.000000
vn 0.032929 -0.999458 0.000000
vn 0.001654 -0.102724 -0.994709
vn 0.001654 -0.102716 -0.994709
vn 0.001654 -0.102478 -0.994734
vn 0.001654 -0.102478 -0.994734
vn -0.999733 -0.022148 0.006541
vn -0.999724 -0.022558 0.006541
vn -0.999920 -0.010818 0.006542
vn -0.999920 -0.010818 0.006542
vn 0.000000 -0.999957 0.009243
vn 0.000000 -0.999957 0.009243
vn 0.000000 -0.999845 0.017637
vn 0.000000 -0.999845 0.017637
vn 0.999724 -0.022558 0.006541
vn 0.999733 -0.022148 0.006541
vn 0.999920 -0.010818 0.006542
vn 0.999920 -0.010818 0.006542
vn 0.000000 0.999959 0.009106
vn 0.000000 0.999959 0.009106
vn 0.000000 0.999843 0.017739
vn 0.000000 0.999843 0.017739
s 1
g fencing_wc_12
usemtl initialShadingGroup
f 3/3/1 4/4/2 49/80/3 50/81/4
s 2
f 4/4/5 1/6/6 48/79/7 49/80/8
s 3
f 1/6/9 5/5/10 47/78/11 48/79/12
s 4
f 5/5/13 3/3/14 50/81/15 47/78/16
s 5
f 5/7/17 1/1/18 82/113/19 79/110/20
s 6
f 1/1/21 2/2/22 81/112/23 82/113/24
s 7
f 2/2/25 3/8/26 80/111/27 81/112/28
s 8
f 3/8/29 5/7/30 79/110/31 80/111/32
s 9
f 2/2/33 1/1/34 64/95/35 65/96/36
s 10
f 1/1/37 4/4/38 63/94/39 64/95/40
s 11
f 4/4/41 3/3/42 66/97/43 63/94/44
s 12
f 3/3/45 2/2/46 65/96/47 66/97/48
s 13
f 10/13/49 11/14/50 41/72/51 42/73/52
s 14
f 11/14/53 7/10/54 40/71/55 41/72/56
s 15
f 7/10/57 6/9/58 39/70/59 40/71/60
s 16
f 6/9/61 10/13/62 42/73/63 39/70/64
s 17
f 13/16/65 12/15/66 72/103/67 73/104/68
s 18
f 12/15/69 8/11/70 71/102/71 72/103/72
s 19
f 8/11/73 9/12/74 74/105/75 71/102/76
s 20
f 9/12/77 13/16/78 73/104/79 74/105/80
s 21
f 23/26/81 22/25/82 57/88/83 58/89/84
s 22
f 22/25/85 14/17/86 56/87/87 57/88/88
s 23
f 14/17/89 15/18/90 55/86/91 56/87/92
s 24
f 15/18/93 23/26/94 58/89/95 55/86/96
s 25
f 16/34/97 17/35/98 33/62/99 34/65/100
s 26
f 17/38/101 20/39/102 32/60/103 33/63/104
s 27
f 21/42/105 16/43/106 34/64/107 31/59/108
s 28
f 20/46/109 21/47/110 31/58/111 32/61/112
f 28/53/113 27/50/114 24/48/115 23/49/116
s 26
f 29/55/117 28/52/118 23/40/119 15/41/120
s 25
f 30/57/121 29/54/122 15/36/123 14/37/124
s 27
f 27/51/125 30/56/126 14/44/127 24/45/128
s 28
f 32/61/112 31/58/111 27/50/114 28/53/113
s 26
f 33/63/104 32/60/103 28/52/118 29/55/117
s 25
f 34/65/100 33/62/99 29/54/122 30/57/121
s 27
f 31/59/108 34/64/107 30/56/126 27/51/125
s 15
f 36/67/129 35/66/130 94/125/131 91/122/132
s 14
f 37/68/133 36/67/134 91/122/135 92/123/136
s 16
f 35/66/137 38/69/138 93/124/139 94/125/140
s 15
f 40/71/60 39/70/59 35/66/130 36/67/129
s 14
f 41/72/56 40/71/55 36/67/134 37/68/133
s 13
f 42/73/52 41/72/51 37/68/141 38/69/142
s 16
f 39/70/64 42/73/63 38/69/138 35/66/137
s 3
f 44/75/143 43/74/144 6/9/145 7/10/146
s 2
f 45/76/147 44/75/148 7/10/149 11/14/150
s 1
f 46/77/151 45/76/152 11/14/153 10/13/154
s 4
f 43/74/155 46/77/156 10/13/157 6/9/158
s 3
f 48/79/12 47/78/11 43/74/144 44/75/143
s 2
f 49/80/8 48/79/7 44/75/148 45/76/147
s 1
f 50/81/4 49/80/3 45/76/152 46/77/151
s 4
f 47/78/16 50/81/15 46/77/156 43/74/155
s 23
f 52/83/159 51/82/160 18/33/161 19/32/162
s 22
f 53/84/163 52/83/164 19/32/165 26/31/166
s 21
f 54/85/167 53/84/168 26/31/169 25/30/170
s 24
f 51/82/171 54/85/172 25/30/173 18/33/174
s 23
f 56/87/92 55/86/91 51/82/160 52/83/159
s 22
f 57/88/88 56/87/87 52/83/164 53/84/163
s 21
f 58/89/84 57/88/83 53/84/168 54/85/167
s 24
f 55/86/96 58/89/95 54/85/172 51/82/171
s 10
f 60/91/175 59/90/176 88/119/177 89/120/178
s 9
f 61/92/179 60/91/180 89/120/181 90/121/182
s 10
f 64/95/40 63/94/39 59/90/176 60/91/175
s 9
f 65/96/36 64/95/35 60/91/180 61/92/179
s 12
f 66/97/48 65/96/47 61/92/183 62/93/184
s 11
f 63/94/44 66/97/43 62/93/185 59/90/186
s 18
f 68/99/187 67/98/188 83/114/189 84/115/190
s 20
f 70/101/191 69/100/192 85/116/193 86/117/194
s 19
f 67/98/195 70/101/196 86/117/197 83/114/198
s 18
f 72/103/72 71/102/71 67/98/188 68/99/187
s 17
f 73/104/68 72/103/67 68/99/199 69/100/200
s 20
f 74/105/80 73/104/79 69/100/192 70/101/191
s 19
f 71/102/76 74/105/75 70/101/196 67/98/195
s 8
f 76/107/201 75/106/202 8/11/203 12/15/204
s 7
f 77/108/205 76/107/206 12/15/207 13/16/208
s 6
f 78/109/209 77/108/210 13/16/211 9/12/212
s 5
f 75/106/213 78/109/214 9/12/215 8/11/216
s 8
f 80/111/32 79/110/31 75/106/202 76/107/201
s 7
f 81/112/28 80/111/27 76/107/206 77/108/205
s 6
f 82/113/24 81/112/23 77/108/210 78/109/209
s 5
f 79/110/20 82/113/19 78/109/214 75/106/213
s 18
f 84/115/190 83/114/189 18/22/217 25/28/218
s off
f 85/116/219 84/115/220 25/28/221 26/29/222
s 20
f 86/117/194 85/116/193 26/29/223 19/21/224
s 19
f 83/114/198 86/117/197 19/21/225 18/22/226
s off
f 88/119/227 87/118/228 23/26/229 24/27/230
s 10
f 89/120/178 88/119/177 24/27/231 14/17/232
s 9
f 90/121/182 89/120/181 14/17/233 22/25/234
s off
f 87/118/235 90/121/236 22/25/237 23/26/238
s 14
f 92/123/136 91/122/135 16/20/239 21/24/240
s off
f 93/124/241 92/123/242 21/24/243 20/23/244
s 16
f 94/125/140 93/124/139 20/23/245 17/19/246
s 15
f 91/122/132 94/125/131 17/19/247 16/20/248
s 29
f 88/126/249 59/127/250 109/186/251 110/189/252
s 30
f 62/130/253 87/131/254 107/182/255 108/185/256
s 31
f 59/134/257 62/135/258 108/184/259 109/187/260
s 32
f 87/138/261 88/139/262 110/188/263 107/183/264
s 33
f 61/142/265 90/143/266 100/168/267 101/171/268
s 34
f 87/146/269 62/147/270 102/172/271 99/167/272
s 35
f 62/150/273 61/151/274 101/170/275 102/173/276
s 36
f 90/154/277 87/155/278 99/166/279 100/169/280
f 96/161/281 95/158/282 84/156/283 85/157/284
s 33
f 97/163/285 96/160/286 85/144/287 69/145/288
s 35
f 98/165/289 97/162/290 69/152/291 68/153/292
s 34
f 95/159/293 98/164/294 68/148/295 84/149/296
s 36
f 100/169/280 99/166/279 95/158/282 96/161/281
s 33
f 101/171/268 100/168/267 96/160/286 97/163/285
s 35
f 102/173/276 101/170/275 97/162/290 98/165/289
s 34
f 99/167/272 102/172/271 98/164/294 95/159/293
s 30
f 104/177/297 103/174/298 93/132/299 38/133/300
s 31
f 105/179/301 104/176/302 38/136/303 37/137/304
s 29
f 106/181/305 105/178/306 37/128/307 92/129/308
s 32
f 103/175/309 106/180/310 92/140/311 93/141/312
s 30
f 108/185/256 107/182/255 103/174/298 104/177/297
s 31
f 109/187/260 108/184/259 104/176/302 105/179/301
s 29
f 110/189/252 109/186/251 105/178/306 106/181/305
s 32
f 107/183/264 110/188/263 106/180/310 103/175/309
