# This file uses centimeters as units for non-parametric coordinates.

mtllib crss_htch_fence_wc_2.mtl
g default
v 0.000000 0.000000 0.000000
v -8.000000 8.000000 0.000000
v -8.000000 8.000000 -8.000000
v 0.000000 0.000000 -8.000000
v -128.000000 0.000000 -8.000000
v -128.000000 0.000000 0.000000
v -120.411995 8.000000 -8.000000
v -120.411995 8.000000 0.000000
v 0.000000 126.000000 0.000000
v 0.000000 126.000000 -8.000000
v -128.000000 126.000000 -8.000000
v -128.000000 126.000000 0.000000
v -8.000000 118.409966 0.000000
v -8.000000 118.409966 -8.000000
v -120.411995 118.409966 -8.000000
v -120.411995 118.409966 0.000000
v -85.470665 125.301353 -6.831267
v -85.470665 125.301353 -1.168733
v -85.470665 119.108620 -1.168733
v -85.470665 119.108620 -6.831267
v -45.333332 125.301353 -6.831267
v -45.333332 125.301353 -1.168733
v -45.333332 119.108620 -1.168733
v -45.333332 119.108620 -6.831267
v -0.945592 82.803314 -7.020897
v -0.945592 82.803314 -0.979103
v -7.054408 82.803314 -0.979103
v -7.054408 82.803314 -7.020897
v -0.945592 43.401657 -7.020897
v -0.945592 43.401657 -0.979103
v -7.054408 43.401657 -0.979103
v -7.054408 43.401657 -7.020897
v -126.966858 82.803314 -7.622222
v -121.445145 82.803314 -7.622222
v -121.445145 82.803314 -0.377778
v -126.966858 82.803314 -0.377778
v -126.966858 43.401657 -7.622222
v -121.445145 43.401657 -7.622222
v -121.445145 43.401657 -0.377778
v -126.966858 43.401657 -0.377778
v -85.470665 0.536000 -6.831267
v -85.470665 7.464001 -6.831267
v -85.470665 7.464001 -1.168733
v -85.470665 0.536000 -1.168733
v -45.333332 0.536000 -6.831267
v -45.333332 7.464001 -6.831267
v -45.333332 7.464001 -1.168733
v -45.333332 0.536000 -1.168733
vt 0.718750 0.062500
vt 0.375000 0.250000
vt 0.375000 0.500000
vt 0.625000 0.500000
vt 0.125000 0.000000
vt 0.125000 0.250000
vt 0.125000 0.062500
vt 0.375000 0.062500
vt 0.125000 0.250000
vt 0.375000 0.250000
vt 0.562500 0.281250
vt 0.375000 0.500000
vt 0.375000 0.250000
vt 0.125000 0.250000
vt 0.375000 0.250000
vt 0.375000 0.500000
vt 0.625000 0.500000
vt 0.125000 0.250000
vt 0.375000 0.250000
vt 0.375000 0.500000
vt 0.375000 0.250000
vt 0.375000 0.250000
vt 0.375000 0.500000
vt 0.375000 0.500000
vt 0.437500 0.260417
vt 0.375000 0.250000
vt 0.375000 0.500000
vt 0.375000 0.500000
vt 0.500000 0.270833
vt 0.375000 0.250000
vt 0.375000 0.500000
vt 0.625000 0.500000
vt 0.614583 0.208333
vt 0.375000 0.250000
vt 0.375000 0.500000
vt 0.625000 0.500000
vt 0.666667 0.135417
vt 0.375000 0.250000
vt 0.375000 0.500000
vt 0.125000 0.187500
vt 0.125000 0.250000
vt 0.375000 0.250000
vt 0.375000 0.187500
vt 0.125000 0.125000
vt 0.125000 0.250000
vt 0.375000 0.250000
vt 0.375000 0.125000
vt 0.125000 0.041667
vt 0.125000 0.250000
vt 0.375000 0.250000
vt 0.489583 0.062500
vt 0.125000 0.020833
vt 0.125000 0.250000
vt 0.375000 0.250000
vt 0.604167 0.062500
vn -0.011823 -0.999930 0.000000
vn -0.011823 -0.999930 0.000000
vn -0.006866 -0.999976 0.000000
vn -0.006866 -0.999976 0.000000
vn -0.028261 -0.015145 0.999486
vn -0.028261 -0.015145 0.999486
vn -0.014934 -0.008003 0.999856
vn -0.014922 -0.007997 0.999857
vn -0.014356 0.999897 0.000000
vn -0.014356 0.999897 0.000000
vn -0.007662 0.999971 0.000000
vn -0.007662 0.999971 0.000000
vn -0.028261 -0.015145 -0.999486
vn -0.028261 -0.015145 -0.999486
vn -0.014922 -0.007997 -0.999857
vn -0.014934 -0.008003 -0.999856
vn 0.014084 0.024839 0.999592
vn 0.014084 0.024839 0.999592
vn 0.007598 0.013401 0.999881
vn 0.007609 0.013420 0.999881
vn 0.999763 0.021782 0.000000
vn 0.999763 0.021782 0.000000
vn 0.999924 0.012307 0.000000
vn 0.999924 0.012307 0.000000
vn 0.014084 0.024839 -0.999592
vn 0.014084 0.024839 -0.999592
vn 0.007609 0.013420 -0.999881
vn 0.007598 0.013401 -0.999881
vn -0.999644 0.026701 0.000000
vn -0.999644 0.026701 0.000000
vn -0.999905 0.013758 0.000000
vn -0.999905 0.013758 0.000000
vn 0.999574 0.029171 0.000000
vn 0.999574 0.029171 0.000000
vn 0.999899 0.014230 0.000000
vn 0.999899 0.014230 0.000000
vn -0.005850 0.009587 -0.999937
vn -0.005850 0.009587 -0.999937
vn -0.003197 0.005240 -0.999981
vn -0.003202 0.005248 -0.999981
vn -0.999717 0.023797 0.000000
vn -0.999717 0.023797 0.000000
vn -0.999918 0.012810 0.000000
vn -0.999918 0.012810 0.000000
vn -0.005850 0.009587 0.999937
vn -0.005850 0.009587 0.999937
vn -0.003202 0.005248 0.999981
vn -0.003197 0.005240 0.999981
vn -0.018711 -0.999825 0.000000
vn -0.018711 -0.999825 0.000000
vn -0.009987 -0.999950 0.000000
vn -0.009987 -0.999950 0.000000
vn -0.028261 0.016403 0.999466
vn -0.028261 0.016403 0.999466
vn -0.015166 0.008803 0.999846
vn -0.015180 0.008811 0.999846
vn -0.015409 0.999881 0.000000
vn -0.015409 0.999881 0.000000
vn -0.008949 0.999960 0.000000
vn -0.008949 0.999960 0.000000
vn -0.028261 0.016404 -0.999466
vn -0.028261 0.016404 -0.999466
vn -0.015181 0.008811 -0.999846
vn -0.015166 0.008803 -0.999846
vn 0.009287 0.999957 0.000000
vn 0.009287 0.999957 0.000000
vn 0.016425 0.999865 0.000000
vn 0.016425 0.999865 0.000000
vn 0.015717 0.008653 0.999839
vn 0.015700 0.008643 0.999839
vn 0.030154 0.016601 0.999407
vn 0.030154 0.016601 0.999407
vn 0.010347 -0.999946 0.000000
vn 0.010347 -0.999946 0.000000
vn 0.019991 -0.999800 0.000000
vn 0.019991 -0.999800 0.000000
vn 0.015700 0.008643 -0.999839
vn 0.015717 0.008653 -0.999839
vn 0.030154 0.016601 -0.999407
vn 0.030154 0.016601 -0.999407
vn 0.999924 -0.012340 0.000000
vn 0.999924 -0.012340 0.000000
vn 0.999761 -0.021885 0.000000
vn 0.999761 -0.021885 0.000000
vn 0.007219 -0.013419 0.999884
vn 0.007209 -0.013401 0.999884
vn 0.013363 -0.024839 0.999602
vn 0.013363 -0.024839 0.999602
vn -0.999906 -0.013717 0.000000
vn -0.999906 -0.013717 0.000000
vn -0.999648 -0.026547 0.000000
vn -0.999648 -0.026547 0.000000
vn 0.007209 -0.013401 -0.999884
vn 0.007219 -0.013419 -0.999884
vn 0.013363 -0.024839 -0.999602
vn 0.013363 -0.024839 -0.999602
vn -0.003038 -0.005247 -0.999982
vn -0.003034 -0.005240 -0.999982
vn -0.005551 -0.009587 -0.999939
vn -0.005551 -0.009587 -0.999939
vn 0.999899 -0.014189 0.000000
vn 0.999899 -0.014189 0.000000
vn 0.999579 -0.029003 0.000000
vn 0.999579 -0.029003 0.000000
vn -0.003034 -0.005240 0.999982
vn -0.003038 -0.005247 0.999982
vn -0.005551 -0.009587 0.999939
vn -0.005551 -0.009587 0.999939
vn -0.999918 -0.012843 0.000000
vn -0.999918 -0.012843 0.000000
vn -0.999714 -0.023910 0.000000
vn -0.999714 -0.023910 0.000000
vn 0.015451 -0.007854 -0.999850
vn 0.015438 -0.007847 -0.999850
vn 0.030155 -0.015328 -0.999428
vn 0.030155 -0.015328 -0.999428
vn 0.007938 0.999969 0.000000
vn 0.007938 0.999969 0.000000
vn 0.015338 0.999882 0.000000
vn 0.015338 0.999882 0.000000
vn 0.015438 -0.007847 0.999850
vn 0.015451 -0.007854 0.999850
vn 0.030155 -0.015328 0.999428
vn 0.030155 -0.015328 0.999428
vn 0.007125 -0.999975 0.000000
vn 0.007125 -0.999975 0.000000
vn 0.012602 -0.999921 0.000000
vn 0.012602 -0.999921 0.000000
s 1
g fencing_wc_15
usemtl initialShadingGroup
f 4/5/1 1/1/2 48/55/3 45/52/4
s 2
f 1/1/5 2/2/6 47/54/7 48/55/8
s 3
f 2/2/9 3/6/10 46/53/11 47/54/12
s 4
f 3/6/13 4/5/14 45/52/15 46/53/16
s 5
f 2/2/17 1/1/18 30/37/19 31/38/20
s 6
f 1/1/21 4/4/22 29/36/23 30/37/24
s 7
f 4/4/25 3/3/26 32/39/27 29/36/28
s 8
f 3/3/29 2/2/30 31/38/31 32/39/32
s 9
f 8/10/33 7/9/34 38/45/35 39/46/36
s 10
f 7/9/37 5/7/38 37/44/39 38/45/40
s 11
f 5/7/41 6/8/42 40/47/43 37/44/44
s 12
f 6/8/45 8/10/46 39/46/47 40/47/48
s 13
f 14/16/49 13/15/50 23/30/51 24/31/52
s 14
f 13/15/53 9/11/54 22/29/55 23/30/56
s 15
f 9/11/57 10/12/58 21/28/59 22/29/60
s 16
f 10/12/61 14/16/62 24/31/63 21/28/64
s 15
f 18/25/65 17/24/66 11/23/67 12/22/68
s 14
f 19/26/69 18/25/70 12/22/71 16/21/72
s 13
f 20/27/73 19/26/74 16/21/75 15/20/76
s 16
f 17/24/77 20/27/78 15/20/79 11/23/80
s 15
f 22/29/60 21/28/59 17/24/66 18/25/65
s 14
f 23/30/56 22/29/55 18/25/70 19/26/69
s 13
f 24/31/52 23/30/51 19/26/74 20/27/73
s 16
f 21/28/64 24/31/63 20/27/78 17/24/77
s 6
f 26/33/81 25/32/82 10/17/83 9/11/84
s 5
f 27/34/85 26/33/86 9/11/87 13/15/88
s 8
f 28/35/89 27/34/90 13/15/91 14/16/92
s 7
f 25/32/93 28/35/94 14/16/95 10/17/96
s 6
f 30/37/24 29/36/23 25/32/82 26/33/81
s 5
f 31/38/20 30/37/19 26/33/86 27/34/85
s 8
f 32/39/32 31/38/31 27/34/90 28/35/89
s 7
f 29/36/28 32/39/27 28/35/94 25/32/93
s 10
f 34/41/97 33/40/98 11/14/99 15/18/100
s 9
f 35/42/101 34/41/102 15/18/103 16/19/104
s 12
f 36/43/105 35/42/106 16/19/107 12/13/108
s 11
f 33/40/109 36/43/110 12/13/111 11/14/112
s 10
f 38/45/40 37/44/39 33/40/98 34/41/97
s 9
f 39/46/36 38/45/35 34/41/102 35/42/101
s 12
f 40/47/48 39/46/47 35/42/106 36/43/105
s 11
f 37/44/44 40/47/43 36/43/110 33/40/109
s 4
f 42/49/113 41/48/114 5/7/115 7/9/116
s 3
f 43/50/117 42/49/118 7/9/119 8/10/120
s 2
f 44/51/121 43/50/122 8/10/123 6/8/124
s 1
f 41/48/125 44/51/126 6/8/127 5/7/128
s 4
f 46/53/16 45/52/15 41/48/114 42/49/113
s 3
f 47/54/12 46/53/11 42/49/118 43/50/117
s 2
f 48/55/8 47/54/7 43/50/122 44/51/121
s 1
f 45/52/4 48/55/3 44/51/126 41/48/125
