# This file uses centimeters as units for non-parametric coordinates.

mtllib crss_htch_fence_wc_1.mtl
g default
v 0.000000 0.000000 0.000000
v -8.000000 8.000000 0.000000
v -8.000000 8.000000 -8.000000
v 0.000000 0.000000 -8.000000
v -128.000000 0.000000 -8.000000
v -128.000000 0.000000 0.000000
v -120.411995 8.000000 -8.000000
v -120.411995 8.000000 0.000000
v 0.000000 126.000000 0.000000
v 0.000000 126.000000 -8.000000
v -128.000000 126.000000 -8.000000
v -128.000000 126.000000 0.000000
v -8.000000 118.409966 0.000000
v -8.000000 118.409966 -8.000000
v -120.411995 118.409966 -8.000000
v -120.411995 118.409966 0.000000
v -85.470665 124.633484 -6.831267
v -85.470665 124.633484 -1.168733
v -85.470665 119.776489 -1.168733
v -85.470665 119.776489 -6.831267
v -45.333332 124.633484 -6.831267
v -45.333332 124.633484 -1.168733
v -45.333332 119.776489 -1.168733
v -45.333332 119.776489 -6.831267
v -0.513389 95.464874 -7.020897
v -0.513389 95.464874 -0.979103
v -7.639695 95.464874 -0.979103
v -7.639695 95.464874 -7.020897
v -0.945592 43.401657 -7.020897
v -0.945592 43.401657 -0.979103
v -7.054408 43.401657 -0.979103
v -7.054408 43.401657 -7.020897
v -127.399063 95.464874 -7.622222
v -120.859856 95.464874 -7.622222
v -120.859856 95.464874 -0.377778
v -127.399063 95.464874 -0.377778
v -126.966858 43.401657 -7.622222
v -121.445145 43.401657 -7.622222
v -121.445145 43.401657 -0.377778
v -126.966858 43.401657 -0.377778
v -85.470665 0.536000 -6.831267
v -85.470665 7.464001 -6.831267
v -85.470665 7.464001 -1.168733
v -85.470665 0.536000 -1.168733
v -45.333332 0.536000 -6.831267
v -45.333332 7.464001 -6.831267
v -45.333332 7.464001 -1.168733
v -45.333332 0.536000 -1.168733
v -7.589186 100.937103 -7.574627
v -0.410814 100.937103 -7.574627
v -0.410814 100.937103 -0.425373
v -7.589186 100.937103 -0.425373
v -120.977791 100.937103 -7.793113
v -120.977791 100.937103 -0.206887
v -127.434204 100.937103 -0.206887
v -127.434204 100.937103 -7.793113
v -92.554817 95.805191 -7.471891
v -92.630638 100.596779 -7.738492
v -92.630638 100.596779 -0.261508
v -92.554817 95.805191 -0.528109
v -64.249771 96.316147 -7.321559
v -64.283485 100.085823 -7.683870
v -64.283485 100.085823 -0.316130
v -64.249771 96.316147 -0.678441
v -35.944733 95.805191 -7.171228
v -35.936337 100.596771 -7.629249
v -35.936337 100.596771 -0.370751
v -35.944733 95.805191 -0.828772
vt 0.718750 0.062500
vt 0.375000 0.250000
vt 0.375000 0.500000
vt 0.625000 0.500000
vt 0.125000 0.000000
vt 0.125000 0.250000
vt 0.125000 0.062500
vt 0.375000 0.062500
vt 0.125000 0.250000
vt 0.375000 0.250000
vt 0.562500 0.281250
vt 0.375000 0.500000
vt 0.375000 0.250000
vt 0.125000 0.250000
vt 0.375000 0.250000
vt 0.375000 0.500000
vt 0.625000 0.500000
vt 0.125000 0.250000
vt 0.375000 0.250000
vt 0.375000 0.500000
vt 0.375000 0.250000
vt 0.375000 0.250000
vt 0.375000 0.500000
vt 0.375000 0.500000
vt 0.437500 0.260417
vt 0.375000 0.250000
vt 0.375000 0.500000
vt 0.375000 0.500000
vt 0.500000 0.270833
vt 0.375000 0.250000
vt 0.375000 0.500000
vt 0.625000 0.500000
vt 0.614583 0.208333
vt 0.375000 0.250000
vt 0.375000 0.500000
vt 0.625000 0.500000
vt 0.666667 0.135417
vt 0.375000 0.250000
vt 0.375000 0.500000
vt 0.125000 0.187500
vt 0.125000 0.250000
vt 0.375000 0.250000
vt 0.375000 0.187500
vt 0.125000 0.125000
vt 0.125000 0.250000
vt 0.375000 0.250000
vt 0.375000 0.125000
vt 0.125000 0.041667
vt 0.125000 0.250000
vt 0.375000 0.250000
vt 0.489583 0.062500
vt 0.125000 0.020833
vt 0.125000 0.250000
vt 0.375000 0.250000
vt 0.604167 0.062500
vt 0.375000 0.500000
vt 0.625000 0.500000
vt 0.585128 0.249571
vt 0.375000 0.250000
vt 0.125000 0.250000
vt 0.375000 0.250000
vt 0.375000 0.215772
vt 0.125000 0.215772
vt 0.000000 0.000000
vt 0.053360 0.000000
vt 0.061222 0.998650
vt 0.008184 1.000000
vt 0.001927 0.000000
vt 0.064978 0.000000
vt 0.066905 1.000000
vt 0.000000 1.000000
vt 0.000000 0.000000
vt 0.053161 0.000000
vt 0.072873 0.998417
vt 0.019645 1.000000
vt 0.000283 0.000000
vt 1.000000 0.000000
vt 0.999660 0.063966
vt 0.000000 0.053347
vt 0.059256 0.748987
vt 0.749745 0.061311
vt 0.006138 0.750000
vt 0.066423 0.750000
vt 0.000482 0.750000
vt 0.004911 0.250000
vt 0.058089 0.249604
vt 0.750071 0.000000
vt 0.057291 0.499325
vt 0.499830 0.058656
vt 0.004092 0.500000
vt 0.065941 0.500000
vt 0.000963 0.500000
vt 0.009822 0.500000
vt 0.063017 0.499209
vt 0.500142 0.000000
vt 0.055326 0.249662
vt 0.249915 0.056001
vt 0.002046 0.250000
vt 0.065459 0.250000
vt 0.001445 0.250000
vt 0.014734 0.750000
vt 0.067945 0.748813
vt 0.250212 0.000000
vn -0.011823 -0.999930 0.000000
vn -0.011823 -0.999930 0.000000
vn -0.006866 -0.999976 0.000000
vn -0.006866 -0.999976 0.000000
vn -0.028261 -0.015145 0.999486
vn -0.028261 -0.015145 0.999486
vn -0.014934 -0.008003 0.999856
vn -0.014922 -0.007997 0.999857
vn -0.014356 0.999897 0.000000
vn -0.014356 0.999897 0.000000
vn -0.007662 0.999971 0.000000
vn -0.007662 0.999971 0.000000
vn -0.028261 -0.015145 -0.999486
vn -0.028261 -0.015145 -0.999486
vn -0.014922 -0.007997 -0.999857
vn -0.014934 -0.008003 -0.999856
vn 0.014084 0.024839 0.999592
vn 0.014084 0.024839 0.999592
vn 0.006321 0.011147 0.999918
vn 0.006325 0.011155 0.999918
vn 0.999763 0.021782 0.000000
vn 0.999763 0.021782 0.000000
vn 0.999978 0.006611 0.000000
vn 0.999978 0.006611 0.000000
vn 0.014084 0.024839 -0.999592
vn 0.014084 0.024839 -0.999592
vn 0.006325 0.011155 -0.999918
vn 0.006321 0.011147 -0.999918
vn -0.999644 0.026701 0.000000
vn -0.999644 0.026701 0.000000
vn -0.999984 0.005673 0.000000
vn -0.999984 0.005673 0.000000
vn 0.999574 0.029171 0.000000
vn 0.999574 0.029171 0.000000
vn 0.999984 0.005684 0.000000
vn 0.999984 0.005684 0.000000
vn -0.005850 0.009587 -0.999937
vn -0.005850 0.009587 -0.999937
vn -0.002655 0.004351 -0.999987
vn -0.002657 0.004354 -0.999987
vn -0.999717 0.023797 0.000000
vn -0.999717 0.023797 0.000000
vn -0.999977 0.006744 0.000000
vn -0.999977 0.006744 0.000000
vn -0.005850 0.009587 0.999937
vn -0.005850 0.009587 0.999937
vn -0.002657 0.004354 0.999987
vn -0.002655 0.004351 0.999987
vn -0.036579 -0.999331 0.000000
vn -0.036579 -0.999331 0.000000
vn -0.019531 -0.999809 0.000000
vn -0.019531 -0.999809 0.000000
vn -0.028260 0.018163 0.999436
vn -0.028260 0.018163 0.999436
vn -0.016214 0.010421 0.999814
vn -0.016242 0.010439 0.999814
vn -0.030130 0.999546 0.000000
vn -0.030130 0.999546 0.000000
vn -0.017502 0.999847 0.000000
vn -0.017502 0.999847 0.000000
vn -0.028260 0.018163 -0.999436
vn -0.028260 0.018163 -0.999436
vn -0.016242 0.010439 -0.999814
vn -0.016214 0.010421 -0.999814
vn 0.018162 0.999835 0.000000
vn 0.018162 0.999835 0.000000
vn 0.032115 0.999484 0.000000
vn 0.032115 0.999484 0.000000
vn 0.016862 0.010279 0.999805
vn 0.016829 0.010260 0.999806
vn 0.030153 0.018382 0.999376
vn 0.030153 0.018382 0.999376
vn 0.020235 -0.999795 0.000000
vn 0.020235 -0.999795 0.000000
vn 0.039079 -0.999236 0.000000
vn 0.039079 -0.999236 0.000000
vn 0.016829 0.010260 -0.999806
vn 0.016862 0.010279 -0.999805
vn 0.030153 0.018382 -0.999376
vn 0.030153 0.018382 -0.999376
vn 0.999956 -0.009438 0.000000
vn 0.999956 -0.009438 0.000000
vn 0.999860 -0.016741 0.000000
vn 0.999860 -0.016741 0.000000
vn 0.000000 -0.010334 0.999947
vn 0.000000 -0.010482 0.999945
vn 0.008079 -0.035539 0.999336
vn 0.008058 -0.035707 0.999330
vn 0.000000 -0.010482 -0.999945
vn 0.000000 -0.010334 -0.999947
vn 0.008058 -0.035707 -0.999330
vn 0.008079 -0.035539 -0.999336
vn -0.870080 -0.492911 0.000000
vn -0.870080 -0.492911 0.000000
vn 0.000000 -0.003158 -0.999995
vn 0.000000 -0.003204 -0.999995
vn -0.004261 -0.013800 -0.999896
vn -0.004251 -0.013838 -0.999895
vn 0.000000 -0.003204 0.999995
vn 0.000000 -0.003158 0.999995
vn -0.004251 -0.013838 0.999895
vn -0.004261 -0.013800 0.999896
vn -0.999967 -0.008115 0.000000
vn -0.999967 -0.008115 0.000000
vn -0.999803 -0.019850 0.000000
vn -0.999803 -0.019850 0.000000
vn 0.880497 -0.474053 0.000000
vn 0.880497 -0.474053 0.000000
vn 0.015451 -0.007854 -0.999850
vn 0.015438 -0.007847 -0.999850
vn 0.030155 -0.015328 -0.999428
vn 0.030155 -0.015328 -0.999428
vn 0.007938 0.999969 0.000000
vn 0.007938 0.999969 0.000000
vn 0.015338 0.999882 0.000000
vn 0.015338 0.999882 0.000000
vn 0.015438 -0.007847 0.999850
vn 0.015451 -0.007854 0.999850
vn 0.030155 -0.015328 0.999428
vn 0.030155 -0.015328 0.999428
vn 0.007125 -0.999975 0.000000
vn 0.007125 -0.999975 0.000000
vn 0.012602 -0.999921 0.000000
vn 0.012602 -0.999921 0.000000
vn 0.009999 -0.019996 -0.999750
vn 0.009999 -0.019996 -0.999750
vn 0.999866 -0.016389 0.000000
vn 0.999866 -0.016389 0.000000
vn 0.009999 -0.019996 0.999750
vn 0.009999 -0.019996 0.999750
vn -0.562230 0.826981 0.000000
vn -0.562230 0.826981 0.000000
vn -0.999724 -0.023505 0.000000
vn -0.999724 -0.023505 0.000000
vn 0.556234 0.831026 0.000000
vn 0.556234 0.831026 0.000000
vn 0.999476 -0.032364 0.000000
vn 0.999476 -0.032364 0.000000
vn -0.005257 -0.009727 0.999939
vn -0.005257 -0.009727 0.999939
vn -0.999745 -0.022569 0.000000
vn -0.999745 -0.022569 0.000000
vn -0.005257 -0.009727 -0.999939
vn -0.005257 -0.009727 -0.999939
vn 0.003600 -0.098119 -0.995168
vn 0.003600 -0.098119 -0.995168
vn 0.003601 -0.096882 -0.995290
vn 0.003601 -0.096884 -0.995289
vn -0.015040 0.999887 0.000000
vn -0.015040 0.999887 0.000000
vn 0.003601 -0.096884 0.995289
vn 0.003601 -0.096882 0.995290
vn 0.003600 -0.098119 0.995168
vn 0.003600 -0.098119 0.995168
vn -0.015117 -0.999886 0.000000
vn -0.015117 -0.999886 0.000000
vn 0.003612 -0.056199 -0.998413
vn 0.003612 -0.056509 -0.998396
vn 0.003614 -0.042518 -0.999089
vn 0.003614 -0.042518 -0.999089
vn 0.014988 0.999888 0.000000
vn 0.014988 0.999888 0.000000
vn 0.003614 -0.042518 0.999089
vn 0.003614 -0.042518 0.999089
vn 0.003612 -0.056509 0.998396
vn 0.003612 -0.056199 0.998413
vn 0.014960 -0.999888 0.000000
vn 0.014960 -0.999888 0.000000
vn 0.003605 -0.084246 -0.996439
vn 0.003605 -0.084375 -0.996428
vn 0.000156 1.000000 0.000000
vn 0.000156 1.000000 0.000000
vn 0.003605 -0.084375 0.996428
vn 0.003605 -0.084246 0.996439
vn 0.000469 -1.000000 0.000000
vn 0.000469 -1.000000 0.000000
s 1
g fencing_wc_9
usemtl initialShadingGroup
f 4/5/1 1/1/2 48/55/3 45/52/4
s 2
f 1/1/5 2/2/6 47/54/7 48/55/8
s 3
f 2/2/9 3/6/10 46/53/11 47/54/12
s 4
f 3/6/13 4/5/14 45/52/15 46/53/16
s 5
f 2/2/17 1/1/18 30/37/19 31/38/20
s 6
f 1/1/21 4/4/22 29/36/23 30/37/24
s 7
f 4/4/25 3/3/26 32/39/27 29/36/28
s 8
f 3/3/29 2/2/30 31/38/31 32/39/32
f 8/10/33 7/9/34 38/45/35 39/46/36
s 10
f 7/9/37 5/7/38 37/44/39 38/45/40
s 11
f 5/7/41 6/8/42 40/47/43 37/44/44
s 12
f 6/8/45 8/10/46 39/46/47 40/47/48
s 13
f 14/16/49 13/15/50 23/30/51 24/31/52
s 14
f 13/15/53 9/11/54 22/29/55 23/30/56
s 15
f 9/11/57 10/12/58 21/28/59 22/29/60
s 16
f 10/12/61 14/16/62 24/31/63 21/28/64
s 15
f 18/25/65 17/24/66 11/23/67 12/22/68
s 14
f 19/26/69 18/25/70 12/22/71 16/21/72
s 13
f 20/27/73 19/26/74 16/21/75 15/20/76
s 16
f 17/24/77 20/27/78 15/20/79 11/23/80
s 15
f 22/29/60 21/28/59 17/24/66 18/25/65
s 14
f 23/30/56 22/29/55 18/25/70 19/26/69
s 13
f 24/31/52 23/30/51 19/26/74 20/27/73
s 16
f 21/28/64 24/31/63 20/27/78 17/24/77
s 6
f 26/33/81 25/32/82 50/57/83 51/58/84
s 5
f 27/34/85 26/33/86 51/58/87 52/59/88
s 7
f 25/32/89 28/35/90 49/56/91 50/57/92
s 6
f 30/37/24 29/36/23 25/32/82 26/33/81
s 5
f 31/38/20 30/37/19 26/33/86 27/34/85
s 8
f 32/39/32 31/38/31 27/34/93 28/35/94
s 7
f 29/36/28 32/39/27 28/35/90 25/32/89
s 10
f 34/41/95 33/40/96 56/63/97 53/60/98
s 12
f 36/43/99 35/42/100 54/61/101 55/62/102
s 11
f 33/40/103 36/43/104 55/62/105 56/63/106
s 10
f 38/45/40 37/44/39 33/40/96 34/41/95
s 8
f 39/46/36 38/45/35 34/41/107 35/42/108
s 12
f 40/47/48 39/46/47 35/42/100 36/43/99
s 11
f 37/44/44 40/47/43 36/43/104 33/40/103
s 4
f 42/49/109 41/48/110 5/7/111 7/9/112
s 3
f 43/50/113 42/49/114 7/9/115 8/10/116
s 2
f 44/51/117 43/50/118 8/10/119 6/8/120
s 1
f 41/48/121 44/51/122 6/8/123 5/7/124
s 4
f 46/53/16 45/52/15 41/48/110 42/49/109
s 3
f 47/54/12 46/53/11 42/49/114 43/50/113
s 2
f 48/55/8 47/54/7 43/50/118 44/51/117
s 1
f 45/52/4 48/55/3 44/51/122 41/48/121
s 7
f 50/57/92 49/56/91 14/16/125 10/17/126
s 6
f 51/58/84 50/57/83 10/17/127 9/11/128
s 5
f 52/59/88 51/58/87 9/11/129 13/15/130
s 17
f 49/56/131 52/59/132 13/15/133 14/16/134
f 54/61/135 53/60/136 15/18/137 16/19/138
s 12
f 55/62/102 54/61/101 16/19/139 12/13/140
s 11
f 56/63/106 55/62/105 12/13/141 11/14/142
s 10
f 53/60/98 56/63/97 11/14/143 15/18/144
s 19
f 49/64/145 28/65/146 65/96/147 66/98/148
s 17
f 52/68/132 49/69/131 66/99/149 67/100/150
s 20
f 67/101/151 68/102/152 27/74/153 52/75/154
s 8
f 27/76/93 68/103/155 65/97/156 28/79/94
s 19
f 58/82/157 57/80/158 34/66/159 53/67/160
s 17
f 59/84/161 58/83/162 53/70/136 54/71/135
s 20
f 54/72/163 35/73/164 60/86/165 59/85/166
s 8
f 57/81/167 60/87/168 35/77/108 34/78/107
s 19
f 62/90/169 61/88/170 57/80/158 58/82/157
s 17
f 63/92/171 62/91/172 58/83/162 59/84/161
s 20
f 59/85/166 60/86/165 64/94/173 63/93/174
s 8
f 61/89/175 64/95/176 60/87/168 57/81/167
s 19
f 66/98/148 65/96/147 61/88/170 62/90/169
s 17
f 67/100/150 66/99/149 62/91/172 63/92/171
s 20
f 63/93/174 64/94/173 68/102/152 67/101/151
s 8
f 65/97/156 68/103/155 64/95/176 61/89/175
