# This file uses centimeters as units for non-parametric coordinates.

mtllib door_wc_1.mtl
g default
v 6.000000 67.411697 -65.516136
v 6.000000 69.162376 -65.516136
v 6.000000 70.037720 -64.000000
v 6.000000 69.162376 -62.483860
v 6.000000 67.411697 -62.483860
v 6.000000 66.536346 -64.000000
v 8.566736 67.385948 -65.560730
v 8.566736 69.188126 -65.560730
v 8.566736 70.089211 -64.000000
v 8.566736 69.188126 -62.439266
v 8.566736 67.385948 -62.439266
v 8.566736 66.484856 -64.000000
v 6.000000 0.000000 -80.000000
v 6.000000 140.000000 -80.000000
v 6.000000 140.000000 0.000000
v 6.000000 0.000000 0.000000
v 0.000000 0.000000 0.000000
v 0.000000 140.000000 0.000000
v 0.000000 140.000000 -80.000000
v 0.000000 0.000000 -80.000000
v 10.661602 66.620796 -66.885971
v 10.661604 69.953239 -66.885971
v 10.661604 71.619476 -63.999996
v 10.661606 69.953247 -61.114014
v 10.661604 66.620796 -61.114006
v 10.661602 64.954552 -63.999992
v 12.393372 66.620796 -66.885971
v 12.393373 69.953239 -66.885971
v 12.393373 68.287025 -63.999996
v 12.393373 71.619476 -63.999996
v 12.393375 69.953247 -61.114014
v 12.393373 66.620796 -61.114006
v 12.393372 64.954552 -63.999992
vt 0.375000 0.312500
vt 0.416667 0.312500
vt 0.416667 0.688440
vt 0.375000 0.688440
vt 0.458333 0.312500
vt 0.458333 0.688440
vt 0.500000 0.312500
vt 0.500000 0.688440
vt 0.541667 0.312500
vt 0.541667 0.688440
vt 0.583333 0.312500
vt 0.583333 0.688440
vt 0.625000 0.312500
vt 0.625000 0.688440
vt 0.578125 0.979066
vt 0.421875 0.979066
vt 0.500000 0.837500
vt 0.343750 0.843750
vt 0.421875 0.708434
vt 0.578125 0.708434
vt 0.656250 0.843750
vt 0.000000 0.000000
vt 1.000000 0.000000
vt 1.000000 1.000000
vt 0.000000 1.000000
vt 0.000000 0.000000
vt 1.000000 0.000000
vt 0.500000 1.000000
vt 0.000000 0.000000
vt 1.000000 0.000000
vt 1.000000 1.000000
vt 0.000000 1.000000
vt 0.000000 0.000000
vt 1.000000 0.000000
vt 1.000000 1.000000
vt 0.000000 1.000000
vt 0.000000 0.000000
vt 1.000000 0.000000
vt 1.000000 1.000000
vt 0.000000 1.000000
vt 0.000000 0.000000
vt 1.000000 0.000000
vt 0.500000 1.000000
vt 0.375000 0.750000
vt 0.625000 0.750000
vt 0.625000 1.000000
vt 0.375000 1.000000
vt 0.125000 0.000000
vt 0.375000 0.000000
vt 0.375000 0.250000
vt 0.125000 0.250000
vt 0.578125 0.979066
vt 0.421875 0.979066
vt 0.421875 0.979066
vt 0.578125 0.979066
vt 0.343750 0.843750
vt 0.343750 0.843750
vt 0.421875 0.708434
vt 0.421875 0.708434
vt 0.578125 0.708434
vt 0.578125 0.708434
vt 0.656250 0.843750
vt 0.656250 0.843750
vt 0.000000 0.000000
vt 1.000000 0.000000
vt 1.000000 0.075000
vt 0.000000 0.075000
vt 0.000000 0.000000
vt 1.000000 0.000000
vt 1.000000 0.042857
vt 0.000000 0.042857
vt 0.000000 0.000000
vt 1.000000 0.000000
vt 1.000000 0.042857
vt 0.000000 0.042857
vn -0.017372 0.000000 -0.999849
vn -0.017372 0.000000 -0.999849
vn -0.017372 0.000000 -0.999849
vn -0.017372 0.000000 -0.999849
vn -0.017370 0.865895 -0.499925
vn -0.017370 0.865895 -0.499925
vn -0.017370 0.865894 -0.499925
vn -0.017370 0.865894 -0.499925
vn -0.017370 0.865895 0.499924
vn -0.017370 0.865895 0.499924
vn -0.017370 0.865895 0.499924
vn -0.017370 0.865895 0.499924
vn -0.017372 0.000000 0.999849
vn -0.017372 0.000000 0.999849
vn -0.017372 0.000000 0.999849
vn -0.017372 0.000000 0.999849
vn -0.017371 -0.865895 0.499924
vn -0.017371 -0.865895 0.499924
vn -0.017371 -0.865895 0.499924
vn -0.017371 -0.865895 0.499924
vn -0.017371 -0.865895 -0.499925
vn -0.017371 -0.865895 -0.499925
vn -0.017371 -0.865895 -0.499925
vn -0.017371 -0.865895 -0.499925
vn 1.000000 -0.000001 -0.000000
vn 1.000000 -0.000000 -0.000000
vn 1.000000 -0.000000 -0.000000
vn 1.000000 0.000000 -0.000000
vn 1.000000 -0.000000 -0.000000
vn 1.000000 -0.000001 -0.000000
vn 1.000000 -0.000001 -0.000000
vn 1.000000 0.000000 0.000000
vn 1.000000 0.000000 0.000000
vn 1.000000 0.000000 0.000000
vn 1.000000 0.000000 0.000000
vn 1.000000 0.000000 0.000000
vn 1.000000 0.000000 0.000000
vn 1.000000 0.000000 0.000000
vn 1.000000 0.000000 0.000000
vn 1.000000 0.000000 0.000000
vn 1.000000 0.000000 0.000000
vn 0.000000 -1.000000 0.000000
vn 0.000000 -1.000000 0.000000
vn 0.000000 -1.000000 0.000000
vn 0.000000 -1.000000 0.000000
vn -1.000000 0.000000 0.000000
vn -1.000000 0.000000 0.000000
vn -1.000000 0.000000 0.000000
vn -1.000000 0.000000 0.000000
vn -0.534620 0.000000 -0.845093
vn -0.534620 0.000000 -0.845093
vn -0.262472 0.000000 -0.964939
vn -0.262471 0.000000 -0.964940
vn -0.534617 0.731872 -0.422549
vn -0.534617 0.731872 -0.422549
vn -0.262470 0.835661 -0.482473
vn -0.262471 0.835661 -0.482473
vn -0.534619 0.731872 0.422546
vn -0.534619 0.731872 0.422546
vn -0.262471 0.835662 0.482470
vn -0.262472 0.835662 0.482470
vn -0.534623 0.000001 0.845091
vn -0.534623 0.000001 0.845091
vn -0.262473 0.000002 0.964939
vn -0.262474 0.000002 0.964939
vn -0.534629 -0.731865 0.422547
vn -0.534629 -0.731865 0.422547
vn -0.262477 -0.835659 0.482473
vn -0.262478 -0.835659 0.482473
vn -0.534626 -0.731867 -0.422547
vn -0.534626 -0.731867 -0.422547
vn -0.262477 -0.835659 -0.482473
vn -0.262475 -0.835659 -0.482473
vn 0.000000 0.000000 -1.000000
vn 0.000000 0.000000 -1.000000
vn 0.000000 0.866023 -0.500004
vn 0.000000 0.866023 -0.500004
vn 0.000000 0.866025 0.500001
vn 0.000000 0.866025 0.500001
vn 0.000000 0.000002 1.000000
vn 0.000000 0.000002 1.000000
vn 0.000000 -0.866023 0.500004
vn 0.000000 -0.866023 0.500004
vn 0.000000 -0.866022 -0.500005
vn 0.000000 -0.866022 -0.500005
vn 0.000000 1.000000 0.000000
vn 0.000000 1.000000 0.000000
vn 0.000000 1.000000 0.000000
vn 0.000000 1.000000 0.000000
vn 0.000000 0.000000 1.000000
vn 0.000000 0.000000 1.000000
vn 0.000000 0.000000 1.000000
vn 0.000000 0.000000 1.000000
vn 0.000000 0.000000 -1.000000
vn 0.000000 0.000000 -1.000000
vn 0.000000 0.000000 -1.000000
vn 0.000000 0.000000 -1.000000
s off
g door_wc polySurface26
usemtl initialShadingGroup
f 1/1/1 2/2/2 8/3/3 7/4/4
f 2/2/5 3/5/6 9/6/7 8/3/8
f 3/5/9 4/7/10 10/8/11 9/6/12
f 4/7/13 5/9/14 11/10/15 10/8/16
f 5/9/17 6/11/18 12/12/19 11/10/20
f 6/11/21 1/13/22 7/14/23 12/12/24
s 1
f 27/15/25 28/16/26 29/17/27
f 28/16/26 30/18/28 29/17/27
f 30/18/28 31/19/29 29/17/27
f 31/19/29 32/20/30 29/17/27
f 32/20/30 33/21/31 29/17/27
f 33/21/31 27/15/25 29/17/27
s 2
f 2/22/32 1/23/33 13/24/34 14/25/35
f 3/26/36 2/27/32 14/28/35
f 4/29/37 3/30/36 14/31/35 15/32/38
f 5/33/39 4/34/37 15/35/38 16/36/40
f 6/37/41 5/38/39 16/39/40 13/40/34
f 1/41/33 6/42/41 13/43/34
s off
f 20/44/42 13/45/43 16/46/44 17/47/45
f 20/48/46 17/49/47 18/50/48 19/51/49
s 3
f 7/52/50 8/53/51 22/54/52 21/55/53
s 4
f 8/53/54 9/56/55 23/57/56 22/54/57
s 5
f 9/56/58 10/58/59 24/59/60 23/57/61
s 6
f 10/58/62 11/60/63 25/61/64 24/59/65
s 7
f 11/60/66 12/62/67 26/63/68 25/61/69
s 8
f 12/62/70 7/52/71 21/55/72 26/63/73
s 3
f 21/55/53 22/54/52 28/16/74 27/15/75
s 4
f 22/54/57 23/57/56 30/18/76 28/16/77
s 5
f 23/57/61 24/59/60 31/19/78 30/18/79
s 6
f 24/59/65 25/61/64 32/20/80 31/19/81
s 7
f 25/61/69 26/63/68 33/21/82 32/20/83
s 8
f 26/63/73 21/55/72 27/15/84 33/21/85
s off
f 15/64/86 14/65/87 19/66/88 18/67/89
f 16/68/90 15/69/91 18/70/92 17/71/93
f 14/72/94 13/73/95 20/74/96 19/75/97
