# This file uses centimeters as units for non-parametric coordinates.

mtllib door_jam_wc_1.mtl
g default
v 0.000000 -0.000000 6.738775
v 6.000000 -0.000000 6.738775
v 6.000000 144.066040 6.738775
v -0.000000 144.066040 6.738775
v 6.000000 144.066040 -87.169502
v 0.000000 144.066040 -87.169502
v 6.000000 -0.000000 -87.169502
v -0.000000 -0.000000 -87.169502
v 0.000000 0.000000 0.000000
v 6.000000 0.000000 0.000000
v 6.000000 140.000000 0.000000
v -0.000000 140.000000 -0.000000
v 6.000000 140.000000 -80.430717
v 0.000000 140.000000 -80.430717
v 6.000000 -0.000000 -80.430717
v 0.000000 0.000000 -80.430717
vt 0.375000 0.000000
vt 0.625000 0.000000
vt 0.625000 0.250000
vt 0.375000 0.250000
vt 0.625000 0.500000
vt 0.375000 0.500000
vt 0.625000 0.750000
vt 0.375000 0.750000
vt 0.375000 0.000000
vt 0.625000 0.000000
vt 0.625000 0.250000
vt 0.375000 0.250000
vt 0.625000 0.500000
vt 0.375000 0.500000
vt 0.625000 0.750000
vt 0.375000 0.750000
vt 0.000000 0.000000
vt 1.000000 0.000000
vt 1.000000 0.042857
vt 0.000000 0.042857
vt 0.000000 0.000000
vt 1.000000 0.000000
vt 1.000000 0.075000
vt 0.000000 0.075000
vt 0.000000 0.000000
vt 1.000000 0.000000
vt 1.000000 0.042857
vt 0.000000 0.042857
vn 0.000000 0.000000 1.000000
vn 0.000000 0.000000 1.000000
vn 0.000000 0.000000 1.000000
vn 0.000000 0.000000 1.000000
vn 0.000000 1.000000 0.000000
vn 0.000000 1.000000 0.000000
vn 0.000000 1.000000 0.000000
vn 0.000000 1.000000 0.000000
vn 0.000000 0.000000 -1.000000
vn 0.000000 0.000000 -1.000000
vn 0.000000 0.000000 -1.000000
vn 0.000000 0.000000 -1.000000
vn 0.000000 -1.000000 -0.000000
vn 0.000000 -1.000000 -0.000000
vn 0.000000 -1.000000 -0.000000
vn 0.000000 -1.000000 -0.000000
vn 1.000000 0.000000 0.000000
vn 1.000000 -0.000000 0.000000
vn 1.000000 -0.000000 0.000000
vn 1.000000 0.000000 0.000000
vn -1.000000 0.000000 -0.000000
vn -1.000000 -0.000000 0.000000
vn -1.000000 -0.000000 0.000000
vn -1.000000 0.000000 -0.000000
vn 1.000000 -0.000000 0.000000
vn 1.000000 -0.000000 0.000000
vn -1.000000 0.000000 -0.000000
vn -1.000000 0.000000 -0.000000
vn 1.000000 0.000000 0.000000
vn 1.000000 0.000000 0.000000
vn -0.000000 -1.000000 0.000000
vn -0.000000 -1.000000 0.000000
vn -0.000000 -1.000000 0.000000
vn -0.000000 -1.000000 0.000000
vn -1.000000 0.000000 -0.000000
vn -1.000000 0.000000 -0.000000
vn -0.000000 0.000000 1.000000
vn -0.000000 0.000000 1.000000
vn -0.000000 0.000000 1.000000
vn -0.000000 0.000000 1.000000
vn 0.000000 -1.000000 0.000000
vn 0.000000 -1.000000 0.000000
vn 0.000000 -1.000000 0.000000
vn 0.000000 -1.000000 0.000000
vn 0.000000 0.000000 -1.000000
vn 0.000000 0.000000 -1.000000
vn 0.000000 0.000000 -1.000000
vn 0.000000 0.000000 -1.000000
s off
g door_jam_single_wc polySurface26
usemtl initialShadingGroup
f 1/1/1 2/2/2 3/3/3 4/4/4
f 4/4/5 3/3/6 5/5/7 6/6/8
f 6/6/9 5/5/10 7/7/11 8/8/12
f 9/9/13 10/10/14 2/2/15 1/1/16
s 1
f 10/10/17 11/11/18 3/3/19 2/2/20
s 2
f 12/12/21 9/9/22 1/1/23 4/4/24
s 1
f 11/11/18 13/13/25 5/5/26 3/3/19
s 2
f 14/14/27 12/12/21 4/4/24 6/6/28
s 1
f 13/13/25 15/15/29 7/7/30 5/5/26
s off
f 15/15/31 16/16/32 8/8/33 7/7/34
s 2
f 16/16/35 14/14/27 6/6/28 8/8/36
s off
f 15/17/37 13/18/38 14/19/39 16/20/40
f 13/21/41 11/22/42 12/23/43 14/24/44
f 11/25/45 10/26/46 9/27/47 12/28/48
