# This file uses centimeters as units for non-parametric coordinates.

mtllib hedge_archway_er_2.mtl
g default
v -48.000000 0.000000 80.000000
v 0.000000 0.000000 80.000000
v -48.000000 96.000000 80.000000
v 0.000000 96.000000 80.000000
v -48.000000 96.000000 0.000008
v 0.000000 96.000000 0.000008
v -48.000000 0.000000 0.000008
v 0.000000 0.000000 0.000008
v 0.000000 96.000000 15.999992
v -48.000000 96.000000 16.000000
v -48.000000 0.000000 16.000000
v 0.000000 0.000000 15.999992
v 0.000000 96.000000 64.000000
v -48.000000 96.000000 64.000000
v -48.000000 0.000000 64.000000
v 0.000000 0.000000 64.000000
v 0.000000 96.000000 25.655365
v -48.000000 96.000000 25.655373
v 0.000000 96.000000 35.310738
v -48.000000 96.000000 35.310745
v 0.000000 96.000000 44.966118
v -48.000000 96.000000 44.966118
v 0.000000 96.000000 54.621483
v -48.000000 96.000000 54.621483
v 0.000000 55.866287 15.999992
v 0.000000 72.834808 25.655365
v 0.000000 77.480438 35.310738
v 0.000000 77.480438 44.966118
v 0.000000 72.834808 54.621483
v 0.000000 55.866287 64.000000
v 0.000000 55.866287 80.000000
v -48.000000 55.866287 80.000000
v -48.000000 55.866287 64.000000
v -48.000000 72.834808 54.621483
v -48.000000 77.480438 44.966118
v -48.000000 77.480438 35.310745
v -48.000000 72.834808 25.655373
v -48.000000 55.866287 16.000000
v -48.000000 55.866287 0.000008
v 0.000000 55.866287 0.000008
vt -0.766616 0.438066
vt -0.156017 0.030251
vt -0.155816 0.267274
vt -0.529595 0.437865
vt -0.155671 0.437548
vt -0.359320 0.437721
vt -0.766392 0.709595
vt 0.485900 0.562551
vt -0.155613 0.505431
vt -0.359263 0.505604
vt -0.155579 0.545221
vt -0.359229 0.545394
vt -0.155545 0.586186
vt -0.359194 0.586359
vt -0.155510 0.627151
vt -0.359160 0.627324
vt -0.155475 0.668116
vt -0.359125 0.668289
vt -0.155440 0.709081
vt -0.359091 0.709254
vt -0.155382 0.776965
vt -0.359033 0.777138
vt -0.358889 0.947414
vt 0.014895 0.776820
vt 0.251922 0.776618
vt -0.358688 1.184439
vt 0.485238 0.649597
vt 0.484874 0.697370
vt 0.484547 0.740420
vt 0.251685 0.505082
vt 0.697538 0.876263
vt 0.484184 0.788193
vt 0.483526 0.874635
vt 0.481631 1.123719
vt 0.698195 0.789820
vt 0.701806 0.315095
vt 0.698559 0.742047
vt 0.699912 0.564179
vt 0.698886 0.698998
vt 0.699250 0.651225
vt -0.155238 0.947241
vt -0.155037 1.184266
vt -0.529310 0.777281
vt -0.766335 0.777479
vt -0.457408 0.668372
vt -0.529367 0.709397
vt 0.487795 0.313467
vt -0.437733 0.627390
vt -0.437767 0.586425
vt -0.457512 0.545477
vt -0.529537 0.505748
vt -0.766558 0.505948
vt -0.359464 0.267447
vt 0.014604 0.437402
vt -0.057296 0.545137
vt 0.014662 0.505286
vt -0.076971 0.586119
vt -0.076936 0.627084
vt -0.057191 0.668033
vt 0.014837 0.708937
vt 0.695643 1.125347
vt 0.251864 0.708734
vt 0.251627 0.437199
vt -0.359665 0.030424
vn 0.000000 0.000000 1.000000
vn 0.000000 0.000000 1.000000
vn 0.000000 0.000000 1.000000
vn 0.000000 0.000000 1.000000
vn 0.000000 1.000000 0.000000
vn 0.000000 1.000000 0.000000
vn 0.000000 1.000000 0.000000
vn 0.000000 1.000000 0.000000
vn 0.000000 0.000000 -1.000000
vn 0.000000 0.000000 -1.000000
vn 0.000000 0.000000 -1.000000
vn 0.000000 0.000000 -1.000000
vn 1.000000 0.000000 0.000000
vn 0.316228 0.000000 -0.948683
vn 0.420017 -0.115899 -0.900085
vn 1.000000 0.000000 0.000000
vn -0.316228 0.000000 -0.948683
vn -1.000000 0.000000 0.000000
vn -1.000000 0.000000 0.000000
vn -0.420017 -0.115899 -0.900085
vn 0.000000 1.000000 0.000000
vn 0.000000 1.000000 0.000000
vn 0.000000 1.000000 0.000000
vn 0.000000 1.000000 0.000000
vn -1.000000 0.000000 0.000000
vn -0.316228 0.000000 0.948683
vn -0.420956 -0.119205 0.899214
vn -1.000000 0.000000 0.000000
vn 1.000000 0.000000 0.000000
vn 0.420956 -0.119205 0.899214
vn 0.316228 0.000000 0.948683
vn 1.000000 0.000000 0.000000
vn 0.000000 1.000000 0.000000
vn 0.000000 1.000000 0.000000
vn 0.000000 1.000000 0.000000
vn 0.000000 1.000000 0.000000
vn 0.000000 1.000000 0.000000
vn 0.000000 1.000000 0.000000
vn 0.000000 1.000000 0.000000
vn 0.000000 1.000000 0.000000
vn 1.000000 0.000000 0.000000
vn 0.425596 -0.602902 0.674817
vn 1.000000 0.000000 0.000000
vn 1.000000 0.000000 0.000000
vn 0.417088 -0.883655 0.212583
vn 1.000000 0.000000 0.000000
vn 0.417088 -0.883655 -0.212583
vn 1.000000 0.000000 0.000000
vn 0.421214 -0.599402 -0.680658
vn 1.000000 0.000000 0.000000
vn 1.000000 0.000000 0.000000
vn 0.000000 0.000000 1.000000
vn 0.000000 0.000000 1.000000
vn -1.000000 0.000000 0.000000
vn -1.000000 0.000000 0.000000
vn -0.421214 -0.599402 -0.680658
vn -1.000000 0.000000 0.000000
vn -0.417088 -0.883655 -0.212583
vn -1.000000 0.000000 0.000000
vn -0.417088 -0.883655 0.212583
vn -1.000000 0.000000 0.000000
vn -0.425596 -0.602902 0.674817
vn -1.000000 0.000000 0.000000
vn -1.000000 0.000000 0.000000
vn -1.000000 0.000000 0.000000
vn 0.000000 0.000000 -1.000000
vn 0.000000 0.000000 -1.000000
vn 1.000000 0.000000 0.000000
s 1
g hedge_archway_er_2
usemtl lambert2SG
f 1/64/1 2/2/2 31/3/3 32/53/4
s 2
f 3/6/5 4/5/6 13/9/7 14/10/8
s 3
f 39/23/9 40/41/10 8/42/11 7/26/12
s 4
f 2/63/13 16/30/14 30/56/15 31/54/16
f 15/52/17 1/1/18 32/4/19 33/51/20
s 2
f 10/20/21 9/19/22 6/21/23 5/22/24
s 4
f 7/44/25 11/7/26 38/46/27 39/43/28
f 40/24/29 25/60/30 12/62/31 8/25/32
s 2
f 14/10/8 13/9/7 23/11/33 24/12/34
f 18/18/35 17/17/36 9/19/22 10/20/21
f 20/16/37 19/15/38 17/17/36 18/18/35
f 22/14/39 21/13/40 19/15/38 20/16/37
f 24/12/34 23/11/33 21/13/40 22/14/39
s 4
f 17/17/41 26/59/42 25/60/30 9/19/43
f 19/15/44 27/58/45 26/59/42 17/17/41
f 21/13/46 28/57/47 27/58/45 19/15/44
f 23/11/48 29/55/49 28/57/47 21/13/46
f 13/9/50 30/56/15 29/55/49 23/11/48
f 31/54/16 30/56/15 13/9/50 4/5/51
s 1
f 32/53/4 31/3/3 4/5/52 3/6/53
s 4
f 33/51/20 32/4/19 3/6/54 14/10/55
f 34/50/56 33/51/20 14/10/55 24/12/57
f 35/49/58 34/50/56 24/12/57 22/14/59
f 36/48/60 35/49/58 22/14/59 20/16/61
f 37/45/62 36/48/60 20/16/61 18/18/63
f 38/46/27 37/45/62 18/18/63 10/20/64
f 39/43/28 38/46/27 10/20/64 5/22/65
s 3
f 5/22/66 6/21/67 40/41/10 39/23/9
s 4
f 9/19/43 25/60/30 40/24/29 6/21/68
f 30/31/15 16/61/14 15/34/17 33/33/20
f 29/35/49 30/31/15 33/33/20 34/32/56
f 28/37/47 29/35/49 34/32/56 35/29/58
f 27/39/45 28/37/47 35/29/58 36/28/60
f 25/38/30 26/40/42 37/27/62 38/8/27
f 26/40/42 27/39/45 36/28/60 37/27/62
f 12/36/31 25/38/30 38/8/27 11/47/26
