# This file uses centimeters as units for non-parametric coordinates.

mtllib housingwall_bg_LTurn_wc_1.mtl
g default
v 0.000000 0.000000 12.000000
v 256.000000 0.000000 12.000000
v 0.000000 128.000000 12.000000
v 256.000000 128.000000 12.000000
v 0.000000 128.000000 0.000000
v 256.000000 128.000000 0.000000
v 0.000000 0.000000 0.000000
v 256.000000 0.000000 0.000000
v 243.216080 128.000000 12.000000
v 243.216080 128.000000 0.000000
v 243.216080 0.000000 0.000000
v 243.216080 0.000000 12.000000
v 243.216080 0.000000 254.000000
v 243.216080 128.000000 254.000000
v 256.000000 0.000000 254.000000
v 256.000000 128.000000 254.000000
v 254.723389 32.000000 2.337970
v 241.939453 32.000000 2.337970
v 0.000000 32.000000 0.000000
v 0.000000 32.000000 12.000000
v 241.939453 32.000000 14.337970
v 243.216080 32.000000 254.000000
v 256.000000 32.000000 254.000000
v 254.723389 32.000000 14.337970
v 253.214218 64.000000 5.101860
v 240.430298 64.000000 5.101860
v 0.000000 64.000000 0.000000
v 0.000000 64.000000 12.000000
v 240.430298 64.000000 17.101860
v 243.216080 64.000000 254.000000
v 256.000000 64.000000 254.000000
v 253.214218 64.000000 17.101860
v 254.723389 96.000000 2.337970
v 241.939453 96.000000 2.337970
v 0.000000 96.000000 0.000000
v 0.000000 96.000000 12.000000
v 241.939453 96.000000 14.337970
v 243.216080 96.000000 254.000000
v 256.000000 96.000000 254.000000
v 254.723389 96.000000 14.337970
vt 0.375000 0.000000
vt 0.625000 0.000000
vt 0.375000 0.250000
vt 0.625000 0.250000
vt 0.375000 0.500000
vt 0.625000 0.500000
vt 0.375000 0.750000
vt 0.625000 0.750000
vt 0.375000 1.000000
vt 0.625000 1.000000
vt 0.875000 0.000000
vt 0.875000 0.250000
vt 0.125000 0.000000
vt 0.125000 0.250000
vt 0.612516 0.250000
vt 0.612516 0.500000
vt 0.612516 0.750000
vt 0.612516 0.000000
vt 0.612516 1.000000
vt 0.612516 0.250000
vt 0.612516 0.000000
vt 0.625000 0.000000
vt 0.625000 0.250000
vt 0.625000 0.687500
vt 0.875000 0.062500
vt 0.612516 0.687500
vt 0.125000 0.062500
vt 0.375000 0.687500
vt 0.375000 0.062500
vt 0.612516 0.062500
vt 0.612516 0.062500
vt 0.625000 0.062500
vt 0.625000 0.062500
vt 0.625000 0.625000
vt 0.875000 0.125000
vt 0.612516 0.625000
vt 0.125000 0.125000
vt 0.375000 0.625000
vt 0.375000 0.125000
vt 0.612516 0.125000
vt 0.612516 0.125000
vt 0.625000 0.125000
vt 0.625000 0.125000
vt 0.625000 0.562500
vt 0.875000 0.187500
vt 0.612516 0.562500
vt 0.125000 0.187500
vt 0.375000 0.562500
vt 0.375000 0.187500
vt 0.612516 0.187500
vt 0.612516 0.187500
vt 0.625000 0.187500
vt 0.625000 0.187500
vn -0.010097 0.040044 0.999147
vn -0.009953 0.039950 0.999152
vn -0.004816 0.036602 0.999318
vn -0.004816 0.036602 0.999318
vn 0.000000 1.000000 0.000000
vn 0.000000 1.000000 0.000000
vn 0.000000 1.000000 0.000000
vn 0.000000 1.000000 0.000000
vn 0.004816 -0.036602 -0.999318
vn 0.004562 -0.038512 -0.999248
vn 0.009451 -0.041958 -0.999075
vn 0.010097 -0.040044 -0.999147
vn 0.000000 -1.000000 0.000000
vn 0.000000 -1.000000 0.000000
vn 0.000000 -1.000000 0.000000
vn 0.000000 -1.000000 0.000000
vn 0.999724 -0.022930 -0.005161
vn 0.999062 -0.043303 0.000000
vn 0.999205 -0.039862 0.000000
vn 0.999775 -0.021068 -0.002512
vn -1.000000 0.000000 0.000000
vn -1.000000 0.000000 0.000000
vn -1.000000 0.000000 0.000000
vn -1.000000 0.000000 0.000000
vn 0.000000 1.000000 0.000000
vn 0.000000 1.000000 0.000000
vn 0.000000 -0.072867 -0.997342
vn 0.000000 -0.079282 -0.996852
vn 0.000000 -1.000000 0.000000
vn 0.000000 -1.000000 0.000000
vn 0.000000 0.000000 1.000000
vn 0.000000 0.000000 1.000000
vn 0.000000 0.000000 1.000000
vn 0.000000 0.000000 1.000000
vn -0.999796 0.020040 0.002650
vn -0.999746 0.021882 0.005422
vn -0.999743 0.021981 0.005570
vn -0.999796 0.020040 0.002650
vn 0.000000 -1.000000 0.000000
vn 0.000000 -1.000000 0.000000
vn 0.999796 -0.020040 -0.002650
vn 0.999743 -0.021981 -0.005570
vn 0.000000 1.000000 0.000000
vn 0.000000 1.000000 0.000000
vn 0.004562 0.038512 -0.999248
vn 0.009451 0.041958 -0.999075
vn 0.000000 0.079282 -0.996852
vn 0.000000 0.072867 -0.997342
vn 0.010097 0.040044 -0.999147
vn 0.004816 0.036602 -0.999318
vn -1.000000 0.000000 0.000000
vn -1.000000 0.000000 0.000000
vn -1.000000 0.000000 0.000000
vn -1.000000 0.000000 0.000000
vn -0.004816 -0.036602 0.999318
vn -0.004816 -0.036602 0.999318
vn -0.009953 -0.039950 0.999152
vn -0.010097 -0.040044 0.999147
vn -0.999743 -0.021981 0.005570
vn -0.999746 -0.021882 0.005422
vn -0.999796 -0.020040 0.002650
vn -0.999796 -0.020040 0.002650
vn 0.000000 0.000000 1.000000
vn 0.000000 0.000000 1.000000
vn 0.000000 0.000000 1.000000
vn 0.000000 0.000000 1.000000
vn 0.999775 0.021068 -0.002512
vn 0.999724 0.022930 -0.005161
vn 0.999743 0.021981 -0.005570
vn 0.999796 0.020040 -0.002650
vn 0.999205 0.039862 0.000000
vn 0.999062 0.043302 0.000000
vn 0.014688 0.000000 -0.999892
vn 0.000000 0.000000 -1.000000
vn 0.015422 0.000000 -0.999881
vn -1.000000 0.000000 0.000000
vn -1.000000 0.000000 0.000000
vn -0.015422 0.000000 0.999881
vn -0.015422 0.000000 0.999881
vn -0.999964 0.000000 0.008524
vn -0.999964 0.000000 0.008524
vn 0.000000 0.000000 1.000000
vn 0.000000 0.000000 1.000000
vn 0.999967 -0.000000 -0.008156
vn 0.999964 0.000000 -0.008524
vn 1.000000 -0.000000 0.000000
s 1
g housing_walls_wc_3
usemtl initialShadingGroup
f 36/49/1 37/50/2 9/15/3 3/3/4
s 2
f 3/3/5 9/15/6 10/16/7 5/5/8
s 3
f 5/5/9 10/16/10 34/46/11 35/48/12
s 4
f 7/7/13 11/17/14 12/19/15 1/9/16
s 5
f 40/53/17 33/45/18 6/12/19 4/4/20
s 6
f 35/47/21 36/49/22 3/3/23 5/14/24
s 2
f 9/15/6 4/4/25 6/6/26 10/16/7
s 3
f 34/46/11 10/16/10 6/6/27 33/44/28
s 4
f 12/19/15 11/17/14 8/8/29 2/10/30
s 7
f 14/20/31 38/51/32 39/52/33 16/23/34
s 8
f 9/15/35 37/50/36 38/51/37 14/20/38
s 4
f 12/18/15 2/2/30 15/22/39 13/21/40
s 5
f 40/53/17 4/4/20 16/23/41 39/52/42
s 2
f 4/4/25 9/15/6 14/20/43 16/23/44
s 3
f 11/17/45 18/26/46 17/24/47 8/8/48
f 19/28/49 18/26/46 11/17/45 7/7/50
s 6
f 7/13/51 1/1/52 20/29/53 19/27/54
s 1
f 1/1/55 12/18/56 21/30/57 20/29/58
s 8
f 22/31/59 21/30/60 12/18/61 13/21/62
s 7
f 23/32/63 22/31/64 13/21/65 15/22/66
s 5
f 2/2/67 24/33/68 23/32/69 15/22/70
f 2/2/67 8/11/71 17/25/72 24/33/68
s 3
f 18/26/46 26/36/73 25/34/74 17/24/47
f 27/38/75 26/36/73 18/26/46 19/28/49
s 6
f 19/27/54 20/29/53 28/39/76 27/37/77
s 1
f 20/29/58 21/30/57 29/40/78 28/39/79
s 8
f 30/41/80 29/40/81 21/30/60 22/31/59
s 7
f 31/42/82 30/41/83 22/31/64 23/32/63
s 5
f 24/33/68 32/43/84 31/42/85 23/32/69
f 24/33/68 17/25/72 25/35/86 32/43/84
s 3
f 26/36/73 34/46/11 33/44/28 25/34/74
f 35/48/12 34/46/11 26/36/73 27/38/75
s 6
f 27/37/77 28/39/76 36/49/22 35/47/21
s 1
f 28/39/79 29/40/78 37/50/2 36/49/1
s 8
f 38/51/37 37/50/36 29/40/81 30/41/80
s 7
f 39/52/33 38/51/32 30/41/83 31/42/82
s 5
f 32/43/84 40/53/17 39/52/42 31/42/85
f 32/43/84 25/35/86 33/45/18 40/53/17
