# This file uses centimeters as units for non-parametric coordinates.

mtllib housingwall_bg_wc_1.mtl
g default
v 0.000000 0.000000 12.000000
v 256.000000 0.000000 12.000000
v 0.000000 128.000000 12.000000
v 256.000000 128.000000 12.000000
v 0.000000 128.000000 0.000000
v 256.000000 128.000000 0.000000
v 0.000000 0.000000 0.000000
v 256.000000 0.000000 0.000000
v 256.000000 32.000000 1.331210
v 0.000000 32.000000 1.331210
v 0.000000 32.000000 13.547527
v 256.000000 32.000000 13.547527
v 256.000000 64.000000 2.902582
v 0.000000 64.000000 2.902582
v 0.000000 64.000000 14.902582
v 256.000000 64.000000 14.902582
v 256.000000 96.000000 1.331210
v 0.000000 96.000000 1.331210
v 0.000000 96.000000 13.547527
v 256.000000 96.000000 13.547527
vt 0.375000 0.000000
vt 0.625000 0.000000
vt 0.375000 0.250000
vt 0.625000 0.250000
vt 0.375000 0.500000
vt 0.625000 0.500000
vt 0.375000 0.750000
vt 0.625000 0.750000
vt 0.375000 1.000000
vt 0.625000 1.000000
vt 0.875000 0.000000
vt 0.875000 0.250000
vt 0.125000 0.000000
vt 0.125000 0.250000
vt 0.625000 0.687500
vt 0.875000 0.062500
vt 0.125000 0.062500
vt 0.375000 0.687500
vt 0.375000 0.062500
vt 0.625000 0.062500
vt 0.625000 0.625000
vt 0.875000 0.125000
vt 0.125000 0.125000
vt 0.375000 0.625000
vt 0.375000 0.125000
vt 0.625000 0.125000
vt 0.625000 0.562500
vt 0.875000 0.187500
vt 0.125000 0.187500
vt 0.375000 0.562500
vt 0.375000 0.187500
vt 0.625000 0.187500
vn 0.000000 0.045306 0.998973
vn 0.000000 0.045306 0.998973
vn 0.000000 0.048304 0.998833
vn 0.000000 0.048304 0.998833
vn 0.000000 1.000000 0.000000
vn 0.000000 1.000000 0.000000
vn 0.000000 1.000000 0.000000
vn 0.000000 1.000000 0.000000
vn 0.000000 -0.041564 -0.999136
vn 0.000000 -0.041564 -0.999136
vn 0.000000 -0.045306 -0.998973
vn 0.000000 -0.045306 -0.998973
vn 0.000000 -1.000000 0.000000
vn 0.000000 -1.000000 0.000000
vn 0.000000 -1.000000 0.000000
vn 0.000000 -1.000000 0.000000
vn 1.000000 -0.000000 0.000000
vn 1.000000 -0.000000 0.000000
vn 1.000000 0.000000 0.000000
vn 1.000000 0.000000 0.000000
vn -1.000000 0.000000 0.000000
vn -1.000000 0.000000 0.000000
vn -1.000000 0.000000 0.000000
vn -1.000000 0.000000 0.000000
vn 0.000000 0.045306 -0.998973
vn 0.000000 0.045306 -0.998973
vn 0.000000 0.041564 -0.999136
vn 0.000000 0.041564 -0.999136
vn -1.000000 0.000000 0.000000
vn -1.000000 0.000000 0.000000
vn -1.000000 0.000000 0.000000
vn -1.000000 0.000000 0.000000
vn 0.000000 -0.048304 0.998833
vn 0.000000 -0.048304 0.998833
vn 0.000000 -0.045306 0.998973
vn 0.000000 -0.045306 0.998973
vn 1.000000 0.000000 0.000000
vn 1.000000 0.000000 0.000000
vn 1.000000 0.000000 0.000000
vn 1.000000 0.000000 0.000000
vn 0.000000 0.000000 -1.000000
vn 0.000000 0.000000 -1.000000
vn -1.000000 0.000000 0.000000
vn -1.000000 0.000000 0.000000
vn 0.000000 0.000000 1.000000
vn 0.000000 0.000000 1.000000
vn 1.000000 0.000000 0.000000
vn 1.000000 0.000000 0.000000
s 1
g housing_walls_wc_2
usemtl initialShadingGroup
f 19/31/1 20/32/2 4/4/3 3/3/4
s off
f 3/3/5 4/4/6 6/6/7 5/5/8
s 2
f 5/5/9 6/6/10 17/27/11 18/30/12
s off
f 7/7/13 8/8/14 2/10/15 1/9/16
s 3
f 20/32/17 17/28/18 6/12/19 4/4/20
s 4
f 18/29/21 19/31/22 3/3/23 5/14/24
s 2
f 10/18/25 9/15/26 8/8/27 7/7/28
s 4
f 7/13/29 1/1/30 11/19/31 10/17/32
s 1
f 1/1/33 2/2/34 12/20/35 11/19/36
s 3
f 2/2/37 8/11/38 9/16/39 12/20/40
s 2
f 14/24/41 13/21/42 9/15/26 10/18/25
s 4
f 10/17/32 11/19/31 15/25/43 14/23/44
s 1
f 11/19/36 12/20/35 16/26/45 15/25/46
s 3
f 12/20/40 9/16/39 13/22/47 16/26/48
s 2
f 18/30/12 17/27/11 13/21/42 14/24/41
s 4
f 14/23/44 15/25/43 19/31/22 18/29/21
s 1
f 15/25/46 16/26/45 20/32/2 19/31/1
s 3
f 16/26/48 13/22/47 17/28/18 20/32/17
