# This file uses centimeters as units for non-parametric coordinates.

mtllib JC_Window_Metal_Single_Small.mtl
g default
v 0.000000 0.000000 0.000000
v 67.684982 0.000000 0.000000
v 0.000000 42.113129 0.000000
v 67.684982 42.113129 0.000000
v 0.000000 42.113129 -9.383304
v 67.727356 42.037231 -8.191889
v 0.000000 0.000000 -9.383304
v 67.684982 0.000000 -9.383304
v 3.321265 3.403962 0.000000
v 64.363647 3.403962 0.000000
v 64.363647 38.709167 0.000000
v 3.321265 38.709167 0.000000
v 3.321265 38.709167 -9.383304
v 64.363647 38.709167 -9.383304
v 64.363647 3.403962 -9.383304
v 3.321265 3.403962 -9.383304
v 33.565365 40.716248 -7.697875
v 33.842457 38.709167 -8.524479
v 33.842457 38.709167 -0.858824
v 33.842491 41.097389 -0.858824
v 51.337826 41.243530 -7.765215
v 49.103054 38.709167 -8.953892
v 49.103054 38.709167 -0.429412
v 50.763733 41.605263 -0.429412
v 0.992545 21.428219 -8.251782
v 0.000000 21.056564 -0.777790
v 3.321265 21.056564 -0.777790
v 3.321265 21.056564 -8.605514
v 44.287479 3.403962 -8.192960
v 44.287510 0.000000 -8.192960
v 44.287510 0.000000 -1.190344
v 44.287479 3.403962 -1.190344
v 44.287495 1.701982 -9.013094
v 1.660632 1.701982 -10.203438
v 2.156906 21.242392 -9.248782
v 1.660632 40.411152 -10.203438
v 33.703911 39.712708 -8.931312
v 50.220440 39.976349 -9.179688
v 66.045502 40.373199 -9.607731
v 66.024315 1.701982 -10.203438
vt 0.375000 0.000000
vt 0.625000 0.000000
vt 0.375000 0.250000
vt 0.625000 0.250000
vt 0.375000 0.500000
vt 0.625000 0.500000
vt 0.375000 0.750000
vt 0.625000 0.750000
vt 0.375000 1.000000
vt 0.625000 1.000000
vt 0.875000 0.000000
vt 0.875000 0.250000
vt 0.125000 0.000000
vt 0.125000 0.250000
vt 0.375000 0.000000
vt 0.625000 0.000000
vt 0.625000 0.250000
vt 0.375000 0.250000
vt 0.375000 0.500000
vt 0.625000 0.500000
vt 0.625000 0.750000
vt 0.375000 0.750000
vt 0.000000 1.000000
vt 0.899655 1.000000
vt 0.899655 0.000000
vt 0.000000 0.000000
vt 0.000000 0.000000
vt 0.838342 0.000000
vt 0.838342 1.000000
vt 0.000000 1.000000
vt 0.000000 0.000000
vt 0.899655 0.000000
vt 0.899655 1.000000
vt 0.000000 1.000000
vt 0.000000 0.000000
vt 0.838342 0.000000
vt 0.838342 1.000000
vt 0.000000 1.000000
vt 0.500000 0.500000
vt 0.449828 0.000000
vt 0.500000 0.500000
vt 0.500000 0.250000
vt 0.449828 1.000000
vt 0.500000 0.250000
vt 0.562500 0.500000
vt 0.674742 0.000000
vt 0.562500 0.500000
vt 0.562500 0.250000
vt 0.674742 1.000000
vt 0.562500 0.250000
vt 0.125000 0.125000
vt 0.375000 0.625000
vt 0.375000 0.125000
vt 0.375000 0.125000
vt 0.419171 0.000000
vt 0.375000 0.625000
vt 0.419171 1.000000
vt 0.500000 0.750000
vt 0.449828 1.000000
vt 0.500000 0.750000
vt 0.500000 0.000000
vt 0.500000 1.000000
vt 0.449828 0.000000
vt 0.500000 0.000000
vt 0.500000 0.750000
vt 0.375000 0.750000
vt 0.375000 0.625000
vt 0.375000 0.500000
vt 0.500000 0.500000
vt 0.562500 0.500000
vt 0.625000 0.500000
vt 0.625000 0.750000
vn 0.036053 0.999060 -0.024089
vn 0.015077 0.999329 -0.033376
vn 0.016883 0.999327 -0.032577
vn 0.036053 0.999060 -0.024089
vn 0.000000 -1.000000 0.000000
vn 0.000000 -1.000000 0.000000
vn 0.000000 -1.000000 0.000000
vn 0.000000 -1.000000 0.000000
vn 0.999997 -0.000538 0.002413
vn 0.999997 -0.000538 0.002413
vn 0.999997 -0.000538 0.002413
vn 0.999997 -0.000538 0.002413
vn -0.998270 -0.000743 -0.058794
vn -0.998272 0.000736 -0.058761
vn -0.997947 -0.024232 -0.059293
vn -0.997947 -0.024232 -0.059293
vn 0.027911 -0.013616 0.999518
vn -0.000000 -0.018042 0.999837
vn 0.000000 -0.018042 0.999837
vn 0.027911 -0.013616 0.999518
vn 0.000000 0.000000 1.000000
vn 0.000000 0.000000 1.000000
vn 0.000000 0.000000 1.000000
vn 0.000000 0.000000 1.000000
vn 0.010043 0.013237 0.999862
vn 0.026917 0.015434 0.999519
vn 0.026917 0.015434 0.999519
vn 0.010044 0.013237 0.999862
vn -0.020573 -0.040145 0.998982
vn -0.020589 0.000000 0.999788
vn -0.020589 0.000000 0.999788
vn -0.020573 -0.040145 0.998982
vn 0.053991 0.438974 -0.896876
vn 0.025000 0.254319 -0.966797
vn 0.012183 -0.354560 -0.934954
vn 0.026789 -0.398040 -0.916977
vn 0.392608 0.016819 -0.919552
vn 0.393140 0.016824 -0.919325
vn -0.298191 0.007771 -0.954475
vn -0.298191 0.007771 -0.954475
vn -0.000135 -0.030500 -0.999535
vn 0.026879 -0.236641 -0.971225
vn 0.025786 0.423719 -0.905427
vn 0.000145 0.420430 -0.907325
vn 0.442943 0.003224 -0.896544
vn -0.113168 0.001311 -0.993575
vn -0.378145 -0.063902 -0.923539
vn 0.440450 -0.036270 -0.897044
vn 0.000000 1.000000 0.000000
vn 0.000000 1.000000 0.000000
vn 0.000000 1.000000 0.000000
vn 0.000000 1.000000 0.000000
vn -1.000000 0.000000 0.000000
vn -1.000000 0.000000 0.000000
vn -1.000000 0.000000 0.000000
vn -1.000000 0.000000 0.000000
vn 0.000000 -1.000000 0.000000
vn 0.000000 -1.000000 0.000000
vn 0.000000 -1.000000 0.000000
vn 0.000000 -1.000000 0.000000
vn 1.000000 0.000000 0.000000
vn 1.000000 -0.000000 0.000000
vn 1.000000 -0.000000 0.000000
vn 1.000000 0.000000 0.000000
vn -0.032018 0.423599 -0.905284
vn -0.020737 -0.219861 -0.975311
vn 0.000000 -1.000000 0.000000
vn 0.000000 -1.000000 0.000000
vn -0.026951 0.017621 0.999481
vn -0.026884 0.013247 0.999551
vn -0.034092 0.998561 -0.041405
vn -0.034532 0.998588 -0.040361
vn -0.044082 0.592592 -0.804296
vn -0.025718 -0.127727 -0.991476
vn 0.000000 -1.000000 0.000000
vn 0.000000 -1.000000 0.000000
vn -0.027008 0.021357 0.999407
vn -0.027008 0.021357 0.999407
vn -0.039024 0.998797 -0.029699
vn -0.039024 0.998797 -0.029699
vn -0.998019 0.023801 -0.058238
vn -0.998019 0.023801 -0.058238
vn -0.020573 0.040145 0.998982
vn -0.020573 0.040145 0.998982
vn 1.000000 -0.000000 0.000000
vn 1.000000 -0.000000 0.000000
vn -0.373533 0.062259 -0.925525
vn 0.444475 0.035762 -0.895077
vn -0.051944 -0.255527 -0.965406
vn -0.051772 0.412907 -0.909301
vn 0.000000 -1.000000 0.000000
vn 0.000000 -1.000000 0.000000
vn -0.054660 -0.026667 0.998149
vn -0.054660 -0.026667 0.998149
vn 0.000000 1.000000 0.000000
vn 0.000000 1.000000 0.000000
vn 0.000108 -0.446815 -0.894627
vn 0.024539 -0.443659 -0.895860
vn -0.563410 0.062424 -0.823816
vn -0.567970 -0.004861 -0.823035
vn -0.569848 -0.064172 -0.819241
vn 0.055055 0.626647 -0.777356
vn 0.029449 0.674497 -0.737690
vn -0.038413 0.730717 -0.681599
vn -0.044943 0.715794 -0.696863
vn 0.556064 0.017962 -0.830945
vn 0.556064 0.017962 -0.830945
vn -0.046982 -0.452130 -0.890714
s 1
g JC_Window_Single_Frame_Small JC_Window_Metal_Single_Small
usemtl initialShadingGroup
f 3/3/1 20/44/2 17/39/3 5/5/4
s 2
f 7/7/5 30/60/6 31/62/7 1/9/8
s off
f 2/2/9 8/11/10 6/12/11 4/4/12
s 3
f 25/51/13 26/53/14 3/3/15 5/14/16
s 4
f 1/1/17 31/61/18 32/64/19 9/15/20
s off
f 2/2/21 4/4/22 11/17/23 10/16/24
s 5
f 20/44/25 3/3/26 12/18/27 19/42/28
s 6
f 3/3/29 26/53/30 27/54/31 12/18/32
s 7
f 36/68/33 37/69/34 18/41/35 13/19/36
s 8
f 39/71/37 40/72/38 15/21/39 14/20/40
s 9
f 33/65/41 34/66/42 16/22/43 29/58/44
s 10
f 28/56/45 35/67/46 36/68/47 13/19/48
s 11
f 9/25/49 32/63/50 29/59/51 16/24/52
s off
f 15/28/53 10/29/54 11/30/55 14/27/56
s 12
f 19/43/57 12/34/58 13/31/59 18/40/60
s 13
f 12/35/61 27/55/62 28/57/63 13/38/64
s 7
f 37/69/34 38/70/65 22/47/66 18/41/35
s 12
f 23/49/67 19/43/57 18/40/60 22/46/68
s 5
f 24/50/69 20/44/25 19/42/28 23/48/70
s 1
f 17/39/3 20/44/2 24/50/71 21/45/72
s 7
f 38/70/65 39/71/73 14/20/74 22/47/66
s 12
f 11/33/75 23/49/67 22/46/68 14/32/76
s 5
f 4/4/77 24/50/69 23/48/70 11/17/78
s 1
f 21/45/72 24/50/71 4/4/79 6/6/80
s 3
f 7/13/81 1/1/82 26/53/14 25/51/13
s 6
f 27/54/31 26/53/30 1/1/83 9/15/84
s 13
f 28/57/63 27/55/62 9/36/85 16/37/86
s 10
f 34/66/87 35/67/46 28/56/45 16/22/88
s 9
f 40/72/89 33/65/41 29/58/44 15/21/90
s 2
f 31/62/7 30/60/6 8/8/91 2/10/92
s 4
f 32/64/19 31/61/18 2/2/93 10/16/94
s 11
f 29/59/51 32/63/50 10/26/95 15/23/96
s 9
f 30/60/97 7/7/98 34/66/42 33/65/41
s 10
f 7/7/99 25/52/100 35/67/46 34/66/87
f 36/68/47 35/67/46 25/52/100 5/5/101
s 7
f 5/5/102 17/39/103 37/69/34 36/68/33
f 17/39/103 21/45/104 38/70/65 37/69/34
f 21/45/104 6/6/105 39/71/73 38/70/65
s 8
f 6/6/106 8/8/107 40/72/38 39/71/37
s 9
f 8/8/108 30/60/97 33/65/41 40/72/89
g default
v 3.321265 3.403962 -4.809728
v 33.871422 3.403962 -4.809728
v 3.321265 38.693157 -4.809728
v 33.871422 38.693157 -4.809728
v 3.321265 38.693157 -8.211347
v 33.871422 38.693157 -8.211347
v 3.321265 3.403962 -8.211347
v 33.871422 3.403962 -8.211347
v 4.477600 4.556609 -4.809728
v 32.715092 4.556609 -4.809728
v 32.715092 37.540512 -4.809728
v 4.477600 37.540512 -4.809728
v 4.477600 37.540512 -8.211347
v 32.715092 37.540512 -8.211347
v 32.715092 4.556609 -8.211347
v 4.477600 4.556609 -8.211347
v 33.293259 3.980285 -8.440745
v 33.293259 38.116833 -8.440745
v 3.899432 38.116833 -8.440745
v 3.899432 3.980285 -8.440745
v 11.741201 4.978551 -7.549150
v 11.741199 3.980285 -7.778549
v 11.741199 3.403962 -7.549150
v 11.741199 3.403962 -4.809728
v 11.741201 4.978551 -4.809728
v 25.799084 3.980285 -8.001640
v 25.799084 3.403962 -7.772242
v 25.799084 3.403962 -4.809728
v 25.799082 4.556609 -4.809728
v 25.799082 4.556609 -7.772242
vt 0.375000 0.000000
vt 0.625000 0.000000
vt 0.375000 0.250000
vt 0.625000 0.250000
vt 0.375000 0.500000
vt 0.625000 0.500000
vt 0.375000 0.750000
vt 0.625000 0.750000
vt 0.375000 1.000000
vt 0.625000 1.000000
vt 0.875000 0.000000
vt 0.875000 0.250000
vt 0.125000 0.000000
vt 0.125000 0.250000
vt 0.375000 0.000000
vt 0.625000 0.000000
vt 0.625000 0.250000
vt 0.375000 0.250000
vt 0.375000 0.500000
vt 0.625000 0.500000
vt 0.625000 0.750000
vt 0.375000 0.750000
vt 0.000000 0.142034
vt 1.000000 0.142034
vt 1.000000 0.000000
vt 0.000000 0.000000
vt 0.000000 0.000000
vt 1.000000 0.000000
vt 1.000000 0.140497
vt 0.000000 0.140497
vt 0.000000 0.000000
vt 1.000000 0.000000
vt 1.000000 0.140497
vt 0.000000 0.140497
vt 0.000000 0.142034
vt 1.000000 0.142034
vt 1.000000 0.000000
vt 0.000000 0.000000
vt 0.625000 0.750000
vt 0.625000 0.500000
vt 0.375000 0.500000
vt 0.375000 0.750000
vt 0.500000 0.750000
vt 0.500000 0.142034
vt 0.500000 0.750000
vt 0.500000 0.750000
vt 0.500000 0.000000
vt 0.500000 1.000000
vt 0.500000 0.000000
vt 0.500000 0.000000
vt 0.562500 0.750000
vt 0.562500 0.750000
vt 0.562500 0.000000
vt 0.562500 1.000000
vt 0.250000 0.000000
vt 0.562500 0.000000
vt 0.562500 0.750000
vt 0.250000 0.142034
vn 0.000000 1.000000 0.000000
vn 0.000000 1.000000 0.000000
vn 0.000000 1.000000 0.000000
vn 0.000000 1.000000 0.000000
vn 0.000000 -1.000000 0.000000
vn 0.000000 -1.000000 0.000000
vn 0.000000 -1.000000 0.000000
vn 0.000000 -1.000000 0.000000
vn 1.000000 0.000000 0.000000
vn 1.000000 0.000000 0.000000
vn 1.000000 0.000000 0.000000
vn 1.000000 0.000000 0.000000
vn -1.000000 0.000000 0.000000
vn -1.000000 0.000000 0.000000
vn -1.000000 0.000000 0.000000
vn -1.000000 0.000000 0.000000
vn 0.000000 0.000000 1.000000
vn 0.000000 0.000000 1.000000
vn 0.000000 0.000000 1.000000
vn 0.000000 0.000000 1.000000
vn 0.000000 0.000000 1.000000
vn 0.000000 0.000000 1.000000
vn 0.000000 0.000000 1.000000
vn 0.000000 0.000000 1.000000
vn 0.000000 0.000000 1.000000
vn 0.000000 0.000000 1.000000
vn 0.000000 0.000000 1.000000
vn 0.000000 0.000000 1.000000
vn -0.000001 0.000000 1.000000
vn -0.000001 0.000000 1.000000
vn -0.000001 0.000000 1.000000
vn -0.000001 0.000000 1.000000
vn 0.000000 0.369818 -0.929104
vn 0.000000 0.369818 -0.929104
vn 0.000000 0.192437 -0.981309
vn 0.000000 0.192437 -0.981309
vn 0.368802 0.000000 -0.929508
vn 0.368802 0.000000 -0.929508
vn 0.190355 0.000000 -0.981715
vn 0.190355 0.000000 -0.981715
vn 0.017979 -0.381559 -0.924170
vn 0.074369 -0.400774 -0.913154
vn 0.078866 -0.220155 -0.972272
vn 0.020395 -0.018101 -0.999628
vn -0.368799 0.000000 -0.929509
vn -0.368799 0.000000 -0.929509
vn -0.190353 0.000000 -0.981716
vn -0.190353 0.000000 -0.981716
vn -0.001485 0.999999 0.000000
vn -0.002425 0.999997 0.000000
vn -0.057992 0.998317 0.000000
vn -0.057992 0.998317 0.000000
vn -1.000000 0.000000 0.000000
vn -1.000000 0.000000 0.000000
vn -1.000000 0.000000 0.000000
vn -1.000000 0.000000 0.000000
vn 1.000000 0.000000 0.000000
vn 1.000000 0.000000 0.000000
vn 1.000000 0.000000 0.000000
vn 1.000000 0.000000 0.000000
vn 0.000000 -1.000000 0.000000
vn 0.000000 -1.000000 0.000000
vn 0.000000 -1.000000 0.000000
vn 0.000000 -1.000000 0.000000
vn -0.368801 0.000000 -0.929509
vn -0.368801 0.000000 -0.929508
vn 0.000000 -0.369822 -0.929103
vn 0.000000 -0.369822 -0.929103
vn 0.368801 0.000000 -0.929508
vn 0.368801 0.000000 -0.929508
vn 0.077507 0.252564 -0.964471
vn 0.019049 0.270763 -0.962458
vn -0.023512 0.297404 -0.954462
vn -0.027557 -0.014060 -0.999521
vn -0.027919 -0.377632 -0.925535
vn 0.000000 -1.000000 0.000000
vn 0.000000 -1.000000 0.000000
vn 0.000000 0.000000 1.000000
vn 0.000000 0.000000 1.000000
vn 0.019028 0.999819 0.000000
vn 0.019372 0.999812 0.000000
vn -0.051827 -0.391655 -0.918651
vn -0.055934 -0.226395 -0.972428
vn 0.000000 -1.000000 0.000000
vn 0.000000 -1.000000 0.000000
vn 0.000000 0.000000 1.000000
vn 0.000000 0.000000 1.000000
vn 0.000000 1.000000 0.000000
vn 0.000000 1.000000 0.000000
vn -0.057110 0.344355 -0.937101
s off
g JC_Window_Metal_Single_Small JC_Window_Single_WindowPane1
usemtl initialShadingGroup
f 43/75/109 44/76/110 46/78/111 45/77/112
s 1
f 47/79/113 63/118/114 64/120/115 41/81/116
s off
f 42/74/117 48/83/118 46/84/119 44/76/120
f 47/85/121 41/73/122 43/75/123 45/86/124
s 2
f 41/73/125 64/119/126 65/122/127 49/87/128
s off
f 42/74/129 44/76/130 51/89/131 50/88/132
f 44/76/133 43/75/134 52/90/135 51/89/136
f 43/75/137 41/73/138 49/87/139 52/90/140
s 3
f 45/77/141 46/78/142 58/112/143 59/113/144
s 4
f 46/78/145 48/80/146 57/111/147 58/112/148
s 5
f 63/118/149 47/79/150 60/114/151 62/117/152
s 6
f 47/79/153 45/77/154 59/113/155 60/114/156
s 7
f 65/121/157 61/116/158 56/96/159 49/97/160
s off
f 54/99/161 55/100/162 50/101/163 51/102/164
f 52/103/165 49/104/166 56/105/167 53/106/168
f 51/107/169 52/108/170 53/109/171 54/110/172
s 4
f 58/112/148 57/111/147 55/93/173 54/92/174
s 3
f 59/113/144 58/112/143 54/92/175 53/91/176
s 6
f 60/114/156 59/113/155 53/91/177 56/94/178
s 5
f 62/117/152 60/114/151 56/94/179 61/115/180
f 70/129/181 66/123/182 62/117/152 61/115/180
f 67/124/183 63/118/149 62/117/152 66/123/182
s 1
f 64/120/115 63/118/114 67/124/184 68/126/185
s 2
f 65/122/127 64/119/126 68/125/186 69/128/187
s 7
f 70/130/188 61/116/158 65/121/157 69/127/189
s 5
f 48/80/190 67/124/183 66/123/182 57/111/191
s 1
f 68/126/185 67/124/184 48/80/192 42/82/193
s 2
f 69/128/187 68/125/186 42/74/194 50/88/195
s 7
f 55/95/196 70/130/188 69/127/189 50/98/197
s 5
f 57/111/191 66/123/182 70/129/181 55/93/198
g default
v 33.978748 3.403962 -1.408109
v 64.409485 3.403962 -1.408109
v 33.978748 38.693157 -1.408109
v 64.409485 38.693157 -1.408109
v 33.978748 38.693157 -4.809728
v 64.409485 38.693157 -4.809728
v 33.978748 3.403962 -4.809728
v 64.409485 3.403962 -4.809728
v 35.130562 4.556609 -1.408109
v 63.257675 4.556609 -1.408109
v 63.257675 37.540512 -1.408109
v 35.130562 37.540512 -1.408109
v 35.130562 37.540512 -4.809728
v 63.257675 37.540512 -4.809728
v 63.257675 4.556609 -4.291635
v 35.130562 4.556609 -4.809728
v 56.380409 4.556609 -3.578725
v 56.380409 3.403962 -4.169047
v 57.462963 3.403962 -1.696936
v 57.462967 4.556609 -2.116031
v 56.380409 3.980285 -4.003056
v 34.554657 3.980285 -4.938899
v 34.554657 38.116833 -4.938899
v 63.833580 38.116833 -4.938899
v 63.833580 3.980285 -4.679851
vt 0.375000 0.000000
vt 0.625000 0.000000
vt 0.375000 0.250000
vt 0.625000 0.250000
vt 0.375000 0.500000
vt 0.625000 0.500000
vt 0.375000 0.750000
vt 0.625000 0.750000
vt 0.375000 1.000000
vt 0.625000 1.000000
vt 0.875000 0.000000
vt 0.875000 0.250000
vt 0.125000 0.000000
vt 0.125000 0.250000
vt 0.375000 0.000000
vt 0.625000 0.000000
vt 0.625000 0.250000
vt 0.375000 0.250000
vt 0.375000 0.500000
vt 0.625000 0.500000
vt 0.625000 0.750000
vt 0.375000 0.750000
vt 0.000000 0.142034
vt 1.000000 0.142034
vt 1.000000 0.000000
vt 0.000000 0.000000
vt 0.000000 0.000000
vt 1.000000 0.000000
vt 1.000000 0.140497
vt 0.000000 0.140497
vt 0.000000 0.000000
vt 1.000000 0.000000
vt 1.000000 0.140497
vt 0.000000 0.140497
vt 0.000000 0.142034
vt 1.000000 0.142034
vt 1.000000 0.000000
vt 0.000000 0.000000
vt 0.500000 0.750000
vt 0.500000 0.142034
vt 0.500000 0.750000
vt 0.500000 0.000000
vt 0.500000 1.000000
vt 0.500000 0.000000
vt 0.500000 0.000000
vt 0.500000 0.750000
vt 0.375000 0.750000
vt 0.375000 0.500000
vt 0.625000 0.500000
vt 0.625000 0.750000
vn 0.000000 1.000000 0.000000
vn 0.000000 1.000000 0.000000
vn 0.000000 1.000000 0.000000
vn 0.000000 1.000000 0.000000
vn 0.000000 -1.000000 -0.000000
vn 0.000000 -1.000000 -0.000000
vn 0.000000 -1.000000 -0.000000
vn 0.000000 -1.000000 -0.000000
vn 1.000000 0.000000 0.000000
vn 1.000000 0.000000 0.000000
vn 1.000000 0.000000 0.000000
vn 1.000000 0.000000 0.000000
vn -1.000000 0.000000 0.000000
vn -1.000000 0.000000 0.000000
vn -1.000000 0.000000 0.000000
vn -1.000000 0.000000 0.000000
vn 0.021439 0.168445 0.985478
vn -0.000106 0.162566 0.986698
vn 0.000331 0.162686 0.986678
vn 0.021439 0.168445 0.985478
vn 0.000000 0.000000 1.000000
vn 0.000000 0.000000 1.000000
vn 0.000000 0.000000 1.000000
vn 0.000000 0.000000 1.000000
vn 0.000000 0.000000 1.000000
vn 0.000000 0.000000 1.000000
vn 0.000000 0.000000 1.000000
vn 0.000000 0.000000 1.000000
vn -0.000000 0.000000 1.000000
vn -0.000000 0.000000 1.000000
vn -0.000000 0.000000 1.000000
vn -0.000000 0.000000 1.000000
vn 0.000000 0.112849 -0.993612
vn 0.000000 0.112849 -0.993612
vn 0.000000 -0.218706 -0.975791
vn 0.000000 -0.218706 -0.975791
vn -0.110815 -0.005636 -0.993825
vn -0.119505 -0.005784 -0.992817
vn -0.409732 -0.010561 -0.912145
vn -0.409732 -0.010561 -0.912145
vn 0.008438 0.273934 -0.961711
vn 0.038953 0.122402 -0.991716
vn 0.045738 0.413763 -0.909235
vn 0.012517 0.450522 -0.892678
vn -0.112570 0.000000 -0.993644
vn -0.112569 0.000000 -0.993644
vn 0.218854 0.000000 -0.975758
vn 0.218854 0.000000 -0.975758
vn 0.000000 1.000000 -0.000000
vn 0.000000 1.000000 -0.000000
vn 0.000000 1.000000 0.000000
vn 0.000000 1.000000 0.000000
vn -1.000000 0.000000 0.000000
vn -1.000000 0.000000 0.000000
vn -1.000000 0.000000 0.000000
vn -1.000000 0.000000 0.000000
vn 1.000000 0.000000 0.000000
vn 1.000000 0.000000 0.000000
vn 1.000000 0.000000 0.000000
vn 1.000000 0.000000 0.000000
vn 0.000000 -1.000000 0.000000
vn 0.000000 -1.000000 0.000000
vn 0.000000 -1.000000 0.000000
vn 0.000000 -1.000000 0.000000
vn -0.083466 0.306187 -0.948305
vn -0.080802 0.547001 -0.833223
vn 0.000000 -1.000000 0.000000
vn 0.000000 -1.000000 0.000000
vn -0.077214 0.140857 0.987014
vn -0.077214 0.140857 0.987014
vn 0.000000 1.000000 -0.000000
vn 0.000000 1.000000 -0.000000
vn 0.004123 0.066198 -0.997798
vn 0.035620 0.014124 -0.999266
vn -0.218853 0.000000 -0.975758
vn -0.218853 0.000000 -0.975758
vn 0.000000 0.218703 -0.975792
vn 0.000000 0.218703 -0.975792
vn -0.000614 -0.003731 -0.999993
vn -0.000614 -0.003731 -0.999993
vn -0.082922 0.208698 -0.974458
s off
g JC_Window_Metal_Single_Small JC_Window_Single_WindowPane2
usemtl initialShadingGroup
f 73/133/199 74/134/200 76/136/201 75/135/202
s 1
f 77/137/203 88/171/204 89/173/205 71/139/206
s off
f 72/132/207 78/141/208 76/142/209 74/134/210
f 77/143/211 71/131/212 73/133/213 75/144/214
s 2
f 71/131/215 89/172/216 90/175/217 79/145/218
s off
f 72/132/219 74/134/220 81/147/221 80/146/222
f 74/134/223 73/133/224 82/148/225 81/147/226
f 73/133/227 71/131/228 79/145/229 82/148/230
s 3
f 93/178/231 94/179/232 84/150/233 83/149/234
s 4
f 94/179/235 95/180/236 85/151/237 84/150/238
s 5
f 91/176/239 92/177/240 86/152/241 87/169/242
s 6
f 92/177/243 93/178/244 83/149/245 86/152/246
s 7
f 90/174/247 87/170/248 86/154/249 79/155/250
s off
f 84/157/251 85/158/252 80/159/253 81/160/254
f 82/161/255 79/162/256 86/163/257 83/164/258
f 81/165/259 82/166/260 83/167/261 84/168/262
s 5
f 95/180/263 91/176/239 87/169/242 85/151/264
s 1
f 89/173/205 88/171/204 78/138/265 72/140/266
s 2
f 90/175/217 89/172/216 72/132/267 80/146/268
s 7
f 85/153/269 87/170/248 90/174/247 80/156/270
s 5
f 88/171/271 77/137/272 92/177/240 91/176/239
s 6
f 77/137/273 75/135/274 93/178/244 92/177/243
s 3
f 75/135/275 76/136/276 94/179/232 93/178/231
s 4
f 76/136/277 78/138/278 95/180/236 94/179/235
s 5
f 78/138/279 88/171/271 91/176/239 95/180/263
