# This file uses centimeters as units for non-parametric coordinates.

mtllib JC_Window_Metal_Single_Large.mtl
g default
v 7.555894 6.433352 -2.783651
v 80.773750 6.433352 -2.783651
v 7.555894 104.616249 -2.783651
v 80.773750 104.616249 -2.783651
v 7.555894 104.616249 -5.814043
v 80.773750 104.616249 -5.814043
v 7.555894 6.433352 -5.814043
v 80.773750 6.433352 -5.814043
v 10.415791 9.653004 -2.783651
v 77.913872 9.653004 -2.783651
v 77.913872 101.396606 -2.783651
v 10.415791 101.396606 -2.783651
v 10.415791 101.396606 -5.814043
v 77.913872 101.396606 -5.814043
v 77.913872 9.653004 -5.814043
v 10.415791 9.653004 -5.814043
v 79.343803 8.043179 -6.434738
v 79.343803 103.006432 -6.434738
v 8.985842 103.006432 -6.434738
v 8.985842 8.043179 -6.434738
vt 0.375000 0.000000
vt 0.625000 0.000000
vt 0.375000 0.250000
vt 0.625000 0.250000
vt 0.375000 0.500000
vt 0.625000 0.500000
vt 0.375000 0.750000
vt 0.625000 0.750000
vt 0.375000 1.000000
vt 0.625000 1.000000
vt 0.875000 0.000000
vt 0.875000 0.250000
vt 0.125000 0.000000
vt 0.125000 0.250000
vt 0.375000 0.000000
vt 0.625000 0.000000
vt 0.625000 0.250000
vt 0.375000 0.250000
vt 0.375000 0.500000
vt 0.625000 0.500000
vt 0.625000 0.750000
vt 0.375000 0.750000
vt 0.000000 0.142034
vt 1.000000 0.142034
vt 1.000000 0.000000
vt 0.000000 0.000000
vt 0.000000 0.000000
vt 1.000000 0.000000
vt 1.000000 0.140497
vt 0.000000 0.140497
vt 0.000000 0.000000
vt 1.000000 0.000000
vt 1.000000 0.140497
vt 0.000000 0.140497
vt 0.000000 0.142034
vt 1.000000 0.142034
vt 1.000000 0.000000
vt 0.000000 0.000000
vt 0.625000 0.750000
vt 0.625000 0.500000
vt 0.375000 0.500000
vt 0.375000 0.750000
vn 0.000000 1.000000 0.000000
vn 0.000000 1.000000 0.000000
vn 0.000000 1.000000 0.000000
vn 0.000000 1.000000 0.000000
vn 0.000000 -1.000000 0.000000
vn 0.000000 -1.000000 0.000000
vn 0.000000 -1.000000 0.000000
vn 0.000000 -1.000000 0.000000
vn 1.000000 0.000000 0.000000
vn 1.000000 0.000000 0.000000
vn 1.000000 0.000000 0.000000
vn 1.000000 0.000000 0.000000
vn -1.000000 0.000000 0.000000
vn -1.000000 0.000000 0.000000
vn -1.000000 0.000000 0.000000
vn -1.000000 0.000000 0.000000
vn 0.000000 0.000000 1.000000
vn 0.000000 0.000000 1.000000
vn 0.000000 0.000000 1.000000
vn 0.000000 0.000000 1.000000
vn -0.000000 0.000000 1.000000
vn -0.000000 0.000000 1.000000
vn -0.000000 0.000000 1.000000
vn -0.000000 0.000000 1.000000
vn 0.000000 0.000000 1.000000
vn 0.000000 0.000000 1.000000
vn 0.000000 0.000000 1.000000
vn 0.000000 0.000000 1.000000
vn 0.000000 0.000000 1.000000
vn 0.000000 0.000000 1.000000
vn 0.000000 0.000000 1.000000
vn 0.000000 0.000000 1.000000
vn 0.000000 0.359754 -0.933047
vn 0.000000 0.359754 -0.933047
vn 0.000000 0.173460 -0.984841
vn 0.000000 0.173461 -0.984841
vn 0.398175 0.000000 -0.917309
vn 0.398175 0.000000 -0.917309
vn 0.221254 0.000000 -0.975216
vn 0.221254 0.000000 -0.975216
vn 0.000000 -0.359752 -0.933048
vn 0.000000 -0.359752 -0.933048
vn 0.000000 -0.173460 -0.984841
vn 0.000000 -0.173459 -0.984841
vn -0.398175 0.000000 -0.917310
vn -0.398175 0.000000 -0.917310
vn -0.221252 0.000000 -0.975217
vn -0.221253 0.000000 -0.975217
vn 0.000000 1.000000 0.000000
vn 0.000000 1.000000 0.000000
vn 0.000000 1.000000 0.000000
vn 0.000000 1.000000 0.000000
vn -1.000000 0.000000 0.000000
vn -1.000000 0.000000 0.000000
vn -1.000000 0.000000 0.000000
vn -1.000000 0.000000 0.000000
vn 1.000000 0.000000 0.000000
vn 1.000000 0.000000 0.000000
vn 1.000000 0.000000 0.000000
vn 1.000000 0.000000 0.000000
vn 0.000000 -1.000000 0.000000
vn 0.000000 -1.000000 0.000000
vn 0.000000 -1.000000 0.000000
vn 0.000000 -1.000000 0.000000
vn -0.398179 0.000000 -0.917308
vn -0.398179 0.000000 -0.917308
vn 0.000000 -0.359751 -0.933048
vn 0.000000 -0.359751 -0.933048
vn 0.398175 0.000000 -0.917310
vn 0.398175 0.000000 -0.917310
vn 0.000000 0.359752 -0.933048
vn 0.000000 0.359752 -0.933048
s off
g JC_Window_Single_WindowPane5 JC_Window_Metal_Single_Large
usemtl initialShadingGroup
f 3/3/1 4/4/2 6/6/3 5/5/4
f 7/7/5 8/8/6 2/10/7 1/9/8
f 2/2/9 8/11/10 6/12/11 4/4/12
f 7/13/13 1/1/14 3/3/15 5/14/16
f 1/1/17 2/2/18 10/16/19 9/15/20
f 2/2/21 4/4/22 11/17/23 10/16/24
f 4/4/25 3/3/26 12/18/27 11/17/28
f 3/3/29 1/1/30 9/15/31 12/18/32
s 1
f 5/5/33 6/6/34 18/40/35 19/41/36
s 2
f 6/6/37 8/8/38 17/39/39 18/40/40
s 3
f 8/8/41 7/7/42 20/42/43 17/39/44
s 4
f 7/7/45 5/5/46 19/41/47 20/42/48
s off
f 15/23/49 16/24/50 9/25/51 10/26/52
f 14/27/53 15/28/54 10/29/55 11/30/56
f 12/31/57 9/32/58 16/33/59 13/34/60
f 11/35/61 12/36/62 13/37/63 14/38/64
s 2
f 18/40/40 17/39/39 15/21/65 14/20/66
s 1
f 19/41/36 18/40/35 14/20/67 13/19/68
s 4
f 20/42/48 19/41/47 13/19/69 16/22/70
s 3
f 17/39/44 20/42/43 16/22/71 15/21/72
g default
v 80.773743 6.433352 0.246740
v 153.991592 6.433352 0.246740
v 80.773743 104.616249 0.246740
v 153.991592 104.616249 0.246740
v 80.773743 104.616249 -2.783651
v 153.991592 104.616249 -2.783651
v 80.773743 6.433352 -2.783651
v 153.991592 6.433352 -2.783651
v 83.633644 9.653004 0.246740
v 151.131729 9.653004 0.246740
v 151.131729 101.396606 0.246740
v 83.633644 101.396606 0.246740
v 83.633644 101.396606 -2.783651
v 151.131729 101.396606 -2.783651
v 151.131729 9.653004 -2.783651
v 83.633644 9.653004 -2.783651
v 152.561661 8.043179 -3.050395
v 152.561661 103.006432 -3.050395
v 82.203697 103.006432 -3.050395
v 82.203697 8.043179 -3.050395
vt 0.375000 0.000000
vt 0.625000 0.000000
vt 0.375000 0.250000
vt 0.625000 0.250000
vt 0.375000 0.500000
vt 0.625000 0.500000
vt 0.375000 0.750000
vt 0.625000 0.750000
vt 0.375000 1.000000
vt 0.625000 1.000000
vt 0.875000 0.000000
vt 0.875000 0.250000
vt 0.125000 0.000000
vt 0.125000 0.250000
vt 0.375000 0.000000
vt 0.625000 0.000000
vt 0.625000 0.250000
vt 0.375000 0.250000
vt 0.375000 0.500000
vt 0.625000 0.500000
vt 0.625000 0.750000
vt 0.375000 0.750000
vt 0.000000 0.142034
vt 1.000000 0.142034
vt 1.000000 0.000000
vt 0.000000 0.000000
vt 0.000000 0.000000
vt 1.000000 0.000000
vt 1.000000 0.140497
vt 0.000000 0.140497
vt 0.000000 0.000000
vt 1.000000 0.000000
vt 1.000000 0.140497
vt 0.000000 0.140497
vt 0.000000 0.142034
vt 1.000000 0.142034
vt 1.000000 0.000000
vt 0.000000 0.000000
vt 0.625000 0.750000
vt 0.625000 0.500000
vt 0.375000 0.500000
vt 0.375000 0.750000
vn 0.000000 1.000000 0.000000
vn 0.000000 1.000000 0.000000
vn 0.000000 1.000000 0.000000
vn 0.000000 1.000000 0.000000
vn 0.000000 -1.000000 0.000000
vn 0.000000 -1.000000 0.000000
vn 0.000000 -1.000000 0.000000
vn 0.000000 -1.000000 0.000000
vn 1.000000 0.000000 0.000000
vn 1.000000 0.000000 0.000000
vn 1.000000 0.000000 0.000000
vn 1.000000 0.000000 0.000000
vn -1.000000 0.000000 0.000000
vn -1.000000 0.000000 0.000000
vn -1.000000 0.000000 0.000000
vn -1.000000 0.000000 0.000000
vn 0.000000 0.000000 1.000000
vn 0.000000 0.000000 1.000000
vn 0.000000 0.000000 1.000000
vn 0.000000 0.000000 1.000000
vn 0.000000 0.000000 1.000000
vn 0.000000 0.000000 1.000000
vn 0.000000 0.000000 1.000000
vn 0.000000 0.000000 1.000000
vn 0.000000 0.000000 1.000000
vn 0.000000 0.000000 1.000000
vn 0.000000 0.000000 1.000000
vn 0.000000 0.000000 1.000000
vn -0.000000 0.000000 1.000000
vn -0.000000 0.000000 1.000000
vn -0.000000 0.000000 1.000000
vn -0.000000 0.000000 1.000000
vn 0.000000 0.163469 -0.986549
vn 0.000000 0.163469 -0.986548
vn 0.000000 0.078300 -0.996930
vn 0.000000 0.078301 -0.996930
vn 0.183380 0.000000 -0.983042
vn 0.183380 0.000000 -0.983042
vn 0.101009 0.000000 -0.994886
vn 0.101009 0.000000 -0.994886
vn 0.000000 -0.163468 -0.986549
vn 0.000000 -0.163468 -0.986549
vn 0.000000 -0.078300 -0.996930
vn 0.000000 -0.078300 -0.996930
vn -0.183377 0.000000 -0.983043
vn -0.183377 0.000000 -0.983043
vn -0.101007 0.000000 -0.994886
vn -0.101007 0.000000 -0.994886
vn 0.000000 1.000000 0.000000
vn 0.000000 1.000000 0.000000
vn 0.000000 1.000000 0.000000
vn 0.000000 1.000000 0.000000
vn -1.000000 0.000000 0.000000
vn -1.000000 0.000000 0.000000
vn -1.000000 0.000000 0.000000
vn -1.000000 0.000000 0.000000
vn 1.000000 0.000000 0.000000
vn 1.000000 0.000000 0.000000
vn 1.000000 0.000000 0.000000
vn 1.000000 0.000000 0.000000
vn 0.000000 -1.000000 0.000000
vn 0.000000 -1.000000 0.000000
vn 0.000000 -1.000000 0.000000
vn 0.000000 -1.000000 0.000000
vn -0.183380 0.000000 -0.983042
vn -0.183380 0.000000 -0.983042
vn 0.000000 -0.163468 -0.986549
vn 0.000000 -0.163468 -0.986549
vn 0.183378 0.000000 -0.983043
vn 0.183378 0.000000 -0.983043
vn 0.000000 0.163469 -0.986549
vn 0.000000 0.163469 -0.986549
s off
g JC_Window_Metal_Single_Large JC_Window_Single_WindowPane6
usemtl initialShadingGroup
f 23/45/73 24/46/74 26/48/75 25/47/76
f 27/49/77 28/50/78 22/52/79 21/51/80
f 22/44/81 28/53/82 26/54/83 24/46/84
f 27/55/85 21/43/86 23/45/87 25/56/88
f 21/43/89 22/44/90 30/58/91 29/57/92
f 22/44/93 24/46/94 31/59/95 30/58/96
f 24/46/97 23/45/98 32/60/99 31/59/100
f 23/45/101 21/43/102 29/57/103 32/60/104
s 1
f 25/47/105 26/48/106 38/82/107 39/83/108
s 2
f 26/48/109 28/50/110 37/81/111 38/82/112
s 3
f 28/50/113 27/49/114 40/84/115 37/81/116
s 4
f 27/49/117 25/47/118 39/83/119 40/84/120
s off
f 35/65/121 36/66/122 29/67/123 30/68/124
f 34/69/125 35/70/126 30/71/127 31/72/128
f 32/73/129 29/74/130 36/75/131 33/76/132
f 31/77/133 32/78/134 33/79/135 34/80/136
s 2
f 38/82/112 37/81/111 35/63/137 34/62/138
s 1
f 39/83/108 38/82/107 34/62/139 33/61/140
s 4
f 40/84/120 39/83/119 33/61/141 36/64/142
s 3
f 37/81/116 40/84/115 36/64/143 35/63/144
g default
v 0.000000 0.000000 0.000000
v 160.104233 -1.159214 -0.750036
v -1.052927 113.392853 -0.324574
v 162.239624 115.745712 -0.324574
v 2.137427 110.120560 -6.387720
v 157.994888 112.119514 -8.661294
v 0.000000 0.000000 -7.842549
v 160.104233 -1.159214 -3.809335
v 7.263431 7.321848 -0.324574
v 154.174957 5.547257 -0.324574
v 154.174957 105.948112 -0.324574
v 7.263431 104.173523 -0.324574
v 7.263431 104.173523 -8.167124
v 154.174957 105.948112 -8.167124
v 154.174957 5.547257 -8.167124
v 7.263431 7.321848 -8.167124
v 81.982933 108.679634 -5.472781
v 80.719200 105.060814 -6.046429
v 80.719200 105.060814 -0.324574
v 80.638641 111.336594 -0.324574
v 3.155307 55.747681 -6.497323
v 3.155307 55.747681 -0.324574
v 7.859785 55.747681 -0.324574
v 7.859785 55.747681 -6.497323
v 121.416473 -3.662141 -4.833861
v 121.416473 -3.662141 -0.324574
v 117.447205 5.990902 -0.324574
v 118.541084 5.547257 -6.458671
v 156.084930 109.033813 -9.335523
v 81.351067 106.870224 -6.680919
v 4.700429 107.147041 -10.222701
v 5.507548 55.747681 -7.418637
v 3.105255 2.712178 -9.088437
v 119.978783 -0.090119 -6.567580
v 158.207291 0.648451 -6.696812
vt 0.375000 0.000000
vt 0.625000 0.000000
vt 0.375000 0.250000
vt 0.625000 0.250000
vt 0.375000 0.500000
vt 0.625000 0.500000
vt 0.375000 0.750000
vt 0.625000 0.750000
vt 0.375000 1.000000
vt 0.625000 1.000000
vt 0.875000 0.000000
vt 0.875000 0.250000
vt 0.125000 0.000000
vt 0.125000 0.250000
vt 0.375000 0.000000
vt 0.625000 0.000000
vt 0.625000 0.250000
vt 0.375000 0.250000
vt 0.375000 0.500000
vt 0.625000 0.500000
vt 0.625000 0.750000
vt 0.375000 0.750000
vt 0.000000 1.000000
vt 0.899655 1.000000
vt 0.899655 0.000000
vt 0.000000 0.000000
vt 0.000000 0.000000
vt 0.838342 0.000000
vt 0.838342 1.000000
vt 0.000000 1.000000
vt 0.000000 0.000000
vt 0.899655 0.000000
vt 0.899655 1.000000
vt 0.000000 1.000000
vt 0.000000 0.000000
vt 0.838342 0.000000
vt 0.838342 1.000000
vt 0.000000 1.000000
vt 0.500000 0.500000
vt 0.449828 0.000000
vt 0.500000 0.500000
vt 0.500000 0.250000
vt 0.449828 1.000000
vt 0.500000 0.250000
vt 0.125000 0.125000
vt 0.375000 0.625000
vt 0.375000 0.125000
vt 0.375000 0.125000
vt 0.419171 0.000000
vt 0.375000 0.625000
vt 0.419171 1.000000
vt 0.500000 0.750000
vt 0.500000 0.000000
vt 0.500000 1.000000
vt 0.449828 0.000000
vt 0.500000 0.000000
vt 0.500000 0.750000
vt 0.449828 1.000000
vt 0.625000 0.500000
vt 0.500000 0.500000
vt 0.375000 0.500000
vt 0.375000 0.625000
vt 0.375000 0.750000
vt 0.500000 0.750000
vt 0.625000 0.750000
vn 0.021820 0.887400 -0.460484
vn -0.013232 0.898613 -0.438543
vn -0.024051 0.901742 -0.431605
vn 0.021820 0.887400 -0.460484
vn -0.030148 -0.999545 0.000000
vn -0.030148 -0.999545 0.000000
vn -0.015083 -0.999886 0.000000
vn -0.014778 -0.999891 0.000000
vn 0.937787 -0.006782 -0.347145
vn 0.937787 -0.006782 -0.347145
vn 0.937787 -0.006782 -0.347145
vn 0.937787 -0.006782 -0.347145
vn -0.993414 0.008837 -0.114242
vn -0.993327 0.008510 -0.115018
vn -0.969541 -0.044998 -0.240762
vn -0.969541 -0.044998 -0.240762
vn 0.001806 0.018767 0.999822
vn 0.001806 0.018767 0.999822
vn 0.003333 0.004681 0.999984
vn 0.002509 0.012277 0.999922
vn 0.030888 -0.002260 0.999520
vn 0.030888 -0.002260 0.999520
vn 0.030888 -0.002260 0.999520
vn 0.030888 -0.002260 0.999520
vn 0.000000 0.000000 1.000000
vn 0.000000 0.000000 1.000000
vn 0.000000 0.000000 1.000000
vn 0.000000 0.000000 1.000000
vn -0.000000 0.000000 1.000000
vn 0.012233 0.001038 0.999925
vn 0.012297 0.001043 0.999924
vn -0.000000 0.000000 1.000000
vn 0.027450 0.730531 -0.682328
vn -0.012171 0.566208 -0.824172
vn 0.001703 0.188722 -0.982029
vn 0.034773 0.498403 -0.866248
vn 0.685215 -0.011528 -0.728250
vn 0.685215 -0.011528 -0.728250
vn 0.544535 -0.012272 -0.838648
vn 0.574876 -0.012151 -0.818150
vn 0.009268 -0.430413 -0.902585
vn 0.013508 -0.258775 -0.965843
vn 0.010357 -0.215453 -0.976459
vn 0.018510 -0.505205 -0.862801
vn -0.125462 0.001990 -0.992096
vn -0.567054 0.005256 -0.823664
vn -0.704455 -0.030219 -0.709105
vn -0.501926 -0.035470 -0.864183
vn 0.011651 0.999457 -0.030813
vn 0.014251 0.999430 -0.030608
vn 0.014251 0.999430 -0.030608
vn 0.012423 0.999450 -0.030752
vn -1.000000 0.000000 0.000000
vn -1.000000 0.000000 0.000000
vn -1.000000 0.000000 0.000000
vn -1.000000 0.000000 0.000000
vn 0.012078 -0.999927 0.000000
vn 0.012078 -0.999927 0.000000
vn 0.012078 -0.999927 0.000000
vn 0.012078 -0.999927 0.000000
vn 0.999924 0.012314 0.000000
vn 1.000000 0.000000 0.000000
vn 1.000000 0.000000 0.000000
vn 0.999924 0.012314 0.000000
vn -0.049947 0.380959 -0.923242
vn -0.044137 0.165460 -0.985228
vn 0.012078 -0.999927 0.000000
vn 0.012078 -0.999927 0.000000
vn 0.000000 0.000000 1.000000
vn 0.000000 0.000000 1.000000
vn -0.053632 0.909498 -0.412234
vn -0.053632 0.909498 -0.412234
vn -0.998402 0.056509 0.000000
vn -0.998402 0.056509 0.000000
vn 0.025774 0.002186 0.999665
vn 0.025774 0.002186 0.999665
vn 0.999924 -0.012314 0.000000
vn 0.999924 -0.012314 0.000000
vn -0.388073 0.045339 -0.920513
vn -0.239659 0.041816 -0.969956
vn 0.064561 -0.997914 0.000000
vn 0.064561 -0.997914 0.000000
vn 0.006247 -0.022220 0.999734
vn 0.006247 -0.022220 0.999734
vn 0.005389 0.999495 -0.031304
vn 0.005389 0.999495 -0.031304
vn 0.013296 -0.460756 -0.887427
vn 0.035851 -0.638308 -0.768946
vn -0.023464 -0.334762 -0.942011
vn 0.013022 -0.426129 -0.904569
vn 0.035033 -0.479133 -0.877043
vn 0.372898 -0.001306 -0.927871
vn 0.503724 -0.031608 -0.863286
vn 0.256330 0.024230 -0.966286
vn 0.020349 0.094664 -0.995301
vn 0.011949 0.049368 -0.998709
vn -0.023229 -0.139965 -0.989884
vn 0.047042 -0.012145 -0.998819
vn 0.047042 -0.012145 -0.998819
s 1
g JC_Window_Metal_Single_Large JC_Window_Single_Frame_Large1
usemtl initialShadingGroup
f 43/87/145 60/128/146 57/123/147 45/89/148
s 2
f 41/93/149 47/91/150 65/136/151 66/138/152
s off
f 42/86/153 48/95/154 46/96/155 44/88/156
s 3
f 61/129/157 62/131/158 43/87/159 45/98/160
s 4
f 49/99/161 41/85/162 66/137/163 67/140/164
s off
f 42/86/165 44/88/166 51/101/167 50/100/168
s 5
f 60/128/169 43/87/170 52/102/171 59/126/172
s 6
f 43/87/173 62/131/174 63/132/175 52/102/176
s 7
f 45/89/177 57/123/178 70/144/179 71/145/180
s 8
f 46/90/181 48/92/182 75/149/183 69/143/184
s 9
f 47/91/185 73/147/186 74/148/187 65/136/188
s 10
f 72/146/189 61/130/190 45/89/191 71/145/192
s 11
f 68/142/193 56/108/194 49/109/195 67/139/196
s off
f 54/111/197 55/112/198 50/113/199 51/114/200
s 12
f 53/115/201 58/124/202 59/127/203 52/118/204
s 13
f 52/119/205 63/133/206 64/135/207 53/122/208
s 7
f 57/123/178 46/90/209 69/143/210 70/144/179
s 12
f 59/127/203 58/124/202 54/116/211 51/117/212
s 5
f 44/88/213 60/128/169 59/126/172 51/101/214
s 1
f 57/123/147 60/128/146 44/88/215 46/90/216
s 3
f 47/97/217 41/85/218 62/131/158 61/129/157
s 6
f 63/132/175 62/131/174 41/85/219 49/99/220
s 13
f 64/135/207 63/133/206 49/120/221 56/121/222
s 10
f 47/91/223 61/130/190 72/146/189 73/147/224
s 2
f 66/138/152 65/136/151 48/92/225 42/94/226
s 4
f 67/140/164 66/137/163 42/86/227 50/100/228
s 11
f 55/107/229 68/142/193 67/139/196 50/110/230
s 9
f 65/136/188 74/148/187 75/149/231 48/92/232
s 7
f 70/144/179 69/143/210 54/104/233 58/125/234
f 71/145/180 70/144/179 58/125/234 53/103/235
s 10
f 64/134/236 72/146/189 71/145/192 53/103/237
f 73/147/224 72/146/189 64/134/236 56/106/238
s 9
f 74/148/187 73/147/186 56/106/239 68/141/240
f 75/149/231 74/148/187 68/141/240 55/105/241
s 8
f 69/143/184 75/149/183 55/105/242 54/104/243
