# This file uses centimeters as units for non-parametric coordinates.

mtllib Large_Race_Track_Issa_3.mtl
g default
v -256.000000 0.000000 0.000000
v 0.000000 0.000000 0.000000
v -256.000000 41.138428 49.026855
v 0.000000 41.138428 49.026855
v -238.817017 2.761261 3.290741
v -17.182983 2.761261 3.290741
v -17.182983 41.138428 49.026855
v -238.817017 41.138428 49.026855
v 0.000000 -141.959686 154.821960
v -256.000000 -141.959686 154.821960
v 0.000000 -93.255341 196.341736
v -256.000000 -93.255341 196.341736
v 0.000000 -278.861572 1137.026855
v -256.000000 -278.861572 1137.026855
v 0.000000 -342.861572 1137.026855
v -256.000000 -342.861572 1137.026855
v -17.182983 -138.690613 157.608887
v -238.817017 -138.690613 157.608887
v -238.817017 -93.255341 196.341736
v -17.182983 -93.255341 196.341736
v -238.817017 -278.861572 1137.026855
v -17.182983 -278.861572 1137.026855
v -238.817017 -338.565826 1137.026855
v -17.182983 -338.565826 1137.026855
v -256.000000 -278.861572 966.360168
v -238.817017 -278.861572 966.360168
v -238.817017 -338.565826 966.360168
v -17.182983 -338.565826 966.360168
v -17.182983 -278.861572 966.360168
v 0.000000 -278.861572 966.360168
v 0.000000 -342.861572 966.360168
v -256.000000 -342.861572 966.360168
v -256.000000 -278.861572 795.693542
v -238.817017 -278.861572 795.693542
v -238.817017 -338.565826 795.693542
v -17.182983 -338.565826 795.693542
v -17.182983 -278.861572 795.693542
v 0.000000 -278.861572 795.693542
v 0.000000 -342.861572 795.693542
v -256.000000 -342.861572 795.693542
v -256.000000 -278.861572 625.026855
v -238.817017 -278.861572 625.026855
v -238.817017 -338.565826 625.026855
v -17.182983 -338.565826 625.026855
v -17.182983 -278.861572 625.026855
v 0.000000 -278.861572 625.026855
v 0.000000 -342.861572 625.026855
v -256.000000 -342.861572 625.026855
v -256.000000 -255.557983 465.934570
v -238.817017 -255.557983 465.934570
v -238.817017 -312.754028 448.811218
v -17.182983 -312.754028 448.811218
v -17.182983 -255.557983 465.934570
v 0.000000 -255.557983 465.934570
v 0.000000 -316.869324 447.579163
v -256.000000 -316.869324 447.579163
v -256.000000 -187.605209 320.209412
v -238.817017 -187.605209 320.209412
v -238.817017 -237.487396 287.401367
v -17.182983 -237.487396 287.401367
v -17.182983 -187.605209 320.209412
v 0.000000 -187.605209 320.209412
v 0.000000 -241.076431 285.040833
v -256.000000 -241.076431 285.040833
vt 0.375000 0.958333
vt 0.625000 0.958333
vt 0.625000 1.000000
vt 0.375000 1.000000
vt 0.625000 0.000000
vt 0.666667 0.000000
vt 0.666667 0.250000
vt 0.625000 0.250000
vt 0.333333 0.000000
vt 0.375000 0.000000
vt 0.375000 0.250000
vt 0.333333 0.250000
vt 0.625000 0.250000
vt 0.375000 0.250000
vt 0.625000 0.291667
vt 0.625000 0.291667
vt 0.375000 0.291667
vt 0.375000 0.291667
vt 0.625000 0.500000
vt 0.625000 0.750000
vt 0.625000 0.750000
vt 0.625000 0.500000
vt 0.375000 0.750000
vt 0.375000 0.750000
vt 0.375000 0.500000
vt 0.375000 0.500000
vt 0.000000 0.166667
vt 0.865758 0.166667
vt 0.865758 0.000000
vt 0.000000 0.000000
vt 0.833333 0.000000
vt 1.000000 0.000000
vt 1.000000 0.932879
vt 0.833333 0.932879
vt 0.000000 0.000000
vt 0.166667 0.000000
vt 0.166667 0.932879
vt 0.000000 0.932879
vt 0.625000 0.458333
vt 0.625000 0.458333
vt 0.000000 0.000000
vt 0.166667 0.000000
vt 0.166667 0.932879
vt 0.000000 0.932879
vt 0.000000 1.000000
vt 0.865758 1.000000
vt 0.865758 0.833333
vt 0.000000 0.833333
vt 0.833333 0.932879
vt 0.833333 0.000000
vt 1.000000 0.000000
vt 1.000000 0.932879
vt 0.375000 0.458333
vt 0.375000 0.458333
vt 0.125000 0.000000
vt 0.166667 0.000000
vt 0.166667 0.250000
vt 0.125000 0.250000
vt 0.625000 0.791667
vt 0.375000 0.791667
vt 0.833333 0.250000
vt 0.833333 0.000000
vt 0.875000 0.000000
vt 0.875000 0.250000
vt 0.625000 0.416667
vt 0.625000 0.416667
vt 0.333333 0.000000
vt 0.333333 0.932879
vt 0.865758 0.666667
vt 0.000000 0.666667
vt 0.666667 0.932879
vt 0.666667 0.000000
vt 0.375000 0.416667
vt 0.375000 0.416667
vt 0.208333 0.000000
vt 0.208333 0.250000
vt 0.625000 0.833333
vt 0.375000 0.833333
vt 0.791667 0.250000
vt 0.791667 0.000000
vt 0.625000 0.375000
vt 0.625000 0.375000
vt 0.500000 0.000000
vt 0.500000 0.932879
vt 0.865758 0.500000
vt 0.000000 0.500000
vt 0.500000 0.932879
vt 0.500000 0.000000
vt 0.375000 0.375000
vt 0.375000 0.375000
vt 0.250000 0.000000
vt 0.250000 0.250000
vt 0.625000 0.875000
vt 0.375000 0.875000
vt 0.750000 0.250000
vt 0.750000 0.000000
vt 0.625000 0.333333
vt 0.625000 0.333333
vt 0.666667 0.000000
vt 0.666667 0.932879
vt 0.865758 0.333333
vt 0.000000 0.333333
vt 0.333333 0.932879
vt 0.333333 0.000000
vt 0.375000 0.333333
vt 0.375000 0.333333
vt 0.291667 0.000000
vt 0.291667 0.250000
vt 0.625000 0.916667
vt 0.375000 0.916667
vt 0.708333 0.250000
vt 0.708333 0.000000
vt 0.000000 0.875705
vt 1.000000 0.875705
vt 1.000000 0.000000
vt 0.000000 0.000000
vt 0.000000 0.758148
vt 1.000000 0.758148
vt 1.000000 0.000000
vt 0.000000 0.000000
vt 0.196382 0.000000
vt 0.532432 0.000000
vt 0.336049 1.000000
vt 0.000000 1.000000
vt 0.000000 0.000000
vt 0.336049 0.000000
vt 0.532432 1.000000
vt 0.196382 1.000000
vt 0.196382 0.000000
vt 0.509876 0.000000
vt 0.313493 1.000000
vt 0.000000 1.000000
vt 0.000000 0.000000
vt 0.313493 0.000000
vt 0.509876 1.000000
vt 0.196382 1.000000
vt 0.000000 1.000000
vt 0.088533 1.000000
vt 0.088533 0.000000
vt 0.000000 0.000000
vt 0.000000 1.000000
vt 0.088533 1.000000
vt 0.088533 0.000000
vt 0.000000 0.000000
vt 0.067121 0.000000
vt 0.932879 0.000000
vt 1.000000 0.016780
vt 0.000000 0.016780
vt 0.000000 0.000000
vt 1.000000 0.000000
vt 0.932879 0.268484
vt 0.000000 0.268484
vt 0.000000 0.000000
vt 0.932879 0.000000
vt 1.000000 0.268484
vt 0.000000 0.268484
vn 0.000000 -0.858455 -0.512889
vn 0.000000 -0.858455 -0.512889
vn 0.000000 -0.795719 -0.605666
vn 0.000000 -0.795719 -0.605666
vn -1.000000 0.000000 0.000000
vn -1.000000 0.000000 0.000000
vn -1.000000 0.000000 0.000000
vn -1.000000 0.000000 0.000000
vn 1.000000 0.000000 0.000000
vn 1.000000 0.000000 0.000000
vn 1.000000 0.000000 0.000000
vn 1.000000 0.000000 0.000000
vn 0.000000 0.795511 0.605940
vn 0.000000 0.856725 0.515773
vn 0.000000 0.856725 0.515773
vn 0.000000 0.795511 0.605940
vn 0.000000 0.856725 0.515773
vn 0.000000 0.795511 0.605940
vn 0.000000 0.795511 0.605940
vn 0.000000 0.856725 0.515773
vn 0.000000 0.000000 1.000000
vn 0.000000 0.000000 1.000000
vn 0.000000 0.000000 1.000000
vn 0.000000 0.000000 1.000000
vn 0.000000 0.000000 1.000000
vn 0.000000 0.000000 1.000000
vn 0.000000 0.000000 1.000000
vn 0.000000 0.000000 1.000000
vn 0.000003 0.000000 1.000000
vn 0.000003 0.000000 1.000000
vn 0.000003 0.000000 1.000000
vn 0.000003 0.000000 1.000000
vn 0.000000 0.858347 0.513069
vn 0.000000 0.858347 0.513069
vn 0.000000 0.795706 0.605684
vn 0.000000 0.795706 0.605684
vn 1.000000 0.000000 0.000000
vn 1.000000 0.000000 0.000000
vn 1.000000 0.000000 0.000000
vn 1.000000 0.000000 0.000000
vn -1.000000 -0.000000 0.000000
vn -1.000000 -0.000000 0.000000
vn -1.000000 -0.000000 0.000000
vn -1.000000 -0.000000 0.000000
vn 0.000000 1.000000 0.000000
vn 0.000000 1.000000 0.000000
vn 0.000000 1.000000 0.000000
vn 0.000000 1.000000 0.000000
vn 1.000000 0.000000 0.000000
vn 1.000000 0.000000 0.000000
vn 1.000000 0.000000 0.000000
vn 1.000000 0.000000 0.000000
vn 0.000000 1.000000 0.000000
vn 0.000000 1.000000 0.000000
vn 0.000000 1.000000 0.000000
vn 0.000000 1.000000 0.000000
vn -1.000000 0.000000 0.000000
vn -1.000000 0.000000 0.000000
vn -1.000000 0.000000 0.000000
vn -1.000000 0.000000 0.000000
vn 0.000000 1.000000 0.000000
vn 0.000000 1.000000 0.000000
vn 0.000000 1.000000 0.000000
vn 0.000000 1.000000 0.000000
vn 1.000000 0.000000 0.000000
vn 1.000000 0.000000 0.000000
vn 1.000000 0.000000 0.000000
vn 1.000000 0.000000 0.000000
vn 0.000000 -1.000000 0.000000
vn 0.000000 -1.000000 0.000000
vn 0.000000 -1.000000 0.000000
vn 0.000000 -1.000000 0.000000
vn -1.000000 0.000000 0.000000
vn -1.000000 0.000000 0.000000
vn -1.000000 0.000000 0.000000
vn -1.000000 0.000000 0.000000
vn 0.000000 1.000000 0.000000
vn 0.000000 1.000000 0.000000
vn 1.000000 0.000000 0.000000
vn 1.000000 0.000000 0.000000
vn 0.000000 1.000000 0.000000
vn 0.000000 1.000000 0.000000
vn -1.000000 0.000000 0.000000
vn -1.000000 0.000000 0.000000
vn 0.000000 1.000000 0.000000
vn 0.000000 1.000000 0.000000
vn 1.000000 0.000000 0.000000
vn 1.000000 0.000000 0.000000
vn 0.000000 -1.000000 0.000000
vn 0.000000 -1.000000 0.000000
vn -1.000000 0.000000 0.000000
vn -1.000000 0.000000 0.000000
vn 0.000000 0.997512 0.070493
vn 0.000000 0.997512 0.070493
vn 1.000000 0.000000 0.000000
vn 1.000000 0.000000 0.000000
vn 0.000000 0.997243 0.074206
vn 0.000000 0.997243 0.074206
vn -1.000000 0.000000 0.000000
vn -1.000000 0.000000 0.000000
vn 0.000000 0.997512 0.070493
vn 0.000000 0.997512 0.070493
vn 1.000000 0.000000 0.000000
vn 1.000000 0.000000 0.000000
vn 0.000000 -0.997224 -0.074459
vn 0.000000 -0.997224 -0.074459
vn -1.000000 0.000000 0.000000
vn -1.000000 0.000000 0.000000
vn 0.000000 0.957990 0.286803
vn 0.000000 0.957990 0.286803
vn 1.000000 0.000000 0.000000
vn 1.000000 0.000000 0.000000
vn 0.000000 0.957990 0.286803
vn 0.000000 0.957990 0.286803
vn -1.000000 0.000000 0.000000
vn -1.000000 0.000000 0.000000
vn 0.000000 0.957990 0.286803
vn 0.000000 0.957990 0.286803
vn 1.000000 0.000000 0.000000
vn 1.000000 0.000000 0.000000
vn 0.000000 -0.957990 -0.286803
vn 0.000000 -0.957990 -0.286803
vn -1.000000 0.000000 0.000000
vn -1.000000 0.000000 0.000000
vn 0.000000 0.737169 0.675708
vn 0.000000 0.737169 0.675708
vn 0.000000 0.737169 0.675708
vn 0.000000 0.737169 0.675708
vn 0.000000 -0.737060 -0.675827
vn 0.000000 -0.737060 -0.675827
vn 0.000000 -0.737060 -0.675827
vn 0.000000 -0.737060 -0.675827
vn -1.000000 0.000000 0.000000
vn -1.000000 0.000000 0.000000
vn -1.000000 0.000000 0.000000
vn -1.000000 0.000000 0.000000
vn 1.000000 0.000000 0.000000
vn 1.000000 0.000000 0.000000
vn 1.000000 0.000000 0.000000
vn 1.000000 0.000000 0.000000
vn -1.000000 0.000000 0.000000
vn -1.000000 0.000000 0.000000
vn -1.000000 0.000000 0.000000
vn -1.000000 0.000000 0.000000
vn 1.000000 0.000000 0.000000
vn 1.000000 0.000000 0.000000
vn 1.000000 0.000000 0.000000
vn 1.000000 0.000000 0.000000
vn 0.000000 0.738763 0.673965
vn 0.000000 0.738763 0.673965
vn 0.000000 0.738763 0.673965
vn 0.000000 0.738763 0.673965
vn 0.000000 0.738763 0.673965
vn 0.000000 0.738763 0.673965
vn 0.000000 0.738763 0.673965
vn 0.000000 0.738763 0.673965
vn 0.000000 0.766044 -0.642788
vn 0.000000 0.766044 -0.642788
vn 0.000000 0.766044 -0.642788
vn 0.000000 0.766044 -0.642788
vn 0.000000 0.766044 -0.642788
vn 0.000000 0.766044 -0.642788
vn 0.000000 0.766044 -0.642788
vn 0.000000 0.766044 -0.642788
vn 0.000000 0.766044 -0.642788
vn 0.000000 0.766044 -0.642788
vn 0.000000 0.766044 -0.642788
vn 0.000000 0.766044 -0.642788
s 1
g Racetrack_Large_Up_Curved
usemtl lambert31SG
f 63/1/1 64/2/2 10/3/3 9/4/4
s 2
f 10/5/5 64/6/6 57/7/7 12/8/8
s 3
f 63/9/9 9/10/10 11/11/11 62/12/12
s 4
f 12/8/13 57/15/14 58/16/15 19/13/16
s 5
f 62/17/17 11/11/18 20/14/19 61/18/20
s off
f 14/19/21 16/20/22 23/21/23 21/22/24
f 16/20/25 15/23/26 24/24/27 23/21/28
f 15/23/29 13/25/30 22/26/31 24/24/32
s 6
f 59/27/33 60/28/34 17/29/35 18/30/36
s 7
f 59/31/37 18/32/38 19/33/39 58/34/40
s 8
f 17/35/41 60/36/42 61/37/43 20/38/44
s 4
f 25/39/45 14/19/46 21/22/47 26/40/48
s 7
f 23/41/49 27/42/50 26/43/51 21/44/52
s 6
f 23/45/53 24/46/54 28/47/55 27/48/56
s 8
f 29/49/57 28/50/58 24/51/59 22/52/60
s 5
f 13/25/61 30/53/62 29/54/63 22/26/64
s 3
f 15/55/65 31/56/66 30/57/67 13/58/68
s 1
f 15/23/69 16/20/70 32/59/71 31/60/72
s 2
f 25/61/73 32/62/74 16/63/75 14/64/76
s 4
f 33/65/77 25/39/45 26/40/48 34/66/78
s 7
f 27/42/50 35/67/79 34/68/80 26/43/51
s 6
f 27/48/56 28/47/55 36/69/81 35/70/82
s 8
f 37/71/83 36/72/84 28/50/58 29/49/57
s 5
f 30/53/62 38/73/85 37/74/86 29/54/63
s 3
f 31/56/66 39/75/87 38/76/88 30/57/67
s 1
f 31/60/72 32/59/71 40/77/89 39/78/90
s 2
f 33/79/91 40/80/92 32/62/74 25/61/73
s 4
f 41/81/93 33/65/77 34/66/78 42/82/94
s 7
f 35/67/79 43/83/95 42/84/96 34/68/80
s 6
f 35/70/82 36/69/81 44/85/97 43/86/98
s 8
f 45/87/99 44/88/100 36/72/84 37/71/83
s 5
f 38/73/85 46/89/101 45/90/102 37/74/86
s 3
f 39/75/87 47/91/103 46/92/104 38/76/88
s 1
f 39/78/90 40/77/89 48/93/105 47/94/106
s 2
f 41/95/107 48/96/108 40/80/92 33/79/91
s 4
f 49/97/109 41/81/93 42/82/94 50/98/110
s 7
f 43/83/95 51/99/111 50/100/112 42/84/96
s 6
f 43/86/98 44/85/97 52/101/113 51/102/114
s 8
f 53/103/115 52/104/116 44/88/100 45/87/99
s 5
f 46/89/101 54/105/117 53/106/118 45/90/102
s 3
f 47/91/103 55/107/119 54/108/120 46/92/104
s 1
f 47/94/106 48/93/105 56/109/121 55/110/122
s 2
f 49/111/123 56/112/124 48/96/108 41/95/107
s 4
f 57/15/14 49/97/109 50/98/110 58/16/15
s 7
f 51/99/111 59/31/37 58/34/40 50/100/112
s 6
f 51/102/114 52/101/113 60/28/34 59/27/33
s 8
f 61/37/43 60/36/42 52/104/116 53/103/115
s 5
f 54/105/117 62/17/17 61/18/20 53/106/118
s 3
f 55/107/119 63/9/9 62/12/12 54/108/120
s 1
f 55/110/122 56/109/121 64/2/2 63/1/1
s 2
f 57/7/7 64/6/6 56/112/124 49/111/123
s off
f 6/113/125 5/114/126 18/115/127 17/116/128
f 9/117/129 10/118/130 1/119/131 2/120/132
f 3/121/133 1/122/134 10/123/135 12/124/136
f 2/125/137 4/126/138 11/127/139 9/128/140
f 7/129/141 6/130/142 17/131/143 20/132/144
f 5/133/145 8/134/146 19/135/147 18/136/148
f 8/137/149 3/138/150 12/139/151 19/140/152
f 4/141/153 7/142/154 20/143/155 11/144/156
f 5/145/157 6/146/158 2/147/159 1/148/160
f 4/149/161 2/150/162 6/151/163 7/152/164
f 8/153/165 5/154/166 1/155/167 3/156/168
