# This file uses centimeters as units for non-parametric coordinates.

mtllib large_bush_er_1.mtl
g default
v 13.113052 -0.952888 -4.260681
v 8.104309 -0.952888 -11.154617
v 0.000000 -0.952888 -13.787872
v -8.104309 -0.952888 -11.154617
v -13.113037 -0.952888 -4.260681
v -13.113037 -0.952888 4.260681
v -8.104309 -0.952888 11.154617
v 0.000000 -0.952888 13.787872
v 8.104309 -0.952888 11.154617
v 13.113037 -0.952888 4.260681
v 34.330414 5.999313 -11.154617
v 21.217361 5.999313 -29.203186
v 0.000000 5.999313 -36.097122
v -21.217346 5.999313 -29.203186
v -34.330399 5.999313 -11.154617
v -34.330399 5.999313 11.154617
v -21.217346 5.999313 29.203171
v 0.000000 5.999313 36.097107
v 21.217346 5.999313 29.203171
v 34.330383 5.999313 11.154617
v 39.265656 32.225395 -12.758179
v 24.267502 32.225395 -33.401352
v 0.000000 32.225395 -41.286331
v -24.267502 32.225395 -33.401352
v -39.265625 32.225395 -12.758179
v -39.265625 32.225395 12.758179
v -24.267487 32.225395 33.401337
v 0.000000 32.225395 41.286331
v 24.267487 32.225395 33.401337
v 39.265625 32.225395 12.758179
v 34.330414 58.451473 -11.154617
v 21.217361 58.451473 -29.203186
v 0.000000 58.451473 -36.097122
v -21.217346 58.451473 -29.203186
v -34.330399 58.451473 -11.154617
v -34.330399 58.451473 11.154617
v -21.217346 58.451473 29.203171
v 0.000000 58.451473 36.097107
v 21.217346 58.451473 29.203171
v 34.330383 58.451473 11.154617
v 0.000000 66.470779 0.000000
vt 0.415581 0.738147
vt 0.549870 0.156227
vt 0.540447 0.138243
vt 0.492725 0.738715
vt 0.338419 0.737720
vt 0.546903 0.176303
vt 0.522244 0.129217
vt 0.569655 0.739557
vt 0.261323 0.737261
vt 0.532688 0.190793
vt 0.502209 0.132599
vt 0.646135 0.740584
vt 0.184491 0.736247
vt 0.512651 0.194174
vt 0.487994 0.147091
vt 0.722190 0.741455
vt 0.108155 0.732676
vt 0.494448 0.185145
vt 0.485031 0.167164
vt 0.797915 0.741557
vt 0.492065 0.824634
vt 0.373133 0.517376
vt 0.337798 0.910011
vt 0.568808 0.825173
vt 0.415068 0.824235
vt 0.380517 0.391178
vt 0.337905 0.823917
vt 0.645271 0.825922
vt 0.491650 0.910398
vt 0.441145 0.623506
vt 0.495201 0.485455
vt 0.184355 0.910810
vt 0.721802 0.826792
vt 0.644286 0.911119
vt 0.293209 0.614851
vt 0.260428 0.823695
vt 0.181786 0.823576
vt 0.255620 0.471437
vt 0.799400 0.827700
vt 0.795942 0.913778
vt 0.098539 0.823579
vt 0.597805 0.201586
vt 0.605910 0.146746
vt 0.559006 0.241177
vt 0.504340 0.250412
vt 0.454680 0.225757
vt 0.429001 0.176640
vt 0.437095 0.121819
vt 0.475883 0.082219
vt 0.530549 0.072978
vt 0.580213 0.097620
vt 0.494448 0.185145
vt 0.873145 0.739092
vt 0.454680 0.225757
vt 0.881382 0.828617
vt 0.871113 0.917913
vt 0.453194 0.419721
vt 0.414761 0.910215
vt 0.260936 0.909994
vt 0.305007 0.411051
vt 0.108177 0.914395
vt 0.490581 0.563275
vt 0.251134 0.549265
vt 0.720196 0.912106
vt 0.365772 0.643198
vt 0.568187 0.910604
vn 0.832684 -0.483153 -0.270555
vn 0.282956 -0.954717 -0.091938
vn 0.174876 -0.954717 -0.240696
vn 0.514627 -0.483153 -0.708323
vn 0.000000 -0.954717 -0.297517
vn 0.000000 -0.483153 -0.875536
vn -0.174876 -0.954717 -0.240696
vn -0.514627 -0.483153 -0.708323
vn -0.282956 -0.954717 -0.091938
vn -0.832684 -0.483153 -0.270555
vn -0.282956 -0.954717 0.091938
vn -0.832684 -0.483153 0.270556
vn -0.174876 -0.954717 0.240696
vn -0.514627 -0.483153 0.708323
vn -0.000000 -0.954717 0.297517
vn 0.000000 -0.483153 0.875536
vn 0.174876 -0.954717 0.240696
vn 0.514627 -0.483153 0.708323
vn 0.282956 -0.954717 0.091938
vn 0.832684 -0.483153 0.270556
vn 0.951057 0.000000 -0.309017
vn 0.587785 0.000000 -0.809017
vn 0.000000 -0.000000 -1.000000
vn -0.587785 0.000000 -0.809017
vn -0.951057 0.000000 -0.309017
vn -0.951056 0.000000 0.309017
vn -0.587785 0.000000 0.809017
vn 0.000000 -0.000000 1.000000
vn 0.587785 0.000000 0.809017
vn 0.951056 -0.000000 0.309018
vn 0.668382 0.711409 -0.217170
vn 0.421199 0.697499 -0.579730
vn -0.000000 0.711409 -0.702778
vn -0.421199 0.697499 -0.579730
vn -0.668382 0.711409 -0.217170
vn -0.681514 0.697499 0.221437
vn -0.413083 0.711409 0.568559
vn 0.000000 0.697499 0.716586
vn 0.413083 0.711409 0.568560
vn 0.681514 0.697499 0.221438
vn 0.000000 1.000000 -0.000000
s 1
g large_bush_er_1
usemtl lambert2SG
f 11/43/1 1/2/2 2/3/3 12/51/4
f 12/51/4 2/3/3 3/7/5 13/50/6
f 13/50/6 3/7/5 4/11/7 14/49/8
f 14/49/8 4/11/7 5/15/9 15/48/10
f 15/48/10 5/15/9 6/19/11 16/47/12
f 16/47/12 6/19/11 7/18/13 17/54/14
f 17/46/14 7/52/13 8/14/15 18/45/16
f 18/45/16 8/14/15 9/10/17 19/44/18
f 19/44/18 9/10/17 10/6/19 20/42/20
f 20/42/20 10/6/19 1/2/2 11/43/1
f 21/25/21 11/1/1 12/4/4 22/21/22
f 22/21/22 12/4/4 13/8/6 23/24/23
f 23/24/23 13/8/6 14/12/8 24/28/24
f 24/28/24 14/12/8 15/16/10 25/33/25
f 25/33/25 15/16/10 16/20/12 26/39/26
f 26/39/26 16/20/12 17/53/14 27/55/27
f 27/41/27 17/17/14 18/13/16 28/37/28
f 28/37/28 18/13/16 19/9/18 29/36/29
f 29/36/29 19/9/18 20/5/20 30/27/30
f 30/27/30 20/5/20 11/1/1 21/25/21
f 31/58/31 21/25/21 22/21/22 32/29/32
f 32/29/32 22/21/22 23/24/23 33/66/33
f 33/66/33 23/24/23 24/28/24 34/34/34
f 34/34/34 24/28/24 25/33/25 35/64/35
f 35/64/35 25/33/25 26/39/26 36/40/36
f 36/40/36 26/39/26 27/55/27 37/56/37
f 37/61/37 27/41/27 28/37/28 38/32/38
f 38/32/38 28/37/28 29/36/29 39/59/39
f 39/59/39 29/36/29 30/27/30 40/23/40
f 40/23/40 30/27/30 21/25/21 31/58/31
f 41/22/41 31/31/31 32/62/32 33/30/33
f 41/22/41 33/30/33 34/65/34 35/35/35
f 41/22/41 35/35/35 36/63/36 37/38/37
f 41/22/41 37/38/37 38/60/38 39/26/39
f 41/22/41 39/26/39 40/57/40 31/31/31
