# This file uses centimeters as units for non-parametric coordinates.

mtllib Large_Race_Track_Issa_1.mtl
g default
v -256.000000 0.000000 1024.000000
v 0.000000 0.000000 1024.000000
v -256.000000 64.000000 1024.000000
v 0.000000 64.000000 1024.000000
v -256.000000 64.000000 0.000000
v 0.000000 64.000000 0.000000
v -256.000000 0.000000 0.000000
v 0.000000 0.000000 0.000000
v -238.817047 4.295738 1024.000000
v -17.182953 4.295738 1024.000000
v -17.182953 64.000000 1024.000000
v -238.817047 64.000000 1024.000000
v -17.182953 64.000000 0.000000
v -238.817047 64.000000 0.000000
v -17.182953 4.295738 0.000000
v -238.817047 4.295738 0.000000
vt 0.375000 0.000000
vt 0.625000 0.000000
vt 0.375000 0.250000
vt 0.625000 0.250000
vt 0.375000 0.500000
vt 0.625000 0.500000
vt 0.375000 0.750000
vt 0.625000 0.750000
vt 0.375000 1.000000
vt 0.625000 1.000000
vt 0.875000 0.000000
vt 0.875000 0.250000
vt 0.125000 0.000000
vt 0.125000 0.250000
vt 0.375000 0.000000
vt 0.625000 0.000000
vt 0.625000 0.250000
vt 0.375000 0.250000
vt 0.625000 0.500000
vt 0.375000 0.500000
vt 0.625000 0.750000
vt 0.375000 0.750000
vt 0.000000 1.000000
vt 0.865758 1.000000
vt 0.865758 0.000000
vt 0.000000 0.000000
vt 0.000000 0.000000
vt 1.000000 0.000000
vt 1.000000 0.932879
vt 0.000000 0.932879
vt 0.000000 0.000000
vt 1.000000 0.000000
vt 1.000000 0.932879
vt 0.000000 0.932879
vn 0.000000 -1.000000 0.000000
vn 0.000000 -1.000000 0.000000
vn 0.000000 -1.000000 0.000000
vn 0.000000 -1.000000 0.000000
vn 1.000000 0.000000 0.000000
vn 1.000000 0.000000 0.000000
vn 1.000000 0.000000 0.000000
vn 1.000000 0.000000 0.000000
vn -1.000000 0.000000 0.000000
vn -1.000000 0.000000 0.000000
vn -1.000000 0.000000 0.000000
vn -1.000000 0.000000 0.000000
vn 0.000000 0.000000 1.000000
vn 0.000000 0.000000 1.000000
vn 0.000000 0.000000 1.000000
vn 0.000000 0.000000 1.000000
vn 0.000000 0.000000 1.000000
vn 0.000000 0.000000 1.000000
vn 0.000000 0.000000 1.000000
vn 0.000000 0.000000 1.000000
vn 0.000000 0.000000 1.000000
vn 0.000000 0.000000 1.000000
vn 0.000000 0.000000 1.000000
vn 0.000000 0.000000 1.000000
vn 0.000000 1.000000 0.000000
vn 0.000000 1.000000 0.000000
vn 0.000000 1.000000 0.000000
vn 0.000000 1.000000 0.000000
vn 0.000000 1.000000 0.000000
vn 0.000000 1.000000 0.000000
vn 0.000000 1.000000 0.000000
vn 0.000000 1.000000 0.000000
vn 0.000000 0.000000 -1.000000
vn 0.000000 0.000000 -1.000000
vn 0.000000 0.000000 -1.000000
vn 0.000000 0.000000 -1.000000
vn 0.000000 0.000000 -1.000000
vn 0.000000 0.000000 -1.000000
vn 0.000000 0.000000 -1.000000
vn 0.000000 0.000000 -1.000000
vn 0.000000 0.000000 -1.000000
vn 0.000000 0.000000 -1.000000
vn 0.000000 0.000000 -1.000000
vn 0.000000 0.000000 -1.000000
vn 0.000000 1.000000 0.000000
vn 0.000000 1.000000 0.000000
vn 0.000000 1.000000 0.000000
vn 0.000000 1.000000 0.000000
vn -1.000000 0.000000 0.000000
vn -1.000000 0.000000 0.000000
vn -1.000000 0.000000 0.000000
vn -1.000000 0.000000 0.000000
vn 1.000000 0.000000 0.000000
vn 1.000000 0.000000 0.000000
vn 1.000000 0.000000 0.000000
vn 1.000000 0.000000 0.000000
s off
g Racetrack_Large_Straight
usemtl lambert30SG
f 7/7/1 8/8/2 2/10/3 1/9/4
f 2/2/5 8/11/6 6/12/7 4/4/8
f 7/13/9 1/1/10 3/3/11 5/14/12
f 1/1/13 2/2/14 10/16/15 9/15/16
f 2/2/17 4/4/18 11/17/19 10/16/20
f 3/3/21 1/1/22 9/15/23 12/18/24
f 4/4/25 6/6/26 13/19/27 11/17/28
f 5/5/29 3/3/30 12/18/31 14/20/32
f 6/6/33 8/8/34 15/21/35 13/19/36
f 8/8/37 7/7/38 16/22/39 15/21/40
f 7/7/41 5/5/42 14/20/43 16/22/44
f 15/23/45 16/24/46 9/25/47 10/26/48
f 15/27/49 10/28/50 11/29/51 13/30/52
f 9/31/53 16/32/54 14/33/55 12/34/56
