# This file uses centimeters as units for non-parametric coordinates.

mtllib large_bush_er_2.mtl
g default
v 7.525131 -0.546829 -2.445065
v 4.650787 -0.546829 -6.401257
v 0.000000 -0.546829 -7.912388
v -4.650787 -0.546829 -6.401257
v -7.525131 -0.546829 -2.445065
v -7.525131 -0.546829 2.445065
v -4.650787 -0.546829 6.401257
v 0.000000 -0.546829 7.912388
v 4.650787 -0.546829 6.401257
v 7.525131 -0.546829 2.445065
v 19.701050 6.560390 -6.401257
v 12.175919 6.560390 -16.758713
v 0.000000 6.560390 -20.714905
v -12.175919 6.560390 -16.758709
v -19.701050 6.560390 -6.401257
v -19.701050 6.560390 6.401257
v -12.175919 6.560390 16.758707
v 0.000000 6.560390 20.714901
v 12.175903 6.560390 16.758705
v 19.701035 6.560390 6.401257
v 24.351822 21.610643 -7.912392
v 15.050262 21.610643 -20.714909
v 0.000000 21.610643 -25.605034
v -15.050262 21.610643 -20.714901
v -24.351822 21.610643 -7.912388
v -24.351822 21.610643 7.912388
v -15.050262 21.610643 20.714901
v 0.000000 21.610643 25.605022
v 15.050247 21.610643 20.714899
v 24.351807 21.610643 7.912388
v 19.701050 36.660896 -6.401257
v 12.175919 36.660896 -16.758713
v 0.000000 36.660896 -20.714905
v -12.175919 36.660896 -16.758709
v -19.701050 36.660896 -6.401257
v -19.701050 36.660896 6.401257
v -12.175919 36.660896 16.758707
v 0.000000 36.660896 20.714901
v 12.175903 36.660896 16.758705
v 19.701035 36.660896 6.401257
v 0.000000 41.262905 0.000000
vt 0.508764 0.796475
vt 0.189835 0.577640
vt 0.167736 0.569758
vt 0.583293 0.796862
vt 0.434484 0.796220
vt 0.203828 0.596542
vt 0.145696 0.576588
vt 0.657779 0.797416
vt 0.360709 0.795754
vt 0.203553 0.619554
vt 0.132154 0.595131
vt 0.731939 0.798091
vt 0.287512 0.794143
vt 0.189660 0.637890
vt 0.132172 0.618223
vt 0.805512 0.798531
vt 0.215162 0.788722
vt 0.167637 0.644483
vt 0.145694 0.636987
vt 0.878463 0.797812
vt 0.582801 0.878831
vt 0.536648 0.326254
vt 0.448706 0.424658
vt 0.657278 0.879275
vt 0.508292 0.878413
vt 0.433885 0.878001
vt 0.433570 0.959765
vt 0.731557 0.879707
vt 0.582350 0.960807
vt 0.549913 0.195328
vt 0.416112 0.273133
vt 0.359373 0.877571
vt 0.805892 0.880145
vt 0.730969 0.961314
vt 0.665267 0.298419
vt 0.877482 0.963366
vt 0.286632 0.960213
vt 0.283363 0.877191
vt 0.881662 0.880601
vt 0.602927 0.440087
vt 0.200353 0.876753
vt 0.407800 0.354149
vt 0.507837 0.960338
vt 0.359812 0.959433
vt 0.523350 0.457415
vt 0.214275 0.964891
vt 0.657107 0.379357
vt 0.804534 0.961764
vt 0.624328 0.228142
vt 0.656817 0.961113
vt 0.470396 0.212496
vt 0.275532 0.574372
vt 0.235846 0.515788
vt 0.273419 0.643727
vt 0.231636 0.698149
vt 0.166349 0.717753
vt 0.102029 0.695729
vt 0.062407 0.640375
vt 0.062451 0.572205
vt 0.102503 0.516551
vt 0.168314 0.494557
vt 0.964410 0.881074
vt 0.949588 0.968820
vt 0.950583 0.793205
vn 0.816153 -0.513392 -0.265184
vn 0.461611 -0.874311 -0.149986
vn 0.285291 -0.874311 -0.392670
vn 0.504410 -0.513392 -0.694261
vn -0.000000 -0.874311 -0.485367
vn -0.000000 -0.513393 -0.858154
vn -0.285291 -0.874311 -0.392670
vn -0.504410 -0.513392 -0.694261
vn -0.461611 -0.874311 -0.149987
vn -0.816153 -0.513392 -0.265184
vn -0.461611 -0.874311 0.149987
vn -0.816153 -0.513392 0.265184
vn -0.285291 -0.874311 0.392670
vn -0.504410 -0.513392 0.694261
vn 0.000000 -0.874311 0.485367
vn 0.000000 -0.513392 0.858154
vn 0.285292 -0.874310 0.392670
vn 0.504410 -0.513392 0.694261
vn 0.461612 -0.874310 0.149987
vn 0.816153 -0.513392 0.265185
vn 0.951057 -0.000000 -0.309016
vn 0.587785 0.000000 -0.809017
vn -0.000000 0.000000 -1.000000
vn -0.587785 0.000000 -0.809017
vn -0.951057 -0.000000 -0.309017
vn -0.951057 -0.000000 0.309017
vn -0.587785 0.000000 0.809017
vn 0.000000 0.000000 1.000000
vn 0.587786 -0.000000 0.809017
vn 0.951056 -0.000000 0.309017
vn 0.646802 0.733130 -0.210158
vn 0.407607 0.720493 -0.561023
vn -0.000000 0.733131 -0.680088
vn -0.407607 0.720493 -0.561023
vn -0.646802 0.733130 -0.210159
vn -0.659522 0.720493 0.214292
vn -0.399746 0.733131 0.550203
vn 0.000000 0.720493 0.693462
vn 0.399746 0.733131 0.550203
vn 0.659522 0.720493 0.214292
vn 0.000000 1.000000 0.000000
s 1
g large_bush_er_2
usemtl lambert2SG
f 11/53/1 1/2/2 2/3/3 12/61/4
f 12/61/4 2/3/3 3/7/5 13/60/6
f 13/60/6 3/7/5 4/11/7 14/59/8
f 14/59/8 4/11/7 5/15/9 15/58/10
f 15/58/10 5/15/9 6/19/11 16/57/12
f 16/57/12 6/19/11 7/18/13 17/56/14
f 17/56/14 7/18/13 8/14/15 18/55/16
f 18/55/16 8/14/15 9/10/17 19/54/18
f 19/54/18 9/10/17 10/6/19 20/52/20
f 20/52/20 10/6/19 1/2/2 11/53/1
f 21/25/21 11/1/1 12/4/4 22/21/22
f 22/21/22 12/4/4 13/8/6 23/24/23
f 23/24/23 13/8/6 14/12/8 24/28/24
f 24/28/24 14/12/8 15/16/10 25/33/25
f 25/33/25 15/16/10 16/20/12 26/39/26
f 26/39/26 16/20/12 17/64/14 27/62/27
f 27/41/27 17/17/14 18/13/16 28/38/28
f 28/38/28 18/13/16 19/9/18 29/32/29
f 29/32/29 19/9/18 20/5/20 30/26/30
f 30/26/30 20/5/20 11/1/1 21/25/21
f 31/43/31 21/25/21 22/21/22 32/29/32
f 32/29/32 22/21/22 23/24/23 33/50/33
f 33/50/33 23/24/23 24/28/24 34/34/34
f 34/34/34 24/28/24 25/33/25 35/48/35
f 35/48/35 25/33/25 26/39/26 36/36/36
f 36/36/36 26/39/26 27/62/27 37/63/37
f 37/46/37 27/41/27 28/38/28 38/37/38
f 38/37/38 28/38/28 29/32/29 39/44/39
f 39/44/39 29/32/29 30/26/30 40/27/40
f 40/27/40 30/26/30 21/25/21 31/43/31
f 41/22/41 31/31/31 32/51/32 33/30/33
f 41/22/41 33/30/33 34/49/34 35/35/35
f 41/22/41 35/35/35 36/47/36 37/40/37
f 41/22/41 37/40/37 38/45/38 39/23/39
f 41/22/41 39/23/39 40/42/40 31/31/31
