# This file uses centimeters as units for non-parametric coordinates.

mtllib Medium_Crayon_Issa_1.mtl
g default
v 36.180347 0.000000 -11.755678
v 26.180347 0.000000 -19.021151
v 13.819659 0.000000 -19.021151
v 3.819659 0.000000 -11.755678
v 0.000002 0.000000 -0.000001
v 3.819659 0.000000 11.755674
v 13.819659 0.000000 19.021147
v 26.180347 0.000000 19.021147
v 36.180347 0.000000 11.755674
v 40.000000 0.000000 -0.000001
v 36.180347 160.717407 -11.755678
v 26.180347 160.717407 -19.021151
v 13.819659 160.717407 -19.021151
v 3.819659 160.717407 -11.755678
v 0.000002 160.717407 -0.000001
v 3.819659 160.717407 11.755674
v 13.819659 160.717407 19.021147
v 26.180347 160.717407 19.021147
v 36.180347 160.717407 11.755674
v 40.000000 160.717407 -0.000001
v 20.000004 0.000000 -0.000001
v 32.502903 160.717407 -9.083864
v 24.775700 160.717407 -14.698030
v 15.224307 160.717407 -14.698030
v 7.497103 160.717407 -9.083864
v 4.545519 160.717407 -0.000001
v 7.497103 160.717407 9.083860
v 15.224307 160.717407 14.698027
v 24.775700 160.717407 14.698027
v 32.502903 160.717407 9.083860
v 35.454487 160.717407 -0.000001
v 24.910374 209.221771 -2.977031
v 21.875603 210.436829 -4.816949
v 18.124401 210.436829 -4.816949
v 15.089629 209.221771 -2.977031
v 13.930433 207.255829 -0.000001
v 15.089629 205.289886 2.977034
v 18.124401 204.074890 4.816951
v 21.875603 204.074890 4.816951
v 24.910374 205.289886 2.977034
v 26.069572 207.255829 -0.000001
v 21.875603 207.255829 0.000004
v 18.124401 207.255829 0.000003
v 15.089629 207.255829 0.000001
v 24.910374 207.255829 0.000001
vt 0.626409 0.064409
vt 0.548284 0.007647
vt 0.451716 0.007647
vt 0.373591 0.064409
vt 0.343750 0.156250
vt 0.373591 0.248091
vt 0.451716 0.304853
vt 0.548284 0.304853
vt 0.626409 0.248091
vt 0.656250 0.156250
vt 0.375000 0.312500
vt 0.400000 0.312500
vt 0.425000 0.312500
vt 0.450000 0.312500
vt 0.475000 0.312500
vt 0.500000 0.312500
vt 0.525000 0.312500
vt 0.550000 0.312500
vt 0.575000 0.312500
vt 0.600000 0.312500
vt 0.625000 0.312500
vt 0.375000 0.688440
vt 0.400000 0.688440
vt 0.425000 0.688440
vt 0.450000 0.688440
vt 0.475000 0.688440
vt 0.500000 0.688440
vt 0.525000 0.688440
vt 0.550000 0.688440
vt 0.575000 0.688440
vt 0.600000 0.688440
vt 0.625000 0.688440
vt 0.626409 0.751909
vt 0.548284 0.695147
vt 0.451716 0.695147
vt 0.373591 0.751909
vt 0.343750 0.843750
vt 0.373591 0.935591
vt 0.451716 0.992353
vt 0.548284 0.992353
vt 0.626409 0.935591
vt 0.656250 0.843750
vt 0.500000 0.150000
vt 0.626409 0.935591
vt 0.548284 0.992353
vt 0.451716 0.992353
vt 0.373591 0.935591
vt 0.343750 0.843750
vt 0.373591 0.751909
vt 0.451716 0.695147
vt 0.548284 0.695147
vt 0.626409 0.751909
vt 0.656250 0.843750
vt 0.626409 0.935591
vt 0.548284 0.992353
vt 0.451716 0.992353
vt 0.373591 0.935591
vt 0.343750 0.843750
vt 0.373591 0.751909
vt 0.451716 0.695147
vt 0.548284 0.695147
vt 0.626409 0.751909
vt 0.656250 0.843750
vt 0.000000 0.000000
vt 0.384175 0.000000
vt 0.384175 1.000000
vt 0.000000 1.000000
vt 0.000000 0.000000
vt 0.428159 0.000000
vt 0.807931 0.618033
vt 0.614485 1.000000
vt 0.379772 0.000000
vt 0.807931 0.000000
vt 0.193446 1.000000
vt 0.000000 0.618033
vt 0.426203 0.000000
vt 1.000000 0.000000
vt 0.000000 0.384179
vt 0.000000 0.000000
vt 1.000000 0.000000
vt 0.500000 0.192090
vt 0.000000 0.500000
vt 0.384175 0.500000
vt 0.618045 0.309016
vt 0.307243 0.500000
vt 0.500688 0.500000
vt 0.189886 0.309016
vt 0.500000 0.192090
vt 0.500000 -0.000000
vn 0.587788 0.000000 -0.809015
vn 0.587788 0.000000 -0.809015
vn 0.587788 0.000000 -0.809015
vn 0.587788 0.000000 -0.809015
vn 0.000000 0.000000 -1.000000
vn 0.000000 0.000000 -1.000000
vn 0.000000 0.000000 -1.000000
vn 0.000000 0.000000 -1.000000
vn -0.587788 0.000000 -0.809015
vn -0.587788 0.000000 -0.809015
vn -0.587788 0.000000 -0.809015
vn -0.587788 0.000000 -0.809015
vn -0.951056 0.000000 -0.309017
vn -0.951056 0.000000 -0.309017
vn -0.951056 0.000000 -0.309017
vn -0.951056 0.000000 -0.309017
vn -0.951056 0.000000 0.309017
vn -0.951056 0.000000 0.309017
vn -0.951056 0.000000 0.309017
vn -0.951056 0.000000 0.309017
vn -0.587788 0.000000 0.809015
vn -0.587788 0.000000 0.809015
vn -0.587788 0.000000 0.809015
vn -0.587788 0.000000 0.809015
vn 0.000000 0.000000 1.000000
vn 0.000000 0.000000 1.000000
vn 0.000000 0.000000 1.000000
vn 0.000000 0.000000 1.000000
vn 0.587788 0.000000 0.809015
vn 0.587788 0.000000 0.809015
vn 0.587788 0.000000 0.809015
vn 0.587788 0.000000 0.809015
vn 0.951056 0.000000 0.309017
vn 0.951056 0.000000 0.309017
vn 0.951056 0.000000 0.309017
vn 0.951056 0.000000 0.309017
vn 0.951056 0.000000 -0.309017
vn 0.951056 0.000000 -0.309017
vn 0.951056 0.000000 -0.309017
vn 0.951056 0.000000 -0.309017
vn 0.000000 -1.000000 0.000000
vn 0.000000 -1.000000 0.000000
vn 0.000000 -1.000000 0.000000
vn 0.000000 -1.000000 0.000000
vn 0.000000 -1.000000 0.000000
vn 0.000000 -1.000000 0.000000
vn 0.000000 -1.000000 0.000000
vn 0.000000 -1.000000 0.000000
vn 0.000000 -1.000000 0.000000
vn 0.000000 -1.000000 0.000000
vn 0.000000 -1.000000 0.000000
vn 0.000000 1.000000 -0.000001
vn 0.000000 1.000000 -0.000001
vn 0.000000 1.000000 -0.000001
vn 0.000000 1.000000 -0.000001
vn 0.000000 1.000000 -0.000000
vn 0.000000 1.000000 -0.000000
vn 0.000000 1.000000 -0.000000
vn 0.000000 1.000000 -0.000000
vn 0.000000 1.000000 -0.000001
vn 0.000000 1.000000 -0.000001
vn 0.000000 1.000000 -0.000001
vn 0.000000 1.000000 -0.000001
vn 0.000000 1.000000 -0.000001
vn 0.000000 1.000000 -0.000001
vn 0.000000 1.000000 -0.000001
vn 0.000000 1.000000 -0.000001
vn 0.000000 1.000000 0.000000
vn 0.000000 1.000000 0.000000
vn 0.000000 1.000000 0.000000
vn 0.000000 1.000000 0.000000
vn 0.000000 1.000000 0.000001
vn 0.000000 1.000000 0.000001
vn 0.000000 1.000000 0.000001
vn 0.000000 1.000000 0.000001
vn 0.000000 1.000000 0.000000
vn 0.000000 1.000000 0.000000
vn 0.000000 1.000000 0.000000
vn 0.000000 1.000000 0.000000
vn 0.000000 1.000000 0.000001
vn 0.000000 1.000000 0.000001
vn 0.000000 1.000000 0.000001
vn 0.000000 1.000000 0.000001
vn 0.000000 1.000000 0.000000
vn 0.000000 1.000000 0.000000
vn 0.000000 1.000000 0.000000
vn 0.000000 1.000000 0.000000
vn 0.000000 1.000000 0.000001
vn 0.000000 1.000000 0.000001
vn 0.000000 1.000000 0.000001
vn 0.000000 1.000000 0.000001
vn 0.573392 0.190934 -0.796722
vn 0.573392 0.190934 -0.796722
vn 0.573392 0.190934 -0.796722
vn 0.573392 0.190934 -0.796722
vn 0.000000 0.194925 -0.980818
vn 0.000000 0.194925 -0.980818
vn 0.000000 0.194925 -0.980818
vn 0.000000 0.194925 -0.980818
vn -0.573392 0.190934 -0.796722
vn -0.573392 0.190934 -0.796722
vn -0.573392 0.190934 -0.796722
vn -0.573392 0.190934 -0.796722
vn -0.938834 0.186312 -0.289619
vn -0.938834 0.186312 -0.289619
vn -0.938834 0.186312 -0.289619
vn -0.938834 0.186312 -0.289619
vn -0.918403 0.194237 0.344685
vn -0.918403 0.194237 0.344685
vn -0.918403 0.194237 0.344685
vn -0.918403 0.194237 0.344685
vn -0.540057 0.212515 0.814356
vn -0.540057 0.212515 0.814356
vn -0.540057 0.212515 0.814356
vn -0.540057 0.212515 0.814356
vn 0.000000 0.222201 0.975001
vn 0.000000 0.222201 0.975001
vn 0.000000 0.222201 0.975001
vn 0.000000 0.222201 0.975001
vn 0.540056 0.212515 0.814356
vn 0.540056 0.212515 0.814357
vn 0.540056 0.212515 0.814356
vn 0.540056 0.212515 0.814357
vn 0.918403 0.194237 0.344685
vn 0.918403 0.194237 0.344685
vn 0.918403 0.194237 0.344685
vn 0.918403 0.194237 0.344685
vn 0.938834 0.186312 -0.289618
vn 0.938834 0.186312 -0.289618
vn 0.938834 0.186312 -0.289618
vn 0.938834 0.186312 -0.289618
vn -0.000000 0.834464 0.551062
vn -0.000000 0.834464 0.551062
vn -0.000000 0.834464 0.551062
vn -0.000000 0.834464 0.551062
vn -0.000004 0.834467 0.551058
vn -0.000004 0.834467 0.551058
vn -0.000004 0.834467 0.551058
vn -0.000004 0.834467 0.551058
vn 0.000004 0.834467 0.551058
vn 0.000004 0.834467 0.551058
vn 0.000004 0.834467 0.551058
vn 0.000004 0.834467 0.551058
vn -0.000001 0.834469 0.551055
vn -0.000001 0.834469 0.551055
vn -0.000001 0.834469 0.551055
vn -0.000001 0.834469 0.551055
vn 0.000001 0.834468 0.551057
vn 0.000001 0.834468 0.551057
vn 0.000001 0.834468 0.551057
vn 0.000001 0.834468 0.551057
vn -0.000003 0.834469 0.551055
vn -0.000003 0.834469 0.551055
vn -0.000003 0.834469 0.551055
vn -0.000003 0.834469 0.551055
vn -0.000000 0.834470 0.551053
vn -0.000000 0.834470 0.551053
vn -0.000000 0.834470 0.551053
vn -0.000000 0.834470 0.551053
vn 0.000003 0.834469 0.551056
vn 0.000003 0.834468 0.551056
vn 0.000003 0.834468 0.551056
vn 0.000003 0.834469 0.551056
s off
g Medium_Crayon_1
usemtl initialShadingGroup
f 1/11/1 2/12/2 12/23/3 11/22/4
f 2/12/5 3/13/6 13/24/7 12/23/8
f 3/13/9 4/14/10 14/25/11 13/24/12
f 4/14/13 5/15/14 15/26/15 14/25/16
f 5/15/17 6/16/18 16/27/19 15/26/20
f 6/16/21 7/17/22 17/28/23 16/27/24
f 7/17/25 8/18/26 18/29/27 17/28/28
f 8/18/29 9/19/30 19/30/31 18/29/32
f 9/19/33 10/20/34 20/31/35 19/30/36
f 10/20/37 1/21/38 11/32/39 20/31/40
s 1
f 2/2/41 1/1/42 21/43/43
f 3/3/44 2/2/41 21/43/43
f 4/4/45 3/3/44 21/43/43
f 5/5/46 4/4/45 21/43/43
f 6/6/47 5/5/46 21/43/43
f 7/7/48 6/6/47 21/43/43
f 8/8/49 7/7/48 21/43/43
f 9/9/50 8/8/49 21/43/43
f 10/10/51 9/9/50 21/43/43
f 1/1/42 10/10/51 21/43/43
s off
f 11/41/52 12/40/53 23/45/54 22/44/55
f 12/40/56 13/39/57 24/46/58 23/45/59
f 13/39/60 14/38/61 25/47/62 24/46/63
f 14/38/64 15/37/65 26/48/66 25/47/67
f 15/37/68 16/36/69 27/49/70 26/48/71
f 16/36/72 17/35/73 28/50/74 27/49/75
f 17/35/76 18/34/77 29/51/78 28/50/79
f 18/34/80 19/33/81 30/52/82 29/51/83
f 19/33/84 20/42/85 31/53/86 30/52/87
f 20/42/88 11/41/89 22/44/90 31/53/91
f 32/54/92 22/44/93 23/45/94 33/55/95
f 33/55/96 23/45/97 24/46/98 34/56/99
f 24/46/100 25/47/101 35/57/102 34/56/103
f 25/47/104 26/48/105 36/58/106 35/57/107
f 26/48/108 27/49/109 37/59/110 36/58/111
f 27/49/112 28/50/113 38/60/114 37/59/115
f 38/60/116 28/50/117 29/51/118 39/61/119
f 39/61/120 29/51/121 30/52/122 40/62/123
f 40/62/124 30/52/125 31/53/126 41/63/127
f 41/63/128 31/53/129 22/44/130 32/54/131
f 43/82/132 42/83/133 33/66/134 34/67/135
f 44/84/136 43/85/137 34/68/138 35/69/139
f 42/86/140 45/87/141 32/72/142 33/73/143
f 36/76/144 37/77/145 44/88/146 35/78/147
f 32/79/148 45/89/149 40/80/150 41/81/151
f 43/85/152 44/84/153 37/70/154 38/71/155
f 42/83/156 43/82/157 38/64/158 39/65/159
f 45/87/160 42/86/161 39/74/162 40/75/163
