# This file uses centimeters as units for non-parametric coordinates.

mtllib nj_awning_rectangular_01.mtl
g default
v 0.000000 115.839333 255.983307
v 245.393631 115.839333 256.000000
v 0.000000 121.682442 255.983307
v 245.393631 121.682457 256.000000
v 0.000000 179.001709 0.000061
v 245.393631 179.826111 0.000061
v 0.000000 147.001709 0.000000
v 245.393631 147.001709 0.000061
v 0.000000 178.892975 42.663940
v 0.000000 151.252441 42.663940
v 245.393631 151.252441 42.666687
v 245.393631 179.579926 42.666687
v 0.000000 173.626251 85.327759
v 0.000000 150.345215 85.327759
v 245.393631 150.345215 85.333374
v 245.393631 174.175842 85.333374
v 0.000000 166.516296 127.991638
v 0.000000 147.594757 127.991638
v 245.393631 147.594757 128.000000
v 245.393631 166.928497 128.000000
v 0.000000 154.507233 170.655548
v 0.000000 139.945160 170.655548
v 245.393631 139.945160 170.666687
v 245.393631 154.781982 170.666687
v 0.000000 140.355682 213.319427
v 0.000000 130.153107 213.319397
v 245.393631 130.153107 213.333344
v 245.393631 140.493103 213.333344
v 4.274292 129.964447 213.320496
v 241.119385 129.964935 213.332275
v 241.119385 117.032448 252.443298
v 4.274292 117.031868 252.429169
v 4.274292 147.355957 3.555481
v 241.119385 147.355927 3.555481
v 241.119385 151.037506 42.666443
v 4.274292 151.037506 42.664124
v 241.119385 150.268402 85.332886
v 4.274292 150.268372 85.328247
v 241.119385 147.390686 127.999329
v 4.274292 147.390564 127.992310
v 241.119385 139.856018 170.665771
v 4.274292 139.855713 170.656433
v 8.252045 133.998260 214.387756
v 237.141571 133.998901 214.398438
v 237.141571 121.711708 251.894470
v 8.252045 121.710876 251.881592
v 8.252106 151.785431 5.044128
v 237.141617 151.785370 5.044128
v 237.141617 155.190735 42.590576
v 8.252106 155.190735 42.588501
v 237.141617 154.482758 85.514832
v 8.252106 154.482727 85.510620
v 237.141617 151.511353 128.514038
v 8.252075 151.511169 128.507690
v 237.141602 143.981934 171.518890
v 8.252045 143.981537 171.510437
v 11.530151 0.581795 249.497955
v 11.016907 0.581795 248.918610
v 10.293182 0.581795 248.644135
v 9.524841 0.581795 248.737427
v 8.887848 0.581795 249.177124
v 8.528168 0.581795 249.862457
v 8.528168 0.581795 250.636444
v 8.887848 0.581795 251.321777
v 9.524841 0.581795 251.761475
v 10.293182 0.581795 251.854767
v 11.016907 0.581795 251.580292
v 11.530151 0.581795 251.000946
v 11.715393 0.581795 250.249451
v 11.530151 119.067642 249.497955
v 11.016907 119.067642 248.918610
v 10.293182 119.067642 248.644135
v 9.524841 119.067642 248.737427
v 8.887848 119.067642 249.177124
v 8.528168 119.067642 249.862457
v 8.528168 119.067642 250.636444
v 8.887848 119.067642 251.321777
v 9.524841 119.067642 251.761475
v 10.293182 119.067642 251.854767
v 11.016907 119.067642 251.580292
v 11.530151 119.067642 251.000946
v 11.715393 119.067642 250.249451
v 10.098267 119.067642 250.249451
v 238.461044 0.581795 249.497955
v 237.947800 0.581795 248.918610
v 237.224091 0.581795 248.644135
v 236.455750 0.581795 248.737427
v 235.818756 0.581795 249.177124
v 235.459061 0.581795 249.862457
v 235.459061 0.581795 250.636444
v 235.818756 0.581795 251.321777
v 236.455750 0.581795 251.761475
v 237.224091 0.581795 251.854767
v 237.947800 0.581795 251.580292
v 238.461044 0.581795 251.000946
v 238.646271 0.581795 250.249451
v 238.461044 119.067642 249.497955
v 237.947800 119.067642 248.918610
v 237.224091 119.067642 248.644135
v 236.455750 119.067642 248.737427
v 235.818756 119.067642 249.177124
v 235.459061 119.067642 249.862457
v 235.459061 119.067642 250.636444
v 235.818756 119.067642 251.321777
v 236.455750 119.067642 251.761475
v 237.224091 119.067642 251.854767
v 237.947800 119.067642 251.580292
v 238.461044 119.067642 251.000946
v 238.646271 119.067642 250.249451
v 237.029175 119.067642 250.249451
vt 0.375000 0.000000
vt 0.625000 0.000000
vt 0.625000 0.250000
vt 0.375000 0.250000
vt 0.625000 0.291667
vt 0.375000 0.291667
vt 0.375000 0.500000
vt 0.625000 0.500000
vt 0.625000 0.750000
vt 0.375000 0.750000
vt 0.375000 0.958333
vt 0.625000 0.958333
vt 0.625000 1.000000
vt 0.375000 1.000000
vt 0.666667 0.000000
vt 0.666667 0.250000
vt 0.333333 0.000000
vt 0.333333 0.250000
vt 0.125000 0.000000
vt 0.166667 0.000000
vt 0.166667 0.250000
vt 0.125000 0.250000
vt 0.375000 0.750000
vt 0.625000 0.750000
vt 0.625000 0.791667
vt 0.375000 0.791667
vt 0.833333 0.250000
vt 0.833333 0.000000
vt 0.875000 0.000000
vt 0.875000 0.250000
vt 0.375000 0.458333
vt 0.625000 0.458333
vt 0.208333 0.000000
vt 0.208333 0.250000
vt 0.625000 0.833333
vt 0.375000 0.833333
vt 0.791667 0.250000
vt 0.791667 0.000000
vt 0.375000 0.416667
vt 0.625000 0.416667
vt 0.250000 0.000000
vt 0.250000 0.250000
vt 0.625000 0.875000
vt 0.375000 0.875000
vt 0.750000 0.250000
vt 0.750000 0.000000
vt 0.375000 0.375000
vt 0.625000 0.375000
vt 0.291667 0.000000
vt 0.291667 0.250000
vt 0.625000 0.916667
vt 0.375000 0.916667
vt 0.708333 0.250000
vt 0.708333 0.000000
vt 0.375000 0.333333
vt 0.625000 0.333333
vt 0.625000 0.958333
vt 0.625000 1.000000
vt 0.625000 1.000000
vt 0.625000 0.958333
vt 0.375000 1.000000
vt 0.375000 1.000000
vt 0.375000 0.958333
vt 0.375000 0.958333
vt 0.625000 0.750000
vt 0.375000 0.750000
vt 0.625000 0.791667
vt 0.625000 0.791667
vt 0.375000 0.791667
vt 0.375000 0.791667
vt 0.625000 0.833333
vt 0.625000 0.833333
vt 0.375000 0.833333
vt 0.375000 0.833333
vt 0.625000 0.875000
vt 0.625000 0.875000
vt 0.375000 0.875000
vt 0.375000 0.875000
vt 0.625000 0.916667
vt 0.625000 0.916667
vt 0.375000 0.916667
vt 0.375000 0.916667
vt 0.375000 0.312500
vt 0.394231 0.312500
vt 0.394231 0.688440
vt 0.375000 0.688440
vt 0.413462 0.312500
vt 0.413462 0.688440
vt 0.432692 0.312500
vt 0.432692 0.688440
vt 0.451923 0.312500
vt 0.451923 0.688440
vt 0.471154 0.312500
vt 0.471154 0.688440
vt 0.490385 0.312500
vt 0.490385 0.688440
vt 0.509615 0.312500
vt 0.509615 0.688440
vt 0.528846 0.312500
vt 0.528846 0.688440
vt 0.548077 0.312500
vt 0.548077 0.688440
vt 0.567308 0.312500
vt 0.567308 0.688440
vt 0.586539 0.312500
vt 0.586539 0.688440
vt 0.605769 0.312500
vt 0.605769 0.688440
vt 0.625000 0.312500
vt 0.625000 0.688440
vt 0.638353 0.916363
vt 0.588760 0.972341
vt 0.500000 0.837500
vt 0.518834 0.998861
vt 0.444593 0.989846
vt 0.383045 0.947363
vt 0.348290 0.881143
vt 0.348290 0.806357
vt 0.383045 0.740137
vt 0.444593 0.697654
vt 0.518834 0.688639
vt 0.588760 0.715159
vt 0.638353 0.771137
vt 0.656250 0.843750
vt 0.375000 0.312500
vt 0.394231 0.312500
vt 0.394231 0.688440
vt 0.375000 0.688440
vt 0.413462 0.312500
vt 0.413462 0.688440
vt 0.432692 0.312500
vt 0.432692 0.688440
vt 0.451923 0.312500
vt 0.451923 0.688440
vt 0.471154 0.312500
vt 0.471154 0.688440
vt 0.490385 0.312500
vt 0.490385 0.688440
vt 0.509615 0.312500
vt 0.509615 0.688440
vt 0.528846 0.312500
vt 0.528846 0.688440
vt 0.548077 0.312500
vt 0.548077 0.688440
vt 0.567308 0.312500
vt 0.567308 0.688440
vt 0.586539 0.312500
vt 0.586539 0.688440
vt 0.605769 0.312500
vt 0.605769 0.688440
vt 0.625000 0.312500
vt 0.625000 0.688440
vt 0.638353 0.916363
vt 0.588760 0.972341
vt 0.500000 0.837500
vt 0.518834 0.998861
vt 0.444593 0.989846
vt 0.383045 0.947363
vt 0.348290 0.881143
vt 0.348290 0.806357
vt 0.383045 0.740137
vt 0.444593 0.697654
vt 0.518834 0.688639
vt 0.588760 0.715159
vt 0.638353 0.771137
vt 0.656250 0.843750
vn -0.000068 0.000000 1.000000
vn -0.000068 0.000000 1.000000
vn -0.000068 0.000000 1.000000
vn -0.000068 0.000000 1.000000
vn -0.000281 0.915558 0.402185
vn -0.000281 0.915558 0.402185
vn -0.000543 0.932823 0.360334
vn -0.000543 0.932820 0.360342
vn 0.000015 -0.963690 -0.267025
vn 0.000015 -0.963689 -0.267027
vn 0.000019 -0.950276 -0.311410
vn 0.000019 -0.950276 -0.311410
vn 1.000000 0.000000 0.000000
vn 1.000000 0.000000 0.000000
vn 1.000000 0.000000 0.000000
vn 1.000000 0.000000 0.000000
vn -1.000000 0.000000 0.000000
vn -1.000000 0.000000 0.000000
vn -1.000000 0.000000 0.000000
vn -1.000000 0.000000 0.000000
vn -1.000000 0.000000 0.000000
vn -1.000000 0.000000 0.000000
vn -1.000000 0.000000 0.000000
vn -1.000000 0.000000 0.000000
vn -0.000001 -0.995912 0.090328
vn -0.000001 -0.995912 0.090328
vn -0.000000 -0.999439 0.033501
vn -0.000000 -0.999439 0.033502
vn 1.000000 0.000000 0.000000
vn 1.000000 0.000000 0.000000
vn 1.000000 0.000000 0.000000
vn 1.000000 0.000000 0.000000
vn -0.002795 0.997915 0.064478
vn -0.002795 0.997916 0.064465
vn -0.003079 0.999987 0.004159
vn -0.003079 0.999987 0.004159
vn -1.000000 0.000000 0.000000
vn -1.000000 0.000000 0.000000
vn 0.000001 -0.999084 -0.042785
vn 0.000001 -0.999084 -0.042784
vn 1.000000 0.000000 0.000000
vn 1.000000 0.000000 0.000000
vn -0.002219 0.989414 0.145106
vn -0.002219 0.989415 0.145098
vn -1.000000 0.000000 0.000000
vn -1.000000 0.000000 0.000000
vn 0.000004 -0.992628 -0.121203
vn 0.000004 -0.992628 -0.121201
vn 1.000000 0.000000 0.000000
vn 1.000000 0.000000 0.000000
vn -0.001646 0.975466 0.220144
vn -0.001646 0.975471 0.220121
vn -1.000000 0.000000 0.000000
vn -1.000000 0.000000 0.000000
vn 0.000009 -0.979836 -0.199804
vn 0.000009 -0.979836 -0.199803
vn 1.000000 0.000000 0.000000
vn 1.000000 0.000000 0.000000
vn -0.001084 0.955644 0.294524
vn -0.001084 0.955646 0.294516
vn 0.025953 -0.962528 -0.269937
vn 0.003900 -0.948188 -0.317685
vn 0.003254 -0.948169 -0.317750
vn 0.025866 -0.962340 -0.270616
vn -0.003858 -0.948187 -0.317689
vn -0.003209 -0.948168 -0.317753
vn -0.025923 -0.962528 -0.269940
vn -0.025833 -0.962332 -0.270649
vn -0.004879 -0.995114 0.098612
vn 0.004878 -0.995114 0.098611
vn 0.003804 -0.995107 0.098728
vn -0.003804 -0.995107 0.098729
vn 0.029170 -0.998878 0.037319
vn 0.029157 -0.998873 0.037466
vn -0.029171 -0.998877 0.037325
vn -0.029159 -0.998872 0.037465
vn 0.033449 -0.998527 -0.042727
vn 0.033449 -0.998526 -0.042746
vn -0.033449 -0.998527 -0.042727
vn -0.033449 -0.998526 -0.042753
vn 0.033333 -0.992118 -0.120789
vn 0.033336 -0.992071 -0.121179
vn -0.033324 -0.992119 -0.120787
vn -0.033328 -0.992069 -0.121199
vn 0.032722 -0.979250 -0.199997
vn 0.032717 -0.979225 -0.200122
vn -0.032708 -0.979249 -0.200004
vn -0.032702 -0.979221 -0.200143
vn -0.726775 -0.661706 -0.184235
vn -0.727600 -0.651601 -0.214512
vn -0.727600 -0.651601 -0.214512
vn -0.726760 -0.661834 -0.183837
vn 0.000058 -0.116363 -0.993207
vn 0.000058 -0.116363 -0.993207
vn 0.000058 -0.116363 -0.993207
vn 0.000058 -0.116363 -0.993207
vn 0.727618 -0.651578 -0.214520
vn 0.726791 -0.661688 -0.184240
vn 0.726775 -0.661814 -0.183849
vn 0.727618 -0.651578 -0.214520
vn -0.000000 -0.318569 0.947900
vn -0.000000 -0.318569 0.947900
vn -0.000000 -0.318569 0.947900
vn -0.000000 -0.318569 0.947900
vn -0.726713 -0.684024 0.063237
vn -0.726203 -0.687058 0.024086
vn -0.726185 -0.687100 0.023426
vn -0.726713 -0.684024 0.063237
vn 0.726200 -0.687061 0.024088
vn 0.726710 -0.684027 0.063241
vn 0.726710 -0.684027 0.063241
vn 0.726182 -0.687103 0.023426
vn -0.724757 -0.688375 -0.029444
vn -0.724757 -0.688375 -0.029451
vn 0.724754 -0.688378 -0.029446
vn 0.724754 -0.688378 -0.029455
vn -0.724936 -0.683748 -0.083405
vn -0.724935 -0.683736 -0.083510
vn 0.724938 -0.683746 -0.083409
vn 0.724938 -0.683733 -0.083519
vn -0.724979 -0.674868 -0.137689
vn -0.724981 -0.674857 -0.137735
vn 0.724989 -0.674856 -0.137696
vn 0.724990 -0.674845 -0.137745
vn 0.885454 0.000000 -0.464728
vn 0.568067 0.000000 -0.822982
vn 0.568067 0.000000 -0.822982
vn 0.885454 0.000000 -0.464728
vn 0.120541 0.000000 -0.992708
vn 0.120541 0.000000 -0.992708
vn -0.354618 0.000000 -0.935012
vn -0.354618 0.000000 -0.935012
vn -0.748513 0.000000 -0.663120
vn -0.748513 0.000000 -0.663120
vn -0.970943 0.000000 -0.239310
vn -0.970943 0.000000 -0.239310
vn -0.970944 0.000000 0.239308
vn -0.970944 0.000000 0.239308
vn -0.748518 0.000000 0.663115
vn -0.748518 0.000000 0.663115
vn -0.354608 0.000000 0.935015
vn -0.354608 0.000000 0.935015
vn 0.120552 0.000000 0.992707
vn 0.120552 0.000000 0.992707
vn 0.568060 0.000000 0.822987
vn 0.568060 0.000000 0.822987
vn 0.885454 0.000000 0.464728
vn 0.885454 0.000000 0.464728
vn 1.000000 0.000000 0.000000
vn 1.000000 0.000000 0.000000
vn 0.000000 1.000000 0.000000
vn 0.000000 1.000000 0.000000
vn 0.000000 1.000000 0.000001
vn 0.000000 1.000000 0.000000
vn 0.000000 1.000000 0.000000
vn 0.000000 1.000000 0.000000
vn 0.000000 1.000000 0.000000
vn 0.000000 1.000000 0.000000
vn 0.000000 1.000000 0.000000
vn 0.000000 1.000000 0.000000
vn 0.000000 1.000000 0.000000
vn 0.000000 1.000000 0.000006
vn 0.000000 1.000000 0.000006
vn 0.000000 1.000000 0.000000
vn 0.885458 0.000000 -0.464720
vn 0.568072 0.000000 -0.822979
vn 0.568072 0.000000 -0.822979
vn 0.885458 0.000000 -0.464720
vn 0.120542 0.000000 -0.992708
vn 0.120542 0.000000 -0.992708
vn -0.354618 0.000000 -0.935012
vn -0.354618 0.000000 -0.935012
vn -0.748508 0.000000 -0.663126
vn -0.748508 0.000000 -0.663126
vn -0.970941 0.000000 -0.239320
vn -0.970941 0.000000 -0.239320
vn -0.970941 0.000000 0.239317
vn -0.970941 0.000000 0.239317
vn -0.748513 0.000000 0.663121
vn -0.748513 0.000000 0.663121
vn -0.354608 0.000000 0.935015
vn -0.354608 0.000000 0.935015
vn 0.120553 0.000000 0.992707
vn 0.120553 0.000000 0.992707
vn 0.568065 0.000000 0.822984
vn 0.568065 0.000000 0.822984
vn 0.885458 0.000000 0.464720
vn 0.885458 0.000000 0.464720
vn 1.000000 0.000000 0.000000
vn 1.000000 0.000000 0.000000
vn 0.000000 1.000000 0.000000
vn 0.000000 1.000000 0.000006
vn 0.000000 1.000000 -0.000001
vn 0.000000 1.000000 -0.000006
vn 0.000000 1.000000 0.000000
vn 0.000000 1.000000 0.000000
vn 0.000000 1.000000 0.000000
vn 0.000000 1.000000 -0.000013
vn 0.000000 1.000000 -0.000013
vn 0.000000 1.000000 0.000000
vn 0.000000 1.000000 0.000006
vn 0.000000 1.000000 0.000000
vn 0.000000 1.000000 0.000006
vn 0.000000 1.000000 0.000000
s off
g nj_awning_rectangular_01
usemtl initialShadingGroup
f 1/1/1 2/2/2 4/3/3 3/4/4
s 1
f 3/4/5 4/3/6 28/5/7 25/6/8
s 2
f 43/11/9 44/12/10 45/13/11 46/14/12
s 3
f 2/2/13 27/15/14 28/16/15 4/3/16
s 4
f 26/17/17 1/1/18 3/4/19 25/18/20
f 7/19/21 10/20/22 9/21/23 5/22/24
s 2
f 47/23/25 48/24/26 49/25/27 50/26/28
s 3
f 12/27/29 11/28/30 8/29/31 6/30/32
s 1
f 9/31/33 12/32/34 6/8/35 5/7/36
s 4
f 10/20/22 14/33/37 13/34/38 9/21/23
s 2
f 50/26/28 49/25/27 51/35/39 52/36/40
s 3
f 16/37/41 15/38/42 11/28/30 12/27/29
s 1
f 13/39/43 16/40/44 12/32/34 9/31/33
s 4
f 14/33/37 18/41/45 17/42/46 13/34/38
s 2
f 52/36/40 51/35/39 53/43/47 54/44/48
s 3
f 20/45/49 19/46/50 15/38/42 16/37/41
s 1
f 17/47/51 20/48/52 16/40/44 13/39/43
s 4
f 18/41/45 22/49/53 21/50/54 17/42/46
s 2
f 54/44/48 53/43/47 55/51/55 56/52/56
s 3
f 24/53/57 23/54/58 19/46/50 20/45/49
s 1
f 21/55/59 24/56/60 20/48/52 17/47/51
s 4
f 22/49/53 26/17/17 25/18/20 21/50/54
s 2
f 56/52/56 55/51/55 44/12/10 43/11/9
s 3
f 28/16/15 27/15/14 23/54/58 24/53/57
s 1
f 25/6/8 28/5/7 24/56/60 21/55/59
s 9
f 27/57/61 2/58/62 31/59/63 30/60/64
f 2/58/62 1/61/65 32/62/66 31/59/63
f 1/61/65 26/63/67 29/64/68 32/62/66
f 7/10/69 8/9/70 34/65/71 33/66/72
f 8/9/70 11/67/73 35/68/74 34/65/71
f 10/69/75 7/10/69 33/66/72 36/70/76
f 11/67/73 15/71/77 37/72/78 35/68/74
f 14/73/79 10/69/75 36/70/76 38/74/80
f 15/71/77 19/75/81 39/76/82 37/72/78
f 18/77/83 14/73/79 38/74/80 40/78/84
f 19/75/81 23/79/85 41/80/86 39/76/82
f 22/81/87 18/77/83 40/78/84 42/82/88
f 23/79/85 27/57/61 30/60/64 41/80/86
f 26/63/67 22/81/87 42/82/88 29/64/68
s 11
f 30/60/89 31/59/90 45/13/91 44/12/92
s off
f 31/59/93 32/62/94 46/14/95 45/13/96
s 12
f 32/62/97 29/64/98 43/11/99 46/14/100
s off
f 33/66/101 34/65/102 48/24/103 47/23/104
s 11
f 34/65/105 35/68/106 49/25/107 48/24/108
s 12
f 36/70/109 33/66/110 47/23/111 50/26/112
s 11
f 35/68/106 37/72/113 51/35/114 49/25/107
s 12
f 38/74/115 36/70/109 50/26/112 52/36/116
s 11
f 37/72/113 39/76/117 53/43/118 51/35/114
s 12
f 40/78/119 38/74/115 52/36/116 54/44/120
s 11
f 39/76/117 41/80/121 55/51/122 53/43/118
s 12
f 42/82/123 40/78/119 54/44/120 56/52/124
s 11
f 41/80/121 30/60/89 44/12/92 55/51/122
s 12
f 29/64/98 42/82/123 56/52/124 43/11/99
s 15
f 57/83/125 58/84/126 71/85/127 70/86/128
f 58/84/126 59/87/129 72/88/130 71/85/127
f 59/87/129 60/89/131 73/90/132 72/88/130
f 60/89/131 61/91/133 74/92/134 73/90/132
f 61/91/133 62/93/135 75/94/136 74/92/134
f 62/93/135 63/95/137 76/96/138 75/94/136
f 63/95/137 64/97/139 77/98/140 76/96/138
f 64/97/139 65/99/141 78/100/142 77/98/140
f 65/99/141 66/101/143 79/102/144 78/100/142
f 66/101/143 67/103/145 80/104/146 79/102/144
f 67/103/145 68/105/147 81/106/148 80/104/146
f 68/105/147 69/107/149 82/108/150 81/106/148
f 69/107/149 57/109/125 70/110/128 82/108/150
s 16
f 70/111/151 71/112/152 83/113/153
f 71/112/152 72/114/154 83/113/153
f 72/114/154 73/115/155 83/113/153
f 73/115/155 74/116/156 83/113/153
f 74/116/156 75/117/157 83/113/153
f 75/117/157 76/118/158 83/113/153
f 76/118/158 77/119/159 83/113/153
f 77/119/159 78/120/160 83/113/153
f 78/120/160 79/121/161 83/113/153
f 79/121/161 80/122/162 83/113/153
f 80/122/162 81/123/163 83/113/153
f 81/123/163 82/124/164 83/113/153
f 82/124/164 70/111/151 83/113/153
s 17
f 84/125/165 85/126/166 98/127/167 97/128/168
f 85/126/166 86/129/169 99/130/170 98/127/167
f 86/129/169 87/131/171 100/132/172 99/130/170
f 87/131/171 88/133/173 101/134/174 100/132/172
f 88/133/173 89/135/175 102/136/176 101/134/174
f 89/135/175 90/137/177 103/138/178 102/136/176
f 90/137/177 91/139/179 104/140/180 103/138/178
f 91/139/179 92/141/181 105/142/182 104/140/180
f 92/141/181 93/143/183 106/144/184 105/142/182
f 93/143/183 94/145/185 107/146/186 106/144/184
f 94/145/185 95/147/187 108/148/188 107/146/186
f 95/147/187 96/149/189 109/150/190 108/148/188
f 96/149/189 84/151/165 97/152/168 109/150/190
s 18
f 97/153/191 98/154/192 110/155/193
f 98/154/192 99/156/194 110/155/193
f 99/156/194 100/157/195 110/155/193
f 100/157/195 101/158/196 110/155/193
f 101/158/196 102/159/197 110/155/193
f 102/159/197 103/160/198 110/155/193
f 103/160/198 104/161/199 110/155/193
f 104/161/199 105/162/200 110/155/193
f 105/162/200 106/163/201 110/155/193
f 106/163/201 107/164/202 110/155/193
f 107/164/202 108/165/203 110/155/193
f 108/165/203 109/166/204 110/155/193
f 109/166/204 97/153/191 110/155/193
