# This file uses centimeters as units for non-parametric coordinates.

mtllib nj_house_double_wide_gable_01.mtl
g default
v -0.000061 0.000000 0.000000
v 255.999939 0.000000 0.000000
v -0.000061 0.000000 -16.000000
v 255.999939 0.000000 -16.000000
v 127.999939 128.000000 0.000000
v 127.999939 128.000000 -16.000000
v 127.999939 -0.000015 0.000000
vt 0.545932 0.858048
vt 0.015996 0.381830
vt 0.057503 0.348985
vt 0.503180 0.827656
vt 0.991470 0.383617
vt 0.950097 0.350588
vt 0.503747 0.365815
vt 0.460325 0.857870
vn 0.000000 1.000000 0.000000
vn -0.707107 0.707107 0.000000
vn -0.707107 0.707107 0.000000
vn 0.000000 1.000000 0.000000
vn 0.707107 0.707107 0.000000
vn 0.707107 0.707107 0.000000
vn 0.000000 0.000000 1.000000
vn 0.000000 0.000000 1.000000
vn 0.000000 0.000000 1.000000
vn 0.000000 0.000000 1.000000
s 1
g nj_house_double_wide_gable_01
usemtl initialShadingGroup
f 6/8/1 3/2/2 1/3/3 5/4/4
f 4/5/5 6/1/1 5/4/4 2/6/6
s 2
f 7/7/7 2/6/8 5/4/9
f 1/3/10 7/7/7 5/4/9
