# This file uses centimeters as units for non-parametric coordinates.

mtllib nj_house_double_wall_span_01.mtl
g default
v 0.000000 0.000000 0.000000
v 256.000000 0.000000 0.000000
v 0.000000 256.000000 0.000000
v 256.000000 256.000000 0.000000
v 0.000000 256.000000 -16.000000
v 256.000000 256.000000 -16.000000
v 0.000000 0.000000 -16.000000
v 256.000000 0.000000 -16.000000
vt 0.082002 0.037149
vt 0.918083 0.037103
vt 0.918136 0.873862
vt 0.081924 0.873753
vt 0.970431 0.874051
vt 0.081925 0.926118
vt 0.970372 0.037145
vt 0.029723 0.037200
vt 0.918117 0.926240
vt 0.029636 0.873932
vn 0.000000 0.000000 1.000000
vn 0.000000 0.000000 1.000000
vn 0.000000 0.000000 1.000000
vn 0.000000 0.000000 1.000000
vn 0.000000 1.000000 0.000000
vn 0.000000 1.000000 0.000000
vn 0.000000 1.000000 0.000000
vn 0.000000 1.000000 0.000000
vn 1.000000 0.000000 0.000000
vn 1.000000 0.000000 0.000000
vn 1.000000 0.000000 0.000000
vn 1.000000 0.000000 0.000000
vn -1.000000 0.000000 0.000000
vn -1.000000 0.000000 0.000000
vn -1.000000 0.000000 0.000000
vn -1.000000 0.000000 0.000000
s off
g nj_house_double_wall_span_01
usemtl initialShadingGroup
f 1/1/1 2/2/2 4/3/3 3/4/4
f 3/4/5 4/3/6 6/9/7 5/6/8
f 2/2/9 8/7/10 6/5/11 4/3/12
f 7/8/13 1/1/14 3/4/15 5/10/16
