# This file uses centimeters as units for non-parametric coordinates.

mtllib nj_house_single_wall_Ltrun_out_01.mtl
g default
v 0.000000 0.000000 0.000000
v 128.000000 0.000000 0.000000
v 0.000000 128.000000 0.000000
v 128.000000 128.000000 0.000000
v 0.000000 128.000000 -16.000000
v 128.000000 128.000000 -16.000000
v 0.000000 0.000000 -16.000000
v 128.000000 0.000000 -16.000000
v 112.000000 128.000000 0.000000
v 112.000000 128.000000 -16.000000
v 112.000000 0.000000 0.000000
v 112.000000 128.000000 -128.000000
v 112.000000 0.000000 -128.000000
v 128.000000 128.000000 -128.000000
v 128.000000 0.000000 -128.000000
vt 0.375000 0.000000
vt 0.625000 0.000000
vt 0.375000 0.250000
vt 0.625000 0.250000
vt 0.375000 0.500000
vt 0.625000 0.500000
vt 0.625000 0.750000
vt 0.875000 0.000000
vt 0.875000 0.250000
vt 0.125000 0.000000
vt 0.125000 0.250000
vt 0.594145 0.250000
vt 0.594145 0.500000
vt 0.594145 0.000000
vt 0.594145 0.750000
vt 0.594145 0.500000
vt 0.625000 0.500000
vt 0.625000 0.750000
vn 0.000000 0.000000 1.000000
vn 0.000000 0.000000 1.000000
vn 0.000000 0.000000 1.000000
vn 0.000000 0.000000 1.000000
vn 0.000000 1.000000 0.000000
vn 0.000000 1.000000 0.000000
vn 0.000000 1.000000 0.000000
vn 0.000000 1.000000 0.000000
vn 1.000000 0.000000 0.000000
vn 1.000000 0.000000 0.000000
vn 1.000000 0.000000 0.000000
vn 1.000000 0.000000 0.000000
vn -1.000000 0.000000 0.000000
vn -1.000000 0.000000 0.000000
vn -1.000000 0.000000 0.000000
vn -1.000000 0.000000 0.000000
vn 0.000000 1.000000 0.000000
vn 0.000000 1.000000 0.000000
vn 0.000000 0.000000 -1.000000
vn 0.000000 0.000000 -1.000000
vn 0.000000 0.000000 -1.000000
vn 0.000000 0.000000 -1.000000
vn 0.000000 0.000000 1.000000
vn 0.000000 0.000000 1.000000
vn 0.000000 1.000000 0.000000
vn 0.000000 1.000000 0.000000
vn 0.000000 1.000000 0.000000
vn 0.000000 1.000000 0.000000
vn 1.000000 0.000000 0.000000
vn 1.000000 0.000000 0.000000
vn 1.000000 0.000000 0.000000
vn 1.000000 0.000000 0.000000
s 1
g nj_house_single_wall_Ltrun_out_01
usemtl initialShadingGroup
f 1/1/1 11/14/2 9/12/3 3/3/4
s 2
f 3/3/5 9/12/6 10/13/7 5/5/8
s off
f 2/2/9 8/8/10 6/9/11 4/4/12
f 7/10/13 1/1/14 3/3/15 5/11/16
s 2
f 9/12/6 4/4/17 6/6/18 10/13/7
s off
f 13/15/19 12/16/20 14/17/21 15/18/22
s 1
f 9/12/3 11/14/2 2/2/23 4/4/24
s off
f 10/13/25 6/6/26 14/17/27 12/16/28
f 6/6/29 8/7/30 15/18/31 14/17/32
