# This file uses centimeters as units for non-parametric coordinates.

mtllib nj_house_single_wall_span_01.mtl
g default
v 0.000000 0.000000 -0.000008
v 128.000000 0.000000 -0.000008
v 0.000000 128.000000 -0.000008
v 128.000000 128.000000 -0.000008
v 0.000000 128.000000 -16.000008
v 128.000000 128.000000 -16.000008
v 0.000000 0.000000 -16.000008
v 128.000000 0.000000 -16.000008
vt 0.271128 0.038977
vt 0.724363 0.040601
vt 0.722902 0.488251
vt 0.273200 0.490488
vt 0.779215 0.496709
vt 0.273266 0.548773
vt 0.781343 0.038031
vt 0.213594 0.035881
vt 0.723433 0.546225
vt 0.216333 0.499587
vn 0.000000 0.000000 1.000000
vn 0.000000 0.000000 1.000000
vn 0.000000 0.000000 1.000000
vn 0.000000 0.000000 1.000000
vn 0.000000 1.000000 0.000000
vn 0.000000 1.000000 0.000000
vn 0.000000 1.000000 0.000000
vn 0.000000 1.000000 0.000000
vn 1.000000 0.000000 0.000000
vn 1.000000 0.000000 0.000000
vn 1.000000 0.000000 0.000000
vn 1.000000 0.000000 0.000000
vn -1.000000 0.000000 0.000000
vn -1.000000 0.000000 0.000000
vn -1.000000 0.000000 0.000000
vn -1.000000 0.000000 0.000000
s off
g nj_house_single_wall_span_01
usemtl initialShadingGroup
f 1/1/1 2/2/2 4/3/3 3/4/4
f 3/4/5 4/3/6 6/9/7 5/6/8
f 2/2/9 8/7/10 6/5/11 4/3/12
f 7/8/13 1/1/14 3/4/15 5/10/16
