# This file uses centimeters as units for non-parametric coordinates.

mtllib nj_house_doubhorz_wall_span_01.mtl
g default
v -0.000061 0.000000 0.000000
v 255.999939 0.000000 0.000000
v -0.000061 128.000000 0.000000
v 255.999939 128.000000 0.000000
v -0.000061 128.000000 -16.000000
v 255.999939 128.000000 -16.000000
v -0.000061 0.000000 -16.000000
v 255.999939 0.000000 -16.000000
vt 0.068013 0.288077
vt 0.931719 0.290084
vt 0.930509 0.721111
vt 0.068046 0.720949
vt 0.984383 0.723056
vt 0.068039 0.775100
vt 0.985788 0.290398
vt 0.013692 0.287899
vt 0.930494 0.775136
vt 0.013925 0.722944
vn 0.000000 0.000000 1.000000
vn 0.000000 0.000000 1.000000
vn 0.000000 0.000000 1.000000
vn 0.000000 0.000000 1.000000
vn 0.000000 1.000000 0.000000
vn 0.000000 1.000000 0.000000
vn 0.000000 1.000000 0.000000
vn 0.000000 1.000000 0.000000
vn 1.000000 0.000000 0.000000
vn 1.000000 0.000000 0.000000
vn 1.000000 0.000000 0.000000
vn 1.000000 0.000000 0.000000
vn -1.000000 0.000000 0.000000
vn -1.000000 0.000000 0.000000
vn -1.000000 0.000000 0.000000
vn -1.000000 0.000000 0.000000
s off
g nj_house_doubhorz_wall_span_01
usemtl initialShadingGroup
f 1/1/1 2/2/2 4/3/3 3/4/4
f 3/4/5 4/3/6 6/9/7 5/6/8
f 2/2/9 8/7/10 6/5/11 4/3/12
f 7/8/13 1/1/14 3/4/15 5/10/16
