# This file uses centimeters as units for non-parametric coordinates.

mtllib nj_housing_doubvert_wall_Lturn_in_01.mtl
g default
v 0.000000 256.000000 0.000000
v 0.000000 256.000000 -128.000000
v 0.000000 0.000000 0.000000
v 16.000000 0.000000 0.000000
v 16.000000 256.000000 0.000000
v 16.000000 256.000000 -128.000000
v 16.000000 0.000000 -112.000000
v 16.000000 256.000000 -112.000000
v 0.000000 256.000000 -112.000000
v 128.000000 0.000000 -112.000000
v 128.000000 0.000000 -128.000000
v 128.000000 256.000000 -128.000000
v 128.000000 256.000000 -112.000000
vt 0.375000 0.000000
vt 0.375000 0.250000
vt 0.375000 0.500000
vt 0.375000 0.750000
vt 0.625000 0.750000
vt 0.375000 1.000000
vt 0.625000 1.000000
vt 0.125000 0.000000
vt 0.125000 0.250000
vt 0.593774 0.500000
vt 0.593774 0.750000
vt 0.593774 1.000000
vt 0.593774 0.500000
vt 0.625000 0.500000
vt 0.625000 0.750000
vt 0.593774 0.750000
vn 1.000000 0.000000 0.000000
vn 1.000000 0.000000 0.000000
vn 1.000000 0.000000 0.000000
vn 1.000000 0.000000 0.000000
vn 0.000000 1.000000 0.000000
vn 0.000000 1.000000 0.000000
vn 0.000000 1.000000 0.000000
vn 0.000000 1.000000 0.000000
vn 0.000000 0.000000 1.000000
vn 0.000000 0.000000 1.000000
vn 0.000000 0.000000 1.000000
vn 0.000000 0.000000 1.000000
vn 1.000000 0.000000 0.000000
vn 1.000000 0.000000 0.000000
vn 1.000000 0.000000 0.000000
vn 1.000000 0.000000 0.000000
vn 0.000000 1.000000 0.000000
vn 0.000000 1.000000 0.000000
vn 0.000000 1.000000 0.000000
vn 0.000000 1.000000 0.000000
vn 0.000000 1.000000 0.000000
vn 0.000000 1.000000 0.000000
vn 0.000000 0.000000 1.000000
vn 0.000000 0.000000 1.000000
vn 0.000000 0.000000 1.000000
vn 0.000000 0.000000 1.000000
s off
g nj_housing_doubvert_wall_Lturn_in_01
usemtl initialShadingGroup
f 4/3/1 7/10/2 8/11/3 5/4/4
s 1
f 5/4/5 8/11/6 9/12/7 1/6/8
s off
f 5/8/9 1/1/10 3/2/11 4/9/12
f 10/13/13 11/14/14 12/15/15 13/16/16
s 1
f 9/12/7 8/11/6 6/5/17 2/7/18
s off
f 6/5/19 8/11/20 13/16/21 12/15/22
f 8/11/23 7/10/24 10/13/25 13/16/26
