# This file uses centimeters as units for non-parametric coordinates.

mtllib nj_house_single_roof_span_01.mtl
g default
v 0.000000 0.000000 0.000000
v 128.000000 0.000000 0.000000
v 0.000000 0.000000 -128.000000
v 128.000000 0.000000 -128.000000
v 64.000000 128.000000 -128.000000
v 64.000000 128.000000 0.000000
v -16.000000 0.000000 -128.000000
v 64.000000 136.800598 -128.000000
v -16.000000 0.000000 0.000000
v 64.000000 136.800598 0.000000
v 144.000000 0.000000 0.000000
v 144.000000 0.000000 -128.000000
vt 0.375000 0.250000
vt 0.625000 0.250000
vt 0.375000 0.500000
vt 0.625000 0.500000
vt 0.499687 0.500000
vt 0.499687 0.250000
vt 0.499687 0.500000
vt 0.375000 0.500000
vt 0.375000 0.250000
vt 0.499687 0.250000
vt 0.625000 0.250000
vt 0.625000 0.500000
vt 0.000000 0.000000
vt 1.000000 0.000000
vt 1.000000 0.111803
vt 0.000000 0.111803
vt 0.000000 0.000000
vt 1.000000 0.000000
vt 1.000000 0.111803
vt 0.000000 0.111803
vn -0.863230 0.504811 0.000000
vn -0.863230 0.504811 0.000000
vn -0.863230 0.504811 0.000000
vn -0.863230 0.504811 0.000000
vn 0.863230 0.504811 0.000000
vn 0.863230 0.504811 0.000000
vn 0.863230 0.504811 0.000000
vn 0.863230 0.504811 0.000000
vn 0.000000 0.000000 -1.000000
vn 0.000000 0.000000 -1.000000
vn 0.000000 0.000000 -1.000000
vn 0.000000 0.000000 -1.000000
vn 0.000000 -1.000000 0.000000
vn 0.000000 -1.000000 0.000000
vn 0.000000 -1.000000 0.000000
vn 0.000000 -1.000000 0.000000
vn 0.000000 0.000000 1.000000
vn 0.000000 0.000000 1.000000
vn 0.000000 0.000000 1.000000
vn 0.000000 0.000000 1.000000
vn 0.000000 -1.000000 0.000000
vn 0.000000 -1.000000 0.000000
vn 0.000000 -1.000000 0.000000
vn 0.000000 -1.000000 0.000000
vn 0.000000 0.000000 -1.000000
vn 0.000000 0.000000 -1.000000
vn 0.000000 0.000000 -1.000000
vn 0.000000 0.000000 -1.000000
vn 0.000000 0.000000 1.000000
vn 0.000000 0.000000 1.000000
vn 0.000000 0.000000 1.000000
vn 0.000000 0.000000 1.000000
vn 0.894427 -0.447214 0.000000
vn 0.894427 -0.447214 0.000000
vn 0.894427 -0.447214 0.000000
vn 0.894427 -0.447214 0.000000
vn -0.894427 -0.447214 0.000000
vn -0.894427 -0.447214 0.000000
vn -0.894427 -0.447214 0.000000
vn -0.894427 -0.447214 0.000000
s off
g nj_house_single_roof_span_01
usemtl initialShadingGroup
f 8/7/1 7/8/2 9/9/3 10/10/4
f 11/11/5 12/12/6 8/7/7 10/10/8
f 5/5/9 3/3/10 7/8/11 8/7/12
f 3/3/13 1/1/14 9/9/15 7/8/16
f 1/1/17 6/6/18 10/10/19 9/9/20
f 2/2/21 4/4/22 12/12/23 11/11/24
f 4/4/25 5/5/26 8/7/27 12/12/28
f 6/6/29 2/2/30 11/11/31 10/10/32
f 6/13/33 1/14/34 3/15/35 5/16/36
f 5/17/37 4/18/38 2/19/39 6/20/40
