# This file uses centimeters as units for non-parametric coordinates.

mtllib nj_house_double_wide_roof_span_01.mtl
g default
v 0.000000 0.000000 0.000000
v 256.000000 0.000000 0.000000
v 0.000000 0.000000 -128.000000
v 256.000000 0.000000 -128.000000
v 128.000000 128.000000 0.000000
v 128.000000 128.000000 -128.000000
v -24.000000 0.000000 -128.000000
v 128.000000 144.000000 -128.000000
v -24.000000 0.000000 0.000000
v 128.000000 144.000000 0.000000
v 280.000000 0.000000 -128.000000
v 280.000000 0.000000 0.000000
vt 0.375000 0.250000
vt 0.625000 0.250000
vt 0.375000 0.500000
vt 0.625000 0.500000
vt 0.499701 0.250000
vt 0.499701 0.500000
vt 0.499701 0.500000
vt 0.375000 0.500000
vt 0.375000 0.250000
vt 0.499701 0.250000
vt 0.625000 0.500000
vt 0.625000 0.250000
vt 0.000000 0.000000
vt 1.000000 0.000000
vt 1.000000 0.088388
vt 0.000000 0.088388
vt 0.000000 0.000000
vt 1.000000 0.000000
vt 1.000000 0.088388
vt 0.000000 0.088388
vn -0.687745 0.725953 0.000000
vn -0.687745 0.725953 0.000000
vn -0.687745 0.725953 0.000000
vn -0.687745 0.725953 0.000000
vn 0.687745 0.725953 0.000000
vn 0.687745 0.725953 0.000000
vn 0.687745 0.725953 0.000000
vn 0.687745 0.725953 0.000000
vn 0.000000 0.000000 -1.000000
vn 0.000000 0.000000 -1.000000
vn 0.000000 0.000000 -1.000000
vn 0.000000 0.000000 -1.000000
vn 0.000000 -1.000000 0.000000
vn 0.000000 -1.000000 0.000000
vn 0.000000 -1.000000 0.000000
vn 0.000000 -1.000000 0.000000
vn 0.000000 0.000000 1.000000
vn 0.000000 0.000000 1.000000
vn 0.000000 0.000000 1.000000
vn 0.000000 0.000000 1.000000
vn 0.000000 0.000000 -1.000000
vn 0.000000 0.000000 -1.000000
vn 0.000000 0.000000 -1.000000
vn 0.000000 0.000000 -1.000000
vn 0.000000 0.000000 1.000000
vn 0.000000 0.000000 1.000000
vn 0.000000 0.000000 1.000000
vn 0.000000 0.000000 1.000000
vn 0.000000 -1.000000 0.000000
vn 0.000000 -1.000000 0.000000
vn 0.000000 -1.000000 0.000000
vn 0.000000 -1.000000 0.000000
vn 0.707107 -0.707107 0.000000
vn 0.707107 -0.707107 0.000000
vn 0.707107 -0.707107 0.000000
vn 0.707107 -0.707107 0.000000
vn -0.707107 -0.707107 0.000000
vn -0.707107 -0.707107 0.000000
vn -0.707107 -0.707107 0.000000
vn -0.707107 -0.707107 0.000000
s off
g nj_house_double_wide_roof_span_01
usemtl initialShadingGroup
f 8/7/1 7/8/2 9/9/3 10/10/4
f 11/11/5 8/7/6 10/10/7 12/12/8
f 6/6/9 3/3/10 7/8/11 8/7/12
f 3/3/13 1/1/14 9/9/15 7/8/16
f 1/1/17 5/5/18 10/10/19 9/9/20
f 4/4/21 6/6/22 8/7/23 11/11/24
f 5/5/25 2/2/26 12/12/27 10/10/28
f 2/2/29 4/4/30 11/11/31 12/12/32
f 5/13/33 1/14/34 3/15/35 6/16/36
f 2/17/37 5/18/38 6/19/39 4/20/40
