# This file uses centimeters as units for non-parametric coordinates.

mtllib nj_pond_rectangular_01.mtl
g default
v 0.000000 0.000000 -0.000030
v 159.276962 0.000000 -0.000030
v 0.000000 19.738234 -0.000030
v 159.276962 19.738234 -0.000030
v 0.000000 19.738234 -255.467682
v 159.276962 19.738234 -255.467682
v 0.000000 0.000000 -255.467682
v 159.276962 0.000000 -255.467682
v 6.766654 19.738234 -8.485188
v 152.510269 19.738234 -8.485188
v 152.510269 19.738234 -246.982529
v 6.766654 19.738234 -246.982529
v 6.766654 3.695835 -8.485188
v 152.510269 3.695835 -8.485188
v 152.510269 3.695835 -246.982529
v 6.766654 3.695835 -246.982529
vt 0.375000 0.000000
vt 0.625000 0.000000
vt 0.375000 0.250000
vt 0.625000 0.250000
vt 0.375000 0.500000
vt 0.625000 0.500000
vt 0.375000 0.750000
vt 0.625000 0.750000
vt 0.875000 0.000000
vt 0.875000 0.250000
vt 0.125000 0.000000
vt 0.125000 0.250000
vt 0.375000 0.250000
vt 0.625000 0.250000
vt 0.625000 0.500000
vt 0.375000 0.500000
vt 0.375000 0.250000
vt 0.625000 0.250000
vt 0.625000 0.500000
vt 0.375000 0.500000
vn 0.000000 0.000000 1.000000
vn 0.000000 0.000000 1.000000
vn 0.000000 0.000000 1.000000
vn 0.000000 0.000000 1.000000
vn 0.000000 1.000000 0.000000
vn 0.000000 1.000000 0.000000
vn 0.000000 1.000000 0.000000
vn 0.000000 1.000000 0.000000
vn 0.000000 0.000000 -1.000000
vn 0.000000 0.000000 -1.000000
vn 0.000000 0.000000 -1.000000
vn 0.000000 0.000000 -1.000000
vn 1.000000 0.000000 0.000000
vn 1.000000 0.000000 0.000000
vn 1.000000 0.000000 0.000000
vn 1.000000 0.000000 0.000000
vn -1.000000 0.000000 0.000000
vn -1.000000 0.000000 0.000000
vn -1.000000 0.000000 0.000000
vn -1.000000 0.000000 0.000000
vn 0.000000 1.000000 0.000000
vn 0.000000 1.000000 0.000000
vn 0.000000 1.000000 0.000000
vn 0.000000 1.000000 0.000000
vn 0.000000 1.000000 0.000000
vn 0.000000 1.000000 0.000000
vn 0.000000 1.000000 0.000000
vn 0.000000 1.000000 0.000000
vn 0.000000 1.000000 -0.000000
vn 0.000000 1.000000 -0.000000
vn 0.000000 1.000000 -0.000000
vn 0.000000 1.000000 -0.000000
vn 0.000000 1.000000 0.000000
vn 0.000000 1.000000 0.000000
vn 0.000000 1.000000 0.000000
vn 0.000000 1.000000 0.000000
vn 0.000000 0.000000 -1.000000
vn 0.000000 0.000000 -1.000000
vn 0.000000 0.000000 -1.000000
vn 0.000000 0.000000 -1.000000
vn -1.000000 0.000000 0.000000
vn -1.000000 0.000000 0.000000
vn -1.000000 0.000000 0.000000
vn -1.000000 0.000000 0.000000
vn 0.000000 0.000000 1.000000
vn 0.000000 0.000000 1.000000
vn 0.000000 0.000000 1.000000
vn 0.000000 0.000000 1.000000
vn 1.000000 0.000000 0.000000
vn 1.000000 0.000000 0.000000
vn 1.000000 0.000000 0.000000
vn 1.000000 0.000000 0.000000
s off
g nj_pond_rectangular_01
usemtl lambert10SG
f 1/1/1 2/2/2 4/4/3 3/3/4
f 13/17/5 14/18/6 15/19/7 16/20/8
f 5/5/9 6/6/10 8/8/11 7/7/12
f 2/2/13 8/9/14 6/10/15 4/4/16
f 7/11/17 1/1/18 3/3/19 5/12/20
f 3/3/21 4/4/22 10/14/23 9/13/24
f 4/4/25 6/6/26 11/15/27 10/14/28
f 6/6/29 5/5/30 12/16/31 11/15/32
f 5/5/33 3/3/34 9/13/35 12/16/36
f 9/13/37 10/14/38 14/18/39 13/17/40
f 10/14/41 11/15/42 15/19/43 14/18/44
f 11/15/45 12/16/46 16/20/47 15/19/48
f 12/16/49 9/13/50 13/17/51 16/20/52
