# This file uses centimeters as units for non-parametric coordinates.

mtllib nj_pond_circular_01.mtl
g default
v 127.484497 0.000000 -41.422218
v 108.444794 0.000000 -78.789757
v 78.789757 0.000000 -108.444786
v 41.422215 0.000000 -127.484482
v 0.000000 0.000000 -134.045090
v -41.422215 0.000000 -127.484474
v -78.789742 0.000000 -108.444763
v -108.444756 0.000000 -78.789726
v -127.484451 0.000000 -41.422199
v -134.045059 0.000000 0.000000
v -127.484451 0.000000 41.422199
v -108.444748 0.000000 78.789719
v -78.789719 0.000000 108.444740
v -41.422199 0.000000 127.484436
v -0.000004 0.000000 134.045044
v 41.422188 0.000000 127.484428
v 78.789703 0.000000 108.444733
v 108.444725 0.000000 78.789711
v 127.484421 0.000000 41.422192
v 134.045029 0.000000 0.000000
v 127.484497 21.832748 -41.422218
v 108.444794 21.832748 -78.789757
v 78.789757 21.832748 -108.444786
v 41.422215 21.832748 -127.484482
v 0.000000 21.832748 -134.045090
v -41.422215 21.832748 -127.484474
v -78.789742 21.832748 -108.444763
v -108.444756 21.832748 -78.789726
v -127.484451 21.832748 -41.422199
v -134.045059 21.832748 0.000000
v -127.484451 21.832748 41.422199
v -108.444748 21.832748 78.789719
v -78.789719 21.832748 108.444740
v -41.422199 21.832748 127.484436
v -0.000004 21.832748 134.045044
v 41.422188 21.832748 127.484428
v 78.789703 21.832748 108.444733
v 108.444725 21.832748 78.789711
v 127.484421 21.832748 41.422192
v 134.045029 21.832748 0.000000
v 120.029083 21.832748 -38.999805
v 102.102829 21.832748 -74.182053
v 74.182045 21.832748 -102.102829
v 38.999802 21.832748 -120.029068
v -0.000001 21.832748 -126.206017
v -38.999802 21.832748 -120.029060
v -74.182037 21.832748 -102.102806
v -102.102798 21.832748 -74.182030
v -120.029037 21.832748 -38.999794
v -126.205986 21.832748 -0.000001
v -120.029037 21.832748 38.999790
v -102.102791 21.832748 74.182014
v -74.182014 21.832748 102.102783
v -38.999794 21.832748 120.029022
v -0.000005 21.832748 126.205963
v 38.999779 21.832748 120.029015
v 74.181999 21.832748 102.102776
v 102.102768 21.832748 74.182007
v 120.029007 21.832748 38.999783
v 126.205948 21.832748 -0.000001
v 120.029083 7.227075 -38.999805
v 102.102829 7.227075 -74.182053
v -0.000001 7.227075 -0.000001
v 74.182045 7.227075 -102.102829
v 38.999802 7.227075 -120.029068
v -0.000001 7.227075 -126.206017
v -38.999802 7.227075 -120.029060
v -74.182037 7.227075 -102.102806
v -102.102798 7.227075 -74.182030
v -120.029037 7.227075 -38.999794
v -126.205986 7.227075 -0.000001
v -120.029037 7.227075 38.999790
v -102.102791 7.227075 74.182014
v -74.182014 7.227075 102.102783
v -38.999794 7.227075 120.029022
v -0.000005 7.227075 126.205963
v 38.999779 7.227075 120.029015
v 74.181999 7.227075 102.102776
v 102.102768 7.227075 74.182007
v 120.029007 7.227075 38.999783
v 126.205948 7.227075 -0.000001
vt 0.375000 0.312500
vt 0.387500 0.312500
vt 0.400000 0.312500
vt 0.412500 0.312500
vt 0.425000 0.312500
vt 0.437500 0.312500
vt 0.450000 0.312500
vt 0.462500 0.312500
vt 0.475000 0.312500
vt 0.487500 0.312500
vt 0.500000 0.312500
vt 0.512500 0.312500
vt 0.525000 0.312500
vt 0.537500 0.312500
vt 0.550000 0.312500
vt 0.562500 0.312500
vt 0.575000 0.312500
vt 0.587500 0.312500
vt 0.600000 0.312500
vt 0.612500 0.312500
vt 0.625000 0.312500
vt 0.375000 0.688440
vt 0.387500 0.688440
vt 0.400000 0.688440
vt 0.412500 0.688440
vt 0.425000 0.688440
vt 0.437500 0.688440
vt 0.450000 0.688440
vt 0.462500 0.688440
vt 0.475000 0.688440
vt 0.487500 0.688440
vt 0.500000 0.688440
vt 0.512500 0.688440
vt 0.525000 0.688440
vt 0.537500 0.688440
vt 0.550000 0.688440
vt 0.562500 0.688440
vt 0.575000 0.688440
vt 0.587500 0.688440
vt 0.600000 0.688440
vt 0.612500 0.688440
vt 0.625000 0.688440
vt 0.648603 0.795466
vt 0.626409 0.751908
vt 0.591842 0.717341
vt 0.548284 0.695147
vt 0.500000 0.687500
vt 0.451716 0.695147
vt 0.408159 0.717341
vt 0.373591 0.751909
vt 0.351397 0.795466
vt 0.343750 0.843750
vt 0.351397 0.892034
vt 0.373591 0.935591
vt 0.408159 0.970159
vt 0.451716 0.992353
vt 0.500000 1.000000
vt 0.548284 0.992353
vt 0.591841 0.970159
vt 0.626409 0.935591
vt 0.648603 0.892034
vt 0.656250 0.843750
vt 0.500000 0.837500
vt 0.648603 0.892034
vt 0.626409 0.935591
vt 0.591841 0.970159
vt 0.548284 0.992353
vt 0.500000 1.000000
vt 0.451716 0.992353
vt 0.408159 0.970159
vt 0.373591 0.935591
vt 0.351397 0.892034
vt 0.343750 0.843750
vt 0.351397 0.795466
vt 0.373591 0.751909
vt 0.408159 0.717341
vt 0.451716 0.695147
vt 0.500000 0.687500
vt 0.548284 0.695147
vt 0.591842 0.717341
vt 0.626409 0.751908
vt 0.648603 0.795466
vt 0.656250 0.843750
vt 0.648603 0.892034
vt 0.626409 0.935591
vt 0.591841 0.970159
vt 0.548284 0.992353
vt 0.500000 1.000000
vt 0.451716 0.992353
vt 0.408159 0.970159
vt 0.373591 0.935591
vt 0.351397 0.892034
vt 0.343750 0.843750
vt 0.351397 0.795466
vt 0.373591 0.751909
vt 0.408159 0.717341
vt 0.451716 0.695147
vt 0.500000 0.687500
vt 0.548284 0.695147
vt 0.591842 0.717341
vt 0.626409 0.751908
vt 0.648603 0.795466
vt 0.656250 0.843750
vn 0.951057 0.000000 -0.309016
vn 0.809017 0.000000 -0.587785
vn 0.809017 0.000000 -0.587785
vn 0.951057 0.000000 -0.309016
vn 0.587785 0.000000 -0.809017
vn 0.587785 0.000000 -0.809017
vn 0.309017 0.000000 -0.951057
vn 0.309017 0.000000 -0.951057
vn -0.000000 0.000000 -1.000000
vn -0.000000 0.000000 -1.000000
vn -0.309017 0.000000 -0.951057
vn -0.309017 0.000000 -0.951057
vn -0.587785 0.000000 -0.809017
vn -0.587785 0.000000 -0.809017
vn -0.809017 0.000000 -0.587785
vn -0.809017 0.000000 -0.587785
vn -0.951057 0.000000 -0.309017
vn -0.951057 0.000000 -0.309017
vn -1.000000 0.000000 0.000000
vn -1.000000 0.000000 0.000000
vn -0.951057 0.000000 0.309017
vn -0.951057 0.000000 0.309017
vn -0.809017 0.000000 0.587785
vn -0.809017 0.000000 0.587785
vn -0.587785 0.000000 0.809017
vn -0.587785 0.000000 0.809017
vn -0.309017 0.000000 0.951057
vn -0.309017 0.000000 0.951057
vn 0.000000 0.000000 1.000000
vn 0.000000 0.000000 1.000000
vn 0.309017 0.000000 0.951057
vn 0.309017 0.000000 0.951057
vn 0.587785 0.000000 0.809017
vn 0.587785 0.000000 0.809017
vn 0.809017 0.000000 0.587785
vn 0.809017 0.000000 0.587785
vn 0.951057 0.000000 0.309017
vn 0.951057 0.000000 0.309017
vn 1.000000 0.000000 0.000001
vn 1.000000 0.000000 0.000001
vn 0.000000 1.000000 -0.000000
vn 0.000000 1.000000 -0.000000
vn 0.000000 1.000000 -0.000000
vn 0.000000 1.000000 0.000000
vn 0.000000 1.000000 0.000000
vn 0.000000 1.000000 0.000000
vn 0.000000 1.000000 0.000000
vn 0.000000 1.000000 0.000000
vn 0.000000 1.000000 0.000000
vn 0.000000 1.000000 0.000000
vn 0.000000 1.000000 0.000000
vn 0.000000 1.000000 0.000000
vn 0.000000 1.000000 0.000000
vn 0.000000 1.000000 0.000000
vn 0.000000 1.000000 0.000000
vn 0.000000 1.000000 -0.000000
vn 0.000000 1.000000 -0.000000
vn 0.000000 1.000000 0.000000
vn 0.000000 1.000000 0.000000
vn 0.000000 1.000000 0.000000
vn 0.000000 1.000000 0.000000
vn 0.000000 1.000000 0.000000
vn 0.000000 1.000000 0.000000
vn 0.000000 1.000000 0.000000
vn 0.000000 1.000000 0.000000
vn 0.000000 1.000000 0.000000
vn 0.000000 1.000000 0.000000
vn 0.000000 1.000000 0.000000
vn 0.000000 1.000000 0.000000
vn 0.000000 1.000000 -0.000000
vn 0.000000 1.000000 -0.000000
vn 0.000000 1.000000 -0.000000
vn 0.000000 1.000000 -0.000000
vn 0.000000 1.000000 0.000000
vn 0.000000 1.000000 0.000000
vn 0.000000 1.000000 0.000000
vn 0.000000 1.000000 0.000000
vn 0.000000 1.000000 -0.000000
vn 0.000000 1.000000 -0.000000
vn 0.000000 1.000000 -0.000000
vn 0.000000 1.000000 -0.000000
vn 0.000000 1.000000 -0.000000
vn 0.000000 1.000000 -0.000000
vn 0.000000 1.000000 -0.000000
vn 0.000000 1.000000 -0.000000
vn 0.000000 1.000000 -0.000000
vn 0.000000 1.000000 -0.000000
vn 0.000000 1.000000 -0.000000
vn 0.000000 1.000000 -0.000000
vn 0.000000 1.000000 0.000000
vn 0.000000 1.000000 0.000000
vn 0.000000 1.000000 0.000000
vn 0.000000 1.000000 0.000000
vn 0.000000 1.000000 0.000000
vn 0.000000 1.000000 0.000000
vn 0.000000 1.000000 0.000000
vn 0.000000 1.000000 0.000000
vn 0.000000 1.000000 0.000000
vn 0.000000 1.000000 0.000000
vn 0.000000 1.000000 0.000000
vn 0.000000 1.000000 0.000000
vn 0.000000 1.000000 -0.000000
vn 0.000000 1.000000 -0.000000
vn 0.000000 1.000000 -0.000000
vn 0.000000 1.000000 -0.000000
vn 0.000000 1.000000 -0.000000
vn 0.000000 1.000000 -0.000000
vn 0.000000 1.000000 -0.000000
vn 0.000000 1.000000 -0.000000
vn 0.000000 1.000000 0.000000
vn 0.000000 1.000000 0.000000
vn 0.000000 1.000000 0.000000
vn 0.000000 1.000000 0.000000
vn 0.000000 1.000000 0.000000
vn 0.000000 1.000000 0.000000
vn 0.000000 1.000000 0.000000
vn 0.000000 1.000000 0.000000
vn 0.000000 1.000000 -0.000000
vn 0.000000 1.000000 -0.000000
vn 0.000000 1.000000 -0.000000
vn 0.000000 1.000000 -0.000000
vn 0.000000 1.000000 0.000000
vn 0.000000 1.000000 0.000000
vn 0.000000 1.000000 0.000000
vn 0.000000 1.000000 0.000000
vn 0.000000 1.000000 -0.000000
vn 0.000000 1.000000 -0.000000
vn 0.000000 1.000000 -0.000000
vn 0.000000 1.000000 -0.000000
vn 0.000000 1.000000 0.000000
vn 0.000000 1.000000 0.000000
vn 0.000000 1.000000 0.000000
vn 0.000000 1.000000 0.000000
vn 0.000000 1.000000 0.000000
vn 0.000000 1.000000 0.000000
vn 0.000000 1.000000 0.000000
vn 0.000000 1.000000 0.000000
vn 0.000000 1.000000 -0.000000
vn 0.000000 1.000000 -0.000000
vn 0.000000 1.000000 -0.000000
vn 0.000000 1.000000 -0.000000
vn -0.891006 0.000000 0.453991
vn -0.891006 0.000000 0.453991
vn -0.891006 0.000000 0.453991
vn -0.891006 0.000000 0.453991
vn -0.707107 0.000000 0.707107
vn -0.707107 0.000000 0.707107
vn -0.707107 0.000000 0.707107
vn -0.707107 0.000000 0.707107
vn -0.453990 0.000000 0.891007
vn -0.453990 0.000000 0.891007
vn -0.453990 0.000000 0.891007
vn -0.453990 0.000000 0.891007
vn -0.156434 0.000000 0.987688
vn -0.156434 0.000000 0.987688
vn -0.156434 0.000000 0.987688
vn -0.156434 0.000000 0.987688
vn 0.156434 0.000000 0.987688
vn 0.156434 0.000000 0.987688
vn 0.156434 0.000000 0.987688
vn 0.156434 0.000000 0.987688
vn 0.453991 0.000000 0.891006
vn 0.453991 0.000000 0.891006
vn 0.453991 0.000000 0.891006
vn 0.453991 0.000000 0.891006
vn 0.707107 0.000000 0.707107
vn 0.707107 0.000000 0.707107
vn 0.707107 0.000000 0.707107
vn 0.707107 0.000000 0.707107
vn 0.891007 0.000000 0.453990
vn 0.891007 0.000000 0.453990
vn 0.891007 0.000000 0.453990
vn 0.891007 0.000000 0.453990
vn 0.987688 0.000000 0.156434
vn 0.987688 0.000000 0.156434
vn 0.987688 0.000000 0.156434
vn 0.987688 0.000000 0.156434
vn 0.987688 0.000000 -0.156434
vn 0.987688 0.000000 -0.156434
vn 0.987688 0.000000 -0.156434
vn 0.987688 0.000000 -0.156434
vn 0.891006 0.000000 -0.453991
vn 0.891006 0.000000 -0.453991
vn 0.891006 0.000000 -0.453991
vn 0.891006 0.000000 -0.453991
vn 0.707107 0.000000 -0.707107
vn 0.707107 0.000000 -0.707107
vn 0.707107 0.000000 -0.707107
vn 0.707107 0.000000 -0.707107
vn 0.453991 0.000000 -0.891007
vn 0.453991 0.000000 -0.891007
vn 0.453991 0.000000 -0.891007
vn 0.453991 0.000000 -0.891007
vn 0.156434 0.000000 -0.987688
vn 0.156434 0.000000 -0.987688
vn 0.156434 0.000000 -0.987688
vn 0.156434 0.000000 -0.987688
vn -0.156434 0.000000 -0.987688
vn -0.156434 0.000000 -0.987688
vn -0.156434 0.000000 -0.987688
vn -0.156434 0.000000 -0.987688
vn -0.453991 0.000000 -0.891007
vn -0.453991 0.000000 -0.891007
vn -0.453991 0.000000 -0.891007
vn -0.453991 0.000000 -0.891007
vn -0.707107 0.000000 -0.707107
vn -0.707107 0.000000 -0.707107
vn -0.707107 0.000000 -0.707107
vn -0.707107 0.000000 -0.707107
vn -0.891007 0.000000 -0.453990
vn -0.891007 0.000000 -0.453990
vn -0.891007 0.000000 -0.453990
vn -0.891007 0.000000 -0.453990
vn -0.987688 0.000000 -0.156434
vn -0.987688 0.000000 -0.156434
vn -0.987688 0.000000 -0.156434
vn -0.987688 0.000000 -0.156434
vn -0.987689 0.000000 0.156432
vn -0.987689 0.000000 0.156432
vn -0.987689 0.000000 0.156432
vn -0.987689 0.000000 0.156432
s 1
g nj_pond_circular_01
usemtl lambert10SG
f 1/1/1 2/2/2 22/23/3 21/22/4
f 2/2/2 3/3/5 23/24/6 22/23/3
f 3/3/5 4/4/7 24/25/8 23/24/6
f 4/4/7 5/5/9 25/26/10 24/25/8
f 5/5/9 6/6/11 26/27/12 25/26/10
f 6/6/11 7/7/13 27/28/14 26/27/12
f 7/7/13 8/8/15 28/29/16 27/28/14
f 8/8/15 9/9/17 29/30/18 28/29/16
f 9/9/17 10/10/19 30/31/20 29/30/18
f 10/10/19 11/11/21 31/32/22 30/31/20
f 11/11/21 12/12/23 32/33/24 31/32/22
f 12/12/23 13/13/25 33/34/26 32/33/24
f 13/13/25 14/14/27 34/35/28 33/34/26
f 14/14/27 15/15/29 35/36/30 34/35/28
f 15/15/29 16/16/31 36/37/32 35/36/30
f 16/16/31 17/17/33 37/38/34 36/37/32
f 17/17/33 18/18/35 38/39/36 37/38/34
f 18/18/35 19/19/37 39/40/38 38/39/36
f 19/19/37 20/20/39 40/41/40 39/40/38
f 20/20/39 1/21/1 21/42/4 40/41/40
s 2
f 61/84/41 62/85/42 63/63/43
f 62/85/42 64/86/44 63/63/43
f 64/86/44 65/87/45 63/63/43
f 65/87/45 66/88/46 63/63/43
f 66/88/46 67/89/47 63/63/43
f 67/89/47 68/90/48 63/63/43
f 68/90/48 69/91/49 63/63/43
f 69/91/49 70/92/50 63/63/43
f 70/92/50 71/93/51 63/63/43
f 71/93/51 72/94/52 63/63/43
f 72/94/52 73/95/53 63/63/43
f 73/95/53 74/96/54 63/63/43
f 74/96/54 75/97/55 63/63/43
f 75/97/55 76/98/56 63/63/43
f 76/98/56 77/99/57 63/63/43
f 77/99/57 78/100/58 63/63/43
f 78/100/58 79/101/59 63/63/43
f 79/101/59 80/102/60 63/63/43
f 80/102/60 81/103/61 63/63/43
f 81/103/61 61/84/41 63/63/43
s off
f 21/61/62 22/60/63 42/65/64 41/64/65
f 22/60/66 23/59/67 43/66/68 42/65/69
f 23/59/70 24/58/71 44/67/72 43/66/73
f 24/58/74 25/57/75 45/68/76 44/67/77
f 25/57/78 26/56/79 46/69/80 45/68/81
f 26/56/82 27/55/83 47/70/84 46/69/85
f 27/55/86 28/54/87 48/71/88 47/70/89
f 28/54/90 29/53/91 49/72/92 48/71/93
f 29/53/94 30/52/95 50/73/96 49/72/97
f 30/52/98 31/51/99 51/74/100 50/73/101
f 31/51/102 32/50/103 52/75/104 51/74/105
f 32/50/106 33/49/107 53/76/108 52/75/109
f 33/49/110 34/48/111 54/77/112 53/76/113
f 34/48/114 35/47/115 55/78/116 54/77/117
f 35/47/118 36/46/119 56/79/120 55/78/121
f 36/46/122 37/45/123 57/80/124 56/79/125
f 37/45/126 38/44/127 58/81/128 57/80/129
f 38/44/130 39/43/131 59/82/132 58/81/133
f 39/43/134 40/62/135 60/83/136 59/82/137
f 40/62/138 21/61/139 41/64/140 60/83/141
f 41/64/142 42/65/143 62/85/144 61/84/145
f 42/65/146 43/66/147 64/86/148 62/85/149
f 43/66/150 44/67/151 65/87/152 64/86/153
f 44/67/154 45/68/155 66/88/156 65/87/157
f 45/68/158 46/69/159 67/89/160 66/88/161
f 46/69/162 47/70/163 68/90/164 67/89/165
f 47/70/166 48/71/167 69/91/168 68/90/169
f 48/71/170 49/72/171 70/92/172 69/91/173
f 49/72/174 50/73/175 71/93/176 70/92/177
f 50/73/178 51/74/179 72/94/180 71/93/181
f 51/74/182 52/75/183 73/95/184 72/94/185
f 52/75/186 53/76/187 74/96/188 73/95/189
f 53/76/190 54/77/191 75/97/192 74/96/193
f 54/77/194 55/78/195 76/98/196 75/97/197
f 55/78/198 56/79/199 77/99/200 76/98/201
f 56/79/202 57/80/203 78/100/204 77/99/205
f 57/80/206 58/81/207 79/101/208 78/100/209
f 58/81/210 59/82/211 80/102/212 79/101/213
f 59/82/214 60/83/215 81/103/216 80/102/217
f 60/83/218 41/64/219 61/84/220 81/103/221
