# This file uses centimeters as units for non-parametric coordinates.

mtllib Playhouse_Window_Wall_Issa_1.mtl
g default
v 0.000000 0.000000 0.000000
v 192.000000 0.000000 0.000000
v 0.000000 104.976234 0.000000
v 192.000000 104.976234 0.000000
v 0.000000 104.976219 -6.000000
v 192.000000 104.976219 -6.000000
v 0.000000 0.000000 -6.000000
v 192.000000 0.000000 -6.000000
v 128.000000 104.976234 0.000000
v 128.000000 104.976219 -6.000000
v 128.000000 0.000000 -6.000000
v 128.000000 0.000000 0.000000
v 64.000000 104.976234 0.000000
v 63.999985 104.976219 -6.000000
v 64.000000 0.000000 -6.000000
v 64.000000 0.000000 0.000000
v 64.000000 69.984146 0.000000
v 0.000000 69.984146 0.000000
v 0.000000 69.984146 -6.000000
v 64.000000 69.984146 -6.000000
v 128.000000 69.984146 -6.000000
v 192.000000 69.984146 -6.000000
v 192.000000 69.984146 0.000000
v 128.000000 69.984146 0.000000
v 64.000000 34.992073 0.000000
v 0.000000 34.992073 0.000000
v 0.000000 34.992073 -6.000000
v 64.000000 34.992073 -6.000000
v 128.000000 34.992073 -6.000000
v 192.000000 34.992073 -6.000000
v 192.000000 34.992073 0.000000
v 128.000000 34.992073 0.000000
v 96.000000 104.976234 0.000000
v 95.999985 104.976219 -6.000000
v 95.999985 85.577110 -6.000000
v 96.000000 85.577110 0.000000
v 114.356598 81.659256 -0.255758
v 114.356567 81.659248 -6.255758
v 114.361572 104.976219 -6.000000
v 114.361603 104.976234 0.000000
v 77.632141 81.659256 -0.255758
v 77.632141 81.659248 -6.255758
v 77.637146 104.976219 -6.000000
v 77.637146 104.976234 0.000000
vt 0.035376 0.298139
vt 0.078387 0.298139
vt 0.078387 0.520361
vt 0.035376 0.520361
vt 0.163498 0.031958
vt 0.163499 0.339316
vt 0.133434 0.339315
vt 0.133434 0.031958
vt 0.133434 0.031958
vt 0.133434 0.339315
vt 0.078387 0.298139
vt 0.035376 0.298139
vt 0.035376 0.520361
vt 0.078387 0.520361
vt 0.163499 0.339315
vt 0.163499 0.031958
vt 0.163499 0.646673
vt 0.285793 0.018910
vt 0.163498 0.954030
vt 0.133434 0.954030
vt 0.133434 0.646673
vt 0.163499 0.646673
vt 0.510906 0.018910
vt 0.133434 0.646673
vt 0.510906 0.144779
vt 0.078387 0.742583
vt 0.035376 0.742583
vt 0.285793 0.144779
vt 0.285793 0.144779
vt 0.510906 0.144779
vt 0.510906 0.018910
vt 0.035376 0.964806
vt 0.078387 0.964805
vt 0.285793 0.018910
vt 0.736018 0.018910
vt 0.035376 0.742583
vt 0.078387 0.742583
vt 0.736018 0.144779
vt 0.961131 0.144779
vt 0.961131 0.018910
vt 0.736018 0.144779
vt 0.078387 0.964805
vt 0.035376 0.964806
vt 0.736018 0.018910
vt 0.207456 0.280885
vt 0.207456 0.453003
vt 0.273704 0.453003
vt 0.273704 0.280885
vt 5.855958 1.000000
vt 5.855958 0.000000
vt 5.961172 0.000000
vt 5.961172 1.000000
vt 0.919483 0.978353
vt 0.334444 0.978353
vt 0.334444 0.417233
vt 0.919483 0.417233
vt 5.961172 1.000000
vt 5.961172 0.000000
vt 5.855958 0.000000
vt 5.855958 1.000000
vt 0.133434 0.954030
vt 0.163498 0.954030
vt 0.273704 0.625017
vt 0.961131 0.018910
vt 0.207456 0.625017
vt 0.961131 0.144779
vt 0.207456 0.752865
vt 0.285793 0.270648
vt 0.273704 0.752865
vt 0.510906 0.270648
vt 0.163499 0.404807
vt 0.163498 0.492994
vt 0.207456 0.153142
vt 0.510906 0.396518
vt 0.273704 0.153142
vt 0.285793 0.396518
vt 0.133434 0.492994
vt 0.133434 0.404807
vt 0.285793 0.396518
vt 0.510905 0.396518
vt 0.510906 0.270648
vt 0.285793 0.270648
vt 0.623462 0.326738
vt 0.558855 0.312645
vt 0.558873 0.396518
vt 0.623462 0.396518
vt 0.961131 0.270648
vt 0.736018 0.270648
vt 0.736018 0.396518
vt 0.961131 0.396518
vt 0.736018 0.396518
vt 0.736018 0.270648
vt 0.961131 0.270648
vt 0.961131 0.396518
vt 0.558873 0.396518
vt 0.558855 0.312645
vt 0.623462 0.326738
vt 0.623462 0.396518
vt 0.688029 0.312645
vt 0.688047 0.396518
vt 0.688047 0.396518
vt 0.688029 0.312645
vt 0.163499 0.581175
vt 0.133434 0.581175
vn 0.000000 0.000000 1.000000
vn 0.000000 0.000000 1.000000
vn 0.031184 0.057035 0.997885
vn 0.000000 0.000000 1.000000
vn 0.000000 1.000000 -0.000003
vn 0.000000 1.000000 -0.000003
vn 0.000000 1.000000 -0.000003
vn 0.000000 1.000000 -0.000003
vn 0.000000 0.000000 -1.000000
vn 0.031184 0.057035 -0.997885
vn 0.000000 0.000000 -1.000000
vn 0.000000 0.000000 -1.000000
vn 0.000000 -1.000000 0.000000
vn 0.000000 -1.000000 0.000000
vn 0.000000 -1.000000 0.000000
vn 0.000000 -1.000000 0.000000
vn 1.000000 0.000000 0.000000
vn 1.000000 0.000000 0.000000
vn 1.000000 0.000000 0.000000
vn 1.000000 0.000000 0.000000
vn -1.000000 0.000000 0.000000
vn -1.000000 0.000000 0.000000
vn -1.000000 0.000000 0.000000
vn -1.000000 0.000000 0.000000
vn 0.000000 1.000000 -0.000003
vn 0.000000 1.000000 -0.000003
vn 0.000000 1.000000 -0.000003
vn 0.000000 1.000000 -0.000003
vn 0.000000 0.000000 -1.000000
vn -0.031184 0.057035 -0.997885
vn 0.000000 0.000000 -1.000000
vn 0.000000 0.000000 -1.000000
vn 0.000000 -1.000000 0.000000
vn 0.000000 -1.000000 0.000000
vn 0.000000 -1.000000 0.000000
vn 0.000000 -1.000000 0.000000
vn -0.031184 0.057035 0.997885
vn 0.000000 0.000000 1.000000
vn 0.000000 0.000000 1.000000
vn 0.000000 0.000000 1.000000
vn 0.000000 1.000000 -0.000003
vn 0.000000 1.000000 -0.000002
vn 0.000000 1.000000 -0.000002
vn 0.000000 1.000000 -0.000003
vn 0.000000 0.000000 1.000000
vn 0.059881 -0.017425 0.998053
vn 0.001697 -0.000661 0.999998
vn 0.000000 0.000000 1.000000
vn -1.000000 0.000000 0.000000
vn -1.000000 0.000000 0.000000
vn -1.000000 0.000000 0.000000
vn -1.000000 0.000000 0.000000
vn 0.000000 0.000000 -1.000000
vn -0.001697 0.000661 -0.999998
vn 0.059109 -0.017334 -0.998101
vn 0.000000 0.000000 -1.000000
vn -0.000000 -0.236982 -0.971514
vn 0.094099 -0.197770 -0.975721
vn -0.002524 0.005182 -0.999983
vn -0.000000 0.005987 -0.999982
vn 0.000000 0.000000 -1.000000
vn -0.059106 -0.017347 -0.998101
vn 0.001697 0.000661 -0.999998
vn 0.000000 0.000000 -1.000000
vn 1.000000 0.000000 0.000000
vn 1.000000 0.000000 0.000000
vn 1.000000 0.000000 0.000000
vn 1.000000 0.000000 0.000000
vn -0.001697 -0.000661 0.999998
vn -0.059878 -0.017438 0.998053
vn 0.000000 0.000000 1.000000
vn 0.000000 0.000000 1.000000
vn 0.002524 -0.005182 0.999983
vn 0.104736 -0.210300 0.972010
vn 0.000000 -0.244003 0.969774
vn 0.000000 -0.005987 0.999982
vn 0.000000 1.000000 -0.000003
vn 0.000000 1.000000 -0.000003
vn -0.094096 -0.197757 -0.975724
vn 0.002526 0.005181 -0.999983
vn -0.104726 -0.210286 0.972015
vn -0.002526 -0.005181 0.999983
s 1
g Playhouse_Window_Wall
usemtl lambert8SG
f 1/18/1 16/23/2 25/25/3 26/28/4
s 2
f 3/5/5 13/6/6 14/7/7 5/8/8
s 1
f 27/29/9 28/30/10 15/31/11 7/34/12
s 4
f 7/9/13 15/10/14 16/15/15 1/16/16
s 5
f 2/1/17 8/2/18 30/3/19 31/4/20
s 6
f 7/11/21 1/12/22 26/13/23 27/14/24
s 2
f 9/17/25 4/19/26 6/20/27 10/21/28
s 1
f 11/35/29 29/38/30 30/39/31 8/40/32
s 4
f 12/22/33 11/24/34 8/61/35 2/62/36
s 1
f 32/41/37 12/44/38 2/64/39 31/66/40
s 2
f 44/71/41 33/72/42 34/77/43 43/78/44
s 1
f 15/31/11 28/30/10 29/38/30 11/35/29
s 4
f 16/15/15 15/10/14 11/24/34 12/22/33
s 1
f 32/41/37 25/25/3 16/23/2 12/44/38
f 18/68/45 17/70/46 13/74/47 3/76/48
s 6
f 19/26/49 18/27/50 3/32/51 5/33/52
s 1
f 5/79/53 14/80/54 20/81/55 19/82/56
f 35/83/57 42/84/58 43/85/59 34/86/60
f 22/87/61 21/88/62 10/89/63 6/90/64
s 5
f 23/36/65 22/37/66 6/42/67 4/43/68
s 1
f 9/91/69 24/92/70 23/93/71 4/94/72
f 44/95/73 41/96/74 36/97/75 33/98/76
f 26/28/4 25/25/3 17/70/46 18/68/45
s 6
f 27/14/24 26/13/23 18/27/50 19/26/49
s 1
f 19/82/56 20/81/55 28/30/10 27/29/9
f 30/39/31 29/38/30 21/88/62 22/87/61
s 5
f 31/4/20 30/3/19 22/37/66 23/36/65
s 1
f 24/92/70 32/41/37 31/66/40 23/93/71
f 42/45/58 35/46/57 36/47/75 41/48/74
f 17/49/46 25/50/3 28/51/10 20/52/55
f 29/53/30 28/54/10 25/55/3 32/56/37
f 21/57/62 29/58/30 32/59/37 24/60/70
s 2
f 40/103/77 9/17/25 10/21/28 39/104/78
s 1
f 21/88/62 38/99/79 39/100/80 10/89/63
f 37/63/81 38/65/79 21/67/62 24/69/70
f 40/101/82 37/102/81 24/92/70 9/91/69
f 36/47/75 35/46/57 38/65/79 37/63/81
f 39/100/80 38/99/79 35/83/57 34/86/60
s 2
f 33/72/42 40/103/77 39/104/78 34/77/43
s 1
f 33/98/76 36/97/75 37/102/81 40/101/82
f 20/73/55 42/45/58 41/48/74 17/75/46
f 43/85/59 42/84/58 20/81/55 14/80/54
s 2
f 13/6/6 44/71/41 43/78/44 14/7/7
s 1
f 13/74/47 17/70/46 41/96/74 44/95/73
