# This file uses centimeters as units for non-parametric coordinates.

mtllib Playhouse_Doorway_Wall_Issa_1.mtl
g default
v 0.000000 0.000000 6.000092
v 192.000000 0.000000 6.000092
v 0.000000 104.976234 6.000092
v 192.000000 104.976234 6.000092
v 0.000000 104.976234 0.000092
v 192.000000 104.976234 0.000092
v 0.000000 0.000000 0.000092
v 192.000000 0.000000 0.000092
v 96.000000 151.023758 6.000092
v 96.000000 151.023758 0.000092
v 96.000000 0.000000 0.000092
v 96.000000 0.000000 6.000092
v 48.000000 128.000000 6.000092
v 48.000000 128.000000 0.000092
v 48.000000 0.000000 0.000092
v 48.000000 0.000000 6.000092
v 143.999985 128.000000 6.000092
v 143.999985 128.000000 0.000092
v 143.999985 0.000000 0.000092
v 143.999985 0.000000 6.000092
v 96.000000 128.114670 0.000092
v 96.000000 6.587835 0.000092
v 137.076981 104.255371 0.000092
v 137.076981 6.587831 0.000092
v 54.923004 104.255371 0.000092
v 54.923004 6.587831 0.000092
v 96.000000 6.587831 6.000092
v 96.000000 128.114670 6.000092
v 137.076981 6.587831 6.000092
v 137.076981 104.255371 6.000092
v 54.923004 6.587831 6.000092
v 54.923004 104.255371 6.000092
v 6.000000 104.976219 6.000092
v 6.000000 104.976219 0.000092
v 6.000000 0.000000 0.000092
v 6.000000 0.000000 6.000092
v 186.000000 104.976219 6.000092
v 186.000000 104.976219 0.000092
v 186.000000 0.000000 0.000092
v 186.000000 0.000000 6.000092
v 68.766327 121.516922 6.000092
v 72.000000 139.511871 6.000092
v 72.000000 139.511871 0.000092
v 68.766327 121.516922 0.000092
v 123.233673 121.516922 6.000092
v 120.000000 139.511871 6.000092
v 120.000000 139.511871 0.000092
v 123.233673 121.516922 0.000092
vt 0.858055 0.038613
vt 0.896784 0.038613
vt 0.896784 0.748291
vt 0.858055 0.748291
vt 0.041112 0.831964
vt 0.070226 0.831964
vt 0.070226 0.864129
vt 0.041112 0.864129
vt 0.041112 0.864129
vt 0.070226 0.864129
vt 0.896784 0.038613
vt 0.858055 0.038613
vt 0.858055 0.748291
vt 0.896784 0.748291
vt 0.070226 0.831964
vt 0.041112 0.831964
vt 0.506946 0.831964
vt 0.021351 0.027177
vt 0.623405 0.831964
vt 0.623405 0.864129
vt 0.506946 0.864129
vt 0.506946 0.831964
vt 0.045447 0.027177
vt 0.506946 0.864129
vt 0.739863 0.864129
vt 0.739863 0.831964
vt 0.274028 0.831964
vt 0.045447 0.563147
vt 0.390487 0.831964
vt 0.021351 0.563147
vt 0.021351 0.563147
vt 0.045447 0.563147
vt 0.045447 0.027177
vt 0.021351 0.027177
vt 0.599655 0.027177
vt 0.599655 0.680698
vt 0.768327 0.563147
vt 0.768327 0.027177
vt 0.599655 0.680698
vt 0.599655 0.027177
vt 0.768327 0.027177
vt 0.047800 0.975401
vt 0.196374 0.975401
vt 0.196374 0.909035
vt 0.047800 0.909035
vt 0.780946 0.975401
vt 0.780946 0.909035
vt 0.488660 0.909035
vt 0.488660 0.975401
vt 0.931414 0.036966
vt 0.931414 0.789654
vt 0.972751 0.789654
vt 0.972751 0.036966
vt 0.929520 0.975401
vt 0.488660 0.975401
vt 0.488660 0.909035
vt 0.929520 0.909035
vt 0.047800 0.975401
vt 0.047800 0.909035
vt 0.929520 0.909035
vt 0.929520 0.975401
vt 0.931414 0.789654
vt 0.931414 0.036966
vt 0.972751 0.036966
vt 0.972751 0.789654
vt 0.390487 0.864129
vt 0.274028 0.864129
vt 0.274028 0.831964
vt 0.768327 0.563147
vt 0.274028 0.864129
vt 0.739863 0.831964
vt 0.943666 0.831964
vt 0.943666 0.864129
vt 0.406887 0.798248
vt 0.739863 0.864129
vt 0.503271 0.739473
vt 0.972780 0.831964
vt 0.943666 0.864129
vt 0.516257 0.647597
vt 0.943666 0.831964
vt 0.972780 0.864129
vt 0.406887 0.681283
vt 0.571852 0.060812
vt 0.792423 0.563147
vt 0.972780 0.831964
vt 0.571852 0.559466
vt 0.972780 0.864129
vt 0.792423 0.027177
vt 0.406887 0.027177
vt 0.406887 0.060812
vt 0.214119 0.027177
vt 0.214119 0.680698
vt 0.241922 0.559466
vt 0.241922 0.060812
vt 0.310503 0.739473
vt 0.297516 0.647597
vt 0.406887 0.027177
vt 0.571852 0.060812
vt 0.406887 0.060812
vt 0.571852 0.559466
vt 0.503271 0.739473
vt 0.406887 0.798248
vt 0.406887 0.681283
vt 0.516257 0.647597
vt 0.214119 0.680698
vt 0.214119 0.027177
vt 0.241922 0.060812
vt 0.241922 0.559466
vt 0.310503 0.739473
vt 0.297516 0.647597
vt 0.792423 0.563147
vt 0.792423 0.027177
vn -0.000000 0.000000 1.000000
vn -0.000000 0.000000 1.000000
vn -0.000000 0.000000 1.000000
vn -0.000000 0.000000 1.000000
vn 0.000003 1.000000 0.000000
vn -0.432483 0.901642 0.000000
vn -0.432483 0.901642 0.000000
vn 0.000003 1.000000 0.000000
vn 0.000000 0.000000 -1.000000
vn 0.000000 0.000000 -1.000000
vn 0.000000 0.000000 -1.000000
vn 0.000000 0.000000 -1.000000
vn 0.000000 -1.000000 0.000000
vn 0.000000 -1.000000 0.000000
vn 0.000000 -1.000000 0.000000
vn 0.000000 -1.000000 0.000000
vn 1.000000 0.000000 0.000000
vn 1.000000 0.000000 0.000000
vn 1.000000 0.000000 0.000000
vn 1.000000 0.000000 0.000000
vn -1.000000 0.000000 0.000000
vn -1.000000 0.000000 0.000000
vn -1.000000 0.000000 0.000000
vn -1.000000 0.000000 0.000000
vn 0.000000 1.000000 0.000000
vn 0.432483 0.901642 0.000000
vn 0.432483 0.901642 0.000000
vn 0.000000 1.000000 0.000000
vn 0.000000 -1.000000 0.000000
vn 0.000000 -1.000000 0.000000
vn 0.000000 -1.000000 0.000000
vn 0.000000 -1.000000 0.000000
vn -0.463630 0.886029 0.000000
vn -0.432483 0.901642 0.000000
vn -0.432483 0.901642 0.000000
vn -0.463630 0.886029 0.000000
vn 0.000000 -1.000000 0.000000
vn 0.000000 -1.000000 0.000000
vn 0.463630 0.886029 0.000000
vn 0.432483 0.901642 0.000000
vn 0.432483 0.901642 0.000000
vn 0.463630 0.886029 0.000000
vn 0.000000 0.000000 -1.000000
vn 0.000000 0.000000 -1.000000
vn 0.000000 0.000000 -1.000000
vn 0.000000 0.000000 -1.000000
vn 0.000000 -1.000000 0.000000
vn 0.000000 -1.000000 0.000000
vn -0.000000 0.000000 1.000000
vn -0.000000 0.000000 1.000000
vn 0.000000 0.000000 1.000000
vn 0.000000 0.000000 1.000000
vn 0.000000 0.000000 -1.000000
vn 0.000000 0.000000 -1.000000
vn 0.000000 0.000000 -1.000000
vn 0.000000 0.000000 -1.000000
vn 0.000000 0.000000 -1.000000
vn 0.000000 0.000000 -1.000000
vn 0.000000 0.000000 -1.000000
vn 0.000000 0.000000 -1.000000
vn 0.000000 0.000000 -1.000000
vn 0.000000 0.000000 -1.000000
vn 0.000000 0.000000 -1.000000
vn 0.000000 0.000000 -1.000000
vn 0.000000 0.000000 -1.000000
vn 0.000000 0.000000 -1.000000
vn 0.000000 0.000000 -1.000000
vn 0.000000 0.000000 -1.000000
vn 0.000000 0.000000 -1.000000
vn 0.000000 0.000000 -1.000000
vn 0.000000 0.000000 -1.000000
vn 0.000000 0.000000 -1.000000
vn -0.000000 0.000000 -1.000000
vn -0.000000 0.000000 -1.000000
vn -0.000000 0.000000 -1.000000
vn -0.000000 0.000000 -1.000000
vn 0.000000 0.000000 1.000000
vn 0.000000 0.000000 1.000000
vn 0.000000 0.000000 1.000000
vn 0.000000 0.000000 1.000000
vn 0.000000 0.000000 1.000000
vn 0.000000 0.000000 1.000000
vn 0.000000 0.000000 1.000000
vn 0.000000 0.000000 1.000000
vn -0.000000 0.000000 1.000000
vn -0.000000 0.000000 1.000000
vn -0.000000 0.000000 1.000000
vn -0.000000 0.000000 1.000000
vn -0.000000 0.000000 1.000000
vn -0.000000 0.000000 1.000000
vn -0.000000 0.000000 1.000000
vn -0.000000 0.000000 1.000000
vn 0.000000 0.000000 1.000000
vn 0.000000 0.000000 1.000000
vn 0.000000 0.000000 1.000000
vn 0.000000 0.000000 1.000000
vn 0.000000 0.000000 1.000000
vn -0.000000 0.000000 1.000000
vn -0.000000 0.000000 1.000000
vn -0.000000 0.000000 1.000000
vn 0.780117 -0.625634 0.000000
vn 0.502264 -0.864715 0.000000
vn 0.502264 -0.864715 0.000000
vn 0.780117 -0.625634 0.000000
vn -0.502264 -0.864715 0.000000
vn -0.502264 -0.864715 0.000000
vn -0.235453 -0.971886 0.000000
vn -0.235453 -0.971886 0.000000
vn -1.000000 0.000000 0.000000
vn -1.000000 0.000000 0.000000
vn -1.000000 0.000000 0.000000
vn -1.000000 0.000000 0.000000
vn 0.000000 1.000000 0.000000
vn 0.000000 1.000000 0.000000
vn 0.000000 1.000000 0.000000
vn 0.000000 1.000000 0.000000
vn -0.000000 1.000000 0.000000
vn -0.000000 1.000000 0.000000
vn -0.000000 1.000000 0.000000
vn -0.000000 1.000000 0.000000
vn 1.000000 0.000000 0.000000
vn 1.000000 0.000000 0.000000
vn 1.000000 0.000000 0.000000
vn 1.000000 0.000000 0.000000
vn 0.000000 0.000000 -1.000000
vn 0.000000 0.000000 -1.000000
vn 0.000000 0.000000 1.000000
vn 0.000000 0.000000 1.000000
vn -0.000003 1.000000 0.000000
vn -0.000003 1.000000 0.000000
vn 0.000000 0.000000 -1.000000
vn 0.000000 0.000000 -1.000000
vn 0.000000 -1.000000 0.000000
vn 0.000000 -1.000000 0.000000
vn 0.000000 0.000000 1.000000
vn 0.000000 0.000000 1.000000
vn 0.000000 0.000000 1.000000
vn 0.000000 0.000000 1.000000
vn 0.000000 0.000000 -1.000000
vn 0.000000 0.000000 -1.000000
vn 0.235453 -0.971886 0.000000
vn 0.235453 -0.971886 0.000000
vn 0.000000 0.000000 1.000000
vn 0.000000 0.000000 1.000000
vn 0.000000 0.000000 -1.000000
vn 0.000000 0.000000 -1.000000
vn -0.780117 -0.625634 0.000000
vn -0.780117 -0.625634 0.000000
s 1
g Playhouse_Doorway_Wall
usemtl lambert6SG
f 1/18/1 36/23/2 33/28/3 3/30/4
s 2
f 3/5/5 33/6/6 34/7/7 5/8/8
s 3
f 5/31/9 34/32/10 35/33/11 7/34/12
s 4
f 7/9/13 35/10/14 36/15/15 1/16/16
s off
f 2/1/17 8/2/18 6/3/19 4/4/20
f 7/11/21 1/12/22 3/13/23 5/14/24
s 2
f 9/17/25 46/19/26 47/20/27 10/21/28
s 4
f 12/22/29 11/24/30 19/25/31 20/26/32
s 2
f 13/27/33 42/29/34 43/66/35 14/67/36
s 4
f 16/68/37 15/70/38 11/24/30 12/22/29
s 2
f 17/71/39 37/72/40 38/73/41 18/75/42
s 8
f 19/35/43 18/36/44 38/37/45 39/38/46
s 4
f 20/26/32 19/25/31 39/78/47 40/80/48
s 9
f 17/39/49 20/40/50 40/41/51 37/69/52
s 10
f 10/74/53 47/76/54 48/79/55 21/82/56
s off
f 18/36/57 19/35/58 24/83/59 23/86/60
f 19/35/61 11/89/62 22/90/63 24/83/64
f 15/91/65 14/92/66 25/93/67 26/94/68
s 11
f 14/92/69 43/95/70 44/96/71 25/93/72
s off
f 11/89/73 15/91/74 26/94/75 22/90/76
f 12/97/77 20/40/78 29/98/79 27/99/80
f 20/40/81 17/39/82 30/100/83 29/98/84
s 12
f 46/101/85 9/102/86 28/103/87 45/104/88
s off
f 13/105/89 16/106/90 31/107/91 32/108/92
f 16/106/93 12/97/94 27/99/95 31/107/96
s 13
f 42/109/97 13/105/98 32/108/99 41/110/100
s 14
f 25/42/101 44/43/102 41/44/103 32/45/104
s 15
f 48/46/105 45/47/106 28/48/107 21/49/108
s off
f 29/50/109 30/51/110 23/52/111 24/53/112
f 24/54/113 22/55/114 27/56/115 29/57/116
f 22/55/117 26/58/118 31/59/119 27/56/120
f 32/62/121 31/63/122 26/64/123 25/65/124
s 2
f 33/6/6 13/27/33 14/67/36 34/7/7
s 3
f 35/33/11 34/32/10 14/92/125 15/91/126
s 4
f 36/15/15 35/10/14 15/70/38 16/68/37
s 1
f 33/28/3 36/23/2 16/106/127 13/105/128
s 2
f 37/72/40 4/85/129 6/87/130 38/73/41
s 8
f 39/38/46 38/37/45 6/111/131 8/112/132
s 4
f 40/80/48 39/78/47 8/81/133 2/77/134
s 9
f 37/69/52 40/41/51 2/88/135 4/84/136
s 13
f 9/102/137 42/109/97 41/110/100 28/103/138
s 2
f 43/66/35 42/29/34 9/17/25 10/21/28
s 11
f 44/96/71 43/95/70 10/74/139 21/82/140
s 14
f 41/44/103 44/43/102 21/49/141 28/48/142
s 12
f 17/39/143 46/101/85 45/104/88 30/100/144
s 2
f 47/20/27 46/19/26 17/71/39 18/75/42
s 10
f 48/79/55 47/76/54 18/36/145 23/86/146
s 15
f 30/60/147 45/47/106 48/46/105 23/61/148
