# This file uses centimeters as units for non-parametric coordinates.

mtllib Playhouse_Wall_Issa_1.mtl
g default
v 0.000000 0.000000 0.000000
v 192.000000 0.000000 0.000000
v 0.000000 104.976234 0.000000
v 192.000000 104.976234 0.000000
v -0.000008 104.976219 -6.000000
v 192.000031 104.976219 -6.000000
v 0.000000 0.000000 -6.000000
v 192.000000 0.000000 -6.000000
vt 0.026137 0.935484
vt 0.026137 0.064516
vt 0.088225 0.064516
vt 0.088225 0.935484
vt 0.986955 0.958097
vt 0.105235 0.958097
vt 0.105235 0.920174
vt 0.986955 0.920174
vt 0.986955 0.920174
vt 0.105235 0.920174
vt 0.088226 0.935484
vt 0.088226 0.064516
vt 0.026137 0.064516
vt 0.026137 0.935484
vt 0.135134 0.021001
vt 0.973843 0.021001
vt 0.973843 0.453883
vt 0.135134 0.453883
vt 0.135134 0.453883
vt 0.973843 0.453883
vt 0.973843 0.021001
vt 0.135134 0.021001
vt 0.105235 0.958097
vt 0.986955 0.958097
vn 0.000000 1.000000 -0.000003
vn 0.000000 1.000000 -0.000003
vn 0.000000 1.000000 -0.000003
vn 0.000000 1.000000 -0.000003
vn 0.000000 -1.000000 0.000000
vn 0.000000 -1.000000 0.000000
vn 0.000000 -1.000000 0.000000
vn 0.000000 -1.000000 0.000000
vn 1.000000 -0.000000 0.000003
vn 1.000000 -0.000000 0.000003
vn 1.000000 -0.000000 0.000003
vn 1.000000 -0.000000 0.000003
vn -1.000000 -0.000000 0.000001
vn -1.000000 -0.000000 0.000001
vn -1.000000 -0.000000 0.000001
vn -1.000000 -0.000000 0.000001
vn 0.000000 0.000000 1.000000
vn 0.000000 0.000000 1.000000
vn 0.000000 0.000000 1.000000
vn 0.000000 0.000000 1.000000
vn 0.000000 0.000000 -1.000000
vn 0.000000 0.000000 -1.000000
vn 0.000000 0.000000 -1.000000
vn 0.000000 0.000000 -1.000000
s off
g Playhouse_Wall
usemtl lambert9SG
f 6/5/1 5/6/2 3/7/3 4/8/4
f 2/9/5 1/10/6 7/23/7 8/24/8
f 4/1/9 2/2/10 8/3/11 6/4/12
f 5/11/13 7/12/14 1/13/15 3/14/16
f 1/15/17 2/16/18 4/17/19 3/18/20
f 5/19/21 6/20/22 8/21/23 7/22/24
