# This file uses centimeters as units for non-parametric coordinates.

mtllib Playhouse_Window_Trim_Issa_1.mtl
g default
v 0.000008 34.992081 6.000000
v -0.000015 34.992069 0.000000
v 63.999996 34.992069 0.000000
v 64.000000 34.992081 6.000000
v 0.000008 0.000002 6.000000
v -0.000008 -0.000002 0.000000
v 64.000000 -0.000002 0.000000
v 64.000000 0.000002 6.000000
v 31.999977 50.585037 0.000000
v 31.999992 50.585037 6.000000
v 50.356583 46.667179 5.744247
v 50.356571 46.667179 -0.255753
v 13.632141 46.667179 5.744247
v 13.632133 46.667179 -0.255753
v 11.054863 51.879742 -0.255753
v 32.000351 56.452950 0.000000
v 32.000359 56.452961 6.000000
v 11.054871 51.879742 5.744247
v -3.000000 -2.999997 6.000000
v -4.951447 37.270641 6.000000
v -3.000008 -3.000002 0.000000
v -4.951462 37.270638 0.000000
v 67.000000 -3.000002 0.000000
v 67.000000 -2.999997 6.000000
v 68.950516 37.271431 0.000000
v 68.950523 37.271439 6.000000
v 52.933289 51.880466 5.744247
v 52.933273 51.880466 -0.255753
vt 0.292122 0.517043
vt 0.158497 0.481614
vt 0.139747 0.528751
vt 0.292125 0.570107
vt 0.059323 0.376036
vt 0.059323 0.059601
vt 0.037499 0.032472
vt 0.023302 0.396641
vt 0.524921 0.059601
vt 0.546746 0.032472
vt 0.524921 0.376036
vt 0.193015 0.840993
vt 0.391336 0.840993
vt 0.391336 0.750705
vt 0.193015 0.750705
vt 0.663779 0.722623
vt 0.663779 0.023712
vt 0.751700 0.023712
vt 0.751700 0.722623
vt 0.632293 0.725083
vt 0.041565 0.725083
vt 0.041565 0.686492
vt 0.632293 0.686492
vt 0.751700 0.722637
vt 0.751700 0.023712
vt 0.663779 0.023712
vt 0.663779 0.722637
vt 0.589537 0.750705
vt 0.589537 0.840993
vt 0.741195 0.840993
vt 0.741195 0.750705
vt 0.041461 0.840993
vt 0.041461 0.750705
vt 0.211612 0.971719
vt 0.211612 0.877890
vt 0.449466 0.877890
vt 0.449465 0.971719
vt 0.851618 0.722637
vt 0.952711 0.722637
vt 0.952711 0.023712
vt 0.851618 0.023712
vt 0.617283 0.657352
vt 0.617283 0.595386
vt 0.077190 0.595386
vt 0.077189 0.657352
vt 0.952711 0.722637
vt 0.851618 0.722637
vt 0.851618 0.023712
vt 0.952711 0.023712
vt 0.687173 0.877890
vt 0.863848 0.877890
vt 0.863847 0.971719
vt 0.687173 0.971719
vt 0.035083 0.971719
vt 0.035084 0.877890
vt 0.560936 0.396648
vt 0.425666 0.481614
vt 0.444411 0.528758
vn 0.460746 -0.887532 -0.000000
vn 0.000017 -1.000000 0.000001
vn 0.000018 -1.000000 0.000001
vn 0.460726 -0.887542 -0.000000
vn 0.998828 0.048402 -0.000002
vn 0.998828 0.048402 -0.000002
vn 0.998828 0.048402 -0.000002
vn 0.998828 0.048402 -0.000002
vn 0.000000 1.000000 -0.000001
vn 0.000000 1.000000 -0.000001
vn 0.000000 1.000000 -0.000001
vn 0.000000 1.000000 -0.000001
vn -0.998829 0.048378 0.000001
vn -0.998829 0.048378 0.000001
vn -0.998829 0.048378 0.000001
vn -0.998829 0.048378 0.000001
vn -0.460727 -0.887542 0.000001
vn -0.460747 -0.887531 0.000001
vn -0.673882 -0.738839 0.000001
vn -0.673882 -0.738839 0.000001
vn 0.674134 -0.738609 -0.000000
vn 0.674134 -0.738609 -0.000000
vn -0.437996 0.898977 0.000001
vn -0.438088 0.898932 0.000001
vn -0.000000 1.000000 0.000000
vn 0.000000 1.000000 0.000000
vn -1.000000 -0.000000 0.000003
vn -1.000000 -0.000000 0.000003
vn -1.000000 -0.000000 0.000003
vn -1.000000 -0.000000 0.000003
vn 0.000000 -1.000000 0.000001
vn 0.000000 -1.000000 0.000001
vn 0.000000 -1.000000 0.000001
vn 0.000000 -1.000000 0.000001
vn 1.000000 0.000000 -0.000000
vn 1.000000 0.000000 -0.000000
vn 1.000000 0.000000 -0.000000
vn 1.000000 0.000000 -0.000000
vn 0.438087 0.898933 -0.000001
vn 0.650173 0.759786 -0.000002
vn 0.650173 0.759786 -0.000002
vn 0.437997 0.898977 -0.000001
vn -0.650483 0.759520 0.000002
vn -0.650483 0.759521 0.000002
vn -0.000000 0.002882 -0.999996
vn 0.002093 -0.002887 -0.999994
vn 0.002242 -0.002803 -0.999994
vn -0.000001 0.002882 -0.999996
vn -0.003757 -0.003776 -0.999986
vn -0.000000 0.000000 -1.000000
vn -0.000000 0.000000 -1.000000
vn -0.003915 -0.003934 -0.999985
vn 0.000000 0.000000 -1.000000
vn 0.000000 0.000000 -1.000000
vn 0.003758 -0.003775 -0.999986
vn 0.003915 -0.003933 -0.999985
vn -0.002092 -0.002886 -0.999994
vn -0.002242 -0.002802 -0.999994
s 1
g Playhouse_Window_Trim
usemtl lambert11SG
f 15/12/1 16/13/2 17/14/3 18/15/4
s off
f 20/16/5 19/17/6 21/18/7 22/19/8
f 23/20/9 21/21/10 19/22/11 24/23/12
f 25/24/13 23/25/14 24/26/15 26/27/16
s 1
f 27/28/17 28/29/18 25/30/19 26/31/20
f 17/14/3 16/13/2 28/29/18 27/28/17
f 22/32/21 15/12/1 18/15/4 20/33/22
s 2
f 14/34/23 13/35/24 10/36/25 9/37/26
s off
f 1/38/27 2/39/28 6/40/29 5/41/30
f 7/42/31 8/43/32 5/44/33 6/45/34
f 3/46/35 4/47/36 8/48/37 7/49/38
s 2
f 11/50/39 4/51/40 3/52/41 12/53/42
f 10/36/25 11/50/39 12/53/42 9/37/26
f 2/54/43 1/55/44 13/35/24 14/34/23
s 3
f 10/1/45 13/2/46 18/3/47 17/4/48
f 1/5/49 5/6/50 19/7/51 20/8/52
f 5/6/50 8/9/53 24/10/54 19/7/51
f 8/9/53 4/11/55 26/56/56 24/10/54
f 4/11/55 11/57/57 27/58/58 26/56/56
f 11/57/57 10/1/45 17/4/48 27/58/58
f 13/2/46 1/5/49 20/8/52 18/3/47
