# This file uses centimeters as units for non-parametric coordinates.

mtllib Seesaw_Issa_1.mtl
g default
v 187.175110 65.220657 -21.169922
v 189.155640 65.499008 -21.169922
v 186.896729 67.201187 -21.169922
v 188.877258 67.479538 -21.169922
v 186.896729 67.201187 -46.169922
v 188.877258 67.479538 -46.169922
v 187.175110 65.220657 -46.169922
v 189.155640 65.499008 -46.169922
v 186.896729 67.201187 -43.462891
v 187.175110 65.220657 -43.462891
v 189.155640 65.499008 -43.462891
v 188.877258 67.479538 -43.462891
v 186.896729 67.201187 -23.876831
v 187.175110 65.220657 -23.876831
v 189.155640 65.499008 -23.876831
v 188.877258 67.479538 -23.876831
v 188.032654 59.118774 -23.876831
v 190.013184 59.397125 -23.876831
v 190.013184 59.397125 -21.169922
v 188.032654 59.118774 -21.169922
v 188.032654 59.118774 -46.169922
v 190.013184 59.397125 -46.169922
v 190.013184 59.397125 -43.462891
v 188.032654 59.118774 -43.462891
v -129.710693 20.685257 -21.169922
v -127.730164 20.963608 -21.169922
v -129.989075 22.665787 -21.169922
v -128.008545 22.944138 -21.169922
v -129.989075 22.665787 -46.169922
v -128.008545 22.944138 -46.169922
v -129.710693 20.685257 -46.169922
v -127.730164 20.963608 -46.169922
v -129.989075 22.665787 -43.462891
v -129.710693 20.685257 -43.462891
v -127.730164 20.963608 -43.462891
v -128.008545 22.944138 -43.462891
v -129.989075 22.665787 -23.876831
v -129.710693 20.685257 -23.876831
v -127.730164 20.963608 -23.876831
v -128.008545 22.944138 -23.876831
v -128.853149 14.583374 -23.876831
v -126.872620 14.861725 -23.876831
v -126.872620 14.861725 -21.169922
v -128.853149 14.583374 -21.169922
v -128.853149 14.583374 -46.169922
v -126.872620 14.861725 -46.169922
v -126.872620 14.861725 -43.462891
v -128.853149 14.583374 -43.462891
v 31.871399 37.214172 -0.355957
v 29.871460 37.214188 -0.355957
v 28.871460 35.482132 -0.355957
v 29.871460 33.750076 -0.355957
v 31.871399 33.750076 -0.355957
v 32.871521 35.482132 -0.355957
v 31.871399 37.214172 0.644043
v 29.871460 37.214188 0.644043
v 28.871460 35.482132 0.644043
v 29.871460 33.750076 0.644043
v 31.871399 33.750076 0.644043
v 32.871521 35.482132 0.644043
v 30.871521 35.482132 0.644043
v 0.000000 0.000000 0.000000
v 60.867859 0.000000 0.000000
v -0.000061 5.999992 0.000000
v 60.867798 5.999992 0.000000
v -0.000061 5.999992 -10.927002
v 60.867798 5.999992 -10.927002
v 0.000000 0.000000 -10.927002
v 60.867859 0.000000 -10.927002
v 22.906982 42.297287 0.000000
v 37.960876 42.297287 0.000000
v 37.960876 42.297287 -10.927002
v 22.906982 42.297287 -10.927002
v -190.895874 -1.178131 -10.927002
v 252.744202 61.171417 -10.927002
v -192.009277 6.744019 -10.927002
v 251.630676 69.093536 -10.927002
v -192.009277 6.744019 -55.927002
v 251.630676 69.093536 -55.927002
v -190.895874 -1.178131 -55.927002
v 252.744202 61.171417 -55.927002
v 38.876221 39.192856 -55.927002
v 39.989685 31.270706 -55.927002
v 39.989685 31.270706 -10.927002
v 38.876221 39.192856 -10.927002
v 20.745239 36.644699 -55.927002
v 21.858704 28.722565 -55.927002
v 21.858704 28.722565 -10.927002
v 20.745239 36.644699 -10.927002
v 28.996338 37.214172 -66.901001
v 30.996338 37.214188 -66.901001
v 31.996338 35.482132 -66.901001
v 30.996338 33.750076 -66.901001
v 28.996338 33.750076 -66.901001
v 27.996399 35.482132 -66.901001
v 28.996338 37.214172 -67.901001
v 30.996338 37.214188 -67.901001
v 31.996338 35.482132 -67.901001
v 30.996338 33.750076 -67.901001
v 28.996338 33.750076 -67.901001
v 27.996399 35.482132 -67.901001
v 29.996338 35.482132 -67.901001
v 60.867859 0.000000 -67.256958
v 0.000000 0.000000 -67.256958
v 60.867798 5.999992 -67.256958
v -0.000061 5.999992 -67.256958
v 60.867798 5.999992 -56.329956
v -0.000061 5.999992 -56.329956
v 60.867859 0.000000 -56.329956
v 0.000000 0.000000 -56.329956
v 37.960876 42.297287 -67.256958
v 22.906982 42.297287 -67.256958
v 22.906982 42.297287 -56.329956
v 37.960876 42.297287 -56.329956
vt 0.375000 0.000000
vt 0.625000 0.000000
vt 0.375000 0.250000
vt 0.625000 0.250000
vt 0.375000 0.500000
vt 0.625000 0.500000
vt 0.375000 0.750000
vt 0.625000 0.750000
vt 0.375000 1.000000
vt 0.625000 1.000000
vt 0.875000 0.000000
vt 0.875000 0.250000
vt 0.125000 0.000000
vt 0.125000 0.250000
vt 0.208333 0.250000
vt 0.375000 0.416667
vt 0.208333 0.000000
vt 0.375000 0.833333
vt 0.625000 0.833333
vt 0.791667 0.000000
vt 0.625000 0.416667
vt 0.791667 0.250000
vt 0.291667 0.250000
vt 0.375000 0.333333
vt 0.291667 0.000000
vt 0.375000 0.916667
vt 0.625000 0.916667
vt 0.708333 0.000000
vt 0.625000 0.333333
vt 0.708333 0.250000
vt 0.375000 0.916667
vt 0.625000 0.916667
vt 0.625000 1.000000
vt 0.375000 1.000000
vt 0.375000 0.750000
vt 0.625000 0.750000
vt 0.625000 0.833333
vt 0.375000 0.833333
vt 0.375000 0.000000
vt 0.625000 0.000000
vt 0.625000 0.250000
vt 0.375000 0.250000
vt 0.625000 0.333333
vt 0.375000 0.333333
vt 0.375000 0.500000
vt 0.625000 0.500000
vt 0.625000 0.750000
vt 0.375000 0.750000
vt 0.708333 0.000000
vt 0.708333 0.250000
vt 0.291667 0.000000
vt 0.291667 0.250000
vt 0.125000 0.000000
vt 0.208333 0.000000
vt 0.208333 0.250000
vt 0.125000 0.250000
vt 0.791667 0.250000
vt 0.791667 0.000000
vt 0.875000 0.000000
vt 0.875000 0.250000
vt 0.375000 0.416667
vt 0.625000 0.416667
vt 0.375000 0.833333
vt 0.625000 0.833333
vt 0.625000 0.916667
vt 0.375000 0.916667
vt 0.625000 0.916667
vt 0.375000 0.916667
vt 0.625000 1.000000
vt 0.625000 1.000000
vt 0.375000 1.000000
vt 0.375000 1.000000
vt 0.625000 0.750000
vt 0.375000 0.750000
vt 0.625000 0.833333
vt 0.375000 0.833333
vt 0.375000 0.312500
vt 0.416667 0.312500
vt 0.416667 0.688440
vt 0.375000 0.688440
vt 0.458333 0.312500
vt 0.458333 0.688440
vt 0.500000 0.312500
vt 0.500000 0.688440
vt 0.541667 0.312500
vt 0.541667 0.688440
vt 0.583333 0.312500
vt 0.583333 0.688440
vt 0.625000 0.312500
vt 0.625000 0.688440
vt 0.578125 0.979066
vt 0.421875 0.979066
vt 0.500000 0.837500
vt 0.343750 0.843750
vt 0.421875 0.708434
vt 0.578125 0.708434
vt 0.656250 0.843750
vt 0.375000 0.000000
vt 0.625000 0.000000
vt 0.625000 0.250000
vt 0.375000 0.250000
vt 0.375000 0.250000
vt 0.625000 0.250000
vt 0.625000 0.500000
vt 0.375000 0.500000
vt 0.375000 0.500000
vt 0.625000 0.500000
vt 0.625000 0.750000
vt 0.375000 0.750000
vt 0.625000 1.000000
vt 0.375000 1.000000
vt 0.875000 0.000000
vt 0.875000 0.250000
vt 0.125000 0.000000
vt 0.125000 0.250000
vt 0.375000 0.000000
vt 0.458333 0.000000
vt 0.458333 0.250000
vt 0.375000 0.250000
vt 0.458333 0.500000
vt 0.375000 0.500000
vt 0.458333 0.750000
vt 0.375000 0.750000
vt 0.458333 1.000000
vt 0.375000 1.000000
vt 0.625000 0.000000
vt 0.875000 0.000000
vt 0.875000 0.250000
vt 0.625000 0.250000
vt 0.125000 0.000000
vt 0.125000 0.250000
vt 0.541667 0.500000
vt 0.625000 0.500000
vt 0.625000 0.750000
vt 0.541667 0.750000
vt 0.541667 1.000000
vt 0.625000 1.000000
vt 0.541667 0.250000
vt 0.541667 0.000000
vt 0.375000 0.312500
vt 0.416667 0.312500
vt 0.416667 0.688440
vt 0.375000 0.688440
vt 0.458333 0.312500
vt 0.458333 0.688440
vt 0.500000 0.312500
vt 0.500000 0.688440
vt 0.541667 0.312500
vt 0.541667 0.688440
vt 0.583333 0.312500
vt 0.583333 0.688440
vt 0.625000 0.312500
vt 0.625000 0.688440
vt 0.578125 0.979066
vt 0.421875 0.979066
vt 0.500000 0.837500
vt 0.343750 0.843750
vt 0.421875 0.708434
vt 0.578125 0.708434
vt 0.656250 0.843750
vt 0.375000 0.000000
vt 0.625000 0.000000
vt 0.625000 0.250000
vt 0.375000 0.250000
vt 0.375000 0.250000
vt 0.625000 0.250000
vt 0.625000 0.500000
vt 0.375000 0.500000
vt 0.375000 0.500000
vt 0.625000 0.500000
vt 0.625000 0.750000
vt 0.375000 0.750000
vt 0.625000 1.000000
vt 0.375000 1.000000
vt 0.875000 0.000000
vt 0.875000 0.250000
vt 0.125000 0.000000
vt 0.125000 0.250000
vn 0.000000 0.000000 1.000000
vn 0.000000 0.000000 1.000000
vn 0.000000 0.000000 1.000000
vn 0.000000 0.000000 1.000000
vn -0.139176 0.990268 0.000000
vn -0.139176 0.990268 0.000000
vn -0.139176 0.990268 0.000000
vn -0.139176 0.990268 0.000000
vn 0.000000 0.000000 -1.000000
vn 0.000000 0.000000 -1.000000
vn 0.000000 0.000000 -1.000000
vn 0.000000 0.000000 -1.000000
vn 0.990265 0.139194 0.000000
vn 0.990266 0.139191 0.000000
vn 0.990266 0.139191 0.000000
vn 0.990265 0.139194 0.000000
vn -0.990266 -0.139190 0.000000
vn -0.990266 -0.139188 0.000000
vn -0.990266 -0.139188 0.000000
vn -0.990266 -0.139190 0.000000
vn -0.990265 -0.139193 0.000000
vn -0.990266 -0.139191 0.000000
vn -0.990266 -0.139191 0.000000
vn -0.990265 -0.139193 0.000000
vn 0.990266 0.139191 0.000000
vn 0.990266 0.139191 0.000000
vn 0.990265 0.139193 0.000000
vn 0.990265 0.139193 0.000000
vn -0.139176 0.990268 0.000000
vn -0.139176 0.990268 0.000000
vn -0.139176 0.990268 0.000000
vn -0.139176 0.990268 0.000000
vn 0.139176 -0.990268 0.000000
vn 0.139176 -0.990268 0.000000
vn 0.139176 -0.990268 0.000000
vn 0.139176 -0.990268 0.000000
vn 0.000000 0.000000 -1.000000
vn 0.000000 0.000000 -1.000000
vn 0.000000 0.000000 -1.000000
vn 0.000000 0.000000 -1.000000
vn 0.990269 0.139170 0.000000
vn 0.990269 0.139170 0.000000
vn 0.990269 0.139170 0.000000
vn 0.990269 0.139170 0.000000
vn 0.000000 0.000000 1.000000
vn 0.000000 0.000000 1.000000
vn 0.000000 0.000000 1.000000
vn 0.000000 0.000000 1.000000
vn -0.990269 -0.139170 0.000000
vn -0.990269 -0.139170 0.000000
vn -0.990269 -0.139170 0.000000
vn -0.990269 -0.139170 0.000000
vn 0.000000 0.000000 -1.000000
vn 0.000000 0.000000 -1.000000
vn 0.000000 0.000000 -1.000000
vn 0.000000 0.000000 -1.000000
vn 0.990268 0.139171 0.000000
vn 0.990268 0.139171 0.000000
vn 0.990268 0.139171 0.000000
vn 0.990268 0.139171 0.000000
vn 0.000000 0.000000 1.000000
vn 0.000000 0.000000 1.000000
vn 0.000000 0.000000 1.000000
vn 0.000000 0.000000 1.000000
vn -0.990268 -0.139171 0.000000
vn -0.990268 -0.139171 0.000000
vn -0.990268 -0.139171 0.000000
vn -0.990268 -0.139171 0.000000
vn 0.000000 0.000000 1.000000
vn 0.000000 0.000000 1.000000
vn 0.000000 0.000000 1.000000
vn 0.000000 0.000000 1.000000
vn -0.139176 0.990268 0.000000
vn -0.139176 0.990268 0.000000
vn -0.139176 0.990268 0.000000
vn -0.139176 0.990268 0.000000
vn 0.000000 0.000000 -1.000000
vn 0.000000 0.000000 -1.000000
vn 0.000000 0.000000 -1.000000
vn 0.000000 0.000000 -1.000000
vn 0.990266 0.139188 0.000000
vn 0.990266 0.139190 0.000000
vn 0.990266 0.139190 0.000000
vn 0.990266 0.139188 0.000000
vn -0.990266 -0.139190 0.000000
vn -0.990266 -0.139188 0.000000
vn -0.990266 -0.139188 0.000000
vn -0.990266 -0.139190 0.000000
vn -0.990265 -0.139193 0.000000
vn -0.990266 -0.139191 0.000000
vn -0.990266 -0.139191 0.000000
vn -0.990265 -0.139193 0.000000
vn 0.990266 0.139191 0.000000
vn 0.990266 0.139191 0.000000
vn 0.990265 0.139193 0.000000
vn 0.990265 0.139193 0.000000
vn -0.139176 0.990268 0.000000
vn -0.139176 0.990268 0.000000
vn -0.139176 0.990268 0.000000
vn -0.139176 0.990268 0.000000
vn 0.139176 -0.990268 0.000000
vn 0.139176 -0.990268 0.000000
vn 0.139176 -0.990268 0.000000
vn 0.139176 -0.990268 0.000000
vn 0.000000 0.000000 -1.000000
vn 0.000000 0.000000 -1.000000
vn 0.000000 0.000000 -1.000000
vn 0.000000 0.000000 -1.000000
vn 0.990268 0.139171 0.000000
vn 0.990268 0.139171 0.000000
vn 0.990268 0.139171 0.000000
vn 0.990268 0.139171 0.000000
vn 0.000000 0.000000 1.000000
vn 0.000000 0.000000 1.000000
vn 0.000000 0.000000 1.000000
vn 0.000000 0.000000 1.000000
vn -0.990268 -0.139171 0.000000
vn -0.990268 -0.139171 0.000000
vn -0.990268 -0.139171 0.000000
vn -0.990268 -0.139171 0.000000
vn 0.000000 0.000000 -1.000000
vn 0.000000 0.000000 -1.000000
vn 0.000000 0.000000 -1.000000
vn 0.000000 0.000000 -1.000000
vn 0.990269 0.139169 0.000000
vn 0.990269 0.139169 0.000000
vn 0.990269 0.139169 0.000000
vn 0.990269 0.139169 0.000000
vn 0.000000 0.000000 1.000000
vn 0.000000 0.000000 1.000000
vn 0.000000 0.000000 1.000000
vn 0.000000 0.000000 1.000000
vn -0.990269 -0.139169 0.000000
vn -0.990269 -0.139169 0.000000
vn -0.990269 -0.139169 0.000000
vn -0.990269 -0.139169 0.000000
vn 0.000008 1.000000 0.000000
vn 0.000008 1.000000 0.000000
vn 0.000008 1.000000 0.000000
vn 0.000008 1.000000 0.000000
vn -0.866026 0.499999 0.000000
vn -0.866026 0.499999 0.000000
vn -0.866026 0.499999 0.000000
vn -0.866026 0.499999 0.000000
vn -0.866026 -0.499999 0.000000
vn -0.866026 -0.499999 0.000000
vn -0.866026 -0.499999 0.000000
vn -0.866026 -0.499999 0.000000
vn 0.000000 -1.000000 0.000000
vn 0.000000 -1.000000 0.000000
vn 0.000000 -1.000000 0.000000
vn 0.000000 -1.000000 0.000000
vn 0.866000 -0.500045 0.000000
vn 0.866000 -0.500045 0.000000
vn 0.866000 -0.500045 0.000000
vn 0.866000 -0.500045 0.000000
vn 0.865998 0.500048 0.000000
vn 0.865998 0.500048 0.000000
vn 0.865998 0.500048 0.000000
vn 0.865998 0.500048 0.000000
vn 0.000000 0.000000 1.000000
vn 0.000000 0.000000 1.000000
vn 0.000000 0.000000 1.000000
vn 0.000000 0.000000 1.000000
vn 0.000000 0.000000 1.000000
vn 0.000000 0.000000 1.000000
vn 0.000000 0.000000 1.000000
vn 0.000000 0.000000 1.000000
vn 0.000000 0.000000 1.000000
vn 0.000000 0.000000 1.000000
vn 0.000000 0.000000 1.000000
vn 0.000000 1.000000 0.000000
vn 0.000000 1.000000 0.000000
vn 0.000000 1.000000 0.000000
vn 0.000000 1.000000 0.000000
vn 0.000000 0.000000 -1.000000
vn 0.000000 0.000000 -1.000000
vn 0.000000 0.000000 -1.000000
vn 0.000000 0.000000 -1.000000
vn 0.000000 -1.000000 0.000000
vn 0.000000 -1.000000 0.000000
vn 0.000000 -1.000000 0.000000
vn 0.000000 -1.000000 0.000000
vn 1.000000 0.000010 0.000000
vn 1.000000 0.000010 0.000000
vn 1.000000 0.000010 0.000000
vn 1.000000 0.000010 0.000000
vn -1.000000 -0.000010 0.000000
vn -1.000000 -0.000010 0.000000
vn -1.000000 -0.000010 0.000000
vn -1.000000 -0.000010 0.000000
vn 0.000000 0.000000 1.000000
vn 0.000000 0.000000 1.000000
vn 0.000000 0.000000 1.000000
vn 0.000000 0.000000 1.000000
vn 0.845675 0.533698 0.000000
vn 0.845675 0.533698 0.000000
vn 0.845675 0.533698 0.000000
vn 0.845675 0.533698 0.000000
vn 0.000000 0.000000 -1.000000
vn 0.000000 0.000000 -1.000000
vn 0.000000 0.000000 -1.000000
vn 0.000000 0.000000 -1.000000
vn -0.845674 0.533700 0.000000
vn -0.845674 0.533700 0.000000
vn -0.845674 0.533700 0.000000
vn -0.845674 0.533700 0.000000
vn 0.000000 0.000000 1.000000
vn 0.000000 0.000000 1.000000
vn 0.000000 0.000000 1.000000
vn 0.000000 0.000000 1.000000
vn -0.139173 0.990268 0.000000
vn -0.139173 0.990268 0.000000
vn -0.139173 0.990268 0.000000
vn -0.139173 0.990268 0.000000
vn -0.000000 0.000000 -1.000000
vn -0.000000 0.000000 -1.000000
vn -0.000000 0.000000 -1.000000
vn -0.000000 0.000000 -1.000000
vn 0.139173 -0.990268 0.000000
vn 0.139173 -0.990268 0.000000
vn 0.139173 -0.990268 0.000000
vn 0.139173 -0.990268 0.000000
vn 0.990266 0.139190 0.000000
vn 0.990266 0.139190 0.000000
vn 0.990266 0.139190 0.000000
vn 0.990266 0.139190 0.000000
vn -0.990268 -0.139176 0.000000
vn -0.990268 -0.139176 0.000000
vn -0.990268 -0.139176 0.000000
vn -0.990268 -0.139176 0.000000
vn 0.000000 0.000000 -1.000000
vn 0.000000 0.000000 -1.000000
vn 0.000000 0.000000 -1.000000
vn 0.000000 0.000000 -1.000000
vn 0.139173 -0.990268 0.000000
vn 0.139173 -0.990268 0.000000
vn 0.139173 -0.990268 0.000000
vn 0.139173 -0.990268 0.000000
vn 0.000000 0.000000 1.000000
vn 0.000000 0.000000 1.000000
vn 0.000000 0.000000 1.000000
vn 0.000000 0.000000 1.000000
vn -0.139173 0.990268 0.000000
vn -0.139173 0.990268 0.000000
vn -0.139173 0.990268 0.000000
vn -0.139173 0.990268 0.000000
vn -0.000008 1.000000 0.000000
vn -0.000008 1.000000 0.000000
vn -0.000008 1.000000 0.000000
vn -0.000008 1.000000 0.000000
vn 0.866026 0.499999 0.000000
vn 0.866026 0.499999 0.000000
vn 0.866026 0.499999 0.000000
vn 0.866026 0.499999 0.000000
vn 0.866026 -0.499999 0.000000
vn 0.866026 -0.499999 0.000000
vn 0.866026 -0.499999 0.000000
vn 0.866026 -0.499999 0.000000
vn 0.000000 -1.000000 0.000000
vn 0.000000 -1.000000 0.000000
vn 0.000000 -1.000000 0.000000
vn 0.000000 -1.000000 0.000000
vn -0.866039 -0.499976 0.000000
vn -0.866039 -0.499976 0.000000
vn -0.866039 -0.499976 0.000000
vn -0.866039 -0.499976 0.000000
vn -0.866037 0.499979 0.000000
vn -0.866037 0.499979 0.000000
vn -0.866037 0.499979 0.000000
vn -0.866037 0.499979 0.000000
vn 0.000000 0.000000 -1.000000
vn 0.000000 0.000000 -1.000000
vn 0.000000 0.000000 -1.000000
vn 0.000000 0.000000 -1.000000
vn 0.000000 0.000000 -1.000000
vn 0.000000 0.000000 -1.000000
vn 0.000000 0.000000 -1.000000
vn 0.000000 0.000000 -1.000000
vn 0.000000 0.000000 -1.000000
vn 0.000000 0.000000 -1.000000
vn 0.000000 0.000000 -1.000000
vn 0.000000 1.000000 0.000000
vn 0.000000 1.000000 0.000000
vn 0.000000 1.000000 0.000000
vn 0.000000 1.000000 0.000000
vn 0.000000 0.000000 1.000000
vn 0.000000 0.000000 1.000000
vn 0.000000 0.000000 1.000000
vn 0.000000 0.000000 1.000000
vn 0.000000 -1.000000 0.000000
vn 0.000000 -1.000000 0.000000
vn 0.000000 -1.000000 0.000000
vn 0.000000 -1.000000 0.000000
vn -1.000000 -0.000010 0.000000
vn -1.000000 -0.000010 0.000000
vn -1.000000 -0.000010 0.000000
vn -1.000000 -0.000010 0.000000
vn 1.000000 0.000010 0.000000
vn 1.000000 0.000010 0.000000
vn 1.000000 0.000010 0.000000
vn 1.000000 0.000010 0.000000
vn 0.000000 0.000000 -1.000000
vn 0.000000 0.000000 -1.000000
vn 0.000000 0.000000 -1.000000
vn 0.000000 0.000000 -1.000000
vn -0.845674 0.533700 0.000000
vn -0.845674 0.533700 0.000000
vn -0.845674 0.533700 0.000000
vn -0.845674 0.533700 0.000000
vn 0.000000 0.000000 1.000000
vn 0.000000 0.000000 1.000000
vn 0.000000 0.000000 1.000000
vn 0.000000 0.000000 1.000000
vn 0.845675 0.533698 0.000000
vn 0.845675 0.533698 0.000000
vn 0.845675 0.533698 0.000000
vn 0.845675 0.533698 0.000000
s off
g Seesaw
usemtl lambert27SG
f 1/1/1 2/2/2 4/4/3 3/3/4
s 1
f 3/3/5 4/4/6 16/29/7 13/24/8
s off
f 5/5/9 6/6/10 8/8/11 7/7/12
s 2
f 2/2/13 15/28/14 16/30/15 4/4/16
s 3
f 14/25/17 1/1/18 3/3/19 13/23/20
f 7/13/21 10/17/22 9/15/23 5/14/24
s 2
f 12/22/25 11/20/26 8/11/27 6/12/28
s 1
f 9/16/29 12/21/30 6/6/31 5/5/32
s 3
f 10/17/22 14/25/17 13/23/20 9/15/23
s off
f 10/18/33 11/19/34 15/27/35 14/26/36
s 2
f 16/30/15 15/28/14 11/20/26 12/22/25
s 1
f 13/24/8 16/29/7 12/21/30 9/16/29
s off
f 14/26/37 15/27/38 18/32/39 17/31/40
f 15/27/41 2/10/42 19/33/43 18/32/44
f 2/10/45 1/9/46 20/34/47 19/33/48
f 1/9/49 14/26/50 17/31/51 20/34/52
f 7/7/53 8/8/54 22/36/55 21/35/56
f 8/8/57 11/19/58 23/37/59 22/36/60
f 11/19/61 10/18/62 24/38/63 23/37/64
f 10/18/65 7/7/66 21/35/67 24/38/68
f 25/39/69 26/40/70 28/41/71 27/42/72
s 4
f 27/42/73 28/41/74 40/43/75 37/44/76
s off
f 29/45/77 30/46/78 32/47/79 31/48/80
s 5
f 26/40/81 39/49/82 40/50/83 28/41/84
s 6
f 38/51/85 25/39/86 27/42/87 37/52/88
f 31/53/89 34/54/90 33/55/91 29/56/92
s 5
f 36/57/93 35/58/94 32/59/95 30/60/96
s 4
f 33/61/97 36/62/98 30/46/99 29/45/100
s 6
f 34/54/90 38/51/85 37/52/88 33/55/91
s off
f 34/63/101 35/64/102 39/65/103 38/66/104
s 5
f 40/50/83 39/49/82 35/58/94 36/57/93
s 4
f 37/44/76 40/43/75 36/62/98 33/61/97
s off
f 38/66/105 39/65/106 42/67/107 41/68/108
f 39/65/109 26/69/110 43/70/111 42/67/112
f 26/69/113 25/71/114 44/72/115 43/70/116
f 25/71/117 38/66/118 41/68/119 44/72/120
f 31/48/121 32/47/122 46/73/123 45/74/124
f 32/47/125 35/64/126 47/75/127 46/73/128
f 35/64/129 34/63/130 48/76/131 47/75/132
f 34/63/133 31/48/134 45/74/135 48/76/136
f 49/77/137 50/78/138 56/79/139 55/80/140
f 50/78/141 51/81/142 57/82/143 56/79/144
f 51/81/145 52/83/146 58/84/147 57/82/148
f 52/83/149 53/85/150 59/86/151 58/84/152
f 53/85/153 54/87/154 60/88/155 59/86/156
f 54/87/157 49/89/158 55/90/159 60/88/160
s 7
f 55/91/161 56/92/162 61/93/163
f 56/92/162 57/94/164 61/93/163
f 57/94/164 58/95/165 61/93/163
f 58/95/165 59/96/166 61/93/163
f 59/96/166 60/97/167 61/93/163
f 60/97/167 55/91/161 61/93/163
s off
f 62/98/168 63/99/169 65/100/170 64/101/171
f 70/102/172 71/103/173 72/104/174 73/105/175
f 66/106/176 67/107/177 69/108/178 68/109/179
f 68/109/180 69/108/181 63/110/182 62/111/183
f 63/99/184 69/112/185 67/113/186 65/100/187
f 68/114/188 62/98/189 64/101/190 66/115/191
f 64/101/192 65/100/193 71/103/194 70/102/195
f 65/100/196 67/107/197 72/104/198 71/103/199
f 67/107/200 66/106/201 73/105/202 72/104/203
f 66/106/204 64/101/205 70/102/206 73/105/207
s 8
f 74/116/208 88/117/209 89/118/210 76/119/211
s 9
f 76/119/212 89/118/213 86/120/214 78/121/215
s 10
f 78/121/216 86/120/217 87/122/218 80/123/219
s 11
f 80/123/220 87/122/221 88/124/222 74/125/223
s off
f 75/126/224 81/127/225 79/128/226 77/129/227
f 80/130/228 74/116/229 76/119/230 78/131/231
s 10
f 82/132/232 79/133/233 81/134/234 83/135/235
s 11
f 84/136/236 83/135/237 81/134/238 75/137/239
s 8
f 85/138/240 84/139/241 75/126/242 77/129/243
s 9
f 82/132/244 85/138/245 77/129/246 79/133/247
s 10
f 86/120/217 82/132/232 83/135/235 87/122/218
s 11
f 88/124/222 87/122/221 83/135/237 84/136/236
s 8
f 89/118/210 88/117/209 84/139/241 85/138/240
s 9
f 86/120/214 89/118/213 85/138/245 82/132/244
s off
f 90/140/248 91/141/249 97/142/250 96/143/251
f 91/141/252 92/144/253 98/145/254 97/142/255
f 92/144/256 93/146/257 99/147/258 98/145/259
f 93/146/260 94/148/261 100/149/262 99/147/263
f 94/148/264 95/150/265 101/151/266 100/149/267
f 95/150/268 90/152/269 96/153/270 101/151/271
s 12
f 96/154/272 97/155/273 102/156/274
f 97/155/273 98/157/275 102/156/274
f 98/157/275 99/158/276 102/156/274
f 99/158/276 100/159/277 102/156/274
f 100/159/277 101/160/278 102/156/274
f 101/160/278 96/154/272 102/156/274
s off
f 103/161/279 104/162/280 106/163/281 105/164/282
f 111/165/283 112/166/284 113/167/285 114/168/286
f 107/169/287 108/170/288 110/171/289 109/172/290
f 109/172/291 110/171/292 104/173/293 103/174/294
f 104/162/295 110/175/296 108/176/297 106/163/298
f 109/177/299 103/161/300 105/164/301 107/178/302
f 105/164/303 106/163/304 112/166/305 111/165/306
f 106/163/307 108/170/308 113/167/309 112/166/310
f 108/170/311 107/169/312 114/168/313 113/167/314
f 107/169/315 105/164/316 111/165/317 114/168/318
