# This file uses centimeters as units for non-parametric coordinates.

mtllib short_upsidedown_topiary_er_2.mtl
g default
v -16.000000 0.000000 16.000000
v 0.000000 0.000000 16.000000
v -16.000000 10.906985 16.000000
v 0.000000 10.906985 16.000000
v -16.000000 10.906985 0.000000
v 0.000000 10.906985 0.000000
v -16.000000 0.000000 0.000000
v 0.000000 0.000000 0.000000
v -18.596336 9.359786 29.357224
v -29.152985 9.359786 18.800575
v -29.866837 44.452869 40.398117
v -40.157120 44.452869 30.104866
v 13.077847 9.359786 18.800575
v 2.521194 9.359786 29.357224
v 13.791702 44.452869 40.398117
v 24.081989 44.452869 30.104866
v -48.075134 71.041206 -21.443359
v -37.518486 71.057671 -32.000000
v -29.868347 44.452869 -24.055542
v -40.157120 44.452869 -13.763809
v 21.443348 71.057671 -32.000000
v 32.000000 71.041206 -21.443359
v 24.081989 44.452869 -13.763809
v 13.793217 44.452869 -24.055542
v -37.518486 70.932350 48.342575
v -48.075134 70.948814 37.785934
v -29.152985 9.359786 -2.458000
v -18.596336 9.359786 -13.014648
v 2.521194 9.359786 -13.014648
v 13.077847 9.359786 -2.458000
v 32.000000 70.948814 37.785934
v 21.443348 70.932350 48.342575
vt 0.295038 0.776749
vt 0.295038 0.699067
vt 0.347993 0.699067
vt 0.347993 0.776749
vt 0.355093 0.776749
vt 0.355093 0.699067
vt 0.408048 0.699067
vt 0.408048 0.776749
vt 0.415148 0.776749
vt 0.415148 0.699067
vt 0.468103 0.699067
vt 0.468103 0.776749
vt 0.475203 0.776749
vt 0.475203 0.699067
vt 0.528158 0.699067
vt 0.528158 0.776749
vt 0.178146 0.098684
vt 0.177436 0.285411
vt 0.020641 0.236854
vt 0.021028 0.145946
vt 0.294807 0.318809
vt 0.296250 0.066613
vt 0.173199 0.344105
vt 0.015554 0.297326
vt 0.016498 0.083936
vt 0.174426 0.038436
vt 0.290194 0.379149
vt 0.292530 0.004605
vt 0.478650 0.096874
vt 0.483458 0.294436
vt 0.316425 0.247409
vt 0.314173 0.151528
vt 0.602570 0.059061
vt 0.609278 0.326546
vt 0.316433 0.312446
vt 0.484245 0.357800
vt 0.311188 0.087421
vt 0.476605 0.034292
vt 0.609820 0.391890
vt 0.600064 -0.005381
vt 0.196257 0.699067
vt 0.250976 0.869447
vt 0.039010 0.869447
vt 0.093729 0.699067
vt 0.288126 0.998008
vt 0.001860 0.998008
vt 0.500255 0.524959
vt 0.445528 0.695340
vt 0.343000 0.695340
vt 0.288273 0.524959
vt 0.537397 0.395790
vt 0.251131 0.395790
vt 0.594379 0.395790
vt 0.880645 0.395790
vt 0.880645 0.785862
vt 0.594379 0.785862
vt 0.931899 0.447044
vt 0.931899 0.734608
vt 0.543126 0.734608
vt 0.543126 0.447044
vn 0.000000 0.000000 1.000000
vn 0.000000 0.000000 1.000000
vn 0.000000 0.000000 1.000000
vn 0.000000 0.000000 1.000000
vn 0.000000 0.000000 -1.000000
vn 0.000000 0.000000 -1.000000
vn 0.000000 0.000000 -1.000000
vn 0.000000 0.000000 -1.000000
vn 1.000000 0.000000 0.000000
vn 1.000000 0.000000 0.000000
vn 1.000000 0.000000 0.000000
vn 1.000000 0.000000 0.000000
vn -1.000000 0.000000 0.000000
vn -1.000000 0.000000 0.000000
vn -1.000000 0.000000 0.000000
vn -1.000000 0.000000 0.000000
vn 0.956793 -0.290770 -0.000162
vn 0.956793 -0.290769 -0.000162
vn 0.954189 -0.299205 0.000000
vn 0.954189 -0.299205 0.000000
vn 0.958269 -0.285869 -0.000256
vn 0.958269 -0.285869 -0.000256
vn 0.648464 -0.399094 0.648242
vn 0.644984 -0.410010 0.644893
vn 0.644984 -0.410010 0.644893
vn 0.648461 -0.399106 0.648239
vn 0.644977 -0.410034 -0.644885
vn 0.648517 -0.398501 -0.648554
vn 0.648513 -0.398514 -0.648551
vn 0.644977 -0.410034 -0.644886
vn -0.956793 -0.290769 -0.000162
vn -0.956793 -0.290770 -0.000162
vn -0.954189 -0.299205 0.000000
vn -0.954189 -0.299205 0.000000
vn -0.648461 -0.399106 0.648239
vn -0.644985 -0.410010 0.644893
vn -0.644985 -0.410010 0.644893
vn -0.648464 -0.399094 0.648242
vn 0.000000 -0.300115 0.953903
vn 0.000000 -0.292059 0.956400
vn 0.000000 -0.292059 0.956400
vn 0.000000 -0.300115 0.953903
vn 0.000000 -0.291262 -0.956643
vn 0.000000 -0.300114 -0.953903
vn 0.000000 -0.300115 -0.953903
vn 0.000000 -0.291262 -0.956643
vn -0.958269 -0.285869 -0.000256
vn -0.958269 -0.285869 -0.000256
vn 0.000000 -0.286126 -0.958192
vn 0.000000 -0.286126 -0.958192
vn 0.000000 -0.287368 0.957820
vn 0.000000 -0.287368 0.957820
vn 0.000000 0.999999 0.001560
vn 0.000000 0.999999 0.001560
vn 0.000000 0.999999 0.001560
vn 0.000000 0.999999 0.001560
vn -0.652977 -0.384396 0.652580
vn -0.652977 -0.384396 0.652580
vn 0.652977 -0.384396 0.652581
vn 0.652977 -0.384396 0.652581
vn -0.653077 -0.383023 -0.653287
vn -0.653077 -0.383023 -0.653287
vn -0.648517 -0.398501 -0.648554
vn -0.648513 -0.398514 -0.648551
vn -0.644977 -0.410033 -0.644886
vn -0.644977 -0.410033 -0.644886
vn 0.653077 -0.383022 -0.653287
vn 0.653077 -0.383022 -0.653287
vn 0.000000 0.999999 0.001560
vn 0.000000 0.999999 0.001560
vn 0.000000 0.999999 0.001560
vn 0.000000 0.999999 0.001560
vn 0.000000 0.999999 0.001560
vn 0.000000 0.999999 0.001560
vn 0.000000 0.999999 0.001560
vn 0.000000 0.999999 0.001560
s off
g short_upsidedown_topiary_er_2
usemtl lambert2SG
f 1/1/1 2/2/2 4/3/3 3/4/4
f 5/5/5 6/6/6 8/7/7 7/8/8
f 2/9/9 8/10/10 6/11/11 4/12/12
f 7/13/13 1/14/14 3/15/15 5/16/16
s 1
f 23/17/17 16/18/18 13/19/19 30/20/20
f 31/21/21 16/18/18 23/17/17 22/22/22
s 2
f 15/23/23 14/24/24 13/19/25 16/18/26
s 3
f 29/25/27 24/26/28 23/17/29 30/20/30
s 4
f 12/29/31 20/30/32 27/31/33 10/32/34
s 5
f 12/29/35 10/32/36 9/37/37 11/38/38
s 6
f 14/41/39 15/42/40 11/43/41 9/44/42
s 7
f 24/47/43 29/48/44 28/49/45 19/50/46
s 4
f 26/33/47 17/34/48 20/30/32 12/29/31
s 7
f 21/51/49 24/47/43 19/50/46 18/52/50
s 6
f 15/42/40 32/45/51 25/46/52 11/43/41
s off
f 25/53/53 32/54/54 21/55/55 18/56/56
s 5
f 25/40/57 26/33/58 12/29/35 11/38/38
s 2
f 31/21/59 32/27/60 15/23/23 16/18/26
s 8
f 17/34/61 18/39/62 19/36/63 20/30/64
f 28/35/65 27/31/66 20/30/64 19/36/63
s 3
f 24/26/28 21/28/67 22/22/68 23/17/29
s off
f 32/54/69 31/57/70 22/58/71 21/55/72
f 25/53/73 18/56/74 17/59/75 26/60/76
