# This file uses centimeters as units for non-parametric coordinates.

mtllib Slide_Issa_1.mtl
g default
v -1.463226 -85.784309 247.207733
v -33.463226 -85.784309 247.207733
v 0.000000 -87.051949 244.596436
v -35.361465 -87.046326 244.608063
v -49.463226 -73.681694 272.138153
v -52.968155 -74.508171 270.435699
v 14.536774 -73.681686 272.138153
v 17.754761 -74.519417 270.412415
v 17.754761 -107.052063 291.553375
v 14.536774 -105.815430 293.019897
v -1.463226 -123.680771 271.834290
v -33.463226 -123.680771 271.834290
v -49.463226 -105.815445 293.019897
v -52.968155 -107.035439 291.573181
v -35.361465 -125.543701 269.625122
v 0.000000 -125.552017 269.615234
v 17.754761 -133.381973 320.049866
v 14.536774 -131.822464 321.166962
v -1.463226 -154.351776 305.029114
v -33.463226 -154.351776 305.029114
v -49.463226 -131.822479 321.166931
v -52.968155 -133.360962 320.064941
v -35.361465 -156.701065 303.346313
v 0.000000 -156.711578 303.338806
v 17.754761 -151.889801 354.149353
v 14.536774 -150.103333 354.848267
v -1.463226 -175.911072 344.750702
v -33.463226 -175.911072 344.750702
v -49.463226 -150.103348 354.848267
v -52.968155 -151.865707 354.158752
v -35.361465 -178.602203 343.697754
v 0.000000 -178.614258 343.693115
v 17.754761 -161.437286 391.754639
v 14.536774 -159.533783 391.992493
v -1.463226 -187.032715 388.556213
v -33.463226 -187.032715 388.556213
v -49.463226 -159.533783 391.992493
v -52.968155 -161.411636 391.757843
v -35.361465 -189.900223 388.197876
v 0.000000 -189.913040 388.196289
v 17.754761 -162.644669 432.267639
v 14.536774 -160.726349 432.267639
v -1.463226 -188.439163 432.267639
v -33.463226 -188.439163 432.267639
v -49.463226 -160.726364 432.267639
v -52.968155 -162.618820 432.267548
v -35.361465 -191.328964 432.267548
v 0.000000 -191.341888 432.267548
v -33.898239 -85.789917 247.196106
v -1.898239 -85.789917 247.196106
v -35.361465 -87.057610 244.584808
v 14.101761 -73.687302 272.126526
v 17.606689 -74.513763 270.424072
v -49.898239 -73.687294 272.126526
v -53.116226 -74.525093 270.400818
v -53.116226 -36.423935 245.641235
v -49.898239 -35.187225 247.107727
v -33.898239 -53.052567 225.922119
v -1.898239 -53.052567 225.922119
v 14.101761 -35.187241 247.107697
v 17.606689 -36.407227 245.660980
v 0.000000 -54.915512 223.712952
v -35.361465 -54.923859 223.703094
v -53.116226 -5.587204 212.267090
v -49.898239 -4.027695 213.384155
v -33.898239 -26.557022 197.246338
v -1.898239 -26.557022 197.246338
v 14.101761 -4.027710 213.384155
v 17.606689 -5.566193 212.282135
v 0.000000 -28.906311 195.563538
v -35.361465 -28.916809 195.556000
v -53.116226 16.088547 172.330872
v -49.898239 17.874969 173.029907
v -33.898239 -7.932755 162.932312
v -1.898239 -7.932755 162.932312
v 14.101761 17.874954 173.029907
v 17.606689 16.112595 172.340363
v 0.000000 -10.623901 161.879395
v -35.361465 -10.635925 161.874634
v -53.116226 27.270248 128.288818
v -49.898239 29.173767 128.526672
v -33.898239 1.674820 125.090393
v -1.898239 1.674820 125.090393
v 14.101761 29.173752 128.526672
v 17.606689 27.295898 128.292023
v 0.000000 -1.192673 124.732056
v -35.361465 -1.205505 124.730469
v -53.116226 28.684296 84.455322
v -49.898239 30.602615 84.455322
v -33.898239 2.889801 84.455322
v -1.898239 2.889801 84.455322
v 14.101761 30.602600 84.455322
v 17.606689 28.710144 84.455383
v 0.000000 0.000000 84.455383
v -35.361465 -0.012924 84.455383
v -53.116226 28.684296 42.227844
v -49.898239 30.602615 42.227844
v -33.898239 2.889801 42.227844
v -1.898239 2.889801 42.227844
v 14.101761 30.602600 42.227844
v 17.606689 28.710144 42.227844
v 0.000000 0.000000 42.227844
v -35.361465 -0.012924 42.227844
v -53.116226 28.684296 0.000671
v -49.898239 30.602615 0.000000
v -33.898239 2.889801 0.000000
v -1.898239 2.889801 0.000000
v 14.101761 30.602600 0.000000
v 17.606689 28.710144 -0.000122
v 0.000000 0.000000 0.000000
v -35.361465 -0.012924 0.000671
vt 0.416667 0.688440
vt 0.375000 0.688440
vt 0.375000 0.688440
vt 0.416667 0.688440
vt 0.458333 0.688440
vt 0.458333 0.688440
vt 0.625000 0.688440
vt 0.583333 0.688440
vt 0.583333 0.688440
vt 0.625000 0.688440
vt 0.583333 0.688440
vt 0.583333 0.688440
vt 0.375000 0.688440
vt 0.625000 0.688440
vt 0.416667 0.688440
vt 0.458333 0.688440
vt 0.458333 0.688440
vt 0.416667 0.688440
vt 0.625000 0.688440
vt 0.375000 0.688440
vt 0.583333 0.688440
vt 0.583333 0.688440
vt 0.375000 0.688440
vt 0.625000 0.688440
vt 0.416667 0.688440
vt 0.458333 0.688440
vt 0.458333 0.688440
vt 0.416667 0.688440
vt 0.625000 0.688440
vt 0.375000 0.688440
vt 0.583333 0.688440
vt 0.583333 0.688440
vt 0.375000 0.688440
vt 0.625000 0.688440
vt 0.416667 0.688440
vt 0.458333 0.688440
vt 0.458333 0.688440
vt 0.416667 0.688440
vt 0.625000 0.688440
vt 0.375000 0.688440
vt 0.583333 0.688440
vt 0.583333 0.688440
vt 0.375000 0.688440
vt 0.625000 0.688440
vt 0.416667 0.688440
vt 0.458333 0.688440
vt 0.458333 0.688440
vt 0.416667 0.688440
vt 0.625000 0.688440
vt 0.375000 0.688440
vt 0.583333 0.688440
vt 0.583333 0.688440
vt 0.375000 0.688440
vt 0.625000 0.688440
vt 0.416667 0.688440
vt 0.458333 0.688440
vt 0.458333 0.688440
vt 0.416667 0.688440
vt 0.625000 0.688440
vt 0.375000 0.688440
vt 0.416667 0.688440
vt 0.375000 0.688440
vt 0.375000 0.688440
vt 0.416667 0.688440
vt 0.458333 0.688440
vt 0.458333 0.688440
vt 0.625000 0.688440
vt 0.583333 0.688440
vt 0.583333 0.688440
vt 0.625000 0.688440
vt 0.583333 0.688440
vt 0.583333 0.688440
vt 0.625000 0.688440
vt 0.416667 0.688440
vt 0.375000 0.688440
vt 0.458333 0.688440
vt 0.458333 0.688440
vt 0.416667 0.688440
vt 0.375000 0.688440
vt 0.625000 0.688440
vt 0.583333 0.688440
vt 0.583333 0.688440
vt 0.625000 0.688440
vt 0.416667 0.688440
vt 0.375000 0.688440
vt 0.458333 0.688440
vt 0.458333 0.688440
vt 0.416667 0.688440
vt 0.375000 0.688440
vt 0.625000 0.688440
vt 0.583333 0.688440
vt 0.583333 0.688440
vt 0.625000 0.688440
vt 0.416667 0.688440
vt 0.375000 0.688440
vt 0.458333 0.688440
vt 0.458333 0.688440
vt 0.416667 0.688440
vt 0.375000 0.688440
vt 0.625000 0.688440
vt 0.583333 0.688440
vt 0.583333 0.688440
vt 0.625000 0.688440
vt 0.416667 0.688440
vt 0.375000 0.688440
vt 0.458333 0.688440
vt 0.458333 0.688440
vt 0.416667 0.688440
vt 0.375000 0.688440
vt 0.625000 0.688440
vt 0.583333 0.688440
vt 0.583333 0.688440
vt 0.625000 0.688440
vt 0.416667 0.688440
vt 0.375000 0.688440
vt 0.458333 0.688440
vt 0.458333 0.688440
vt 0.416667 0.688440
vt 0.375000 0.688440
vt 0.625000 0.688440
vt 0.583333 0.688440
vt 0.583333 0.688440
vt 0.625000 0.688440
vt 0.416667 0.688440
vt 0.375000 0.688440
vt 0.458333 0.688440
vt 0.458333 0.688440
vt 0.416667 0.688440
vt 0.375000 0.688440
vt 0.625000 0.688440
vt 0.583333 0.688440
vt 0.583333 0.688440
vt 0.625000 0.688440
vt 0.416667 0.688440
vt 0.375000 0.688440
vt 0.458333 0.688440
vt 0.458333 0.688440
vt 0.416667 0.688440
vt 0.375000 0.688440
vt 0.625000 0.688440
vt 0.000000 0.000000
vt 1.000000 0.000000
vt 0.958591 0.082072
vt 0.053651 0.081741
vt 0.000000 0.000000
vt 1.000000 0.000000
vt 0.956320 0.092904
vt 0.006504 0.118091
vt 0.000000 0.000000
vt 0.947244 0.000000
vt 1.000000 0.080473
vt 0.001549 0.110887
vt 0.000000 0.000000
vt 0.947244 0.000000
vt 1.000000 0.080473
vt 0.001549 0.110887
vt 0.041379 0.082087
vt 0.946319 0.082087
vt 1.000000 0.000365
vt 0.000000 0.000000
vt 0.046144 0.000000
vt 0.996627 0.000000
vt 1.000000 0.118264
vt 0.000000 0.091746
vn -0.000000 0.899601 -0.436713
vn -0.000004 0.899602 -0.436710
vn -0.000004 0.899602 -0.436710
vn -0.000000 0.899601 -0.436713
vn -0.000000 0.899600 -0.436716
vn -0.000000 0.899600 -0.436716
vn -0.000007 0.899602 -0.436711
vn -0.000007 0.899602 -0.436711
vn 0.512046 0.553736 0.656647
vn 0.512046 0.553735 0.656648
vn 0.509121 0.468987 0.721698
vn 0.509121 0.468987 0.721698
vn -0.866026 0.322330 0.382235
vn -0.866026 0.322330 0.382235
vn -0.864340 0.274031 0.421691
vn -0.864340 0.274031 0.421691
vn 0.000000 0.644660 0.764470
vn 0.000000 0.644660 0.764470
vn 0.000000 0.544893 0.838506
vn 0.000000 0.544893 0.838506
vn 0.866025 0.322330 0.382235
vn 0.866025 0.322330 0.382235
vn 0.864340 0.274031 0.421691
vn 0.864340 0.274031 0.421691
vn -0.475105 0.567255 0.672679
vn -0.475105 0.567255 0.672679
vn -0.472260 0.480301 0.739109
vn -0.472260 0.480301 0.739109
vn -0.852467 -0.337016 -0.399650
vn -0.852467 -0.337016 -0.399650
vn -0.850654 -0.286465 -0.440824
vn -0.850654 -0.286465 -0.440824
vn -0.000365 -0.644660 -0.764470
vn -0.000365 -0.644660 -0.764470
vn -0.000362 -0.544893 -0.838506
vn -0.000362 -0.544893 -0.838506
vn 0.850400 -0.339179 -0.402216
vn 0.850400 -0.339179 -0.402215
vn 0.848568 -0.288295 -0.443642
vn 0.848568 -0.288295 -0.443642
vn 0.512048 0.698295 0.500191
vn 0.512048 0.698295 0.500192
vn -0.866026 0.406478 0.291162
vn -0.866026 0.406478 0.291162
vn 0.000000 0.812957 0.582324
vn 0.000000 0.812957 0.582324
vn 0.866025 0.406478 0.291162
vn 0.866025 0.406478 0.291162
vn -0.475104 0.715345 0.512404
vn -0.475104 0.715345 0.512405
vn -0.852467 -0.424998 -0.304428
vn -0.852467 -0.424998 -0.304428
vn -0.000366 -0.812957 -0.582324
vn -0.000366 -0.812957 -0.582324
vn 0.850400 -0.427726 -0.306382
vn 0.850400 -0.427726 -0.306382
vn 0.512046 0.799910 0.312975
vn 0.512046 0.799910 0.312973
vn -0.866026 0.465628 0.182182
vn -0.866026 0.465628 0.182182
vn 0.000000 0.931256 0.364365
vn 0.000000 0.931256 0.364365
vn 0.866025 0.465629 0.182182
vn 0.866025 0.465628 0.182182
vn -0.475106 0.819439 0.320615
vn -0.475106 0.819439 0.320616
vn -0.852467 -0.486843 -0.190483
vn -0.852467 -0.486843 -0.190483
vn -0.000365 -0.931256 -0.364365
vn -0.000365 -0.931256 -0.364365
vn 0.850400 -0.489968 -0.191706
vn 0.850400 -0.489968 -0.191705
vn 0.512404 0.850687 0.117364
vn 0.512413 0.850805 0.116462
vn -0.866217 0.494888 0.068945
vn -0.866208 0.494775 0.069872
vn 0.000000 0.989909 0.141706
vn 0.000000 0.989909 0.141706
vn 0.866208 0.494775 0.069872
vn 0.866217 0.494888 0.068945
vn -0.475466 0.871601 0.119342
vn -0.475459 0.871488 0.120200
vn -0.852670 -0.517417 -0.072351
vn -0.852659 -0.517299 -0.073310
vn -0.000366 -0.989833 -0.142232
vn -0.000366 -0.989833 -0.142233
vn 0.850594 -0.520621 -0.073782
vn 0.850605 -0.520739 -0.072819
vn -0.800781 0.591376 0.095002
vn 0.898159 -0.435718 0.058820
vn -0.858776 0.496778 0.125359
vn -0.000000 0.991942 0.126690
vn -0.000000 0.992563 0.121733
vn 0.796338 0.595872 0.103834
vn 0.858381 0.496550 0.128918
vn -0.902618 -0.425634 0.064161
vn -0.851206 -0.523015 0.043638
vn -0.000365 -0.999933 0.011554
vn -0.000365 -0.999975 0.007029
vn 0.849480 -0.526582 0.033091
vn 0.000000 -0.899599 0.436718
vn 0.000003 -0.899597 0.436720
vn 0.000003 -0.899597 0.436720
vn 0.000000 -0.899599 0.436717
vn 0.000001 -0.899600 0.436716
vn 0.000001 -0.899600 0.436716
vn 0.000006 -0.899597 0.436721
vn 0.000006 -0.899597 0.436721
vn -0.512050 0.553735 0.656645
vn -0.512050 0.553734 0.656646
vn -0.509125 0.468985 0.721695
vn -0.509125 0.468985 0.721695
vn 0.866025 0.322330 0.382235
vn 0.866025 0.322330 0.382235
vn 0.864340 0.274031 0.421691
vn 0.864340 0.274031 0.421691
vn 0.000000 0.644660 0.764470
vn 0.000000 0.644660 0.764470
vn 0.000000 0.544893 0.838506
vn 0.000000 0.544893 0.838506
vn -0.866025 0.322330 0.382235
vn -0.866025 0.322330 0.382235
vn -0.864340 0.274031 0.421691
vn -0.864340 0.274031 0.421691
vn 0.475107 0.567254 0.672678
vn 0.475107 0.567255 0.672678
vn 0.472259 0.480302 0.739109
vn 0.472259 0.480301 0.739109
vn 0.852467 -0.337016 -0.399650
vn 0.852467 -0.337016 -0.399650
vn 0.850654 -0.286465 -0.440824
vn 0.850654 -0.286465 -0.440824
vn 0.000365 -0.644660 -0.764470
vn 0.000365 -0.644660 -0.764470
vn 0.000363 -0.544893 -0.838506
vn 0.000363 -0.544893 -0.838506
vn -0.850400 -0.339179 -0.402215
vn -0.850400 -0.339179 -0.402215
vn -0.848568 -0.288295 -0.443642
vn -0.848568 -0.288295 -0.443642
vn -0.512048 0.698295 0.500191
vn -0.512048 0.698295 0.500192
vn 0.866025 0.406479 0.291162
vn 0.866025 0.406479 0.291162
vn 0.000000 0.812957 0.582324
vn 0.000000 0.812957 0.582324
vn -0.866025 0.406479 0.291162
vn -0.866025 0.406479 0.291162
vn 0.475108 0.715343 0.512403
vn 0.475108 0.715343 0.512403
vn 0.852467 -0.424998 -0.304428
vn 0.852467 -0.424998 -0.304428
vn 0.000365 -0.812957 -0.582324
vn 0.000365 -0.812957 -0.582324
vn -0.850400 -0.427726 -0.306382
vn -0.850400 -0.427726 -0.306382
vn -0.512045 0.799910 0.312975
vn -0.512045 0.799911 0.312973
vn 0.866025 0.465628 0.182182
vn 0.866025 0.465628 0.182182
vn 0.000000 0.931256 0.364365
vn 0.000000 0.931256 0.364365
vn -0.866025 0.465628 0.182182
vn -0.866025 0.465628 0.182182
vn 0.475109 0.819438 0.320614
vn 0.475109 0.819438 0.320614
vn 0.852467 -0.486843 -0.190483
vn 0.852467 -0.486843 -0.190483
vn 0.000366 -0.931256 -0.364365
vn 0.000366 -0.931256 -0.364365
vn -0.850400 -0.489968 -0.191706
vn -0.850400 -0.489968 -0.191706
vn -0.512334 0.850149 0.121496
vn -0.512323 0.850016 0.122467
vn 0.866203 0.494740 0.070174
vn 0.866213 0.494855 0.069240
vn 0.000000 0.990624 0.136614
vn 0.000000 0.990624 0.136614
vn -0.866213 0.494855 0.069240
vn -0.866203 0.494741 0.070174
vn 0.475379 0.870794 0.125429
vn 0.475389 0.870921 0.124506
vn 0.852662 -0.517322 -0.073106
vn 0.852673 -0.517439 -0.072151
vn 0.000366 -0.990717 -0.135942
vn 0.000366 -0.990717 -0.135941
vn -0.850608 -0.520762 -0.072614
vn -0.850598 -0.520644 -0.073572
vn -0.511640 0.859084 0.014096
vn -0.511635 0.859085 0.014242
vn 0.865788 0.500349 0.007884
vn 0.865793 0.500343 0.007749
vn 0.000000 0.999893 0.014661
vn 0.000000 0.999893 0.014661
vn -0.865792 0.500343 0.007749
vn -0.865788 0.500349 0.007884
vn 0.474709 0.880022 0.014585
vn 0.474713 0.880022 0.014446
vn 0.852211 -0.523134 -0.008155
vn 0.852216 -0.523129 -0.008019
vn 0.000365 -0.999896 -0.014454
vn 0.000365 -0.999896 -0.014454
vn -0.850147 -0.526484 -0.008070
vn -0.850142 -0.526490 -0.008206
vn -0.512046 0.858958 0.000000
vn -0.512046 0.858958 0.000000
vn 0.866025 0.500000 0.000000
vn 0.866025 0.500000 0.000000
vn 0.000000 1.000000 0.000000
vn 0.000000 1.000000 0.000000
vn -0.866025 0.500000 0.000000
vn -0.866025 0.500000 0.000000
vn 0.475109 0.879927 0.000000
vn 0.475109 0.879927 0.000000
vn 0.852467 -0.522781 0.000000
vn 0.852467 -0.522781 0.000000
vn 0.000365 -1.000000 0.000000
vn 0.000365 -1.000000 0.000000
vn -0.850400 -0.526136 0.000000
vn -0.850400 -0.526136 0.000000
vn 0.799492 0.595640 -0.077621
vn -0.900899 -0.427748 -0.073572
vn 0.861006 0.497102 -0.107507
vn -0.000001 0.995145 -0.098421
vn -0.000001 0.995644 -0.093241
vn -0.794938 0.600507 -0.086401
vn -0.860674 0.496910 -0.110999
vn 0.905396 -0.417211 -0.078692
vn 0.850990 -0.521876 -0.058841
vn 0.000365 -0.998949 -0.045845
vn 0.000365 -0.999153 -0.041137
vn -0.849395 -0.525514 -0.048610
s 1
g Straight_Slide
usemtl lambert18SG
f 2/1/1 1/2/2 3/3/3 4/4/4
f 5/5/5 2/1/1 4/4/4 6/6/6
f 1/7/2 7/8/7 8/9/8 3/10/3
s 2
f 10/12/9 9/11/10 8/9/11 7/8/12
f 11/14/13 10/12/14 7/8/15 1/7/16
s 4
f 12/15/17 11/13/18 1/2/19 2/1/20
s 5
f 13/16/21 12/15/22 2/1/23 5/5/24
f 14/17/25 13/16/26 5/5/27 6/6/28
f 15/18/29 14/17/30 6/6/31 4/4/32
s 4
f 16/20/33 15/18/34 4/4/35 3/3/36
s 2
f 9/11/37 16/19/38 3/10/39 8/9/40
f 18/22/41 17/21/42 9/11/10 10/12/9
f 19/24/43 18/22/44 10/12/14 11/14/13
s 4
f 20/25/45 19/23/46 11/13/18 12/15/17
s 5
f 21/26/47 20/25/48 12/15/22 13/16/21
f 22/27/49 21/26/50 13/16/26 14/17/25
f 23/28/51 22/27/52 14/17/30 15/18/29
s 4
f 24/30/53 23/28/54 15/18/34 16/20/33
s 2
f 17/21/55 24/29/56 16/19/38 9/11/37
f 26/32/57 25/31/58 17/21/42 18/22/41
f 27/34/59 26/32/60 18/22/44 19/24/43
s 4
f 28/35/61 27/33/62 19/23/46 20/25/45
s 5
f 29/36/63 28/35/64 20/25/48 21/26/47
f 30/37/65 29/36/66 21/26/50 22/27/49
f 31/38/67 30/37/68 22/27/52 23/28/51
s 4
f 32/40/69 31/38/70 23/28/54 24/30/53
s 2
f 25/31/71 32/39/72 24/29/56 17/21/55
f 34/42/73 33/41/74 25/31/58 26/32/57
f 35/44/75 34/42/76 26/32/60 27/34/59
s 4
f 36/45/77 35/43/78 27/33/62 28/35/61
s 5
f 37/46/79 36/45/80 28/35/64 29/36/63
f 38/47/81 37/46/82 29/36/66 30/37/65
f 39/48/83 38/47/84 30/37/68 31/38/67
s 4
f 40/50/85 39/48/86 31/38/70 32/40/69
s 2
f 33/41/87 40/49/88 32/39/72 25/31/71
f 42/52/89 41/51/90 33/41/74 34/42/73
f 43/54/91 42/52/89 34/42/76 35/44/75
s 4
f 44/55/92 43/53/93 35/43/78 36/45/77
s 5
f 45/56/94 44/55/95 36/45/80 37/46/79
f 46/57/96 45/56/94 37/46/82 38/47/81
f 47/58/97 46/57/96 38/47/84 39/48/83
s 4
f 48/60/98 47/58/99 39/48/86 40/50/85
s 2
f 41/51/90 48/59/100 40/49/88 33/41/87
s 10
f 50/61/101 49/62/102 51/63/103 3/64/104
f 52/65/105 50/61/101 3/64/104 53/66/106
f 49/67/102 54/68/107 55/69/108 51/70/103
s 11
f 57/71/109 56/72/110 55/69/111 54/68/112
f 58/73/113 57/71/114 54/68/115 49/67/116
s 13
f 59/74/117 58/75/118 49/62/119 50/61/120
s 14
f 60/76/121 59/74/122 50/61/123 52/65/124
f 61/77/125 60/76/126 52/65/127 53/66/128
f 62/78/129 61/77/130 53/66/131 3/64/132
s 13
f 63/79/133 62/78/134 3/64/135 51/63/136
s 11
f 56/72/137 63/80/138 51/70/139 55/69/140
f 65/81/141 64/82/142 56/72/110 57/71/109
f 66/83/143 65/81/144 57/71/114 58/73/113
s 13
f 67/84/145 66/85/146 58/75/118 59/74/117
s 14
f 68/86/147 67/84/148 59/74/122 60/76/121
f 69/87/149 68/86/150 60/76/126 61/77/125
f 70/88/151 69/87/152 61/77/130 62/78/129
s 13
f 71/89/153 70/88/154 62/78/134 63/79/133
s 11
f 64/82/155 71/90/156 63/80/138 56/72/137
f 73/91/157 72/92/158 64/82/142 65/81/141
f 74/93/159 73/91/160 65/81/144 66/83/143
s 13
f 75/94/161 74/95/162 66/85/146 67/84/145
s 14
f 76/96/163 75/94/164 67/84/148 68/86/147
f 77/97/165 76/96/166 68/86/150 69/87/149
f 78/98/167 77/97/168 69/87/152 70/88/151
s 13
f 79/99/169 78/98/170 70/88/154 71/89/153
s 11
f 72/92/171 79/100/172 71/90/156 64/82/155
f 81/101/173 80/102/174 72/92/158 73/91/157
f 82/103/175 81/101/176 73/91/160 74/93/159
s 13
f 83/104/177 82/105/178 74/95/162 75/94/161
s 14
f 84/106/179 83/104/180 75/94/164 76/96/163
f 85/107/181 84/106/182 76/96/166 77/97/165
f 86/108/183 85/107/184 77/97/168 78/98/167
s 13
f 87/109/185 86/108/186 78/98/170 79/99/169
s 11
f 80/102/187 87/110/188 79/100/172 72/92/171
f 89/111/189 88/112/190 80/102/174 81/101/173
f 90/113/191 89/111/192 81/101/176 82/103/175
s 13
f 91/114/193 90/115/194 82/105/178 83/104/177
s 14
f 92/116/195 91/114/196 83/104/180 84/106/179
f 93/117/197 92/116/198 84/106/182 85/107/181
f 94/118/199 93/117/200 85/107/184 86/108/183
s 13
f 95/119/201 94/118/202 86/108/186 87/109/185
s 11
f 88/112/203 95/120/204 87/110/188 80/102/187
f 97/121/205 96/122/206 88/112/190 89/111/189
f 98/123/207 97/121/208 89/111/192 90/113/191
s 13
f 99/124/209 98/125/210 90/115/194 91/114/193
s 14
f 100/126/211 99/124/212 91/114/196 92/116/195
f 101/127/213 100/126/214 92/116/198 93/117/197
f 102/128/215 101/127/216 93/117/200 94/118/199
s 13
f 103/129/217 102/128/218 94/118/202 95/119/201
s 11
f 96/122/219 103/130/220 95/120/204 88/112/203
f 105/131/221 104/132/222 96/122/206 97/121/205
f 106/133/223 105/131/221 97/121/208 98/123/207
s 13
f 107/134/224 106/135/225 98/125/210 99/124/209
s 14
f 108/136/226 107/134/227 99/124/212 100/126/211
f 109/137/228 108/136/226 100/126/214 101/127/213
f 110/138/229 109/137/228 101/127/216 102/128/215
s 13
f 111/139/230 110/138/231 102/128/218 103/129/217
s 11
f 104/132/222 111/140/232 103/130/220 96/122/219
s 13
f 110/141/231 111/142/230 106/143/225 107/144/224
s 14
f 109/145/228 110/146/229 107/147/227 108/148/226
s 11
f 105/149/221 106/150/223 111/151/232 104/152/222
s 2
f 42/153/89 43/154/91 48/155/100 41/156/90
s 4
f 43/157/93 44/158/92 47/159/99 48/160/98
s 5
f 44/161/95 45/162/94 46/163/96 47/164/97
