# This file uses centimeters as units for non-parametric coordinates.

mtllib Small_Race_Track_Issa_2.mtl
g default
v -128.000000 -99.074425 468.465790
v 0.000000 -99.074425 468.465790
v -128.000000 -78.505219 492.979218
v 0.000000 -78.505219 492.979218
v -128.000000 32.000000 0.000000
v 0.000000 32.000000 0.000000
v -128.000000 0.000000 0.000000
v 0.000000 0.000000 0.000000
v -119.408524 -97.693802 470.111145
v -8.591474 -97.693802 470.111145
v -8.591474 -78.505219 492.979218
v -119.408524 -78.505219 492.979218
v -8.591474 32.000000 0.000000
v -119.408524 32.000000 0.000000
v -8.591474 2.147869 0.000000
v -119.408524 2.147869 0.000000
v 0.000000 32.000000 85.333344
v -8.591474 32.000000 85.333344
v -8.591474 2.147869 85.333344
v -119.408524 2.147869 85.333344
v -119.408524 32.000000 85.333344
v -128.000000 32.000000 85.333344
v -128.000000 0.000000 85.333344
v 0.000000 0.000000 85.333344
v 0.000000 32.000000 170.666672
v -8.591474 32.000000 170.666672
v -8.591474 2.147869 170.666672
v -119.408524 2.147869 170.666672
v -119.408524 32.000000 170.666672
v -128.000000 32.000000 170.666672
v -128.000000 0.000000 170.666672
v 0.000000 0.000000 170.666672
v 0.000000 32.000000 256.000000
v -8.591474 32.000000 256.000000
v -8.591474 2.147869 256.000000
v -119.408524 2.147869 256.000000
v -119.408524 32.000000 256.000000
v -128.000000 32.000000 256.000000
v -128.000000 0.000000 256.000000
v 0.000000 0.000000 256.000000
v 0.000000 19.003868 344.723846
v -8.591474 19.003868 344.723846
v -8.591474 -9.594160 336.162140
v -119.408524 -9.594160 336.162140
v -119.408524 19.003868 344.723846
v -128.000000 19.003868 344.723846
v -128.000000 -11.651796 335.546143
v 0.000000 -11.651796 335.546143
v 0.000000 -18.892570 425.993042
v -8.591474 -18.892570 425.993042
v -8.591474 -43.833664 409.589020
v -119.408524 -43.833664 409.589020
v -119.408524 -18.892570 425.993042
v -128.000000 -18.892570 425.993042
v -128.000000 -45.628181 408.408722
v 0.000000 -45.628181 408.408722
vt 0.375000 0.000000
vt 0.625000 0.000000
vt 0.375000 0.250000
vt 0.625000 0.250000
vt 0.375000 0.500000
vt 0.625000 0.500000
vt 0.375000 0.750000
vt 0.625000 0.750000
vt 0.375000 1.000000
vt 0.625000 1.000000
vt 0.875000 0.000000
vt 0.875000 0.250000
vt 0.125000 0.000000
vt 0.125000 0.250000
vt 0.375000 0.000000
vt 0.625000 0.000000
vt 0.625000 0.250000
vt 0.375000 0.250000
vt 0.625000 0.500000
vt 0.375000 0.500000
vt 0.625000 0.750000
vt 0.375000 0.750000
vt 0.000000 1.000000
vt 0.865758 1.000000
vt 0.865758 0.000000
vt 0.000000 0.000000
vt 0.000000 0.000000
vt 1.000000 0.000000
vt 1.000000 0.932879
vt 0.000000 0.932879
vt 0.000000 0.000000
vt 1.000000 0.000000
vt 1.000000 0.932879
vt 0.000000 0.932879
vt 0.625000 0.458333
vt 0.833333 0.250000
vt 0.166667 0.932879
vt 0.625000 0.458333
vt 0.000000 0.833333
vt 0.166667 0.000000
vt 0.865758 0.833333
vt 0.833333 0.000000
vt 0.375000 0.458333
vt 0.833333 0.932879
vt 0.166667 0.250000
vt 0.375000 0.458333
vt 0.166667 0.000000
vt 0.375000 0.791667
vt 0.625000 0.791667
vt 0.833333 0.000000
vt 0.625000 0.416667
vt 0.791667 0.250000
vt 0.333333 0.932879
vt 0.625000 0.416667
vt 0.000000 0.666667
vt 0.333333 0.000000
vt 0.865758 0.666667
vt 0.666667 0.000000
vt 0.375000 0.416667
vt 0.666667 0.932879
vt 0.208333 0.250000
vt 0.375000 0.416667
vt 0.208333 0.000000
vt 0.375000 0.833333
vt 0.625000 0.833333
vt 0.791667 0.000000
vt 0.625000 0.375000
vt 0.750000 0.250000
vt 0.500000 0.932879
vt 0.625000 0.375000
vt 0.000000 0.500000
vt 0.500000 0.000000
vt 0.865758 0.500000
vt 0.500000 0.000000
vt 0.375000 0.375000
vt 0.500000 0.932879
vt 0.250000 0.250000
vt 0.375000 0.375000
vt 0.250000 0.000000
vt 0.375000 0.875000
vt 0.625000 0.875000
vt 0.750000 0.000000
vt 0.625000 0.333333
vt 0.708333 0.250000
vt 0.666667 0.932879
vt 0.625000 0.333333
vt 0.000000 0.333333
vt 0.666667 0.000000
vt 0.865758 0.333333
vt 0.333333 0.000000
vt 0.375000 0.333333
vt 0.333333 0.932879
vt 0.291667 0.250000
vt 0.375000 0.333333
vt 0.291667 0.000000
vt 0.375000 0.916667
vt 0.625000 0.916667
vt 0.708333 0.000000
vt 0.625000 0.291667
vt 0.666667 0.250000
vt 0.833333 0.932879
vt 0.625000 0.291667
vt 0.000000 0.166667
vt 0.833333 0.000000
vt 0.865758 0.166667
vt 0.166667 0.000000
vt 0.375000 0.291667
vt 0.166667 0.932879
vt 0.333333 0.250000
vt 0.375000 0.291667
vt 0.333333 0.000000
vt 0.375000 0.958333
vt 0.625000 0.958333
vt 0.666667 0.000000
vn 0.000000 -0.835488 -0.549509
vn 0.000000 -0.835488 -0.549509
vn 0.000000 -0.747025 -0.664796
vn 0.000000 -0.747025 -0.664796
vn 1.000000 0.000000 0.000000
vn 1.000000 0.000000 0.000000
vn 1.000000 0.000000 0.000000
vn 1.000000 0.000000 0.000000
vn -1.000000 0.000000 0.000000
vn -1.000000 0.000000 0.000000
vn -1.000000 0.000000 0.000000
vn -1.000000 0.000000 0.000000
vn 0.000000 -0.766043 0.642790
vn 0.000000 -0.766043 0.642790
vn 0.000000 -0.766043 0.642790
vn 0.000000 -0.766043 0.642790
vn 0.000001 -0.766045 0.642787
vn 0.000001 -0.766045 0.642787
vn 0.000001 -0.766045 0.642787
vn 0.000001 -0.766045 0.642787
vn 0.000000 -0.766045 0.642788
vn 0.000000 -0.766045 0.642787
vn 0.000000 -0.766045 0.642787
vn 0.000000 -0.766045 0.642788
vn 0.000000 0.747025 0.664796
vn 0.000000 0.835488 0.549509
vn 0.000000 0.835488 0.549509
vn 0.000000 0.747025 0.664796
vn 0.000000 0.835488 0.549509
vn 0.000000 0.747025 0.664796
vn 0.000000 0.747025 0.664796
vn 0.000000 0.835488 0.549509
vn 0.000000 0.000000 -1.000000
vn 0.000000 0.000000 -1.000000
vn 0.000000 0.000000 -1.000000
vn 0.000000 0.000000 -1.000000
vn 0.000000 0.000000 -1.000000
vn 0.000000 0.000000 -1.000000
vn 0.000000 0.000000 -1.000000
vn 0.000000 0.000000 -1.000000
vn 0.000000 0.000000 -1.000000
vn 0.000000 0.000000 -1.000000
vn 0.000000 0.000000 -1.000000
vn 0.000000 0.000000 -1.000000
vn 0.000000 0.835488 0.549509
vn 0.000000 0.835488 0.549509
vn 0.000000 0.747025 0.664796
vn 0.000000 0.747025 0.664796
vn -1.000000 -0.000000 0.000000
vn -1.000000 0.000000 0.000000
vn -1.000000 0.000000 0.000000
vn -1.000000 -0.000000 0.000000
vn 1.000000 0.000000 0.000000
vn 1.000000 0.000000 0.000000
vn 1.000000 0.000000 0.000000
vn 1.000000 0.000000 0.000000
vn 0.000000 1.000000 0.000000
vn 0.000000 1.000000 0.000000
vn 0.000000 1.000000 0.000000
vn 0.000000 1.000000 0.000000
vn -1.000000 0.000000 0.000000
vn -1.000000 0.000000 0.000000
vn -1.000000 0.000000 0.000000
vn -1.000000 0.000000 0.000000
vn 0.000000 1.000000 0.000000
vn 0.000000 1.000000 0.000000
vn 0.000000 1.000000 0.000000
vn 0.000000 1.000000 0.000000
vn 1.000000 0.000000 0.000000
vn 1.000000 0.000000 0.000000
vn 1.000000 0.000000 0.000000
vn 1.000000 0.000000 0.000000
vn 0.000000 1.000000 0.000000
vn 0.000000 1.000000 0.000000
vn 0.000000 1.000000 0.000000
vn 0.000000 1.000000 0.000000
vn -1.000000 0.000000 0.000000
vn -1.000000 0.000000 0.000000
vn -1.000000 0.000000 0.000000
vn -1.000000 0.000000 0.000000
vn 0.000000 -1.000000 0.000000
vn 0.000000 -1.000000 0.000000
vn 0.000000 -1.000000 0.000000
vn 0.000000 -1.000000 0.000000
vn 1.000000 0.000000 0.000000
vn 1.000000 0.000000 0.000000
vn 1.000000 0.000000 0.000000
vn 1.000000 0.000000 0.000000
vn 0.000000 1.000000 0.000000
vn 0.000000 1.000000 0.000000
vn -1.000000 0.000000 0.000000
vn -1.000000 0.000000 0.000000
vn 0.000000 1.000000 0.000000
vn 0.000000 1.000000 0.000000
vn 1.000000 0.000000 0.000000
vn 1.000000 0.000000 0.000000
vn 0.000000 1.000000 0.000000
vn 0.000000 1.000000 0.000000
vn -1.000000 0.000000 0.000000
vn -1.000000 0.000000 0.000000
vn 0.000000 -1.000000 0.000000
vn 0.000000 -1.000000 0.000000
vn 1.000000 0.000000 0.000000
vn 1.000000 0.000000 0.000000
vn 0.000000 0.997224 0.074459
vn 0.000000 0.997224 0.074459
vn -1.000000 0.000000 0.000000
vn -1.000000 0.000000 0.000000
vn 0.000000 0.997492 0.070773
vn 0.000000 0.997492 0.070773
vn 1.000000 0.000000 0.000000
vn 1.000000 0.000000 0.000000
vn 0.000000 0.997224 0.074459
vn 0.000000 0.997224 0.074459
vn -1.000000 0.000000 0.000000
vn -1.000000 0.000000 0.000000
vn 0.000000 -0.997512 -0.070493
vn 0.000000 -0.997512 -0.070493
vn 1.000000 0.000000 0.000000
vn 1.000000 0.000000 0.000000
vn 0.000000 0.957990 0.286803
vn 0.000000 0.957990 0.286803
vn -1.000000 -0.000000 0.000000
vn -1.000000 -0.000000 0.000000
vn 0.000000 0.957990 0.286803
vn 0.000000 0.957990 0.286803
vn 1.000000 0.000000 0.000000
vn 1.000000 0.000000 0.000000
vn 0.000000 0.957990 0.286803
vn 0.000000 0.957990 0.286803
vn -1.000000 0.000000 0.000000
vn -1.000000 0.000000 0.000000
vn 0.000000 -0.957990 -0.286803
vn 0.000000 -0.957990 -0.286803
vn 1.000000 0.000000 0.000000
vn 1.000000 0.000000 0.000000
s 1
g Racetrack_Small_Down_Curved
usemtl initialShadingGroup
f 55/112/1 56/113/2 2/10/3 1/9/4
s 2
f 2/2/5 56/114/6 49/100/7 4/4/8
s 3
f 55/111/9 1/1/10 3/3/11 54/109/12
s off
f 1/1/13 2/2/14 10/16/15 9/15/16
f 2/2/17 4/4/18 11/17/19 10/16/20
f 3/3/21 1/1/22 9/15/23 12/18/24
s 4
f 4/4/25 49/99/26 50/102/27 11/17/28
s 5
f 54/110/29 3/3/30 12/18/31 53/107/32
s off
f 6/6/33 8/8/34 15/21/35 13/19/36
f 8/8/37 7/7/38 16/22/39 15/21/40
f 7/7/41 5/5/42 14/20/43 16/22/44
s 6
f 51/103/45 52/105/46 9/25/47 10/26/48
s 7
f 51/104/49 10/28/50 11/29/51 50/101/52
s 8
f 9/31/53 52/106/54 53/108/55 12/34/56
s 4
f 17/35/57 6/6/58 13/19/59 18/38/60
s 7
f 15/27/61 19/40/62 18/37/63 13/30/64
s 6
f 15/23/65 16/24/66 20/41/67 19/39/68
s 8
f 21/44/69 20/42/70 16/32/71 14/33/72
s 5
f 5/5/73 22/46/74 21/43/75 14/20/76
s 3
f 7/13/77 23/47/78 22/45/79 5/14/80
s 1
f 7/7/81 8/8/82 24/49/83 23/48/84
s 2
f 17/36/85 24/50/86 8/11/87 6/12/88
s 4
f 25/51/89 17/35/57 18/38/60 26/54/90
s 7
f 19/40/62 27/56/91 26/53/92 18/37/63
s 6
f 19/39/68 20/41/67 28/57/93 27/55/94
s 8
f 29/60/95 28/58/96 20/42/70 21/44/69
s 5
f 22/46/74 30/62/97 29/59/98 21/43/75
s 3
f 23/47/78 31/63/99 30/61/100 22/45/79
s 1
f 23/48/84 24/49/83 32/65/101 31/64/102
s 2
f 25/52/103 32/66/104 24/50/86 17/36/85
s 4
f 33/67/105 25/51/89 26/54/90 34/70/106
s 7
f 27/56/91 35/72/107 34/69/108 26/53/92
s 6
f 27/55/94 28/57/93 36/73/109 35/71/110
s 8
f 37/76/111 36/74/112 28/58/96 29/60/95
s 5
f 30/62/97 38/78/113 37/75/114 29/59/98
s 3
f 31/63/99 39/79/115 38/77/116 30/61/100
s 1
f 31/64/102 32/65/101 40/81/117 39/80/118
s 2
f 33/68/119 40/82/120 32/66/104 25/52/103
s 4
f 41/83/121 33/67/105 34/70/106 42/86/122
s 7
f 35/72/107 43/88/123 42/85/124 34/69/108
s 6
f 35/71/110 36/73/109 44/89/125 43/87/126
s 8
f 45/92/127 44/90/128 36/74/112 37/76/111
s 5
f 38/78/113 46/94/129 45/91/130 37/75/114
s 3
f 39/79/115 47/95/131 46/93/132 38/77/116
s 1
f 39/80/118 40/81/117 48/97/133 47/96/134
s 2
f 41/84/135 48/98/136 40/82/120 33/68/119
s 4
f 49/99/26 41/83/121 42/86/122 50/102/27
s 7
f 43/88/123 51/104/49 50/101/52 42/85/124
s 6
f 43/87/126 44/89/125 52/105/46 51/103/45
s 8
f 53/108/55 52/106/54 44/90/128 45/92/127
s 5
f 46/94/129 54/110/29 53/107/32 45/91/130
s 3
f 47/95/131 55/111/9 54/109/12 46/93/132
s 1
f 47/96/134 48/97/133 56/113/2 55/112/1
s 2
f 49/100/7 56/114/6 48/98/136 41/84/135
