# This file uses centimeters as units for non-parametric coordinates.

mtllib stone_wall_wc_1.mtl
g default
v -32.000000 0.000000 -128.000000
v 0.000000 0.000000 -128.000000
v 0.000000 0.000000 -96.000000
v 0.000000 32.000000 -96.000000
v -32.000000 32.000000 -96.000000
v -32.000000 0.000000 -96.000000
v 0.000000 -0.000000 -63.999996
v 0.000000 32.000000 -64.000000
v -32.000000 32.000000 -64.000000
v -32.000000 -0.000000 -63.999996
v 0.000000 0.000000 -32.000000
v 0.000000 32.000000 -32.000000
v -32.000000 32.000000 -32.000000
v -32.000000 0.000000 -32.000000
v 0.000000 0.000000 -96.843811
v 0.000000 32.000000 -96.843811
v -32.000000 32.000000 -96.843811
v -32.000000 0.000000 -96.843811
v 0.000000 0.000000 -62.053761
v 0.000000 32.000000 -62.053761
v -32.000000 32.000000 -62.053761
v -32.000000 0.000000 -62.053761
v 0.000000 0.000000 -29.945896
v 0.000000 32.000000 -29.945896
v -32.000000 32.000000 -29.945896
v -32.000000 0.000000 -29.945896
v 0.000000 21.333332 -63.999996
v 0.000000 21.333332 -62.053761
v 0.000000 21.333332 -32.000000
v 0.000000 21.333332 -29.945896
v 0.000000 21.333332 0.000000
v -32.000000 21.333332 0.000000
v -32.000000 21.333332 -29.945896
v -32.000000 21.333332 -32.000000
v -32.000000 21.333332 -62.053761
v -32.000000 21.333332 -63.999996
v -32.000000 21.333332 -96.000000
v -32.000000 21.333332 -96.843811
v -32.000000 21.333332 -128.000000
v 0.000000 21.333332 -128.000000
v 0.000000 21.333332 -96.843811
v 0.000000 21.333332 -96.000000
v 0.000000 10.666666 -63.999996
v 0.000000 10.666666 -62.053761
v 0.000000 10.666666 -32.000000
v 0.000000 10.666667 -29.945896
v 0.000000 10.666666 0.000000
v -32.000000 10.666666 0.000000
v -32.000000 10.666667 -29.945896
v -32.000000 10.666666 -32.000000
v -32.000000 10.666666 -62.053761
v -32.000000 10.666666 -63.999996
v -32.000000 10.666666 -96.000000
v -32.000000 10.666666 -96.843811
v -32.000000 10.666666 -128.000015
v 0.000000 10.666666 -128.000015
v 0.000000 10.666666 -96.843811
v 0.000000 10.666666 -96.000000
v -33.402317 33.402317 2.804260
v 1.402321 33.402317 2.804260
v 1.214447 33.214443 -29.945896
v -33.214443 33.214443 -29.945896
v 1.214447 21.333332 2.616386
v 2.428894 21.333332 -29.945896
v -33.214443 21.333332 2.616386
v -34.428886 21.333332 -29.945896
v -33.214443 0.000000 1.214447
v 1.214447 0.000000 1.214447
v 1.214447 10.666666 1.214447
v -33.214443 10.666666 1.214447
v 2.428894 0.000000 -29.945896
v 2.428894 10.666667 -29.945896
v -34.428886 10.666667 -29.945896
v -34.428886 0.000000 -29.945896
v 2.428894 10.666666 -96.000000
v 2.428894 10.666666 -63.999996
v 2.428894 -0.000000 -63.999996
v 2.428894 0.000000 -96.000000
v 2.428894 21.333332 -96.000000
v 2.428894 21.333332 -63.999996
v -34.428886 10.666666 -63.999996
v -34.428886 -0.000000 -63.999996
v -34.428886 10.666666 -96.000000
v -34.428886 0.000000 -96.000000
v -34.428886 21.333332 -63.999996
v -34.428886 21.333332 -96.000000
v 1.214447 34.489086 -32.000000
v -33.214443 34.489086 -32.000000
v 1.214447 34.489086 -62.053761
v -33.214443 34.489086 -62.053761
v 2.428894 21.333332 -32.000000
v 2.428894 21.333332 -62.053761
v -34.428886 21.333332 -32.000000
v -34.428886 21.333332 -62.053761
v 2.015686 33.214443 -96.843811
v -33.214443 33.214443 -96.843811
v 2.203560 33.402317 -131.608429
v -33.402317 33.402317 -131.608429
v -34.428886 21.333332 -96.843811
v -33.214443 21.333332 -131.420563
v 2.015686 21.333332 -131.420563
v 3.230133 21.333332 -96.843811
v 0.000000 35.644859 -63.999996
v -32.000000 35.644859 -63.999996
v 0.000000 35.644859 -96.000000
v -32.000000 35.644859 -96.000000
vt 0.375000 0.000000
vt 0.625000 0.000000
vt 0.375000 0.250000
vt 0.625000 0.250000
vt 0.375000 0.500000
vt 0.625000 0.500000
vt 0.375000 0.750000
vt 0.625000 0.750000
vt 0.375000 1.000000
vt 0.625000 1.000000
vt 0.875000 0.000000
vt 0.875000 0.250000
vt 0.125000 0.250000
vt 0.875000 0.187500
vt 0.625000 0.187500
vt 0.375000 0.187500
vt 0.125000 0.187500
vt 0.875000 0.125000
vt 0.625000 0.125000
vt 0.375000 0.125000
vt 0.125000 0.125000
vt 0.875000 0.062500
vt 0.625000 0.062500
vt 0.375000 0.062500
vt 0.125000 0.062500
vt 0.875000 0.189148
vt 0.625000 0.189148
vt 0.375000 0.189148
vt 0.125000 0.189148
vt 0.875000 0.121199
vt 0.625000 0.121199
vt 0.375000 0.121199
vt 0.125000 0.121199
vt 0.875000 0.058488
vt 0.625000 0.058488
vt 0.375000 0.058488
vt 0.125000 0.058488
vt 0.708333 0.125000
vt 0.708333 0.121199
vt 0.708333 0.062500
vt 0.708333 0.058488
vt 0.625000 0.916667
vt 0.708333 0.000000
vt 0.291667 0.000000
vt 0.375000 0.916667
vt 0.291667 0.058488
vt 0.291667 0.062500
vt 0.291667 0.121199
vt 0.291667 0.125000
vt 0.291667 0.187500
vt 0.291667 0.189148
vt 0.291667 0.250000
vt 0.375000 0.333333
vt 0.625000 0.333333
vt 0.708333 0.250000
vt 0.708333 0.189148
vt 0.708333 0.187500
vt 0.791667 0.125000
vt 0.791667 0.121199
vt 0.791667 0.062500
vt 0.791667 0.058488
vt 0.625000 0.833333
vt 0.791667 0.000000
vt 0.208333 0.000000
vt 0.375000 0.833333
vt 0.208333 0.058488
vt 0.208333 0.062500
vt 0.208333 0.121199
vt 0.208333 0.125000
vt 0.208333 0.187500
vt 0.208333 0.189148
vt 0.208333 0.250000
vt 0.375000 0.416667
vt 0.625000 0.416667
vt 0.791667 0.250000
vt 0.791667 0.189148
vt 0.791667 0.187500
vt 0.625000 0.058488
vt 0.375000 0.058488
vt 0.375000 0.750000
vt 0.625000 0.750000
vt 0.625000 0.833333
vt 0.375000 0.833333
vt 0.875000 0.000000
vt 0.875000 0.058488
vt 0.791667 0.058488
vt 0.791667 0.000000
vt 0.208333 0.000000
vt 0.208333 0.058488
vt 0.125000 0.058488
vt 0.125000 0.000000
vt 0.791667 0.125000
vt 0.875000 0.125000
vt 0.875000 0.187500
vt 0.791667 0.187500
vt 0.125000 0.125000
vt 0.208333 0.125000
vt 0.208333 0.187500
vt 0.125000 0.187500
vt 0.375000 0.062500
vt 0.625000 0.062500
vt 0.625000 0.121199
vt 0.375000 0.121199
vt 0.375000 0.189148
vt 0.625000 0.189148
vt 0.708333 0.062500
vt 0.708333 0.121199
vt 0.708333 0.000000
vt 0.708333 0.058488
vt 0.375000 0.916667
vt 0.625000 0.916667
vt 0.291667 0.058488
vt 0.291667 0.000000
vt 0.291667 0.121199
vt 0.291667 0.062500
vt 0.291667 0.250000
vt 0.291667 0.189148
vt 0.625000 0.333333
vt 0.375000 0.333333
vt 0.708333 0.189148
vt 0.708333 0.250000
vt 0.291667 0.125000
vt 0.291667 0.187500
vt 0.708333 0.187500
vt 0.708333 0.125000
vt 0.375000 0.125000
vt 0.625000 0.125000
vt 0.625000 0.187500
vt 0.375000 0.187500
vt 0.625000 0.750000
vt 0.375000 0.750000
vt 0.625000 0.833333
vt 0.375000 0.833333
vt 0.375000 0.833333
vt 0.625000 0.833333
vt 0.875000 0.058488
vt 0.875000 0.058488
vt 0.875000 0.000000
vt 0.875000 0.058488
vt 0.791667 0.058488
vt 0.791667 0.058488
vt 0.875000 0.058488
vt 0.791667 0.058488
vt 0.791667 0.000000
vt 0.791667 0.000000
vt 0.791667 0.058488
vt 0.208333 0.058488
vt 0.125000 0.058488
vt 0.125000 0.058488
vt 0.208333 0.058488
vt 0.791667 0.125000
vt 0.875000 0.125000
vt 0.875000 0.125000
vt 0.791667 0.125000
vt 0.875000 0.125000
vt 0.875000 0.187500
vt 0.875000 0.187500
vt 0.875000 0.125000
vt 0.875000 0.187500
vt 0.791667 0.187500
vt 0.791667 0.187500
vt 0.875000 0.187500
vt 0.125000 0.125000
vt 0.208333 0.125000
vt 0.208333 0.125000
vt 0.125000 0.125000
vt 0.125000 0.187500
vt 0.125000 0.125000
vt 0.125000 0.125000
vt 0.125000 0.187500
vt 0.625000 0.121199
vt 0.375000 0.121199
vt 0.375000 0.121199
vt 0.625000 0.121199
vt 0.375000 0.189148
vt 0.625000 0.189148
vt 0.625000 0.189148
vt 0.375000 0.189148
vt 0.625000 0.062500
vt 0.708333 0.062500
vt 0.708333 0.062500
vt 0.625000 0.062500
vt 0.708333 0.062500
vt 0.708333 0.121199
vt 0.708333 0.121199
vt 0.708333 0.062500
vt 0.708333 0.121199
vt 0.625000 0.121199
vt 0.625000 0.121199
vt 0.708333 0.121199
vt 0.708333 0.000000
vt 0.708333 0.058488
vt 0.708333 0.058488
vt 0.708333 0.000000
vt 0.375000 0.916667
vt 0.625000 0.916667
vt 0.625000 0.916667
vt 0.375000 0.916667
vt 0.291667 0.058488
vt 0.291667 0.000000
vt 0.291667 0.000000
vt 0.291667 0.058488
vt 0.375000 0.058488
vt 0.291667 0.058488
vt 0.291667 0.058488
vt 0.375000 0.058488
vt 0.291667 0.121199
vt 0.291667 0.062500
vt 0.291667 0.062500
vt 0.291667 0.121199
vt 0.291667 0.062500
vt 0.375000 0.062500
vt 0.375000 0.062500
vt 0.291667 0.062500
vt 0.375000 0.121199
vt 0.291667 0.121199
vt 0.291667 0.121199
vt 0.375000 0.121199
vt 0.291667 0.250000
vt 0.291667 0.189148
vt 0.291667 0.189148
vt 0.291667 0.250000
vt 0.291667 0.189148
vt 0.375000 0.189148
vt 0.375000 0.189148
vt 0.291667 0.189148
vt 0.625000 0.333333
vt 0.375000 0.333333
vt 0.375000 0.333333
vt 0.625000 0.333333
vt 0.625000 0.189148
vt 0.708333 0.189148
vt 0.708333 0.189148
vt 0.625000 0.189148
vt 0.708333 0.189148
vt 0.708333 0.250000
vt 0.708333 0.250000
vt 0.708333 0.189148
vt 0.208333 0.125000
vt 0.291667 0.125000
vt 0.291667 0.125000
vt 0.208333 0.125000
vt 0.291667 0.125000
vt 0.291667 0.187500
vt 0.291667 0.187500
vt 0.291667 0.125000
vt 0.291667 0.187500
vt 0.208333 0.187500
vt 0.208333 0.187500
vt 0.291667 0.187500
vt 0.708333 0.187500
vt 0.708333 0.125000
vt 0.708333 0.125000
vt 0.708333 0.187500
vt 0.708333 0.125000
vt 0.791667 0.125000
vt 0.791667 0.125000
vt 0.708333 0.125000
vt 0.791667 0.187500
vt 0.708333 0.187500
vt 0.708333 0.187500
vt 0.791667 0.187500
vn 0.000000 0.999984 -0.005736
vn 0.000000 0.999984 -0.005736
vn 0.000000 0.999984 -0.005736
vn 0.000000 0.999984 -0.005736
vn 0.000000 0.000000 -1.000000
vn 0.000000 0.000000 -1.000000
vn 0.000000 -0.000001 -1.000000
vn 0.000000 -0.000001 -1.000000
vn 0.000000 0.000000 1.000000
vn 0.000000 0.000000 1.000000
vn 0.000000 0.000000 1.000000
vn 0.000000 0.000000 1.000000
vn 0.999241 0.000000 0.038945
vn 0.999241 0.000000 0.038945
vn 0.999241 0.000000 0.038945
vn 0.999241 0.000000 0.038945
vn -0.999241 0.000000 0.038944
vn -0.999241 0.000000 0.038944
vn -0.999241 0.000000 0.038944
vn -0.999241 0.000000 0.038944
vn 1.000000 0.000000 0.000000
vn 1.000000 0.000000 0.000000
vn 1.000000 0.000000 0.000000
vn 1.000000 0.000000 0.000000
vn 0.000000 1.000000 0.000000
vn 0.000000 1.000000 0.000000
vn 0.000000 1.000000 0.000000
vn 0.000000 1.000000 0.000000
vn -1.000000 0.000000 0.000000
vn -1.000000 0.000000 0.000000
vn -1.000000 0.000000 0.000000
vn -1.000000 0.000000 0.000000
vn 1.000000 0.000000 0.000000
vn 1.000000 0.000000 0.000000
vn 1.000000 0.000000 0.000000
vn 1.000000 0.000000 0.000000
vn 0.000000 1.000000 0.000000
vn 0.000000 1.000000 0.000000
vn 0.000000 1.000000 0.000000
vn 0.000000 1.000000 0.000000
vn -1.000000 0.000000 0.000000
vn -1.000000 0.000000 0.000000
vn -1.000000 0.000000 0.000000
vn -1.000000 0.000000 0.000000
vn 1.000000 0.000000 0.000000
vn 1.000000 0.000000 0.000000
vn 1.000000 0.000000 0.000000
vn 1.000000 0.000000 0.000000
vn 0.000000 1.000000 0.000000
vn 0.000000 1.000000 0.000000
vn 0.000000 1.000000 0.000000
vn 0.000000 1.000000 0.000000
vn -1.000000 0.000000 0.000000
vn -1.000000 0.000000 0.000000
vn -1.000000 0.000000 0.000000
vn -1.000000 0.000000 0.000000
vn 1.000000 0.000000 0.000000
vn 1.000000 0.000000 0.000000
vn 0.000000 0.999985 0.005404
vn 0.000000 0.999985 0.005404
vn 0.000000 0.999985 0.005404
vn 0.000000 0.999985 0.005404
vn -1.000000 0.000000 0.000000
vn -1.000000 0.000000 0.000000
vn 1.000000 0.000000 0.000000
vn 1.000000 0.000000 0.000000
vn 0.000000 1.000000 0.000000
vn 0.000000 1.000000 0.000000
vn 0.000000 1.000000 0.000000
vn 0.000000 1.000000 0.000000
vn -1.000000 0.000000 0.000000
vn -1.000000 0.000000 0.000000
vn 1.000000 0.000000 0.000000
vn 1.000000 0.000000 0.000000
vn 0.000000 1.000000 0.000000
vn 0.000000 1.000000 0.000000
vn 0.000000 1.000000 0.000000
vn 0.000000 1.000000 0.000000
vn -1.000000 0.000000 0.000000
vn -1.000000 0.000000 0.000000
vn 1.000000 0.000000 0.000000
vn 1.000000 0.000000 0.000000
vn 1.000000 0.000000 0.000000
vn 1.000000 0.000000 0.000000
vn 0.995766 0.091922 0.000000
vn 0.995766 0.091922 0.000000
vn 0.995766 0.091922 0.000000
vn 0.995766 0.091922 0.000000
vn 1.000000 0.000000 0.000000
vn 1.000000 0.000000 0.000000
vn 1.000000 0.000000 0.000000
vn 1.000000 0.000000 0.000000
vn 0.998967 0.042697 0.015579
vn 0.998967 0.042697 0.015579
vn 0.998967 0.042697 0.015579
vn 0.998967 0.042697 0.015579
vn 0.000000 -0.015565 0.999879
vn 0.000000 -0.015565 0.999879
vn 0.000000 -0.015565 0.999879
vn 0.000000 -0.015565 0.999879
vn -0.998967 0.042696 0.015579
vn -0.998967 0.042696 0.015579
vn -0.998967 0.042696 0.015579
vn -0.998967 0.042696 0.015579
vn -1.000000 0.000000 0.000000
vn -1.000000 0.000000 0.000000
vn -1.000000 0.000000 0.000000
vn -1.000000 0.000000 0.000000
vn -0.995766 0.091922 0.000000
vn -0.995766 0.091922 0.000000
vn -0.995766 0.091922 0.000000
vn -0.995766 0.091922 0.000000
vn -1.000000 0.000000 0.000000
vn -1.000000 0.000000 0.000000
vn -1.000000 0.000000 0.000000
vn -1.000000 0.000000 0.000000
vn -1.000000 0.000000 0.000000
vn -1.000000 0.000000 0.000000
vn -1.000000 0.000000 0.000000
vn -1.000000 0.000000 0.000000
vn -0.998980 0.042704 -0.014674
vn -0.998980 0.042704 -0.014674
vn -0.998980 0.042704 -0.014674
vn -0.998980 0.042704 -0.014674
vn 0.000000 -0.015564 -0.999879
vn 0.000000 -0.015564 -0.999879
vn 0.000000 -0.015564 -0.999879
vn 0.000000 -0.015564 -0.999879
vn 0.998980 0.042704 -0.014674
vn 0.998980 0.042704 -0.014674
vn 0.998980 0.042704 -0.014674
vn 0.998980 0.042704 -0.014674
vn 1.000000 0.000000 0.000000
vn 1.000000 0.000000 0.000000
vn 1.000000 0.000000 0.000000
vn 1.000000 0.000000 0.000000
vn 1.000000 0.000000 0.000000
vn 1.000000 0.000000 0.000000
vn 0.000000 0.000000 1.000000
vn 0.000000 0.000000 1.000000
vn 0.000000 0.000000 1.000000
vn 0.000000 0.000000 1.000000
vn -1.000000 0.000000 0.000000
vn -1.000000 0.000000 0.000000
vn -1.000000 0.000000 0.000000
vn -1.000000 0.000000 0.000000
vn -1.000000 0.000000 0.000000
vn 0.000000 0.000001 -1.000000
vn 0.000000 0.000001 -1.000000
vn 1.000000 0.000000 0.000000
vn 1.000000 0.000000 0.000000
vn 1.000000 0.000000 0.000000
vn 0.000000 0.000000 -1.000000
vn -0.000000 0.000000 -1.000000
vn -0.000000 0.000000 -1.000000
vn 0.000000 0.000000 -1.000000
vn 0.000000 -1.000000 0.000000
vn 0.000000 -1.000000 0.000000
vn 0.000000 -1.000000 0.000000
vn 0.000000 -1.000000 0.000000
vn 0.000000 0.000000 -1.000000
vn 0.000000 0.000000 -1.000000
vn 0.000000 -1.000000 0.000000
vn 0.000000 -1.000000 0.000000
vn 0.000000 -1.000000 0.000000
vn 0.000000 -1.000000 0.000000
vn -0.000000 0.000000 -1.000000
vn -0.000000 0.000000 -1.000000
vn -0.000000 1.000000 0.000000
vn 0.000000 1.000000 0.000000
vn 0.000000 1.000000 0.000000
vn -0.000000 1.000000 0.000000
vn 0.000000 0.000000 -1.000000
vn 0.000000 0.000000 -1.000000
vn 0.000000 0.000000 -1.000000
vn 0.000000 0.000000 -1.000000
vn -0.000000 1.000000 0.000000
vn -0.000000 1.000000 0.000000
vn 0.000000 1.000000 0.000000
vn 0.000000 1.000000 0.000000
vn 0.000000 0.000000 -1.000000
vn 0.000000 0.000000 -1.000000
vn 0.000000 0.000000 -1.000000
vn 0.000000 0.000000 -1.000000
vn 0.000000 0.000000 1.000000
vn 0.000000 0.000000 1.000000
vn 0.000000 0.000000 1.000000
vn 0.000000 0.000000 1.000000
vn 0.000000 0.000000 -1.000000
vn 0.000000 0.000000 -1.000000
vn 0.000000 0.000000 -1.000000
vn 0.000000 0.000000 -1.000000
vn 0.000000 1.000000 0.000000
vn 0.000000 1.000000 0.000000
vn 0.000000 1.000000 0.000000
vn 0.000000 1.000000 0.000000
vn 0.000000 0.000000 1.000000
vn 0.000000 0.000000 1.000000
vn 0.000000 0.000000 -1.000000
vn 0.000000 0.000000 -1.000000
vn 0.000000 0.000000 1.000000
vn 0.000000 0.000000 1.000000
vn 0.000000 0.000000 1.000000
vn 0.000000 0.000000 1.000000
vn 0.000000 0.000000 -1.000000
vn 0.000000 0.000000 -1.000000
vn 0.000000 0.000000 -1.000000
vn 0.000000 0.000000 -1.000000
vn 0.000000 0.000000 1.000000
vn 0.000000 0.000000 1.000000
vn 0.000000 1.000000 0.000000
vn 0.000000 1.000000 0.000000
vn 0.000000 1.000000 0.000000
vn 0.000000 1.000000 0.000000
vn 0.000000 0.000000 -1.000000
vn 0.000000 0.000000 -1.000000
vn 0.000000 0.000000 1.000000
vn 0.000000 0.000000 1.000000
vn 0.000000 0.000000 1.000000
vn 0.000000 0.000000 1.000000
vn 0.000000 0.000000 -1.000000
vn 0.000000 0.000000 -1.000000
vn 0.000000 0.000000 -1.000000
vn 0.000000 0.000000 -1.000000
vn 0.000000 0.000000 1.000000
vn 0.000000 0.000000 1.000000
vn 0.000000 -1.000000 0.000000
vn 0.000000 -1.000000 0.000000
vn 0.000000 -1.000000 0.000000
vn 0.000000 -1.000000 0.000000
vn 0.000000 0.000000 -1.000000
vn 0.000000 0.000000 -1.000000
vn 0.000000 -1.000000 0.000000
vn 0.000000 -1.000000 0.000000
vn 0.000000 -1.000000 0.000000
vn 0.000000 -1.000000 0.000000
vn 0.000000 0.000000 1.000000
vn 0.000000 0.000000 1.000000
vn 0.000000 0.000000 -1.000000
vn 0.000000 0.000000 -1.000000
vn 0.000000 0.000000 1.000000
vn 0.000000 0.000000 1.000000
vn 0.000000 0.000000 1.000000
vn 0.000000 0.000000 1.000000
vn 0.000000 -1.000000 0.000000
vn 0.000000 -1.000000 0.000000
vn 0.000000 -1.000000 0.000000
vn 0.000000 -1.000000 0.000000
vn 0.000000 0.000000 1.000000
vn 0.000000 0.000000 1.000000
vn 0.000000 -1.000000 0.000000
vn 0.000000 -1.000000 0.000000
vn 0.000001 0.000000 1.000000
vn 0.000001 0.000000 1.000000
vn 0.000000 -1.000000 0.000000
vn 0.000000 -1.000000 0.000000
vn 0.000000 -0.000001 1.000000
vn 0.000000 -0.000001 1.000000
vn 0.000000 -0.000001 1.000000
vn 0.000000 -0.000001 1.000000
vn 1.000000 0.000000 0.000000
vn 1.000000 0.000000 0.000000
vn 0.000000 0.000000 -1.000000
vn 0.000000 0.000000 -1.000000
vn 0.000000 0.000000 -1.000000
vn 0.000000 0.000000 -1.000000
vn -1.000000 0.000000 0.000000
vn -1.000000 0.000000 0.000000
s off
g stone_retaining_wall_wc_1
usemtl initialShadingGroup
f 59/1/1 60/2/2 61/78/3 62/79/4
s 1
f 55/73/5 56/74/6 2/6/7 1/5/8
s off
f 67/80/9 68/81/10 69/82/11 70/83/12
f 69/87/13 68/84/14 71/85/15 72/86/16
f 67/91/17 70/88/18 73/89/19 74/90/20
s 2
f 58/77/21 3/14/22 15/26/23 57/76/24
s off
f 5/16/25 4/15/26 16/27/27 17/28/28
s 3
f 6/17/29 53/70/30 54/71/31 18/29/32
s 4
f 75/95/33 76/92/34 77/93/35 78/94/36
s off
f 104/126/37 103/127/38 105/128/39 106/129/40
s 5
f 82/96/41 81/97/42 83/98/43 84/99/44
s 2
f 45/60/45 11/22/46 19/30/47 44/59/48
s off
f 88/100/49 87/101/50 89/102/51 90/103/52
s 3
f 14/25/53 50/67/54 51/68/55 22/33/56
s 2
f 57/76/24 15/26/23 2/12/57 56/75/58
s off
f 96/104/59 95/105/60 97/4/61 98/3/62
s 3
f 18/29/32 54/71/31 55/72/63 1/13/64
s 2
f 44/59/48 19/30/47 7/18/65 43/58/66
s off
f 21/32/67 20/31/68 8/19/69 9/20/70
s 3
f 22/33/56 51/68/55 52/69/71 10/21/72
s 2
f 46/61/73 23/34/74 11/22/46 45/60/45
s off
f 25/36/75 24/35/76 12/23/77 13/24/78
s 3
f 26/37/79 49/66/80 50/67/54 14/25/53
s 2
f 20/31/81 28/39/82 27/38/83 8/19/84
s off
f 87/101/85 91/106/86 92/107/87 89/102/88
s 2
f 24/35/89 30/41/90 29/40/91 12/23/92
s off
f 60/2/93 63/108/94 64/109/95 61/78/96
f 65/110/97 63/111/98 60/10/99 59/9/100
f 66/112/101 65/113/102 59/1/103 62/79/104
s 3
f 34/47/105 33/46/106 25/36/107 13/24/108
s off
f 94/114/109 93/115/110 88/100/111 90/103/112
s 3
f 36/49/113 35/48/114 21/32/115 9/20/116
f 37/50/117 36/49/113 9/20/116 5/16/118
f 38/51/119 37/50/117 5/16/118 17/28/120
s off
f 100/116/121 99/117/122 96/104/123 98/3/124
f 98/3/125 97/4/126 101/118/127 100/119/128
f 95/105/129 102/120/130 101/121/131 97/4/132
s 2
f 4/15/133 42/57/134 41/56/135 16/27/136
f 8/19/84 27/38/83 42/57/134 4/15/133
f 28/39/82 44/59/48 43/58/66 27/38/83
f 29/40/91 45/60/45 44/59/48 28/39/82
f 30/41/90 46/61/73 45/60/45 29/40/91
f 31/43/137 47/63/138 46/61/73 30/41/90
s off
f 48/65/139 47/62/140 31/42/141 32/45/142
s 3
f 49/66/80 48/64/143 32/44/144 33/46/106
f 50/67/54 49/66/80 33/46/106 34/47/105
f 51/68/55 50/67/54 34/47/105 35/48/114
f 52/69/71 51/68/55 35/48/114 36/49/113
s 5
f 83/98/43 81/97/42 85/122/145 86/123/146
s 3
f 54/71/31 53/70/30 37/50/117 38/51/119
f 55/72/63 54/71/31 38/51/119 39/52/147
s 1
f 39/53/148 40/54/149 56/74/6 55/73/5
s 2
f 41/56/135 57/76/24 56/75/58 40/55/150
f 42/57/134 58/77/21 57/76/24 41/56/135
s 4
f 79/124/151 80/125/152 76/92/34 75/95/33
s 8
f 24/35/153 25/36/154 62/79/155 61/78/156
s 9
f 31/7/157 30/8/158 64/130/159 63/131/160
s 8
f 30/132/161 24/133/153 61/134/156 64/135/162
s 9
f 32/11/163 31/136/157 63/137/160 65/138/164
f 33/139/165 32/140/163 65/141/164 66/142/166
s 8
f 25/143/154 33/144/167 66/145/168 62/146/155
s 10
f 47/147/169 48/148/170 70/149/171 69/150/172
s off
f 23/151/173 46/152/174 72/153/175 71/154/176
s 10
f 46/155/177 47/156/169 69/157/172 72/158/178
f 48/159/170 49/160/179 73/161/180 70/162/171
s off
f 49/163/181 26/164/182 74/165/183 73/166/184
s 11
f 43/167/185 7/168/186 77/169/187 76/170/188
s 12
f 3/171/189 58/172/190 75/173/191 78/174/192
s off
f 42/175/193 27/176/194 80/177/195 79/178/196
s 11
f 27/179/197 43/180/185 76/181/188 80/182/198
s 12
f 58/183/190 42/184/199 79/185/200 75/186/191
s 13
f 10/187/201 52/188/202 81/189/203 82/190/204
s 14
f 53/191/205 6/192/206 84/193/207 83/194/208
s 13
f 52/195/202 36/196/209 85/197/210 81/198/203
s off
f 36/199/211 37/200/212 86/201/213 85/202/214
s 14
f 37/203/215 53/204/205 83/205/208 86/206/216
s 15
f 13/207/217 12/208/218 87/209/219 88/210/220
s 16
f 20/211/221 21/212/222 90/213/223 89/214/224
s 15
f 12/215/218 29/216/225 91/217/226 87/218/219
s off
f 29/219/227 28/220/228 92/221/229 91/222/230
s 16
f 28/223/231 20/224/221 89/225/224 92/226/232
s off
f 35/227/233 34/228/234 93/229/235 94/230/236
s 15
f 34/231/237 13/232/217 88/233/220 93/234/238
s 16
f 21/235/222 35/236/239 94/237/240 90/238/223
s 17
f 17/239/241 16/240/242 95/241/243 96/242/244
s 18
f 39/243/245 38/244/246 99/245/247 100/246/248
s 17
f 38/247/249 17/248/241 96/249/244 99/250/250
s 18
f 40/251/251 39/252/245 100/253/248 101/254/252
s 17
f 16/255/242 41/256/253 102/257/254 95/258/243
s 18
f 41/259/255 40/260/251 101/261/252 102/262/256
s off
f 9/20/257 8/19/258 103/127/259 104/126/260
s 2
f 8/19/84 4/15/133 105/128/261 103/127/262
s off
f 4/15/263 5/16/264 106/129/265 105/128/266
s 3
f 5/16/118 9/20/116 104/126/267 106/129/268
