# This file uses centimeters as units for non-parametric coordinates.

mtllib tall_wall_rectangle_hedge_er_1.mtl
g default
v -48.000000 0.000000 97.170166
v 0.000000 0.000000 97.170166
v -48.000000 96.000008 97.170166
v 0.000000 96.000008 97.170166
v -48.000000 96.000008 1.170166
v 0.000000 96.000008 1.170166
v -48.000000 0.000000 1.170166
v 0.000000 0.000000 1.170166
vt 0.412157 0.167401
vt -0.353448 0.163028
vt -0.355197 0.469270
vt -0.508319 0.468396
vt -0.356072 0.622392
vt 0.105915 0.165652
vt -0.048955 0.471020
vt -0.049830 0.624141
vt 0.104166 0.471894
vt -0.047206 0.164777
vt -0.506569 0.162154
vt 0.410408 0.473643
vn 0.000000 0.000000 1.000000
vn 0.000000 0.000000 1.000000
vn 0.000000 0.000000 1.000000
vn 0.000000 0.000000 1.000000
vn 0.000000 1.000000 0.000000
vn 0.000000 1.000000 0.000000
vn 0.000000 1.000000 0.000000
vn 0.000000 1.000000 0.000000
vn 0.000000 0.000000 -1.000000
vn 0.000000 0.000000 -1.000000
vn 0.000000 0.000000 -1.000000
vn 0.000000 0.000000 -1.000000
vn 1.000000 0.000000 0.000000
vn 1.000000 0.000000 0.000000
vn 1.000000 0.000000 0.000000
vn 1.000000 0.000000 0.000000
vn -1.000000 0.000000 0.000000
vn -1.000000 0.000000 0.000000
vn -1.000000 0.000000 0.000000
vn -1.000000 0.000000 0.000000
s off
g tall_wall_rectangle_hedge_er_1
usemtl lambert2SG
f 1/11/1 2/2/2 4/3/3 3/4/4
f 3/5/5 4/3/6 6/7/7 5/8/8
f 5/9/9 6/7/10 8/10/11 7/6/12
f 2/2/13 8/10/14 6/7/15 4/3/16
f 7/6/17 1/1/18 3/12/19 5/9/20
