# This file uses centimeters as units for non-parametric coordinates.

mtllib thin_cone_topiary_er_1.mtl
g default
v 16.367775 0.000000 -5.318207
v 10.115845 0.000000 -13.923248
v 0.000000 0.000000 -17.210083
v -10.115837 0.000000 -13.923248
v -16.367767 0.000000 -5.318207
v -16.367767 0.000000 5.318207
v -10.115837 0.000000 13.923248
v 0.000000 0.000000 17.210083
v 10.115837 0.000000 13.923248
v 16.367767 0.000000 5.318207
v 23.175224 9.248703 -7.530090
v 14.323074 9.248703 -19.714020
v 0.000000 9.248703 -24.367859
v -14.323074 9.248703 -19.714020
v -23.175217 9.248703 -7.530090
v -23.175217 9.248703 7.530090
v -14.323067 9.248703 19.714020
v 0.000000 9.248703 24.367859
v 14.323067 9.248703 19.714020
v 23.175209 9.248703 7.530090
v 28.927399 24.815685 -9.399078
v 17.878113 24.815685 -24.607117
v 0.000000 24.815685 -30.416077
v -17.878113 24.815685 -24.607117
v -28.927383 24.815685 -9.399078
v -28.927383 24.815685 9.399078
v -17.878105 24.815685 24.607117
v 0.000000 24.815685 30.416046
v 17.878105 24.815685 24.607086
v 28.927376 24.815685 9.399078
v 26.483620 60.722061 -8.605042
v 16.367775 60.722061 -22.528320
v 0.000000 60.722061 -27.846527
v -16.367767 60.722061 -22.528320
v -26.483604 60.722061 -8.605042
v -26.483604 60.722061 8.605042
v -16.367767 60.722061 22.528290
v 0.000000 60.722061 27.846497
v 16.367767 60.722061 22.528290
v 26.483601 60.722061 8.605042
v 19.690464 103.738815 -6.397827
v 12.169373 103.738815 -16.749695
v 0.000000 103.738815 -20.703766
v -12.169373 103.738815 -16.749695
v -19.690460 103.738815 -6.397827
v -19.690460 103.738815 6.397827
v -12.169373 103.738815 16.749695
v 0.000000 103.738815 20.703766
v 12.169365 103.738815 16.749695
v 19.690453 103.738815 6.397827
v 11.325836 148.837677 -3.679993
v 6.999756 148.837677 -9.634338
v 0.000000 148.837677 -11.908691
v -6.999748 148.837677 -9.634338
v -11.325836 148.837677 -3.679993
v -11.325836 148.837677 3.679993
v -6.999748 148.837677 9.634338
v 0.000000 148.837677 11.908691
v 6.999748 148.837677 9.634338
v 11.325836 148.837677 3.679993
v 7.484375 163.777420 -2.431824
v 4.625595 163.777420 -6.366577
v 0.000000 163.777435 -7.869537
v -4.625587 163.777420 -6.366577
v -7.484375 163.777420 -2.431824
v -7.484375 163.777420 2.431824
v -4.625587 163.777420 6.366577
v 0.000000 163.777435 7.869537
v 4.625587 163.777420 6.366577
v 7.484375 163.777420 2.431824
v 0.000000 190.551376 0.000000
vt 0.627437 0.222932
vt 0.625738 0.281118
vt 0.566534 0.279352
vt 0.567943 0.221146
vt 0.686766 0.225043
vt 0.685531 0.283592
vt 0.620804 0.398928
vt 0.563909 0.396529
vt 0.507282 0.278473
vt 0.508281 0.220143
vt 0.569313 0.167892
vt 0.629129 0.170101
vt 0.746327 0.226169
vt 0.747065 0.286136
vt 0.678434 0.403700
vt 0.687770 0.172827
vt 0.560257 0.550550
vt 0.607850 0.553533
vt 0.506941 0.396388
vt 0.737788 0.411094
vt 0.655576 0.560345
vt 0.512572 0.551313
vt 0.556170 0.730711
vt 0.585598 0.733170
vt 0.703616 0.571275
vt 0.614777 0.739144
vt 0.526655 0.731731
vt 0.554642 0.793987
vt 0.575492 0.796020
vt 0.643612 0.748634
vt 0.595938 0.801189
vt 0.533733 0.795014
vt 0.551545 0.917561
vt 0.615550 0.809469
vt 0.807242 0.223933
vt 0.812607 0.287888
vt 0.509080 0.167029
vt 0.450122 0.167335
vt 0.264935 0.199442
vt 0.246411 0.273437
vt 0.800109 0.421746
vt 0.513100 0.799161
vt 0.744660 0.174418
vt 0.799386 0.172369
vt 0.259200 0.422932
vt 0.849741 0.162166
vt 0.493151 0.806508
vt 0.752082 0.586800
vt 0.497243 0.736298
vt 0.474220 0.817096
vt 0.317286 0.596417
vt 0.468011 0.744395
vt 0.671891 0.761606
vt 0.410782 0.771154
vt 0.464575 0.555890
vt 0.633995 0.820997
vt 0.456862 0.831076
vt 0.439183 0.756024
vt 0.328616 0.212658
vt 0.320437 0.276329
vt 0.416076 0.564582
vt 0.449098 0.398526
vt 0.389267 0.217881
vt 0.385900 0.277785
vt 0.326591 0.410887
vt 0.366956 0.577859
vt 0.393226 0.166250
vt 0.338658 0.161508
vt 0.448817 0.219631
vt 0.447443 0.278223
vt 0.389401 0.403173
vt 0.650699 0.835821
vt 0.699586 0.778046
vt 0.800869 0.607601
vt 0.866796 0.436899
vt 0.886753 0.288558
vt 0.871592 0.213638
vt 0.288739 0.149132
vn 0.853166 -0.441886 -0.277210
vn 0.752122 -0.612039 -0.244379
vn 0.464836 -0.612039 -0.639793
vn 0.527285 -0.441886 -0.725746
vn 0.000000 -0.612039 -0.790827
vn 0.000000 -0.441886 -0.897071
vn -0.464837 -0.612039 -0.639793
vn -0.527285 -0.441886 -0.725746
vn -0.752122 -0.612039 -0.244379
vn -0.853166 -0.441886 -0.277210
vn -0.752122 -0.612039 0.244379
vn -0.853166 -0.441886 0.277210
vn -0.464837 -0.612039 0.639793
vn -0.527285 -0.441886 0.725746
vn 0.000000 -0.612039 0.790827
vn 0.000000 -0.441885 0.897071
vn 0.464837 -0.612039 0.639793
vn 0.527285 -0.441885 0.725746
vn 0.752122 -0.612039 0.244379
vn 0.853166 -0.441885 0.277211
vn 0.586863 -0.055992 -0.807748
vn 0.949565 -0.055992 -0.308532
vn 0.000000 -0.055992 -0.998431
vn -0.586864 -0.055992 -0.807748
vn -0.949565 -0.055991 -0.308532
vn -0.949565 -0.055991 0.308532
vn -0.586863 -0.055991 0.807748
vn 0.000000 -0.055991 0.998431
vn 0.586863 -0.055991 0.807748
vn 0.949564 -0.055992 0.308533
vn 0.583758 0.116855 -0.803474
vn 0.944541 0.116855 -0.306899
vn -0.000000 0.116855 -0.993149
vn -0.583759 0.116855 -0.803474
vn -0.944541 0.116855 -0.306900
vn -0.944541 0.116855 0.306900
vn -0.583758 0.116855 0.803475
vn 0.000000 0.116855 0.993149
vn 0.583758 0.116855 0.803474
vn 0.944541 0.116855 0.306900
vn 0.936415 0.174795 -0.304259
vn 0.578736 0.174795 -0.796562
vn -0.000000 0.174795 -0.984605
vn -0.578736 0.174795 -0.796562
vn -0.936415 0.174795 -0.304260
vn -0.936415 0.174795 0.304260
vn -0.578736 0.174795 0.796562
vn -0.000000 0.174795 0.984605
vn 0.578736 0.174795 0.796562
vn 0.936415 0.174795 0.304260
vn 0.931367 0.202429 -0.302619
vn 0.575616 0.202429 -0.792268
vn -0.000000 0.202429 -0.979297
vn -0.575616 0.202429 -0.792268
vn -0.931367 0.202429 -0.302619
vn -0.931367 0.202429 0.302619
vn -0.575616 0.202429 0.792268
vn -0.000000 0.202429 0.979297
vn 0.575616 0.202429 0.792268
vn 0.931367 0.202429 0.302620
vn 0.915937 0.269239 -0.297606
vn 0.566080 0.269239 -0.779143
vn -0.000000 0.269240 -0.963073
vn -0.566080 0.269239 -0.779143
vn -0.915937 0.269239 -0.297607
vn -0.915937 0.269239 0.297607
vn -0.566080 0.269239 0.779143
vn -0.000000 0.269240 0.963073
vn 0.566080 0.269239 0.779143
vn 0.915937 0.269239 0.297607
vn 0.000000 1.000000 0.000000
s 1
g thin_cone_topiary_er_1
usemtl lambert2SG
f 11/10/1 1/37/2 2/11/3 12/4/4
f 12/4/4 2/11/3 3/12/5 13/1/6
f 13/1/6 3/12/5 4/16/7 14/5/8
f 14/5/8 4/16/7 5/43/9 15/13/10
f 15/13/10 5/43/9 6/44/11 16/35/12
f 16/35/12 6/44/11 7/46/13 17/77/14
f 17/39/14 7/78/13 8/68/15 18/59/16
f 18/59/16 8/68/15 9/67/17 19/63/18
f 19/63/18 9/67/17 10/38/19 20/69/20
f 20/69/20 10/38/19 1/37/2 11/10/1
f 12/4/4 22/3/21 21/9/22 11/10/1
f 13/1/6 23/2/23 22/3/21 12/4/4
f 14/5/8 24/6/24 23/2/23 13/1/6
f 15/13/10 25/14/25 24/6/24 14/5/8
f 16/35/12 26/36/26 25/14/25 15/13/10
f 17/77/14 27/76/27 26/36/26 16/35/12
f 18/59/16 28/60/28 27/40/27 17/39/14
f 19/63/18 29/64/29 28/60/28 18/59/16
f 20/69/20 30/70/30 29/64/29 19/63/18
f 11/10/1 21/9/22 30/70/30 20/69/20
f 22/3/21 32/8/31 31/19/32 21/9/22
f 23/2/23 33/7/33 32/8/31 22/3/21
f 24/6/24 34/15/34 33/7/33 23/2/23
f 25/14/25 35/20/35 34/15/34 24/6/24
f 26/36/26 36/41/36 35/20/35 25/14/25
f 27/76/27 37/75/37 36/41/36 26/36/26
f 28/60/28 38/65/38 37/45/37 27/40/27
f 29/64/29 39/71/39 38/65/38 28/60/28
f 30/70/30 40/62/40 39/71/39 29/64/29
f 21/9/22 31/19/32 40/62/40 30/70/30
f 41/22/41 31/19/32 32/8/31 42/17/42
f 42/17/42 32/8/31 33/7/33 43/18/43
f 43/18/43 33/7/33 34/15/34 44/21/44
f 44/21/44 34/15/34 35/20/35 45/25/45
f 45/25/45 35/20/35 36/41/36 46/48/46
f 46/48/46 36/41/36 37/75/37 47/74/47
f 47/51/47 37/45/37 38/65/38 48/66/48
f 48/66/48 38/65/38 39/71/39 49/61/49
f 49/61/49 39/71/39 40/62/40 50/55/50
f 50/55/50 40/62/40 31/19/32 41/22/41
f 51/27/51 41/22/41 42/17/42 52/23/52
f 52/23/52 42/17/42 43/18/43 53/24/53
f 53/24/53 43/18/43 44/21/44 54/26/54
f 54/26/54 44/21/44 45/25/45 55/30/55
f 55/30/55 45/25/45 46/48/46 56/53/56
f 56/53/56 46/48/46 47/74/47 57/73/57
f 57/54/57 47/51/47 48/66/48 58/58/58
f 58/58/58 48/66/48 49/61/49 59/52/59
f 59/52/59 49/61/49 50/55/50 60/49/60
f 60/49/60 50/55/50 41/22/41 51/27/51
f 61/32/61 51/27/51 52/23/52 62/28/62
f 62/28/62 52/23/52 53/24/53 63/29/63
f 63/29/63 53/24/53 54/26/54 64/31/64
f 64/31/64 54/26/54 55/30/55 65/34/65
f 65/34/65 55/30/55 56/53/56 66/56/66
f 66/56/66 56/53/56 57/73/57 67/72/67
f 67/57/67 57/54/57 58/58/58 68/50/68
f 68/50/68 58/58/58 59/52/59 69/47/69
f 69/47/69 59/52/59 60/49/60 70/42/70
f 70/42/70 60/49/60 51/27/51 61/32/61
f 71/33/71 61/32/61 62/28/62
f 71/33/71 62/28/62 63/29/63
f 71/33/71 63/29/63 64/31/64
f 71/33/71 64/31/64 65/34/65
f 71/33/71 65/34/65 66/56/66
f 71/33/71 66/56/66 67/72/67
f 71/33/71 67/57/67 68/50/68
f 71/33/71 68/50/68 69/47/69
f 71/33/71 69/47/69 70/42/70
f 71/33/71 70/42/70 61/32/61
