# This file uses centimeters as units for non-parametric coordinates.

mtllib trampolne_rectangle_aaa_1.mtl
g default
v -225.988831 51.378456 -11.517127
v -225.988831 51.378456 -107.105690
v -118.400673 51.378456 -107.105690
v -118.400673 51.378456 -11.517127
v -206.692184 51.378456 -28.661556
v -206.692184 51.378456 -89.961266
v -137.697311 51.378456 -28.661556
v -137.697311 51.378456 -89.961266
vt 0.457130 0.261695
vt 0.457130 0.518111
vt 0.745734 0.518111
vt 0.745734 0.261695
vt 0.508893 0.472121
vt 0.508893 0.307685
vt 0.693972 0.307685
vt 0.693972 0.472121
vn 0.000000 1.000000 0.000000
vn 0.000000 1.000000 0.000000
vn 0.000000 1.000000 0.000000
vn 0.000000 1.000000 0.000000
vn 0.000000 1.000000 0.000000
vn 0.000000 1.000000 0.000000
vn 0.000000 1.000000 0.000000
vn 0.000000 1.000000 0.000000
vn 0.000000 1.000000 0.000000
vn 0.000000 1.000000 0.000000
vn 0.000000 1.000000 0.000000
vn 0.000000 1.000000 0.000000
vn 0.000000 1.000000 0.000000
vn 0.000000 1.000000 0.000000
vn 0.000000 1.000000 0.000000
vn 0.000000 1.000000 0.000000
vn 0.000000 1.000000 -0.000000
vn 0.000000 1.000000 -0.000000
vn 0.000000 1.000000 -0.000000
vn 0.000000 1.000000 -0.000000
s off
g tampoline_pad_01 trampolne_rectangle_aaa_1
usemtl initialShadingGroup
f 5/6/1 7/7/2 8/8/3 6/5/4
f 2/2/5 1/1/6 5/6/7 6/5/8
f 1/1/9 4/4/10 7/7/11 5/6/12
f 7/7/13 4/4/14 3/3/15 8/8/16
f 3/3/17 2/2/18 6/5/19 8/8/20
g default
v -118.400627 51.378456 -11.517127
v -118.400627 51.378456 -107.105690
v -10.812452 51.378456 -107.105690
v -10.812452 51.378456 -11.517127
v -99.103973 51.378456 -28.661556
v -99.103973 51.378456 -89.961266
v -30.109104 51.378456 -28.661556
v -30.109104 51.378456 -89.961266
vt 0.457130 0.261695
vt 0.457130 0.518111
vt 0.745734 0.518111
vt 0.745734 0.261695
vt 0.508893 0.472121
vt 0.508893 0.307685
vt 0.693972 0.307685
vt 0.693972 0.472121
vn 0.000000 1.000000 0.000000
vn 0.000000 1.000000 0.000000
vn 0.000000 1.000000 0.000000
vn 0.000000 1.000000 0.000000
vn 0.000000 1.000000 0.000000
vn 0.000000 1.000000 0.000000
vn 0.000000 1.000000 0.000000
vn 0.000000 1.000000 0.000000
vn 0.000000 1.000000 0.000000
vn 0.000000 1.000000 0.000000
vn 0.000000 1.000000 0.000000
vn 0.000000 1.000000 0.000000
vn 0.000000 1.000000 0.000000
vn 0.000000 1.000000 0.000000
vn 0.000000 1.000000 0.000000
vn 0.000000 1.000000 0.000000
vn 0.000000 1.000000 -0.000000
vn 0.000000 1.000000 -0.000000
vn 0.000000 1.000000 -0.000000
vn 0.000000 1.000000 -0.000000
s off
g trampolne_rectangle_aaa_1 tampoline_pad_02
usemtl initialShadingGroup
f 14/13/21 13/14/22 15/15/23 16/16/24
f 10/10/25 9/9/26 13/14/27 14/13/28
f 9/9/29 12/12/30 15/15/31 13/14/32
f 12/12/33 11/11/34 16/16/35 15/15/36
f 11/11/37 10/10/38 14/13/39 16/16/40
g default
v -241.008316 46.707687 4.911662
v 4.207010 46.707687 4.911662
v -241.008316 46.707687 -123.534477
v 4.207010 46.707687 -123.534477
v -225.988831 56.049225 -11.517120
v -10.812468 56.049225 -11.517120
v -10.812468 56.049225 -107.105690
v -225.988831 56.049225 -107.105690
v -225.988831 46.707687 -107.105690
v -10.812468 46.707687 -107.105690
v -10.812468 46.707687 -11.517120
v -225.988831 46.707687 -11.517120
v -225.988831 51.378456 -11.517120
v -10.812468 51.378456 -11.517120
v -10.812468 51.378456 -107.105690
v -225.988831 51.378456 -107.105690
v -239.704666 56.049225 3.485658
v -241.008316 54.181103 4.911662
v 2.903323 56.049225 3.485658
v 4.207010 54.181103 4.911662
v -239.704666 56.049225 -122.108475
v -241.008316 54.181103 -123.534477
v 2.903323 56.049225 -122.108475
v 4.207010 54.181103 -123.534477
vt 0.001610 0.707022
vt 0.523753 0.852538
vt 0.995600 0.798255
vt 0.482469 0.657944
vt 0.935262 0.572616
vt 0.956565 0.758387
vt 0.463368 0.798244
vt 0.530954 0.862477
vt 0.554706 0.739169
vt 0.040588 0.789617
vt 0.068478 0.973625
vt 0.005022 0.852575
vt 0.002648 0.886105
vt 0.518578 0.901874
vt 0.463651 0.948045
vt 0.992374 0.816302
vt 0.958535 0.851788
vt 0.003096 0.725634
vt 0.515413 0.731255
vt 0.481957 0.775847
vt 0.987717 0.672550
vt 0.934868 0.716339
vt 0.494925 0.812387
vt 0.491677 0.654475
vt 0.065353 0.798615
vt 0.038550 0.659072
vt 0.552472 0.570618
vt 0.533294 0.759288
vt 0.995268 0.656875
vt 0.006065 0.732630
vt 0.995189 0.811191
vt 0.499072 0.670458
vt 0.010227 0.902289
vt 0.518366 0.724207
vt 0.526156 0.885937
vt 0.497761 0.817497
vt 0.992991 0.624702
vt 0.039843 0.776930
vt 0.519726 0.705594
vt 0.065200 0.948003
vt 0.551516 0.714342
vt 0.531779 0.852728
vt 0.481273 0.788562
vt 0.931445 0.740932
vt 0.959398 0.861521
vt 0.460387 0.973467
vt 0.494465 0.799457
vt 0.494247 0.622509
vn 0.000000 0.000000 1.000000
vn 0.000000 0.000000 1.000000
vn 0.000000 0.000000 1.000000
vn 0.000000 0.000000 1.000000
vn 0.000000 0.000000 -1.000000
vn 0.000000 0.000000 -1.000000
vn 0.000000 0.000000 -1.000000
vn 0.000000 0.000000 -1.000000
vn 1.000000 0.000000 0.000000
vn 1.000000 0.000000 0.000000
vn 1.000000 0.000000 0.000000
vn 1.000000 0.000000 0.000000
vn -1.000000 0.000000 0.000000
vn -1.000000 0.000000 0.000000
vn -1.000000 0.000000 0.000000
vn -1.000000 0.000000 0.000000
vn 0.000000 1.000000 0.000000
vn 0.000000 1.000000 0.000000
vn 0.000000 1.000000 0.000000
vn 0.000000 1.000000 0.000000
vn 0.000000 1.000000 0.000000
vn 0.000000 1.000000 0.000000
vn 0.000000 1.000000 0.000000
vn 0.000000 1.000000 0.000000
vn 0.000000 1.000000 0.000000
vn 0.000000 1.000000 0.000000
vn 0.000000 1.000000 0.000000
vn 0.000000 1.000000 0.000000
vn 0.000000 1.000000 0.000000
vn 0.000000 1.000000 0.000000
vn 0.000000 1.000000 0.000000
vn 0.000000 1.000000 0.000000
vn 0.000000 -1.000000 0.000000
vn 0.000000 -1.000000 0.000000
vn 0.000000 -1.000000 0.000000
vn 0.000000 -1.000000 0.000000
vn 0.000000 -1.000000 0.000000
vn 0.000000 -1.000000 0.000000
vn 0.000000 -1.000000 0.000000
vn 0.000000 -1.000000 0.000000
vn 0.000000 -1.000000 0.000000
vn 0.000000 -1.000000 0.000000
vn 0.000000 -1.000000 0.000000
vn 0.000000 -1.000000 0.000000
vn 0.000000 -1.000000 0.000000
vn 0.000000 -1.000000 0.000000
vn 0.000000 -1.000000 0.000000
vn 0.000000 -1.000000 0.000000
vn 0.000000 0.000000 -1.000000
vn 0.000000 0.000000 -1.000000
vn 0.000000 0.000000 -1.000000
vn 0.000000 0.000000 -1.000000
vn -1.000000 0.000000 0.000000
vn -1.000000 0.000000 0.000000
vn -1.000000 0.000000 0.000000
vn -1.000000 0.000000 0.000000
vn 0.000000 0.000000 1.000000
vn 0.000000 0.000000 1.000000
vn 0.000000 0.000000 1.000000
vn 0.000000 0.000000 1.000000
vn 1.000000 0.000000 0.000000
vn 1.000000 0.000000 0.000000
vn 1.000000 0.000000 0.000000
vn 1.000000 0.000000 0.000000
vn -0.820063 0.572273 0.000000
vn -0.820063 0.572273 0.000000
vn -0.820063 0.572273 0.000000
vn -0.820063 0.572273 0.000000
vn 0.000000 0.606764 0.794882
vn 0.000000 0.606764 0.794882
vn 0.000000 0.606764 0.794882
vn 0.000000 0.606764 0.794882
vn 0.820056 0.572283 0.000000
vn 0.820056 0.572283 0.000000
vn 0.820056 0.572283 0.000000
vn 0.820056 0.572283 0.000000
vn 0.000000 0.606763 -0.794883
vn 0.000000 0.606763 -0.794882
vn 0.000000 0.606763 -0.794883
vn 0.000000 0.606763 -0.794883
s off
g trampolne_rectangle_aaa_1 pCube1
usemtl initialShadingGroup
f 17/63/41 18/19/42 36/47/43 34/39/44
f 38/50/45 40/34/46 20/17/47 19/55/48
f 18/64/49 20/53/50 40/45/51 36/40/52
f 19/28/53 17/18/54 34/51/55 38/29/56
f 33/52/57 35/32/58 22/33/59 21/58/60
f 35/48/61 39/37/62 23/38/63 22/57/64
f 39/46/65 37/35/66 24/36/67 23/54/68
f 37/49/69 33/30/70 21/31/71 24/56/72
f 19/55/73 20/17/74 26/42/75 25/20/76
f 20/53/77 18/64/78 27/43/79 26/21/80
f 18/19/81 17/63/82 28/44/83 27/22/84
f 28/23/85 17/18/86 19/28/87 25/41/88
f 21/58/89 22/33/90 30/61/91 29/24/92
f 22/57/93 23/38/94 31/60/95 30/25/96
f 23/54/97 24/36/98 32/59/99 31/26/100
f 24/56/101 21/31/102 29/62/103 32/27/104
f 34/51/105 33/30/106 37/49/107 38/29/108
f 33/52/109 34/39/110 36/47/111 35/32/112
f 35/48/113 36/40/114 40/45/115 39/37/116
f 38/50/117 37/35/118 39/46/119 40/34/120
g default
v -233.498566 0.000000 0.000001
v -233.498566 0.000000 -3.302729
v -236.801315 0.000000 -3.302731
v -236.801300 0.000000 -0.000000
v -233.498566 46.707687 0.000001
v -233.498566 46.707687 -3.302729
v -236.801315 46.707687 -3.302731
v -236.801300 46.707687 -0.000000
vt 0.987973 0.049845
vt 0.987973 0.062177
vt 0.913799 0.062177
vt 0.913799 0.049845
vt 0.987973 0.012851
vt 0.987973 0.025182
vt 0.913799 0.025182
vt 0.913799 0.012851
vt 0.987973 0.037514
vt 0.913799 0.037514
vn 1.000000 0.000000 0.000000
vn 1.000000 0.000000 0.000000
vn 1.000000 0.000000 0.000000
vn 1.000000 0.000000 0.000000
vn 0.000000 0.000000 -1.000000
vn 0.000000 0.000000 -1.000000
vn 0.000000 0.000000 -1.000000
vn 0.000000 0.000000 -1.000000
vn -1.000000 0.000000 0.000005
vn -1.000000 0.000000 0.000005
vn -1.000000 0.000000 0.000005
vn -1.000000 0.000000 0.000005
vn -0.000001 0.000000 1.000000
vn -0.000001 0.000000 1.000000
vn -0.000001 0.000000 1.000000
vn -0.000001 0.000000 1.000000
s off
g trampolne_rectangle_aaa_1 trampoline_leg_01
usemtl initialShadingGroup
f 41/65/121 42/66/122 46/67/123 45/68/124
f 42/69/125 43/70/126 47/71/127 46/72/128
f 43/70/129 44/73/130 48/74/131 47/71/132
f 44/73/133 41/65/134 45/68/135 48/74/136
g default
v 0.000002 0.000000 -3.302731
v -3.302729 0.000000 -3.302729
v -3.302731 0.000000 0.000001
v 0.000000 0.000000 0.000000
v 0.000002 46.707687 -3.302731
v -3.302729 46.707687 -3.302729
v -3.302731 46.707687 0.000001
v 0.000000 46.707687 0.000000
vt 0.987973 0.049845
vt 0.987973 0.062177
vt 0.913799 0.062177
vt 0.913799 0.049845
vt 0.987973 0.012851
vt 0.987973 0.025182
vt 0.913799 0.025182
vt 0.913799 0.012851
vt 0.987973 0.037514
vt 0.913799 0.037514
vn -0.000000 0.000000 -1.000000
vn -0.000000 0.000000 -1.000000
vn -0.000000 0.000000 -1.000000
vn -0.000000 0.000000 -1.000000
vn -1.000000 0.000000 -0.000001
vn -1.000000 0.000000 -0.000001
vn -1.000000 0.000000 -0.000001
vn -1.000000 0.000000 -0.000001
vn 0.000000 0.000000 1.000000
vn 0.000000 0.000000 1.000000
vn 0.000000 0.000000 1.000000
vn 0.000000 0.000000 1.000000
vn 1.000000 0.000000 0.000000
vn 1.000000 0.000000 0.000000
vn 1.000000 0.000000 0.000000
vn 1.000000 0.000000 0.000000
s off
g trampolne_rectangle_aaa_1 trampoline_leg_02
usemtl initialShadingGroup
f 49/75/137 50/76/138 54/77/139 53/78/140
f 50/79/141 51/80/142 55/81/143 54/82/144
f 51/80/145 52/83/146 56/84/147 55/81/148
f 52/83/149 49/75/150 53/78/151 56/84/152
g default
v -3.302731 0.000000 -118.622818
v -3.302729 0.000000 -115.320084
v 0.000002 0.000000 -115.320084
v 0.000000 0.000000 -118.622818
v -3.302731 46.707687 -118.622818
v -3.302729 46.707687 -115.320084
v 0.000002 46.707687 -115.320084
v 0.000000 46.707687 -118.622818
vt 0.987973 0.049845
vt 0.987973 0.062177
vt 0.913799 0.062177
vt 0.913799 0.049845
vt 0.987973 0.012851
vt 0.987973 0.025182
vt 0.913799 0.025182
vt 0.913799 0.012851
vt 0.987973 0.037514
vt 0.913799 0.037514
vn -1.000000 0.000000 0.000001
vn -1.000000 0.000000 0.000001
vn -1.000000 0.000000 0.000001
vn -1.000000 0.000000 0.000001
vn 0.000000 0.000000 1.000000
vn 0.000000 0.000000 1.000000
vn 0.000000 0.000000 1.000000
vn 0.000000 0.000000 1.000000
vn 1.000000 0.000000 -0.000000
vn 1.000000 0.000000 -0.000000
vn 1.000000 0.000000 -0.000000
vn 1.000000 0.000000 -0.000000
vn 0.000000 0.000000 -1.000000
vn 0.000000 0.000000 -1.000000
vn 0.000000 0.000000 -1.000000
vn 0.000000 0.000000 -1.000000
s off
g trampolne_rectangle_aaa_1 trampoline_leg_03
usemtl initialShadingGroup
f 57/85/153 58/86/154 62/87/155 61/88/156
f 58/89/157 59/90/158 63/91/159 62/92/160
f 59/90/161 60/93/162 64/94/163 63/91/164
f 60/93/165 57/85/166 61/88/167 64/94/168
g default
v -236.801300 0.000000 -115.320084
v -233.498566 0.000000 -115.320084
v -233.498581 0.000000 -118.622818
v -236.801300 0.000000 -118.622818
v -236.801300 46.707687 -115.320084
v -233.498566 46.707687 -115.320084
v -233.498581 46.707687 -118.622818
v -236.801300 46.707687 -118.622818
vt 0.987973 0.049845
vt 0.987973 0.062177
vt 0.913799 0.062177
vt 0.913799 0.049845
vt 0.987973 0.012851
vt 0.987973 0.025182
vt 0.913799 0.025182
vt 0.913799 0.012851
vt 0.987973 0.037514
vt 0.913799 0.037514
vn 0.000000 0.000000 1.000000
vn 0.000000 0.000000 1.000000
vn 0.000000 0.000000 1.000000
vn 0.000000 0.000000 1.000000
vn 1.000000 0.000000 -0.000005
vn 1.000000 0.000000 -0.000005
vn 1.000000 0.000000 -0.000005
vn 1.000000 0.000000 -0.000005
vn 0.000000 0.000000 -1.000000
vn 0.000000 0.000000 -1.000000
vn 0.000000 0.000000 -1.000000
vn 0.000000 0.000000 -1.000000
vn -1.000000 0.000000 0.000000
vn -1.000000 0.000000 0.000000
vn -1.000000 0.000000 0.000000
vn -1.000000 0.000000 0.000000
s off
g trampolne_rectangle_aaa_1 trampoline_leg_04
usemtl initialShadingGroup
f 65/95/169 66/96/170 70/97/171 69/98/172
f 66/99/173 67/100/174 71/101/175 70/102/176
f 67/100/177 68/103/178 72/104/179 71/101/180
f 68/103/181 65/95/182 69/98/183 72/104/184
