# This file uses centimeters as units for non-parametric coordinates.

mtllib twig_large_01.mtl
g default
v -85.297119 -4.586244 1.118685
v 0.000000 -6.279708 3.314359
v -85.297119 -2.860620 1.118685
v 0.000000 -1.167155 3.314359
v -85.297119 -2.860620 -1.118685
v 0.000000 -1.167155 -3.314359
v -85.297119 -4.586244 -1.118685
v 0.000000 -6.279708 -3.314359
v -57.943390 -3.912411 -1.141790
v -57.943390 -3.912411 -4.105063
v -57.943390 -6.197905 -4.105063
v -57.943390 -6.197905 -1.141790
v -27.353731 -0.968781 2.853919
v -27.353731 -0.968781 -1.303469
v -27.353731 -4.175263 -1.303469
v -27.353731 -4.175263 2.853919
v 0.000000 0.000000 0.000000
v -27.353731 0.735374 0.775225
v -57.943390 -3.265078 -2.623427
v -85.297119 -2.665503 0.000000
v -85.297119 -4.832048 0.000000
v -57.943390 -7.776839 -2.623427
v -27.353731 -4.484288 0.775225
v 0.000000 -6.958219 0.000000
vt 0.516022 0.790318
vt 0.684169 0.286069
vt 0.724669 0.888465
vt 0.720777 0.286031
vt 0.412371 0.883977
vt 0.770773 0.286122
vt 0.752144 0.887483
vt 0.806952 0.287952
vt 0.603638 0.908964
vt 0.795788 0.485269
vt 0.779245 0.699217
vt 0.759939 0.888862
vt 0.470060 0.908192
vt 0.737966 0.696205
vt 0.726796 0.696116
vt 0.748972 0.696827
vt 0.764558 0.698049
vt 0.710986 0.696707
vt 0.740815 0.480179
vt 0.722418 0.479843
vt 0.759174 0.481844
vt 0.781379 0.484084
vt 0.700446 0.481243
vt 0.603805 0.741165
vt 0.830361 0.292400
vt 0.527738 0.883985
vt 0.745524 0.286376
vt 0.424111 0.790310
vt 0.658114 0.884927
vt 0.557056 0.784346
vt 0.549138 0.885048
vt 0.650487 0.784338
vt 0.470073 0.750754
vt 0.712828 0.887856
vt 0.732449 0.887962
vt 0.740270 0.887399
vt 0.686194 0.483314
vt 0.660311 0.287972
vt 0.696330 0.697603
vt 0.704982 0.887155
vn 0.082358 0.000000 0.996603
vn -0.046089 0.000000 0.998937
vn -0.048075 0.000000 0.998844
vn 0.082358 0.000000 0.996603
vn 0.056142 0.949819 0.307722
vn -0.083115 0.881057 0.465651
vn -0.060181 0.997676 -0.031952
vn 0.029884 0.999364 0.019456
vn -0.108531 0.000000 -0.994093
vn 0.013942 0.000000 -0.999903
vn 0.012039 0.000000 -0.999928
vn -0.108531 0.000000 -0.994093
vn -0.083657 -0.995663 0.040714
vn 0.015314 -0.999482 -0.028302
vn 0.005031 -0.858575 0.512664
vn -0.016894 -0.818447 0.574334
vn 1.000000 0.000000 0.000000
vn 1.000000 0.000000 0.000000
vn 1.000000 0.000000 0.000000
vn 1.000000 0.000000 0.000000
vn -1.000000 0.000000 0.000000
vn -1.000000 0.000000 0.000000
vn -1.000000 0.000000 0.000000
vn -1.000000 0.000000 0.000000
vn -0.048288 0.998633 0.020006
vn -0.059113 0.861396 0.504482
vn -0.003659 0.000000 -0.999993
vn -0.005728 0.000000 -0.999984
vn -0.038321 -0.951021 0.306743
vn -0.017418 -0.999698 0.017313
vn -0.063432 0.000000 0.997986
vn -0.064833 0.000000 0.997896
vn 0.017767 0.882552 0.469879
vn 0.004787 0.999948 -0.009003
vn -0.073316 0.000000 -0.997309
vn -0.073316 0.000000 -0.997309
vn -0.087578 -0.996152 -0.003248
vn -0.081016 -0.980412 0.179525
vn -0.016830 0.000000 0.999858
vn -0.016830 0.000000 0.999858
vn -0.008867 0.882657 -0.469935
vn -0.022347 0.861766 -0.506814
vn -0.025929 0.884314 -0.466172
vn -0.002888 0.951315 -0.308207
vn -1.000000 0.000000 0.000000
vn -1.000000 0.000000 0.000000
vn -0.126064 -0.812033 -0.569833
vn 0.021038 -0.858225 -0.512843
vn 0.006537 -0.949167 -0.314704
vn -0.091112 -0.979554 -0.179368
vn 1.000000 0.000000 0.000000
vn 1.000000 0.000000 0.000000
s 1
g twig_large_01
usemtl initialShadingGroup
f 1/34/1 12/18/2 9/15/3 3/3/4
s 2
f 3/3/5 9/15/6 19/14/7 20/35/8
s 3
f 5/36/9 10/16/10 11/17/11 7/7/12
s 4
f 21/40/13 22/39/14 12/18/15 1/34/16
s 5
f 2/29/17 24/9/18 17/24/19 4/32/20
s 6
f 21/33/21 1/1/22 3/26/23 20/13/24
s 2
f 18/19/25 19/14/7 9/15/6 13/20/26
s 3
f 15/22/27 11/17/11 10/16/10 14/21/28
s 4
f 16/23/29 12/18/15 22/39/14 23/37/30
s 1
f 13/20/31 9/15/3 12/18/2 16/23/32
s 2
f 13/20/26 4/4/33 17/27/34 18/19/25
s 3
f 15/22/27 14/21/28 6/6/35 8/8/36
s 4
f 16/23/29 23/37/30 24/38/37 2/2/38
s 1
f 13/20/31 16/23/32 2/2/39 4/4/40
s 2
f 18/19/25 17/27/34 6/6/41 14/21/42
f 14/21/42 10/16/43 19/14/7 18/19/25
f 20/35/8 19/14/7 10/16/43 5/36/44
s 6
f 7/28/45 21/33/21 20/13/24 5/5/46
s 4
f 7/7/47 11/17/48 22/11/14 21/12/13
f 23/10/30 22/11/14 11/17/48 15/22/49
f 24/25/37 23/10/30 15/22/49 8/8/50
s 5
f 17/24/19 24/9/18 8/31/51 6/30/52
