# This file uses centimeters as units for non-parametric coordinates.

mtllib nj_robtower_missle.mtl
g default
v 32.086220 1.995758 -2.317688
v 32.086220 -0.064880 -4.103283
v 32.086220 -2.763885 -4.491329
v 32.086220 -5.244080 -3.358631
v 32.086220 -6.718231 -1.064808
v 32.086220 -6.718231 1.661880
v 32.086220 -5.244080 3.955704
v 32.086220 -2.763885 5.088402
v 32.086220 -0.064880 4.700356
v 32.086220 1.995758 2.914761
v 32.086220 2.763977 0.298534
v 23.219734 3.615479 -3.358631
v 23.219734 0.734955 -5.854660
v 23.219734 -3.037903 -6.397106
v 23.219734 -6.505005 -4.813740
v 23.219734 -8.565674 -1.607258
v 23.219734 -8.565674 2.204308
v 23.219734 -6.505005 5.410786
v 23.219734 -3.037903 6.994183
v 23.219734 0.734863 6.451733
v 23.219734 3.615479 3.955704
v 23.219734 4.689362 0.298534
v 15.216965 4.774170 -4.103283
v 15.216965 1.307068 -7.107559
v 15.216965 -3.233887 -7.760448
v 15.216965 -7.406921 -5.854660
v 15.216965 -9.887238 -1.995289
v 15.216965 -9.887238 2.592358
v 15.216965 -7.406921 6.451733
v 15.216965 -3.233917 8.357517
v 15.216965 1.307068 7.704632
v 15.216965 4.774170 4.700356
v 15.216965 6.066711 0.298534
v 6.089401 5.378052 -4.491329
v 6.089401 1.605286 -7.760448
v 6.089401 -3.335999 -8.470886
v 6.089401 -7.876984 -6.397106
v 6.089401 -10.575928 -2.197514
v 6.089401 -10.575928 2.794559
v 6.089401 -7.876984 6.994183
v 6.089401 -3.335999 9.067966
v 6.089401 1.605286 8.357517
v 6.089401 5.378052 5.088402
v 6.089401 6.784454 0.298534
v -3.423507 5.378021 -4.491329
v -3.423506 1.605255 -7.760448
v -3.423506 -3.336029 -8.470886
v -3.423506 -7.877014 -6.397106
v -3.423506 -10.575928 -2.197514
v -3.423506 -10.575928 2.794559
v -3.423506 -7.877014 6.994183
v -3.423506 -3.336029 9.067966
v -3.423506 1.605255 8.357517
v -3.423507 5.378021 5.088402
v -3.423506 6.784424 0.298534
v -12.551072 4.774170 -4.103283
v -12.551072 1.307037 -7.107559
v -12.551072 -3.233887 -7.760448
v -12.551072 -7.406952 -5.854660
v -12.551072 -9.887238 -1.995289
v -12.551072 -9.887238 2.592358
v -12.551072 -7.406952 6.451733
v -12.551072 -3.233917 8.357517
v -12.551072 1.307037 7.704632
v -12.551072 4.774170 4.700356
v -12.551072 6.066681 0.298534
v -20.553833 3.615448 -3.358631
v -20.553833 0.734924 -5.854660
v -20.553833 -3.037933 -6.397106
v -20.553833 -6.505035 -4.813740
v -20.553833 -8.565704 -1.607258
v -20.553833 -8.565704 2.204308
v -20.553833 -6.505035 5.410786
v -20.553833 -3.037933 6.994183
v -20.553833 0.734833 6.451733
v -20.553833 3.615448 3.955704
v -20.553833 4.689331 0.298534
v -26.783485 1.995758 -2.317688
v -26.783485 -0.064911 -4.103283
v -26.783485 -2.763885 -4.491329
v -26.783485 -5.244110 -3.358631
v -26.783485 -6.718231 -1.064808
v -26.783485 -6.718231 1.661880
v -26.783485 -5.244110 3.955704
v -26.783485 -2.763885 5.088402
v -26.783485 -0.064911 4.700356
v -26.783485 1.995758 2.914761
v -26.783485 2.763947 0.298534
v -30.735275 0.046265 -1.064808
v -30.735275 -1.027649 -1.995289
v -30.735275 -2.434082 -2.197514
v -30.735275 -3.726624 -1.607258
v -30.735275 -4.494690 -0.411919
v -30.735275 -4.494690 1.008984
v -30.735275 -3.726624 2.204308
v -30.735275 -2.434082 2.794582
v -30.735275 -1.027649 2.592358
v -30.735275 0.046265 1.661880
v -30.735275 0.446564 0.298534
v -32.089123 -2.075195 0.298534
v 31.930321 -1.004669 -10.563976
v 31.930321 -4.018372 -10.997280
v 26.255016 -4.174927 -12.086327
v 26.255016 -0.547546 -11.564800
v 31.930332 -10.105133 9.732464
v 31.930332 -7.335571 10.997282
v 26.255062 -7.492126 12.086327
v 26.255062 -10.825653 10.563976
v 31.930328 8.867584 4.835503
v 31.930328 9.725403 1.914143
v 26.255062 10.825623 1.914143
v 26.255062 9.793213 5.430347
v 32.089123 -0.412292 -3.303547
v 32.089123 1.273956 -1.842365
v 32.089123 -2.621033 -3.621098
v 32.089123 -4.650635 -2.694180
v 32.089123 -5.856873 -0.817112
v 32.089123 -5.856873 1.414177
v 32.089123 -4.650635 3.291252
v 32.089123 -2.621033 4.218166
v 32.089123 -0.412292 3.900620
v 32.089123 1.273956 2.439434
v 32.089123 1.902588 0.298534
vt 0.141203 0.570478
vt 0.127718 0.569908
vt 0.078497 0.555961
vt 0.086308 0.556114
vt 0.138066 0.601079
vt 0.127240 0.600817
vt 0.086745 0.572069
vt 0.077724 0.571901
vt 0.096660 0.556707
vt 0.104287 0.556855
vt 0.104428 0.572570
vt 0.095609 0.572348
vt 0.138130 0.613810
vt 0.126914 0.613701
vt 0.015613 0.556726
vt 0.014381 0.572577
vt 0.023289 0.556980
vt 0.023213 0.572725
vt 0.030932 0.556797
vt 0.032051 0.572461
vt 0.051427 0.540818
vt 0.043788 0.542666
vt 0.041350 0.556154
vt 0.049177 0.555985
vt 0.076651 0.621153
vt 0.085179 0.621621
vt 0.049978 0.571947
vt 0.036535 0.519238
vt 0.047019 0.516617
vt 0.040940 0.572138
vt 0.083879 0.637422
vt 0.075889 0.636791
vt 0.093849 0.622328
vt 0.091995 0.638415
vt 0.102716 0.623245
vt 0.100308 0.639794
vt 0.057014 0.555382
vt 0.059133 0.571423
vt 0.070671 0.555372
vt 0.068576 0.571407
vt 0.036479 0.545399
vt 0.026542 0.523130
vt 0.141203 0.570478
vt 0.086389 0.588790
vt 0.077396 0.588566
vt 0.095413 0.589047
vt 0.029547 0.548943
vt 0.017146 0.528153
vt 0.150144 0.585649
vt 0.023098 0.553161
vt 0.104517 0.589289
vt 0.013901 0.589608
vt 0.023195 0.589478
vt 0.032319 0.589190
vt 0.118219 0.534277
vt 0.097192 0.549217
vt 0.144776 0.611600
vt 0.138066 0.601079
vt 0.041357 0.588890
vt 0.015975 0.624681
vt 0.019054 0.641979
vt 0.025185 0.623501
vt 0.027716 0.640075
vt 0.034064 0.622527
vt 0.036033 0.638620
vt 0.042741 0.621755
vt 0.044149 0.637572
vt 0.051275 0.621240
vt 0.050362 0.588624
vt 0.127718 0.569908
vt 0.059369 0.588423
vt 0.068395 0.588403
vt 0.085961 0.605346
vt 0.077107 0.605032
vt 0.094907 0.605785
vt 0.104029 0.606292
vt 0.116977 0.584116
vt 0.109530 0.528194
vt 0.141203 0.570478
vt 0.014388 0.607121
vt 0.023768 0.606522
vt 0.032905 0.605952
vt 0.041864 0.605473
vt 0.090129 0.545644
vt 0.100028 0.523138
vt 0.150144 0.585649
vt 0.127240 0.600817
vt 0.119258 0.610430
vt 0.050726 0.605101
vt 0.059525 0.604896
vt 0.052142 0.636880
vt 0.059744 0.620950
vt 0.082659 0.542865
vt 0.144776 0.611600
vt 0.138066 0.601079
vt 0.138131 0.613810
vt 0.126914 0.613701
vt 0.068311 0.604869
vt 0.060053 0.636519
vt 0.068184 0.620927
vt 0.067978 0.636496
vt 0.081987 0.652600
vt 0.074812 0.651886
vt 0.089208 0.653736
vt 0.111945 0.556567
vt 0.113239 0.572383
vt 0.113789 0.589373
vt 0.113388 0.606843
vt 0.037566 0.682019
vt 0.042325 0.681558
vt 0.047732 0.680765
vt 0.053284 0.680014
vt 0.089875 0.519288
vt 0.074921 0.540928
vt 0.058771 0.679504
vt 0.111912 0.624360
vt 0.108966 0.641634
vt 0.079334 0.516696
vt 0.067085 0.539912
vt 0.069594 0.679466
vt 0.096488 0.655412
vt 0.024252 0.658203
vt 0.068582 0.515393
vt 0.059242 0.539872
vt 0.031666 0.655689
vt 0.038942 0.653945
vt 0.046161 0.652751
vt 0.053333 0.651961
vt 0.060501 0.651587
vt 0.067644 0.651544
vt 0.079688 0.667363
vt 0.073469 0.666718
vt 0.085740 0.668309
vt 0.091538 0.669573
vt 0.031556 0.671678
vt 0.036762 0.669824
vt 0.042551 0.668498
vt 0.048591 0.667491
vt 0.054798 0.666790
vt 0.060985 0.666431
vt 0.067280 0.666404
vt 0.064179 0.679308
vt 0.075099 0.679934
vt 0.080681 0.680634
vt 0.086129 0.681364
vt 0.090945 0.681739
vt 0.127240 0.600817
vt 0.008569 0.534264
vt 0.103722 0.553444
vt 0.127718 0.569908
vt 0.119258 0.610430
vt 0.141667 0.651447
vt 0.125955 0.651532
vt 0.141667 0.651447
vt 0.125955 0.651532
vt 0.154153 0.519699
vt 0.140889 0.517792
vt 0.152445 0.523629
vt 0.141591 0.522068
vt 0.128700 0.523358
vt 0.057787 0.515362
vt 0.164279 0.528474
vt 0.160732 0.530810
vt 0.131617 0.526623
vt 0.168054 0.541331
vt 0.163821 0.541331
vt 0.121456 0.534631
vt 0.125689 0.535848
vt 0.164279 0.554188
vt 0.160732 0.551852
vt 0.121456 0.548030
vt 0.125689 0.546813
vt 0.154153 0.562963
vt 0.152445 0.559032
vt 0.128700 0.559303
vt 0.131617 0.556038
vt 0.140889 0.564870
vt 0.141591 0.560593
vt 0.125955 0.651532
vt 0.141667 0.651447
vt 0.138130 0.613810
vt 0.144776 0.611600
vt 0.116977 0.584116
vt 0.116977 0.584116
vt 0.096754 0.671353
vt 0.119258 0.610430
vt 0.103906 0.657854
vt 0.150144 0.585649
vt 0.126914 0.613701
vn 0.265473 0.811069 -0.521240
vn 0.265935 0.400453 -0.876879
vn 0.285262 0.834864 -0.470773
vn 0.188743 0.826133 -0.530923
vn 0.266534 -0.137165 -0.954015
vn 0.312738 -0.878187 -0.361915
vn 0.267084 -0.631075 -0.728293
vn 0.188745 -0.643093 -0.742164
vn 0.267411 -0.924551 -0.271471
vn 0.188747 -0.942247 -0.276669
vn 0.267411 -0.924551 0.271472
vn 0.188747 -0.942247 0.276669
vn 0.267083 -0.631076 0.728293
vn 0.324053 -0.931424 -0.165648
vn 0.266534 -0.137168 0.954015
vn 0.296673 0.493092 0.817830
vn 0.265933 0.400455 0.876878
vn 0.188744 0.407946 0.893284
vn 0.265472 0.811066 0.521245
vn 0.309075 0.170604 0.935611
vn 0.265302 0.964166 0.000000
vn 0.312947 0.614467 -0.724220
vn -0.007862 0.472234 -0.881438
vn 0.117417 0.835434 -0.536902
vn 0.758438 0.529615 0.379842
vn 0.606945 -0.699325 0.377575
vn -0.166452 -0.788375 -0.592249
vn -0.076608 0.699352 -0.710660
vn 0.117415 -0.650330 -0.750523
vn -0.040412 -0.205609 -0.977800
vn 0.117417 -0.952855 -0.279786
vn 0.117417 -0.952855 0.279787
vn -0.065150 -0.720035 0.690873
vn 0.604686 -0.452686 -0.655309
vn 0.741616 0.668923 0.050483
vn -0.111220 0.277675 0.954215
vn -0.184346 -0.981680 0.048172
vn 0.117418 0.412540 0.903340
vn -0.029563 -0.054970 0.998050
vn -0.041914 0.792808 0.608028
vn 0.698098 -0.486190 0.525623
vn 0.679761 -0.144457 -0.719067
vn -0.145791 0.811609 -0.565717
vn -0.135559 0.424273 0.895330
vn -0.046614 0.995436 -0.083269
vn 0.037389 0.415124 -0.908996
vn 0.037389 0.840666 -0.540262
vn 0.037389 -0.142215 -0.989129
vn 0.037390 -0.654400 -0.755223
vn 0.037390 -0.958821 -0.281538
vn 0.037390 -0.958822 0.281537
vn 0.037390 -0.654402 0.755222
vn 0.037389 -0.142214 0.989130
vn 0.037389 0.415125 0.908996
vn 0.037389 0.840666 0.540262
vn 0.037389 0.999301 0.000000
vn -0.037390 0.415124 -0.908996
vn -0.037392 0.840666 -0.540262
vn -0.037389 -0.142216 -0.989129
vn -0.037389 -0.654401 -0.755223
vn -0.037390 -0.958822 -0.281537
vn -0.037389 -0.958822 0.281536
vn -0.037389 -0.654403 0.755221
vn -0.037389 -0.142215 0.989129
vn -0.037391 0.415124 0.908996
vn -0.037392 0.840666 0.540262
vn -0.037391 0.999301 0.000000
vn -0.117417 0.412540 -0.903340
vn -0.117417 0.835434 -0.536902
vn -0.117416 -0.141330 -0.982975
vn -0.117415 -0.650330 -0.750523
vn -0.117415 -0.952856 -0.279784
vn -0.117416 -0.952856 0.279784
vn -0.117416 -0.650332 0.750521
vn -0.117416 -0.141331 0.982974
vn -0.117418 0.412540 0.903340
vn -0.117418 0.835433 0.536903
vn -0.117418 0.993083 0.000000
vn -0.215884 0.405619 -0.888182
vn -0.215883 0.821416 -0.527893
vn -0.215884 -0.138959 -0.966480
vn -0.215884 -0.639420 -0.737927
vn -0.215886 -0.936867 -0.275088
vn -0.215886 -0.936867 0.275087
vn -0.215884 -0.639422 0.737925
vn -0.215885 -0.138961 0.966480
vn -0.215884 0.405616 0.888183
vn -0.215884 0.821413 0.527897
vn -0.215884 0.976419 -0.000000
vn -0.355682 0.388247 -0.850150
vn -0.355681 0.786242 -0.505286
vn -0.355683 -0.133005 -0.925094
vn -0.355686 -0.612040 -0.706325
vn -0.355689 -0.896748 -0.263302
vn -0.355688 -0.896748 0.263302
vn -0.355685 -0.612040 0.706325
vn -0.355683 -0.133008 0.925094
vn -0.355680 0.388249 0.850150
vn -0.355679 0.786241 0.505290
vn -0.355680 0.934608 -0.000000
vn -0.569162 0.341559 -0.747925
vn -0.569160 0.691698 -0.444533
vn -0.569160 -0.117011 -0.813858
vn -0.569157 -0.538456 -0.621390
vn -0.569156 -0.788929 -0.231630
vn -0.569156 -0.788929 0.231630
vn -0.569158 -0.538457 0.621389
vn -0.569161 -0.117014 0.813857
vn -0.569162 0.341559 0.747925
vn -0.569160 0.691698 0.444533
vn -0.569158 0.822228 -0.000000
vn -1.000000 0.000002 0.000000
vn 0.999994 0.002829 -0.001811
vn 0.999994 0.001392 -0.003025
vn 0.999995 -0.000458 -0.003261
vn 0.999995 -0.002129 -0.002468
vn 0.999995 -0.003108 -0.000915
vn 0.999995 -0.003109 0.000915
vn 0.999995 -0.002129 0.002468
vn 0.999995 -0.000458 0.003261
vn 0.999995 0.001392 0.003025
vn 0.999994 0.002829 0.001811
vn 0.999994 0.003370 0.000000
s 1
g nj_robtower_missle_01
usemtl lambert3SG
f 1/21/1 2/22/2 13/28/3 12/29/4
f 2/22/2 3/41/5 14/42/6 13/28/3
f 3/41/5 4/47/7 15/48/8 14/42/6
f 4/47/7 5/50/9 16/148/10 15/48/8
f 5/149/9 6/56/11 17/78/12 16/55/10
f 6/56/11 7/84/13 18/85/14 17/78/12
f 7/84/13 8/93/15 19/113/16 18/85/14
f 8/93/15 9/114/17 20/118/18 19/113/16
f 9/114/17 10/119/19 21/123/20 20/118/18
f 10/119/19 11/124/21 22/161/22 21/123/20
f 11/124/21 1/21/1 12/29/4 22/161/22
f 12/3/4 13/4/3 24/7/23 23/8/24
f 101/13/25 102/14/26 103/6/27 104/5/28
f 14/9/6 15/10/8 26/11/29 25/12/30
f 15/10/8 16/105/10 27/106/31 26/11/29
f 16/15/10 17/17/12 28/18/32 27/16/31
f 17/17/12 18/19/14 29/20/33 28/18/32
f 105/96/34 106/189/35 107/87/36 108/58/37
f 19/23/16 20/24/18 31/27/38 30/30/39
f 20/24/18 21/37/20 32/38/40 31/27/38
f 109/181/41 110/97/42 111/147/43 112/95/44
f 22/39/22 12/3/4 23/8/24 33/40/45
f 23/8/24 24/7/23 35/44/46 34/45/47
f 24/7/23 25/12/30 36/46/48 35/44/46
f 25/12/30 26/11/29 37/51/49 36/46/48
f 26/11/29 27/106/31 38/107/50 37/51/49
f 27/16/31 28/18/32 39/53/51 38/52/50
f 28/18/32 29/20/33 40/54/52 39/53/51
f 29/20/33 30/30/39 41/59/53 40/54/52
f 30/30/39 31/27/38 42/69/54 41/59/53
f 31/27/38 32/38/40 43/71/55 42/69/54
f 32/38/40 33/40/45 44/72/56 43/71/55
f 33/40/45 23/8/24 34/45/47 44/72/56
f 34/45/47 35/44/46 46/73/57 45/74/58
f 35/44/46 36/46/48 47/75/59 46/73/57
f 36/46/48 37/51/49 48/76/60 47/75/59
f 37/51/49 38/107/50 49/108/61 48/76/60
f 38/52/50 39/53/51 50/81/62 49/80/61
f 39/53/51 40/54/52 51/82/63 50/81/62
f 40/54/52 41/59/53 52/83/64 51/82/63
f 41/59/53 42/69/54 53/89/65 52/83/64
f 42/69/54 43/71/55 54/90/66 53/89/65
f 43/71/55 44/72/56 55/98/67 54/90/66
f 44/72/56 34/45/47 45/74/58 55/98/67
f 45/74/58 46/73/57 57/26/68 56/25/69
f 46/73/57 47/75/59 58/33/70 57/26/68
f 47/75/59 48/76/60 59/35/71 58/33/70
f 48/76/60 49/108/61 60/116/72 59/35/71
f 49/80/61 50/81/62 61/62/73 60/60/72
f 50/81/62 51/82/63 62/64/74 61/62/73
f 51/82/63 52/83/64 63/66/75 62/64/74
f 52/83/64 53/89/65 64/68/76 63/66/75
f 53/89/65 54/90/66 65/92/77 64/68/76
f 54/90/66 55/98/67 66/100/78 65/92/77
f 55/98/67 45/74/58 56/25/69 66/100/78
f 56/25/69 57/26/68 68/31/79 67/32/80
f 57/26/68 58/33/70 69/34/81 68/31/79
f 58/33/70 59/35/71 70/36/82 69/34/81
f 59/35/71 60/116/72 71/117/83 70/36/82
f 60/60/72 61/62/73 72/63/84 71/61/83
f 61/62/73 62/64/74 73/65/85 72/63/84
f 62/64/74 63/66/75 74/67/86 73/65/85
f 63/66/75 64/68/76 75/91/87 74/67/86
f 64/68/76 65/92/77 76/99/88 75/91/87
f 65/92/77 66/100/78 77/101/89 76/99/88
f 66/100/78 56/25/69 67/32/80 77/101/89
f 67/32/80 68/31/79 79/102/90 78/103/91
f 68/31/79 69/34/81 80/104/92 79/102/90
f 69/34/81 70/36/82 81/121/93 80/104/92
f 70/36/82 71/117/83 82/187/94 81/121/93
f 71/61/83 72/63/84 83/125/95 82/122/94
f 72/63/84 73/65/85 84/126/96 83/125/95
f 73/65/85 74/67/86 85/127/97 84/126/96
f 74/67/86 75/91/87 86/128/98 85/127/97
f 75/91/87 76/99/88 87/129/99 86/128/98
f 76/99/88 77/101/89 88/130/100 87/129/99
f 77/101/89 67/32/80 78/103/91 88/130/100
f 78/103/91 79/102/90 90/131/101 89/132/102
f 79/102/90 80/104/92 91/133/103 90/131/101
f 80/104/92 81/121/93 92/134/104 91/133/103
f 81/121/93 82/187/94 93/185/105 92/134/104
f 82/122/94 83/125/95 94/136/106 93/135/105
f 83/125/95 84/126/96 95/137/107 94/136/106
f 84/126/96 85/127/97 96/138/108 95/137/107
f 85/127/97 86/128/98 97/139/109 96/138/108
f 86/128/98 87/129/99 98/140/110 97/139/109
f 87/129/99 88/130/100 99/141/111 98/140/110
f 88/130/100 78/103/91 89/132/102 99/141/111
f 89/132/102 90/131/101 100/143/112
f 90/131/101 91/133/103 100/144/112
f 91/133/103 92/134/104 100/145/112
f 92/134/104 93/185/105 100/146/112
f 93/135/105 94/136/106 100/109/112
f 94/136/106 95/137/107 100/110/112
f 95/137/107 96/138/108 100/111/112
f 96/138/108 97/139/109 100/112/112
f 97/139/109 98/140/110 100/115/112
f 98/140/110 99/141/111 100/142/112
f 99/141/111 89/132/102 100/120/112
f 13/152/3 14/153/6 102/14/26 101/13/25
f 14/183/6 25/2/30 103/6/27 102/186/26
f 25/2/30 24/1/23 104/5/28 103/6/27
f 24/1/23 13/188/3 101/182/25 104/5/28
f 18/180/14 19/179/16 106/189/35 105/96/34
f 19/77/16 30/70/39 107/87/36 106/88/35
f 30/70/39 29/43/33 108/58/37 107/87/36
f 29/43/33 18/49/14 105/57/34 108/58/37
f 21/154/20 22/155/22 110/97/42 109/181/41
f 22/184/22 33/150/45 111/147/43 110/151/42
f 33/150/45 32/79/40 112/95/44 111/147/43
f 32/79/40 21/86/20 109/94/41 112/95/44
f 2/156/2 1/162/1 114/163/113 113/158/114
f 3/157/5 2/156/2 113/158/114 115/159/115
f 4/160/7 3/157/5 115/159/115 116/164/116
f 5/167/9 4/160/7 116/164/116 117/168/117
f 6/171/11 5/167/9 117/168/117 118/172/118
f 7/175/13 6/171/11 118/172/118 119/176/119
f 8/177/15 7/175/13 119/176/119 120/178/120
f 9/173/17 8/177/15 120/178/120 121/174/121
f 10/169/19 9/173/17 121/174/121 122/170/122
f 11/165/21 10/169/19 122/170/122 123/166/123
f 1/162/1 11/165/21 123/166/123 114/163/113
