# This file uses centimeters as units for non-parametric coordinates.

mtllib nj_robtower_left_chestdoor.mtl
g default
v -37.354446 163.171509 60.723293
v -37.354446 326.669678 60.723293
v -29.237377 163.171509 60.723293
v -29.237377 326.669678 60.723293
v -29.237377 326.669678 -0.997305
v -29.237377 163.171509 -0.997305
v -37.354446 163.171509 -0.997305
v -37.354446 326.669678 -0.997305
vt 0.237090 0.518987
vt 0.289496 0.518987
vt 0.289483 0.670068
vt 0.237072 0.670068
vt 0.227892 0.518987
vt 0.227892 0.670068
vt 0.172516 0.670087
vt 0.172516 0.518968
vt 0.172516 0.680499
vt 0.227892 0.680478
vt 0.172516 0.508553
vt 0.227892 0.508573
vn -1.000000 0.000000 0.000000
vn -1.000000 0.000000 0.000000
vn -1.000000 0.000000 0.000000
vn -1.000000 0.000000 0.000000
vn 1.000000 0.000000 0.000000
vn 1.000000 0.000000 0.000000
vn 1.000000 0.000000 0.000000
vn 1.000000 0.000000 0.000000
vn 0.000000 1.000000 0.000000
vn 0.000000 1.000000 0.000000
vn 0.000000 1.000000 0.000000
vn 0.000000 1.000000 0.000000
vn 0.000000 -1.000000 0.000000
vn 0.000000 -1.000000 0.000000
vn 0.000000 -1.000000 0.000000
vn 0.000000 -1.000000 0.000000
vn 0.000000 0.000000 1.000000
vn 0.000000 0.000000 1.000000
vn 0.000000 0.000000 1.000000
vn 0.000000 0.000000 1.000000
s off
g nj_robtower_left_chestdoor1
usemtl lambert3SG
f 6/1/1 3/2/2 4/3/3 5/4/4
f 7/5/5 8/6/6 2/7/7 1/8/8
f 7/5/9 1/8/10 3/11/11 6/12/12
f 2/7/13 8/6/14 5/10/15 4/9/16
f 6/1/17 5/4/18 8/6/19 7/5/20
