# This file uses centimeters as units for non-parametric coordinates.

mtllib nj_robtower_right_chestdoor.mtl
g default
v -37.354446 163.171509 -65.219193
v -37.354446 163.171509 -0.997305
v -37.354446 326.669678 -0.997305
v -37.354446 326.669678 -65.219193
v -29.237377 163.171509 -65.219193
v -29.237377 163.171509 -0.997305
v -29.237377 326.669678 -0.997305
v -29.237377 326.669678 -65.219193
vt 0.237090 0.518987
vt 0.289496 0.518987
vt 0.289483 0.670068
vt 0.237072 0.670068
vt 0.227892 0.518987
vt 0.227892 0.670068
vt 0.172516 0.670087
vt 0.172516 0.518968
vt 0.172516 0.680499
vt 0.227892 0.680478
vt 0.172516 0.508553
vt 0.227892 0.508573
vt 0.237090 0.518987
vt 0.237072 0.670068
vt 0.227892 0.670068
vt 0.227892 0.518987
vn -1.000000 0.000000 0.000000
vn -1.000000 0.000000 0.000000
vn -1.000000 0.000000 0.000000
vn -1.000000 0.000000 0.000000
vn 1.000000 0.000000 0.000000
vn 1.000000 0.000000 0.000000
vn 1.000000 0.000000 0.000000
vn 1.000000 0.000000 0.000000
vn 0.000000 1.000000 0.000000
vn 0.000000 1.000000 0.000000
vn 0.000000 1.000000 0.000000
vn 0.000000 1.000000 0.000000
vn 0.000000 -1.000000 0.000000
vn 0.000000 -1.000000 0.000000
vn 0.000000 -1.000000 0.000000
vn 0.000000 -1.000000 0.000000
vn 0.000000 0.000000 -1.000000
vn 0.000000 0.000000 -1.000000
vn 0.000000 0.000000 -1.000000
vn 0.000000 0.000000 -1.000000
s off
g nj_robtower_right_chestdoor1
usemtl lambert3SG
f 5/1/1 6/2/2 7/3/3 8/4/4
f 1/5/5 4/6/6 3/7/7 2/8/8
f 1/5/9 2/8/10 6/11/11 5/12/12
f 3/7/13 4/6/14 8/10/15 7/9/16
f 2/13/17 3/14/18 7/15/19 6/16/20
