# This file uses centimeters as units for non-parametric coordinates.

mtllib JC_Sandbox.mtl
g default
v 51.171692 14.700102 798.598999
v 814.598999 14.758577 798.598999
v 814.598999 12.750130 35.171692
v 51.171692 12.750130 35.171692
v 432.885345 12.750130 798.598999
v 432.885345 12.750130 35.171692
v 814.598999 12.750130 416.885345
v 432.885345 15.624647 416.885345
v 51.171692 12.750130 416.885345
v 623.742172 12.750130 35.171692
v 623.742172 15.624647 416.885345
v 623.742172 14.758577 798.598999
v 242.028519 12.750130 35.171692
v 242.028519 12.750130 416.885345
v 242.028519 14.700102 798.598999
v 814.598999 20.170914 226.028519
v 623.742172 20.170914 226.028519
v 432.885345 12.750130 226.028519
v 242.028519 -10.425837 226.028519
v 51.171692 12.750130 226.028519
v 814.598999 14.758577 607.742172
v 623.742172 17.633097 607.742172
v 432.885345 32.051424 607.742172
v 242.028519 50.142015 607.742172
v 51.171692 14.700102 607.742172
v 528.313759 12.750130 35.171692
v 528.313759 12.750130 226.028519
v 528.313759 24.294981 416.885345
v 528.313759 30.861185 607.742172
v 528.313759 12.750130 798.598999
v 337.456932 12.750130 35.171692
v 337.456932 3.403488 226.028519
v 337.456932 12.750130 416.885345
v 337.456932 33.560602 607.742172
v 337.456932 12.750130 798.598999
v 146.600098 12.750130 35.171692
v 146.600098 3.403488 226.028519
v 146.600098 12.750130 416.885345
v 146.600098 34.816904 607.742172
v 146.600098 20.581745 798.598999
v 719.170593 12.750130 35.171692
v 719.170593 31.150721 226.028519
v 719.170593 12.750130 416.885345
v 719.170593 20.816599 607.742172
v 719.170593 20.816599 798.598999
v 51.171692 20.581745 703.170593
v 146.600098 35.509501 703.170593
v 242.028519 34.816904 703.170593
v 337.456932 17.955540 703.170593
v 432.885345 19.368433 703.170593
v 528.313759 14.399448 703.170593
v 623.742172 20.816599 703.170593
v 719.170593 32.751787 703.170593
v 814.598999 20.816599 703.170593
v 51.171692 12.750130 512.313759
v 146.600098 16.306219 512.313759
v 242.028519 27.037096 512.313759
v 337.456932 17.955540 512.313759
v 432.885345 30.861185 512.313759
v 528.313759 42.810595 512.313759
v 623.742172 24.294981 512.313759
v 719.170593 12.750130 512.313759
v 814.598999 12.750130 512.313759
v 51.171692 12.750130 321.456932
v 146.600098 10.422934 321.456932
v 242.028519 3.403488 321.456932
v 337.456932 10.422934 321.456932
v 432.885345 12.750130 321.456932
v 528.313759 12.750130 321.456932
v 623.742172 14.597809 321.456932
v 719.170593 20.170914 321.456932
v 814.598999 14.597809 321.456932
v 51.171692 12.750130 130.600098
v 146.600098 10.422934 130.600098
v 242.028519 3.403488 130.600098
v 337.456932 10.422934 130.600098
v 432.885345 12.750130 130.600098
v 528.313759 12.750130 130.600098
v 623.742172 14.597809 130.600098
v 719.170593 20.170914 130.600098
v 814.598999 14.597809 130.600098
v 16.000000 0.000000 833.770691
v 849.770691 0.000000 833.770691
v 0.756683 22.243235 849.014008
v 865.014008 22.243235 849.014008
v 0.756683 22.243235 -15.243317
v 865.014008 22.243235 -15.243317
v 16.000000 0.000000 0.000000
v 849.770691 0.000000 0.000000
v 51.171692 22.243235 798.598999
v 814.598999 22.243235 798.598999
v 814.598999 22.243235 35.171692
v 51.171692 22.243235 35.171692
v 51.171692 -0.177957 798.598999
v 814.598999 -0.177957 798.598999
v 814.598999 -0.177957 35.171692
v 51.171692 -0.177957 35.171692
v 849.770691 9.733734 0.000000
v 865.014008 12.153587 -15.243317
v 0.756683 12.153587 -15.243317
v 16.000000 9.733734 0.000000
v 0.756683 12.153587 849.014008
v 16.000000 9.733734 833.770691
v 865.014008 12.153587 849.014008
v 849.770691 9.733734 833.770691
vt 0.589026 0.755750
vt 0.501578 0.755814
vt 0.501482 0.668397
vt 0.588923 0.668339
vt 0.239207 0.756026
vt 0.151794 0.756062
vt 0.151748 0.668604
vt 0.239177 0.668556
vt 0.238994 0.406222
vt 0.151564 0.406271
vt 0.151488 0.318838
vt 0.238903 0.318801
vt 0.588800 0.405957
vt 0.501349 0.406023
vt 0.501287 0.318578
vt 0.588757 0.318498
vt 0.413904 0.406084
vt 0.326454 0.406149
vt 0.326377 0.318716
vt 0.413842 0.318640
vt 0.414146 0.755865
vt 0.326684 0.755940
vt 0.326631 0.668488
vt 0.414040 0.668456
vt 0.763690 0.405835
vt 0.676264 0.405881
vt 0.676239 0.318407
vt 0.763647 0.318375
vt 0.763869 0.755666
vt 0.676426 0.755726
vt 0.676324 0.668314
vt 0.763810 0.668220
vt 0.238871 0.231333
vt 0.151441 0.231382
vt 0.151384 0.143934
vt 0.238829 0.143873
vt 0.413781 0.231195
vt 0.326331 0.231260
vt 0.326274 0.143812
vt 0.413719 0.143751
vt 0.588677 0.231068
vt 0.501226 0.231134
vt 0.501164 0.143690
vt 0.588609 0.143629
vt 0.763567 0.230946
vt 0.676140 0.230992
vt 0.676054 0.143568
vt 0.763499 0.143507
vt 0.239137 0.581094
vt 0.151692 0.581155
vt 0.151631 0.493711
vt 0.239076 0.493650
vt 0.413947 0.581037
vt 0.326551 0.581058
vt 0.326513 0.493595
vt 0.413935 0.493553
vt 0.588903 0.580862
vt 0.501424 0.580950
vt 0.501403 0.493473
vt 0.588855 0.493406
vt 0.763797 0.580736
vt 0.676324 0.580820
vt 0.676300 0.493345
vt 0.763745 0.493284
vt 0.851005 0.230890
vt 0.850944 0.143446
vt 0.851129 0.405779
vt 0.851067 0.318334
vt 0.851252 0.580667
vt 0.851190 0.493223
vt 0.851354 0.755573
vt 0.851308 0.668116
vt 0.851432 0.843005
vt 0.763971 0.843078
vt 0.676541 0.843127
vt 0.589102 0.843184
vt 0.501657 0.843245
vt 0.414212 0.843306
vt 0.326761 0.843371
vt 0.239300 0.843445
vt 0.151872 0.843493
vt 0.050794 0.043296
vt 0.949099 0.043454
vt 0.949095 0.053955
vt 0.050794 0.053797
vt 0.050637 0.949807
vt 0.948937 0.949966
vt 0.948937 0.960467
vt 0.050634 0.960308
vt 0.959555 0.053958
vt 0.959397 0.949967
vt 0.040177 0.949805
vt 0.040334 0.053796
vt 0.066473 0.976376
vt 0.933092 0.976530
vt 0.933090 0.986663
vt 0.066471 0.986509
vt 0.014087 0.933996
vt 0.014238 0.069596
vt 0.024330 0.069597
vt 0.024178 0.933998
vt 0.066640 0.017100
vt 0.933261 0.017253
vt 0.933259 0.027386
vt 0.066639 0.027233
vt 0.985645 0.069767
vt 0.985493 0.934168
vt 0.975401 0.934166
vt 0.975554 0.069764
vt 0.896750 0.106316
vt 0.103120 0.106176
vt 0.896611 0.897587
vt 0.102982 0.897446
vt 0.873371 0.897581
vt 0.873510 0.106314
vt 0.896750 0.106316
vt 0.896611 0.897587
vt 0.873371 0.897581
vt 0.873510 0.106314
vt 0.126360 0.106182
vt 0.126222 0.897448
vt 0.102982 0.897446
vt 0.103121 0.106176
vt 0.126360 0.106182
vt 0.126222 0.897448
vn 0.065637 0.990009 0.124799
vn 0.012798 0.994791 0.101128
vn -0.020783 0.997526 0.067157
vn 0.063370 0.997980 0.004614
vn 0.003765 0.999986 0.003765
vn 0.093860 0.995585 -0.000000
vn 0.062663 0.995350 -0.073155
vn 0.022614 0.998038 -0.058381
vn 0.003744 0.997954 0.063831
vn 0.057695 0.996060 0.067352
vn 0.086405 0.996260 0.000000
vn 0.000000 1.000000 -0.000000
vn -0.058363 0.996588 -0.058363
vn -0.033422 0.998833 -0.034854
vn -0.030568 0.999533 0.000000
vn -0.085028 0.996379 0.000000
vn -0.014572 0.999501 -0.028027
vn -0.028375 0.999380 0.020839
vn -0.067559 0.997715 0.000000
vn -0.024274 0.999705 0.000000
vn 0.012346 0.997019 0.076160
vn -0.045531 0.998476 0.031193
vn 0.041442 0.998941 0.019980
vn 0.044619 0.994604 0.093662
vn 0.054634 0.997011 -0.054634
vn -0.000000 0.996379 -0.085028
vn -0.000000 1.000000 0.000000
vn 0.085028 0.996379 0.000000
vn -0.083046 0.993080 0.083045
vn 0.057545 0.988847 0.137365
vn 0.024090 0.998705 -0.044816
vn -0.128888 0.989151 -0.070483
vn 0.000000 0.997715 -0.067559
vn 0.057695 0.996060 -0.067352
vn 0.029154 0.998398 -0.048485
vn -0.000000 0.998823 -0.048505
vn -0.014559 0.999847 -0.009719
vn -0.043438 0.998111 -0.043438
vn -0.019429 0.999388 -0.029104
vn -0.004840 0.999977 -0.004840
vn -0.054634 0.997011 0.054634
vn -0.018335 0.999757 0.012240
vn -0.006096 0.999963 0.006096
vn -0.024462 0.999029 0.036644
vn 0.054634 0.997011 0.054634
vn -0.000000 0.996379 0.085028
vn -0.000000 0.998135 0.061051
vn 0.024462 0.999029 0.036644
vn 0.037726 0.998939 -0.026397
vn 0.015863 0.999526 -0.026381
vn 0.014594 0.999599 0.024271
vn 0.022660 0.999701 0.009147
vn 0.035695 0.998523 -0.040953
vn 0.106746 0.993989 -0.024334
vn 0.059603 0.996719 -0.054767
vn 0.006237 0.993368 -0.114807
vn 0.009697 0.992242 -0.123944
vn -0.076316 0.993976 -0.078664
vn -0.065320 0.993249 -0.095864
vn -0.024692 0.996940 -0.074173
vn -0.082937 0.990689 -0.107967
vn -0.002688 0.988221 -0.153012
vn -0.002154 0.996853 -0.079238
vn -0.006464 0.998906 -0.046319
vn 0.036644 0.999029 0.024462
vn 0.012192 0.999851 0.012192
vn 0.036644 0.999029 -0.024462
vn 0.061051 0.998135 0.000000
vn -0.071000 0.995508 -0.062625
vn -0.003219 0.999876 -0.015411
vn -0.144684 0.988791 0.036875
vn -0.151510 0.985972 -0.070025
vn -0.107758 0.988320 0.107758
vn -0.036875 0.988791 0.144684
vn 0.065718 0.985610 0.155736
vn 0.045300 0.994278 0.096744
vn 0.009303 0.998575 0.052560
vn -0.009043 0.999085 0.041812
vn -0.068849 0.995377 0.066972
vn -0.000000 0.995585 0.093860
vn 0.093449 0.991229 0.093449
vn 0.000000 -0.555793 0.831321
vn 0.000000 -0.555793 0.831321
vn 0.000000 0.000000 1.000000
vn 0.000000 0.000000 1.000000
vn 0.000000 0.000000 -1.000000
vn 0.000000 0.000000 -1.000000
vn 0.000000 -0.555793 -0.831321
vn 0.000000 -0.555793 -0.831321
vn 0.831321 -0.555793 0.000000
vn 0.831321 -0.555793 0.000000
vn 1.000000 0.000000 0.000000
vn 1.000000 0.000000 0.000000
vn -0.831321 -0.555793 0.000000
vn -0.831321 -0.555793 0.000000
vn -1.000000 0.000000 0.000000
vn -1.000000 0.000000 0.000000
vn 0.000000 -0.865813 -0.500368
vn 0.000000 -0.865813 -0.500368
vn 0.000000 0.000000 -1.000000
vn 0.000000 0.000000 -1.000000
vn -1.000000 0.000000 0.000000
vn -1.000000 0.000000 0.000000
vn -0.500368 -0.865813 0.000000
vn -0.500368 -0.865813 0.000000
vn 0.000000 0.000000 1.000000
vn 0.000000 0.000000 1.000000
vn 0.000000 -0.865813 0.500368
vn 0.000000 -0.865813 0.500368
vn 1.000000 0.000000 0.000000
vn 1.000000 0.000000 0.000000
vn 0.500368 -0.865813 0.000000
vn 0.500368 -0.865813 0.000000
vn 0.000000 1.000000 -0.000000
vn 0.000000 1.000000 -0.000000
vn 0.000000 1.000000 -0.000000
vn 0.000000 1.000000 -0.000000
vn 0.000000 1.000000 0.000000
vn 0.000000 1.000000 0.000000
vn 0.000000 1.000000 0.000000
vn 0.000000 1.000000 0.000000
vn 0.000000 0.000000 -1.000000
vn 0.000000 0.000000 -1.000000
vn 0.000000 0.000000 -1.000000
vn 0.000000 0.000000 -1.000000
vn -1.000000 0.000000 0.000000
vn -1.000000 0.000000 0.000000
vn -1.000000 0.000000 0.000000
vn -1.000000 0.000000 0.000000
vn 0.000000 0.000000 1.000000
vn 0.000000 0.000000 1.000000
vn 0.000000 0.000000 1.000000
vn 0.000000 0.000000 1.000000
vn 1.000000 0.000000 0.000000
vn 1.000000 0.000000 0.000000
vn 1.000000 0.000000 0.000000
vn 1.000000 0.000000 0.000000
s 1
g polySurface3
usemtl initialShadingGroup
f 49/1/1 50/2/2 23/3/3 34/4/4
f 53/5/5 54/6/6 21/7/7 44/8/8
f 71/9/9 72/10/10 16/11/11 42/12/12
f 67/13/13 68/14/14 18/15/15 32/16/16
f 69/17/17 70/18/18 17/19/19 27/20/20
f 51/21/21 52/22/22 22/23/23 29/24/24
f 65/25/25 66/26/26 19/27/27 37/28/28
f 47/29/29 48/30/30 24/31/31 39/32/32
f 80/33/33 81/34/34 3/35/35 41/36/36
f 78/37/37 79/38/38 10/39/39 26/40/40
f 76/41/41 77/42/42 6/43/43 31/44/44
f 74/45/45 75/46/46 13/47/47 36/48/48
f 62/49/49 63/50/50 7/51/51 43/52/52
f 60/53/53 61/54/54 11/55/55 28/56/56
f 58/57/57 59/58/58 8/59/59 33/60/60
f 56/61/61 57/62/62 14/63/63 38/64/64
f 77/42/42 78/37/37 26/40/40 6/43/43
f 68/14/14 69/17/17 27/20/20 18/15/15
f 59/58/58 60/53/53 28/56/56 8/59/59
f 50/2/2 51/21/21 29/24/24 23/3/3
f 75/46/46 76/41/41 31/44/44 13/47/47
f 66/26/26 67/13/13 32/16/16 19/27/27
f 57/62/62 58/57/57 33/60/60 14/63/63
f 48/30/30 49/1/1 34/4/4 24/31/31
f 73/65/65 74/45/45 36/48/48 4/66/66
f 64/67/67 65/25/25 37/28/28 20/68/68
f 55/69/69 56/61/61 38/64/64 9/70/70
f 46/71/71 47/29/29 39/32/32 25/72/72
f 79/38/38 80/33/33 41/36/36 10/39/39
f 70/18/18 71/9/9 42/12/12 17/19/19
f 61/54/54 62/49/49 43/52/52 11/55/55
f 52/22/22 53/5/5 44/8/8 22/23/23
f 1/73/73 40/74/74 47/29/29 46/71/71
f 40/74/74 15/75/75 48/30/30 47/29/29
f 15/75/75 35/76/76 49/1/1 48/30/30
f 35/76/76 5/77/77 50/2/2 49/1/1
f 5/77/77 30/78/78 51/21/21 50/2/2
f 30/78/78 12/79/79 52/22/22 51/21/21
f 12/79/79 45/80/80 53/5/5 52/22/22
f 45/80/80 2/81/81 54/6/6 53/5/5
f 25/72/72 39/32/32 56/61/61 55/69/69
f 39/32/32 24/31/31 57/62/62 56/61/61
f 24/31/31 34/4/4 58/57/57 57/62/62
f 34/4/4 23/3/3 59/58/58 58/57/57
f 23/3/3 29/24/24 60/53/53 59/58/58
f 29/24/24 22/23/23 61/54/54 60/53/53
f 22/23/23 44/8/8 62/49/49 61/54/54
f 44/8/8 21/7/7 63/50/50 62/49/49
f 9/70/70 38/64/64 65/25/25 64/67/67
f 38/64/64 14/63/63 66/26/26 65/25/25
f 14/63/63 33/60/60 67/13/13 66/26/26
f 33/60/60 8/59/59 68/14/14 67/13/13
f 8/59/59 28/56/56 69/17/17 68/14/14
f 28/56/56 11/55/55 70/18/18 69/17/17
f 11/55/55 43/52/52 71/9/9 70/18/18
f 43/52/52 7/51/51 72/10/10 71/9/9
f 20/68/68 37/28/28 74/45/45 73/65/65
f 37/28/28 19/27/27 75/46/46 74/45/45
f 19/27/27 32/16/16 76/41/41 75/46/46
f 32/16/16 18/15/15 77/42/42 76/41/41
f 18/15/15 27/20/20 78/37/37 77/42/42
f 27/20/20 17/19/19 79/38/38 78/37/37
f 17/19/19 42/12/12 80/33/33 79/38/38
f 42/12/12 16/11/11 81/34/34 80/33/33
s 9
f 102/82/82 104/83/83 85/84/84 84/85/85
s 10
f 86/86/86 87/87/87 99/88/88 100/89/89
s 11
f 104/90/90 99/91/91 87/87/92 85/84/93
s 12
f 100/92/94 102/93/95 84/85/96 86/86/97
s 10
f 101/94/98 98/95/99 89/96/100 88/97/101
s 12
f 88/98/102 82/99/103 103/100/104 101/101/105
s 9
f 82/102/106 83/103/107 105/104/108 103/105/109
s 11
f 83/106/110 89/107/111 98/108/112 105/109/113
s 13
f 84/85/114 85/84/115 91/110/116 90/111/117
f 85/84/115 87/87/118 92/112/119 91/110/116
f 87/87/118 86/86/120 93/113/121 92/112/119
f 86/86/120 84/85/114 90/111/117 93/113/121
s off
f 90/114/122 91/115/123 95/116/124 94/117/125
f 91/110/126 92/112/127 96/118/128 95/119/129
f 92/120/130 93/121/131 97/122/132 96/123/133
f 93/113/134 90/111/135 94/124/136 97/125/137
s 11
f 98/108/112 99/91/91 104/90/90 105/109/113
s 10
f 99/88/88 98/95/99 101/94/98 100/89/89
s 12
f 100/92/94 101/101/105 103/100/104 102/93/95
s 9
f 102/82/82 103/105/109 105/104/108 104/83/83
