# This file uses centimeters as units for non-parametric coordinates.

mtllib JC_WoodenWall_LargePlank_D.mtl
g JC_WoodenWall_LTurn_Double:default1
v 5.928528 5.064119 8.323792
v 6.155945 19.194017 13.451111
v 4.161652 7.621584 183.914490
v 4.161652 23.341345 189.773621
v 0.000000 7.621584 194.212570
v 0.177368 19.714598 193.404709
v 0.000000 0.000000 0.000000
v -2.394379 18.323164 14.357208
v 4.922455 6.536034 96.056854
v 0.086365 4.759844 96.328430
v -1.214386 17.426661 105.968536
v 5.114136 19.539747 105.025269
v 0.135437 21.440546 161.408691
v 0.000000 5.716188 161.408661
v 4.501129 10.376143 164.636627
v 4.751434 19.381582 158.686096
vt 0.513499 0.630171
vt 0.500386 0.666222
vt 0.264424 0.667430
vt 0.287906 0.633771
vt 0.122350 0.666116
vt 0.106880 0.641441
vt 0.534697 0.610023
vt 0.286931 0.620449
vt 0.037042 0.674563
vt 0.054634 0.631787
vt 0.115631 0.624234
vt 0.023469 0.662638
vt 0.024028 0.628733
vt 0.287906 0.633771
vt 0.264424 0.667430
vt 0.500386 0.666222
vt 0.513499 0.630171
vt 0.106880 0.641441
vt 0.122350 0.666116
vt 0.054634 0.631787
vt 0.037042 0.674563
vt 0.028431 0.690220
vt 0.497935 0.688224
vt 0.261817 0.684717
vt 0.027878 0.618635
vt 0.538055 0.614982
vt 0.521563 0.671924
vt 0.114889 0.679691
vn 0.999701 -0.021486 0.011635
vn 0.999701 -0.021486 0.011635
vn 0.999733 -0.021241 0.009088
vn 0.999713 -0.021403 0.010777
vn 0.869858 -0.093521 0.484356
vn 0.869858 -0.093521 0.484356
vn 0.869858 -0.093521 0.484356
vn 0.869858 -0.093521 0.484356
vn -0.993851 -0.110291 0.009851
vn -0.996872 -0.078256 0.011081
vn -0.992055 -0.125461 0.009264
vn -0.992055 -0.125461 0.009264
vn 0.215285 0.513200 -0.830830
vn 0.215285 0.513200 -0.830830
vn 0.215285 0.513200 -0.830830
vn 0.215285 0.513200 -0.830830
vn -0.196264 0.980546 0.003096
vn -0.196264 0.980546 0.003096
vn -0.137036 0.990519 -0.009672
vn -0.149568 0.988727 -0.006982
vn 0.519160 -0.854096 0.031511
vn 0.519160 -0.854096 0.031511
vn 0.534933 -0.844302 0.031640
vn 0.536060 -0.843587 0.031649
vn 0.546853 -0.836844 0.025397
vn 0.526023 -0.850326 0.015643
vn 0.466489 -0.884454 -0.011380
vn 0.466489 -0.884454 -0.011380
vn -0.999936 0.011263 0.000616
vn -0.999936 0.011263 0.000616
vn -0.999644 -0.025396 0.008227
vn -0.999623 -0.026151 0.008384
vn -0.051433 0.998046 -0.035488
vn -0.105219 0.993801 -0.035909
vn -0.205196 0.978043 -0.036415
vn -0.205196 0.978043 -0.036415
vn 0.999797 -0.015485 0.012935
vn 0.999778 -0.018919 0.009298
vn 0.999775 -0.010053 0.018687
vn 0.999775 -0.010053 0.018687
vn -0.999623 -0.026151 0.008384
vn -0.999644 -0.025396 0.008227
vn -0.996872 -0.078256 0.011081
vn -0.993851 -0.110291 0.009851
vn 0.536060 -0.843587 0.031649
vn 0.534933 -0.844302 0.031640
vn 0.526023 -0.850326 0.015643
vn 0.546853 -0.836844 0.025397
vn 0.999713 -0.021403 0.010777
vn 0.999733 -0.021241 0.009088
vn 0.999778 -0.018919 0.009298
vn 0.999797 -0.015485 0.012935
vn -0.149568 0.988727 -0.006982
vn -0.137036 0.990519 -0.009672
vn -0.105219 0.993801 -0.035909
vn -0.051433 0.998046 -0.035488
s off
g JC_WoodenWall_LTurn_Double:JC_WoodenWall_LTurn_Doubel JC_WoodenWall_LTurn_Double:pCube198 JC_WoodenWall_LargePlank_D JC_WoodenWall_LTurn_Double:polySurface1
usemtl lambert3SG
f 1/1/1 2/2/2 12/3/3 9/4/4
f 3/10/5 4/9/6 6/12/7 5/13/8
f 10/14/9 11/15/10 8/16/11 7/17/12
f 7/26/13 8/27/14 2/2/15 1/1/16
f 2/2/17 8/23/18 11/24/19 12/3/20
f 7/7/21 1/1/22 9/4/23 10/8/24
f 14/11/25 15/6/26 3/10/27 5/25/28
f 5/20/29 6/21/30 13/19/31 14/18/32
f 16/5/33 13/28/34 6/22/35 4/9/36
f 15/6/37 16/5/38 4/9/39 3/10/40
f 14/18/41 13/19/42 11/15/43 10/14/44
f 10/8/45 9/4/46 15/6/47 14/11/48
f 9/4/49 12/3/50 16/5/51 15/6/52
f 12/3/53 11/24/54 13/28/55 16/5/56
