# This file uses centimeters as units for non-parametric coordinates.

mtllib JC_WoodenWall_LargePlank_B.mtl
g JC_WoodenWall_LTurn_Double:default1
v -0.000000 1.782970 182.517700
v -0.000000 8.557209 182.517685
v 0.000000 0.000000 0.000000
v -0.000000 8.557213 1.207825
v 4.161659 0.000000 1.454224
v 2.635668 6.718224 2.979767
v 4.161659 0.000000 184.658005
v 4.161659 8.557209 180.034195
v 2.369707 6.718220 92.155823
v 4.161659 0.000000 92.184448
v -0.000000 1.782974 92.184448
v -0.000000 8.557213 92.184448
vt 0.265873 0.833298
vt 0.265800 0.865657
vt 0.524718 0.875062
vt 0.535203 0.851100
vt 0.519702 0.865736
vt 0.524035 0.846089
vt 0.265800 0.865657
vt 0.265814 0.846051
vt 0.010170 0.843333
vt 0.022617 0.866624
vt 0.010834 0.870743
vt 0.003661 0.855288
vt 0.526553 0.872021
vt 0.519702 0.865736
vt 0.524035 0.846089
vt 0.016209 0.831000
vt 0.265814 0.846051
vt 0.010170 0.843333
vt 0.015940 0.878143
vt 0.528216 0.834059
vt 0.022617 0.866624
vt 0.265734 0.874118
vn -1.000000 0.000000 -0.000000
vn -1.000000 0.000000 -0.000000
vn -1.000000 0.000000 -0.000000
vn -1.000000 0.000000 -0.000000
vn 0.463848 0.200737 -0.862873
vn 0.463848 0.200737 -0.862873
vn 0.463848 0.200737 -0.862873
vn 0.463848 0.200737 -0.862873
vn 0.970875 0.239584 0.001435
vn 0.970875 0.239584 0.001435
vn 0.984891 0.173099 -0.005165
vn 0.984894 0.173084 -0.005167
vn 0.100812 0.287276 0.952528
vn 0.100812 0.287276 0.952528
vn 0.100812 0.287276 0.952528
vn 0.100812 0.287276 0.952528
vn 0.428803 0.903376 -0.006289
vn 0.430767 0.902442 -0.006208
vn 0.591938 0.805983 0.000874
vn 0.591938 0.805983 0.000874
vn -0.306621 -0.951821 0.004640
vn -0.306843 -0.951749 0.004629
vn -0.211044 -0.977430 0.009528
vn -0.211044 -0.977430 0.009528
vn 0.984894 0.173084 -0.005167
vn 0.984891 0.173099 -0.005165
vn 0.993512 0.113190 -0.011026
vn 0.993512 0.113190 -0.011026
vn -0.393808 -0.919193 -0.000000
vn -0.393808 -0.919193 -0.000000
vn -0.306843 -0.951749 0.004629
vn -0.306621 -0.951821 0.004640
vn -1.000000 0.000000 -0.000000
vn -1.000000 0.000000 -0.000000
vn -1.000000 0.000000 -0.000000
vn -1.000000 0.000000 -0.000000
vn 0.266499 0.963753 -0.012625
vn 0.266499 0.963752 -0.012625
vn 0.430767 0.902442 -0.006208
vn 0.428803 0.903376 -0.006289
s off
g JC_WoodenWall_LTurn_Double:JC_WoodenWall_LTurn_Doubel JC_WoodenWall_LTurn_Double:pCube15 JC_WoodenWall_LargePlank_B JC_WoodenWall_LTurn_Double:polySurface1
usemtl lambert3SG
f 11/17/1 12/2/2 4/14/3 3/15/4
f 3/4/5 4/13/6 6/5/7 5/6/8
f 5/6/9 6/5/10 9/7/11 10/8/12
f 7/9/13 8/10/14 2/11/15 1/12/16
f 12/22/17 9/7/18 6/5/19 4/3/20
f 10/8/21 11/1/22 3/20/23 5/6/24
f 10/8/25 9/7/26 8/10/27 7/9/28
f 7/9/29 1/16/30 11/1/31 10/8/32
f 1/18/33 2/21/34 12/2/35 11/17/36
f 2/19/37 8/10/38 9/7/39 12/22/40
