# This file uses centimeters as units for non-parametric coordinates.

mtllib JC_WoodWall_TrafficCone.mtl
g default
v -31.207698 1.494602 12.790395
v -18.417260 1.494602 17.402101
v -35.819371 1.494602 0.000000
v -5.626823 1.494602 12.790395
v -1.015147 1.494602 0.000000
v -31.207698 1.494602 -12.790460
v -5.626823 1.494602 -12.790460
v -18.417260 1.494602 -17.402166
v -31.953818 0.000000 13.536570
v -18.417260 0.000000 18.417324
v -36.834529 0.000000 0.000000
v -4.880703 0.000000 13.536570
v -0.000000 0.000000 0.000000
v -31.953818 0.000000 -13.536570
v -4.880703 0.000000 -13.536570
v -18.417260 0.000000 -18.417324
v -19.912907 43.276227 1.495694
v -18.417260 43.276227 2.034904
v -18.417260 43.276227 0.000000
v -20.452164 43.276227 0.000000
v -16.921615 43.276227 1.495694
v -16.382356 43.276227 0.000000
v -18.417260 43.276227 -2.034904
v -19.912907 43.276227 -1.495694
v -16.921615 43.276227 -1.495694
v -25.802048 2.459358 7.384787
v -26.604717 1.578606 8.187473
v -18.417260 2.461387 10.046880
v -18.417260 1.578606 11.174075
v -28.464173 2.461387 0.000000
v -29.591270 1.578606 0.000000
v -11.032473 2.459358 7.384787
v -10.229804 1.578606 8.187473
v -8.370348 2.461387 0.000000
v -7.243251 1.578606 0.000000
v -25.802048 2.459358 -7.384787
v -26.604717 1.578606 -8.187473
v -11.032473 2.459358 -7.384787
v -10.229804 1.578606 -8.187473
v -18.417260 2.461387 -10.046945
v -18.417260 1.578606 -11.174075
vt 0.925504 0.617754
vt 0.925504 0.624483
vt 0.917401 0.621562
vt 0.920323 0.613459
vt 0.921210 0.629665
vt 0.914480 0.629665
vt 0.909299 0.618640
vt 0.913593 0.613459
vt 0.909299 0.625370
vt 0.965153 0.626745
vt 0.965015 0.589855
vt 0.989952 0.578135
vt 0.989952 0.635687
vt 0.936702 0.566208
vt 0.945644 0.541409
vt 0.941506 0.655059
vt 0.953226 0.679996
vt 0.904617 0.655196
vt 0.895675 0.679996
vt 0.899812 0.566346
vt 0.888092 0.541409
vt 0.876302 0.631549
vt 0.851366 0.643269
vt 0.876165 0.594660
vt 0.851366 0.585718
vt 0.993995 0.576236
vt 0.993995 0.637144
vt 0.947101 0.537367
vt 0.955126 0.684038
vt 0.894217 0.684038
vt 0.886193 0.537367
vt 0.847323 0.645169
vt 0.847323 0.584260
vt 0.960667 0.591899
vt 0.935084 0.570696
vt 0.960665 0.625127
vt 0.817658 0.468641
vt 0.831082 0.445611
vt 0.939462 0.650710
vt 0.901856 0.570694
vt 0.906235 0.650708
vt 0.948125 0.524321
vt 0.945405 0.528990
vt 0.880651 0.629505
vt 0.880653 0.596278
vt 0.847351 0.424543
vt 0.951430 0.520045
vt 0.866925 0.406561
vt 0.955409 0.516387
vt 0.912627 0.379891
vt 0.964713 0.510957
vt 0.888637 0.391275
vt 0.959830 0.513276
vt 0.964257 0.367893
vt 0.990912 0.367533
vt 0.980608 0.508448
vt 0.975205 0.508519
vt 0.969856 0.509292
vt 0.937910 0.371693
vn 0.000000 1.000000 0.000002
vn 0.000000 1.000000 0.000001
vn 0.000000 1.000000 -0.000000
vn 0.000000 1.000000 0.000000
vn 0.000000 1.000000 0.000000
vn 0.000000 1.000000 -0.000001
vn 0.000000 1.000000 -0.000002
vn 0.000000 1.000000 -0.000002
vn 0.000000 1.000000 -0.000001
vn -0.004868 0.999898 0.013441
vn -0.004868 0.999898 0.013441
vn -0.004868 0.999898 0.013441
vn -0.004868 0.999898 0.013441
vn -0.013441 0.999898 0.004868
vn -0.013441 0.999898 0.004868
vn -0.013441 0.999898 0.004868
vn -0.013441 0.999898 0.004868
vn 0.004868 0.999898 0.013441
vn 0.004868 0.999898 0.013441
vn 0.004868 0.999898 0.013441
vn 0.004868 0.999898 0.013441
vn 0.013441 0.999898 0.004868
vn 0.013441 0.999898 0.004868
vn 0.013441 0.999898 0.004868
vn 0.013441 0.999898 0.004868
vn -0.013441 0.999898 -0.004868
vn -0.013441 0.999898 -0.004868
vn -0.013441 0.999898 -0.004868
vn -0.013441 0.999898 -0.004868
vn 0.013441 0.999898 -0.004868
vn 0.013441 0.999898 -0.004868
vn 0.013441 0.999898 -0.004868
vn 0.013441 0.999898 -0.004868
vn -0.004868 0.999898 -0.013441
vn -0.004868 0.999898 -0.013441
vn -0.004868 0.999898 -0.013441
vn -0.004868 0.999898 -0.013441
vn 0.004868 0.999898 -0.013441
vn 0.004868 0.999898 -0.013441
vn 0.004868 0.999898 -0.013441
vn 0.004868 0.999898 -0.013441
vn -0.285818 0.538446 0.792706
vn -0.285818 0.538446 0.792706
vn -0.285818 0.538446 0.792706
vn -0.285818 0.538446 0.792706
vn -0.792718 0.538427 0.285821
vn -0.792718 0.538427 0.285821
vn -0.792718 0.538427 0.285821
vn -0.792719 0.538427 0.285821
vn 0.285818 0.538446 0.792706
vn 0.285818 0.538446 0.792706
vn 0.285818 0.538446 0.792706
vn 0.285818 0.538446 0.792706
vn 0.792720 0.538425 0.285821
vn 0.792720 0.538425 0.285821
vn 0.792720 0.538425 0.285821
vn 0.792720 0.538425 0.285821
vn -0.792721 0.538423 -0.285821
vn -0.792721 0.538423 -0.285821
vn -0.792721 0.538423 -0.285821
vn -0.792721 0.538423 -0.285821
vn 0.792723 0.538421 -0.285821
vn 0.792723 0.538421 -0.285821
vn 0.792723 0.538421 -0.285821
vn 0.792723 0.538421 -0.285821
vn -0.285824 0.538422 -0.792721
vn -0.285823 0.538422 -0.792721
vn -0.285823 0.538422 -0.792721
vn -0.285823 0.538422 -0.792721
vn 0.285823 0.538422 -0.792721
vn 0.285823 0.538422 -0.792721
vn 0.285823 0.538422 -0.792721
vn 0.285823 0.538422 -0.792721
vn -0.333525 0.181594 0.925086
vn -0.333525 0.181594 0.925086
vn -0.333525 0.181594 0.925086
vn -0.333525 0.181594 0.925086
vn -0.925084 0.181595 0.333531
vn -0.925084 0.181595 0.333531
vn -0.925084 0.181595 0.333531
vn -0.925084 0.181595 0.333531
vn 0.333525 0.181594 0.925086
vn 0.333525 0.181594 0.925086
vn 0.333525 0.181594 0.925086
vn 0.333525 0.181594 0.925086
vn 0.925084 0.181595 0.333531
vn 0.925084 0.181595 0.333531
vn 0.925084 0.181595 0.333531
vn 0.925084 0.181595 0.333531
vn -0.333531 0.181595 -0.925084
vn -0.333531 0.181595 -0.925084
vn -0.333531 0.181595 -0.925084
vn -0.333531 0.181595 -0.925084
vn -0.925084 0.181595 -0.333531
vn -0.925084 0.181595 -0.333531
vn -0.925084 0.181595 -0.333531
vn -0.925084 0.181595 -0.333531
vn 0.925084 0.181595 -0.333531
vn 0.925084 0.181595 -0.333531
vn 0.925084 0.181595 -0.333531
vn 0.925084 0.181595 -0.333531
vn 0.333531 0.181595 -0.925084
vn 0.333531 0.181595 -0.925084
vn 0.333531 0.181595 -0.925084
vn 0.333531 0.181595 -0.925084
vn -0.606575 0.763944 0.220128
vn -0.606575 0.763944 0.220128
vn -0.621828 0.783154 0.000000
vn -0.621828 0.783154 0.000000
vn -0.220123 0.763960 0.606557
vn -0.220123 0.763960 0.606557
vn 0.000000 0.783169 0.621809
vn 0.000000 0.783169 0.621809
vn 0.220123 0.763960 0.606557
vn 0.220123 0.763960 0.606557
vn -0.606575 0.763944 -0.220128
vn -0.606575 0.763944 -0.220128
vn 0.606575 0.763944 0.220128
vn 0.606575 0.763944 0.220128
vn 0.621828 0.783154 0.000000
vn 0.621828 0.783154 0.000000
vn 0.606575 0.763944 -0.220128
vn 0.606575 0.763944 -0.220128
vn -0.220129 0.763950 -0.606567
vn -0.220129 0.763950 -0.606567
vn -0.000000 0.783161 -0.621819
vn -0.000000 0.783161 -0.621819
vn 0.220129 0.763950 -0.606567
vn 0.220129 0.763950 -0.606567
s 1
g JC_WoodenWall_TrafficCone
usemtl lambert3SG
f 17/1/1 18/2/2 19/3/3 20/4/4
f 18/2/2 21/5/5 22/6/6 19/3/3
f 20/4/4 19/3/3 23/7/7 24/8/8
f 19/3/3 22/6/6 25/9/9 23/7/7
s off
f 29/10/10 27/11/11 1/12/12 2/13/13
f 27/11/14 31/14/15 3/15/16 1/12/17
f 33/16/18 29/10/19 2/13/20 4/17/21
f 35/18/22 33/16/23 4/17/24 5/19/25
f 31/14/26 37/20/27 6/21/28 3/15/29
f 39/22/30 35/18/31 5/19/32 7/23/33
f 37/20/34 41/24/35 8/25/36 6/21/37
f 41/24/38 39/22/39 7/23/40 8/25/41
f 2/13/42 1/12/43 9/26/44 10/27/45
f 1/12/46 3/15/47 11/28/48 9/26/49
f 4/17/50 2/13/51 10/27/52 12/29/53
f 5/19/54 4/17/55 12/29/56 13/30/57
f 3/15/58 6/21/59 14/31/60 11/28/61
f 7/23/62 5/19/63 13/30/64 15/32/65
f 6/21/66 8/25/67 16/33/68 14/31/69
f 8/25/70 7/23/71 15/32/72 16/33/73
f 26/37/74 28/38/75 18/42/76 17/43/77
f 30/54/78 26/55/79 17/56/80 20/57/81
f 28/38/82 32/46/83 21/47/84 18/42/85
f 32/46/86 34/48/87 22/49/88 21/47/89
f 40/50/90 36/59/91 24/58/92 23/51/93
f 36/59/94 30/54/95 20/57/96 24/58/97
f 34/48/98 38/52/99 25/53/100 22/49/101
f 38/52/102 40/50/103 23/51/104 25/53/105
s 2
f 27/11/106 26/34/107 30/35/108 31/14/109
s 3
f 26/34/110 27/11/111 29/10/112 28/36/113
f 28/36/113 29/10/112 33/16/114 32/39/115
s 2
f 31/14/109 30/35/108 36/40/116 37/20/117
s 4
f 32/39/118 33/16/119 35/18/120 34/41/121
f 34/41/121 35/18/120 39/22/122 38/44/123
s 5
f 37/20/124 36/40/125 40/45/126 41/24/127
f 38/44/128 39/22/129 41/24/127 40/45/126
