# This file uses centimeters as units for non-parametric coordinates.

mtllib JC_WoodWall_Mod_Flank_D.mtl
g JC_WoodenWall_LTurn_Double:default1
v -1.069092 6.110866 167.784180
v 2.045654 27.091746 178.145020
v 0.000000 8.533877 -6.636230
v 0.000000 22.703235 -5.096680
v 4.161621 5.361690 -5.304688
v 4.161621 25.365413 -5.709229
v 4.161621 3.665786 169.242432
v 4.161621 27.091746 178.145020
v 0.000000 6.531539 78.313477
v 4.161621 8.532992 78.294678
v 5.978760 21.807563 82.014648
v -0.136719 23.456870 85.701416
v 5.070190 23.586490 38.152832
v 4.161621 6.947341 36.495117
v 0.000000 7.782142 35.836426
v -0.068359 23.080054 40.302246
v 0.000000 63.398211 176.549805
v 0.000000 70.172450 176.549805
v 0.000000 61.615245 -5.967773
v 0.000000 70.172458 -4.760010
v 4.161621 61.615245 -4.513672
v 2.635742 68.333468 -2.988037
v 4.161621 61.615245 178.690186
v 4.161621 70.172450 174.066406
v 2.369751 68.333461 86.187988
v 4.161621 61.615245 86.216553
v 0.000000 63.398219 86.216553
v 0.000000 70.172458 86.216553
v 0.000000 34.681468 175.731445
v 0.000000 41.455707 175.731445
v 0.000000 32.898498 -6.786377
v 0.000000 41.455710 -5.578613
v 4.161621 32.898498 -5.332031
v 2.635742 39.616721 -3.806641
v 4.161621 32.898498 177.871582
v 4.161621 41.455707 173.248047
v 2.369751 39.616717 85.369629
v 4.161621 32.898498 85.398193
v 0.000000 34.681472 85.398193
v 0.000000 41.455710 85.398193
v 6.984863 41.282397 -3.358398
v 6.782593 59.743701 -0.538574
v 6.984863 49.354968 180.544434
v 6.782593 55.818347 179.924805
v 2.490601 49.737506 178.052246
v 3.025391 56.812640 180.057373
v 2.532227 43.955462 1.664307
v 4.333862 61.821521 3.904541
v 2.695313 57.085620 86.452393
v 2.823120 45.282947 88.182617
v 7.129883 46.378009 88.562012
v 6.782593 57.781085 89.693115
v 6.782593 56.799670 134.809082
v 6.984863 47.336871 134.568848
v 2.993286 48.420642 134.819336
v 3.853271 57.720355 138.920410
v 6.782593 58.762317 44.577393
v 5.781250 46.212359 50.747559
v 2.714600 44.740314 43.074951
v 3.025391 59.704974 41.770508
v 0.000000 0.000000 0.000000
v 1.357910 -4.602820 9.104492
v 0.466064 76.030978 1.770508
v 0.466064 75.301867 7.941406
v 2.280518 75.463527 0.381836
v 2.280518 75.557986 9.104492
v 2.280518 -0.625796 -1.071777
v 2.280518 -4.602820 9.104492
v 0.466064 39.004233 0.549805
v 2.280518 39.004233 1.422363
v 3.072754 37.328086 7.194336
v 0.406494 35.714080 7.898438
v 2.676636 56.443030 8.149414
v 2.280518 57.233878 0.902100
v 0.466064 57.517608 1.268799
v 0.436279 55.507976 7.919922
v 0.932861 80.084407 167.670166
v 1.025391 78.546496 159.270508
v 0.932861 -4.076998 166.462402
v 1.025391 -3.880985 163.500000
v 2.987793 -2.943181 166.253906
v 2.743286 -3.955029 163.047363
v 2.968750 77.752826 166.516113
v 2.145020 76.487781 158.380859
v 2.894287 38.823348 161.659180
v 2.835815 38.191871 167.077148
v 0.866577 38.003703 166.581543
v 1.025391 37.332751 161.385254
v 1.025391 16.725884 162.442383
v 0.932861 16.963352 166.764160
v 2.758057 16.834251 166.272461
v 2.364746 14.834337 162.077148
v 1.025391 57.939624 160.327881
v 1.483154 55.288825 166.146973
v 2.885376 58.815536 166.716309
v 2.743286 59.209788 159.859131
vt 0.042918 0.720611
vt 0.016143 0.786316
vt 0.286839 0.778289
vt 0.298152 0.741297
vt 0.526444 0.748631
vt 0.526264 0.784094
vt 0.515630 0.790464
vt 0.515622 0.740682
vt 0.298152 0.741297
vt 0.286839 0.778289
vt 0.016143 0.786316
vt 0.042918 0.720611
vt 0.010547 0.784156
vt 0.026107 0.719114
vt 0.016199 0.792314
vt 0.276461 0.795867
vt 0.048675 0.704778
vt 0.298911 0.728506
vt 0.409944 0.741687
vt 0.411699 0.730811
vt 0.518702 0.727668
vt 0.404571 0.784454
vt 0.398459 0.797547
vt 0.513392 0.802646
vt 0.409943 0.741687
vt 0.404571 0.784454
vt 0.515630 0.790464
vt 0.515622 0.740682
vt 0.265814 0.846051
vt 0.265800 0.865657
vt 0.519702 0.865736
vt 0.524035 0.846089
vt 0.535203 0.851100
vt 0.526553 0.872021
vt 0.519702 0.865736
vt 0.524035 0.846089
vt 0.265800 0.865657
vt 0.265814 0.846051
vt 0.010170 0.843333
vt 0.022617 0.866624
vt 0.010834 0.870743
vt 0.003661 0.855288
vt 0.265734 0.874118
vt 0.524718 0.875062
vt 0.265873 0.833298
vt 0.528216 0.834059
vt 0.016209 0.831000
vt 0.010170 0.843333
vt 0.022617 0.866624
vt 0.015940 0.878143
vt 0.265814 0.846051
vt 0.265800 0.865657
vt 0.519702 0.865736
vt 0.524035 0.846089
vt 0.535203 0.851100
vt 0.526553 0.872021
vt 0.519702 0.865736
vt 0.524035 0.846089
vt 0.265800 0.865657
vt 0.265814 0.846051
vt 0.010170 0.843333
vt 0.022617 0.866624
vt 0.010834 0.870743
vt 0.003661 0.855288
vt 0.265734 0.874118
vt 0.524718 0.875062
vt 0.265873 0.833298
vt 0.528216 0.834059
vt 0.016209 0.831000
vt 0.010170 0.843333
vt 0.022617 0.866624
vt 0.015940 0.878143
vt 0.263145 0.946108
vt 0.257446 0.978891
vt 0.406420 0.981700
vt 0.394688 0.955061
vt 0.533786 0.955227
vt 0.535256 0.974020
vt 0.525022 0.979069
vt 0.519156 0.958599
vt 0.394688 0.955061
vt 0.406420 0.981700
vt 0.257446 0.978891
vt 0.263145 0.946108
vt 0.025882 0.932735
vt 0.030247 0.981824
vt 0.016311 0.976606
vt 0.007253 0.926543
vt 0.266482 0.990579
vt 0.394711 0.990511
vt 0.265157 0.933845
vt 0.394398 0.943274
vt 0.139021 0.938420
vt 0.133642 0.979467
vt 0.012781 0.918017
vt 0.160790 0.930846
vt 0.025882 0.932735
vt 0.030247 0.981824
vt 0.133642 0.979467
vt 0.139021 0.938420
vt 0.018301 0.990829
vt 0.141394 0.990061
vt 0.525022 0.979069
vt 0.519156 0.958599
vt 0.526479 0.945747
vt 0.524740 0.990282
vt 0.037542 0.468906
vt 0.024288 0.510748
vt 0.188107 0.492166
vt 0.193161 0.469138
vt 0.334458 0.460109
vt 0.336427 0.487139
vt 0.328712 0.490913
vt 0.326206 0.456506
vt 0.193161 0.469138
vt 0.188107 0.492166
vt 0.024288 0.510748
vt 0.037543 0.468906
vt 0.020304 0.509906
vt 0.026694 0.469987
vt 0.024737 0.513995
vt 0.182660 0.503341
vt 0.040129 0.459416
vt 0.192989 0.461329
vt 0.261448 0.463837
vt 0.261998 0.457079
vt 0.327642 0.450242
vt 0.260173 0.490298
vt 0.257043 0.498593
vt 0.327746 0.496590
vt 0.261447 0.463837
vt 0.260173 0.490298
vt 0.328712 0.490913
vt 0.326206 0.456506
vt 0.194653 0.380858
vt 0.192304 0.403677
vt 0.292304 0.398897
vt 0.283583 0.381681
vt 0.372997 0.376929
vt 0.375771 0.389612
vt 0.368929 0.393290
vt 0.364517 0.380092
vt 0.283583 0.381681
vt 0.292304 0.398897
vt 0.192304 0.403677
vt 0.194652 0.380858
vt 0.025361 0.383343
vt 0.030926 0.418321
vt 0.020565 0.415266
vt 0.011675 0.379849
vt 0.199119 0.411225
vt 0.284932 0.405184
vt 0.195494 0.372339
vt 0.283006 0.373872
vt 0.106741 0.381524
vt 0.105130 0.410993
vt 0.015252 0.373482
vt 0.121840 0.375047
vt 0.025361 0.383343
vt 0.030926 0.418321
vt 0.105130 0.410993
vt 0.106741 0.381524
vt 0.022816 0.425454
vt 0.111250 0.418094
vt 0.368929 0.393290
vt 0.364517 0.380092
vt 0.368964 0.371602
vt 0.369089 0.400460
vn -0.997088 0.076106 0.004757
vn -0.997088 0.076106 0.004757
vn -0.998164 0.060453 0.003691
vn -0.999096 0.042444 0.002465
vn 0.088025 0.033062 -0.995569
vn 0.088025 0.033062 -0.995569
vn 0.088025 0.033062 -0.995569
vn 0.088025 0.033062 -0.995569
vn 0.997872 -0.065151 0.002773
vn 0.998161 -0.060360 0.005511
vn 0.998556 -0.052818 0.009817
vn 0.998556 -0.052818 0.009817
vn -0.296083 -0.362562 0.883676
vn -0.296083 -0.362562 0.883676
vn -0.296083 -0.362562 0.883676
vn -0.296083 -0.362562 0.883676
vn 0.176031 0.983269 -0.046847
vn 0.176031 0.983269 -0.046847
vn 0.137844 0.990381 -0.011983
vn 0.159761 0.986638 -0.031954
vn -0.042644 -0.998654 -0.029522
vn -0.042644 -0.998654 -0.029522
vn 0.009902 -0.999753 -0.019893
vn 0.011072 -0.999745 -0.019678
vn -0.141453 -0.989923 0.006592
vn -0.199358 -0.979901 0.007089
vn -0.435480 -0.900154 0.008908
vn -0.435480 -0.900154 0.008908
vn 0.999645 -0.024422 -0.010658
vn 0.999645 -0.024422 -0.010658
vn 0.998447 -0.054675 -0.010713
vn 0.998657 -0.050697 -0.010707
vn -0.037536 0.999166 0.016048
vn -0.144220 0.989401 0.016899
vn -0.317686 0.948027 0.017882
vn -0.317686 0.948027 0.017882
vn -0.999992 -0.003872 -0.000810
vn -0.999989 -0.004554 -0.000818
vn -0.999997 -0.002158 -0.000787
vn -0.999997 -0.002158 -0.000787
vn 0.998657 -0.050697 -0.010707
vn 0.998447 -0.054675 -0.010713
vn 0.998161 -0.060360 0.005511
vn 0.997872 -0.065151 0.002773
vn 0.011072 -0.999745 -0.019678
vn 0.009902 -0.999753 -0.019893
vn -0.199358 -0.979901 0.007089
vn -0.141453 -0.989923 0.006592
vn -0.999096 0.042444 0.002465
vn -0.998164 0.060453 0.003691
vn -0.999989 -0.004554 -0.000818
vn -0.999992 -0.003872 -0.000810
vn 0.159761 0.986638 -0.031954
vn 0.137844 0.990381 -0.011983
vn -0.144220 0.989401 0.016899
vn -0.037536 0.999166 0.016048
vn -1.000000 0.000000 -0.000000
vn -1.000000 0.000000 -0.000000
vn -1.000000 0.000000 -0.000000
vn -1.000000 0.000000 -0.000000
vn 0.463848 0.200737 -0.862873
vn 0.463848 0.200737 -0.862873
vn 0.463848 0.200737 -0.862873
vn 0.463848 0.200737 -0.862873
vn 0.970875 0.239584 0.001435
vn 0.970875 0.239584 0.001435
vn 0.984891 0.173099 -0.005165
vn 0.984894 0.173084 -0.005167
vn 0.100812 0.287276 0.952528
vn 0.100812 0.287276 0.952528
vn 0.100812 0.287276 0.952528
vn 0.100812 0.287276 0.952528
vn 0.428803 0.903376 -0.006289
vn 0.430767 0.902442 -0.006208
vn 0.591938 0.805983 0.000874
vn 0.591938 0.805983 0.000874
vn -0.306621 -0.951821 0.004640
vn -0.306843 -0.951749 0.004629
vn -0.211044 -0.977430 0.009528
vn -0.211044 -0.977430 0.009528
vn 0.984894 0.173084 -0.005167
vn 0.984891 0.173099 -0.005165
vn 0.993512 0.113190 -0.011026
vn 0.993512 0.113190 -0.011026
vn -0.393808 -0.919193 -0.000000
vn -0.393808 -0.919193 -0.000000
vn -0.306843 -0.951749 0.004629
vn -0.306621 -0.951821 0.004640
vn -1.000000 0.000000 -0.000000
vn -1.000000 0.000000 -0.000000
vn -1.000000 0.000000 -0.000000
vn -1.000000 0.000000 -0.000000
vn 0.266499 0.963753 -0.012625
vn 0.266499 0.963752 -0.012625
vn 0.430767 0.902442 -0.006208
vn 0.428803 0.903376 -0.006289
vn -1.000000 0.000000 -0.000000
vn -1.000000 0.000000 -0.000000
vn -1.000000 0.000000 -0.000000
vn -1.000000 0.000000 -0.000000
vn 0.463848 0.200737 -0.862873
vn 0.463848 0.200737 -0.862873
vn 0.463848 0.200737 -0.862873
vn 0.463848 0.200737 -0.862873
vn 0.970875 0.239584 0.001435
vn 0.970875 0.239584 0.001435
vn 0.984891 0.173099 -0.005165
vn 0.984894 0.173084 -0.005167
vn 0.100812 0.287276 0.952528
vn 0.100812 0.287276 0.952528
vn 0.100812 0.287276 0.952528
vn 0.100812 0.287276 0.952528
vn 0.428803 0.903376 -0.006289
vn 0.430767 0.902442 -0.006208
vn 0.591938 0.805983 0.000874
vn 0.591938 0.805983 0.000874
vn -0.306621 -0.951821 0.004640
vn -0.306843 -0.951749 0.004629
vn -0.211044 -0.977430 0.009528
vn -0.211044 -0.977430 0.009528
vn 0.984894 0.173084 -0.005167
vn 0.984891 0.173099 -0.005165
vn 0.993512 0.113190 -0.011026
vn 0.993512 0.113190 -0.011026
vn -0.393808 -0.919193 -0.000000
vn -0.393808 -0.919193 -0.000000
vn -0.306843 -0.951749 0.004629
vn -0.306621 -0.951821 0.004640
vn -1.000000 0.000000 -0.000000
vn -1.000000 0.000000 -0.000000
vn -1.000000 0.000000 -0.000000
vn -1.000000 0.000000 -0.000000
vn 0.266499 0.963753 -0.012625
vn 0.266499 0.963752 -0.012625
vn 0.430767 0.902442 -0.006208
vn 0.428803 0.903376 -0.006289
vn 0.999953 -0.004895 -0.008316
vn 0.999973 -0.001474 -0.007227
vn 0.999665 0.025856 0.000779
vn 0.999665 0.025872 0.000816
vn -0.287723 -0.090489 0.953429
vn -0.287723 -0.090489 0.953429
vn -0.287723 -0.090489 0.953429
vn -0.287723 -0.090489 0.953429
vn -0.998802 0.048721 0.004562
vn -0.997947 0.063984 -0.002937
vn -0.999838 0.017618 0.003650
vn -0.999790 0.019925 0.004895
vn -0.772248 0.120878 -0.623716
vn -0.772248 0.120878 -0.623716
vn -0.772248 0.120878 -0.623716
vn -0.772248 0.120878 -0.623716
vn 0.023049 0.999635 0.014101
vn 0.009504 0.999511 0.029779
vn 0.231244 0.972708 0.019097
vn 0.080385 0.996739 0.007006
vn 0.160311 -0.986767 0.024303
vn 0.139077 -0.989913 0.027013
vn -0.085736 -0.995502 0.040309
vn -0.094217 -0.994751 0.039911
vn -0.999340 0.035503 -0.007689
vn -0.999185 0.039473 -0.008428
vn -0.997827 0.064572 -0.013088
vn -0.997827 0.064572 -0.013088
vn -0.177004 -0.982564 0.056895
vn -0.177004 -0.982564 0.056895
vn 0.257179 -0.966307 0.010471
vn -0.120833 -0.991346 0.051313
vn 0.999618 -0.024343 0.013094
vn 0.999618 -0.024343 0.013094
vn 0.999647 -0.025986 0.005530
vn 0.999614 -0.027678 -0.002272
vn 0.445861 0.894189 0.040413
vn 0.445861 0.894189 0.040413
vn 0.298564 0.953496 0.041284
vn 0.117342 0.992246 0.040983
vn 0.999665 0.025872 0.000816
vn 0.999665 0.025856 0.000779
vn 0.999678 0.025381 -0.000289
vn 0.999678 0.025381 -0.000289
vn -0.094217 -0.994751 0.039911
vn -0.085736 -0.995502 0.040309
vn -0.179334 -0.983139 0.035743
vn -0.179334 -0.983139 0.035743
vn -0.995736 0.090829 -0.016143
vn -0.995736 0.090829 -0.016143
vn -0.997947 0.063984 -0.002937
vn -0.998802 0.048721 0.004562
vn 0.080385 0.996739 0.007006
vn 0.231244 0.972708 0.019097
vn 0.289149 0.956990 0.023734
vn 0.289149 0.956990 0.023734
vn 0.999614 -0.027678 -0.002272
vn 0.999647 -0.025986 0.005530
vn 0.999973 -0.001474 -0.007227
vn 0.999953 -0.004895 -0.008316
vn -0.120833 -0.991346 0.051313
vn 0.257179 -0.966307 0.010471
vn 0.139077 -0.989913 0.027013
vn 0.160311 -0.986767 0.024303
vn -0.999790 0.019925 0.004895
vn -0.999838 0.017618 0.003650
vn -0.999185 0.039473 -0.008428
vn -0.999340 0.035503 -0.007689
vn 0.117342 0.992246 0.040983
vn 0.298564 0.953496 0.041284
vn 0.009504 0.999511 0.029779
vn 0.023049 0.999635 0.014101
vn -0.997088 -0.005471 0.076058
vn -0.997088 -0.005471 0.076058
vn -0.998164 -0.004258 0.060416
vn -0.999096 -0.002863 0.042419
vn 0.088015 0.995216 0.042409
vn 0.088015 0.995216 0.042409
vn 0.088015 0.995216 0.042409
vn 0.088015 0.995216 0.042409
vn 0.997872 -0.002162 -0.065173
vn 0.998162 -0.004944 -0.060407
vn 0.998556 -0.009321 -0.052907
vn 0.998556 -0.009321 -0.052907
vn -0.296081 -0.880233 -0.370845
vn -0.296081 -0.880233 -0.370845
vn -0.296081 -0.880233 -0.370845
vn -0.296081 -0.880233 -0.370845
vn 0.176030 0.037613 0.983666
vn 0.176030 0.037613 0.983666
vn 0.137844 0.002683 0.990450
vn 0.159760 0.022689 0.986895
vn -0.042643 0.038897 -0.998333
vn -0.042643 0.038897 -0.998333
vn 0.009903 0.029279 -0.999522
vn 0.011072 0.029064 -0.999516
vn -0.141453 0.002702 -0.989941
vn -0.199357 0.002112 -0.979925
vn -0.435480 -0.000456 -0.900198
vn -0.435480 -0.000456 -0.900198
vn 0.999645 0.010887 -0.024322
vn 0.999645 0.010887 -0.024322
vn 0.998447 0.011227 -0.054571
vn 0.998657 0.011183 -0.050593
vn -0.037537 -0.025429 0.998972
vn -0.144219 -0.026188 0.989199
vn -0.317682 -0.026782 0.947819
vn -0.317682 -0.026782 0.947819
vn -0.999992 0.000845 -0.003863
vn -0.999989 0.000861 -0.004545
vn -0.999997 0.000807 -0.002149
vn -0.999997 0.000807 -0.002149
vn 0.998657 0.011183 -0.050593
vn 0.998447 0.011227 -0.054571
vn 0.998162 -0.004944 -0.060407
vn 0.997872 -0.002162 -0.065173
vn 0.011072 0.029064 -0.999516
vn 0.009903 0.029279 -0.999522
vn -0.199357 0.002112 -0.979925
vn -0.141453 0.002702 -0.989941
vn -0.999096 -0.002863 0.042419
vn -0.998164 -0.004258 0.060416
vn -0.999989 0.000861 -0.004545
vn -0.999992 0.000845 -0.003863
vn 0.159760 0.022689 0.986895
vn 0.137844 0.002683 0.990450
vn -0.144219 -0.026188 0.989199
vn -0.037537 -0.025429 0.998972
vn -0.999953 0.008458 0.004649
vn -0.999973 0.007268 0.001262
vn -0.999665 -0.001541 -0.025821
vn -0.999665 -0.001578 -0.025836
vn 0.287722 -0.950344 0.118585
vn 0.287722 -0.950344 0.118585
vn 0.287722 -0.950344 0.118585
vn 0.287722 -0.950344 0.118585
vn 0.998802 -0.005998 -0.048571
vn 0.997946 0.001046 -0.064051
vn 0.999838 -0.004168 -0.017508
vn 0.999789 -0.005481 -0.019777
vn 0.772244 0.619881 -0.139234
vn 0.772244 0.619881 -0.139234
vn 0.772244 0.619881 -0.139234
vn 0.772244 0.619881 -0.139234
vn -0.023046 -0.043597 -0.998783
vn -0.009500 -0.059265 -0.998197
vn -0.231232 -0.047796 -0.971724
vn -0.080382 -0.036420 -0.996099
vn -0.160314 0.004830 0.987054
vn -0.139080 0.002214 0.990279
vn 0.085732 -0.010911 0.996258
vn 0.094213 -0.010536 0.995496
vn 0.999340 0.006639 -0.035714
vn 0.999185 0.007259 -0.039704
vn 0.997828 0.011176 -0.064925
vn 0.997828 0.011176 -0.064926
vn 0.177001 -0.027872 0.983816
vn 0.177001 -0.027872 0.983816
vn -0.257188 0.018052 0.966193
vn 0.120831 -0.022033 0.992429
vn -0.999618 -0.012371 0.024719
vn -0.999618 -0.012371 0.024719
vn -0.999647 -0.004761 0.026137
vn -0.999614 0.003088 0.027598
vn -0.445865 -0.066786 -0.892605
vn -0.445865 -0.066786 -0.892605
vn -0.298567 -0.069407 -0.951862
vn -0.117340 -0.070250 -0.990604
vn -0.999665 -0.001578 -0.025836
vn -0.999665 -0.001541 -0.025821
vn -0.999678 -0.000460 -0.025381
vn -0.999678 -0.000460 -0.025381
vn 0.094213 -0.010536 0.995496
vn 0.085732 -0.010911 0.996258
vn 0.179328 -0.006713 0.983766
vn 0.179328 -0.006713 0.983766
vn 0.995735 0.013454 -0.091275
vn 0.995735 0.013454 -0.091275
vn 0.997946 0.001046 -0.064051
vn 0.998802 -0.005998 -0.048571
vn -0.080382 -0.036420 -0.996099
vn -0.231232 -0.047796 -0.971724
vn -0.289137 -0.051967 -0.955876
vn -0.289137 -0.051967 -0.955876
vn -0.999614 0.003088 0.027598
vn -0.999647 -0.004761 0.026137
vn -0.999973 0.007268 0.001262
vn -0.999953 0.008458 0.004649
vn 0.120831 -0.022033 0.992429
vn -0.257188 0.018052 0.966193
vn -0.139080 0.002214 0.990279
vn -0.160314 0.004830 0.987054
vn 0.999789 -0.005481 -0.019777
vn 0.999838 -0.004168 -0.017508
vn 0.999185 0.007259 -0.039704
vn 0.999340 0.006639 -0.035714
vn -0.117340 -0.070250 -0.990604
vn -0.298567 -0.069407 -0.951862
vn -0.009500 -0.059265 -0.998197
vn -0.023046 -0.043597 -0.998783
s off
g JC_WoodenWall_LTurn_Double:JC_WoodenWall_LTurn_Doubel JC_WoodenWall_LTurn_Double:pCube80 JC_WoodWall_Mod_Flank_D1
usemtl lambert3SG
f 1/1/1 2/2/2 12/3/3 9/4/4
f 3/5/5 4/6/6 6/7/7 5/8/8
f 10/9/9 11/10/10 8/11/11 7/12/12
f 7/12/13 8/11/14 2/13/15 1/14/16
f 2/15/17 8/11/18 11/10/19 12/16/20
f 7/12/21 1/17/22 9/18/23 10/9/24
f 14/19/25 15/20/26 3/21/27 5/8/28
f 5/8/29 6/7/30 13/22/31 14/19/32
f 16/23/33 13/22/34 6/7/35 4/24/36
f 15/25/37 16/26/38 4/27/39 3/28/40
f 14/19/41 13/22/42 11/10/43 10/9/44
f 10/9/45 9/18/46 15/20/47 14/19/48
f 9/4/49 12/3/50 16/26/51 15/25/52
f 12/16/53 11/10/54 13/22/55 16/23/56
g JC_WoodenWall_LTurn_Double:JC_WoodenWall_LTurn_Doubel JC_WoodenWall_LTurn_Double:pCube15 JC_WoodWall_Mod_Flank_D1
f 27/29/57 28/30/58 20/31/59 19/32/60
f 19/33/61 20/34/62 22/35/63 21/36/64
f 21/36/65 22/35/66 25/37/67 26/38/68
f 23/39/69 24/40/70 18/41/71 17/42/72
f 28/43/73 25/37/74 22/35/75 20/44/76
f 26/38/77 27/45/78 19/46/79 21/36/80
f 26/38/81 25/37/82 24/40/83 23/39/84
f 23/39/85 17/47/86 27/45/87 26/38/88
f 17/48/89 18/49/90 28/30/91 27/29/92
f 18/50/93 24/40/94 25/37/95 28/43/96
f 39/51/97 40/52/98 32/53/99 31/54/100
f 31/55/101 32/56/102 34/57/103 33/58/104
f 33/58/105 34/57/106 37/59/107 38/60/108
f 35/61/109 36/62/110 30/63/111 29/64/112
f 40/65/113 37/59/114 34/57/115 32/66/116
f 38/60/117 39/67/118 31/68/119 33/58/120
f 38/60/121 37/59/122 36/62/123 35/61/124
f 35/61/125 29/69/126 39/67/127 38/60/128
f 29/70/129 30/71/130 40/52/131 39/51/132
f 30/72/133 36/62/134 37/59/135 40/65/136
g JC_WoodenWall_LTurn_Double:JC_WoodenWall_LTurn_Doubel JC_WoodenWall_LTurn_Double:pCube178 JC_WoodWall_Mod_Flank_D1
f 51/73/137 52/74/138 53/75/139 54/76/140
f 43/77/141 44/78/142 46/79/143 45/80/144
f 55/81/145 56/82/146 49/83/147 50/84/148
f 47/85/149 48/86/150 42/87/151 41/88/152
f 52/89/153 49/83/154 56/82/155 53/90/156
f 50/84/157 51/91/158 54/92/159 55/81/160
f 59/93/161 60/94/162 48/86/163 47/85/164
f 47/85/165 41/95/166 58/96/167 59/93/168
f 41/97/169 42/98/170 57/99/171 58/100/172
f 42/101/173 48/86/174 60/94/175 57/102/176
f 54/76/177 53/75/178 44/103/179 43/104/180
f 55/81/181 54/92/182 43/105/183 45/80/184
f 45/80/185 46/79/186 56/82/187 55/81/188
f 53/90/189 56/82/190 46/79/191 44/106/192
f 58/100/193 57/99/194 52/74/195 51/73/196
f 59/93/197 58/96/198 51/91/199 50/84/200
f 50/84/201 49/83/202 60/94/203 59/93/204
f 57/102/205 60/94/206 49/83/207 52/89/208
g JC_WoodenWall_LTurn_Double:JC_WoodenWall_LTurn_Doubel JC_WoodenWall_LTurn_Double:pCube228 JC_WoodWall_Mod_Flank_D1
f 61/107/209 62/108/210 72/109/211 69/110/212
f 63/111/213 64/112/214 66/113/215 65/114/216
f 70/115/217 71/116/218 68/117/219 67/118/220
f 67/118/221 68/117/222 62/119/223 61/120/224
f 62/121/225 68/117/226 71/116/227 72/122/228
f 67/118/229 61/123/230 69/124/231 70/115/232
f 74/125/233 75/126/234 63/127/235 65/114/236
f 65/114/237 66/113/238 73/128/239 74/125/240
f 76/129/241 73/128/242 66/113/243 64/130/244
f 75/131/245 76/132/246 64/133/247 63/134/248
f 74/125/249 73/128/250 71/116/251 70/115/252
f 70/115/253 69/124/254 75/126/255 74/125/256
f 69/110/257 72/109/258 76/132/259 75/131/260
f 72/122/261 71/116/262 73/128/263 76/129/264
g JC_WoodenWall_LTurn_Double:JC_WoodenWall_LTurn_Doubel JC_WoodenWall_LTurn_Double:pCube231 JC_WoodWall_Mod_Flank_D1
f 87/135/265 88/136/266 89/137/267 90/138/268
f 79/139/269 80/140/270 82/141/271 81/142/272
f 91/143/273 92/144/274 85/145/275 86/146/276
f 83/147/277 84/148/278 78/149/279 77/150/280
f 88/151/281 85/145/282 92/144/283 89/152/284
f 86/146/285 87/153/286 90/154/287 91/143/288
f 95/155/289 96/156/290 84/148/291 83/147/292
f 83/147/293 77/157/294 94/158/295 95/155/296
f 77/159/297 78/160/298 93/161/299 94/162/300
f 78/163/301 84/148/302 96/156/303 93/164/304
f 90/138/305 89/137/306 80/165/307 79/166/308
f 91/143/309 90/154/310 79/167/311 81/142/312
f 81/142/313 82/141/314 92/144/315 91/143/316
f 89/152/317 92/144/318 82/141/319 80/168/320
f 94/162/321 93/161/322 88/136/323 87/135/324
f 95/155/325 94/158/326 87/153/327 86/146/328
f 86/146/329 85/145/330 96/156/331 95/155/332
f 93/164/333 96/156/334 85/145/335 88/151/336
