# This file uses centimeters as units for non-parametric coordinates.

mtllib nj_pond_circular_01.mtl
g default
v 0.000000 16.404129 0.000023
v 120.029053 16.404129 -38.999786
v 102.102783 16.404129 -74.182022
v 74.182007 16.404129 -102.102798
v 38.999756 16.404129 -120.029037
v 0.000000 16.404129 -126.205994
v -38.999756 16.404129 -120.029037
v -74.182007 16.404129 -102.102783
v -102.102783 16.404129 -74.182007
v -120.029053 16.404129 -38.999771
v -126.205933 16.404129 0.000023
v -120.029053 16.404129 38.999813
v -102.102783 16.404129 74.182037
v -74.182007 16.404129 102.102806
v -38.999756 16.404129 120.029045
v 0.000000 16.404129 126.205986
v 38.999756 16.404129 120.029037
v 74.182007 16.404129 102.102798
v 102.102783 16.404129 74.182030
v 120.029053 16.404129 38.999805
v 126.205933 16.404129 0.000023
v 127.484497 0.000000 -41.422195
v 108.444824 0.000000 -78.789734
v 78.789795 0.000000 -108.444763
v 41.422241 0.000000 -127.484451
v 0.000000 0.000000 -134.045059
v -41.422241 0.000000 -127.484451
v -78.789795 0.000000 -108.444748
v -108.444702 0.000000 -78.789703
v -127.484497 0.000000 -41.422180
v -134.045044 0.000000 0.000023
v -127.484497 0.000000 41.422222
v -108.444702 0.000000 78.789742
v -78.789673 0.000000 108.444763
v -41.422241 0.000000 127.484459
v 0.000000 0.000000 134.045074
v 41.422241 0.000000 127.484451
v 78.789673 0.000000 108.444756
v 108.444702 0.000000 78.789734
v 127.484375 0.000000 41.422215
v 134.045044 0.000000 0.000023
v 127.484497 21.832748 -41.422195
v 108.444824 21.832748 -78.789734
v 78.789795 21.832748 -108.444763
v 41.422241 21.832748 -127.484451
v 0.000000 21.832748 -134.045059
v -41.422241 21.832748 -127.484451
v -78.789795 21.832748 -108.444748
v -108.444702 21.832748 -78.789703
v -127.484497 21.832748 -41.422180
v -134.045044 21.832748 0.000023
v -127.484497 21.832748 41.422222
v -108.444702 21.832748 78.789742
v -78.789673 21.832748 108.444763
v -41.422241 21.832748 127.484459
v 0.000000 21.832748 134.045074
v 41.422241 21.832748 127.484451
v 78.789673 21.832748 108.444756
v 108.444702 21.832748 78.789734
v 127.484375 21.832748 41.422215
v 134.045044 21.832748 0.000023
v 120.029053 21.832748 -38.999786
v 102.102783 21.832748 -74.182022
v 74.182007 21.832748 -102.102798
v 38.999756 21.832748 -120.029037
v 0.000000 21.832748 -126.205994
v -38.999756 21.832748 -120.029037
v -74.182007 21.832748 -102.102783
v -102.102783 21.832748 -74.182007
v -120.029053 21.832748 -38.999771
v -126.205933 21.832748 0.000023
v -120.029053 21.832748 38.999813
v -102.102783 21.832748 74.182037
v -74.182007 21.832748 102.102806
v -38.999756 21.832748 120.029045
v 0.000000 21.832748 126.205986
v 38.999756 21.832748 120.029037
v 74.182007 21.832748 102.102798
v 102.102783 21.832748 74.182030
v 120.029053 21.832748 38.999805
v 126.205933 21.832748 0.000023
v 120.029053 7.227075 -38.999786
v 102.102783 7.227075 -74.182022
v 74.182007 7.227075 -102.102798
v 38.999756 7.227075 -120.029037
v 0.000000 7.227075 -126.205994
v -38.999756 7.227075 -120.029037
v -74.182007 7.227075 -102.102783
v -102.102783 7.227075 -74.182007
v -120.029053 7.227075 -38.999771
v -126.205933 7.227075 0.000023
v -120.029053 7.227075 38.999813
v -102.102783 7.227075 74.182037
v -74.182007 7.227075 102.102806
v -38.999756 7.227075 120.029045
v 0.000000 7.227075 126.205986
v 38.999756 7.227075 120.029037
v 74.182007 7.227075 102.102798
v 102.102783 7.227075 74.182030
v 120.029053 7.227075 38.999805
v 126.205933 7.227075 0.000023
vt 0.300166 0.631492
vt 0.278800 0.672968
vt 0.157108 0.585516
vt 0.245522 0.705884
vt 0.203590 0.727017
vt 0.157108 0.734299
vt 0.110626 0.727017
vt 0.068693 0.705884
vt 0.035416 0.672968
vt 0.014050 0.631492
vt 0.006688 0.585516
vt 0.014050 0.539539
vt 0.035416 0.498063
vt 0.068693 0.465147
vt 0.110626 0.444014
vt 0.157108 0.436732
vt 0.203590 0.444014
vt 0.245522 0.465147
vt 0.278800 0.498063
vt 0.300166 0.539539
vt 0.307528 0.585516
vt 0.207900 0.217017
vt 0.351340 0.217017
vt 0.351081 0.321858
vt 0.207075 0.321858
vt 0.489247 0.217017
vt 0.489299 0.321858
vt 0.622230 0.217017
vt 0.622119 0.321858
vt 0.753972 0.217017
vt 0.754313 0.321858
vt 0.198641 0.217017
vt 0.328860 0.217017
vt 0.329959 0.321858
vt 0.198983 0.321858
vt 0.462388 0.217017
vt 0.461389 0.321858
vt 0.598440 0.217017
vt 0.598776 0.321858
vt 0.742075 0.217017
vt 0.742308 0.321858
vt 0.110000 0.216357
vt 0.259980 0.216357
vt 0.260461 0.321198
vt 0.110358 0.321198
vt 0.418260 0.216357
vt 0.419949 0.321198
vt 0.588194 0.216357
vt 0.587791 0.321198
vt 0.766155 0.216357
vt 0.766072 0.321198
vt 0.113776 0.216357
vt 0.298223 0.216357
vt 0.298189 0.321198
vt 0.113693 0.321198
vt 0.488419 0.216357
vt 0.488025 0.321198
vt 0.677928 0.216357
vt 0.677711 0.321198
vt 0.864151 0.216357
vt 0.864407 0.321198
vt 0.190206 0.216357
vt 0.369662 0.216357
vt 0.369883 0.321198
vt 0.190462 0.321198
vt 0.540468 0.216357
vt 0.540135 0.321198
vt 0.701553 0.216357
vt 0.700685 0.321198
vt 0.853259 0.216357
vt 0.852434 0.321198
vt 0.628154 0.884276
vt 0.607221 0.924729
vt 0.600249 0.919741
vt 0.619957 0.881654
vt 0.574618 0.956833
vt 0.569552 0.949967
vt 0.533535 0.977445
vt 0.530872 0.969374
vt 0.487995 0.984547
vt 0.487995 0.976061
vt 0.442454 0.977445
vt 0.445118 0.969374
vt 0.401372 0.956833
vt 0.406438 0.949967
vt 0.368768 0.924729
vt 0.375741 0.919741
vt 0.347836 0.884276
vt 0.356032 0.881653
vt 0.340623 0.839434
vt 0.349241 0.839434
vt 0.347836 0.794591
vt 0.356032 0.797213
vt 0.368768 0.754138
vt 0.375741 0.759126
vt 0.401372 0.722034
vt 0.406438 0.728900
vt 0.442454 0.701422
vt 0.445118 0.709493
vt 0.487995 0.694320
vt 0.487995 0.702806
vt 0.533535 0.701422
vt 0.530872 0.709493
vt 0.574618 0.722034
vt 0.569552 0.728900
vt 0.607221 0.754138
vt 0.600249 0.759126
vt 0.628154 0.794591
vt 0.619957 0.797213
vt 0.635367 0.839434
vt 0.626748 0.839434
vt 0.656301 0.409842
vt 0.520322 0.409842
vt 0.520310 0.342099
vt 0.656333 0.342099
vt 0.389942 0.409842
vt 0.389910 0.342099
vt 0.263140 0.409842
vt 0.263266 0.342099
vt 0.138770 0.409842
vt 0.138639 0.342099
vt 0.647733 0.409842
vt 0.523104 0.409842
vt 0.523151 0.342099
vt 0.647601 0.342099
vt 0.397156 0.409842
vt 0.397113 0.342099
vt 0.267641 0.409842
vt 0.267623 0.342099
vt 0.132450 0.409842
vt 0.132550 0.342099
vt 0.786790 0.411000
vt 0.644735 0.411000
vt 0.644657 0.343257
vt 0.786546 0.343257
vt 0.495308 0.411000
vt 0.495277 0.343257
vt 0.337421 0.411000
vt 0.337316 0.343257
vt 0.171728 0.411000
vt 0.171833 0.343257
vt 0.827210 0.412963
vt 0.654847 0.412963
vt 0.654735 0.345220
vt 0.827315 0.345220
vt 0.478888 0.412963
vt 0.478962 0.345220
vt 0.302373 0.412963
vt 0.302441 0.345220
vt 0.129151 0.412963
vt 0.129184 0.345220
vt 0.754641 0.414346
vt 0.587365 0.414346
vt 0.587375 0.346603
vt 0.754674 0.346603
vt 0.427872 0.414346
vt 0.427904 0.346603
vt 0.276803 0.414346
vt 0.276854 0.346603
vt 0.133826 0.414346
vt 0.133857 0.346603
vn 0.000000 1.000000 0.000000
vn 0.000000 1.000000 0.000000
vn 0.000000 1.000000 0.000000
vn 0.000000 1.000000 -0.000000
vn 0.000000 1.000000 -0.000000
vn 0.000000 1.000000 0.000000
vn 0.000000 1.000000 -0.000000
vn 0.000000 1.000000 -0.000000
vn 0.000000 1.000000 0.000000
vn 0.000000 1.000000 0.000000
vn 0.000000 1.000000 0.000000
vn 0.000000 1.000000 0.000000
vn 0.000000 1.000000 0.000000
vn 0.000000 1.000000 0.000000
vn 0.000000 1.000000 0.000000
vn 0.000000 1.000000 0.000000
vn 0.000000 1.000000 0.000000
vn 0.000000 1.000000 0.000000
vn 0.000000 1.000000 0.000000
vn 0.000000 1.000000 0.000000
vn 0.000000 1.000000 0.000000
vn 0.951057 0.000000 -0.309016
vn 0.809017 0.000000 -0.587785
vn 0.809017 0.000000 -0.587785
vn 0.951057 0.000000 -0.309016
vn 0.587785 0.000000 -0.809017
vn 0.587785 0.000000 -0.809017
vn 0.309016 0.000000 -0.951057
vn 0.309016 0.000000 -0.951057
vn 0.000000 0.000000 -1.000000
vn 0.000000 0.000000 -1.000000
vn -0.309016 0.000000 -0.951057
vn -0.309016 0.000000 -0.951057
vn -0.587786 0.000000 -0.809017
vn -0.587786 0.000000 -0.809017
vn -0.809017 0.000000 -0.587785
vn -0.809017 0.000000 -0.587785
vn -0.951057 0.000000 -0.309017
vn -0.951057 0.000000 -0.309017
vn -1.000000 0.000000 0.000000
vn -1.000000 0.000000 0.000000
vn -0.951057 0.000000 0.309017
vn -0.951057 0.000000 0.309017
vn -0.809016 0.000000 0.587786
vn -0.809016 0.000000 0.587786
vn -0.587786 0.000000 0.809017
vn -0.587786 0.000000 0.809017
vn -0.309017 0.000000 0.951057
vn -0.309017 0.000000 0.951057
vn 0.000000 0.000000 1.000000
vn 0.000000 0.000000 1.000000
vn 0.309017 0.000000 0.951057
vn 0.309017 0.000000 0.951057
vn 0.587786 0.000000 0.809017
vn 0.587786 0.000000 0.809017
vn 0.809017 0.000000 0.587785
vn 0.809017 0.000000 0.587785
vn 0.951056 0.000000 0.309017
vn 0.951056 0.000000 0.309017
vn 1.000000 0.000000 0.000001
vn 1.000000 0.000000 0.000001
vn 0.000000 1.000000 0.000000
vn 0.000000 1.000000 0.000000
vn 0.000000 1.000000 0.000000
vn 0.000000 1.000000 0.000000
vn 0.000000 1.000000 0.000000
vn 0.000000 1.000000 0.000000
vn 0.000000 1.000000 0.000000
vn 0.000000 1.000000 0.000000
vn 0.000000 1.000000 0.000000
vn 0.000000 1.000000 0.000000
vn 0.000000 1.000000 0.000000
vn 0.000000 1.000000 0.000000
vn 0.000000 1.000000 0.000000
vn 0.000000 1.000000 0.000000
vn 0.000000 1.000000 0.000000
vn 0.000000 1.000000 0.000000
vn 0.000000 1.000000 0.000000
vn 0.000000 1.000000 0.000000
vn 0.000000 1.000000 0.000000
vn 0.000000 1.000000 0.000000
vn 0.000000 1.000000 -0.000000
vn 0.000000 1.000000 -0.000000
vn 0.000000 1.000000 -0.000000
vn 0.000000 1.000000 -0.000000
vn 0.000000 1.000000 0.000000
vn 0.000000 1.000000 0.000000
vn 0.000000 1.000000 0.000000
vn 0.000000 1.000000 0.000000
vn 0.000000 1.000000 -0.000000
vn 0.000000 1.000000 -0.000000
vn 0.000000 1.000000 -0.000000
vn 0.000000 1.000000 -0.000000
vn 0.000000 1.000000 0.000000
vn 0.000000 1.000000 0.000000
vn 0.000000 1.000000 0.000000
vn 0.000000 1.000000 0.000000
vn 0.000000 1.000000 -0.000000
vn 0.000000 1.000000 -0.000000
vn 0.000000 1.000000 -0.000000
vn 0.000000 1.000000 -0.000000
vn 0.000000 1.000000 -0.000000
vn 0.000000 1.000000 -0.000000
vn 0.000000 1.000000 -0.000000
vn 0.000000 1.000000 -0.000000
vn 0.000000 1.000000 -0.000000
vn 0.000000 1.000000 -0.000000
vn 0.000000 1.000000 -0.000000
vn 0.000000 1.000000 -0.000000
vn 0.000000 1.000000 -0.000000
vn 0.000000 1.000000 -0.000000
vn 0.000000 1.000000 -0.000000
vn 0.000000 1.000000 -0.000000
vn 0.000000 1.000000 -0.000000
vn 0.000000 1.000000 -0.000000
vn 0.000000 1.000000 -0.000000
vn 0.000000 1.000000 -0.000000
vn 0.000000 1.000000 0.000000
vn 0.000000 1.000000 0.000000
vn 0.000000 1.000000 0.000000
vn 0.000000 1.000000 0.000000
vn 0.000000 1.000000 0.000000
vn 0.000000 1.000000 0.000000
vn 0.000000 1.000000 0.000000
vn 0.000000 1.000000 0.000000
vn 0.000000 1.000000 -0.000000
vn 0.000000 1.000000 -0.000000
vn 0.000000 1.000000 -0.000000
vn 0.000000 1.000000 -0.000000
vn 0.000000 1.000000 0.000000
vn 0.000000 1.000000 0.000000
vn 0.000000 1.000000 0.000000
vn 0.000000 1.000000 0.000000
vn 0.000000 1.000000 0.000000
vn 0.000000 1.000000 0.000000
vn 0.000000 1.000000 0.000000
vn 0.000000 1.000000 0.000000
vn 0.000000 1.000000 0.000000
vn 0.000000 1.000000 0.000000
vn 0.000000 1.000000 0.000000
vn 0.000000 1.000000 0.000000
vn -0.891006 0.000000 0.453991
vn -0.891006 0.000000 0.453991
vn -0.891006 0.000000 0.453991
vn -0.891006 0.000000 0.453991
vn -0.707107 0.000000 0.707107
vn -0.707107 0.000000 0.707107
vn -0.707107 0.000000 0.707107
vn -0.707107 0.000000 0.707107
vn -0.453990 0.000000 0.891007
vn -0.453990 0.000000 0.891007
vn -0.453990 0.000000 0.891007
vn -0.453990 0.000000 0.891007
vn -0.156435 0.000000 0.987688
vn -0.156435 0.000000 0.987688
vn -0.156435 0.000000 0.987688
vn -0.156435 0.000000 0.987688
vn 0.156435 0.000000 0.987688
vn 0.156435 0.000000 0.987688
vn 0.156435 0.000000 0.987688
vn 0.156435 0.000000 0.987688
vn 0.453991 0.000000 0.891007
vn 0.453991 0.000000 0.891007
vn 0.453991 0.000000 0.891007
vn 0.453991 0.000000 0.891007
vn 0.707107 0.000000 0.707107
vn 0.707107 0.000000 0.707107
vn 0.707107 0.000000 0.707107
vn 0.707107 0.000000 0.707107
vn 0.891006 0.000000 0.453991
vn 0.891006 0.000000 0.453991
vn 0.891006 0.000000 0.453991
vn 0.891006 0.000000 0.453991
vn 0.987689 0.000000 0.156432
vn 0.987689 0.000000 0.156432
vn 0.987689 0.000000 0.156432
vn 0.987689 0.000000 0.156432
vn 0.987689 0.000000 -0.156432
vn 0.987689 0.000000 -0.156432
vn 0.987689 0.000000 -0.156432
vn 0.987689 0.000000 -0.156432
vn 0.891006 0.000000 -0.453991
vn 0.891006 0.000000 -0.453991
vn 0.891006 0.000000 -0.453991
vn 0.891006 0.000000 -0.453991
vn 0.707107 0.000000 -0.707107
vn 0.707107 0.000000 -0.707107
vn 0.707107 0.000000 -0.707107
vn 0.707107 0.000000 -0.707107
vn 0.453990 0.000000 -0.891007
vn 0.453990 0.000000 -0.891007
vn 0.453990 0.000000 -0.891007
vn 0.453990 0.000000 -0.891007
vn 0.156434 0.000000 -0.987688
vn 0.156434 0.000000 -0.987688
vn 0.156434 0.000000 -0.987688
vn 0.156434 0.000000 -0.987688
vn -0.156434 0.000000 -0.987688
vn -0.156434 0.000000 -0.987688
vn -0.156434 0.000000 -0.987688
vn -0.156434 0.000000 -0.987688
vn -0.453990 0.000000 -0.891007
vn -0.453990 0.000000 -0.891007
vn -0.453990 0.000000 -0.891007
vn -0.453990 0.000000 -0.891007
vn -0.707107 0.000000 -0.707107
vn -0.707107 0.000000 -0.707107
vn -0.707107 0.000000 -0.707107
vn -0.707107 0.000000 -0.707107
vn -0.891006 0.000000 -0.453991
vn -0.891006 0.000000 -0.453991
vn -0.891006 0.000000 -0.453991
vn -0.891006 0.000000 -0.453991
vn -0.987689 0.000000 -0.156432
vn -0.987689 0.000000 -0.156432
vn -0.987689 0.000000 -0.156432
vn -0.987689 0.000000 -0.156432
vn -0.987689 0.000000 0.156432
vn -0.987689 0.000000 0.156432
vn -0.987689 0.000000 0.156432
vn -0.987689 0.000000 0.156432
s 1
g nj_pond_circular_01
usemtl nj_ponds_matSG
f 2/1/1 3/2/2 1/3/3
f 3/2/2 4/4/4 1/3/3
f 4/4/4 5/5/5 1/3/3
f 5/5/5 6/6/6 1/3/3
f 6/6/6 7/7/7 1/3/3
f 7/7/7 8/8/8 1/3/3
f 8/8/8 9/9/9 1/3/3
f 9/9/9 10/10/10 1/3/3
f 10/10/10 11/11/11 1/3/3
f 11/11/11 12/12/12 1/3/3
f 12/12/12 13/13/13 1/3/3
f 13/13/13 14/14/14 1/3/3
f 14/14/14 15/15/15 1/3/3
f 15/15/15 16/16/16 1/3/3
f 16/16/16 17/17/17 1/3/3
f 17/17/17 18/18/18 1/3/3
f 18/18/18 19/19/19 1/3/3
f 19/19/19 20/20/20 1/3/3
f 20/20/20 21/21/21 1/3/3
f 21/21/21 2/1/1 1/3/3
s 2
f 22/22/22 23/23/23 43/24/24 42/25/25
f 23/23/23 24/26/26 44/27/27 43/24/24
f 24/26/26 25/28/28 45/29/29 44/27/27
f 25/28/28 26/30/30 46/31/31 45/29/29
f 26/32/30 27/33/32 47/34/33 46/35/31
f 27/33/32 28/36/34 48/37/35 47/34/33
f 28/36/34 29/38/36 49/39/37 48/37/35
f 29/38/36 30/40/38 50/41/39 49/39/37
f 30/42/38 31/43/40 51/44/41 50/45/39
f 31/43/40 32/46/42 52/47/43 51/44/41
f 32/46/42 33/48/44 53/49/45 52/47/43
f 33/48/44 34/50/46 54/51/47 53/49/45
f 34/52/46 35/53/48 55/54/49 54/55/47
f 35/53/48 36/56/50 56/57/51 55/54/49
f 36/56/50 37/58/52 57/59/53 56/57/51
f 37/58/52 38/60/54 58/61/55 57/59/53
f 38/62/54 39/63/56 59/64/57 58/65/55
f 39/63/56 40/66/58 60/67/59 59/64/57
f 40/66/58 41/68/60 61/69/61 60/67/59
f 41/68/60 22/70/22 42/71/25 61/69/61
s off
f 42/72/62 43/73/63 63/74/64 62/75/65
f 43/73/66 44/76/67 64/77/68 63/74/69
f 44/76/70 45/78/71 65/79/72 64/77/73
f 45/78/74 46/80/75 66/81/76 65/79/77
f 46/80/78 47/82/79 67/83/80 66/81/81
f 47/82/82 48/84/83 68/85/84 67/83/85
f 48/84/86 49/86/87 69/87/88 68/85/89
f 49/86/90 50/88/91 70/89/92 69/87/93
f 50/88/94 51/90/95 71/91/96 70/89/97
f 51/90/98 52/92/99 72/93/100 71/91/101
f 52/92/102 53/94/103 73/95/104 72/93/105
f 53/94/106 54/96/107 74/97/108 73/95/109
f 54/96/110 55/98/111 75/99/112 74/97/113
f 55/98/114 56/100/115 76/101/116 75/99/117
f 56/100/118 57/102/119 77/103/120 76/101/121
f 57/102/122 58/104/123 78/105/124 77/103/125
f 58/104/126 59/106/127 79/107/128 78/105/129
f 59/106/130 60/108/131 80/109/132 79/107/133
f 60/108/134 61/110/135 81/111/136 80/109/137
f 61/110/138 42/72/139 62/75/140 81/111/141
f 62/112/142 63/113/143 83/114/144 82/115/145
f 63/113/146 64/116/147 84/117/148 83/114/149
f 64/116/150 65/118/151 85/119/152 84/117/153
f 65/118/154 66/120/155 86/121/156 85/119/157
f 66/122/158 67/123/159 87/124/160 86/125/161
f 67/123/162 68/126/163 88/127/164 87/124/165
f 68/126/166 69/128/167 89/129/168 88/127/169
f 69/128/170 70/130/171 90/131/172 89/129/173
f 70/132/174 71/133/175 91/134/176 90/135/177
f 71/133/178 72/136/179 92/137/180 91/134/181
f 72/136/182 73/138/183 93/139/184 92/137/185
f 73/138/186 74/140/187 94/141/188 93/139/189
f 74/142/190 75/143/191 95/144/192 94/145/193
f 75/143/194 76/146/195 96/147/196 95/144/197
f 76/146/198 77/148/199 97/149/200 96/147/201
f 77/148/202 78/150/203 98/151/204 97/149/205
f 78/152/206 79/153/207 99/154/208 98/155/209
f 79/153/210 80/156/211 100/157/212 99/154/213
f 80/156/214 81/158/215 101/159/216 100/157/217
f 81/158/218 62/160/219 82/161/220 101/159/221
