# This file uses centimeters as units for non-parametric coordinates.

mtllib JC_GroundLight_MasonJarCandle.mtl
g JC_GroundLight_MasonJarCandle_default1
v -0.000000 12.324593 11.102511
v 5.551255 12.324593 5.551255
v -5.551255 12.324593 5.551255
v 0.000000 12.324593 0.000000
v 3.742536 12.324593 1.808715
v -3.742538 12.324593 9.293789
v 3.742536 12.324593 9.293797
v -0.000005 -0.613082 5.551256
v -3.742539 12.324593 1.808722
v 3.221673 15.316182 8.772934
v 2.894512 15.778866 8.445773
v 4.264780 15.778866 5.551256
v 4.778667 15.316182 5.551255
v 2.894512 15.778866 2.656739
v 3.221674 15.316182 2.329577
v -0.000011 15.778866 1.286466
v -0.000000 15.316182 0.772588
v -2.894509 15.778866 2.656751
v -3.221690 15.316182 2.329571
v -0.000010 15.778866 9.816046
v -0.000000 15.316182 10.329922
v -3.221689 15.316182 8.772940
v -2.894509 15.778866 8.445760
v -4.264801 15.778866 5.551256
v -4.778667 15.316182 5.551255
v -0.000000 -0.613082 10.514729
v -0.000000 -0.083860 11.102511
v 3.368320 -0.613082 8.919581
v 3.742536 -0.083860 9.293797
v -4.963473 -0.613082 5.551256
v -5.551255 -0.083860 5.551255
v -3.742539 -0.083860 1.808722
v -3.368331 -0.613082 2.182930
v -3.368330 -0.613082 8.919581
v -3.742538 -0.083860 9.293789
v -0.000000 -0.613082 0.587783
v 0.000000 -0.083860 0.000000
v 3.368320 -0.613082 2.182931
v 3.742536 -0.083860 1.808715
v 4.963473 -0.613082 5.551256
v 5.551255 -0.083860 5.551255
v 3.221673 13.779555 8.772934
v 3.273755 13.499207 8.825015
v 4.778667 13.779555 5.551255
v 4.854997 13.500758 5.551256
v 3.221674 13.779555 2.329577
v 3.273755 13.499207 2.277496
v -0.000000 13.779555 0.772588
v -0.000006 13.500758 0.696253
v -3.221690 13.779555 2.329571
v -3.273762 13.499207 2.277498
v -0.000000 13.779555 10.329922
v -0.000005 13.500758 10.406258
v -3.221689 13.779555 8.772940
v -3.273762 13.499207 8.825013
v -4.778667 13.779555 5.551255
v -4.855008 13.500758 5.551255
v -0.000003 13.640172 10.551530
v 3.371397 13.639367 8.922658
v 5.000272 13.640172 5.551255
v 3.371397 13.639367 2.179854
v -0.000002 13.640172 0.550981
v -3.371409 13.639367 2.179852
v -5.000277 13.640172 5.551256
v -3.371408 13.639367 8.922659
v -0.000028 -0.529222 8.603944
v 3.052683 -0.529222 5.551232
v -0.000028 13.723202 8.603944
v 3.052683 13.723202 5.551232
v -3.052693 13.723202 5.551279
v 0.000018 13.723202 2.498568
v -3.052693 -0.529222 5.551279
v 0.000018 -0.529222 2.498568
v -2.139572 13.723202 3.411688
v -2.139572 -0.529222 3.411688
v 2.139561 -0.529222 7.690822
v 2.139561 13.723202 7.690822
v -2.139642 13.723202 7.690893
v -2.139642 -0.529222 7.690893
v -0.000005 -0.529222 5.551256
v 2.139632 -0.529222 3.411619
v 2.139632 13.723202 3.411619
v -0.000075 13.149692 7.039346
v 1.042913 13.149692 6.594174
v -1.043040 13.149692 6.594290
v 1.042937 13.149692 4.508314
v 1.487992 13.149692 5.551279
v -1.042923 13.149692 4.508337
v -1.488095 13.149692 5.551326
v -0.000028 13.149692 4.063259
v -0.000058 12.238600 5.928455
v 0.264294 12.238600 5.815624
v -0.000040 12.238600 5.551290
v -0.264403 12.238600 5.815654
v 0.264300 12.238600 5.286951
v 0.377101 12.238600 5.551296
v -0.264374 12.238600 5.286956
v -0.377205 12.238600 5.551308
v -0.000046 12.238600 5.174149
vt 0.084577 0.379743
vt 0.137186 0.379743
vt 0.137186 0.544921
vt 0.084577 0.544921
vt 0.137746 0.640686
vt 0.166741 0.640686
vt 0.130588 0.560685
vt 0.084577 0.560664
vt 0.031934 0.379743
vt 0.031969 0.544921
vt 0.159109 0.662050
vt 0.137746 0.669682
vt 0.137746 0.611691
vt 0.038567 0.560685
vt 0.084577 0.564421
vt 0.129864 0.564421
vt 0.159109 0.619323
vt 0.039290 0.564421
vt 0.129864 0.585016
vt 0.084577 0.585016
vt 0.039290 0.585016
vt 0.116383 0.662050
vt 0.108751 0.640686
vt 0.116383 0.619323
vt 0.189759 0.544921
vt 0.242368 0.544921
vt 0.242368 0.379743
vt 0.189760 0.379743
vt 0.189759 0.560664
vt 0.235770 0.560685
vt 0.138460 0.589474
vt 0.138460 0.594592
vt 0.137151 0.544921
vt 0.137151 0.379743
vt 0.143749 0.560685
vt 0.105100 0.606515
vt 0.101080 0.602495
vt 0.175839 0.602495
vt 0.171820 0.606515
vt 0.235128 0.564421
vt 0.189841 0.564421
vt 0.144554 0.564421
vt 0.189841 0.585016
vt 0.235128 0.585016
vt 0.144554 0.585016
vt 0.188861 0.639875
vt 0.183742 0.639875
vt 0.175839 0.677254
vt 0.171820 0.673234
vt 0.138460 0.690275
vt 0.138460 0.685157
vt 0.101080 0.677254
vt 0.105100 0.673235
vt 0.093177 0.639875
vt 0.088059 0.639875
vt 0.113853 0.664580
vt 0.105529 0.640686
vt 0.137746 0.672903
vt 0.161639 0.664580
vt 0.113853 0.616793
vt 0.137746 0.608470
vt 0.161639 0.616793
vt 0.169962 0.640686
vt 0.428678 0.594457
vt 0.189794 0.379743
vt 0.189794 0.544921
vt 0.596741 0.778013
vt 0.242403 0.379743
vt 0.242403 0.544921
vt 0.189794 0.560664
vt 0.143785 0.560685
vt 0.235805 0.560685
vt 0.138467 0.591853
vt 0.138467 0.593989
vt 0.104376 0.605865
vt 0.144508 0.564421
vt 0.189794 0.564421
vt 0.235081 0.564421
vt 0.189795 0.585016
vt 0.144508 0.585016
vt 0.235081 0.585016
vt 0.102795 0.604284
vt 0.174139 0.604284
vt 0.172558 0.605865
vt 0.084542 0.379743
vt 0.596741 0.594457
vt 0.638757 0.594457
vt 0.084542 0.544921
vt 0.038532 0.560685
vt 0.084542 0.560664
vt 0.638757 0.778013
vt 0.428678 0.778013
vt 0.186570 0.639956
vt 0.184434 0.639956
vt 0.130552 0.560685
vt 0.039337 0.564421
vt 0.084624 0.564421
vt 0.174139 0.675628
vt 0.039337 0.585016
vt 0.084624 0.585016
vt 0.129911 0.564421
vt 0.172558 0.674047
vt 0.138467 0.688060
vt 0.129911 0.585016
vt 0.138467 0.685923
vt 0.302631 0.594457
vt 0.344647 0.594457
vt 0.344646 0.778013
vt 0.302631 0.778013
vt 0.386662 0.594457
vt 0.386662 0.778013
vt 0.704951 0.572824
vt 0.702852 0.567599
vt 0.710175 0.567599
vt 0.710175 0.574922
vt 0.689565 0.588210
vt 0.681284 0.567598
vt 0.710175 0.560277
vt 0.704951 0.562375
vt 0.717497 0.567599
vt 0.715399 0.572824
vt 0.710175 0.596492
vt 0.667893 0.609881
vt 0.650906 0.567598
vt 0.689565 0.546989
vt 0.715399 0.562375
vt 0.710175 0.538707
vt 0.739065 0.567598
vt 0.730785 0.588210
vt 0.710175 0.626869
vt 0.667893 0.525316
vt 0.730785 0.546989
vt 0.710175 0.508327
vt 0.769444 0.567598
vt 0.752456 0.609881
vt 0.752456 0.525316
vt 0.554725 0.778013
vt 0.512709 0.778013
vt 0.512710 0.594457
vt 0.554725 0.594457
vt 0.470694 0.778013
vt 0.470694 0.594457
vt 0.470687 0.754116
vt 0.470687 0.688419
vt 0.536381 0.688419
vt 0.517552 0.735285
vt 0.423822 0.735285
vt 0.404993 0.688419
vt 0.470687 0.622723
vt 0.517552 0.641554
vt 0.423822 0.641554
vt 0.102795 0.675628
vt 0.104376 0.674047
vt 0.090364 0.639956
vt 0.092500 0.639956
vt 0.138467 0.593989
vt 0.104376 0.605865
vt 0.172558 0.605865
vt 0.184434 0.639956
vt 0.172558 0.674047
vt 0.138467 0.685923
vt 0.104376 0.674047
vt 0.092500 0.639956
vt 0.031969 0.379743
vt 0.031934 0.544921
vn 0.707107 0.000000 0.707107
vn 0.900366 0.000000 0.435134
vn 0.900366 0.000000 0.435134
vn 0.707107 0.000000 0.707107
vn -0.707107 0.000000 -0.707107
vn -0.435135 0.000000 -0.900365
vn -0.435135 0.000000 -0.900365
vn -0.707107 0.000000 -0.707107
vn 0.000000 -1.000000 0.000000
vn 0.000000 -1.000000 0.000000
vn 0.000000 -1.000000 0.000000
vn 0.000000 -1.000000 0.000000
vn 0.900366 0.000000 -0.435134
vn 0.707107 0.000000 -0.707107
vn 0.707107 0.000000 -0.707107
vn 0.900366 0.000000 -0.435134
vn -0.707107 0.000000 0.707107
vn -0.435135 0.000000 0.900365
vn -0.435135 0.000000 0.900365
vn -0.707107 0.000000 0.707107
vn -0.900366 0.000000 0.435134
vn -0.707107 0.000000 0.707107
vn -0.707107 0.000000 0.707107
vn -0.900366 0.000000 0.435134
vn 0.000000 -1.000000 0.000000
vn 0.000000 -1.000000 0.000000
vn 0.000000 -1.000000 0.000000
vn 0.000000 -1.000000 0.000000
vn 0.707107 0.000000 -0.707107
vn 0.707107 0.000000 -0.707107
vn 0.435134 0.000000 -0.900366
vn 0.435134 0.000000 -0.900366
vn 0.435134 0.000000 0.900366
vn 0.707107 0.000000 0.707107
vn 0.707107 0.000000 0.707107
vn 0.435134 0.000000 0.900366
vn 0.000000 -1.000000 0.000000
vn 0.000000 -1.000000 0.000000
vn 0.000000 -1.000000 0.000000
vn 0.000000 -1.000000 0.000000
vn 0.000000 -1.000000 0.000000
vn 0.000000 -1.000000 0.000000
vn 0.000000 -1.000000 0.000000
vn 0.000000 -1.000000 0.000000
vn -0.900366 0.000000 -0.435134
vn -0.707107 0.000000 -0.707107
vn -0.707107 0.000000 -0.707107
vn -0.900366 0.000000 -0.435134
vn 0.794553 0.470353 0.383997
vn 0.794553 0.470353 0.383997
vn 0.794553 0.470353 0.383997
vn 0.794553 0.470353 0.383997
vn 0.794553 0.470353 -0.383996
vn 0.794553 0.470353 -0.383996
vn 0.794553 0.470353 -0.383996
vn 0.794553 0.470353 -0.383996
vn 0.383996 0.470352 -0.794554
vn 0.383996 0.470352 -0.794554
vn 0.383996 0.470352 -0.794554
vn 0.383996 0.470352 -0.794554
vn -0.383999 0.470349 -0.794555
vn -0.383999 0.470349 -0.794555
vn -0.383999 0.470349 -0.794555
vn -0.383999 0.470349 -0.794555
vn 0.383996 0.470352 0.794554
vn 0.383996 0.470352 0.794554
vn 0.383996 0.470353 0.794554
vn 0.383996 0.470352 0.794554
vn -0.383999 0.470348 0.794555
vn -0.383998 0.470348 0.794555
vn -0.383998 0.470348 0.794555
vn -0.383998 0.470348 0.794555
vn -0.794555 0.470348 -0.383998
vn -0.794555 0.470348 -0.383998
vn -0.794555 0.470348 -0.383998
vn -0.794555 0.470348 -0.383998
vn -0.794556 0.470347 0.383999
vn -0.794556 0.470347 0.383999
vn -0.794556 0.470347 0.383999
vn -0.794556 0.470347 0.383999
vn 0.900366 0.000000 0.435134
vn 0.900366 0.000000 0.435134
vn 0.900366 0.000000 0.435134
vn 0.900366 0.000000 0.435134
vn 0.900366 0.000000 -0.435134
vn 0.900366 0.000000 -0.435134
vn 0.900366 0.000000 -0.435134
vn 0.900366 0.000000 -0.435134
vn 0.435134 0.000000 -0.900366
vn 0.435134 0.000000 -0.900366
vn 0.435134 0.000000 -0.900366
vn 0.435134 0.000000 -0.900366
vn -0.435131 0.000000 -0.900367
vn -0.435131 0.000000 -0.900367
vn -0.435131 0.000000 -0.900367
vn -0.435131 0.000000 -0.900367
vn 0.435134 0.000000 0.900366
vn 0.435134 0.000000 0.900366
vn 0.435134 0.000000 0.900366
vn 0.435134 0.000000 0.900366
vn -0.435131 0.000000 0.900367
vn -0.435131 0.000000 0.900367
vn -0.435131 0.000000 0.900367
vn -0.435131 0.000000 0.900367
vn -0.900368 0.000000 -0.435130
vn -0.900368 0.000000 -0.435130
vn -0.900368 0.000000 -0.435130
vn -0.900368 0.000000 -0.435130
vn -0.900368 0.000000 0.435130
vn -0.900368 0.000000 0.435130
vn -0.900368 0.000000 0.435130
vn -0.900368 0.000000 0.435130
vn 0.492278 0.717862 0.492278
vn 0.492278 0.717862 0.492278
vn 0.309501 0.697160 0.646666
vn 0.309501 0.697160 0.646666
vn 0.492278 0.717862 0.492278
vn 0.492278 0.717862 0.492278
vn 0.646664 0.697163 0.309499
vn 0.646664 0.697163 0.309499
vn 0.646664 0.697163 -0.309499
vn 0.646664 0.697163 -0.309499
vn 0.492278 0.717862 -0.492277
vn 0.492277 0.717862 -0.492277
vn 0.492277 0.717862 -0.492277
vn 0.492278 0.717862 -0.492277
vn 0.309500 0.697161 -0.646665
vn 0.309500 0.697161 -0.646665
vn -0.309497 0.697168 -0.646660
vn -0.309497 0.697168 -0.646660
vn -0.492274 0.717866 -0.492274
vn -0.492274 0.717866 -0.492274
vn -0.492274 0.717866 -0.492274
vn -0.492274 0.717866 -0.492274
vn -0.646662 0.697165 -0.309499
vn -0.646662 0.697165 -0.309499
vn -0.309498 0.697167 0.646660
vn -0.309498 0.697167 0.646660
vn -0.492274 0.717866 0.492274
vn -0.492274 0.717866 0.492274
vn -0.492274 0.717866 0.492274
vn -0.492274 0.717866 0.492274
vn -0.646662 0.697165 0.309499
vn -0.646662 0.697165 0.309499
vn -0.309542 -0.697158 0.646649
vn -0.309542 -0.697158 0.646649
vn -0.492286 -0.717850 0.492286
vn -0.492286 -0.717850 0.492286
vn 0.309539 -0.697162 0.646646
vn 0.309539 -0.697162 0.646646
vn 0.492283 -0.717854 0.492283
vn 0.492283 -0.717854 0.492283
vn 0.492283 -0.717854 0.492283
vn 0.492283 -0.717854 0.492283
vn 0.646645 -0.697162 0.309540
vn 0.646645 -0.697162 0.309540
vn -0.646649 -0.697158 0.309542
vn -0.646649 -0.697158 0.309542
vn -0.492286 -0.717850 0.492286
vn -0.492286 -0.717850 0.492286
vn -0.646649 -0.697158 -0.309542
vn -0.646649 -0.697158 -0.309542
vn -0.492286 -0.717851 -0.492286
vn -0.492286 -0.717851 -0.492286
vn -0.492286 -0.717851 -0.492286
vn -0.492286 -0.717851 -0.492286
vn -0.309542 -0.697158 -0.646649
vn -0.309542 -0.697158 -0.646649
vn 0.309539 -0.697162 -0.646646
vn 0.309539 -0.697162 -0.646646
vn 0.492283 -0.717854 -0.492283
vn 0.492283 -0.717854 -0.492283
vn 0.492283 -0.717854 -0.492283
vn 0.492283 -0.717854 -0.492283
vn 0.646646 -0.697161 -0.309540
vn 0.646645 -0.697162 -0.309541
vn 0.249547 0.819293 0.516222
vn 0.249547 0.819293 0.516222
vn 0.249547 0.819293 0.516222
vn 0.249547 0.819293 0.516222
vn 0.516221 0.819294 0.249544
vn 0.516221 0.819294 0.249544
vn 0.516221 0.819294 0.249544
vn 0.516221 0.819294 0.249544
vn 0.516225 0.819292 -0.249545
vn 0.516225 0.819292 -0.249545
vn 0.516225 0.819292 -0.249545
vn 0.516225 0.819292 -0.249545
vn 0.249544 0.819293 -0.516224
vn 0.249544 0.819293 -0.516224
vn 0.249544 0.819293 -0.516224
vn 0.249544 0.819293 -0.516224
vn -0.249545 0.819292 -0.516225
vn -0.249544 0.819292 -0.516225
vn -0.249544 0.819292 -0.516225
vn -0.249545 0.819292 -0.516225
vn -0.516226 0.819291 -0.249546
vn -0.516226 0.819291 -0.249546
vn -0.516226 0.819291 -0.249546
vn -0.516226 0.819291 -0.249546
vn -0.249546 0.819293 0.516223
vn -0.249546 0.819293 0.516223
vn -0.249546 0.819293 0.516223
vn -0.249546 0.819293 0.516223
vn -0.516223 0.819292 0.249547
vn -0.516223 0.819292 0.249547
vn -0.516223 0.819292 0.249547
vn -0.516223 0.819292 0.249547
vn 0.317645 -0.682698 0.658046
vn 0.317645 -0.682698 0.658046
vn 0.317645 -0.682698 0.658046
vn 0.317645 -0.682698 0.658046
vn 0.658044 -0.682701 0.317644
vn 0.658044 -0.682701 0.317644
vn 0.658044 -0.682701 0.317644
vn 0.658044 -0.682701 0.317644
vn 0.658043 -0.682702 -0.317644
vn 0.658043 -0.682702 -0.317644
vn 0.658043 -0.682702 -0.317644
vn 0.658043 -0.682702 -0.317644
vn 0.317644 -0.682700 -0.658045
vn 0.317644 -0.682700 -0.658045
vn 0.317644 -0.682700 -0.658045
vn 0.317644 -0.682700 -0.658045
vn -0.317644 -0.682702 -0.658043
vn -0.317644 -0.682702 -0.658043
vn -0.317644 -0.682702 -0.658043
vn -0.317644 -0.682702 -0.658043
vn -0.658044 -0.682701 -0.317644
vn -0.658044 -0.682701 -0.317644
vn -0.658044 -0.682701 -0.317644
vn -0.658044 -0.682701 -0.317644
vn -0.658046 -0.682699 0.317644
vn -0.658046 -0.682699 0.317644
vn -0.658046 -0.682699 0.317644
vn -0.658046 -0.682699 0.317644
vn -0.317641 -0.682703 0.658043
vn -0.317641 -0.682703 0.658043
vn -0.317641 -0.682703 0.658043
vn -0.317641 -0.682703 0.658043
vn 0.392522 0.000000 0.919743
vn 0.707107 0.000000 0.707107
vn 0.707107 0.000000 0.707107
vn 0.392522 0.000000 0.919743
vn 0.000001 1.000000 0.000001
vn -0.000001 1.000000 -0.000001
vn 0.000000 1.000000 0.000000
vn 0.000000 1.000000 0.000000
vn -0.919743 0.000000 -0.392522
vn -0.707107 0.000000 -0.707107
vn -0.707107 0.000000 -0.707107
vn -0.919743 0.000000 -0.392522
vn 0.000000 -1.000000 0.000000
vn 0.000000 -1.000000 0.000000
vn 0.000000 -1.000000 0.000000
vn 0.000000 -1.000000 0.000000
vn 0.919755 0.000000 -0.392492
vn 0.707107 0.000000 -0.707107
vn 0.707107 0.000000 -0.707107
vn 0.919755 0.000000 -0.392492
vn -0.707107 0.000000 0.707107
vn -0.392494 0.000000 0.919755
vn -0.392494 0.000000 0.919755
vn -0.707107 0.000000 0.707107
vn -0.707107 0.000000 -0.707107
vn -0.392522 0.000000 -0.919743
vn -0.392522 0.000000 -0.919743
vn -0.707107 0.000000 -0.707107
vn 0.000000 -1.000000 0.000000
vn 0.000000 -1.000000 0.000000
vn 0.000000 -1.000000 0.000000
vn 0.000000 -1.000000 0.000000
vn 0.707107 0.000000 0.707107
vn 0.707107 0.000000 0.707107
vn 0.919743 0.000000 0.392522
vn 0.919743 0.000000 0.392522
vn 0.000000 1.000000 0.000000
vn 0.000000 1.000000 0.000000
vn -0.000001 1.000000 -0.000001
vn -0.000001 1.000000 -0.000001
vn 0.000000 1.000000 0.000000
vn 0.000000 1.000000 0.000000
vn 0.000001 1.000000 0.000001
vn -0.000001 1.000000 -0.000001
vn -0.919755 0.000000 0.392493
vn -0.707107 0.000000 0.707107
vn -0.707107 0.000000 0.707107
vn -0.919755 0.000000 0.392493
vn 0.000000 -1.000000 0.000000
vn 0.000000 -1.000000 0.000000
vn 0.000000 -1.000000 0.000000
vn 0.000000 -1.000000 0.000000
vn 0.000000 -1.000000 0.000000
vn 0.000000 -1.000000 0.000000
vn 0.000000 -1.000000 0.000000
vn 0.000000 -1.000000 0.000000
vn 0.707107 0.000000 -0.707107
vn 0.707107 0.000000 -0.707107
vn 0.392493 0.000000 -0.919755
vn 0.392493 0.000000 -0.919755
vn 0.000001 1.000000 0.000001
vn 0.000000 1.000000 0.000000
vn 0.000000 1.000000 0.000000
vn 0.000001 1.000000 0.000001
vn -0.145321 0.928947 -0.340498
vn -0.145321 0.928947 -0.340498
vn -0.145321 0.928947 -0.340498
vn -0.145321 0.928947 -0.340498
vn 0.145309 0.928943 -0.340514
vn 0.145309 0.928943 -0.340514
vn 0.145309 0.928943 -0.340514
vn 0.145309 0.928943 -0.340514
vn -0.340495 0.928949 -0.145314
vn -0.340495 0.928949 -0.145314
vn -0.340495 0.928949 -0.145314
vn -0.340495 0.928949 -0.145314
vn -0.340490 0.928954 0.145298
vn -0.340490 0.928954 0.145298
vn -0.340490 0.928954 0.145298
vn -0.340490 0.928954 0.145298
vn 0.340498 0.928947 0.145321
vn 0.340498 0.928947 0.145321
vn 0.340498 0.928947 0.145321
vn 0.340498 0.928947 0.145321
vn 0.340514 0.928943 -0.145309
vn 0.340514 0.928943 -0.145309
vn 0.340514 0.928943 -0.145309
vn 0.340514 0.928943 -0.145309
vn -0.145298 0.928954 0.340490
vn -0.145298 0.928954 0.340490
vn -0.145298 0.928954 0.340490
vn -0.145298 0.928954 0.340490
vn 0.145314 0.928949 0.340495
vn 0.145313 0.928950 0.340494
vn 0.145314 0.928949 0.340495
vn 0.145314 0.928949 0.340495
vn -0.261268 0.746354 -0.612123
vn -0.261268 0.746354 -0.612123
vn -0.261268 0.746354 -0.612123
vn -0.261268 0.746354 -0.612123
vn 0.261208 0.746371 -0.612128
vn 0.261208 0.746371 -0.612128
vn 0.261208 0.746371 -0.612128
vn 0.261208 0.746371 -0.612128
vn -0.612128 0.746360 -0.261239
vn -0.612128 0.746360 -0.261239
vn -0.612128 0.746360 -0.261239
vn -0.612128 0.746360 -0.261239
vn -0.612129 0.746370 0.261209
vn -0.612129 0.746370 0.261209
vn -0.612129 0.746370 0.261209
vn -0.612129 0.746370 0.261209
vn 0.612124 0.746353 0.261269
vn 0.612124 0.746353 0.261269
vn 0.612124 0.746353 0.261269
vn 0.612124 0.746353 0.261269
vn 0.612128 0.746371 -0.261209
vn 0.612128 0.746371 -0.261209
vn 0.612128 0.746371 -0.261209
vn 0.612128 0.746371 -0.261209
vn -0.261209 0.746370 0.612128
vn -0.261209 0.746370 0.612128
vn -0.261208 0.746371 0.612128
vn -0.261208 0.746371 0.612128
vn 0.261239 0.746360 0.612128
vn 0.261239 0.746360 0.612128
vn 0.261239 0.746360 0.612128
vn 0.261239 0.746360 0.612128
s off
g JC_GroundLight_MasonJarCandle JC_GroundLight_MasonJarCandle1
usemtl lambert3SG
f 29/1/1 41/2/2 2/3/3 7/4/4
f 9/25/5 4/26/6 37/27/7 32/28/8
f 8/5/9 38/6/10 40/11/11 28/12/12
f 41/2/13 39/65/14 5/66/15 2/3/16
f 35/85/17 27/9/18 1/165/19 6/88/20
f 31/34/21 35/85/22 6/88/23 3/33/24
f 33/13/25 36/17/26 38/6/27 8/5/28
f 5/66/29 39/65/30 37/68/31 4/69/32
f 27/164/33 29/1/34 7/4/35 1/10/36
f 28/12/37 26/22/38 34/23/39 8/5/40
f 34/23/41 30/24/42 33/13/43 8/5/44
f 3/33/45 9/25/46 32/28/47 31/34/48
f 7/4/49 2/3/50 45/7/51 43/8/52
f 2/3/53 5/66/54 47/70/55 45/71/56
f 5/66/57 4/69/58 49/72/59 47/70/60
f 4/26/61 9/25/62 51/29/63 49/30/64
f 1/10/65 7/4/66 43/8/67 53/14/68
f 6/88/69 1/165/70 53/89/71 55/90/72
f 9/25/73 3/33/74 57/35/75 51/29/76
f 3/33/77 6/88/78 55/90/79 57/95/80
f 42/15/81 44/16/82 13/19/83 10/20/84
f 44/76/85 46/77/86 15/79/87 13/80/88
f 46/77/89 48/78/90 17/81/91 15/79/92
f 48/40/93 50/41/94 19/43/95 17/44/96
f 52/18/97 42/15/98 10/20/99 21/21/100
f 54/97/101 52/96/102 21/99/103 22/100/104
f 50/41/105 56/42/106 25/45/107 19/43/108
f 56/101/109 54/97/110 22/100/111 25/104/112
f 10/31/113 11/32/114 20/36/115 21/37/116
f 11/32/117 10/31/118 13/38/119 12/39/120
f 12/39/121 13/38/122 15/46/123 14/47/124
f 14/47/125 15/46/126 17/48/127 16/49/128
f 16/49/129 17/48/130 19/50/131 18/51/132
f 18/51/133 19/50/134 25/52/135 24/53/136
f 21/37/137 20/36/138 23/54/139 22/55/140
f 22/55/141 23/54/142 24/53/143 25/52/144
f 26/22/145 27/56/146 35/57/147 34/23/148
f 27/56/149 26/22/150 28/12/151 29/58/152
f 29/58/153 28/12/154 40/11/155 41/59/156
f 31/60/157 30/24/158 34/23/159 35/57/160
f 30/24/161 31/60/162 32/61/163 33/13/164
f 33/13/165 32/61/166 37/62/167 36/17/168
f 36/17/169 37/62/170 39/63/171 38/6/172
f 38/6/173 39/63/174 41/59/175 40/11/176
f 59/73/177 42/74/178 52/75/179 58/82/180
f 42/74/181 59/73/182 60/83/183 44/84/184
f 44/84/185 60/83/186 61/93/187 46/94/188
f 46/94/189 61/93/190 62/98/191 48/102/192
f 48/102/193 62/98/194 63/103/195 50/105/196
f 50/105/197 63/103/198 64/152/199 56/153/200
f 65/154/201 58/82/202 52/75/203 54/155/204
f 65/154/205 54/155/206 56/153/207 64/152/208
f 43/156/209 59/73/210 58/82/211 53/157/212
f 60/83/213 59/73/214 43/156/215 45/158/216
f 61/93/217 60/83/218 45/158/219 47/159/220
f 62/98/221 61/93/222 47/159/223 49/160/224
f 63/103/225 62/98/226 49/160/227 51/161/228
f 64/152/229 63/103/230 51/161/231 57/162/232
f 55/163/233 65/154/234 64/152/235 57/162/236
f 53/157/237 58/82/238 65/154/239 55/163/240
g JC_GroundLight_MasonJarCandle pCube501 JC_GroundLight_MasonJarCandle1
f 66/106/241 76/107/242 77/108/243 68/109/244
f 91/112/245 92/113/246 93/114/247 94/115/248
f 70/137/249 74/138/250 75/139/251 72/140/252
f 79/143/253 80/144/254 76/145/255 66/146/256
f 67/110/257 81/64/258 82/92/259 69/111/260
f 79/86/261 66/87/262 68/91/263 78/67/264
f 74/138/265 71/141/266 73/142/267 75/139/268
f 76/145/269 80/144/270 81/149/271 67/150/272
f 77/108/273 76/107/274 67/110/275 69/111/276
f 95/118/277 93/114/278 92/113/279 96/119/280
f 94/115/281 93/114/282 97/120/283 98/121/284
f 72/140/285 79/86/286 78/67/287 70/137/288
f 72/147/289 75/148/290 80/144/291 79/143/292
f 81/149/293 80/144/294 75/148/295 73/151/296
f 82/92/297 81/64/298 73/142/299 71/141/300
f 97/120/301 93/114/302 95/118/303 99/126/304
f 68/123/305 77/124/306 84/117/307 83/116/308
f 78/130/309 68/123/310 83/116/311 85/122/312
f 77/124/313 69/131/314 87/125/315 84/117/316
f 69/131/317 82/133/318 86/127/319 87/125/320
f 74/134/321 70/135/322 89/129/323 88/128/324
f 70/135/325 78/130/326 85/122/327 89/129/328
f 82/133/329 71/136/330 90/132/331 86/127/332
f 71/136/333 74/134/334 88/128/335 90/132/336
f 83/116/337 84/117/338 92/113/339 91/112/340
f 85/122/341 83/116/342 91/112/343 94/115/344
f 84/117/345 87/125/346 96/119/347 92/113/348
f 87/125/349 86/127/350 95/118/351 96/119/352
f 88/128/353 89/129/354 98/121/355 97/120/356
f 89/129/357 85/122/358 94/115/359 98/121/360
f 86/127/361 90/132/362 99/126/363 95/118/364
f 90/132/365 88/128/366 97/120/367 99/126/368
