# This file uses centimeters as units for non-parametric coordinates.

mtllib JC_Large_Crayon_B.mtl
g default
v 72.360695 0.000000 -23.511354
v 52.360691 0.000000 -38.042301
v 27.639318 0.000000 -38.042301
v 7.639318 0.000000 -23.511354
v 0.000005 0.000000 -0.000002
v 7.639318 0.000000 23.511351
v 27.639318 0.000000 38.042294
v 52.360691 0.000000 38.042294
v 72.360695 0.000000 23.511351
v 80.000000 0.000000 -0.000002
v 72.360695 321.434814 -23.511354
v 52.360691 321.434814 -38.042301
v 27.639318 321.434814 -38.042301
v 7.639318 321.434814 -23.511354
v 0.000005 321.434814 -0.000002
v 7.639318 321.434814 23.511351
v 27.639318 321.434814 38.042294
v 52.360691 321.434814 38.042294
v 72.360695 321.434814 23.511351
v 80.000000 321.434814 -0.000002
v 40.000004 0.000000 -0.000002
v 65.005806 321.434814 -18.167727
v 49.551395 321.434814 -29.396061
v 30.448612 321.434814 -29.396061
v 14.994206 321.434814 -18.167727
v 9.091039 321.434814 -0.000002
v 14.994206 321.434814 18.167723
v 30.448612 321.434814 29.396055
v 49.551395 321.434814 29.396055
v 65.005806 321.434814 18.167723
v 70.908974 321.434814 -0.000002
v 54.521027 371.574646 -10.068289
v 45.546555 373.522644 -16.290871
v 34.453453 380.894165 -16.290871
v 25.478983 378.946167 -10.068289
v 22.050989 375.794281 -0.000004
v 25.478983 372.642456 10.068300
v 34.453453 370.694458 16.290874
v 45.546555 363.322937 16.290874
v 54.521027 365.270935 10.068300
v 57.949017 368.422760 -0.000004
v 45.546555 368.422760 0.000010
v 34.453453 375.794281 0.000009
v 25.478983 375.794281 0.000003
v 54.521027 368.422760 0.000003
vt 0.854848 0.170045
vt 0.898201 0.733743
vt 0.854848 0.733743
vt 0.508018 0.170045
vt 0.508018 0.733743
vt 0.551372 0.170045
vt 0.551372 0.733743
vt 0.594726 0.170045
vt 0.594726 0.733743
vt 0.638079 0.170045
vt 0.638079 0.733743
vt 0.681433 0.170045
vt 0.681433 0.733743
vt 0.724787 0.170045
vt 0.724787 0.733743
vt 0.768140 0.170045
vt 0.768140 0.733743
vt 0.811494 0.170045
vt 0.811494 0.733743
vt 0.769849 0.010884
vt 0.808965 0.039303
vt 0.745674 0.085286
vt 0.721500 0.010884
vt 0.682384 0.039303
vt 0.667444 0.085286
vt 0.682384 0.131269
vt 0.721500 0.159688
vt 0.769849 0.159688
vt 0.808965 0.131269
vt 0.823905 0.085286
vt 0.636722 0.757890
vt 0.678916 0.747191
vt 0.681341 0.763981
vt 0.642332 0.773742
vt 0.721399 0.744511
vt 0.721197 0.761135
vt 0.763265 0.747787
vt 0.760747 0.764175
vt 0.804625 0.757190
vt 0.799298 0.773033
vt 0.842798 0.773381
vt 0.835221 0.787843
vt 0.877977 0.795406
vt 0.867556 0.808203
vt 0.530891 0.832400
vt 0.546143 0.839269
vt 0.561466 0.798816
vt 0.572785 0.811754
vt 0.597522 0.775145
vt 0.605717 0.789829
vt 0.689935 0.923137
vt 0.704417 0.914788
vt 0.675200 0.875419
vt 0.898201 0.170045
vt 0.941555 0.170045
vt 0.697990 0.873754
vt 0.789006 0.882519
vt 0.722047 0.886169
vt 0.612434 0.897204
vt 0.744569 0.883228
vt 0.834856 0.892963
vt 0.766937 0.881110
vt 0.712096 0.934779
vt 0.697716 0.943267
vt 0.679281 0.926944
vt 0.684072 0.939896
vt 0.715071 0.910981
vt 0.719609 0.923326
vt 0.675142 0.928362
vt 0.674743 0.914599
vt 0.710281 0.898030
vt 0.719211 0.909563
vt 0.682257 0.903146
vt 0.696637 0.894659
vt 0.809356 0.889834
vt 0.894135 0.833484
vt 0.652595 0.878229
vt 0.941555 0.733743
vt 0.630966 0.884779
vt 0.908219 0.826621
vn 0.587788 0.000000 -0.809015
vn 0.587788 0.000000 -0.809015
vn 0.587788 0.000000 -0.809015
vn 0.587788 0.000000 -0.809015
vn 0.000000 0.000000 -1.000000
vn 0.000000 0.000000 -1.000000
vn 0.000000 0.000000 -1.000000
vn 0.000000 0.000000 -1.000000
vn -0.587788 0.000000 -0.809015
vn -0.587788 0.000000 -0.809015
vn -0.587788 0.000000 -0.809015
vn -0.587788 0.000000 -0.809015
vn -0.951056 0.000000 -0.309017
vn -0.951056 0.000000 -0.309017
vn -0.951056 0.000000 -0.309017
vn -0.951056 0.000000 -0.309017
vn -0.951056 0.000000 0.309017
vn -0.951056 0.000000 0.309017
vn -0.951056 0.000000 0.309017
vn -0.951056 0.000000 0.309017
vn -0.587788 0.000000 0.809015
vn -0.587788 0.000000 0.809015
vn -0.587788 0.000000 0.809015
vn -0.587788 0.000000 0.809015
vn 0.000000 0.000000 1.000000
vn 0.000000 0.000000 1.000000
vn 0.000000 0.000000 1.000000
vn 0.000000 0.000000 1.000000
vn 0.587788 0.000000 0.809015
vn 0.587788 0.000000 0.809015
vn 0.587788 0.000000 0.809015
vn 0.587788 0.000000 0.809015
vn 0.951056 0.000000 0.309017
vn 0.951056 0.000000 0.309017
vn 0.951056 0.000000 0.309017
vn 0.951056 0.000000 0.309017
vn 0.951056 0.000000 -0.309017
vn 0.951056 0.000000 -0.309017
vn 0.951056 0.000000 -0.309017
vn 0.951056 0.000000 -0.309017
vn 0.000000 -1.000000 0.000000
vn 0.000000 -1.000000 0.000000
vn 0.000000 -1.000000 0.000000
vn 0.000000 -1.000000 0.000000
vn 0.000000 -1.000000 0.000000
vn 0.000000 -1.000000 0.000000
vn 0.000000 -1.000000 0.000000
vn 0.000000 -1.000000 0.000000
vn 0.000000 -1.000000 0.000000
vn 0.000000 -1.000000 0.000000
vn 0.000000 -1.000000 0.000000
vn 0.000000 -1.000000 0.000000
vn 0.000000 -1.000000 0.000000
vn 0.000000 -1.000000 0.000000
vn 0.000000 -1.000000 0.000000
vn 0.000000 -1.000000 0.000000
vn 0.000000 -1.000000 0.000000
vn 0.000000 -1.000000 0.000000
vn 0.000000 -1.000000 0.000000
vn 0.000000 -1.000000 0.000000
vn 0.000000 -1.000000 0.000000
vn 0.000000 -1.000000 0.000000
vn 0.000000 -1.000000 0.000000
vn 0.000000 -1.000000 0.000000
vn 0.000000 -1.000000 0.000000
vn 0.000000 -1.000000 0.000000
vn 0.000000 -1.000000 0.000000
vn 0.000000 -1.000000 0.000000
vn 0.000000 -1.000000 0.000000
vn 0.000000 -1.000000 0.000000
vn 0.000000 1.000000 -0.000002
vn 0.000000 1.000000 -0.000002
vn 0.000000 1.000000 -0.000002
vn 0.000000 1.000000 -0.000002
vn 0.000000 1.000000 0.000001
vn 0.000000 1.000000 0.000001
vn 0.000000 1.000000 0.000001
vn 0.000000 1.000000 0.000001
vn 0.000000 1.000000 -0.000001
vn 0.000000 1.000000 -0.000001
vn 0.000000 1.000000 -0.000001
vn 0.000000 1.000000 -0.000001
vn 0.000000 1.000000 0.000000
vn 0.000000 1.000000 0.000000
vn 0.000000 1.000000 0.000000
vn 0.000000 1.000000 0.000000
vn 0.000000 1.000000 -0.000001
vn 0.000000 1.000000 -0.000001
vn 0.000000 1.000000 -0.000001
vn 0.000000 1.000000 -0.000001
vn 0.000000 1.000000 0.000002
vn 0.000000 1.000000 0.000002
vn 0.000000 1.000000 0.000002
vn 0.000000 1.000000 0.000002
vn 0.000000 1.000000 -0.000001
vn 0.000000 1.000000 -0.000001
vn 0.000000 1.000000 -0.000001
vn 0.000000 1.000000 -0.000001
vn 0.000000 1.000000 0.000001
vn 0.000000 1.000000 0.000001
vn 0.000000 1.000000 0.000001
vn 0.000000 1.000000 0.000001
vn 0.000000 1.000000 0.000000
vn 0.000000 1.000000 0.000000
vn 0.000000 1.000000 0.000000
vn 0.000000 1.000000 0.000000
vn 0.000000 1.000000 0.000001
vn 0.000000 1.000000 0.000001
vn 0.000000 1.000000 0.000001
vn 0.000000 1.000000 0.000001
vn 0.576562 0.243498 -0.779926
vn 0.576562 0.243498 -0.779926
vn 0.576562 0.243498 -0.779926
vn 0.576562 0.243498 -0.779926
vn 0.055754 0.228386 -0.971973
vn 0.055754 0.228386 -0.971973
vn 0.055754 0.228386 -0.971973
vn 0.055754 0.228386 -0.971973
vn -0.579027 0.214328 -0.786633
vn -0.579027 0.214328 -0.786633
vn -0.579027 0.214328 -0.786633
vn -0.579027 0.214328 -0.786633
vn -0.933952 0.216325 -0.284496
vn -0.933952 0.216325 -0.284496
vn -0.933952 0.216325 -0.284496
vn -0.933952 0.216325 -0.284496
vn -0.916434 0.228720 0.328385
vn -0.916434 0.228720 0.328385
vn -0.916434 0.228720 0.328385
vn -0.916434 0.228720 0.328385
vn -0.550013 0.247663 0.797589
vn -0.550013 0.247663 0.797589
vn -0.550013 0.247663 0.797589
vn -0.550013 0.247663 0.797589
vn 0.067313 0.275733 0.958874
vn 0.067313 0.275733 0.958874
vn 0.067313 0.275733 0.958874
vn 0.067313 0.275733 0.958874
vn 0.541566 0.286990 0.790154
vn 0.541566 0.286990 0.790154
vn 0.541566 0.286990 0.790154
vn 0.541566 0.286990 0.790154
vn 0.906815 0.263426 0.329081
vn 0.906815 0.263426 0.329080
vn 0.906815 0.263426 0.329080
vn 0.906815 0.263426 0.329080
vn 0.927902 0.247247 -0.279045
vn 0.927902 0.247247 -0.279045
vn 0.927902 0.247247 -0.279045
vn 0.927902 0.247247 -0.279045
vn 0.535554 0.805933 0.252298
vn 0.535554 0.805933 0.252298
vn 0.535554 0.805933 0.252298
vn 0.535554 0.805933 0.252298
vn -0.000002 0.954331 0.298752
vn -0.000002 0.954331 0.298752
vn -0.000002 0.954331 0.298752
vn -0.000002 0.954331 0.298752
vn 0.000002 0.954331 0.298752
vn 0.000002 0.954331 0.298752
vn 0.000002 0.954331 0.298752
vn 0.000002 0.954331 0.298752
vn -0.000001 0.954331 0.298752
vn -0.000001 0.954331 0.298752
vn -0.000001 0.954331 0.298752
vn -0.000001 0.954331 0.298752
vn 0.000001 0.954332 0.298749
vn 0.000001 0.954332 0.298749
vn 0.000001 0.954332 0.298749
vn 0.000001 0.954332 0.298749
vn 0.000000 0.954331 0.298752
vn 0.000000 0.954331 0.298752
vn 0.000000 0.954331 0.298752
vn 0.000000 0.954331 0.298752
vn 0.535554 0.805933 0.252297
vn 0.535554 0.805933 0.252297
vn 0.535554 0.805933 0.252297
vn 0.535554 0.805933 0.252297
vn 0.000000 0.954332 0.298749
vn 0.000000 0.954332 0.298749
vn 0.000000 0.954332 0.298749
vn 0.000000 0.954332 0.298749
s off
g Large_Crayon_2
usemtl lambert5SG
f 1/1/1 2/54/2 12/2/3 11/3/4
f 2/54/5 3/55/6 13/78/7 12/2/8
f 3/4/9 4/6/10 14/7/11 13/5/12
f 4/6/13 5/8/14 15/9/15 14/7/16
f 5/8/17 6/10/18 16/11/19 15/9/20
f 6/10/21 7/12/22 17/13/23 16/11/24
f 7/12/25 8/14/26 18/15/27 17/13/28
f 8/14/29 9/16/30 19/17/31 18/15/32
f 9/16/33 10/18/34 20/19/35 19/17/36
f 10/18/37 1/1/38 11/3/39 20/19/40
f 2/20/41 1/21/42 21/22/43
f 3/23/44 2/20/45 21/22/46
f 4/24/47 3/23/48 21/22/49
f 5/25/50 4/24/51 21/22/52
f 6/26/53 5/25/54 21/22/55
f 7/27/56 6/26/57 21/22/58
f 8/28/59 7/27/60 21/22/61
f 9/29/62 8/28/63 21/22/64
f 10/30/65 9/29/66 21/22/67
f 1/21/68 10/30/69 21/22/70
f 11/31/71 12/32/72 23/33/73 22/34/74
f 12/32/75 13/35/76 24/36/77 23/33/78
f 13/35/79 14/37/80 25/38/81 24/36/82
f 14/37/83 15/39/84 26/40/85 25/38/86
f 15/39/87 16/41/88 27/42/89 26/40/90
f 16/41/91 17/43/92 28/44/93 27/42/94
f 17/43/95 18/80/96 29/76/97 28/44/98
f 18/45/99 19/47/100 30/48/101 29/46/102
f 19/47/103 20/49/104 31/50/105 30/48/106
f 20/49/107 11/31/108 22/34/109 31/50/110
f 32/53/111 22/34/112 23/33/113 33/56/114
f 33/56/115 23/33/116 24/36/117 34/58/118
f 24/36/119 25/38/120 35/60/121 34/58/122
f 25/38/123 26/40/124 36/62/125 35/60/126
f 26/40/127 27/42/128 37/57/129 36/62/130
f 27/42/131 28/44/132 38/75/133 37/57/134
f 38/75/135 28/44/136 29/76/137 39/61/138
f 39/59/139 29/46/140 30/48/141 40/79/142
f 40/79/143 30/48/144 31/50/145 41/77/146
f 41/77/147 31/50/148 22/34/149 32/53/150
f 43/51/151 42/52/152 33/63/153 34/64/154
f 44/65/155 43/51/156 34/64/157 35/66/158
f 42/52/159 45/67/160 32/68/161 33/63/162
f 36/69/163 37/70/164 44/65/165 35/66/166
f 32/68/167 45/67/168 40/71/169 41/72/170
f 43/51/171 44/65/172 37/70/173 38/73/174
f 42/52/175 43/51/176 38/73/177 39/74/178
f 45/67/179 42/52/180 39/74/181 40/71/182
