# This file uses centimeters as units for non-parametric coordinates.

mtllib JC_MedCrayon_R.mtl
g default
v 36.180347 0.000000 -11.755678
v 26.180347 0.000000 -19.021151
v 13.819659 0.000000 -19.021151
v 3.819659 0.000000 -11.755678
v 0.000002 0.000000 -0.000001
v 3.819659 0.000000 11.755674
v 13.819659 0.000000 19.021147
v 26.180347 0.000000 19.021147
v 36.180347 0.000000 11.755674
v 40.000000 0.000000 -0.000001
v 36.180347 160.717407 -11.755678
v 26.180347 160.717407 -19.021151
v 13.819659 160.717407 -19.021151
v 3.819659 160.717407 -11.755678
v 0.000002 160.717407 -0.000001
v 3.819659 160.717407 11.755674
v 13.819659 160.717407 19.021147
v 26.180347 160.717407 19.021147
v 36.180347 160.717407 11.755674
v 40.000000 160.717407 -0.000001
v 20.000004 0.000000 -0.000001
v 32.502903 160.717407 -9.083864
v 24.775700 160.717407 -14.698030
v 15.224307 160.717407 -14.698030
v 7.497103 160.717407 -9.083864
v 4.545519 160.717407 -0.000001
v 7.497103 160.717407 9.083860
v 15.224307 160.717407 14.698027
v 24.775700 160.717407 14.698027
v 32.502903 160.717407 9.083860
v 35.454487 160.717407 -0.000001
v 24.910374 209.221771 -2.977031
v 21.875603 210.436829 -4.816949
v 18.124401 210.436829 -4.816949
v 15.089629 209.221771 -2.977031
v 13.930433 207.255829 -0.000001
v 15.089629 205.289886 2.977034
v 18.124401 204.074890 4.816951
v 21.875603 204.074890 4.816951
v 24.910374 205.289886 2.977034
v 26.069572 207.255829 -0.000001
v 21.875603 207.255829 0.000004
v 18.124401 207.255829 0.000003
v 15.089629 207.255829 0.000001
v 24.910374 207.255829 0.000001
vt 0.402539 0.172834
vt 0.445958 0.737376
vt 0.402539 0.737376
vt 0.055190 0.172834
vt 0.055190 0.737376
vt 0.098609 0.172834
vt 0.098609 0.737376
vt 0.142027 0.172834
vt 0.142027 0.737376
vt 0.185446 0.172834
vt 0.185446 0.737376
vt 0.228865 0.172834
vt 0.228865 0.737376
vt 0.272283 0.172834
vt 0.272283 0.737376
vt 0.315702 0.172834
vt 0.315702 0.737376
vt 0.359120 0.172834
vt 0.359120 0.737376
vt 0.317413 0.013435
vt 0.356587 0.041897
vt 0.293202 0.087949
vt 0.268991 0.013435
vt 0.229817 0.041897
vt 0.214854 0.087949
vt 0.229817 0.134000
vt 0.268991 0.162462
vt 0.317413 0.162462
vt 0.356587 0.134000
vt 0.371551 0.087949
vt 0.197561 0.768496
vt 0.160791 0.786308
vt 0.169588 0.801834
vt 0.204318 0.784966
vt 0.122847 0.811342
vt 0.137236 0.822848
vt 0.160791 0.786308
vt 0.169588 0.801834
vt 0.197561 0.768496
vt 0.204318 0.784966
vt 0.236237 0.755312
vt 0.240834 0.772488
vt 0.276432 0.747274
vt 0.278645 0.764923
vt 0.321839 0.745146
vt 0.317110 0.762835
vt 0.276432 0.747275
vt 0.278645 0.764924
vt 0.236237 0.755312
vt 0.240834 0.772488
vt 0.294084 0.976023
vt 0.307788 0.970237
vt 0.277381 0.961692
vt 0.445958 0.172834
vt 0.489376 0.172834
vt 0.269321 0.974452
vt 0.287177 0.950224
vt 0.260115 0.986434
vt 0.122848 0.811343
vt 0.269321 0.974452
vt 0.315376 0.942054
vt 0.277381 0.961693
vt 0.315601 0.988740
vt 0.301897 0.994526
vt 0.282998 0.980703
vt 0.287826 0.992139
vt 0.318875 0.965556
vt 0.323703 0.976991
vt 0.278763 0.982493
vt 0.278169 0.969269
vt 0.314046 0.954120
vt 0.323110 0.963768
vt 0.286272 0.957520
vt 0.299976 0.951734
vt 0.260115 0.986434
vt 0.137236 0.822848
vt 0.287177 0.950224
vt 0.489376 0.737376
vt 0.300351 0.942913
vt 0.321839 0.745145
vt 0.315376 0.942054
vt 0.317110 0.762834
vt 0.300351 0.942913
vn 0.587788 0.000000 -0.809015
vn 0.587788 0.000000 -0.809015
vn 0.587788 0.000000 -0.809015
vn 0.587788 0.000000 -0.809015
vn 0.000000 0.000000 -1.000000
vn 0.000000 0.000000 -1.000000
vn 0.000000 0.000000 -1.000000
vn 0.000000 0.000000 -1.000000
vn -0.587788 0.000000 -0.809015
vn -0.587788 0.000000 -0.809015
vn -0.587788 0.000000 -0.809015
vn -0.587788 0.000000 -0.809015
vn -0.951056 0.000000 -0.309017
vn -0.951056 0.000000 -0.309017
vn -0.951056 0.000000 -0.309017
vn -0.951056 0.000000 -0.309017
vn -0.951056 0.000000 0.309017
vn -0.951056 0.000000 0.309017
vn -0.951056 0.000000 0.309017
vn -0.951056 0.000000 0.309017
vn -0.587788 0.000000 0.809015
vn -0.587788 0.000000 0.809015
vn -0.587788 0.000000 0.809015
vn -0.587788 0.000000 0.809015
vn 0.000000 0.000000 1.000000
vn 0.000000 0.000000 1.000000
vn 0.000000 0.000000 1.000000
vn 0.000000 0.000000 1.000000
vn 0.587788 0.000000 0.809015
vn 0.587788 0.000000 0.809015
vn 0.587788 0.000000 0.809015
vn 0.587788 0.000000 0.809015
vn 0.951056 0.000000 0.309017
vn 0.951056 0.000000 0.309017
vn 0.951056 0.000000 0.309017
vn 0.951056 0.000000 0.309017
vn 0.951056 0.000000 -0.309017
vn 0.951056 0.000000 -0.309017
vn 0.951056 0.000000 -0.309017
vn 0.951056 0.000000 -0.309017
vn 0.000000 -1.000000 0.000000
vn 0.000000 -1.000000 0.000000
vn 0.000000 -1.000000 0.000000
vn 0.000000 -1.000000 0.000000
vn 0.000000 -1.000000 0.000000
vn 0.000000 -1.000000 0.000000
vn 0.000000 -1.000000 0.000000
vn 0.000000 -1.000000 0.000000
vn 0.000000 -1.000000 0.000000
vn 0.000000 -1.000000 0.000000
vn 0.000000 -1.000000 0.000000
vn 0.000000 -1.000000 0.000000
vn 0.000000 -1.000000 0.000000
vn 0.000000 -1.000000 0.000000
vn 0.000000 -1.000000 0.000000
vn 0.000000 -1.000000 0.000000
vn 0.000000 -1.000000 0.000000
vn 0.000000 -1.000000 0.000000
vn 0.000000 -1.000000 0.000000
vn 0.000000 -1.000000 0.000000
vn 0.000000 -1.000000 0.000000
vn 0.000000 -1.000000 0.000000
vn 0.000000 -1.000000 0.000000
vn 0.000000 -1.000000 0.000000
vn 0.000000 -1.000000 0.000000
vn 0.000000 -1.000000 0.000000
vn 0.000000 -1.000000 0.000000
vn 0.000000 -1.000000 0.000000
vn 0.000000 -1.000000 0.000000
vn 0.000000 -1.000000 0.000000
vn 0.000000 1.000000 -0.000001
vn 0.000000 1.000000 -0.000001
vn 0.000000 1.000000 -0.000001
vn 0.000000 1.000000 -0.000001
vn 0.000000 1.000000 0.000000
vn 0.000000 1.000000 0.000000
vn 0.000000 1.000000 0.000000
vn 0.000000 1.000000 0.000000
vn 0.000000 1.000000 -0.000001
vn 0.000000 1.000000 -0.000001
vn 0.000000 1.000000 -0.000001
vn 0.000000 1.000000 -0.000001
vn 0.000000 1.000000 -0.000001
vn 0.000000 1.000000 -0.000001
vn 0.000000 1.000000 -0.000001
vn 0.000000 1.000000 -0.000001
vn 0.000000 1.000000 0.000000
vn 0.000000 1.000000 0.000000
vn 0.000000 1.000000 0.000000
vn 0.000000 1.000000 0.000000
vn 0.000000 1.000000 0.000001
vn 0.000000 1.000000 0.000001
vn 0.000000 1.000000 0.000001
vn 0.000000 1.000000 0.000001
vn 0.000000 1.000000 0.000000
vn 0.000000 1.000000 0.000000
vn 0.000000 1.000000 0.000000
vn 0.000000 1.000000 0.000000
vn 0.000000 1.000000 0.000001
vn 0.000000 1.000000 0.000001
vn 0.000000 1.000000 0.000001
vn 0.000000 1.000000 0.000001
vn 0.000000 1.000000 0.000000
vn 0.000000 1.000000 0.000000
vn 0.000000 1.000000 0.000000
vn 0.000000 1.000000 0.000000
vn 0.000000 1.000000 0.000001
vn 0.000000 1.000000 0.000001
vn 0.000000 1.000000 0.000001
vn 0.000000 1.000000 0.000001
vn 0.573392 0.190934 -0.796722
vn 0.573392 0.190934 -0.796722
vn 0.573392 0.190934 -0.796722
vn 0.573392 0.190934 -0.796722
vn 0.000000 0.194925 -0.980818
vn 0.000000 0.194925 -0.980818
vn 0.000000 0.194925 -0.980818
vn 0.000000 0.194925 -0.980818
vn -0.573392 0.190934 -0.796722
vn -0.573392 0.190934 -0.796722
vn -0.573392 0.190934 -0.796722
vn -0.573392 0.190934 -0.796722
vn -0.938834 0.186312 -0.289619
vn -0.938834 0.186312 -0.289619
vn -0.938834 0.186312 -0.289619
vn -0.938834 0.186312 -0.289619
vn -0.918403 0.194237 0.344685
vn -0.918403 0.194237 0.344685
vn -0.918403 0.194237 0.344685
vn -0.918403 0.194237 0.344685
vn -0.540057 0.212515 0.814356
vn -0.540057 0.212515 0.814356
vn -0.540057 0.212515 0.814356
vn -0.540057 0.212515 0.814356
vn 0.000000 0.222201 0.975001
vn 0.000000 0.222201 0.975001
vn 0.000000 0.222201 0.975001
vn 0.000000 0.222201 0.975001
vn 0.540056 0.212515 0.814357
vn 0.540056 0.212515 0.814357
vn 0.540056 0.212515 0.814357
vn 0.540056 0.212515 0.814357
vn 0.918403 0.194237 0.344685
vn 0.918403 0.194237 0.344685
vn 0.918403 0.194237 0.344685
vn 0.918403 0.194237 0.344685
vn 0.938834 0.186312 -0.289618
vn 0.938834 0.186312 -0.289618
vn 0.938834 0.186312 -0.289618
vn 0.938834 0.186312 -0.289618
vn 0.000000 0.834464 0.551062
vn 0.000000 0.834464 0.551062
vn 0.000000 0.834464 0.551062
vn 0.000000 0.834464 0.551062
vn -0.000004 0.834467 0.551058
vn -0.000004 0.834467 0.551058
vn -0.000004 0.834467 0.551058
vn -0.000004 0.834467 0.551058
vn 0.000004 0.834467 0.551058
vn 0.000004 0.834467 0.551058
vn 0.000004 0.834467 0.551058
vn 0.000004 0.834467 0.551058
vn -0.000001 0.834469 0.551055
vn -0.000001 0.834469 0.551055
vn -0.000001 0.834469 0.551055
vn -0.000001 0.834469 0.551055
vn 0.000001 0.834468 0.551057
vn 0.000001 0.834468 0.551057
vn 0.000001 0.834468 0.551057
vn 0.000001 0.834468 0.551057
vn -0.000003 0.834469 0.551055
vn -0.000003 0.834469 0.551055
vn -0.000003 0.834469 0.551055
vn -0.000003 0.834469 0.551055
vn 0.000000 0.834470 0.551053
vn 0.000000 0.834470 0.551053
vn 0.000000 0.834470 0.551053
vn 0.000000 0.834470 0.551053
vn 0.000003 0.834469 0.551056
vn 0.000003 0.834468 0.551056
vn 0.000003 0.834468 0.551056
vn 0.000003 0.834469 0.551056
s off
g Medium_Crayon_1
usemtl lambert5SG
f 1/1/1 2/54/2 12/2/3 11/3/4
f 2/54/5 3/55/6 13/78/7 12/2/8
f 3/4/9 4/6/10 14/7/11 13/5/12
f 4/6/13 5/8/14 15/9/15 14/7/16
f 5/8/17 6/10/18 16/11/19 15/9/20
f 6/10/21 7/12/22 17/13/23 16/11/24
f 7/12/25 8/14/26 18/15/27 17/13/28
f 8/14/29 9/16/30 19/17/31 18/15/32
f 9/16/33 10/18/34 20/19/35 19/17/36
f 10/18/37 1/1/38 11/3/39 20/19/40
f 2/20/41 1/21/42 21/22/43
f 3/23/44 2/20/45 21/22/46
f 4/24/47 3/23/48 21/22/49
f 5/25/50 4/24/51 21/22/52
f 6/26/53 5/25/54 21/22/55
f 7/27/56 6/26/57 21/22/58
f 8/28/59 7/27/60 21/22/61
f 9/29/62 8/28/63 21/22/64
f 10/30/65 9/29/66 21/22/67
f 1/21/68 10/30/69 21/22/70
f 11/31/71 12/32/72 23/33/73 22/34/74
f 12/32/75 13/59/76 24/76/77 23/33/78
f 13/35/79 14/37/80 25/38/81 24/36/82
f 14/37/83 15/39/84 26/40/85 25/38/86
f 15/39/87 16/41/88 27/42/89 26/40/90
f 16/41/91 17/43/92 28/44/93 27/42/94
f 17/43/95 18/80/96 29/82/97 28/44/98
f 18/45/99 19/47/100 30/48/101 29/46/102
f 19/47/103 20/49/104 31/50/105 30/48/106
f 20/49/107 11/31/108 22/34/109 31/50/110
f 32/53/111 22/34/112 23/33/113 33/56/114
f 33/56/115 23/33/116 24/76/117 34/75/118
f 24/36/119 25/38/120 35/60/121 34/58/122
f 25/38/123 26/40/124 36/62/125 35/60/126
f 26/40/127 27/42/128 37/57/129 36/62/130
f 27/42/131 28/44/132 38/83/133 37/57/134
f 38/83/135 28/44/136 29/82/137 39/61/138
f 39/81/139 29/46/140 30/48/141 40/79/142
f 40/79/143 30/48/144 31/50/145 41/77/146
f 41/77/147 31/50/148 22/34/149 32/53/150
f 43/51/151 42/52/152 33/63/153 34/64/154
f 44/65/155 43/51/156 34/64/157 35/66/158
f 42/52/159 45/67/160 32/68/161 33/63/162
f 36/69/163 37/70/164 44/65/165 35/66/166
f 32/68/167 45/67/168 40/71/169 41/72/170
f 43/51/171 44/65/172 37/70/173 38/73/174
f 42/52/175 43/51/176 38/73/177 39/74/178
f 45/67/179 42/52/180 39/74/181 40/71/182
