# This file uses centimeters as units for non-parametric coordinates.

mtllib JC_SmallLego_G.mtl
g default
v 64.000000 128.000000 0.000000
v 64.000000 128.000000 64.000000
v 64.000000 128.000000 32.000000
v 0.000000 128.000000 64.000000
v 0.000000 128.000000 0.000000
v 18.055420 128.000000 18.055481
v 45.944580 128.000000 18.055481
v 18.055420 128.000000 45.944519
v 45.944580 128.000000 45.944519
v 0.000000 128.000000 32.000000
v 11.815186 128.000000 32.000000
v 52.184814 128.000000 32.000000
v 32.000000 128.000000 64.000000
v 32.000000 128.000000 0.000000
v 32.000000 128.000000 11.815155
v 32.000000 128.000000 52.184845
v 32.000000 142.095459 11.815155
v 45.944580 142.095459 18.055481
v 52.184814 142.095459 32.000000
v 32.000000 142.095459 52.184845
v 45.944580 142.095459 45.944519
v 18.055420 142.095459 18.055481
v 11.815186 142.095459 32.000000
v 18.055420 142.095459 45.944519
v 32.000000 142.095459 18.790405
v 41.125732 142.095459 22.874268
v 45.209595 142.095459 32.000000
v 32.000000 142.095459 45.209595
v 41.125732 142.095459 41.125732
v 22.874268 142.095459 22.874268
v 18.790405 142.095459 32.000000
v 22.874268 142.095459 41.125732
v 32.000000 131.424438 18.790405
v 41.125732 131.424438 22.874268
v 32.000000 131.424438 32.000000
v 45.209595 131.424438 32.000000
v 32.000000 131.424438 45.209595
v 41.125732 131.424438 41.125732
v 22.874268 131.424438 22.874268
v 18.790405 131.424438 32.000000
v 22.874268 131.424438 41.125732
v 64.000000 0.000000 64.000000
v 32.000000 0.000000 64.000000
v 0.000000 0.000000 64.000000
v 0.000000 0.000000 32.000000
v 0.000000 0.000000 0.000000
v 64.000000 0.000000 0.000000
v 64.000000 0.000000 32.000000
v 32.000000 0.000000 0.000000
vt 0.759554 0.620152
vt 0.754982 0.610013
vt 0.769766 0.610112
vt 0.769680 0.624689
vt 0.759575 0.599958
vt 0.769857 0.595510
vt 0.784524 0.610206
vt 0.779892 0.620247
vt 0.780066 0.600064
vt 0.724760 0.654772
vt 0.724759 0.609858
vt 0.741342 0.609858
vt 0.750101 0.629430
vt 0.724759 0.564944
vt 0.750101 0.590286
vt 0.769673 0.654771
vt 0.769673 0.638188
vt 0.769673 0.564944
vt 0.769673 0.581527
vt 0.814586 0.654771
vt 0.789245 0.629430
vt 0.814586 0.564944
vt 0.789245 0.590286
vt 0.798003 0.609858
vt 0.814586 0.609858
vt 0.728995 0.727998
vt 0.719848 0.692941
vt 0.737036 0.700867
vt 0.745940 0.719845
vt 0.728170 0.674080
vt 0.745475 0.681738
vt 0.758090 0.746131
vt 0.738278 0.737956
vt 0.994240 0.699685
vt 0.765394 0.728149
vt 0.792466 0.737342
vt 0.784575 0.719523
vt 0.810113 0.708308
vt 0.801791 0.727091
vt 0.810185 0.692217
vt 0.792935 0.700477
vt 0.801327 0.673433
vt 0.784143 0.681483
vt 0.737692 0.663780
vt 0.772197 0.655318
vt 0.764787 0.673174
vt 0.994240 0.834425
vt 0.791717 0.663492
vt 0.814586 0.924252
vt 0.994241 0.924252
vt 0.994240 0.789512
vt 0.746786 0.700745
vt 0.752642 0.713124
vt 0.814586 0.699685
vt 0.752245 0.688314
vt 0.757149 0.655358
vt 0.765336 0.718601
vt 0.814586 0.834425
vt 0.764814 0.682741
vt 0.773048 0.745846
vt 0.777812 0.713016
vt 0.994240 0.654771
vt 0.777447 0.688182
vt 0.719794 0.709309
vt 0.783229 0.700590
vt 0.749093 0.625028
vt 0.744656 0.604980
vt 0.994240 0.744598
vt 0.744446 0.615091
vt 0.749265 0.595174
vt 0.814586 0.744598
vt 0.765049 0.635549
vt 0.754830 0.631125
vt 0.774124 0.635687
vt 0.794942 0.605342
vt 0.784525 0.631378
vt 0.994241 0.879339
vt 0.794986 0.615384
vt 0.790160 0.625214
vt 0.765369 0.584417
vt 0.994240 0.609858
vt 0.790559 0.595430
vt 0.994241 0.564944
vt 0.754931 0.588764
vt 0.774571 0.584576
vt 0.814586 0.789512
vt 0.814586 0.879339
vt 0.784793 0.589053
vn 0.000000 1.000000 -0.000001
vn 0.000000 1.000000 -0.000001
vn 0.000000 1.000000 -0.000001
vn 0.000000 1.000000 -0.000001
vn 0.000000 1.000000 0.000000
vn 0.000000 1.000000 0.000000
vn 0.000000 1.000000 0.000000
vn 0.000000 1.000000 0.000000
vn 0.000000 1.000000 0.000000
vn 0.000000 1.000000 0.000000
vn 0.000000 1.000000 0.000000
vn 0.000000 1.000000 0.000000
vn 0.000000 1.000000 0.000000
vn 0.000000 1.000000 0.000000
vn 0.000000 1.000000 0.000000
vn 0.000000 1.000000 0.000000
vn 0.000000 1.000000 0.000000
vn 0.000000 1.000000 0.000000
vn 0.000000 1.000000 0.000000
vn 0.000000 1.000000 0.000000
vn 0.000000 1.000000 0.000000
vn 0.000000 1.000000 0.000000
vn 0.000000 1.000000 0.000000
vn 0.000000 1.000000 0.000000
vn 0.000000 1.000000 0.000000
vn 0.000000 1.000000 0.000000
vn 0.000000 1.000000 0.000000
vn 0.000000 1.000000 0.000001
vn 0.000000 1.000000 0.000000
vn 0.000000 1.000000 0.000000
vn 0.000000 1.000000 0.000000
vn 0.000000 1.000000 0.000000
vn 0.000000 1.000000 0.000000
vn 0.000000 1.000000 0.000000
vn 0.000000 1.000000 0.000000
vn 0.000000 1.000000 0.000000
vn 0.000000 1.000000 0.000000
vn 0.000000 1.000000 -0.000001
vn 0.000000 1.000000 -0.000001
vn 0.000000 1.000000 -0.000001
vn 0.000000 1.000000 0.000000
vn 0.000000 1.000000 0.000000
vn 0.000000 1.000000 -0.000001
vn 0.000000 1.000000 0.000000
vn 0.000000 1.000000 0.000000
vn 0.000000 1.000000 0.000000
vn 0.000000 1.000000 0.000000
vn 0.000000 1.000000 0.000000
vn 0.408473 0.000000 -0.912770
vn 0.408473 0.000000 -0.912770
vn 0.408473 0.000000 -0.912770
vn 0.408473 0.000000 -0.912770
vn 0.912772 0.000000 -0.408470
vn 0.912772 0.000000 -0.408470
vn 0.912772 0.000000 -0.408470
vn 0.912772 0.000000 -0.408470
vn 0.408473 0.000000 0.912770
vn 0.408473 0.000000 0.912770
vn 0.408473 0.000000 0.912770
vn 0.408473 0.000000 0.912770
vn 0.912772 0.000000 0.408470
vn 0.912772 0.000000 0.408470
vn 0.912772 0.000000 0.408470
vn 0.912772 0.000000 0.408470
vn -0.408473 0.000000 -0.912770
vn -0.408473 0.000000 -0.912770
vn -0.408473 0.000000 -0.912770
vn -0.408473 0.000000 -0.912770
vn -0.912772 0.000000 -0.408470
vn -0.912772 0.000000 -0.408470
vn -0.912772 0.000000 -0.408470
vn -0.912772 0.000000 -0.408470
vn -0.912772 0.000000 0.408470
vn -0.912772 0.000000 0.408470
vn -0.912772 0.000000 0.408470
vn -0.912772 0.000000 0.408470
vn -0.408473 0.000000 0.912770
vn -0.408473 0.000000 0.912770
vn -0.408473 0.000000 0.912770
vn -0.408473 0.000000 0.912770
vn 0.000000 1.000000 0.000001
vn 0.000000 1.000000 0.000001
vn 0.000000 1.000000 0.000001
vn 0.000000 1.000000 0.000001
vn 0.000000 1.000000 0.000000
vn 0.000000 1.000000 0.000000
vn 0.000000 1.000000 0.000000
vn 0.000000 1.000000 0.000000
vn 0.000000 1.000000 0.000000
vn 0.000000 1.000000 0.000000
vn 0.000000 1.000000 0.000000
vn 0.000000 1.000000 0.000000
vn 0.000000 1.000000 -0.000001
vn 0.000000 1.000000 -0.000001
vn 0.000000 1.000000 -0.000001
vn 0.000000 1.000000 -0.000001
vn 0.000000 1.000000 0.000000
vn 0.000000 1.000000 0.000000
vn 0.000000 1.000000 0.000000
vn 0.000000 1.000000 0.000000
vn 0.000000 1.000000 0.000001
vn 0.000000 1.000000 0.000001
vn 0.000000 1.000000 0.000001
vn 0.000000 1.000000 0.000001
vn 0.000000 1.000000 0.000000
vn 0.000000 1.000000 0.000000
vn 0.000000 1.000000 0.000000
vn 0.000000 1.000000 0.000000
vn 0.000000 1.000000 -0.000001
vn 0.000000 1.000000 -0.000001
vn 0.000000 1.000000 -0.000001
vn 0.000000 1.000000 -0.000001
vn -0.408474 0.000000 0.912770
vn -0.408474 0.000000 0.912770
vn -0.408474 0.000000 0.912770
vn -0.408474 0.000000 0.912770
vn -0.912770 0.000000 0.408474
vn -0.912770 0.000000 0.408474
vn -0.912770 0.000000 0.408474
vn -0.912770 0.000000 0.408474
vn -0.408474 0.000000 -0.912770
vn -0.408474 0.000000 -0.912770
vn -0.408474 0.000000 -0.912770
vn -0.408474 0.000000 -0.912770
vn -0.912770 0.000000 -0.408474
vn -0.912770 0.000000 -0.408474
vn -0.912770 0.000000 -0.408474
vn -0.912770 0.000000 -0.408474
vn 0.408474 0.000000 0.912770
vn 0.408474 0.000000 0.912770
vn 0.408474 0.000000 0.912770
vn 0.408474 0.000000 0.912770
vn 0.912770 0.000000 0.408474
vn 0.912770 0.000000 0.408474
vn 0.912770 0.000000 0.408474
vn 0.912770 0.000000 0.408474
vn 0.912770 0.000000 -0.408474
vn 0.912770 0.000000 -0.408474
vn 0.912770 0.000000 -0.408474
vn 0.912770 0.000000 -0.408474
vn 0.408474 0.000000 -0.912770
vn 0.408474 0.000000 -0.912770
vn 0.408474 0.000000 -0.912770
vn 0.408474 0.000000 -0.912770
vn 0.000000 0.000000 1.000000
vn 0.000000 0.000000 1.000000
vn 0.000000 0.000000 1.000000
vn 0.000000 0.000000 1.000000
vn 0.000000 0.000000 1.000000
vn 0.000000 0.000000 1.000000
vn 0.000000 0.000000 1.000000
vn 0.000000 0.000000 1.000000
vn -1.000000 0.000000 0.000000
vn -1.000000 0.000000 0.000000
vn -1.000000 0.000000 0.000000
vn -1.000000 0.000000 0.000000
vn -1.000000 0.000000 0.000000
vn -1.000000 0.000000 0.000000
vn -1.000000 0.000000 0.000000
vn -1.000000 0.000000 0.000000
vn 1.000000 0.000000 0.000000
vn 1.000000 0.000000 0.000000
vn 1.000000 0.000000 0.000000
vn 1.000000 0.000000 0.000000
vn 1.000000 0.000000 0.000000
vn 1.000000 0.000000 0.000000
vn 1.000000 0.000000 0.000000
vn 1.000000 0.000000 0.000000
vn 0.000000 0.000000 -1.000000
vn 0.000000 0.000000 -1.000000
vn 0.000000 0.000000 -1.000000
vn 0.000000 0.000000 -1.000000
vn 0.000000 0.000000 -1.000000
vn 0.000000 0.000000 -1.000000
vn 0.000000 0.000000 -1.000000
vn 0.000000 0.000000 -1.000000
s off
g Large_Lego_3
usemtl Legos_UV_3_lambert3SG
f 34/1/1 33/2/2 35/3/3 36/4/4
f 1/10/5 14/11/6 15/12/7 7/13/8
f 5/14/9 10/18/10 11/19/11 6/15/12
f 16/24/13 13/25/14 2/20/15 9/21/16
f 3/16/17 1/10/18 7/13/19 12/17/20
f 10/18/21 4/22/22 8/23/23 11/19/24
f 36/4/25 35/3/26 37/7/27 38/8/28
f 2/20/29 3/16/30 12/17/31 9/21/32
f 15/12/33 14/11/34 5/14/35 6/15/36
f 35/3/37 33/2/38 39/5/39 40/6/40
f 37/7/41 35/3/42 40/6/43 41/9/44
f 4/22/45 13/25/46 16/24/47 8/23/48
f 7/26/49 15/64/50 17/28/51 18/29/52
f 12/32/53 7/33/54 18/29/55 19/35/56
f 16/38/57 9/39/58 21/37/59 20/41/60
f 9/36/61 12/60/62 19/35/63 21/37/64
f 15/27/65 6/30/66 22/31/67 17/28/68
f 6/44/69 11/56/70 23/46/71 22/31/72
f 11/45/73 8/48/74 24/43/75 23/46/76
f 8/42/77 16/40/78 20/41/79 24/43/80
f 18/29/81 17/28/82 25/52/83 26/53/84
f 19/35/85 18/29/86 26/53/87 27/57/88
f 20/41/89 21/37/90 29/61/91 28/65/92
f 21/37/93 19/35/94 27/57/95 29/61/96
f 17/28/97 22/31/98 30/55/99 25/52/100
f 22/31/101 23/46/102 31/59/103 30/55/104
f 23/46/105 24/43/106 32/63/107 31/59/108
f 24/43/109 20/41/110 28/65/111 32/63/112
f 26/66/113 25/69/114 33/2/115 34/1/116
f 27/72/117 26/73/118 34/1/119 36/4/120
f 28/78/121 29/79/122 38/8/123 37/7/124
f 29/76/125 27/74/126 36/4/127 38/8/128
f 25/67/129 30/70/130 39/5/131 33/2/132
f 30/84/133 31/80/134 40/6/135 39/5/136
f 31/85/137 32/88/138 41/9/139 40/6/140
f 32/82/141 28/75/142 37/7/143 41/9/144
f 43/81/145 42/62/146 2/20/147 13/25/148
f 44/83/149 43/81/150 13/25/151 4/22/152
f 10/87/153 45/77/154 44/50/155 4/49/156
f 5/58/157 46/47/158 45/77/159 10/87/160
f 3/54/161 2/20/162 42/62/163 48/34/164
f 1/71/165 3/54/166 48/34/167 47/68/168
f 5/58/169 14/86/170 49/51/171 46/47/172
f 14/86/173 1/71/174 47/68/175 49/51/176
