# This file uses centimeters as units for non-parametric coordinates.

mtllib cardboard_wall_1_x_1.mtl
g default
v 0.000000 123.328728 -123.328728
v 0.000000 123.328728 0.000000
v 0.000000 -0.000000 -123.328728
v 0.000000 -0.000000 0.000000
vt 0.505989 0.347316
vt 0.656305 0.347316
vt 0.505989 0.497632
vt 0.656305 0.497632
vn 1.000000 0.000000 0.000000
vn 1.000000 0.000000 0.000000
vn 1.000000 0.000000 0.000000
vn 1.000000 0.000000 0.000000
s off
g cardboard_wall_1_x_1
usemtl lambert2SG
f 4/4/1 3/3/2 1/1/3 2/2/4
