# This file uses centimeters as units for non-parametric coordinates.

mtllib cardboard_wall_window_2_x_1.mtl
g default
v -0.000000 123.328728 0.000000
v -0.000000 99.325157 0.000000
v 0.000000 74.217964 0.000000
v 0.000000 74.217964 -49.040840
v -0.000000 99.325157 -49.040840
v -0.000000 123.328728 -49.040840
v 0.000000 74.217964 -23.793839
v -0.000000 99.325157 -23.793839
v -0.000000 123.328728 -23.793839
v -3.054085 74.217964 -49.040840
v -3.054085 99.325157 -49.040840
v -3.054085 74.217964 -23.793839
v -3.054085 99.325157 -23.793839
v 0.000000 123.328728 -123.328728
v 0.000000 123.328728 -99.325157
v 0.000000 123.328728 -74.217972
v 0.000000 74.287865 -74.217972
v 0.000000 74.287865 -99.325157
v 0.000000 74.287865 -123.328728
v 0.000000 99.534859 -74.217972
v 0.000000 99.534859 -99.325157
v 0.000000 99.534859 -123.328728
v -3.054085 74.287865 -74.217972
v -3.054085 74.287865 -99.325157
v -3.054085 99.534859 -74.217972
v -3.054085 99.534859 -99.325157
v 0.000000 0.000006 -123.328728
v 0.000000 24.003582 -123.328728
v 0.000000 49.110764 -123.328728
v 0.000000 49.110764 -74.287888
v 0.000000 24.003582 -74.287888
v 0.000000 0.000006 -74.287888
v 0.000000 49.110764 -99.534836
v 0.000000 24.003582 -99.534836
v 0.000000 0.000006 -99.534836
v -3.054085 49.110764 -74.287888
v -3.054085 24.003582 -74.287888
v -3.054085 49.110764 -99.534836
v -3.054085 24.003582 -99.534836
v 0.000000 0.000000 0.000000
v 0.000000 0.000000 -24.003571
v 0.000000 0.000000 -49.110748
v 0.000000 49.040863 -49.110748
v 0.000000 49.040863 -24.003571
v 0.000000 49.040863 0.000000
v 0.000000 23.793861 -49.110748
v 0.000000 23.793861 -24.003571
v 0.000000 23.793861 0.000000
v -3.054085 49.040863 -49.110748
v -3.054085 49.040863 -24.003571
v -3.054085 23.793861 -49.110748
v -3.054085 23.793861 -24.003571
v 0.000000 123.328728 -123.328728
v 0.000000 99.325157 -123.328728
v 0.000000 74.217972 -123.328728
v 0.000000 74.217972 -172.369568
v 0.000000 99.325157 -172.369568
v -0.000000 123.328728 -172.369568
v 0.000000 74.217972 -147.122559
v 0.000000 99.325157 -147.122559
v 0.000000 123.328728 -147.122559
v -3.054085 74.217972 -172.369568
v -3.054085 99.325157 -172.369568
v -3.054085 74.217972 -147.122559
v -3.054085 99.325157 -147.122559
v 0.000000 123.328728 -246.657455
v 0.000000 123.328728 -222.653870
v 0.000000 123.328728 -197.546692
v 0.000000 74.287872 -197.546692
v 0.000000 74.287872 -222.653870
v 0.000000 74.287872 -246.657455
v 0.000000 99.534859 -197.546692
v 0.000000 99.534859 -222.653870
v 0.000000 99.534859 -246.657455
v -3.054085 74.287872 -197.546692
v -3.054085 74.287872 -222.653870
v -3.054085 99.534859 -197.546692
v -3.054085 99.534859 -222.653870
v 0.000000 0.000012 -246.657455
v 0.000000 24.003588 -246.657455
v 0.000000 49.110767 -246.657455
v 0.000000 49.110767 -197.616608
v 0.000000 24.003588 -197.616608
v 0.000000 0.000012 -197.616608
v 0.000000 49.110767 -222.863556
v 0.000000 24.003588 -222.863556
v 0.000000 0.000012 -222.863556
v -3.054085 49.110767 -197.616608
v -3.054085 24.003588 -197.616608
v -3.054085 49.110767 -222.863556
v -3.054085 24.003588 -222.863556
v 0.000000 0.000006 -123.328728
v 0.000000 0.000006 -147.332291
v 0.000000 0.000006 -172.439484
v 0.000000 49.040867 -172.439484
v 0.000000 49.040867 -147.332291
v 0.000000 49.040867 -123.328728
v 0.000000 23.793869 -172.439484
v 0.000000 23.793869 -147.332291
v 0.000000 23.793869 -123.328728
v -3.054085 49.040867 -172.439484
v -3.054085 49.040867 -147.332291
v -3.054085 23.793869 -172.439484
v -3.054085 23.793869 -147.332291
vt 0.875948 0.123744
vt 0.876326 0.100509
vt 0.876721 0.076206
vt 0.781907 0.005995
vt 0.507188 0.005147
vt 0.923418 0.124516
vt 0.690110 0.005524
vt 0.598819 0.005179
vt 0.898980 0.124118
vt 0.598788 0.016622
vt 0.690059 0.016967
vt 0.781855 0.017438
vt 0.507170 0.016353
vt 0.899752 0.076580
vt 0.899358 0.100883
vt 0.923796 0.101281
vt 0.924191 0.076978
vt 0.873021 0.006427
vt 0.872983 0.017632
vt 0.996099 0.078215
vt 0.972865 0.077839
vt 0.995702 0.102654
vt 0.995328 0.125687
vt 0.972093 0.125309
vt 0.972468 0.102277
vt 0.948163 0.101880
vt 0.947789 0.124913
vt 0.948561 0.077444
vt 0.781907 0.005995
vt 0.873021 0.006427
vt 0.872983 0.017632
vt 0.781855 0.017438
vt 0.690110 0.005524
vt 0.690059 0.016967
vt 0.507188 0.005147
vt 0.598819 0.005179
vt 0.598788 0.016622
vt 0.507170 0.016353
vt 0.949798 0.005533
vt 0.949421 0.028768
vt 0.974237 0.005932
vt 0.997270 0.006305
vt 0.996892 0.029541
vt 0.973860 0.029167
vt 0.973465 0.053470
vt 0.996496 0.053843
vt 0.949026 0.053072
vt 0.781907 0.005995
vt 0.873021 0.006427
vt 0.872983 0.017632
vt 0.781855 0.017438
vt 0.690110 0.005524
vt 0.690059 0.016967
vt 0.507188 0.005147
vt 0.598819 0.005179
vt 0.598788 0.016622
vt 0.507170 0.016353
vt 0.877119 0.051837
vt 0.900353 0.052212
vt 0.877515 0.027397
vt 0.877889 0.004365
vt 0.901124 0.004741
vt 0.900750 0.027774
vt 0.925055 0.028170
vt 0.925427 0.005138
vt 0.924657 0.052607
vt 0.781907 0.005995
vt 0.873021 0.006427
vt 0.872983 0.017632
vt 0.781855 0.017438
vt 0.690110 0.005524
vt 0.690059 0.016967
vt 0.507188 0.005147
vt 0.598819 0.005179
vt 0.598788 0.016622
vt 0.507170 0.016353
vt 0.947789 0.124913
vt 0.923418 0.124516
vt 0.923796 0.101281
vt 0.948163 0.101880
vt 0.898980 0.124118
vt 0.875948 0.123744
vt 0.876326 0.100509
vt 0.899358 0.100883
vt 0.899752 0.076580
vt 0.876721 0.076206
vt 0.924191 0.076978
vt 0.948561 0.077444
vt 0.781907 0.005995
vt 0.873021 0.006427
vt 0.872983 0.017632
vt 0.781855 0.017438
vt 0.690110 0.005524
vt 0.690059 0.016967
vt 0.507188 0.005147
vt 0.598819 0.005179
vt 0.598788 0.016622
vt 0.507170 0.016353
vt 0.996496 0.053843
vt 0.996099 0.078215
vt 0.972865 0.077839
vt 0.973465 0.053470
vt 0.995702 0.102654
vt 0.995328 0.125687
vt 0.972093 0.125309
vt 0.972468 0.102277
vt 0.949026 0.053072
vt 0.781907 0.005995
vt 0.873021 0.006427
vt 0.872983 0.017632
vt 0.781855 0.017438
vt 0.690110 0.005524
vt 0.690059 0.016967
vt 0.507188 0.005147
vt 0.598819 0.005179
vt 0.598788 0.016622
vt 0.507170 0.016353
vt 0.925427 0.005138
vt 0.949798 0.005533
vt 0.949421 0.028768
vt 0.925055 0.028170
vt 0.974237 0.005932
vt 0.997270 0.006305
vt 0.996892 0.029541
vt 0.973860 0.029167
vt 0.924657 0.052607
vt 0.781907 0.005995
vt 0.873021 0.006427
vt 0.872983 0.017632
vt 0.781855 0.017438
vt 0.690110 0.005524
vt 0.690059 0.016967
vt 0.507188 0.005147
vt 0.598819 0.005179
vt 0.598788 0.016622
vt 0.507170 0.016353
vt 0.877119 0.051837
vt 0.900353 0.052212
vt 0.877515 0.027397
vt 0.877889 0.004365
vt 0.901124 0.004741
vt 0.900750 0.027774
vt 0.781907 0.005995
vt 0.873021 0.006427
vt 0.872983 0.017632
vt 0.781855 0.017438
vt 0.690110 0.005524
vt 0.690059 0.016967
vt 0.507188 0.005147
vt 0.598819 0.005179
vt 0.598788 0.016622
vt 0.507170 0.016353
vn 1.000000 -0.000000 0.000000
vn 1.000000 0.000000 0.000000
vn 1.000000 0.000000 0.000000
vn 1.000000 0.000000 0.000000
vn 1.000000 0.000000 -0.000000
vn 1.000000 0.000000 -0.000000
vn 1.000000 0.000000 -0.000000
vn 1.000000 0.000000 -0.000000
vn 1.000000 -0.000000 0.000000
vn 1.000000 0.000000 -0.000000
vn 1.000000 0.000000 0.000000
vn 1.000000 0.000000 -0.000000
vn 0.000000 0.000000 1.000000
vn 0.000000 0.000000 1.000000
vn 0.000000 0.000000 1.000000
vn 0.000000 0.000000 1.000000
vn 0.000000 1.000000 0.000000
vn 0.000000 1.000000 0.000000
vn 0.000000 1.000000 0.000000
vn 0.000000 1.000000 0.000000
vn 0.000000 -1.000000 0.000000
vn 0.000000 -1.000000 0.000000
vn 0.000000 -1.000000 0.000000
vn 0.000000 -1.000000 0.000000
vn 0.000000 0.000000 -1.000000
vn 0.000000 0.000000 -1.000000
vn 0.000000 0.000000 -1.000000
vn 0.000000 0.000000 -1.000000
vn 1.000000 -0.000000 0.000000
vn 1.000000 -0.000000 0.000000
vn 1.000000 0.000000 -0.000000
vn 1.000000 0.000000 -0.000000
vn 1.000000 -0.000000 0.000000
vn 1.000000 -0.000000 0.000000
vn 1.000000 -0.000000 0.000000
vn 1.000000 -0.000000 0.000000
vn 1.000000 -0.000000 -0.000000
vn 0.000000 1.000000 0.000000
vn 0.000000 1.000000 0.000000
vn 0.000000 1.000000 0.000000
vn 0.000000 1.000000 0.000000
vn 0.000000 0.000000 -1.000000
vn 0.000000 0.000000 -1.000000
vn 0.000000 0.000000 -1.000000
vn 0.000000 0.000000 -1.000000
vn 0.000000 0.000000 1.000000
vn 0.000000 0.000000 1.000000
vn 0.000000 0.000000 1.000000
vn 0.000000 0.000000 1.000000
vn 0.000000 -1.000000 0.000000
vn 0.000000 -1.000000 0.000000
vn 0.000000 -1.000000 0.000000
vn 0.000000 -1.000000 0.000000
vn 1.000000 -0.000000 0.000000
vn 1.000000 0.000000 0.000000
vn 1.000000 -0.000000 -0.000000
vn 1.000000 -0.000000 -0.000000
vn 1.000000 0.000000 0.000000
vn 1.000000 0.000000 0.000000
vn 1.000000 0.000000 0.000000
vn 1.000000 0.000000 0.000000
vn 1.000000 -0.000000 0.000000
vn 0.000000 0.000000 -1.000000
vn 0.000000 0.000000 -1.000000
vn 0.000000 0.000000 -1.000000
vn 0.000000 0.000000 -1.000000
vn 0.000000 -1.000000 0.000000
vn 0.000000 -1.000000 0.000000
vn 0.000000 -1.000000 0.000000
vn 0.000000 -1.000000 0.000000
vn 0.000000 1.000000 0.000000
vn 0.000000 1.000000 0.000000
vn 0.000000 1.000000 0.000000
vn 0.000000 1.000000 0.000000
vn 0.000000 0.000000 1.000000
vn 0.000000 0.000000 1.000000
vn 0.000000 0.000000 1.000000
vn 0.000000 0.000000 1.000000
vn 1.000000 -0.000000 -0.000000
vn 1.000000 -0.000000 0.000000
vn 1.000000 -0.000000 0.000000
vn 1.000000 -0.000000 0.000000
vn 1.000000 -0.000000 0.000000
vn 1.000000 -0.000000 0.000000
vn 0.000000 -1.000000 0.000000
vn 0.000000 -1.000000 0.000000
vn 0.000000 -1.000000 0.000000
vn 0.000000 -1.000000 0.000000
vn 0.000000 0.000000 1.000000
vn 0.000000 0.000000 1.000000
vn 0.000000 0.000000 1.000000
vn 0.000000 0.000000 1.000000
vn 0.000000 0.000000 -1.000000
vn 0.000000 0.000000 -1.000000
vn 0.000000 0.000000 -1.000000
vn 0.000000 0.000000 -1.000000
vn 0.000000 1.000000 0.000000
vn 0.000000 1.000000 0.000000
vn 0.000000 1.000000 0.000000
vn 0.000000 1.000000 0.000000
vn 1.000000 0.000000 0.000000
vn 1.000000 0.000000 0.000000
vn 1.000000 0.000000 0.000000
vn 1.000000 0.000000 0.000000
vn 1.000000 0.000000 -0.000000
vn 1.000000 0.000000 -0.000000
vn 1.000000 0.000000 -0.000000
vn 1.000000 0.000000 -0.000000
vn 1.000000 -0.000000 0.000000
vn 1.000000 0.000000 -0.000000
vn 1.000000 0.000000 0.000000
vn 1.000000 0.000000 -0.000000
vn 0.000000 0.000000 1.000000
vn 0.000000 0.000000 1.000000
vn 0.000000 0.000000 1.000000
vn 0.000000 0.000000 1.000000
vn 0.000000 1.000000 0.000000
vn 0.000000 1.000000 0.000000
vn 0.000000 1.000000 0.000000
vn 0.000000 1.000000 0.000000
vn 0.000000 -1.000000 0.000000
vn 0.000000 -1.000000 0.000000
vn 0.000000 -1.000000 0.000000
vn 0.000000 -1.000000 0.000000
vn 0.000000 0.000000 -1.000000
vn 0.000000 0.000000 -1.000000
vn 0.000000 0.000000 -1.000000
vn 0.000000 0.000000 -1.000000
vn 1.000000 -0.000000 0.000000
vn 1.000000 -0.000000 0.000000
vn 1.000000 0.000000 -0.000000
vn 1.000000 0.000000 -0.000000
vn 1.000000 -0.000000 0.000000
vn 1.000000 -0.000000 0.000000
vn 1.000000 -0.000000 0.000000
vn 1.000000 -0.000000 0.000000
vn 1.000000 -0.000000 -0.000000
vn 0.000000 1.000000 0.000000
vn 0.000000 1.000000 0.000000
vn 0.000000 1.000000 0.000000
vn 0.000000 1.000000 0.000000
vn 0.000000 0.000000 -1.000000
vn 0.000000 0.000000 -1.000000
vn 0.000000 0.000000 -1.000000
vn 0.000000 0.000000 -1.000000
vn 0.000000 0.000000 1.000000
vn 0.000000 0.000000 1.000000
vn 0.000000 0.000000 1.000000
vn 0.000000 0.000000 1.000000
vn 0.000000 -1.000000 0.000000
vn 0.000000 -1.000000 0.000000
vn 0.000000 -1.000000 0.000000
vn 0.000000 -1.000000 0.000000
vn 1.000000 -0.000000 0.000000
vn 1.000000 0.000000 0.000000
vn 1.000000 -0.000000 -0.000000
vn 1.000000 -0.000000 -0.000000
vn 1.000000 0.000000 0.000000
vn 1.000000 0.000000 0.000000
vn 1.000000 0.000000 0.000000
vn 1.000000 0.000000 0.000000
vn 1.000000 -0.000000 0.000000
vn 0.000000 0.000000 -1.000000
vn 0.000000 0.000000 -1.000000
vn 0.000000 0.000000 -1.000000
vn 0.000000 0.000000 -1.000000
vn 0.000000 -1.000000 0.000000
vn 0.000000 -1.000000 0.000000
vn 0.000000 -1.000000 0.000000
vn 0.000000 -1.000000 0.000000
vn 0.000000 1.000000 0.000000
vn 0.000000 1.000000 0.000000
vn 0.000000 1.000000 0.000000
vn 0.000000 1.000000 0.000000
vn 0.000000 0.000000 1.000000
vn 0.000000 0.000000 1.000000
vn 0.000000 0.000000 1.000000
vn 0.000000 0.000000 1.000000
vn 1.000000 -0.000000 -0.000000
vn 1.000000 -0.000000 0.000000
vn 1.000000 -0.000000 0.000000
vn 1.000000 -0.000000 0.000000
vn 1.000000 -0.000000 0.000000
vn 1.000000 -0.000000 0.000000
vn 0.000000 -1.000000 0.000000
vn 0.000000 -1.000000 0.000000
vn 0.000000 -1.000000 0.000000
vn 0.000000 -1.000000 0.000000
vn 0.000000 0.000000 1.000000
vn 0.000000 0.000000 1.000000
vn 0.000000 0.000000 1.000000
vn 0.000000 0.000000 1.000000
vn 0.000000 0.000000 -1.000000
vn 0.000000 0.000000 -1.000000
vn 0.000000 0.000000 -1.000000
vn 0.000000 0.000000 -1.000000
vn 0.000000 1.000000 0.000000
vn 0.000000 1.000000 0.000000
vn 0.000000 1.000000 0.000000
vn 0.000000 1.000000 0.000000
s 1
g cardboard_wall_window_2_x_1
usemtl lambert2SG
f 16/27/1 6/6/2 5/16/3 20/26/4
f 9/9/5 1/1/6 2/2/7 8/15/8
f 7/14/9 8/15/8 2/2/7 3/3/10
f 5/16/3 4/17/11 17/28/12 20/26/4
f 6/6/2 9/9/5 8/15/8 5/16/3
s off
f 4/4/13 5/18/14 11/19/15 10/12/16
f 7/7/17 4/4/18 10/12/19 12/11/20
f 5/5/21 8/8/22 13/10/23 11/13/24
f 8/8/25 7/7/26 12/11/27 13/10/28
s 1
f 29/46/29 19/20/30 18/21/31 33/45/32
f 22/22/33 14/23/34 15/24/35 21/25/36
f 20/26/4 21/25/36 15/24/35 16/27/1
f 18/21/31 17/28/12 30/47/37 33/45/32
f 19/20/30 22/22/33 21/25/36 18/21/31
s off
f 17/29/38 18/30/39 24/31/40 23/32/41
f 20/33/42 17/29/43 23/32/44 25/34/45
f 18/35/46 21/36/47 26/37/48 24/38/49
f 21/36/50 20/33/51 25/34/52 26/37/53
s 1
f 42/65/54 32/39/55 31/40/56 46/64/57
f 35/41/58 27/42/59 28/43/60 34/44/61
f 33/45/32 34/44/61 28/43/60 29/46/29
f 31/40/56 30/47/37 43/66/62 46/64/57
f 32/39/55 35/41/58 34/44/61 31/40/56
s off
f 30/48/63 31/49/64 37/50/65 36/51/66
f 33/52/67 30/48/68 36/51/69 38/53/70
f 31/54/71 34/55/72 39/56/73 37/57/74
f 34/55/75 33/52/76 38/53/77 39/56/78
s 1
f 30/47/37 17/28/12 4/17/11 43/66/62
f 3/3/10 45/58/79 44/59/80 7/14/9
f 48/60/81 40/61/82 41/62/83 47/63/84
f 46/64/57 47/63/84 41/62/83 42/65/54
f 7/14/9 44/59/80 43/66/62 4/17/11
f 45/58/79 48/60/81 47/63/84 44/59/80
s off
f 43/67/85 44/68/86 50/69/87 49/70/88
f 46/71/89 43/67/90 49/70/91 51/72/92
f 44/73/93 47/74/94 52/75/95 50/76/96
f 47/74/97 46/71/98 51/72/99 52/75/100
s 5
f 68/77/101 58/78/102 57/79/103 72/80/104
f 61/81/105 53/82/106 54/83/107 60/84/108
f 59/85/109 60/84/108 54/83/107 55/86/110
f 57/79/103 56/87/111 69/88/112 72/80/104
f 58/78/102 61/81/105 60/84/108 57/79/103
s off
f 56/89/113 57/90/114 63/91/115 62/92/116
f 59/93/117 56/89/118 62/92/119 64/94/120
f 57/95/121 60/96/122 65/97/123 63/98/124
f 60/96/125 59/93/126 64/94/127 65/97/128
s 5
f 81/99/129 71/100/130 70/101/131 85/102/132
f 74/103/133 66/104/134 67/105/135 73/106/136
f 72/80/104 73/106/136 67/105/135 68/77/101
f 70/101/131 69/88/112 82/107/137 85/102/132
f 71/100/130 74/103/133 73/106/136 70/101/131
s off
f 69/108/138 70/109/139 76/110/140 75/111/141
f 72/112/142 69/108/143 75/111/144 77/113/145
f 70/114/146 73/115/147 78/116/148 76/117/149
f 73/115/150 72/112/151 77/113/152 78/116/153
s 5
f 94/118/154 84/119/155 83/120/156 98/121/157
f 87/122/158 79/123/159 80/124/160 86/125/161
f 85/102/132 86/125/161 80/124/160 81/99/129
f 83/120/156 82/107/137 95/126/162 98/121/157
f 84/119/155 87/122/158 86/125/161 83/120/156
s off
f 82/127/163 83/128/164 89/129/165 88/130/166
f 85/131/167 82/127/168 88/130/169 90/132/170
f 83/133/171 86/134/172 91/135/173 89/136/174
f 86/134/175 85/131/176 90/132/177 91/135/178
s 5
f 82/107/137 69/88/112 56/87/111 95/126/162
f 55/86/110 97/137/179 96/138/180 59/85/109
f 100/139/181 92/140/182 93/141/183 99/142/184
f 98/121/157 99/142/184 93/141/183 94/118/154
f 59/85/109 96/138/180 95/126/162 56/87/111
f 97/137/179 100/139/181 99/142/184 96/138/180
s off
f 95/143/185 96/144/186 102/145/187 101/146/188
f 98/147/189 95/143/190 101/146/191 103/148/192
f 96/149/193 99/150/194 104/151/195 102/152/196
f 99/150/197 98/147/198 103/148/199 104/151/200
