# This file uses centimeters as units for non-parametric coordinates.

mtllib twig_large_01.mtl
g default
v -85.297119 -4.586244 1.118685
v 0.000000 -6.279708 3.314359
v -85.297119 -2.860620 1.118685
v 0.000000 -1.167155 3.314359
v -85.297119 -2.860620 -1.118685
v 0.000000 -1.167155 -3.314359
v -85.297119 -4.586244 -1.118685
v 0.000000 -6.279708 -3.314359
v -57.943390 -3.912411 -1.141790
v -57.943390 -3.912411 -4.105063
v -57.943390 -6.197905 -4.105063
v -57.943390 -6.197905 -1.141790
v -27.353731 -0.968781 2.853919
v -27.353731 -0.968781 -1.303469
v -27.353731 -4.175263 -1.303469
v -27.353731 -4.175263 2.853919
v 0.000000 0.000000 0.000000
v -27.353731 0.735374 0.775225
v -57.943390 -3.265078 -2.623427
v -85.297119 -2.665503 0.000000
v -85.297119 -4.832048 0.000000
v -57.943390 -7.776839 -2.623427
v -27.353731 -4.484288 0.775225
v 0.000000 -6.958219 0.000000
vt 0.758616 0.395217
vt 0.843059 0.141982
vt 0.863398 0.444507
vt 0.861444 0.141963
vt 0.706562 0.442253
vt 0.886552 0.142008
vt 0.877197 0.444014
vt 0.904721 0.142927
vt 0.802616 0.454801
vt 0.899115 0.242021
vt 0.890807 0.349466
vt 0.881111 0.444706
vt 0.735534 0.454414
vt 0.870077 0.347953
vt 0.864467 0.347908
vt 0.875604 0.348266
vt 0.883431 0.348879
vt 0.856527 0.348205
vt 0.871507 0.239464
vt 0.862268 0.239296
vt 0.880727 0.240300
vt 0.891879 0.241425
vt 0.851234 0.239999
vt 0.802701 0.370532
vt 0.916478 0.145161
vt 0.764499 0.442257
vt 0.873872 0.142136
vt 0.712458 0.395213
vt 0.829975 0.442730
vt 0.779223 0.392218
vt 0.775247 0.442791
vt 0.826144 0.392214
vt 0.735540 0.375348
vt 0.857452 0.444201
vt 0.867306 0.444254
vt 0.871233 0.443971
vt 0.844076 0.241039
vt 0.831078 0.142938
vt 0.849167 0.348655
vt 0.853512 0.443849
vn 0.082358 0.000000 0.996603
vn -0.046089 0.000000 0.998937
vn -0.048075 0.000000 0.998844
vn 0.082358 0.000000 0.996603
vn 0.056142 0.949819 0.307722
vn -0.083115 0.881057 0.465651
vn -0.060181 0.997676 -0.031952
vn 0.029884 0.999364 0.019456
vn -0.108531 0.000000 -0.994093
vn 0.013942 0.000000 -0.999903
vn 0.012039 0.000000 -0.999928
vn -0.108531 0.000000 -0.994093
vn -0.083657 -0.995663 0.040714
vn 0.015314 -0.999482 -0.028302
vn 0.005031 -0.858575 0.512664
vn -0.016894 -0.818447 0.574334
vn 1.000000 0.000000 0.000000
vn 1.000000 0.000000 0.000000
vn 1.000000 0.000000 0.000000
vn 1.000000 0.000000 0.000000
vn -1.000000 0.000000 0.000000
vn -1.000000 0.000000 0.000000
vn -1.000000 0.000000 0.000000
vn -1.000000 0.000000 0.000000
vn -0.048288 0.998633 0.020006
vn -0.059113 0.861396 0.504482
vn -0.003659 0.000000 -0.999993
vn -0.005728 0.000000 -0.999984
vn -0.038321 -0.951021 0.306743
vn -0.017418 -0.999698 0.017313
vn -0.063432 0.000000 0.997986
vn -0.064833 0.000000 0.997896
vn 0.017767 0.882552 0.469879
vn 0.004787 0.999948 -0.009003
vn -0.073316 0.000000 -0.997309
vn -0.073316 0.000000 -0.997309
vn -0.087578 -0.996152 -0.003248
vn -0.081016 -0.980412 0.179525
vn -0.016830 0.000000 0.999858
vn -0.016830 0.000000 0.999858
vn -0.008867 0.882657 -0.469935
vn -0.022347 0.861766 -0.506814
vn -0.025929 0.884314 -0.466172
vn -0.002888 0.951315 -0.308207
vn -1.000000 0.000000 0.000000
vn -1.000000 0.000000 0.000000
vn -0.126064 -0.812033 -0.569833
vn 0.021038 -0.858225 -0.512843
vn 0.006537 -0.949167 -0.314704
vn -0.091112 -0.979554 -0.179368
vn 1.000000 0.000000 0.000000
vn 1.000000 0.000000 0.000000
s 1
g twig_large_01
usemtl lambert2SG
f 1/34/1 12/18/2 9/15/3 3/3/4
s 2
f 3/3/5 9/15/6 19/14/7 20/35/8
s 3
f 5/36/9 10/16/10 11/17/11 7/7/12
s 4
f 21/40/13 22/39/14 12/18/15 1/34/16
s 5
f 2/29/17 24/9/18 17/24/19 4/32/20
s 6
f 21/33/21 1/1/22 3/26/23 20/13/24
s 2
f 18/19/25 19/14/7 9/15/6 13/20/26
s 3
f 15/22/27 11/17/11 10/16/10 14/21/28
s 4
f 16/23/29 12/18/15 22/39/14 23/37/30
s 1
f 13/20/31 9/15/3 12/18/2 16/23/32
s 2
f 13/20/26 4/4/33 17/27/34 18/19/25
s 3
f 15/22/27 14/21/28 6/6/35 8/8/36
s 4
f 16/23/29 23/37/30 24/38/37 2/2/38
s 1
f 13/20/31 16/23/32 2/2/39 4/4/40
s 2
f 18/19/25 17/27/34 6/6/41 14/21/42
f 14/21/42 10/16/43 19/14/7 18/19/25
f 20/35/8 19/14/7 10/16/43 5/36/44
s 6
f 7/28/45 21/33/21 20/13/24 5/5/46
s 4
f 7/7/47 11/17/48 22/11/14 21/12/13
f 23/10/30 22/11/14 11/17/48 15/22/49
f 24/25/37 23/10/30 15/22/49 8/8/50
s 5
f 17/24/19 24/9/18 8/31/51 6/30/52
