# This file uses centimeters as units for non-parametric coordinates.

mtllib cardboard_roof_1_x_1.mtl
g default
v -61.664364 0.000000 0.000000
v -0.000000 0.000000 0.000000
v -61.664364 3.227262 -61.579853
v -0.000000 3.227262 -61.579853
v -61.664364 0.000000 -61.664364
v -0.000000 0.000000 -61.664364
v -123.328728 0.000000 -61.664364
v -123.328728 0.000000 0.000000
v -61.748867 3.227262 -61.664364
v -61.748867 3.227262 0.000000
v -61.664364 0.000000 -61.664364
v -61.664364 0.000000 0.000000
v -61.664364 0.000000 -123.328728
v -123.328728 0.000000 -123.328728
v -61.664364 3.227262 -61.748871
v -123.328728 3.227262 -61.748871
v -61.664364 0.000000 -61.664364
v -123.328728 0.000000 -61.664364
v -0.000000 0.000000 -61.664364
v -0.000000 0.000000 -123.328728
v -61.579857 3.227262 -61.664364
v -61.579857 3.227262 -123.328728
v -61.664364 0.000000 -61.664364
v -61.664364 0.000000 -123.328728
vt 0.664803 0.491839
vt 0.811555 0.027562
vt 0.775041 0.477486
vt 0.884783 0.478394
vt 0.884771 0.492289
vt 0.775019 0.491429
vt 0.663471 0.175625
vt 0.811545 0.175635
vt 0.994211 0.495161
vt 0.663482 0.027552
vt 0.663482 0.027552
vt 0.811555 0.027562
vt 0.811544 0.175635
vt 0.663471 0.175625
vt 0.664803 0.491839
vt 0.775041 0.477486
vt 0.775019 0.491428
vt 0.884783 0.478394
vt 0.994211 0.495161
vt 0.884771 0.492289
vt 0.663482 0.027552
vt 0.811555 0.027562
vt 0.811544 0.175635
vt 0.663471 0.175625
vt 0.664803 0.491839
vt 0.775041 0.477486
vt 0.775019 0.491428
vt 0.884783 0.478394
vt 0.994211 0.495161
vt 0.884771 0.492289
vt 0.663482 0.027552
vt 0.811555 0.027562
vt 0.811544 0.175635
vt 0.663471 0.175625
vt 0.664803 0.491839
vt 0.775041 0.477486
vt 0.775019 0.491428
vt 0.884783 0.478394
vt 0.994211 0.495161
vt 0.884771 0.492289
vn 0.000000 0.998630 0.052336
vn 0.000000 0.998630 0.052336
vn 0.000000 0.998630 0.052336
vn 0.000000 0.998630 0.052336
vn -1.000000 -0.000002 0.000000
vn -1.000000 -0.000002 0.000000
vn -1.000000 -0.000002 0.000000
vn 1.000000 -0.000000 0.000000
vn 1.000000 -0.000000 0.000000
vn 1.000000 -0.000000 0.000000
vn 0.000000 0.026178 -0.999657
vn 0.000000 0.026178 -0.999657
vn 0.000000 0.026178 -0.999657
vn 0.000000 0.026178 -0.999657
vn -0.052336 0.998630 0.000000
vn -0.052336 0.998630 0.000000
vn -0.052336 0.998630 0.000000
vn -0.052336 0.998630 0.000000
vn 0.000000 0.000000 -1.000000
vn 0.000000 0.000000 -1.000000
vn 0.000000 0.000000 -1.000000
vn 0.000000 0.000000 1.000000
vn 0.000000 0.000000 1.000000
vn 0.000000 0.000000 1.000000
vn 0.999657 0.026176 0.000000
vn 0.999657 0.026176 0.000000
vn 0.999657 0.026176 0.000000
vn 0.999657 0.026176 0.000000
vn 0.000000 0.998630 -0.052336
vn 0.000000 0.998630 -0.052336
vn 0.000000 0.998630 -0.052336
vn 0.000000 0.998630 -0.052336
vn 1.000000 0.000002 0.000000
vn 1.000000 0.000002 0.000000
vn 1.000000 0.000002 0.000000
vn -1.000000 -0.000003 0.000000
vn -1.000000 -0.000003 0.000000
vn -1.000000 -0.000003 0.000000
vn 0.000000 0.026176 0.999657
vn 0.000000 0.026176 0.999657
vn 0.000000 0.026176 0.999657
vn 0.000000 0.026176 0.999657
vn 0.052336 0.998630 0.000000
vn 0.052336 0.998630 0.000000
vn 0.052336 0.998630 0.000000
vn 0.052336 0.998630 0.000000
vn 0.000000 0.000000 1.000000
vn 0.000000 0.000000 1.000000
vn 0.000000 0.000000 1.000000
vn 0.000000 0.000000 -1.000000
vn 0.000000 0.000000 -1.000000
vn 0.000000 0.000000 -1.000000
vn -0.999657 0.026176 0.000000
vn -0.999657 0.026176 0.000000
vn -0.999657 0.026176 0.000000
vn -0.999657 0.026176 0.000000
s off
g cardboard_roof_1_x_1
usemtl lambert2SG
f 1/10/1 2/2/2 4/8/3 3/7/4
f 1/1/5 3/3/6 5/6/7
f 4/4/8 2/9/9 6/5/10
f 3/3/11 4/4/12 6/5/13 5/6/14
f 7/11/15 8/12/16 10/13/17 9/14/18
f 7/15/19 9/16/20 11/17/21
f 10/18/22 8/19/23 12/20/24
f 9/16/25 10/18/26 12/20/27 11/17/28
f 13/21/29 14/22/30 16/23/31 15/24/32
f 13/25/33 15/26/34 17/27/35
f 16/28/36 14/29/37 18/30/38
f 15/26/39 16/28/40 18/30/41 17/27/42
f 19/31/43 20/32/44 22/33/45 21/34/46
f 19/35/47 21/36/48 23/37/49
f 22/38/50 20/39/51 24/40/52
f 21/36/53 22/38/54 24/40/55 23/37/56
