# This file uses centimeters as units for non-parametric coordinates.

mtllib tree_swing.mtl
g default
v -12.000299 -2.250002 -37.500000
v -15.000000 -3.354128 -34.500305
v -12.000299 2.249998 -37.500000
v -15.000000 1.145872 -34.500305
v -12.000299 -2.250002 37.500000
v -15.000000 -3.354128 34.500305
v -12.000299 2.249998 37.500000
v -15.000000 1.145872 34.500305
v 12.000299 2.249998 -37.500000
v 15.000000 1.145872 -34.500305
v 12.000299 -2.250002 -37.500000
v 15.000000 -3.354128 -34.500305
v 15.000000 1.145872 34.500305
v 12.000299 2.249998 37.500000
v 12.000299 -2.250002 37.500000
v 15.000000 -3.354128 34.500305
vt 0.185328 0.147707
vt 0.103788 0.240660
vt 0.334382 0.236380
vt 0.267936 0.241632
vt 0.267968 0.234349
vt 0.142653 0.233579
vt 0.103823 0.233381
vt 0.194328 0.142391
vt 0.325248 0.142391
vt 0.306809 0.234506
vt 0.194328 0.142391
vt 0.194411 0.241682
vt 0.194411 0.241682
vt 0.325249 0.142391
vt 0.325165 0.241682
vt 0.325165 0.241682
vt 0.334249 0.147707
vt 0.142614 0.240859
vt 0.306781 0.241788
vt 0.185195 0.236380
vt 0.149473 0.240898
vt 0.261066 0.241594
vt 0.425187 0.242124
vt 0.313646 0.241808
vt 0.149518 0.233620
vt 0.185195 0.236380
vt 0.185328 0.147707
vt 0.261111 0.234316
vt 0.334382 0.236380
vt 0.334249 0.147707
vt 0.425208 0.234850
vt 0.313667 0.234533
vt 0.432044 0.242142
vt 0.432065 0.234868
vn -0.152625 0.988284 -0.000084
vn -0.150613 -0.988513 -0.012552
vn -0.150613 -0.988513 0.012552
vn -0.152625 0.988284 0.000084
vn 0.150613 -0.988513 -0.012552
vn 0.152625 0.988284 -0.000084
vn 0.152625 0.988284 0.000084
vn 0.150613 -0.988513 0.012552
vn -0.079685 0.844381 0.529784
vn -0.075852 -0.579538 0.811408
vn 0.075852 -0.579538 0.811408
vn 0.079685 0.844381 0.529784
vn -0.075852 -0.579538 -0.811408
vn -0.079685 0.844381 -0.529784
vn 0.079685 0.844381 -0.529784
vn 0.075852 -0.579538 -0.811408
s 1
g tree_swing
usemtl lambert2SG
f 4/24/1 2/32/2 6/31/3 8/23/4
f 12/28/5 10/22/6 13/21/7 16/25/8
f 7/2/9 5/7/10 15/6/11 14/18/12
f 1/10/13 3/19/14 9/4/15 11/5/16
f 4/11/1 8/14/4 13/15/7 10/12/6
f 5/27/10 6/8/3 16/13/8 15/26/11
f 1/10/13 2/32/2 4/24/1 3/19/14
f 6/31/3 5/34/10 7/33/9 8/23/4
f 9/4/15 10/22/6 12/28/5 11/5/16
f 13/21/7 14/18/12 15/6/11 16/25/8
f 13/15/7 8/14/4 7/17/9 14/3/12
f 3/1/14 4/11/1 10/12/6 9/20/15
f 2/9/2 1/30/13 11/29/16 12/16/5
f 6/8/3 2/9/2 12/16/5 16/13/8
g default
v 1.369360 28.302382 -33.750305
v 1.369360 28.302382 -35.250305
v 0.070322 28.302382 -36.000305
v -1.228716 28.302382 -35.250305
v -1.228716 28.302382 -33.750305
v 0.070322 28.302382 -33.000305
v 1.369360 178.302383 -33.750305
v 1.369360 178.302383 -35.250305
v 0.070322 178.302383 -36.000305
v -1.228716 178.302383 -35.250305
v -1.228716 178.302383 -33.750305
v 0.070322 178.302383 -33.000305
vt 0.010852 0.010121
vt 0.019125 0.009872
vt 0.027872 0.009479
vt 0.039323 0.009626
vt 0.050770 0.009479
vt 0.059518 0.009872
vt 0.067790 0.010121
vt 0.010853 0.290660
vt 0.019125 0.290909
vt 0.027873 0.291302
vt 0.039320 0.291155
vt 0.050771 0.291302
vt 0.059519 0.290909
vt 0.067791 0.290660
vn 0.866025 0.000000 0.500000
vn 0.866025 0.000000 -0.500000
vn 0.866025 0.000000 -0.500000
vn 0.866025 0.000000 0.500000
vn 0.000000 0.000000 -1.000000
vn 0.000000 0.000000 -1.000000
vn -0.866025 0.000000 -0.500000
vn -0.866025 0.000000 -0.500000
vn -0.866025 0.000000 0.500000
vn -0.866025 0.000000 0.500000
vn 0.000000 0.000000 1.000000
vn 0.000000 0.000000 1.000000
s 1
g tree_swing tree_swing_01:pCylinder2
usemtl lambert2SG
f 17/35/17 18/36/18 24/43/19 23/42/20
f 18/36/18 19/37/21 25/44/22 24/43/19
f 19/37/21 20/38/23 26/45/24 25/44/22
f 20/38/23 21/39/25 27/46/26 26/45/24
f 21/39/25 22/40/27 28/47/28 27/46/26
f 22/40/27 17/41/17 23/48/20 28/47/28
g default
v -1.369360 28.302382 33.750305
v -1.369360 28.302382 35.250305
v -0.070322 28.302382 36.000305
v 1.228716 28.302382 35.250305
v 1.228716 28.302382 33.750305
v -0.070322 28.302382 33.000305
v -1.369360 178.302383 33.750305
v -1.369360 178.302383 35.250305
v -0.070322 178.302383 36.000305
v 1.228716 178.302383 35.250305
v 1.228716 178.302383 33.750305
v -0.070322 178.302383 33.000305
vt 0.010852 0.010121
vt 0.019125 0.009872
vt 0.027872 0.009479
vt 0.039323 0.009626
vt 0.050770 0.009479
vt 0.059518 0.009872
vt 0.067790 0.010121
vt 0.010853 0.290660
vt 0.019125 0.290909
vt 0.027873 0.291302
vt 0.039320 0.291155
vt 0.050771 0.291302
vt 0.059519 0.290909
vt 0.067791 0.290660
vn -0.866025 0.000000 -0.500000
vn -0.866025 0.000000 0.500000
vn -0.866025 0.000000 0.500000
vn -0.866025 0.000000 -0.500000
vn 0.000000 0.000000 1.000000
vn 0.000000 0.000000 1.000000
vn 0.866025 0.000000 0.500000
vn 0.866025 0.000000 0.500000
vn 0.866025 0.000000 -0.500000
vn 0.866025 0.000000 -0.500000
vn 0.000000 0.000000 -1.000000
vn 0.000000 0.000000 -1.000000
s 1
g tree_swing tree_swing_01:pCylinder5
usemtl lambert2SG
f 29/49/29 30/50/30 36/57/31 35/56/32
f 30/50/30 31/51/33 37/58/34 36/57/31
f 31/51/33 32/52/35 38/59/36 37/58/34
f 32/52/35 33/53/37 39/60/38 38/59/36
f 33/53/37 34/54/39 40/61/40 39/60/38
f 34/54/39 29/55/29 35/62/32 40/61/40
g default
v -12.442104 0.962873 -35.250305
v -12.442104 0.962873 -33.750305
v -11.250000 0.989943 -33.000305
v -10.057896 1.017012 -33.750305
v -10.057896 1.017012 -35.250305
v -11.250000 0.989943 -36.000305
v -1.178891 29.278822 -35.250305
v -1.178891 29.278822 -33.750305
v 0.024912 28.790602 -33.000305
v 1.228716 28.302382 -33.750305
v 1.228716 28.302382 -35.250305
v 0.024913 28.790602 -36.000305
vt 0.151459 0.009970
vt 0.157485 0.009931
vt 0.162785 0.011797
vt 0.168076 0.013629
vt 0.174073 0.013389
vt 0.179347 0.011165
vt 0.184639 0.009025
vt 0.150272 0.136938
vt 0.156323 0.137025
vt 0.162383 0.137077
vt 0.168435 0.137142
vt 0.174485 0.137149
vt 0.180528 0.137098
vt 0.186564 0.137045
vn -0.847745 0.338124 -0.408658
vn -0.847745 0.338124 0.408658
vn -0.821265 0.327722 0.467036
vn -0.821265 0.327722 -0.467036
vn -0.130470 0.050636 0.990158
vn -0.005382 -0.000122 0.999986
vn 0.790121 -0.325604 0.519317
vn 0.815853 -0.336364 0.470366
vn 0.790121 -0.325604 -0.519318
vn 0.815853 -0.336364 -0.470366
vn -0.130471 0.050636 -0.990158
vn -0.005383 -0.000122 -0.999986
s 1
g tree_swing tree_swing_01:pCylinder2 tree_swing_01:pCylinder3
usemtl lambert2SG
f 41/63/41 42/64/42 48/71/43 47/70/44
f 42/64/42 43/65/45 49/72/46 48/71/43
f 43/65/45 44/66/47 50/73/48 49/72/46
f 44/66/47 45/67/49 51/74/50 50/73/48
f 45/67/49 46/68/51 52/75/52 51/74/50
f 46/68/51 41/69/41 47/76/44 52/75/52
g default
v 12.442103 0.962873 -33.750305
v 12.442103 0.962873 -35.250305
v 11.250000 0.989943 -36.000305
v 10.057897 1.017012 -35.250305
v 10.057897 1.017012 -33.750305
v 11.250000 0.989943 -33.000305
v 1.178891 29.278822 -33.750305
v 1.178891 29.278822 -35.250305
v -0.024912 28.790602 -36.000305
v -1.228716 28.302382 -35.250305
v -1.228716 28.302382 -33.750305
v -0.024913 28.790602 -33.000305
vt 0.151467 0.009981
vt 0.157492 0.009941
vt 0.162785 0.011803
vt 0.168082 0.013630
vt 0.174067 0.013383
vt 0.179344 0.011154
vt 0.184632 0.009010
vt 0.150270 0.136934
vt 0.156318 0.137023
vt 0.162382 0.137077
vt 0.168438 0.137143
vt 0.174481 0.137151
vt 0.180535 0.137101
vt 0.186562 0.137047
vn 0.847745 0.338124 0.408658
vn 0.847745 0.338124 -0.408658
vn 0.821265 0.327722 -0.467036
vn 0.821265 0.327722 0.467036
vn 0.130471 0.050636 -0.990158
vn 0.005383 -0.000122 -0.999986
vn -0.790121 -0.325604 -0.519317
vn -0.815853 -0.336364 -0.470366
vn -0.790121 -0.325604 0.519317
vn -0.815853 -0.336364 0.470365
vn 0.130470 0.050636 0.990158
vn 0.005382 -0.000122 0.999986
s 1
g tree_swing tree_swing_01:pCylinder2 tree_swing_01:pCylinder1
usemtl lambert2SG
f 53/77/53 54/78/54 60/85/55 59/84/56
f 54/78/54 55/79/57 61/86/58 60/85/55
f 55/79/57 56/80/59 62/87/60 61/86/58
f 56/80/59 57/81/61 63/88/62 62/87/60
f 57/81/61 58/82/63 64/89/64 63/88/62
f 58/82/63 53/83/53 59/90/56 64/89/64
g default
v -12.442104 0.962873 33.750305
v -12.442104 0.962873 35.250305
v -11.250000 0.989943 36.000305
v -10.057896 1.017012 35.250305
v -10.057896 1.017012 33.750305
v -11.250000 0.989943 33.000305
v -1.178891 29.278822 33.750305
v -1.178891 29.278822 35.250305
v 0.024912 28.790602 36.000305
v 1.228716 28.302382 35.250305
v 1.228716 28.302382 33.750305
v 0.024913 28.790602 33.000305
vt 0.151467 0.009981
vt 0.157492 0.009941
vt 0.162785 0.011803
vt 0.168082 0.013630
vt 0.174067 0.013383
vt 0.179344 0.011154
vt 0.184632 0.009010
vt 0.150270 0.136934
vt 0.156318 0.137023
vt 0.162382 0.137077
vt 0.168438 0.137143
vt 0.174481 0.137151
vt 0.180535 0.137101
vt 0.186562 0.137047
vn -0.847745 0.338124 -0.408658
vn -0.847745 0.338124 0.408658
vn -0.821265 0.327722 0.467036
vn -0.821265 0.327722 -0.467037
vn -0.130471 0.050636 0.990158
vn -0.005383 -0.000122 0.999986
vn 0.790121 -0.325604 0.519318
vn 0.815853 -0.336364 0.470366
vn 0.790121 -0.325604 -0.519317
vn 0.815853 -0.336364 -0.470366
vn -0.130470 0.050636 -0.990158
vn -0.005382 -0.000122 -0.999986
s 1
g tree_swing tree_swing_01:pCylinder5 tree_swing_01:pCylinder4
usemtl lambert2SG
f 65/91/65 66/92/66 72/99/67 71/98/68
f 66/92/66 67/93/69 73/100/70 72/99/67
f 67/93/69 68/94/71 74/101/72 73/100/70
f 68/94/71 69/95/73 75/102/74 74/101/72
f 69/95/73 70/96/75 76/103/76 75/102/74
f 70/96/75 65/97/65 71/104/68 76/103/76
g default
v 12.442103 0.962873 35.250305
v 12.442103 0.962873 33.750305
v 11.250000 0.989943 33.000305
v 10.057897 1.017012 33.750305
v 10.057897 1.017012 35.250305
v 11.250000 0.989943 36.000305
v 1.178891 29.278822 35.250305
v 1.178891 29.278822 33.750305
v -0.024912 28.790602 33.000305
v -1.228716 28.302382 33.750305
v -1.228716 28.302382 35.250305
v -0.024913 28.790602 36.000305
vt 0.151459 0.009970
vt 0.157485 0.009931
vt 0.162785 0.011797
vt 0.168076 0.013629
vt 0.174073 0.013389
vt 0.179347 0.011165
vt 0.184639 0.009025
vt 0.150272 0.136938
vt 0.156323 0.137025
vt 0.162383 0.137077
vt 0.168435 0.137142
vt 0.174485 0.137149
vt 0.180528 0.137098
vt 0.186564 0.137045
vn 0.847745 0.338124 0.408658
vn 0.847745 0.338124 -0.408658
vn 0.821265 0.327722 -0.467036
vn 0.821265 0.327722 0.467036
vn 0.130470 0.050636 -0.990158
vn 0.005382 -0.000122 -0.999986
vn -0.790121 -0.325604 -0.519317
vn -0.815853 -0.336364 -0.470365
vn -0.790121 -0.325604 0.519317
vn -0.815853 -0.336364 0.470366
vn 0.130471 0.050636 0.990158
vn 0.005383 -0.000122 0.999986
s 1
g tree_swing tree_swing_01:pCylinder5 tree_swing_01:pCylinder6
usemtl lambert2SG
f 77/105/77 78/106/78 84/113/79 83/112/80
f 78/106/78 79/107/81 85/114/82 84/113/79
f 79/107/81 80/108/83 86/115/84 85/114/82
f 80/108/83 81/109/85 87/116/86 86/115/84
f 81/109/85 82/110/87 88/117/88 87/116/86
f 82/110/87 77/111/77 83/118/80 88/117/88
