# This file uses centimeters as units for non-parametric coordinates.

mtllib cardboard_wall_L_turn.mtl
g default
v -0.000000 123.328728 -123.328720
v -0.000000 61.664364 -123.328720
v -0.000000 0.000000 -123.328720
v -61.664364 123.328728 -123.328720
v -61.664364 61.664364 -123.328720
v -61.664364 0.000000 -123.328720
v -123.328728 123.328728 -123.328720
v -123.328728 61.664364 -123.328720
v -123.328728 0.000000 -123.328720
v 0.000000 123.328728 0.000000
v 0.000000 61.664364 0.000000
v 0.000000 0.000000 0.000000
v 0.000000 123.328728 -61.664364
v 0.000000 61.664364 -61.664364
v 0.000000 0.000000 -61.664364
v 0.000000 123.328728 -123.328720
v 0.000000 61.664364 -123.328720
v 0.000000 0.000000 -123.328720
vt 0.662589 0.025753
vt 0.737747 0.025753
vt 0.812905 0.025753
vt 0.662589 0.100911
vt 0.737747 0.100911
vt 0.812905 0.100911
vt 0.662589 0.176069
vt 0.737747 0.176069
vt 0.812905 0.176069
vt 0.505389 0.174062
vt 0.505389 0.098904
vt 0.580547 0.098904
vt 0.580547 0.174062
vt 0.505389 0.023747
vt 0.580547 0.023747
vt 0.655705 0.098904
vt 0.655705 0.174062
vt 0.655705 0.023747
vn 0.000000 0.000000 -1.000000
vn 0.000000 0.000000 -1.000000
vn 0.000000 0.000000 -1.000000
vn 0.000000 0.000000 -1.000000
vn 0.000000 0.000000 -1.000000
vn 0.000000 0.000000 -1.000000
vn 0.000000 0.000000 -1.000000
vn 0.000000 0.000000 -1.000000
vn 0.000000 0.000000 -1.000000
vn 1.000000 -0.000000 0.000000
vn 1.000000 -0.000000 0.000000
vn 1.000000 -0.000000 0.000000
vn 1.000000 -0.000000 0.000000
vn 1.000000 -0.000000 0.000000
vn 1.000000 -0.000000 0.000000
vn 1.000000 -0.000000 0.000000
vn 1.000000 -0.000000 0.000000
vn 1.000000 -0.000000 0.000000
s 1
g cardboard_wall_L_turn
usemtl lambert2SG
f 1/1/1 2/2/2 5/5/3 4/4/4
f 2/2/2 3/3/5 6/6/6 5/5/3
f 4/4/4 5/5/3 8/8/7 7/7/8
f 5/5/3 6/6/6 9/9/9 8/8/7
s 2
f 10/10/10 11/11/11 14/12/12 13/13/13
f 11/11/11 12/14/14 15/15/15 14/12/12
f 13/13/13 14/12/12 17/16/16 16/17/17
f 14/12/12 15/15/15 18/18/18 17/16/16
