# This file uses centimeters as units for non-parametric coordinates.

mtllib nj_cement_walkway_curve_01.mtl
g default
v 0.000000 0.000000 0.000031
v 128.000000 0.000000 0.000031
v 0.000000 8.000000 0.000031
v 128.000000 8.000000 0.000031
v 0.000000 8.000000 -256.000000
v 128.000000 8.000000 -256.000000
v 0.000000 0.000000 -256.000000
v 128.000000 0.000000 -256.000000
v 137.680939 8.000000 -224.000015
v 9.680939 8.000000 -224.000015
v 9.680939 0.000000 -224.000015
v 137.680939 0.000000 -224.000015
v 145.210541 8.000000 -192.000031
v 17.210541 8.000000 -192.000031
v 17.210541 0.000000 -192.000031
v 145.210541 0.000000 -192.000031
v 152.740173 8.000000 -160.000000
v 24.740173 8.000000 -160.000000
v 24.740173 0.000000 -160.000000
v 152.740173 0.000000 -160.000000
v 154.353668 8.000000 -128.000015
v 26.353668 8.000000 -128.000015
v 26.353668 0.000000 -128.000015
v 154.353668 0.000000 -128.000015
v 152.740173 8.000000 -96.000000
v 24.740173 8.000000 -96.000000
v 24.740173 0.000000 -96.000000
v 152.740173 0.000000 -96.000000
v 145.210541 8.000000 -63.999992
v 17.210541 8.000000 -63.999992
v 17.210541 0.000000 -63.999992
v 145.210541 0.000000 -63.999992
v 137.680939 8.000000 -32.000008
v 9.680939 8.000000 -32.000008
v 9.680939 0.000000 -32.000008
v 137.680939 0.000000 -32.000008
vt 0.105834 0.375572
vt 0.089748 0.139280
vt 0.107511 0.139620
vt 0.104800 0.363141
vt 0.162461 0.123518
vt 0.157629 0.346979
vt 0.540765 0.357522
vt 0.538587 0.144031
vt 0.544022 0.132936
vt 0.557984 0.357653
vt 0.155060 0.110195
vt 0.160305 0.360507
vt 0.490853 0.342214
vt 0.486779 0.128149
vt 0.490588 0.354738
vt 0.496420 0.115884
vt 0.439477 0.331122
vt 0.435341 0.114171
vt 0.436731 0.344273
vt 0.441925 0.100757
vt 0.383943 0.319981
vt 0.381523 0.100431
vt 0.382508 0.333600
vt 0.385883 0.086778
vt 0.327285 0.318052
vt 0.327502 0.096528
vt 0.328365 0.331808
vt 0.328804 0.082396
vt 0.269942 0.321498
vt 0.272866 0.098466
vt 0.273602 0.335436
vt 0.271056 0.084488
vt 0.212355 0.334388
vt 0.217130 0.110553
vt 0.217450 0.348157
vt 0.212978 0.096505
vt 0.556392 0.143670
vt 0.539712 0.368747
vt 0.101852 0.127184
vt 0.087714 0.363198
vn 0.000000 0.000000 1.000000
vn 0.000000 0.000000 1.000000
vn 0.000000 0.000000 1.000000
vn 0.000000 0.000000 1.000000
vn 0.000000 1.000000 0.000000
vn 0.000000 1.000000 0.000000
vn 0.000000 1.000000 0.000000
vn 0.000000 1.000000 0.000000
vn 0.000000 0.000000 -1.000000
vn 0.000000 0.000000 -1.000000
vn 0.000000 0.000000 -1.000000
vn 0.000000 0.000000 -1.000000
vn 0.957157 0.000000 0.289568
vn 0.965692 0.000000 0.259689
vn 0.965692 0.000000 0.259689
vn 0.957157 0.000000 0.289568
vn -0.965692 0.000000 -0.259689
vn -0.957157 0.000000 -0.289568
vn -0.957157 0.000000 -0.289568
vn -0.965692 0.000000 -0.259689
vn 0.000000 1.000000 0.000000
vn 0.000000 1.000000 0.000000
vn 0.000000 1.000000 0.000000
vn 0.000000 1.000000 0.000000
vn -0.957157 0.000000 0.289568
vn -0.965692 0.000000 0.259689
vn -0.965692 0.000000 0.259689
vn -0.957157 0.000000 0.289568
vn 0.965692 0.000000 -0.259689
vn 0.965692 0.000000 -0.259689
vn 0.957157 0.000000 -0.289568
vn 0.957157 0.000000 -0.289568
vn 0.000000 1.000000 0.000000
vn 0.000000 1.000000 0.000000
vn -0.973416 0.000000 0.229045
vn -0.973416 0.000000 0.229045
vn 0.973416 0.000000 -0.229045
vn 0.973416 0.000000 -0.229045
vn 0.000000 1.000000 0.000000
vn 0.000000 1.000000 0.000000
vn -0.989949 0.000000 0.141425
vn -0.989949 0.000000 0.141425
vn 0.989949 0.000000 -0.141425
vn 0.989949 0.000000 -0.141425
vn 0.000000 1.000000 0.000000
vn 0.000000 1.000000 0.000000
vn -1.000000 0.000000 0.000000
vn -1.000000 0.000000 0.000000
vn 1.000000 0.000000 -0.000000
vn 1.000000 0.000000 -0.000000
vn 0.000000 1.000000 0.000000
vn 0.000000 1.000000 0.000000
vn -0.989949 0.000000 -0.141425
vn -0.989949 0.000000 -0.141425
vn 0.989949 0.000000 0.141425
vn 0.989949 0.000000 0.141425
vn 0.000000 1.000000 0.000000
vn 0.000000 1.000000 0.000000
vn -0.973416 0.000000 -0.229045
vn -0.973416 0.000000 -0.229045
vn 0.973416 0.000000 0.229045
vn 0.973416 0.000000 0.229045
s off
g nj_cement_walkway_curve_01
usemtl nj_cement_walkway_matSG
f 1/40/1 2/2/2 4/3/3 3/4/4
s 1
f 3/4/5 4/3/6 33/5/7 34/6/8
s off
f 5/7/9 6/8/10 8/37/11 7/10/12
s 2
f 2/39/13 36/11/14 33/5/15 4/3/16
s 3
f 35/12/17 1/1/18 3/4/19 34/6/20
s 1
f 10/13/21 9/14/22 6/8/23 5/7/24
s 3
f 7/38/25 11/15/26 10/13/27 5/7/28
s 2
f 9/14/29 12/16/30 8/9/31 6/8/32
s 1
f 14/17/33 13/18/34 9/14/22 10/13/21
s 3
f 11/15/26 15/19/35 14/17/36 10/13/27
s 2
f 13/18/37 16/20/38 12/16/30 9/14/29
s 1
f 18/21/39 17/22/40 13/18/34 14/17/33
s 3
f 15/19/35 19/23/41 18/21/42 14/17/36
s 2
f 17/22/43 20/24/44 16/20/38 13/18/37
s 1
f 22/25/45 21/26/46 17/22/40 18/21/39
s 3
f 19/23/41 23/27/47 22/25/48 18/21/42
s 2
f 21/26/49 24/28/50 20/24/44 17/22/43
s 1
f 26/29/51 25/30/52 21/26/46 22/25/45
s 3
f 23/27/47 27/31/53 26/29/54 22/25/48
s 2
f 25/30/55 28/32/56 24/28/50 21/26/49
s 1
f 30/33/57 29/34/58 25/30/52 26/29/51
s 3
f 27/31/53 31/35/59 30/33/60 26/29/54
s 2
f 29/34/61 32/36/62 28/32/56 25/30/55
s 1
f 34/6/8 33/5/7 29/34/58 30/33/57
s 3
f 31/35/59 35/12/17 34/6/20 30/33/60
s 2
f 33/5/15 36/11/14 32/36/62 29/34/61
