# This file uses centimeters as units for non-parametric coordinates.

mtllib nj_cement_walkway_curve_02.mtl
g default
v 0.000000 0.000000 0.000000
v 128.000000 0.000000 0.000000
v 0.000000 8.000000 0.000000
v 128.000000 8.000000 0.000000
v 0.000000 8.000000 -255.999969
v 128.000000 8.000000 -255.999969
v 0.000000 0.000000 -255.999969
v 128.000000 0.000000 -255.999969
v 137.680939 8.000000 -223.999985
v 9.680939 8.000000 -223.999985
v 9.680939 0.000000 -223.999985
v 137.680939 0.000000 -223.999985
v 138.892853 8.000000 -191.999969
v 10.892853 8.000000 -191.999969
v 10.892853 0.000000 -191.999969
v 138.892853 0.000000 -191.999969
v 128.732941 8.000000 -160.000000
v 0.732941 8.000000 -160.000000
v 0.732941 0.000000 -160.000000
v 128.732941 0.000000 -160.000000
v 118.974579 8.000000 -127.999985
v -9.025421 8.000000 -127.999985
v -9.025421 0.000000 -127.999985
v 118.974579 0.000000 -127.999985
v 119.888184 8.000000 -96.000000
v -8.111816 8.000000 -96.000000
v -8.111816 0.000000 -96.000000
v 119.888184 0.000000 -96.000000
v 127.520996 8.000000 -63.999992
v -0.479004 8.000000 -63.999992
v -0.479004 0.000000 -63.999992
v 127.520996 0.000000 -63.999992
v 133.258545 8.000000 -32.000008
v 5.258545 8.000000 -32.000008
v 5.258545 0.000000 -32.000008
v 133.258545 0.000000 -32.000008
vt 0.857556 0.468459
vt 0.625419 0.484641
vt 0.625781 0.466174
vt 0.845895 0.467188
vt 0.617610 0.414591
vt 0.837568 0.413976
vt 0.843410 0.036557
vt 0.628439 0.038569
vt 0.617146 0.032759
vt 0.843618 0.018153
vt 0.604425 0.417934
vt 0.850962 0.418245
vt 0.828028 0.087875
vt 0.612992 0.089773
vt 0.840630 0.085400
vt 0.600313 0.081737
vt 0.827178 0.141217
vt 0.609993 0.138803
vt 0.840507 0.136777
vt 0.596528 0.139605
vt 0.844604 0.197551
vt 0.625492 0.192203
vt 0.857870 0.190496
vt 0.612205 0.196827
vt 0.861211 0.251445
vt 0.640815 0.248959
vt 0.874884 0.248037
vt 0.627244 0.250853
vt 0.860078 0.304431
vt 0.639069 0.306489
vt 0.873998 0.306650
vt 0.625385 0.303725
vt 0.861190 0.363867
vt 0.847466 0.359518
vt 0.626477 0.362953
vt 0.612639 0.359335
vt 0.628010 0.019782
vt 0.854314 0.036922
vt 0.613328 0.470552
vt 0.846120 0.485648
vn 0.000000 0.000000 1.000000
vn 0.000000 0.000000 1.000000
vn 0.000000 0.000000 1.000000
vn 0.000000 0.000000 1.000000
vn 0.000000 1.000000 0.000000
vn 0.000000 1.000000 0.000000
vn 0.000000 1.000000 0.000000
vn 0.000000 1.000000 0.000000
vn 0.000000 0.000000 -1.000000
vn 0.000000 0.000000 -1.000000
vn 0.000000 0.000000 -1.000000
vn 0.000000 0.000000 -1.000000
vn 0.986765 0.000000 0.162155
vn 0.999972 0.000000 -0.007484
vn 0.999972 0.000000 -0.007484
vn 0.986765 0.000000 0.162155
vn -0.999972 0.000000 0.007484
vn -0.986765 0.000000 -0.162155
vn -0.986765 0.000000 -0.162155
vn -0.999972 0.000000 0.007484
vn 0.000000 1.000000 0.000000
vn 0.000000 1.000000 0.000000
vn 0.000000 1.000000 0.000000
vn 0.000000 1.000000 0.000000
vn -0.957157 0.000000 0.289568
vn -0.985823 0.000000 0.167788
vn -0.985823 0.000000 0.167788
vn -0.957157 0.000000 0.289568
vn 0.985823 0.000000 -0.167788
vn 0.985823 0.000000 -0.167788
vn 0.957157 0.000000 -0.289568
vn 0.957157 0.000000 -0.289568
vn 0.000000 1.000000 0.000000
vn 0.000000 1.000000 0.000000
vn -0.990367 0.000000 -0.138466
vn -0.990367 0.000000 -0.138466
vn 0.990367 0.000000 0.138466
vn 0.990367 0.000000 0.138466
vn 0.000000 1.000000 0.000000
vn 0.000000 1.000000 0.000000
vn -0.954826 0.000000 -0.297164
vn -0.954826 0.000000 -0.297164
vn 0.954826 0.000000 0.297164
vn 0.954826 0.000000 0.297164
vn 0.000000 1.000000 0.000000
vn 0.000000 1.000000 0.000000
vn -0.990585 0.000000 -0.136898
vn -0.990585 0.000000 -0.136898
vn 0.990585 0.000000 0.136898
vn 0.990585 0.000000 0.136898
vn 0.000000 1.000000 0.000000
vn 0.000000 1.000000 0.000000
vn -0.991201 0.000000 0.132363
vn -0.991201 0.000000 0.132363
vn 0.991201 0.000000 -0.132363
vn 0.991201 0.000000 -0.132363
vn -0.978867 0.000000 0.204497
vn -0.978867 0.000000 0.204497
vn 0.978867 0.000000 -0.204497
vn 0.978867 0.000000 -0.204497
vn 0.000000 1.000000 0.000000
vn 0.000000 1.000000 0.000000
vn 0.000000 1.000000 0.000000
vn 0.000000 1.000000 0.000000
vn 0.000000 1.000000 0.000000
vn 0.000000 1.000000 0.000000
s off
g nj_cement_walkway_curve_02
usemtl nj_cement_walkway_matSG
f 1/40/1 2/2/2 4/3/3 3/4/4
s 1
f 3/4/5 4/3/6 33/5/7 34/6/8
s off
f 5/7/9 6/8/10 8/37/11 7/10/12
s 2
f 2/39/13 36/11/14 33/5/15 4/3/16
s 3
f 35/12/17 1/1/18 3/4/19 34/6/20
s 4
f 10/13/21 9/14/22 6/8/23 5/7/24
s 3
f 7/38/25 11/15/26 10/13/27 5/7/28
s 2
f 9/14/29 12/16/30 8/9/31 6/8/32
s 4
f 14/17/33 13/18/34 9/14/22 10/13/21
s 3
f 11/15/26 15/19/35 14/17/36 10/13/27
s 2
f 13/18/37 16/20/38 12/16/30 9/14/29
s 4
f 18/21/39 17/22/40 13/18/34 14/17/33
s 3
f 15/19/35 19/23/41 18/21/42 14/17/36
s 2
f 17/22/43 20/24/44 16/20/38 13/18/37
s 4
f 22/25/45 21/26/46 17/22/40 18/21/39
s 3
f 19/23/41 23/27/47 22/25/48 18/21/42
s 2
f 21/26/49 24/28/50 20/24/44 17/22/43
s 4
f 26/29/51 25/30/52 21/26/46 22/25/45
s 3
f 23/27/47 27/31/53 26/29/54 22/25/48
s 2
f 25/30/55 28/32/56 24/28/50 21/26/49
s 3
f 27/31/53 31/33/57 30/34/58 26/29/54
s 2
f 29/35/59 32/36/60 28/32/56 25/30/55
s 1
f 34/6/8 33/5/7 29/35/61 30/34/62
s 3
f 31/33/57 35/12/17 34/6/20 30/34/58
s 2
f 33/5/15 36/11/14 32/36/60 29/35/59
s off
f 30/34/63 29/35/64 25/30/65 26/29/66
