# This file uses centimeters as units for non-parametric coordinates.

mtllib nj_house_doubhorz_wall_Lturn_in_01.mtl
g default
v -0.000366 128.000000 0.000000
v -0.000366 128.000000 -256.000000
v -0.000366 0.000000 0.000000
v 15.999634 0.000000 0.000000
v 15.999634 128.000000 0.000000
v 15.999634 128.000000 -256.000000
v 15.999634 0.000000 -240.000000
v 15.999634 128.000000 -240.000000
v -0.000366 128.000000 -240.000000
v 255.999146 0.000000 -240.000000
v 255.999146 128.000000 -240.000000
v 255.999146 0.000000 -256.000000
v 255.999146 128.000000 -256.000000
vt 0.129614 0.553350
vt 0.067114 0.553350
vt 0.159025 0.031795
vt 0.122722 0.069660
vt 0.122716 0.865805
vt 0.069640 0.865805
vt 0.069645 0.069660
vt 0.067114 0.053350
vt 0.129614 0.053350
vt 0.915066 0.031795
vt 0.122717 0.918882
vt 0.069656 0.918882
vt 0.064994 0.552641
vt 0.064994 0.049693
vt 0.128212 0.049693
vt 0.128212 0.552641
vt 0.159761 0.434358
vt 0.159761 0.031136
vt 0.915801 0.031136
vt 0.915801 0.434358
vt 0.915066 0.435017
vt 0.159025 0.435017
vt 0.918856 0.865805
vt 0.918858 0.918882
vn 1.000000 0.000000 0.000000
vn 1.000000 0.000000 0.000000
vn 1.000000 0.000000 0.000000
vn 1.000000 0.000000 0.000000
vn 0.000000 1.000000 0.000000
vn 0.000000 1.000000 0.000000
vn 0.000000 1.000000 0.000000
vn 0.000000 1.000000 0.000000
vn 0.000000 0.000000 1.000000
vn 0.000000 0.000000 1.000000
vn 0.000000 0.000000 1.000000
vn 0.000000 0.000000 1.000000
vn 1.000000 0.000000 0.000000
vn 1.000000 0.000000 0.000000
vn 1.000000 0.000000 0.000000
vn 1.000000 0.000000 0.000000
vn 0.000000 1.000000 0.000000
vn 0.000000 1.000000 0.000000
vn 0.000000 0.000000 1.000000
vn 0.000000 0.000000 1.000000
vn 0.000000 0.000000 1.000000
vn 0.000000 0.000000 1.000000
vn 0.000000 1.000000 0.000000
vn 0.000000 1.000000 0.000000
vn 0.000000 1.000000 0.000000
vn 0.000000 1.000000 0.000000
s off
g nj_house_doubhorz_wall_Lturn_in_01
usemtl nj_house_walls_matSG
f 4/3/1 7/10/2 8/21/3 5/22/4
s 1
f 5/4/5 8/5/6 9/6/7 1/7/8
s off
f 5/1/9 1/2/10 3/8/11 4/9/12
f 11/13/13 10/14/14 12/15/15 13/16/16
s 1
f 9/6/7 8/5/6 6/11/17 2/12/18
s off
f 8/17/19 7/18/20 10/19/21 11/20/22
f 6/11/23 8/5/24 11/23/25 13/24/26
