# This file uses centimeters as units for non-parametric coordinates.

mtllib nj_house_single_wall_Ltrun_out_01.mtl
g default
v 0.000000 0.000000 0.000000
v 128.000000 0.000000 0.000000
v 0.000000 128.000000 0.000000
v 128.000000 128.000000 0.000000
v 0.000000 128.000000 -16.000000
v 128.000000 128.000000 -16.000000
v 0.000000 0.000000 -16.000000
v 128.000000 0.000000 -16.000000
v 112.000000 128.000000 0.000000
v 112.000000 128.000000 -16.000000
v 112.000000 0.000000 0.000000
v 112.000000 128.000000 -128.000000
v 112.000000 0.000000 -128.000000
v 128.000000 128.000000 -128.000000
v 128.000000 0.000000 -128.000000
vt 0.124262 0.040745
vt 0.155584 0.027530
vt 0.124262 0.453611
vt 0.574543 0.924284
vt 0.129173 0.924284
vt 0.129179 0.860660
vt 0.206683 0.027530
vt 0.206683 0.436325
vt 0.155584 0.436325
vt 0.072654 0.040745
vt 0.072654 0.453611
vt 0.574544 0.860660
vt 0.065557 0.924284
vt 0.158683 0.027163
vt 0.130647 0.037498
vt 0.130647 0.537498
vt 0.068147 0.537498
vt 0.068147 0.037498
vt 0.516378 0.027163
vt 0.516378 0.435957
vt 0.158683 0.435957
vt 0.567478 0.027163
vt 0.567478 0.435957
vt 0.564379 0.027530
vt 0.564379 0.436325
vt 0.065563 0.860660
vt 0.065556 0.415297
vt 0.129179 0.415297
vn 0.000000 0.000000 1.000000
vn 0.000000 0.000000 1.000000
vn 0.000000 0.000000 1.000000
vn 0.000000 0.000000 1.000000
vn 0.000000 1.000000 0.000000
vn 0.000000 1.000000 0.000000
vn 0.000000 1.000000 0.000000
vn 0.000000 1.000000 0.000000
vn 1.000000 0.000000 0.000000
vn 1.000000 0.000000 0.000000
vn 1.000000 0.000000 0.000000
vn 1.000000 0.000000 0.000000
vn -1.000000 0.000000 0.000000
vn -1.000000 0.000000 0.000000
vn -1.000000 0.000000 0.000000
vn -1.000000 0.000000 0.000000
vn 0.000000 1.000000 0.000000
vn 0.000000 1.000000 0.000000
vn 0.000000 0.000000 -1.000000
vn 0.000000 0.000000 -1.000000
vn 0.000000 0.000000 -1.000000
vn 0.000000 0.000000 -1.000000
vn 0.000000 0.000000 1.000000
vn 0.000000 0.000000 1.000000
vn 0.000000 1.000000 0.000000
vn 0.000000 1.000000 0.000000
vn 0.000000 1.000000 0.000000
vn 0.000000 1.000000 0.000000
vn 1.000000 0.000000 0.000000
vn 1.000000 0.000000 0.000000
vn 1.000000 0.000000 0.000000
vn 1.000000 0.000000 0.000000
s 1
g nj_house_single_wall_Ltrun_out_01
usemtl nj_house_walls_matSG
f 1/14/1 11/19/2 9/20/3 3/21/4
s 2
f 3/4/5 9/5/6 10/6/7 5/12/8
s off
f 2/2/9 8/7/10 6/8/11 4/9/12
f 7/10/13 1/1/14 3/3/15 5/11/16
s 2
f 9/5/6 4/13/17 6/26/18 10/6/7
s off
f 13/15/19 12/16/20 14/17/21 15/18/22
s 1
f 9/20/3 11/19/2 2/22/23 4/23/24
s off
f 10/6/25 6/26/26 14/27/27 12/28/28
f 6/8/29 8/7/30 15/24/31 14/25/32
